{"ticksPerQuarter":192,"timeSignatures":[{"time":0,"numerator":2,"denominator":4}],"tempos":[{"time":0,"qpm":78.000078000078},{"time":227.69208,"qpm":154.000154000154},{"time":272.10762,"qpm":78.000078000078}],"notes":[{"pitch":72,"velocity":121,"startTime":52.30764,"endTime":52.39578093749999,"instrument":0,"program":60,"isDrum":false},{"pitch":74,"velocity":119,"startTime":52.30764,"endTime":54.951868125,"instrument":0,"program":60,"isDrum":false},{"pitch":70,"velocity":121,"startTime":54.999945,"endTime":55.38456,"instrument":0,"program":60,"isDrum":false},{"pitch":72,"velocity":122,"startTime":55.38456,"endTime":55.7451365625,"instrument":0,"program":60,"isDrum":false},{"pitch":74,"velocity":117,"startTime":55.769175,"endTime":57.908595937499996,"instrument":0,"program":60,"isDrum":false},{"pitch":73,"velocity":118,"startTime":55.961482499999995,"endTime":56.105713125,"instrument":0,"program":60,"isDrum":false},{"pitch":74,"velocity":123,"startTime":58.076865,"endTime":58.453467187499996,"instrument":0,"program":60,"isDrum":false},{"pitch":75,"velocity":123,"startTime":58.461479999999995,"endTime":58.846095,"instrument":0,"program":60,"isDrum":false},{"pitch":77,"velocity":122,"startTime":58.846095,"endTime":59.0464153125,"instrument":0,"program":60,"isDrum":false},{"pitch":75,"velocity":121,"startTime":59.0384025,"endTime":59.4230175,"instrument":0,"program":60,"isDrum":false},{"pitch":74,"velocity":120,"startTime":59.4230175,"endTime":59.759555625,"instrument":0,"program":60,"isDrum":false},{"pitch":72,"velocity":120,"startTime":59.8076325,"endTime":61.049618437499994,"instrument":0,"program":60,"isDrum":false},{"pitch":72,"velocity":120,"startTime":61.153785,"endTime":61.410194999999995,"instrument":0,"program":60,"isDrum":false},{"pitch":74,"velocity":122,"startTime":61.3460925,"endTime":61.626540937499996,"instrument":0,"program":60,"isDrum":false},{"pitch":75,"velocity":121,"startTime":61.538399999999996,"endTime":61.906989375,"instrument":0,"program":60,"isDrum":false},{"pitch":77,"velocity":121,"startTime":61.923015,"endTime":62.195450625,"instrument":0,"program":60,"isDrum":false},{"pitch":75,"velocity":120,"startTime":62.1153225,"endTime":62.435835000000004,"instrument":0,"program":60,"isDrum":false},{"pitch":74,"velocity":120,"startTime":62.499937499999994,"endTime":62.804424374999996,"instrument":0,"program":60,"isDrum":false},{"pitch":72,"velocity":118,"startTime":62.692245,"endTime":64.5271790625,"instrument":0,"program":60,"isDrum":false},{"pitch":73,"velocity":122,"startTime":64.61532,"endTime":64.65538406249999,"instrument":0,"program":60,"isDrum":false},{"pitch":74,"velocity":123,"startTime":64.61532,"endTime":64.91980687499999,"instrument":0,"program":60,"isDrum":false},{"pitch":74,"velocity":122,"startTime":64.999935,"endTime":65.817241875,"instrument":0,"program":60,"isDrum":false},{"pitch":72,"velocity":120,"startTime":65.769165,"endTime":65.9534596875,"instrument":0,"program":60,"isDrum":false},{"pitch":70,"velocity":120,"startTime":65.9614725,"endTime":66.1297415625,"instrument":0,"program":60,"isDrum":false},{"pitch":72,"velocity":118,"startTime":66.15378,"endTime":66.41019,"instrument":0,"program":60,"isDrum":false},{"pitch":74,"velocity":118,"startTime":66.3460875,"endTime":66.57845906249999,"instrument":0,"program":60,"isDrum":false},{"pitch":77,"velocity":123,"startTime":67.307625,"endTime":67.612111875,"instrument":0,"program":60,"isDrum":false},{"pitch":80,"velocity":122,"startTime":67.69224,"endTime":67.7483296875,"instrument":0,"program":60,"isDrum":false},{"pitch":81,"velocity":122,"startTime":67.69224,"endTime":68.2290984375,"instrument":0,"program":60,"isDrum":false},{"pitch":79,"velocity":120,"startTime":68.2691625,"endTime":70.41659625,"instrument":0,"program":60,"isDrum":false},{"pitch":78,"velocity":122,"startTime":70.384545,"endTime":70.54480124999999,"instrument":0,"program":60,"isDrum":false},{"pitch":79,"velocity":122,"startTime":70.5768525,"endTime":70.76916,"instrument":0,"program":60,"isDrum":false},{"pitch":82,"velocity":123,"startTime":70.76916,"endTime":71.0896725,"instrument":0,"program":60,"isDrum":false},{"pitch":82,"velocity":122,"startTime":71.153775,"endTime":71.330056875,"instrument":0,"program":60,"isDrum":false},{"pitch":82,"velocity":122,"startTime":71.3460825,"endTime":72.099286875,"instrument":0,"program":60,"isDrum":false},{"pitch":81,"velocity":120,"startTime":72.1153125,"endTime":72.18742781249999,"instrument":0,"program":60,"isDrum":false},{"pitch":82,"velocity":119,"startTime":72.1153125,"endTime":72.6842221875,"instrument":0,"program":60,"isDrum":false},{"pitch":79,"velocity":123,"startTime":72.692235,"endTime":73.0367859375,"instrument":0,"program":60,"isDrum":false},{"pitch":74,"velocity":123,"startTime":73.07685,"endTime":73.58967,"instrument":0,"program":60,"isDrum":false},{"pitch":75,"velocity":123,"startTime":73.07685,"endTime":73.17300374999999,"instrument":0,"program":60,"isDrum":false},{"pitch":72,"velocity":123,"startTime":73.461465,"endTime":75.41659125,"instrument":0,"program":60,"isDrum":false},{"pitch":78,"velocity":123,"startTime":76.923,"endTime":76.98710249999999,"instrument":0,"program":60,"isDrum":false},{"pitch":79,"velocity":123,"startTime":76.923,"endTime":79.214664375,"instrument":0,"program":60,"isDrum":false},{"pitch":77,"velocity":123,"startTime":79.23069,"endTime":79.6553690625,"instrument":0,"program":60,"isDrum":false},{"pitch":79,"velocity":122,"startTime":79.61530499999999,"endTime":79.83966375,"instrument":0,"program":60,"isDrum":false},{"pitch":80,"velocity":121,"startTime":79.80761249999999,"endTime":80.01594562499999,"instrument":0,"program":60,"isDrum":false},{"pitch":79,"velocity":122,"startTime":79.99992,"endTime":82.2835715625,"instrument":0,"program":60,"isDrum":false},{"pitch":79,"velocity":123,"startTime":82.692225,"endTime":83.028763125,"instrument":0,"program":60,"isDrum":false},{"pitch":79,"velocity":123,"startTime":83.07683999999999,"endTime":83.1970321875,"instrument":0,"program":60,"isDrum":false},{"pitch":80,"velocity":119,"startTime":83.07683999999999,"endTime":83.6136984375,"instrument":0,"program":60,"isDrum":false},{"pitch":79,"velocity":123,"startTime":83.6537625,"endTime":83.9181853125,"instrument":0,"program":60,"isDrum":false},{"pitch":79,"velocity":123,"startTime":84.0383775,"endTime":84.26273625,"instrument":0,"program":60,"isDrum":false},{"pitch":77,"velocity":122,"startTime":84.230685,"endTime":84.45504375,"instrument":0,"program":60,"isDrum":false},{"pitch":77,"velocity":123,"startTime":84.61529999999999,"endTime":86.0335678125,"instrument":0,"program":60,"isDrum":false},{"pitch":70,"velocity":123,"startTime":85.9614525,"endTime":86.137734375,"instrument":0,"program":60,"isDrum":false},{"pitch":70,"velocity":123,"startTime":86.15375999999999,"endTime":86.4822853125,"instrument":0,"program":60,"isDrum":false},{"pitch":77,"velocity":122,"startTime":86.538375,"endTime":86.7707465625,"instrument":0,"program":60,"isDrum":false},{"pitch":77,"velocity":123,"startTime":86.92299,"endTime":87.2835665625,"instrument":0,"program":60,"isDrum":false},{"pitch":79,"velocity":123,"startTime":87.307605,"endTime":87.53196375,"instrument":0,"program":60,"isDrum":false},{"pitch":79,"velocity":123,"startTime":87.69221999999999,"endTime":88.10888625,"instrument":0,"program":60,"isDrum":false},{"pitch":80,"velocity":122,"startTime":88.076835,"endTime":88.3733090625,"instrument":0,"program":60,"isDrum":false},{"pitch":80,"velocity":122,"startTime":88.46145,"endTime":88.862090625,"instrument":0,"program":60,"isDrum":false},{"pitch":82,"velocity":122,"startTime":88.846065,"endTime":89.2547184375,"instrument":0,"program":60,"isDrum":false},{"pitch":80,"velocity":119,"startTime":89.23067999999999,"endTime":89.59125656249999,"instrument":0,"program":60,"isDrum":false},{"pitch":79,"velocity":118,"startTime":89.615295,"endTime":90.304396875,"instrument":0,"program":60,"isDrum":false},{"pitch":77,"velocity":123,"startTime":90.384525,"endTime":90.5768325,"instrument":0,"program":60,"isDrum":false},{"pitch":75,"velocity":122,"startTime":90.5768325,"endTime":90.7290759375,"instrument":0,"program":60,"isDrum":false},{"pitch":77,"velocity":119,"startTime":90.76914,"endTime":91.95503625,"instrument":0,"program":60,"isDrum":false},{"pitch":75,"velocity":123,"startTime":91.922985,"endTime":92.163369375,"instrument":0,"program":60,"isDrum":false},{"pitch":74,"velocity":116,"startTime":92.1152925,"endTime":92.3076,"instrument":0,"program":60,"isDrum":false},{"pitch":75,"velocity":119,"startTime":92.3076,"endTime":93.50952187499999,"instrument":0,"program":60,"isDrum":false},{"pitch":70,"velocity":121,"startTime":93.461445,"endTime":93.573624375,"instrument":0,"program":60,"isDrum":false},{"pitch":70,"velocity":122,"startTime":93.6537525,"endTime":93.8220215625,"instrument":0,"program":60,"isDrum":false},{"pitch":71,"velocity":122,"startTime":93.84606,"endTime":94.182598125,"instrument":0,"program":60,"isDrum":false},{"pitch":73,"velocity":119,"startTime":94.23067499999999,"endTime":94.4790721875,"instrument":0,"program":60,"isDrum":false},{"pitch":71,"velocity":120,"startTime":94.42298249999999,"endTime":94.67137968749999,"instrument":0,"program":60,"isDrum":false},{"pitch":73,"velocity":119,"startTime":94.61529,"endTime":94.78355906249999,"instrument":0,"program":60,"isDrum":false},{"pitch":71,"velocity":119,"startTime":94.8075975,"endTime":94.94381531249999,"instrument":0,"program":60,"isDrum":false},{"pitch":73,"velocity":119,"startTime":94.999905,"endTime":95.13612281249999,"instrument":0,"program":60,"isDrum":false},{"pitch":71,"velocity":121,"startTime":95.1922125,"endTime":95.32843031249999,"instrument":0,"program":60,"isDrum":false},{"pitch":70,"velocity":120,"startTime":95.38452,"endTime":97.1152875,"instrument":0,"program":60,"isDrum":false},{"pitch":88,"velocity":121,"startTime":173.461365,"endTime":173.5334803125,"instrument":0,"program":60,"isDrum":false},{"pitch":88,"velocity":120,"startTime":173.6536725,"endTime":173.733800625,"instrument":0,"program":60,"isDrum":false},{"pitch":93,"velocity":122,"startTime":173.84598,"endTime":174.16649249999998,"instrument":0,"program":60,"isDrum":false},{"pitch":88,"velocity":120,"startTime":174.230595,"endTime":174.31072312499998,"instrument":0,"program":60,"isDrum":false},{"pitch":88,"velocity":122,"startTime":174.4229025,"endTime":174.5110434375,"instrument":0,"program":60,"isDrum":false},{"pitch":93,"velocity":122,"startTime":174.61521,"endTime":174.9597609375,"instrument":0,"program":60,"isDrum":false},{"pitch":88,"velocity":121,"startTime":174.999825,"endTime":175.0879659375,"instrument":0,"program":60,"isDrum":false},{"pitch":88,"velocity":120,"startTime":175.19213249999999,"endTime":175.304311875,"instrument":0,"program":60,"isDrum":false},{"pitch":87,"velocity":121,"startTime":175.38443999999998,"endTime":175.48059375,"instrument":0,"program":60,"isDrum":false},{"pitch":87,"velocity":119,"startTime":175.57674749999998,"endTime":175.688926875,"instrument":0,"program":60,"isDrum":false},{"pitch":88,"velocity":121,"startTime":175.76905499999998,"endTime":175.92129843749998,"instrument":0,"program":60,"isDrum":false},{"pitch":90,"velocity":121,"startTime":176.15367,"endTime":176.3459775,"instrument":0,"program":60,"isDrum":false},{"pitch":88,"velocity":122,"startTime":176.538285,"endTime":176.69854125,"instrument":0,"program":60,"isDrum":false},{"pitch":84,"velocity":119,"startTime":184.99981499999998,"endTime":185.1200071875,"instrument":0,"program":60,"isDrum":false},{"pitch":84,"velocity":119,"startTime":185.19212249999998,"endTime":185.28827625,"instrument":0,"program":60,"isDrum":false},{"pitch":84,"velocity":119,"startTime":185.38442999999998,"endTime":186.5943646875,"instrument":0,"program":60,"isDrum":false},{"pitch":81,"velocity":119,"startTime":185.57673749999998,"endTime":187.1151975,"instrument":0,"program":60,"isDrum":false},{"pitch":77,"velocity":119,"startTime":185.9613525,"endTime":187.1552615625,"instrument":0,"program":60,"isDrum":false},{"pitch":74,"velocity":120,"startTime":186.3459675,"endTime":187.17128718749998,"instrument":0,"program":60,"isDrum":false},{"pitch":72,"velocity":120,"startTime":186.7305825,"endTime":187.2353896875,"instrument":0,"program":60,"isDrum":false},{"pitch":84,"velocity":121,"startTime":211.34594249999998,"endTime":212.91645375000002,"instrument":0,"program":60,"isDrum":false},{"pitch":80,"velocity":120,"startTime":211.7305575,"endTime":212.9404921875,"instrument":0,"program":60,"isDrum":false},{"pitch":77,"velocity":120,"startTime":212.1151725,"endTime":212.98055624999998,"instrument":0,"program":60,"isDrum":false},{"pitch":75,"velocity":121,"startTime":212.4997875,"endTime":213.02062031249997,"instrument":0,"program":60,"isDrum":false},{"pitch":60,"velocity":122,"startTime":213.2690175,"endTime":213.5334403125,"instrument":0,"program":60,"isDrum":false},{"pitch":59,"velocity":122,"startTime":213.6536325,"endTime":213.894016875,"instrument":0,"program":60,"isDrum":false},{"pitch":56,"velocity":123,"startTime":214.03824749999998,"endTime":214.32670875,"instrument":0,"program":60,"isDrum":false},{"pitch":65,"velocity":123,"startTime":214.03824749999998,"endTime":214.23055499999998,"instrument":0,"program":60,"isDrum":false},{"pitch":55,"velocity":123,"startTime":214.42286249999998,"endTime":214.6712596875,"instrument":0,"program":60,"isDrum":false},{"pitch":62,"velocity":123,"startTime":214.42286249999998,"endTime":214.8074775,"instrument":0,"program":60,"isDrum":false},{"pitch":53,"velocity":123,"startTime":214.8074775,"endTime":215.047861875,"instrument":0,"program":60,"isDrum":false},{"pitch":68,"velocity":123,"startTime":214.8074775,"endTime":214.999785,"instrument":0,"program":60,"isDrum":false},{"pitch":50,"velocity":123,"startTime":215.1920925,"endTime":215.44048968750002,"instrument":0,"program":60,"isDrum":false},{"pitch":67,"velocity":123,"startTime":215.1920925,"endTime":215.3844,"instrument":0,"program":60,"isDrum":false},{"pitch":48,"velocity":122,"startTime":215.5767075,"endTime":215.9693353125,"instrument":0,"program":60,"isDrum":false},{"pitch":72,"velocity":123,"startTime":215.5767075,"endTime":215.9613225,"instrument":0,"program":60,"isDrum":false},{"pitch":80,"velocity":121,"startTime":287.49222,"endTime":287.84478375,"instrument":0,"program":60,"isDrum":false},{"pitch":79,"velocity":122,"startTime":287.87683499999997,"endTime":288.3015140625,"instrument":0,"program":60,"isDrum":false},{"pitch":75,"velocity":120,"startTime":288.26144999999997,"endTime":288.63805218749997,"instrument":0,"program":60,"isDrum":false},{"pitch":67,"velocity":121,"startTime":288.646065,"endTime":288.886449375,"instrument":0,"program":60,"isDrum":false},{"pitch":70,"velocity":119,"startTime":288.8383725,"endTime":290.5130503125,"instrument":0,"program":60,"isDrum":false},{"pitch":79,"velocity":121,"startTime":290.56914,"endTime":290.9938190625,"instrument":0,"program":60,"isDrum":false},{"pitch":77,"velocity":120,"startTime":290.953755,"endTime":291.3784340625,"instrument":0,"program":60,"isDrum":false},{"pitch":75,"velocity":119,"startTime":291.33837,"endTime":291.7870875,"instrument":0,"program":60,"isDrum":false},{"pitch":74,"velocity":119,"startTime":291.722985,"endTime":291.9553565625,"instrument":0,"program":60,"isDrum":false},{"pitch":70,"velocity":120,"startTime":291.9152925,"endTime":293.630034375,"instrument":0,"program":60,"isDrum":false},{"pitch":79,"velocity":120,"startTime":293.64606,"endTime":294.014649375,"instrument":0,"program":60,"isDrum":false},{"pitch":75,"velocity":118,"startTime":294.030675,"endTime":294.42330281249997,"instrument":0,"program":60,"isDrum":false},{"pitch":77,"velocity":119,"startTime":294.41528999999997,"endTime":294.8640075,"instrument":0,"program":60,"isDrum":false},{"pitch":79,"velocity":119,"startTime":294.79990499999997,"endTime":295.0162509375,"instrument":0,"program":60,"isDrum":false},{"pitch":75,"velocity":118,"startTime":294.9922125,"endTime":295.3768275,"instrument":0,"program":60,"isDrum":false},{"pitch":71,"velocity":117,"startTime":295.3768275,"endTime":298.16528625,"instrument":0,"program":60,"isDrum":false},{"pitch":78,"velocity":117,"startTime":298.26144,"endTime":298.3656065625,"instrument":0,"program":60,"isDrum":false},{"pitch":79,"velocity":121,"startTime":298.26144,"endTime":298.646055,"instrument":0,"program":60,"isDrum":false},{"pitch":77,"velocity":120,"startTime":298.646055,"endTime":298.9906059375,"instrument":0,"program":60,"isDrum":false},{"pitch":77,"velocity":121,"startTime":299.03067,"endTime":299.4793875,"instrument":0,"program":60,"isDrum":false},{"pitch":75,"velocity":118,"startTime":299.415285,"endTime":299.7438103125,"instrument":0,"program":60,"isDrum":false},{"pitch":75,"velocity":119,"startTime":299.7999,"endTime":300.184515,"instrument":0,"program":60,"isDrum":false},{"pitch":72,"velocity":118,"startTime":300.184515,"endTime":301.0098346875,"instrument":0,"program":60,"isDrum":false},{"pitch":74,"velocity":120,"startTime":300.95374499999997,"endTime":301.3303471875,"instrument":0,"program":60,"isDrum":false},{"pitch":75,"velocity":120,"startTime":301.33835999999997,"endTime":306.02585531249997,"instrument":0,"program":60,"isDrum":false},{"pitch":62,"velocity":122,"startTime":106.1457271875,"endTime":108.84604499999999,"instrument":1,"program":65,"isDrum":false},{"pitch":58,"velocity":123,"startTime":108.862070625,"endTime":109.14251906249999,"instrument":1,"program":65,"isDrum":false},{"pitch":60,"velocity":123,"startTime":109.21463437499999,"endTime":109.55117249999999,"instrument":1,"program":65,"isDrum":false},{"pitch":62,"velocity":123,"startTime":109.57521093749999,"endTime":111.40213218749999,"instrument":1,"program":65,"isDrum":false},{"pitch":62,"velocity":122,"startTime":111.93097781249999,"endTime":112.2675159375,"instrument":1,"program":65,"isDrum":false},{"pitch":63,"velocity":122,"startTime":112.30758,"endTime":112.6681565625,"instrument":1,"program":65,"isDrum":false},{"pitch":65,"velocity":122,"startTime":112.70020781249998,"endTime":112.9726434375,"instrument":1,"program":65,"isDrum":false},{"pitch":63,"velocity":123,"startTime":112.8845025,"endTime":113.2691175,"instrument":1,"program":65,"isDrum":false},{"pitch":62,"velocity":122,"startTime":113.2691175,"endTime":113.4854634375,"instrument":1,"program":65,"isDrum":false},{"pitch":60,"velocity":122,"startTime":113.49347624999999,"endTime":114.5271290625,"instrument":1,"program":65,"isDrum":false},{"pitch":60,"velocity":122,"startTime":114.9758465625,"endTime":115.22424374999999,"instrument":1,"program":65,"isDrum":false},{"pitch":62,"velocity":122,"startTime":115.17616687499999,"endTime":115.3764871875,"instrument":1,"program":65,"isDrum":false},{"pitch":63,"velocity":122,"startTime":115.39251281249999,"endTime":115.7050125,"instrument":1,"program":65,"isDrum":false},{"pitch":65,"velocity":122,"startTime":115.73706375,"endTime":116.01751218749999,"instrument":1,"program":65,"isDrum":false},{"pitch":63,"velocity":122,"startTime":115.97744812500001,"endTime":116.2899478125,"instrument":1,"program":65,"isDrum":false},{"pitch":62,"velocity":122,"startTime":116.27392218749999,"endTime":116.46622968749999,"instrument":1,"program":65,"isDrum":false},{"pitch":62,"velocity":122,"startTime":116.54635781249999,"endTime":116.89892156249999,"instrument":1,"program":65,"isDrum":false},{"pitch":60,"velocity":122,"startTime":116.89892156249999,"endTime":118.42936875000001,"instrument":1,"program":65,"isDrum":false},{"pitch":62,"velocity":122,"startTime":118.46943281249999,"endTime":119.64731624999999,"instrument":1,"program":65,"isDrum":false},{"pitch":60,"velocity":122,"startTime":119.615265,"endTime":119.79955968750001,"instrument":1,"program":65,"isDrum":false},{"pitch":58,"velocity":122,"startTime":119.79955968750001,"endTime":119.9437903125,"instrument":1,"program":65,"isDrum":false},{"pitch":60,"velocity":122,"startTime":119.98385437499999,"endTime":120.20020031249999,"instrument":1,"program":65,"isDrum":false},{"pitch":62,"velocity":122,"startTime":120.208213125,"endTime":120.3444309375,"instrument":1,"program":65,"isDrum":false},{"pitch":65,"velocity":122,"startTime":121.13769937499998,"endTime":121.265904375,"instrument":1,"program":65,"isDrum":false},{"pitch":67,"velocity":122,"startTime":121.522314375,"endTime":122.18737781249999,"instrument":1,"program":65,"isDrum":false},{"pitch":65,"velocity":122,"startTime":122.18737781249999,"endTime":122.2995571875,"instrument":1,"program":65,"isDrum":false},{"pitch":67,"velocity":122,"startTime":122.26750593749999,"endTime":123.75788906249998,"instrument":1,"program":65,"isDrum":false},{"pitch":65,"velocity":122,"startTime":124.1745553125,"endTime":124.438978125,"instrument":1,"program":65,"isDrum":false},{"pitch":67,"velocity":122,"startTime":124.374875625,"endTime":124.5912215625,"instrument":1,"program":65,"isDrum":false},{"pitch":70,"velocity":122,"startTime":124.6553240625,"endTime":124.96782375000001,"instrument":1,"program":65,"isDrum":false},{"pitch":70,"velocity":122,"startTime":125.07199031249999,"endTime":125.256285,"instrument":1,"program":65,"isDrum":false},{"pitch":70,"velocity":122,"startTime":125.42455406250001,"endTime":125.60884874999999,"instrument":1,"program":65,"isDrum":false},{"pitch":70,"velocity":122,"startTime":125.68096406249998,"endTime":125.881284375,"instrument":1,"program":65,"isDrum":false},{"pitch":70,"velocity":122,"startTime":125.99346374999999,"endTime":126.70660406249999,"instrument":1,"program":65,"isDrum":false},{"pitch":67,"velocity":122,"startTime":126.6585271875,"endTime":126.9149371875,"instrument":1,"program":65,"isDrum":false},{"pitch":62,"velocity":122,"startTime":126.93096281249998,"endTime":127.55596218749999,"instrument":1,"program":65,"isDrum":false},{"pitch":60,"velocity":122,"startTime":127.5078853125,"endTime":129.6232678125,"instrument":1,"program":65,"isDrum":false},{"pitch":67,"velocity":123,"startTime":130.77711281249998,"endTime":133.0687771875,"instrument":1,"program":65,"isDrum":false},{"pitch":65,"velocity":123,"startTime":133.0848028125,"endTime":133.5014690625,"instrument":1,"program":65,"isDrum":false},{"pitch":67,"velocity":123,"startTime":133.46941781249998,"endTime":136.01749218749998,"instrument":1,"program":65,"isDrum":false},{"pitch":67,"velocity":112,"startTime":136.5142865625,"endTime":136.66653,"instrument":1,"program":65,"isDrum":false},{"pitch":72,"velocity":117,"startTime":136.6104403125,"endTime":136.746658125,"instrument":1,"program":65,"isDrum":false},{"pitch":75,"velocity":123,"startTime":136.7065940625,"endTime":136.842811875,"instrument":1,"program":65,"isDrum":false},{"pitch":79,"velocity":123,"startTime":136.8027478125,"endTime":137.7562725,"instrument":1,"program":65,"isDrum":false},{"pitch":79,"velocity":123,"startTime":137.83640062499998,"endTime":138.0847978125,"instrument":1,"program":65,"isDrum":false},{"pitch":77,"velocity":123,"startTime":138.0687721875,"endTime":138.25306687499997,"instrument":1,"program":65,"isDrum":false},{"pitch":77,"velocity":123,"startTime":138.333195,"endTime":139.599219375,"instrument":1,"program":65,"isDrum":false},{"pitch":70,"velocity":123,"startTime":139.759475625,"endTime":139.9437703125,"instrument":1,"program":65,"isDrum":false},{"pitch":70,"velocity":123,"startTime":140.03191124999998,"endTime":140.3444109375,"instrument":1,"program":65,"isDrum":false},{"pitch":77,"velocity":123,"startTime":140.38447499999998,"endTime":140.6809490625,"instrument":1,"program":65,"isDrum":false},{"pitch":77,"velocity":123,"startTime":140.77710281249998,"endTime":141.1296665625,"instrument":1,"program":65,"isDrum":false},{"pitch":79,"velocity":123,"startTime":141.169730625,"endTime":141.4822303125,"instrument":1,"program":65,"isDrum":false},{"pitch":79,"velocity":123,"startTime":141.57037125,"endTime":141.906909375,"instrument":1,"program":65,"isDrum":false},{"pitch":80,"velocity":123,"startTime":141.9469734375,"endTime":142.2354346875,"instrument":1,"program":65,"isDrum":false},{"pitch":80,"velocity":123,"startTime":142.3315884375,"endTime":143.44536937499998,"instrument":1,"program":65,"isDrum":false},{"pitch":79,"velocity":123,"startTime":143.4213309375,"endTime":144.90370124999998,"instrument":1,"program":65,"isDrum":false},{"pitch":70,"velocity":122,"startTime":234.9526246875,"endTime":235.17989718750002,"instrument":1,"program":65,"isDrum":false},{"pitch":70,"velocity":122,"startTime":235.248890625,"endTime":235.4234034375,"instrument":1,"program":65,"isDrum":false},{"pitch":70,"velocity":123,"startTime":235.524864375,"endTime":235.7886628125,"instrument":1,"program":65,"isDrum":false},{"pitch":69,"velocity":119,"startTime":235.7764875,"endTime":235.96317562500002,"instrument":1,"program":65,"isDrum":false},{"pitch":69,"velocity":118,"startTime":236.0321690625,"endTime":236.1945065625,"instrument":1,"program":65,"isDrum":false},{"pitch":69,"velocity":122,"startTime":236.27973375,"endTime":236.531356875,"instrument":1,"program":65,"isDrum":false},{"pitch":67,"velocity":123,"startTime":236.55164906250002,"endTime":236.726161875,"instrument":1,"program":65,"isDrum":false},{"pitch":67,"velocity":122,"startTime":236.8032721875,"endTime":236.9412590625,"instrument":1,"program":65,"isDrum":false},{"pitch":67,"velocity":120,"startTime":237.0224278125,"endTime":237.3998625,"instrument":1,"program":65,"isDrum":false},{"pitch":65,"velocity":123,"startTime":237.4201546875,"endTime":237.7935309375,"instrument":1,"program":65,"isDrum":false},{"pitch":64,"velocity":123,"startTime":237.80570625000001,"endTime":238.089796875,"instrument":1,"program":65,"isDrum":false},{"pitch":65,"velocity":123,"startTime":238.1100890625,"endTime":238.21155000000002,"instrument":1,"program":65,"isDrum":false},{"pitch":67,"velocity":122,"startTime":238.2440175,"endTime":239.33167875,"instrument":1,"program":65,"isDrum":false},{"pitch":65,"velocity":113,"startTime":238.2480759375,"endTime":238.276485,"instrument":1,"program":65,"isDrum":false},{"pitch":70,"velocity":123,"startTime":241.1620340625,"endTime":241.3406053125,"instrument":1,"program":65,"isDrum":false},{"pitch":70,"velocity":120,"startTime":241.43800781250002,"endTime":241.60440375000002,"instrument":1,"program":65,"isDrum":false},{"pitch":70,"velocity":122,"startTime":241.72615687500002,"endTime":242.0102475,"instrument":1,"program":65,"isDrum":false},{"pitch":69,"velocity":119,"startTime":241.99807218750001,"endTime":242.19287718750002,"instrument":1,"program":65,"isDrum":false},{"pitch":69,"velocity":123,"startTime":242.302455,"endTime":242.4526171875,"instrument":1,"program":65,"isDrum":false},{"pitch":67,"velocity":81,"startTime":242.3389809375,"endTime":242.3795653125,"instrument":1,"program":65,"isDrum":false},{"pitch":69,"velocity":120,"startTime":242.5419028125,"endTime":242.8178765625,"instrument":1,"program":65,"isDrum":false},{"pitch":67,"velocity":122,"startTime":242.797584375,"endTime":242.9639803125,"instrument":1,"program":65,"isDrum":false},{"pitch":67,"velocity":120,"startTime":243.0289153125,"endTime":243.2237203125,"instrument":1,"program":65,"isDrum":false},{"pitch":67,"velocity":122,"startTime":243.3048890625,"endTime":243.66609,"instrument":1,"program":65,"isDrum":false},{"pitch":65,"velocity":123,"startTime":243.68638218750002,"endTime":244.0191740625,"instrument":1,"program":65,"isDrum":false},{"pitch":70,"velocity":123,"startTime":244.0516415625,"endTime":244.3844334375,"instrument":1,"program":65,"isDrum":false},{"pitch":67,"velocity":122,"startTime":244.39255031250002,"endTime":244.4899528125,"instrument":1,"program":65,"isDrum":false},{"pitch":65,"velocity":123,"startTime":244.4980696875,"endTime":245.6100815625,"instrument":1,"program":65,"isDrum":false},{"pitch":70,"velocity":122,"startTime":245.6506659375,"endTime":247.22128125,"instrument":1,"program":65,"isDrum":false},{"pitch":69,"velocity":115,"startTime":245.66284125,"endTime":245.7237178125,"instrument":1,"program":65,"isDrum":false},{"pitch":69,"velocity":116,"startTime":247.180696875,"endTime":247.5418978125,"instrument":1,"program":65,"isDrum":false},{"pitch":67,"velocity":123,"startTime":247.5418978125,"endTime":248.60115000000002,"instrument":1,"program":65,"isDrum":false},{"pitch":70,"velocity":122,"startTime":248.9867015625,"endTime":249.1977403125,"instrument":1,"program":65,"isDrum":false},{"pitch":70,"velocity":123,"startTime":249.2626753125,"endTime":249.47777250000001,"instrument":1,"program":65,"isDrum":false},{"pitch":70,"velocity":123,"startTime":249.5427075,"endTime":249.7172203125,"instrument":1,"program":65,"isDrum":false},{"pitch":70,"velocity":119,"startTime":249.7902721875,"endTime":249.9769603125,"instrument":1,"program":65,"isDrum":false},{"pitch":70,"velocity":122,"startTime":250.05001218750002,"endTime":250.32192750000002,"instrument":1,"program":65,"isDrum":false},{"pitch":69,"velocity":120,"startTime":250.313810625,"endTime":250.69530375,"instrument":1,"program":65,"isDrum":false},{"pitch":67,"velocity":123,"startTime":250.69936218750001,"endTime":251.3892965625,"instrument":1,"program":65,"isDrum":false},{"pitch":65,"velocity":123,"startTime":251.8276078125,"endTime":252.05893875,"instrument":1,"program":65,"isDrum":false},{"pitch":65,"velocity":120,"startTime":252.1035815625,"endTime":252.2578021875,"instrument":1,"program":65,"isDrum":false},{"pitch":65,"velocity":122,"startTime":252.3714384375,"endTime":252.4526071875,"instrument":1,"program":65,"isDrum":false},{"pitch":65,"velocity":122,"startTime":252.5094253125,"endTime":252.5905940625,"instrument":1,"program":65,"isDrum":false},{"pitch":64,"velocity":81,"startTime":252.5500096875,"endTime":252.5581265625,"instrument":1,"program":65,"isDrum":false},{"pitch":67,"velocity":122,"startTime":252.64335375000002,"endTime":253.430690625,"instrument":1,"program":65,"isDrum":false},{"pitch":65,"velocity":118,"startTime":253.4347490625,"endTime":253.6295540625,"instrument":1,"program":65,"isDrum":false},{"pitch":65,"velocity":119,"startTime":253.6863721875,"endTime":253.79595,"instrument":1,"program":65,"isDrum":false},{"pitch":65,"velocity":122,"startTime":253.8730603125,"endTime":253.9623459375,"instrument":1,"program":65,"isDrum":false},{"pitch":65,"velocity":122,"startTime":254.015105625,"endTime":254.1733846875,"instrument":1,"program":65,"isDrum":false},{"pitch":67,"velocity":123,"startTime":254.24237812500002,"endTime":254.5224103125,"instrument":1,"program":65,"isDrum":false},{"pitch":65,"velocity":123,"startTime":254.49400125,"endTime":254.72127375,"instrument":1,"program":65,"isDrum":false},{"pitch":64,"velocity":123,"startTime":254.7375075,"endTime":254.9444878125,"instrument":1,"program":65,"isDrum":false},{"pitch":65,"velocity":122,"startTime":254.98101375000002,"endTime":255.248870625,"instrument":1,"program":65,"isDrum":false},{"pitch":62,"velocity":120,"startTime":255.248870625,"endTime":255.3827990625,"instrument":1,"program":65,"isDrum":false},{"pitch":60,"velocity":119,"startTime":255.34221468750002,"endTime":256.628739375,"instrument":1,"program":65,"isDrum":false},{"pitch":59,"velocity":109,"startTime":256.596271875,"endTime":256.65309,"instrument":1,"program":65,"isDrum":false},{"pitch":57,"velocity":110,"startTime":256.644973125,"endTime":256.67744062500003,"instrument":1,"program":65,"isDrum":false},{"pitch":55,"velocity":104,"startTime":256.6896159375,"endTime":256.7139665625,"instrument":1,"program":65,"isDrum":false},{"pitch":66,"velocity":122,"startTime":261.1944815625,"endTime":261.3243515625,"instrument":1,"program":65,"isDrum":false},{"pitch":51,"velocity":115,"startTime":272.2999275,"endTime":272.5964015625,"instrument":1,"program":65,"isDrum":false},{"pitch":55,"velocity":116,"startTime":272.492235,"endTime":272.700568125,"instrument":1,"program":65,"isDrum":false},{"pitch":58,"velocity":115,"startTime":272.6845425,"endTime":272.892875625,"instrument":1,"program":65,"isDrum":false},{"pitch":63,"velocity":114,"startTime":272.87685,"endTime":273.7662721875,"instrument":1,"program":65,"isDrum":false},{"pitch":50,"velocity":112,"startTime":273.8383875,"endTime":274.09479749999997,"instrument":1,"program":65,"isDrum":false},{"pitch":53,"velocity":115,"startTime":274.030695,"endTime":274.2790921875,"instrument":1,"program":65,"isDrum":false},{"pitch":58,"velocity":113,"startTime":274.2230025,"endTime":274.44736125,"instrument":1,"program":65,"isDrum":false},{"pitch":62,"velocity":114,"startTime":274.41531,"endTime":275.296719375,"instrument":1,"program":65,"isDrum":false},{"pitch":48,"velocity":113,"startTime":275.3768475,"endTime":275.60120625,"instrument":1,"program":65,"isDrum":false},{"pitch":51,"velocity":113,"startTime":275.569155,"endTime":275.7614625,"instrument":1,"program":65,"isDrum":false},{"pitch":55,"velocity":114,"startTime":275.7614625,"endTime":275.9778084375,"instrument":1,"program":65,"isDrum":false},{"pitch":58,"velocity":113,"startTime":275.95377,"endTime":276.6829359375,"instrument":1,"program":65,"isDrum":false},{"pitch":62,"velocity":122,"startTime":279.79992,"endTime":280.5451115625,"instrument":1,"program":65,"isDrum":false},{"pitch":63,"velocity":115,"startTime":280.56915,"endTime":280.9297265625,"instrument":1,"program":65,"isDrum":false},{"pitch":67,"velocity":115,"startTime":280.953765,"endTime":281.33838,"instrument":1,"program":65,"isDrum":false},{"pitch":66,"velocity":123,"startTime":281.33838,"endTime":282.1476740625,"instrument":1,"program":65,"isDrum":false},{"pitch":67,"velocity":123,"startTime":282.10761,"endTime":282.508250625,"instrument":1,"program":65,"isDrum":false},{"pitch":69,"velocity":122,"startTime":282.492225,"endTime":282.924916875,"instrument":1,"program":65,"isDrum":false},{"pitch":70,"velocity":122,"startTime":282.87684,"endTime":284.4233128125,"instrument":1,"program":65,"isDrum":false},{"pitch":60,"velocity":122,"startTime":284.4153,"endTime":285.5130553125,"instrument":1,"program":65,"isDrum":false},{"pitch":60,"velocity":117,"startTime":285.569145,"endTime":285.79350375,"instrument":1,"program":65,"isDrum":false},{"pitch":62,"velocity":114,"startTime":285.7614525,"endTime":286.001836875,"instrument":1,"program":65,"isDrum":false},{"pitch":58,"velocity":116,"startTime":285.95376,"endTime":287.23581,"instrument":1,"program":65,"isDrum":false},{"pitch":46,"velocity":120,"startTime":15.384599999999999,"endTime":18.429468749999998,"instrument":2,"program":0,"isDrum":false},{"pitch":53,"velocity":123,"startTime":15.384599999999999,"endTime":18.0368409375,"instrument":2,"program":0,"isDrum":false},{"pitch":58,"velocity":123,"startTime":15.384599999999999,"endTime":15.713125312499999,"instrument":2,"program":0,"isDrum":false},{"pitch":61,"velocity":123,"startTime":15.384599999999999,"endTime":15.86536875,"instrument":2,"program":0,"isDrum":false},{"pitch":65,"velocity":122,"startTime":15.384599999999999,"endTime":15.80126625,"instrument":2,"program":0,"isDrum":false},{"pitch":58,"velocity":95,"startTime":15.769214999999999,"endTime":16.1938940625,"instrument":2,"program":0,"isDrum":false},{"pitch":61,"velocity":121,"startTime":16.15383,"endTime":16.6025475,"instrument":2,"program":0,"isDrum":false},{"pitch":65,"velocity":122,"startTime":16.15383,"endTime":16.506393749999997,"instrument":2,"program":0,"isDrum":false},{"pitch":58,"velocity":104,"startTime":16.538445,"endTime":16.971136875,"instrument":2,"program":0,"isDrum":false},{"pitch":61,"velocity":121,"startTime":16.92306,"endTime":17.3797903125,"instrument":2,"program":0,"isDrum":false},{"pitch":65,"velocity":122,"startTime":16.92306,"endTime":17.307675,"instrument":2,"program":0,"isDrum":false},{"pitch":58,"velocity":109,"startTime":17.307675,"endTime":17.772418125,"instrument":2,"program":0,"isDrum":false},{"pitch":61,"velocity":120,"startTime":17.69229,"endTime":18.141007499999997,"instrument":2,"program":0,"isDrum":false},{"pitch":65,"velocity":120,"startTime":17.69229,"endTime":18.10895625,"instrument":2,"program":0,"isDrum":false},{"pitch":58,"velocity":116,"startTime":18.076905,"endTime":18.23716125,"instrument":2,"program":0,"isDrum":false},{"pitch":49,"velocity":123,"startTime":18.46152,"endTime":24.607347187499997,"instrument":2,"program":0,"isDrum":false},{"pitch":56,"velocity":122,"startTime":18.46152,"endTime":21.290042812499998,"instrument":2,"program":0,"isDrum":false},{"pitch":59,"velocity":123,"startTime":18.46152,"endTime":18.749981249999998,"instrument":2,"program":0,"isDrum":false},{"pitch":61,"velocity":123,"startTime":18.46152,"endTime":18.862160624999998,"instrument":2,"program":0,"isDrum":false},{"pitch":65,"velocity":123,"startTime":18.46152,"endTime":18.910237499999997,"instrument":2,"program":0,"isDrum":false},{"pitch":59,"velocity":118,"startTime":18.846135,"endTime":19.310878125,"instrument":2,"program":0,"isDrum":false},{"pitch":61,"velocity":122,"startTime":19.23075,"endTime":19.679467499999998,"instrument":2,"program":0,"isDrum":false},{"pitch":65,"velocity":123,"startTime":19.23075,"endTime":19.6394034375,"instrument":2,"program":0,"isDrum":false},{"pitch":59,"velocity":110,"startTime":19.615365,"endTime":20.040044062499998,"instrument":2,"program":0,"isDrum":false},{"pitch":61,"velocity":121,"startTime":19.99998,"endTime":20.448697499999998,"instrument":2,"program":0,"isDrum":false},{"pitch":65,"velocity":118,"startTime":19.99998,"endTime":20.41664625,"instrument":2,"program":0,"isDrum":false},{"pitch":59,"velocity":117,"startTime":20.384595,"endTime":20.817286875,"instrument":2,"program":0,"isDrum":false},{"pitch":61,"velocity":120,"startTime":20.769209999999998,"endTime":21.28203,"instrument":2,"program":0,"isDrum":false},{"pitch":65,"velocity":122,"startTime":20.769209999999998,"endTime":21.129786562499998,"instrument":2,"program":0,"isDrum":false},{"pitch":59,"velocity":117,"startTime":21.153824999999998,"endTime":21.330106875,"instrument":2,"program":0,"isDrum":false},{"pitch":42,"velocity":121,"startTime":21.538439999999998,"endTime":24.623372812499998,"instrument":2,"program":0,"isDrum":false},{"pitch":54,"velocity":118,"startTime":21.538439999999998,"endTime":24.5913215625,"instrument":2,"program":0,"isDrum":false},{"pitch":61,"velocity":123,"startTime":21.538439999999998,"endTime":22.01920875,"instrument":2,"program":0,"isDrum":false},{"pitch":66,"velocity":118,"startTime":21.538439999999998,"endTime":22.0111959375,"instrument":2,"program":0,"isDrum":false},{"pitch":70,"velocity":121,"startTime":21.538439999999998,"endTime":21.971131874999998,"instrument":2,"program":0,"isDrum":false},{"pitch":58,"velocity":116,"startTime":21.923054999999998,"endTime":22.3477340625,"instrument":2,"program":0,"isDrum":false},{"pitch":61,"velocity":122,"startTime":22.307669999999998,"endTime":22.72433625,"instrument":2,"program":0,"isDrum":false},{"pitch":66,"velocity":121,"startTime":22.307669999999998,"endTime":22.692285,"instrument":2,"program":0,"isDrum":false},{"pitch":70,"velocity":121,"startTime":22.307669999999998,"endTime":22.676259375,"instrument":2,"program":0,"isDrum":false},{"pitch":58,"velocity":117,"startTime":22.692285,"endTime":23.124976874999998,"instrument":2,"program":0,"isDrum":false},{"pitch":61,"velocity":121,"startTime":23.0769,"endTime":23.541643125,"instrument":2,"program":0,"isDrum":false},{"pitch":66,"velocity":122,"startTime":23.0769,"endTime":23.533630312499998,"instrument":2,"program":0,"isDrum":false},{"pitch":70,"velocity":123,"startTime":23.0769,"endTime":23.4855534375,"instrument":2,"program":0,"isDrum":false},{"pitch":58,"velocity":116,"startTime":23.461515,"endTime":23.9022196875,"instrument":2,"program":0,"isDrum":false},{"pitch":61,"velocity":120,"startTime":23.84613,"endTime":24.2708090625,"instrument":2,"program":0,"isDrum":false},{"pitch":66,"velocity":119,"startTime":23.84613,"endTime":24.2708090625,"instrument":2,"program":0,"isDrum":false},{"pitch":70,"velocity":121,"startTime":23.84613,"endTime":24.246770624999996,"instrument":2,"program":0,"isDrum":false},{"pitch":58,"velocity":115,"startTime":24.230745,"endTime":24.647411249999998,"instrument":2,"program":0,"isDrum":false},{"pitch":51,"velocity":123,"startTime":24.61536,"endTime":27.740356875,"instrument":2,"program":0,"isDrum":false},{"pitch":63,"velocity":123,"startTime":24.61536,"endTime":25.0881159375,"instrument":2,"program":0,"isDrum":false},{"pitch":66,"velocity":122,"startTime":24.61536,"endTime":25.032026249999998,"instrument":2,"program":0,"isDrum":false},{"pitch":70,"velocity":123,"startTime":24.61536,"endTime":24.983949374999998,"instrument":2,"program":0,"isDrum":false},{"pitch":58,"velocity":109,"startTime":24.999975,"endTime":25.4246540625,"instrument":2,"program":0,"isDrum":false},{"pitch":63,"velocity":122,"startTime":25.38459,"endTime":25.817281875,"instrument":2,"program":0,"isDrum":false},{"pitch":66,"velocity":119,"startTime":25.38459,"endTime":25.7932434375,"instrument":2,"program":0,"isDrum":false},{"pitch":70,"velocity":122,"startTime":25.38459,"endTime":25.753179375,"instrument":2,"program":0,"isDrum":false},{"pitch":58,"velocity":115,"startTime":25.769205,"endTime":26.201896875,"instrument":2,"program":0,"isDrum":false},{"pitch":63,"velocity":122,"startTime":26.15382,"endTime":26.586511875,"instrument":2,"program":0,"isDrum":false},{"pitch":66,"velocity":120,"startTime":26.15382,"endTime":26.538435,"instrument":2,"program":0,"isDrum":false},{"pitch":70,"velocity":120,"startTime":26.15382,"endTime":26.44228125,"instrument":2,"program":0,"isDrum":false},{"pitch":58,"velocity":108,"startTime":26.538435,"endTime":26.9631140625,"instrument":2,"program":0,"isDrum":false},{"pitch":63,"velocity":121,"startTime":26.92305,"endTime":27.33971625,"instrument":2,"program":0,"isDrum":false},{"pitch":66,"velocity":117,"startTime":26.92305,"endTime":27.195485624999996,"instrument":2,"program":0,"isDrum":false},{"pitch":70,"velocity":122,"startTime":26.92305,"endTime":27.66022875,"instrument":2,"program":0,"isDrum":false},{"pitch":58,"velocity":115,"startTime":27.307665,"endTime":27.4919596875,"instrument":2,"program":0,"isDrum":false},{"pitch":44,"velocity":109,"startTime":27.69228,"endTime":29.431060312499998,"instrument":2,"program":0,"isDrum":false},{"pitch":56,"velocity":122,"startTime":27.69228,"endTime":28.1329846875,"instrument":2,"program":0,"isDrum":false},{"pitch":60,"velocity":119,"startTime":27.69228,"endTime":27.932664374999998,"instrument":2,"program":0,"isDrum":false},{"pitch":63,"velocity":122,"startTime":27.69228,"endTime":28.1009334375,"instrument":2,"program":0,"isDrum":false},{"pitch":68,"velocity":123,"startTime":27.69228,"endTime":28.076895,"instrument":2,"program":0,"isDrum":false},{"pitch":51,"velocity":120,"startTime":28.076895,"endTime":28.453497187500002,"instrument":2,"program":0,"isDrum":false},{"pitch":60,"velocity":119,"startTime":28.076895,"endTime":28.517599687499995,"instrument":2,"program":0,"isDrum":false},{"pitch":56,"velocity":123,"startTime":28.46151,"endTime":28.8701634375,"instrument":2,"program":0,"isDrum":false},{"pitch":63,"velocity":122,"startTime":28.46151,"endTime":28.814073750000002,"instrument":2,"program":0,"isDrum":false},{"pitch":70,"velocity":123,"startTime":28.46151,"endTime":28.8861890625,"instrument":2,"program":0,"isDrum":false},{"pitch":51,"velocity":119,"startTime":28.846124999999997,"endTime":29.887790624999997,"instrument":2,"program":0,"isDrum":false},{"pitch":60,"velocity":114,"startTime":28.846124999999997,"endTime":29.8958034375,"instrument":2,"program":0,"isDrum":false},{"pitch":68,"velocity":119,"startTime":28.846124999999997,"endTime":29.094522187499997,"instrument":2,"program":0,"isDrum":false},{"pitch":66,"velocity":113,"startTime":29.0384325,"endTime":29.3028553125,"instrument":2,"program":0,"isDrum":false},{"pitch":63,"velocity":115,"startTime":29.230739999999997,"endTime":29.8477265625,"instrument":2,"program":0,"isDrum":false},{"pitch":65,"velocity":121,"startTime":29.999969999999998,"endTime":30.368559374999997,"instrument":2,"program":0,"isDrum":false},{"pitch":66,"velocity":117,"startTime":30.384584999999998,"endTime":30.7611871875,"instrument":2,"program":0,"isDrum":false},{"pitch":47,"velocity":117,"startTime":30.769199999999998,"endTime":31.041635624999998,"instrument":2,"program":0,"isDrum":false},{"pitch":54,"velocity":122,"startTime":30.769199999999998,"endTime":31.37817375,"instrument":2,"program":0,"isDrum":false},{"pitch":59,"velocity":123,"startTime":30.769199999999998,"endTime":31.0496484375,"instrument":2,"program":0,"isDrum":false},{"pitch":63,"velocity":121,"startTime":30.769199999999998,"endTime":31.0336228125,"instrument":2,"program":0,"isDrum":false},{"pitch":66,"velocity":122,"startTime":30.769199999999998,"endTime":30.777212812499997,"instrument":2,"program":0,"isDrum":false},{"pitch":71,"velocity":123,"startTime":30.769199999999998,"endTime":31.017597187499998,"instrument":2,"program":0,"isDrum":false},{"pitch":47,"velocity":113,"startTime":31.153814999999998,"endTime":31.3701609375,"instrument":2,"program":0,"isDrum":false},{"pitch":59,"velocity":122,"startTime":31.153814999999998,"endTime":31.362148125,"instrument":2,"program":0,"isDrum":false},{"pitch":63,"velocity":123,"startTime":31.153814999999998,"endTime":31.4663146875,"instrument":2,"program":0,"isDrum":false},{"pitch":66,"velocity":122,"startTime":31.153814999999998,"endTime":31.4182378125,"instrument":2,"program":0,"isDrum":false},{"pitch":71,"velocity":122,"startTime":31.153814999999998,"endTime":31.498365937499997,"instrument":2,"program":0,"isDrum":false},{"pitch":46,"velocity":117,"startTime":31.538429999999998,"endTime":31.8990065625,"instrument":2,"program":0,"isDrum":false},{"pitch":53,"velocity":123,"startTime":31.538429999999998,"endTime":31.8188784375,"instrument":2,"program":0,"isDrum":false},{"pitch":58,"velocity":123,"startTime":31.538429999999998,"endTime":31.8188784375,"instrument":2,"program":0,"isDrum":false},{"pitch":62,"velocity":123,"startTime":31.538429999999998,"endTime":31.7708015625,"instrument":2,"program":0,"isDrum":false},{"pitch":65,"velocity":123,"startTime":31.538429999999998,"endTime":31.82689125,"instrument":2,"program":0,"isDrum":false},{"pitch":70,"velocity":123,"startTime":31.538429999999998,"endTime":31.7547759375,"instrument":2,"program":0,"isDrum":false},{"pitch":45,"velocity":120,"startTime":32.30766,"endTime":32.596121249999996,"instrument":2,"program":0,"isDrum":false},{"pitch":52,"velocity":123,"startTime":32.30766,"endTime":32.644198124999996,"instrument":2,"program":0,"isDrum":false},{"pitch":57,"velocity":123,"startTime":32.30766,"endTime":32.580095625,"instrument":2,"program":0,"isDrum":false},{"pitch":61,"velocity":113,"startTime":32.30766,"endTime":32.5720828125,"instrument":2,"program":0,"isDrum":false},{"pitch":64,"velocity":123,"startTime":32.30766,"endTime":32.612146875,"instrument":2,"program":0,"isDrum":false},{"pitch":69,"velocity":117,"startTime":32.30766,"endTime":32.5720828125,"instrument":2,"program":0,"isDrum":false},{"pitch":45,"velocity":117,"startTime":32.692275,"endTime":32.836505625,"instrument":2,"program":0,"isDrum":false},{"pitch":52,"velocity":117,"startTime":32.692275,"endTime":32.9406721875,"instrument":2,"program":0,"isDrum":false},{"pitch":57,"velocity":122,"startTime":32.692275,"endTime":32.8925953125,"instrument":2,"program":0,"isDrum":false},{"pitch":61,"velocity":123,"startTime":32.692275,"endTime":32.9887490625,"instrument":2,"program":0,"isDrum":false},{"pitch":64,"velocity":123,"startTime":32.692275,"endTime":32.8605440625,"instrument":2,"program":0,"isDrum":false},{"pitch":69,"velocity":120,"startTime":32.692275,"endTime":32.956697812499996,"instrument":2,"program":0,"isDrum":false},{"pitch":46,"velocity":118,"startTime":33.07689,"endTime":33.381376875,"instrument":2,"program":0,"isDrum":false},{"pitch":53,"velocity":123,"startTime":33.07689,"endTime":33.3974025,"instrument":2,"program":0,"isDrum":false},{"pitch":58,"velocity":123,"startTime":33.07689,"endTime":33.445479375,"instrument":2,"program":0,"isDrum":false},{"pitch":62,"velocity":123,"startTime":33.07689,"endTime":33.3092615625,"instrument":2,"program":0,"isDrum":false},{"pitch":65,"velocity":123,"startTime":33.07689,"endTime":33.3893896875,"instrument":2,"program":0,"isDrum":false},{"pitch":70,"velocity":123,"startTime":33.07689,"endTime":33.413428124999996,"instrument":2,"program":0,"isDrum":false},{"pitch":47,"velocity":119,"startTime":33.84612,"endTime":34.1265684375,"instrument":2,"program":0,"isDrum":false},{"pitch":54,"velocity":121,"startTime":33.84612,"endTime":34.455093749999996,"instrument":2,"program":0,"isDrum":false},{"pitch":59,"velocity":123,"startTime":33.84612,"endTime":34.1105428125,"instrument":2,"program":0,"isDrum":false},{"pitch":63,"velocity":122,"startTime":33.84612,"endTime":34.0784915625,"instrument":2,"program":0,"isDrum":false},{"pitch":66,"velocity":119,"startTime":33.84612,"endTime":34.1666325,"instrument":2,"program":0,"isDrum":false},{"pitch":71,"velocity":123,"startTime":33.84612,"endTime":34.1105428125,"instrument":2,"program":0,"isDrum":false},{"pitch":47,"velocity":117,"startTime":34.230734999999996,"endTime":34.4310553125,"instrument":2,"program":0,"isDrum":false},{"pitch":59,"velocity":123,"startTime":34.230734999999996,"endTime":34.4310553125,"instrument":2,"program":0,"isDrum":false},{"pitch":63,"velocity":121,"startTime":34.230734999999996,"endTime":34.487145,"instrument":2,"program":0,"isDrum":false},{"pitch":66,"velocity":119,"startTime":34.230734999999996,"endTime":34.455093749999996,"instrument":2,"program":0,"isDrum":false},{"pitch":71,"velocity":123,"startTime":34.230734999999996,"endTime":34.535221875,"instrument":2,"program":0,"isDrum":false},{"pitch":46,"velocity":18,"startTime":34.61535,"endTime":35.056054687499994,"instrument":2,"program":0,"isDrum":false},{"pitch":53,"velocity":121,"startTime":34.61535,"endTime":34.96791375,"instrument":2,"program":0,"isDrum":false},{"pitch":58,"velocity":123,"startTime":34.61535,"endTime":34.9919521875,"instrument":2,"program":0,"isDrum":false},{"pitch":62,"velocity":123,"startTime":34.61535,"endTime":34.8477215625,"instrument":2,"program":0,"isDrum":false},{"pitch":65,"velocity":123,"startTime":34.61535,"endTime":35.007977812499995,"instrument":2,"program":0,"isDrum":false},{"pitch":70,"velocity":121,"startTime":34.61535,"endTime":34.90381125,"instrument":2,"program":0,"isDrum":false},{"pitch":45,"velocity":117,"startTime":35.38458,"endTime":35.873361562499994,"instrument":2,"program":0,"isDrum":false},{"pitch":52,"velocity":121,"startTime":35.38458,"endTime":35.977528125,"instrument":2,"program":0,"isDrum":false},{"pitch":57,"velocity":120,"startTime":35.38458,"endTime":35.6169515625,"instrument":2,"program":0,"isDrum":false},{"pitch":61,"velocity":122,"startTime":35.38458,"endTime":35.5849003125,"instrument":2,"program":0,"isDrum":false},{"pitch":64,"velocity":123,"startTime":35.38458,"endTime":35.6490028125,"instrument":2,"program":0,"isDrum":false},{"pitch":69,"velocity":117,"startTime":35.38458,"endTime":35.64099,"instrument":2,"program":0,"isDrum":false},{"pitch":57,"velocity":116,"startTime":35.769194999999996,"endTime":35.9855409375,"instrument":2,"program":0,"isDrum":false},{"pitch":61,"velocity":120,"startTime":35.769194999999996,"endTime":36.089707499999996,"instrument":2,"program":0,"isDrum":false},{"pitch":64,"velocity":119,"startTime":35.769194999999996,"endTime":35.921438437499994,"instrument":2,"program":0,"isDrum":false},{"pitch":69,"velocity":116,"startTime":35.769194999999996,"endTime":36.089707499999996,"instrument":2,"program":0,"isDrum":false},{"pitch":46,"velocity":112,"startTime":36.15381,"endTime":36.842911875,"instrument":2,"program":0,"isDrum":false},{"pitch":53,"velocity":122,"startTime":36.15381,"endTime":36.8990015625,"instrument":2,"program":0,"isDrum":false},{"pitch":58,"velocity":122,"startTime":36.15381,"endTime":36.7066940625,"instrument":2,"program":0,"isDrum":false},{"pitch":62,"velocity":121,"startTime":36.15381,"endTime":36.66663,"instrument":2,"program":0,"isDrum":false},{"pitch":65,"velocity":122,"startTime":36.15381,"endTime":36.8990015625,"instrument":2,"program":0,"isDrum":false},{"pitch":70,"velocity":122,"startTime":36.15381,"endTime":36.9631040625,"instrument":2,"program":0,"isDrum":false},{"pitch":51,"velocity":123,"startTime":36.92304,"endTime":37.7483596875,"instrument":2,"program":0,"isDrum":false},{"pitch":58,"velocity":123,"startTime":36.92304,"endTime":37.459898437499994,"instrument":2,"program":0,"isDrum":false},{"pitch":63,"velocity":122,"startTime":36.92304,"endTime":37.17945,"instrument":2,"program":0,"isDrum":false},{"pitch":67,"velocity":123,"startTime":36.92304,"endTime":37.411821562499995,"instrument":2,"program":0,"isDrum":false},{"pitch":63,"velocity":118,"startTime":37.307655,"endTime":37.7323340625,"instrument":2,"program":0,"isDrum":false},{"pitch":58,"velocity":123,"startTime":37.69227,"endTime":38.1009234375,"instrument":2,"program":0,"isDrum":false},{"pitch":67,"velocity":122,"startTime":37.69227,"endTime":38.4534871875,"instrument":2,"program":0,"isDrum":false},{"pitch":70,"velocity":122,"startTime":37.69227,"endTime":38.04483375,"instrument":2,"program":0,"isDrum":false},{"pitch":51,"velocity":122,"startTime":38.076885,"endTime":38.477525625,"instrument":2,"program":0,"isDrum":false},{"pitch":63,"velocity":118,"startTime":38.076885,"endTime":38.413423125,"instrument":2,"program":0,"isDrum":false},{"pitch":50,"velocity":121,"startTime":38.4615,"endTime":39.2387428125,"instrument":2,"program":0,"isDrum":false},{"pitch":58,"velocity":121,"startTime":38.4615,"endTime":39.054448125,"instrument":2,"program":0,"isDrum":false},{"pitch":62,"velocity":122,"startTime":38.4615,"endTime":38.7098971875,"instrument":2,"program":0,"isDrum":false},{"pitch":65,"velocity":123,"startTime":38.4615,"endTime":38.9182303125,"instrument":2,"program":0,"isDrum":false},{"pitch":62,"velocity":121,"startTime":38.846115,"endTime":39.278806875,"instrument":2,"program":0,"isDrum":false},{"pitch":58,"velocity":122,"startTime":39.23073,"endTime":39.64739625,"instrument":2,"program":0,"isDrum":false},{"pitch":65,"velocity":123,"startTime":39.23073,"endTime":39.6554090625,"instrument":2,"program":0,"isDrum":false},{"pitch":70,"velocity":120,"startTime":39.23073,"endTime":39.951883125,"instrument":2,"program":0,"isDrum":false},{"pitch":50,"velocity":120,"startTime":39.615345,"endTime":40.0400240625,"instrument":2,"program":0,"isDrum":false},{"pitch":62,"velocity":121,"startTime":39.615345,"endTime":39.7836140625,"instrument":2,"program":0,"isDrum":false},{"pitch":49,"velocity":122,"startTime":39.99996,"endTime":41.6105353125,"instrument":2,"program":0,"isDrum":false},{"pitch":58,"velocity":123,"startTime":39.99996,"endTime":40.721113124999995,"instrument":2,"program":0,"isDrum":false},{"pitch":61,"velocity":123,"startTime":39.99996,"endTime":40.2323315625,"instrument":2,"program":0,"isDrum":false},{"pitch":64,"velocity":123,"startTime":39.99996,"endTime":40.4727159375,"instrument":2,"program":0,"isDrum":false},{"pitch":67,"velocity":123,"startTime":39.99996,"endTime":40.48072875,"instrument":2,"program":0,"isDrum":false},{"pitch":61,"velocity":120,"startTime":40.384575,"endTime":41.05765125,"instrument":2,"program":0,"isDrum":false},{"pitch":64,"velocity":123,"startTime":40.76919,"endTime":41.129766562499995,"instrument":2,"program":0,"isDrum":false},{"pitch":67,"velocity":122,"startTime":40.76919,"endTime":41.4342534375,"instrument":2,"program":0,"isDrum":false},{"pitch":58,"velocity":122,"startTime":41.153805,"endTime":41.442266249999996,"instrument":2,"program":0,"isDrum":false},{"pitch":61,"velocity":118,"startTime":41.153805,"endTime":41.458291875,"instrument":2,"program":0,"isDrum":false},{"pitch":70,"velocity":122,"startTime":41.153805,"endTime":41.490343124999995,"instrument":2,"program":0,"isDrum":false},{"pitch":48,"velocity":117,"startTime":41.538419999999995,"endTime":42.716303437499995,"instrument":2,"program":0,"isDrum":false},{"pitch":57,"velocity":123,"startTime":41.538419999999995,"endTime":42.59611125,"instrument":2,"program":0,"isDrum":false},{"pitch":60,"velocity":123,"startTime":41.538419999999995,"endTime":41.7707915625,"instrument":2,"program":0,"isDrum":false},{"pitch":65,"velocity":123,"startTime":41.538419999999995,"endTime":42.0272015625,"instrument":2,"program":0,"isDrum":false},{"pitch":69,"velocity":123,"startTime":41.538419999999995,"endTime":42.05124,"instrument":2,"program":0,"isDrum":false},{"pitch":60,"velocity":112,"startTime":41.923035,"endTime":42.41181656249999,"instrument":2,"program":0,"isDrum":false},{"pitch":65,"velocity":123,"startTime":42.307649999999995,"endTime":42.772393124999994,"instrument":2,"program":0,"isDrum":false},{"pitch":69,"velocity":122,"startTime":42.307649999999995,"endTime":44.230725,"instrument":2,"program":0,"isDrum":false},{"pitch":60,"velocity":117,"startTime":42.692265,"endTime":43.926238125,"instrument":2,"program":0,"isDrum":false},{"pitch":41,"velocity":120,"startTime":43.076879999999996,"endTime":45.336493125,"instrument":2,"program":0,"isDrum":false},{"pitch":63,"velocity":123,"startTime":43.076879999999996,"endTime":44.471109375,"instrument":2,"program":0,"isDrum":false},{"pitch":67,"velocity":123,"startTime":43.076879999999996,"endTime":44.58328875,"instrument":2,"program":0,"isDrum":false},{"pitch":72,"velocity":122,"startTime":43.076879999999996,"endTime":44.5432246875,"instrument":2,"program":0,"isDrum":false},{"pitch":48,"velocity":119,"startTime":43.461495,"endTime":45.392582812499995,"instrument":2,"program":0,"isDrum":false},{"pitch":57,"velocity":123,"startTime":43.846109999999996,"endTime":45.0880959375,"instrument":2,"program":0,"isDrum":false},{"pitch":60,"velocity":119,"startTime":44.230725,"endTime":45.16021125,"instrument":2,"program":0,"isDrum":false},{"pitch":63,"velocity":18,"startTime":44.615339999999996,"endTime":45.344505937499996,"instrument":2,"program":0,"isDrum":false},{"pitch":69,"velocity":117,"startTime":44.615339999999996,"endTime":44.64739125,"instrument":2,"program":0,"isDrum":false},{"pitch":72,"velocity":121,"startTime":44.615339999999996,"endTime":45.22431374999999,"instrument":2,"program":0,"isDrum":false},{"pitch":57,"velocity":122,"startTime":45.38457,"endTime":46.0896975,"instrument":2,"program":0,"isDrum":false},{"pitch":34,"velocity":121,"startTime":46.1538,"endTime":49.014374062499996,"instrument":2,"program":0,"isDrum":false},{"pitch":46,"velocity":123,"startTime":46.1538,"endTime":52.03520437499999,"instrument":2,"program":0,"isDrum":false},{"pitch":58,"velocity":119,"startTime":46.1538,"endTime":46.6746328125,"instrument":2,"program":0,"isDrum":false},{"pitch":53,"velocity":115,"startTime":46.538415,"endTime":47.8124521875,"instrument":2,"program":0,"isDrum":false},{"pitch":58,"velocity":117,"startTime":46.92303,"endTime":48.8701434375,"instrument":2,"program":0,"isDrum":false},{"pitch":62,"velocity":115,"startTime":47.307645,"endTime":48.5977078125,"instrument":2,"program":0,"isDrum":false},{"pitch":67,"velocity":116,"startTime":47.69226,"endTime":50.416616250000004,"instrument":2,"program":0,"isDrum":false},{"pitch":79,"velocity":116,"startTime":47.69226,"endTime":49.3028353125,"instrument":2,"program":0,"isDrum":false},{"pitch":53,"velocity":101,"startTime":48.076875,"endTime":48.509566875,"instrument":2,"program":0,"isDrum":false},{"pitch":65,"velocity":117,"startTime":48.46149,"endTime":49.158604687499995,"instrument":2,"program":0,"isDrum":false},{"pitch":77,"velocity":118,"startTime":48.46149,"endTime":49.1906559375,"instrument":2,"program":0,"isDrum":false},{"pitch":53,"velocity":107,"startTime":48.846105,"endTime":49.278796875,"instrument":2,"program":0,"isDrum":false},{"pitch":34,"velocity":123,"startTime":49.23072,"endTime":52.0271915625,"instrument":2,"program":0,"isDrum":false},{"pitch":58,"velocity":118,"startTime":49.23072,"endTime":49.6874503125,"instrument":2,"program":0,"isDrum":false},{"pitch":62,"velocity":123,"startTime":49.23072,"endTime":49.67943749999999,"instrument":2,"program":0,"isDrum":false},{"pitch":53,"velocity":104,"startTime":49.615334999999995,"endTime":50.85732093749999,"instrument":2,"program":0,"isDrum":false},{"pitch":58,"velocity":113,"startTime":49.99995,"endTime":51.906999375,"instrument":2,"program":0,"isDrum":false},{"pitch":62,"velocity":116,"startTime":50.384564999999995,"endTime":51.2739871875,"instrument":2,"program":0,"isDrum":false},{"pitch":67,"velocity":116,"startTime":50.76918,"endTime":52.379755312499995,"instrument":2,"program":0,"isDrum":false},{"pitch":79,"velocity":116,"startTime":50.76918,"endTime":52.379755312499995,"instrument":2,"program":0,"isDrum":false},{"pitch":53,"velocity":108,"startTime":51.153794999999995,"endTime":51.63456375,"instrument":2,"program":0,"isDrum":false},{"pitch":65,"velocity":118,"startTime":51.53841,"endTime":52.2675759375,"instrument":2,"program":0,"isDrum":false},{"pitch":77,"velocity":118,"startTime":51.53841,"endTime":52.2675759375,"instrument":2,"program":0,"isDrum":false},{"pitch":53,"velocity":115,"startTime":51.923024999999996,"endTime":52.331678437499995,"instrument":2,"program":0,"isDrum":false},{"pitch":34,"velocity":123,"startTime":52.30764,"endTime":55.3925728125,"instrument":2,"program":0,"isDrum":false},{"pitch":46,"velocity":123,"startTime":52.30764,"endTime":55.368534375,"instrument":2,"program":0,"isDrum":false},{"pitch":58,"velocity":122,"startTime":52.30764,"endTime":52.6361653125,"instrument":2,"program":0,"isDrum":false},{"pitch":62,"velocity":122,"startTime":52.30764,"endTime":53.0848828125,"instrument":2,"program":0,"isDrum":false},{"pitch":53,"velocity":113,"startTime":52.692254999999996,"endTime":53.886164062499994,"instrument":2,"program":0,"isDrum":false},{"pitch":58,"velocity":115,"startTime":53.07687,"endTime":55.0239834375,"instrument":2,"program":0,"isDrum":false},{"pitch":62,"velocity":115,"startTime":53.461484999999996,"endTime":54.64738125,"instrument":2,"program":0,"isDrum":false},{"pitch":67,"velocity":117,"startTime":53.8461,"endTime":55.4486625,"instrument":2,"program":0,"isDrum":false},{"pitch":79,"velocity":116,"startTime":53.8461,"endTime":55.456675312499996,"instrument":2,"program":0,"isDrum":false},{"pitch":53,"velocity":115,"startTime":54.230715,"endTime":54.831675937499995,"instrument":2,"program":0,"isDrum":false},{"pitch":65,"velocity":120,"startTime":54.61533,"endTime":55.41661125,"instrument":2,"program":0,"isDrum":false},{"pitch":77,"velocity":118,"startTime":54.61533,"endTime":55.3444959375,"instrument":2,"program":0,"isDrum":false},{"pitch":53,"velocity":114,"startTime":54.999945,"endTime":55.40058562499999,"instrument":2,"program":0,"isDrum":false},{"pitch":43,"velocity":122,"startTime":55.38456,"endTime":58.47750562499999,"instrument":2,"program":0,"isDrum":false},{"pitch":58,"velocity":120,"startTime":55.38456,"endTime":55.8252646875,"instrument":2,"program":0,"isDrum":false},{"pitch":62,"velocity":123,"startTime":55.38456,"endTime":56.233918125,"instrument":2,"program":0,"isDrum":false},{"pitch":55,"velocity":116,"startTime":55.769175,"endTime":57.091289062499996,"instrument":2,"program":0,"isDrum":false},{"pitch":58,"velocity":117,"startTime":56.15379,"endTime":58.16500593749999,"instrument":2,"program":0,"isDrum":false},{"pitch":62,"velocity":118,"startTime":56.538405,"endTime":57.70827562499999,"instrument":2,"program":0,"isDrum":false},{"pitch":69,"velocity":117,"startTime":56.92302,"endTime":57.33968625,"instrument":2,"program":0,"isDrum":false},{"pitch":81,"velocity":116,"startTime":56.92302,"endTime":58.5335953125,"instrument":2,"program":0,"isDrum":false},{"pitch":55,"velocity":117,"startTime":57.307635,"endTime":58.42942874999999,"instrument":2,"program":0,"isDrum":false},{"pitch":67,"velocity":121,"startTime":57.692249999999994,"endTime":58.541608125,"instrument":2,"program":0,"isDrum":false},{"pitch":79,"velocity":118,"startTime":57.692249999999994,"endTime":58.4214159375,"instrument":2,"program":0,"isDrum":false},{"pitch":62,"velocity":117,"startTime":58.076865,"endTime":58.20507,"instrument":2,"program":0,"isDrum":false},{"pitch":36,"velocity":123,"startTime":58.461479999999995,"endTime":61.3541053125,"instrument":2,"program":0,"isDrum":false},{"pitch":48,"velocity":123,"startTime":58.461479999999995,"endTime":61.314041249999995,"instrument":2,"program":0,"isDrum":false},{"pitch":60,"velocity":123,"startTime":58.461479999999995,"endTime":58.814043749999996,"instrument":2,"program":0,"isDrum":false},{"pitch":63,"velocity":123,"startTime":58.461479999999995,"endTime":59.006351249999994,"instrument":2,"program":0,"isDrum":false},{"pitch":60,"velocity":119,"startTime":58.846095,"endTime":60.11211937499999,"instrument":2,"program":0,"isDrum":false},{"pitch":63,"velocity":117,"startTime":59.230709999999995,"endTime":61.0175671875,"instrument":2,"program":0,"isDrum":false},{"pitch":67,"velocity":109,"startTime":59.615325,"endTime":60.83327249999999,"instrument":2,"program":0,"isDrum":false},{"pitch":74,"velocity":116,"startTime":59.999939999999995,"endTime":60.440644687500004,"instrument":2,"program":0,"isDrum":false},{"pitch":86,"velocity":116,"startTime":59.999939999999995,"endTime":61.6105153125,"instrument":2,"program":0,"isDrum":false},{"pitch":60,"velocity":119,"startTime":60.384555,"endTime":61.586476874999995,"instrument":2,"program":0,"isDrum":false},{"pitch":72,"velocity":121,"startTime":60.769169999999995,"endTime":63.0127575,"instrument":2,"program":0,"isDrum":false},{"pitch":84,"velocity":118,"startTime":60.769169999999995,"endTime":61.4983359375,"instrument":2,"program":0,"isDrum":false},{"pitch":63,"velocity":121,"startTime":61.153785,"endTime":61.8829509375,"instrument":2,"program":0,"isDrum":false},{"pitch":36,"velocity":123,"startTime":61.538399999999996,"endTime":61.9871175,"instrument":2,"program":0,"isDrum":false},{"pitch":48,"velocity":123,"startTime":61.538399999999996,"endTime":63.044808749999994,"instrument":2,"program":0,"isDrum":false},{"pitch":67,"velocity":123,"startTime":61.538399999999996,"endTime":62.2675659375,"instrument":2,"program":0,"isDrum":false},{"pitch":60,"velocity":114,"startTime":61.923015,"endTime":62.668206562499996,"instrument":2,"program":0,"isDrum":false},{"pitch":36,"velocity":99,"startTime":62.1153225,"endTime":62.3476940625,"instrument":2,"program":0,"isDrum":false},{"pitch":63,"velocity":118,"startTime":62.307629999999996,"endTime":62.692245,"instrument":2,"program":0,"isDrum":false},{"pitch":67,"velocity":117,"startTime":62.692245,"endTime":63.0528215625,"instrument":2,"program":0,"isDrum":false},{"pitch":41,"velocity":113,"startTime":63.076859999999996,"endTime":64.64737125,"instrument":2,"program":0,"isDrum":false},{"pitch":53,"velocity":121,"startTime":63.076859999999996,"endTime":64.61532,"instrument":2,"program":0,"isDrum":false},{"pitch":69,"velocity":123,"startTime":63.076859999999996,"endTime":64.182628125,"instrument":2,"program":0,"isDrum":false},{"pitch":63,"velocity":117,"startTime":63.461475,"endTime":64.182628125,"instrument":2,"program":0,"isDrum":false},{"pitch":65,"velocity":119,"startTime":63.84609,"endTime":64.2707690625,"instrument":2,"program":0,"isDrum":false},{"pitch":72,"velocity":119,"startTime":64.230705,"endTime":64.342884375,"instrument":2,"program":0,"isDrum":false},{"pitch":46,"velocity":121,"startTime":64.61532,"endTime":67.7002528125,"instrument":2,"program":0,"isDrum":false},{"pitch":58,"velocity":119,"startTime":64.61532,"endTime":65.0720503125,"instrument":2,"program":0,"isDrum":false},{"pitch":62,"velocity":122,"startTime":64.61532,"endTime":65.464678125,"instrument":2,"program":0,"isDrum":false},{"pitch":53,"velocity":113,"startTime":64.999935,"endTime":66.2098696875,"instrument":2,"program":0,"isDrum":false},{"pitch":58,"velocity":118,"startTime":65.38455,"endTime":67.323650625,"instrument":2,"program":0,"isDrum":false},{"pitch":62,"velocity":120,"startTime":65.769165,"endTime":66.90698437500001,"instrument":2,"program":0,"isDrum":false},{"pitch":67,"velocity":120,"startTime":66.15378,"endTime":67.7643553125,"instrument":2,"program":0,"isDrum":false},{"pitch":79,"velocity":116,"startTime":66.15378,"endTime":67.7643553125,"instrument":2,"program":0,"isDrum":false},{"pitch":53,"velocity":116,"startTime":66.538395,"endTime":66.971086875,"instrument":2,"program":0,"isDrum":false},{"pitch":65,"velocity":119,"startTime":66.92300999999999,"endTime":67.676214375,"instrument":2,"program":0,"isDrum":false},{"pitch":77,"velocity":118,"startTime":66.92300999999999,"endTime":67.6521759375,"instrument":2,"program":0,"isDrum":false},{"pitch":53,"velocity":112,"startTime":67.307625,"endTime":67.6521759375,"instrument":2,"program":0,"isDrum":false},{"pitch":43,"velocity":120,"startTime":67.69224,"endTime":70.785185625,"instrument":2,"program":0,"isDrum":false},{"pitch":58,"velocity":122,"startTime":67.69224,"endTime":68.1409575,"instrument":2,"program":0,"isDrum":false},{"pitch":62,"velocity":123,"startTime":67.69224,"endTime":68.5976878125,"instrument":2,"program":0,"isDrum":false},{"pitch":55,"velocity":117,"startTime":68.076855,"endTime":69.27076406249999,"instrument":2,"program":0,"isDrum":false},{"pitch":58,"velocity":121,"startTime":68.46146999999999,"endTime":70.3204425,"instrument":2,"program":0,"isDrum":false},{"pitch":62,"velocity":120,"startTime":68.846085,"endTime":70.1361478125,"instrument":2,"program":0,"isDrum":false},{"pitch":69,"velocity":117,"startTime":69.2307,"endTime":69.63935343749999,"instrument":2,"program":0,"isDrum":false},{"pitch":81,"velocity":116,"startTime":69.2307,"endTime":70.8412753125,"instrument":2,"program":0,"isDrum":false},{"pitch":55,"velocity":121,"startTime":69.615315,"endTime":70.03198125,"instrument":2,"program":0,"isDrum":false},{"pitch":67,"velocity":120,"startTime":69.99992999999999,"endTime":72.3797353125,"instrument":2,"program":0,"isDrum":false},{"pitch":79,"velocity":118,"startTime":69.99992999999999,"endTime":70.7290959375,"instrument":2,"program":0,"isDrum":false},{"pitch":55,"velocity":117,"startTime":70.384545,"endTime":70.7290959375,"instrument":2,"program":0,"isDrum":false},{"pitch":48,"velocity":123,"startTime":70.76916,"endTime":72.1553765625,"instrument":2,"program":0,"isDrum":false},{"pitch":60,"velocity":123,"startTime":70.76916,"endTime":71.2178775,"instrument":2,"program":0,"isDrum":false},{"pitch":63,"velocity":122,"startTime":70.76916,"endTime":71.2419159375,"instrument":2,"program":0,"isDrum":false},{"pitch":55,"velocity":117,"startTime":71.153775,"endTime":71.8989665625,"instrument":2,"program":0,"isDrum":false},{"pitch":60,"velocity":118,"startTime":71.53838999999999,"endTime":72.0271715625,"instrument":2,"program":0,"isDrum":false},{"pitch":47,"velocity":122,"startTime":71.923005,"endTime":72.163389375,"instrument":2,"program":0,"isDrum":false},{"pitch":55,"velocity":119,"startTime":71.923005,"endTime":72.27556874999999,"instrument":2,"program":0,"isDrum":false},{"pitch":63,"velocity":121,"startTime":71.923005,"endTime":72.17140218750001,"instrument":2,"program":0,"isDrum":false},{"pitch":46,"velocity":123,"startTime":72.30762,"endTime":73.04479875,"instrument":2,"program":0,"isDrum":false},{"pitch":58,"velocity":123,"startTime":72.30762,"endTime":72.676209375,"instrument":2,"program":0,"isDrum":false},{"pitch":63,"velocity":122,"startTime":72.30762,"endTime":72.7643503125,"instrument":2,"program":0,"isDrum":false},{"pitch":67,"velocity":18,"startTime":72.4999275,"endTime":73.11691406249999,"instrument":2,"program":0,"isDrum":false},{"pitch":55,"velocity":117,"startTime":72.692235,"endTime":73.1329396875,"instrument":2,"program":0,"isDrum":false},{"pitch":45,"velocity":123,"startTime":73.07685,"endTime":73.8540928125,"instrument":2,"program":0,"isDrum":false},{"pitch":57,"velocity":123,"startTime":73.07685,"endTime":73.445439375,"instrument":2,"program":0,"isDrum":false},{"pitch":63,"velocity":123,"startTime":73.07685,"endTime":73.6137084375,"instrument":2,"program":0,"isDrum":false},{"pitch":55,"velocity":118,"startTime":73.461465,"endTime":73.84608,"instrument":2,"program":0,"isDrum":false},{"pitch":44,"velocity":123,"startTime":73.84608,"endTime":75.34447593750001,"instrument":2,"program":0,"isDrum":false},{"pitch":58,"velocity":123,"startTime":73.84608,"endTime":74.230695,"instrument":2,"program":0,"isDrum":false},{"pitch":63,"velocity":123,"startTime":73.84608,"endTime":74.4230025,"instrument":2,"program":0,"isDrum":false},{"pitch":56,"velocity":120,"startTime":74.230695,"endTime":74.5752459375,"instrument":2,"program":0,"isDrum":false},{"pitch":60,"velocity":121,"startTime":74.61531,"endTime":75.38454,"instrument":2,"program":0,"isDrum":false},{"pitch":63,"velocity":120,"startTime":74.61531,"endTime":75.1040915625,"instrument":2,"program":0,"isDrum":false},{"pitch":56,"velocity":116,"startTime":74.99992499999999,"endTime":75.36050156249999,"instrument":2,"program":0,"isDrum":false},{"pitch":43,"velocity":122,"startTime":75.38454,"endTime":76.18582125,"instrument":2,"program":0,"isDrum":false},{"pitch":58,"velocity":123,"startTime":75.38454,"endTime":75.7771678125,"instrument":2,"program":0,"isDrum":false},{"pitch":63,"velocity":123,"startTime":75.38454,"endTime":76.041590625,"instrument":2,"program":0,"isDrum":false},{"pitch":55,"velocity":113,"startTime":75.769155,"endTime":76.041590625,"instrument":2,"program":0,"isDrum":false},{"pitch":41,"velocity":122,"startTime":76.15377,"endTime":76.91498718749999,"instrument":2,"program":0,"isDrum":false},{"pitch":56,"velocity":123,"startTime":76.15377,"endTime":76.57043625,"instrument":2,"program":0,"isDrum":false},{"pitch":63,"velocity":123,"startTime":76.15377,"endTime":76.69864125,"instrument":2,"program":0,"isDrum":false},{"pitch":53,"velocity":117,"startTime":76.53838499999999,"endTime":76.89896156249999,"instrument":2,"program":0,"isDrum":false},{"pitch":39,"velocity":123,"startTime":76.923,"endTime":79.27075406249999,"instrument":2,"program":0,"isDrum":false},{"pitch":51,"velocity":122,"startTime":76.923,"endTime":79.182613125,"instrument":2,"program":0,"isDrum":false},{"pitch":58,"velocity":123,"startTime":76.923,"endTime":77.387743125,"instrument":2,"program":0,"isDrum":false},{"pitch":63,"velocity":123,"startTime":76.923,"endTime":77.419794375,"instrument":2,"program":0,"isDrum":false},{"pitch":67,"velocity":123,"startTime":76.923,"endTime":77.37171749999999,"instrument":2,"program":0,"isDrum":false},{"pitch":55,"velocity":93,"startTime":77.307615,"endTime":77.7643453125,"instrument":2,"program":0,"isDrum":false},{"pitch":58,"velocity":123,"startTime":77.69223,"endTime":78.16498593749999,"instrument":2,"program":0,"isDrum":false},{"pitch":63,"velocity":122,"startTime":77.69223,"endTime":78.1970371875,"instrument":2,"program":0,"isDrum":false},{"pitch":67,"velocity":123,"startTime":77.69223,"endTime":78.09287062499999,"instrument":2,"program":0,"isDrum":false},{"pitch":55,"velocity":117,"startTime":78.07684499999999,"endTime":78.52556249999999,"instrument":2,"program":0,"isDrum":false},{"pitch":58,"velocity":122,"startTime":78.46146,"endTime":78.91017749999999,"instrument":2,"program":0,"isDrum":false},{"pitch":63,"velocity":121,"startTime":78.46146,"endTime":79.0624209375,"instrument":2,"program":0,"isDrum":false},{"pitch":67,"velocity":123,"startTime":78.46146,"endTime":78.8380621875,"instrument":2,"program":0,"isDrum":false},{"pitch":55,"velocity":118,"startTime":78.846075,"endTime":79.15857468749999,"instrument":2,"program":0,"isDrum":false},{"pitch":38,"velocity":122,"startTime":79.23069,"endTime":79.983894375,"instrument":2,"program":0,"isDrum":false},{"pitch":50,"velocity":123,"startTime":79.23069,"endTime":79.887740625,"instrument":2,"program":0,"isDrum":false},{"pitch":58,"velocity":123,"startTime":79.23069,"endTime":79.61530499999999,"instrument":2,"program":0,"isDrum":false},{"pitch":62,"velocity":123,"startTime":79.23069,"endTime":79.5752409375,"instrument":2,"program":0,"isDrum":false},{"pitch":65,"velocity":123,"startTime":79.23069,"endTime":80.0399840625,"instrument":2,"program":0,"isDrum":false},{"pitch":53,"velocity":117,"startTime":79.61530499999999,"endTime":79.9438303125,"instrument":2,"program":0,"isDrum":false},{"pitch":36,"velocity":123,"startTime":79.99992,"endTime":82.547994375,"instrument":2,"program":0,"isDrum":false},{"pitch":48,"velocity":123,"startTime":79.99992,"endTime":82.63613531249999,"instrument":2,"program":0,"isDrum":false},{"pitch":60,"velocity":123,"startTime":79.99992,"endTime":80.25632999999999,"instrument":2,"program":0,"isDrum":false},{"pitch":63,"velocity":123,"startTime":79.99992,"endTime":80.44863749999999,"instrument":2,"program":0,"isDrum":false},{"pitch":60,"velocity":116,"startTime":80.384535,"endTime":80.83325249999999,"instrument":2,"program":0,"isDrum":false},{"pitch":63,"velocity":121,"startTime":80.76915,"endTime":81.4181878125,"instrument":2,"program":0,"isDrum":false},{"pitch":67,"velocity":117,"startTime":81.15376499999999,"endTime":81.5624184375,"instrument":2,"program":0,"isDrum":false},{"pitch":62,"velocity":119,"startTime":81.53838,"endTime":81.939020625,"instrument":2,"program":0,"isDrum":false},{"pitch":74,"velocity":118,"startTime":81.53838,"endTime":82.0592128125,"instrument":2,"program":0,"isDrum":false},{"pitch":63,"velocity":119,"startTime":81.922995,"endTime":82.98068624999999,"instrument":2,"program":0,"isDrum":false},{"pitch":60,"velocity":116,"startTime":82.30761,"endTime":83.23709625,"instrument":2,"program":0,"isDrum":false},{"pitch":72,"velocity":122,"startTime":82.30761,"endTime":83.509531875,"instrument":2,"program":0,"isDrum":false},{"pitch":67,"velocity":114,"startTime":82.692225,"endTime":83.0127375,"instrument":2,"program":0,"isDrum":false},{"pitch":41,"velocity":120,"startTime":83.07683999999999,"endTime":84.278761875,"instrument":2,"program":0,"isDrum":false},{"pitch":53,"velocity":123,"startTime":83.07683999999999,"endTime":84.054403125,"instrument":2,"program":0,"isDrum":false},{"pitch":65,"velocity":122,"startTime":83.07683999999999,"endTime":83.6537625,"instrument":2,"program":0,"isDrum":false},{"pitch":68,"velocity":123,"startTime":83.07683999999999,"endTime":83.477480625,"instrument":2,"program":0,"isDrum":false},{"pitch":60,"velocity":120,"startTime":83.461455,"endTime":83.88613406249999,"instrument":2,"program":0,"isDrum":false},{"pitch":65,"velocity":123,"startTime":83.84607,"endTime":84.15055687499999,"instrument":2,"program":0,"isDrum":false},{"pitch":68,"velocity":121,"startTime":83.84607,"endTime":84.4951078125,"instrument":2,"program":0,"isDrum":false},{"pitch":72,"velocity":120,"startTime":83.84607,"endTime":85.18420968749999,"instrument":2,"program":0,"isDrum":false},{"pitch":40,"velocity":121,"startTime":84.230685,"endTime":84.6393384375,"instrument":2,"program":0,"isDrum":false},{"pitch":52,"velocity":115,"startTime":84.230685,"endTime":84.4470309375,"instrument":2,"program":0,"isDrum":false},{"pitch":60,"velocity":112,"startTime":84.230685,"endTime":84.87972281249999,"instrument":2,"program":0,"isDrum":false},{"pitch":64,"velocity":122,"startTime":84.230685,"endTime":84.487095,"instrument":2,"program":0,"isDrum":false},{"pitch":39,"velocity":122,"startTime":84.61529999999999,"endTime":85.4726709375,"instrument":2,"program":0,"isDrum":false},{"pitch":51,"velocity":123,"startTime":84.61529999999999,"endTime":85.28837625,"instrument":2,"program":0,"isDrum":false},{"pitch":63,"velocity":123,"startTime":84.61529999999999,"endTime":85.0560046875,"instrument":2,"program":0,"isDrum":false},{"pitch":68,"velocity":123,"startTime":84.61529999999999,"endTime":85.144145625,"instrument":2,"program":0,"isDrum":false},{"pitch":60,"velocity":95,"startTime":84.999915,"endTime":85.42459406249999,"instrument":2,"program":0,"isDrum":false},{"pitch":38,"velocity":122,"startTime":85.38453,"endTime":86.1136959375,"instrument":2,"program":0,"isDrum":false},{"pitch":50,"velocity":123,"startTime":85.38453,"endTime":85.7050425,"instrument":2,"program":0,"isDrum":false},{"pitch":62,"velocity":123,"startTime":85.38453,"endTime":85.8733115625,"instrument":2,"program":0,"isDrum":false},{"pitch":68,"velocity":123,"startTime":85.38453,"endTime":85.7611321875,"instrument":2,"program":0,"isDrum":false},{"pitch":72,"velocity":123,"startTime":85.38453,"endTime":85.7771578125,"instrument":2,"program":0,"isDrum":false},{"pitch":60,"velocity":110,"startTime":85.769145,"endTime":86.0816446875,"instrument":2,"program":0,"isDrum":false},{"pitch":34,"velocity":121,"startTime":86.15375999999999,"endTime":88.87010343749999,"instrument":2,"program":0,"isDrum":false},{"pitch":46,"velocity":123,"startTime":86.15375999999999,"endTime":88.9181803125,"instrument":2,"program":0,"isDrum":false},{"pitch":62,"velocity":123,"startTime":86.15375999999999,"endTime":86.618503125,"instrument":2,"program":0,"isDrum":false},{"pitch":66,"velocity":18,"startTime":86.15375999999999,"endTime":86.394144375,"instrument":2,"program":0,"isDrum":false},{"pitch":70,"velocity":122,"startTime":86.15375999999999,"endTime":87.3717075,"instrument":2,"program":0,"isDrum":false},{"pitch":58,"velocity":107,"startTime":86.538375,"endTime":86.9790796875,"instrument":2,"program":0,"isDrum":false},{"pitch":62,"velocity":123,"startTime":86.92299,"endTime":87.3797203125,"instrument":2,"program":0,"isDrum":false},{"pitch":65,"velocity":123,"startTime":86.92299,"endTime":87.355681875,"instrument":2,"program":0,"isDrum":false},{"pitch":58,"velocity":105,"startTime":87.307605,"endTime":87.7162584375,"instrument":2,"program":0,"isDrum":false},{"pitch":62,"velocity":122,"startTime":87.69221999999999,"endTime":88.16497593749999,"instrument":2,"program":0,"isDrum":false},{"pitch":65,"velocity":122,"startTime":87.69221999999999,"endTime":88.189014375,"instrument":2,"program":0,"isDrum":false},{"pitch":70,"velocity":120,"startTime":87.69221999999999,"endTime":88.253116875,"instrument":2,"program":0,"isDrum":false},{"pitch":58,"velocity":117,"startTime":88.076835,"endTime":89.41497468749999,"instrument":2,"program":0,"isDrum":false},{"pitch":62,"velocity":122,"startTime":88.46145,"endTime":88.7739496875,"instrument":2,"program":0,"isDrum":false},{"pitch":65,"velocity":122,"startTime":88.46145,"endTime":88.78997531249999,"instrument":2,"program":0,"isDrum":false},{"pitch":70,"velocity":117,"startTime":88.46145,"endTime":88.6617703125,"instrument":2,"program":0,"isDrum":false},{"pitch":39,"velocity":121,"startTime":89.23067999999999,"endTime":90.79317843749999,"instrument":2,"program":0,"isDrum":false},{"pitch":51,"velocity":122,"startTime":89.23067999999999,"endTime":90.6329221875,"instrument":2,"program":0,"isDrum":false},{"pitch":63,"velocity":122,"startTime":89.23067999999999,"endTime":90.3604865625,"instrument":2,"program":0,"isDrum":false},{"pitch":67,"velocity":123,"startTime":89.23067999999999,"endTime":89.59125656249999,"instrument":2,"program":0,"isDrum":false},{"pitch":58,"velocity":102,"startTime":89.615295,"endTime":90.624909375,"instrument":2,"program":0,"isDrum":false},{"pitch":67,"velocity":117,"startTime":89.99991,"endTime":90.4726659375,"instrument":2,"program":0,"isDrum":false},{"pitch":65,"velocity":114,"startTime":90.384525,"endTime":90.5688196875,"instrument":2,"program":0,"isDrum":false},{"pitch":63,"velocity":115,"startTime":90.5768325,"endTime":90.817216875,"instrument":2,"program":0,"isDrum":false},{"pitch":38,"velocity":119,"startTime":90.76914,"endTime":92.33965125,"instrument":2,"program":0,"isDrum":false},{"pitch":50,"velocity":119,"startTime":90.76914,"endTime":92.195420625,"instrument":2,"program":0,"isDrum":false},{"pitch":58,"velocity":123,"startTime":90.76914,"endTime":91.009524375,"instrument":2,"program":0,"isDrum":false},{"pitch":62,"velocity":123,"startTime":90.76914,"endTime":91.26593437499999,"instrument":2,"program":0,"isDrum":false},{"pitch":65,"velocity":123,"startTime":90.76914,"endTime":91.24990875,"instrument":2,"program":0,"isDrum":false},{"pitch":58,"velocity":93,"startTime":91.15375499999999,"endTime":92.0912540625,"instrument":2,"program":0,"isDrum":false},{"pitch":62,"velocity":117,"startTime":91.53837,"endTime":91.85888249999999,"instrument":2,"program":0,"isDrum":false},{"pitch":65,"velocity":117,"startTime":91.53837,"endTime":92.0111259375,"instrument":2,"program":0,"isDrum":false},{"pitch":63,"velocity":107,"startTime":91.922985,"endTime":92.13933093749999,"instrument":2,"program":0,"isDrum":false},{"pitch":62,"velocity":115,"startTime":92.1152925,"endTime":92.3076,"instrument":2,"program":0,"isDrum":false},{"pitch":36,"velocity":119,"startTime":92.3076,"endTime":93.86208562499999,"instrument":2,"program":0,"isDrum":false},{"pitch":48,"velocity":121,"startTime":92.3076,"endTime":93.8540728125,"instrument":2,"program":0,"isDrum":false},{"pitch":60,"velocity":122,"startTime":92.3076,"endTime":92.772343125,"instrument":2,"program":0,"isDrum":false},{"pitch":63,"velocity":118,"startTime":92.3076,"endTime":92.78035593749999,"instrument":2,"program":0,"isDrum":false},{"pitch":55,"velocity":63,"startTime":92.69221499999999,"endTime":93.14093249999999,"instrument":2,"program":0,"isDrum":false},{"pitch":60,"velocity":117,"startTime":93.07683,"endTime":93.4534321875,"instrument":2,"program":0,"isDrum":false},{"pitch":63,"velocity":117,"startTime":93.07683,"endTime":93.52554749999999,"instrument":2,"program":0,"isDrum":false},{"pitch":55,"velocity":112,"startTime":93.461445,"endTime":93.8220215625,"instrument":2,"program":0,"isDrum":false},{"pitch":44,"velocity":122,"startTime":93.84606,"endTime":95.2963790625,"instrument":2,"program":0,"isDrum":false},{"pitch":59,"velocity":122,"startTime":93.84606,"endTime":94.310803125,"instrument":2,"program":0,"isDrum":false},{"pitch":63,"velocity":117,"startTime":93.84606,"endTime":94.3027903125,"instrument":2,"program":0,"isDrum":false},{"pitch":56,"velocity":107,"startTime":94.23067499999999,"endTime":94.64734125,"instrument":2,"program":0,"isDrum":false},{"pitch":59,"velocity":121,"startTime":94.61529,"endTime":95.3604815625,"instrument":2,"program":0,"isDrum":false},{"pitch":63,"velocity":117,"startTime":94.61529,"endTime":95.4566353125,"instrument":2,"program":0,"isDrum":false},{"pitch":56,"velocity":109,"startTime":94.999905,"endTime":95.31240468749999,"instrument":2,"program":0,"isDrum":false},{"pitch":39,"velocity":121,"startTime":95.38452,"endTime":99.95983593749999,"instrument":2,"program":0,"isDrum":false},{"pitch":51,"velocity":117,"startTime":95.38452,"endTime":99.9758615625,"instrument":2,"program":0,"isDrum":false},{"pitch":63,"velocity":114,"startTime":95.76913499999999,"endTime":99.8797078125,"instrument":2,"program":0,"isDrum":false},{"pitch":67,"velocity":117,"startTime":96.15375,"endTime":96.5143265625,"instrument":2,"program":0,"isDrum":false},{"pitch":70,"velocity":120,"startTime":96.538365,"endTime":96.9149671875,"instrument":2,"program":0,"isDrum":false},{"pitch":68,"velocity":121,"startTime":96.92298,"endTime":97.39573593749999,"instrument":2,"program":0,"isDrum":false},{"pitch":72,"velocity":116,"startTime":96.92298,"endTime":97.32362062499999,"instrument":2,"program":0,"isDrum":false},{"pitch":75,"velocity":112,"startTime":97.30759499999999,"endTime":97.72426125,"instrument":2,"program":0,"isDrum":false},{"pitch":67,"velocity":116,"startTime":97.69221,"endTime":98.1329146875,"instrument":2,"program":0,"isDrum":false},{"pitch":70,"velocity":118,"startTime":97.69221,"endTime":98.17297875,"instrument":2,"program":0,"isDrum":false},{"pitch":75,"velocity":116,"startTime":98.076825,"endTime":98.5015040625,"instrument":2,"program":0,"isDrum":false},{"pitch":66,"velocity":108,"startTime":98.46144,"endTime":98.926183125,"instrument":2,"program":0,"isDrum":false},{"pitch":69,"velocity":118,"startTime":98.46144,"endTime":98.85406781249999,"instrument":2,"program":0,"isDrum":false},{"pitch":75,"velocity":119,"startTime":98.84605499999999,"endTime":99.246695625,"instrument":2,"program":0,"isDrum":false},{"pitch":65,"velocity":119,"startTime":99.23066999999999,"endTime":99.83964375,"instrument":2,"program":0,"isDrum":false},{"pitch":68,"velocity":120,"startTime":99.23066999999999,"endTime":99.727464375,"instrument":2,"program":0,"isDrum":false},{"pitch":75,"velocity":121,"startTime":99.615285,"endTime":99.8957334375,"instrument":2,"program":0,"isDrum":false},{"pitch":34,"velocity":121,"startTime":99.9999,"endTime":102.86047406249999,"instrument":2,"program":0,"isDrum":false},{"pitch":46,"velocity":123,"startTime":99.9999,"endTime":105.881304375,"instrument":2,"program":0,"isDrum":false},{"pitch":58,"velocity":119,"startTime":99.9999,"endTime":100.5207328125,"instrument":2,"program":0,"isDrum":false},{"pitch":53,"velocity":115,"startTime":100.384515,"endTime":101.65855218749999,"instrument":2,"program":0,"isDrum":false},{"pitch":58,"velocity":117,"startTime":100.76912999999999,"endTime":102.7162434375,"instrument":2,"program":0,"isDrum":false},{"pitch":62,"velocity":115,"startTime":101.153745,"endTime":102.4438078125,"instrument":2,"program":0,"isDrum":false},{"pitch":67,"velocity":116,"startTime":101.53836,"endTime":104.26271624999998,"instrument":2,"program":0,"isDrum":false},{"pitch":79,"velocity":116,"startTime":101.53836,"endTime":103.1489353125,"instrument":2,"program":0,"isDrum":false},{"pitch":53,"velocity":101,"startTime":101.922975,"endTime":102.355666875,"instrument":2,"program":0,"isDrum":false},{"pitch":65,"velocity":117,"startTime":102.30758999999999,"endTime":103.0047046875,"instrument":2,"program":0,"isDrum":false},{"pitch":77,"velocity":118,"startTime":102.30758999999999,"endTime":103.03675593749999,"instrument":2,"program":0,"isDrum":false},{"pitch":53,"velocity":107,"startTime":102.692205,"endTime":103.12489687499999,"instrument":2,"program":0,"isDrum":false},{"pitch":34,"velocity":123,"startTime":103.07682,"endTime":105.87329156249999,"instrument":2,"program":0,"isDrum":false},{"pitch":58,"velocity":118,"startTime":103.07682,"endTime":103.5335503125,"instrument":2,"program":0,"isDrum":false},{"pitch":62,"velocity":123,"startTime":103.07682,"endTime":103.5255375,"instrument":2,"program":0,"isDrum":false},{"pitch":53,"velocity":104,"startTime":103.461435,"endTime":104.7034209375,"instrument":2,"program":0,"isDrum":false},{"pitch":58,"velocity":113,"startTime":103.84604999999999,"endTime":105.75309937499999,"instrument":2,"program":0,"isDrum":false},{"pitch":62,"velocity":116,"startTime":104.230665,"endTime":105.12008718749999,"instrument":2,"program":0,"isDrum":false},{"pitch":67,"velocity":116,"startTime":104.61528,"endTime":106.2258553125,"instrument":2,"program":0,"isDrum":false},{"pitch":79,"velocity":116,"startTime":104.61528,"endTime":106.2258553125,"instrument":2,"program":0,"isDrum":false},{"pitch":53,"velocity":108,"startTime":104.999895,"endTime":105.48066374999999,"instrument":2,"program":0,"isDrum":false},{"pitch":65,"velocity":118,"startTime":105.38450999999999,"endTime":106.11367593749999,"instrument":2,"program":0,"isDrum":false},{"pitch":77,"velocity":118,"startTime":105.38450999999999,"endTime":106.11367593749999,"instrument":2,"program":0,"isDrum":false},{"pitch":53,"velocity":115,"startTime":105.769125,"endTime":106.1777784375,"instrument":2,"program":0,"isDrum":false},{"pitch":34,"velocity":123,"startTime":106.15374,"endTime":109.23867281249998,"instrument":2,"program":0,"isDrum":false},{"pitch":46,"velocity":123,"startTime":106.15374,"endTime":109.21463437499999,"instrument":2,"program":0,"isDrum":false},{"pitch":58,"velocity":122,"startTime":106.15374,"endTime":106.4822653125,"instrument":2,"program":0,"isDrum":false},{"pitch":62,"velocity":122,"startTime":106.15374,"endTime":106.93098281249999,"instrument":2,"program":0,"isDrum":false},{"pitch":53,"velocity":113,"startTime":106.538355,"endTime":107.73226406250001,"instrument":2,"program":0,"isDrum":false},{"pitch":58,"velocity":115,"startTime":106.92296999999999,"endTime":108.8700834375,"instrument":2,"program":0,"isDrum":false},{"pitch":62,"velocity":115,"startTime":107.30758499999999,"endTime":108.49348124999999,"instrument":2,"program":0,"isDrum":false},{"pitch":67,"velocity":117,"startTime":107.6922,"endTime":109.2947625,"instrument":2,"program":0,"isDrum":false},{"pitch":79,"velocity":116,"startTime":107.6922,"endTime":109.30277531249999,"instrument":2,"program":0,"isDrum":false},{"pitch":53,"velocity":115,"startTime":108.076815,"endTime":108.6777759375,"instrument":2,"program":0,"isDrum":false},{"pitch":65,"velocity":120,"startTime":108.46143,"endTime":109.26271125,"instrument":2,"program":0,"isDrum":false},{"pitch":77,"velocity":118,"startTime":108.46143,"endTime":109.19059593749999,"instrument":2,"program":0,"isDrum":false},{"pitch":53,"velocity":114,"startTime":108.84604499999999,"endTime":109.246685625,"instrument":2,"program":0,"isDrum":false},{"pitch":43,"velocity":122,"startTime":109.23066,"endTime":112.323605625,"instrument":2,"program":0,"isDrum":false},{"pitch":58,"velocity":120,"startTime":109.23066,"endTime":109.67136468749999,"instrument":2,"program":0,"isDrum":false},{"pitch":62,"velocity":123,"startTime":109.23066,"endTime":110.080018125,"instrument":2,"program":0,"isDrum":false},{"pitch":55,"velocity":116,"startTime":109.615275,"endTime":110.93738906249999,"instrument":2,"program":0,"isDrum":false},{"pitch":58,"velocity":117,"startTime":109.99989,"endTime":112.0111059375,"instrument":2,"program":0,"isDrum":false},{"pitch":62,"velocity":118,"startTime":110.38450499999999,"endTime":111.554375625,"instrument":2,"program":0,"isDrum":false},{"pitch":69,"velocity":117,"startTime":110.76912,"endTime":111.18578624999999,"instrument":2,"program":0,"isDrum":false},{"pitch":81,"velocity":116,"startTime":110.76912,"endTime":112.37969531249999,"instrument":2,"program":0,"isDrum":false},{"pitch":55,"velocity":117,"startTime":111.153735,"endTime":112.27552875,"instrument":2,"program":0,"isDrum":false},{"pitch":67,"velocity":121,"startTime":111.53835,"endTime":112.38770812499999,"instrument":2,"program":0,"isDrum":false},{"pitch":79,"velocity":118,"startTime":111.53835,"endTime":112.2675159375,"instrument":2,"program":0,"isDrum":false},{"pitch":62,"velocity":117,"startTime":111.92296499999999,"endTime":112.05116999999998,"instrument":2,"program":0,"isDrum":false},{"pitch":36,"velocity":123,"startTime":112.30758,"endTime":115.20020531249999,"instrument":2,"program":0,"isDrum":false},{"pitch":48,"velocity":123,"startTime":112.30758,"endTime":115.16014125000001,"instrument":2,"program":0,"isDrum":false},{"pitch":60,"velocity":123,"startTime":112.30758,"endTime":112.66014375,"instrument":2,"program":0,"isDrum":false},{"pitch":63,"velocity":123,"startTime":112.30758,"endTime":112.85245125,"instrument":2,"program":0,"isDrum":false},{"pitch":60,"velocity":119,"startTime":112.692195,"endTime":113.958219375,"instrument":2,"program":0,"isDrum":false},{"pitch":63,"velocity":117,"startTime":113.07681,"endTime":114.86366718749998,"instrument":2,"program":0,"isDrum":false},{"pitch":67,"velocity":109,"startTime":113.46142499999999,"endTime":114.6793725,"instrument":2,"program":0,"isDrum":false},{"pitch":74,"velocity":116,"startTime":113.84604,"endTime":114.28674468749999,"instrument":2,"program":0,"isDrum":false},{"pitch":86,"velocity":116,"startTime":113.84604,"endTime":115.45661531249999,"instrument":2,"program":0,"isDrum":false},{"pitch":60,"velocity":119,"startTime":114.230655,"endTime":115.432576875,"instrument":2,"program":0,"isDrum":false},{"pitch":72,"velocity":121,"startTime":114.61527,"endTime":116.85885749999998,"instrument":2,"program":0,"isDrum":false},{"pitch":84,"velocity":118,"startTime":114.61527,"endTime":115.3444359375,"instrument":2,"program":0,"isDrum":false},{"pitch":63,"velocity":121,"startTime":114.99988499999999,"endTime":115.72905093749999,"instrument":2,"program":0,"isDrum":false},{"pitch":36,"velocity":123,"startTime":115.38449999999999,"endTime":115.8332175,"instrument":2,"program":0,"isDrum":false},{"pitch":48,"velocity":123,"startTime":115.38449999999999,"endTime":116.89090875000001,"instrument":2,"program":0,"isDrum":false},{"pitch":67,"velocity":123,"startTime":115.38449999999999,"endTime":116.11366593749999,"instrument":2,"program":0,"isDrum":false},{"pitch":60,"velocity":114,"startTime":115.769115,"endTime":116.5143065625,"instrument":2,"program":0,"isDrum":false},{"pitch":36,"velocity":99,"startTime":115.9614225,"endTime":116.1937940625,"instrument":2,"program":0,"isDrum":false},{"pitch":63,"velocity":118,"startTime":116.15373,"endTime":116.53834499999999,"instrument":2,"program":0,"isDrum":false},{"pitch":67,"velocity":117,"startTime":116.53834499999999,"endTime":116.89892156249999,"instrument":2,"program":0,"isDrum":false},{"pitch":41,"velocity":113,"startTime":116.92295999999999,"endTime":118.49347124999998,"instrument":2,"program":0,"isDrum":false},{"pitch":53,"velocity":121,"startTime":116.92295999999999,"endTime":118.46141999999999,"instrument":2,"program":0,"isDrum":false},{"pitch":69,"velocity":123,"startTime":116.92295999999999,"endTime":118.028728125,"instrument":2,"program":0,"isDrum":false},{"pitch":63,"velocity":117,"startTime":117.307575,"endTime":118.028728125,"instrument":2,"program":0,"isDrum":false},{"pitch":65,"velocity":119,"startTime":117.69219,"endTime":118.1168690625,"instrument":2,"program":0,"isDrum":false},{"pitch":72,"velocity":119,"startTime":118.076805,"endTime":118.188984375,"instrument":2,"program":0,"isDrum":false},{"pitch":46,"velocity":121,"startTime":118.46141999999999,"endTime":121.54635281249999,"instrument":2,"program":0,"isDrum":false},{"pitch":58,"velocity":119,"startTime":118.46141999999999,"endTime":118.91815031249999,"instrument":2,"program":0,"isDrum":false},{"pitch":62,"velocity":122,"startTime":118.46141999999999,"endTime":119.31077812499998,"instrument":2,"program":0,"isDrum":false},{"pitch":53,"velocity":113,"startTime":118.846035,"endTime":120.05596968749998,"instrument":2,"program":0,"isDrum":false},{"pitch":58,"velocity":118,"startTime":119.23065,"endTime":121.169750625,"instrument":2,"program":0,"isDrum":false},{"pitch":62,"velocity":120,"startTime":119.615265,"endTime":120.75308437499999,"instrument":2,"program":0,"isDrum":false},{"pitch":67,"velocity":120,"startTime":119.99987999999999,"endTime":121.6104553125,"instrument":2,"program":0,"isDrum":false},{"pitch":79,"velocity":116,"startTime":119.99987999999999,"endTime":121.6104553125,"instrument":2,"program":0,"isDrum":false},{"pitch":53,"velocity":116,"startTime":120.384495,"endTime":120.81718687499999,"instrument":2,"program":0,"isDrum":false},{"pitch":65,"velocity":119,"startTime":120.76911,"endTime":121.522314375,"instrument":2,"program":0,"isDrum":false},{"pitch":77,"velocity":118,"startTime":120.76911,"endTime":121.49827593749998,"instrument":2,"program":0,"isDrum":false},{"pitch":53,"velocity":112,"startTime":121.153725,"endTime":121.49827593749998,"instrument":2,"program":0,"isDrum":false},{"pitch":43,"velocity":120,"startTime":121.53833999999999,"endTime":124.631285625,"instrument":2,"program":0,"isDrum":false},{"pitch":58,"velocity":122,"startTime":121.53833999999999,"endTime":121.9870575,"instrument":2,"program":0,"isDrum":false},{"pitch":62,"velocity":123,"startTime":121.53833999999999,"endTime":122.4437878125,"instrument":2,"program":0,"isDrum":false},{"pitch":60,"velocity":109,"startTime":121.6264809375,"endTime":121.63449374999999,"instrument":2,"program":0,"isDrum":false},{"pitch":55,"velocity":117,"startTime":121.922955,"endTime":123.1168640625,"instrument":2,"program":0,"isDrum":false},{"pitch":58,"velocity":121,"startTime":122.30757,"endTime":124.16654249999999,"instrument":2,"program":0,"isDrum":false},{"pitch":62,"velocity":120,"startTime":122.692185,"endTime":123.9822478125,"instrument":2,"program":0,"isDrum":false},{"pitch":69,"velocity":117,"startTime":123.07679999999999,"endTime":123.4854534375,"instrument":2,"program":0,"isDrum":false},{"pitch":81,"velocity":116,"startTime":123.07679999999999,"endTime":124.6873753125,"instrument":2,"program":0,"isDrum":false},{"pitch":55,"velocity":121,"startTime":123.46141499999999,"endTime":123.87808125,"instrument":2,"program":0,"isDrum":false},{"pitch":67,"velocity":120,"startTime":123.84603,"endTime":126.2258353125,"instrument":2,"program":0,"isDrum":false},{"pitch":79,"velocity":118,"startTime":123.84603,"endTime":124.57519593749998,"instrument":2,"program":0,"isDrum":false},{"pitch":55,"velocity":117,"startTime":124.230645,"endTime":124.57519593749998,"instrument":2,"program":0,"isDrum":false},{"pitch":48,"velocity":123,"startTime":124.61525999999999,"endTime":126.0014765625,"instrument":2,"program":0,"isDrum":false},{"pitch":60,"velocity":123,"startTime":124.61525999999999,"endTime":125.06397750000001,"instrument":2,"program":0,"isDrum":false},{"pitch":63,"velocity":122,"startTime":124.61525999999999,"endTime":125.0880159375,"instrument":2,"program":0,"isDrum":false},{"pitch":55,"velocity":117,"startTime":124.99987499999999,"endTime":125.7450665625,"instrument":2,"program":0,"isDrum":false},{"pitch":60,"velocity":118,"startTime":125.38449,"endTime":125.8732715625,"instrument":2,"program":0,"isDrum":false},{"pitch":47,"velocity":122,"startTime":125.769105,"endTime":126.009489375,"instrument":2,"program":0,"isDrum":false},{"pitch":55,"velocity":119,"startTime":125.769105,"endTime":126.12166875,"instrument":2,"program":0,"isDrum":false},{"pitch":63,"velocity":121,"startTime":125.769105,"endTime":126.01750218749999,"instrument":2,"program":0,"isDrum":false},{"pitch":46,"velocity":123,"startTime":126.15371999999999,"endTime":126.89089875,"instrument":2,"program":0,"isDrum":false},{"pitch":58,"velocity":123,"startTime":126.15371999999999,"endTime":126.52230937499999,"instrument":2,"program":0,"isDrum":false},{"pitch":63,"velocity":122,"startTime":126.15371999999999,"endTime":126.61045031249999,"instrument":2,"program":0,"isDrum":false},{"pitch":67,"velocity":18,"startTime":126.34602749999999,"endTime":126.96301406250001,"instrument":2,"program":0,"isDrum":false},{"pitch":55,"velocity":117,"startTime":126.53833499999999,"endTime":126.97903968749999,"instrument":2,"program":0,"isDrum":false},{"pitch":45,"velocity":123,"startTime":126.92295,"endTime":127.70019281249999,"instrument":2,"program":0,"isDrum":false},{"pitch":57,"velocity":123,"startTime":126.92295,"endTime":127.29153937499999,"instrument":2,"program":0,"isDrum":false},{"pitch":63,"velocity":123,"startTime":126.92295,"endTime":127.45980843749999,"instrument":2,"program":0,"isDrum":false},{"pitch":55,"velocity":118,"startTime":127.307565,"endTime":127.69218,"instrument":2,"program":0,"isDrum":false},{"pitch":44,"velocity":123,"startTime":127.69218,"endTime":129.1905759375,"instrument":2,"program":0,"isDrum":false},{"pitch":58,"velocity":123,"startTime":127.69218,"endTime":128.076795,"instrument":2,"program":0,"isDrum":false},{"pitch":63,"velocity":123,"startTime":127.69218,"endTime":128.2691025,"instrument":2,"program":0,"isDrum":false},{"pitch":56,"velocity":120,"startTime":128.076795,"endTime":128.42134593749998,"instrument":2,"program":0,"isDrum":false},{"pitch":60,"velocity":121,"startTime":128.46141,"endTime":129.23064,"instrument":2,"program":0,"isDrum":false},{"pitch":63,"velocity":120,"startTime":128.46141,"endTime":128.95019156249998,"instrument":2,"program":0,"isDrum":false},{"pitch":56,"velocity":116,"startTime":128.846025,"endTime":129.2066015625,"instrument":2,"program":0,"isDrum":false},{"pitch":43,"velocity":122,"startTime":129.23064,"endTime":130.03192124999998,"instrument":2,"program":0,"isDrum":false},{"pitch":58,"velocity":123,"startTime":129.23064,"endTime":129.6232678125,"instrument":2,"program":0,"isDrum":false},{"pitch":63,"velocity":123,"startTime":129.23064,"endTime":129.88769062499998,"instrument":2,"program":0,"isDrum":false},{"pitch":55,"velocity":113,"startTime":129.615255,"endTime":129.88769062499998,"instrument":2,"program":0,"isDrum":false},{"pitch":41,"velocity":122,"startTime":129.99987,"endTime":130.7610871875,"instrument":2,"program":0,"isDrum":false},{"pitch":56,"velocity":123,"startTime":129.99987,"endTime":130.41653624999998,"instrument":2,"program":0,"isDrum":false},{"pitch":63,"velocity":123,"startTime":129.99987,"endTime":130.54474125000002,"instrument":2,"program":0,"isDrum":false},{"pitch":53,"velocity":117,"startTime":130.38448499999998,"endTime":130.74506156249998,"instrument":2,"program":0,"isDrum":false},{"pitch":39,"velocity":123,"startTime":130.7691,"endTime":133.1168540625,"instrument":2,"program":0,"isDrum":false},{"pitch":51,"velocity":122,"startTime":130.7691,"endTime":133.028713125,"instrument":2,"program":0,"isDrum":false},{"pitch":58,"velocity":123,"startTime":130.7691,"endTime":131.233843125,"instrument":2,"program":0,"isDrum":false},{"pitch":63,"velocity":123,"startTime":130.7691,"endTime":131.26589437500002,"instrument":2,"program":0,"isDrum":false},{"pitch":67,"velocity":123,"startTime":130.7691,"endTime":131.2178175,"instrument":2,"program":0,"isDrum":false},{"pitch":55,"velocity":93,"startTime":131.153715,"endTime":131.6104453125,"instrument":2,"program":0,"isDrum":false},{"pitch":58,"velocity":123,"startTime":131.53833,"endTime":132.0110859375,"instrument":2,"program":0,"isDrum":false},{"pitch":63,"velocity":122,"startTime":131.53833,"endTime":132.0431371875,"instrument":2,"program":0,"isDrum":false},{"pitch":67,"velocity":123,"startTime":131.53833,"endTime":131.938970625,"instrument":2,"program":0,"isDrum":false},{"pitch":55,"velocity":117,"startTime":131.922945,"endTime":132.3716625,"instrument":2,"program":0,"isDrum":false},{"pitch":58,"velocity":122,"startTime":132.30756,"endTime":132.7562775,"instrument":2,"program":0,"isDrum":false},{"pitch":63,"velocity":121,"startTime":132.30756,"endTime":132.9085209375,"instrument":2,"program":0,"isDrum":false},{"pitch":67,"velocity":123,"startTime":132.30756,"endTime":132.6841621875,"instrument":2,"program":0,"isDrum":false},{"pitch":55,"velocity":118,"startTime":132.692175,"endTime":133.0046746875,"instrument":2,"program":0,"isDrum":false},{"pitch":38,"velocity":122,"startTime":133.07679,"endTime":133.82999437499998,"instrument":2,"program":0,"isDrum":false},{"pitch":50,"velocity":123,"startTime":133.07679,"endTime":133.733840625,"instrument":2,"program":0,"isDrum":false},{"pitch":58,"velocity":123,"startTime":133.07679,"endTime":133.46140499999998,"instrument":2,"program":0,"isDrum":false},{"pitch":62,"velocity":123,"startTime":133.07679,"endTime":133.4213409375,"instrument":2,"program":0,"isDrum":false},{"pitch":65,"velocity":123,"startTime":133.07679,"endTime":133.8860840625,"instrument":2,"program":0,"isDrum":false},{"pitch":53,"velocity":117,"startTime":133.46140499999998,"endTime":133.7899303125,"instrument":2,"program":0,"isDrum":false},{"pitch":36,"velocity":123,"startTime":133.84601999999998,"endTime":136.394094375,"instrument":2,"program":0,"isDrum":false},{"pitch":48,"velocity":123,"startTime":133.84601999999998,"endTime":136.4822353125,"instrument":2,"program":0,"isDrum":false},{"pitch":60,"velocity":123,"startTime":133.84601999999998,"endTime":134.10243,"instrument":2,"program":0,"isDrum":false},{"pitch":63,"velocity":123,"startTime":133.84601999999998,"endTime":134.2947375,"instrument":2,"program":0,"isDrum":false},{"pitch":60,"velocity":116,"startTime":134.230635,"endTime":134.6793525,"instrument":2,"program":0,"isDrum":false},{"pitch":63,"velocity":121,"startTime":134.61525,"endTime":135.2642878125,"instrument":2,"program":0,"isDrum":false},{"pitch":67,"velocity":117,"startTime":134.999865,"endTime":135.4085184375,"instrument":2,"program":0,"isDrum":false},{"pitch":62,"velocity":119,"startTime":135.38448,"endTime":135.785120625,"instrument":2,"program":0,"isDrum":false},{"pitch":74,"velocity":118,"startTime":135.38448,"endTime":135.9053128125,"instrument":2,"program":0,"isDrum":false},{"pitch":63,"velocity":119,"startTime":135.769095,"endTime":136.82678625,"instrument":2,"program":0,"isDrum":false},{"pitch":60,"velocity":116,"startTime":136.15371,"endTime":137.08319625000001,"instrument":2,"program":0,"isDrum":false},{"pitch":72,"velocity":122,"startTime":136.15371,"endTime":137.355631875,"instrument":2,"program":0,"isDrum":false},{"pitch":67,"velocity":114,"startTime":136.538325,"endTime":136.8588375,"instrument":2,"program":0,"isDrum":false},{"pitch":41,"velocity":120,"startTime":136.92293999999998,"endTime":138.124861875,"instrument":2,"program":0,"isDrum":false},{"pitch":53,"velocity":123,"startTime":136.92293999999998,"endTime":137.900503125,"instrument":2,"program":0,"isDrum":false},{"pitch":65,"velocity":122,"startTime":136.92293999999998,"endTime":137.4998625,"instrument":2,"program":0,"isDrum":false},{"pitch":68,"velocity":123,"startTime":136.92293999999998,"endTime":137.323580625,"instrument":2,"program":0,"isDrum":false},{"pitch":60,"velocity":120,"startTime":137.307555,"endTime":137.7322340625,"instrument":2,"program":0,"isDrum":false},{"pitch":65,"velocity":123,"startTime":137.69217,"endTime":137.996656875,"instrument":2,"program":0,"isDrum":false},{"pitch":68,"velocity":121,"startTime":137.69217,"endTime":138.3412078125,"instrument":2,"program":0,"isDrum":false},{"pitch":72,"velocity":120,"startTime":137.69217,"endTime":139.0303096875,"instrument":2,"program":0,"isDrum":false},{"pitch":40,"velocity":121,"startTime":138.076785,"endTime":138.4854384375,"instrument":2,"program":0,"isDrum":false},{"pitch":52,"velocity":115,"startTime":138.076785,"endTime":138.2931309375,"instrument":2,"program":0,"isDrum":false},{"pitch":60,"velocity":112,"startTime":138.076785,"endTime":138.72582281249998,"instrument":2,"program":0,"isDrum":false},{"pitch":64,"velocity":122,"startTime":138.076785,"endTime":138.333195,"instrument":2,"program":0,"isDrum":false},{"pitch":39,"velocity":122,"startTime":138.4614,"endTime":139.3187709375,"instrument":2,"program":0,"isDrum":false},{"pitch":51,"velocity":123,"startTime":138.4614,"endTime":139.13447625,"instrument":2,"program":0,"isDrum":false},{"pitch":63,"velocity":123,"startTime":138.4614,"endTime":138.90210468749999,"instrument":2,"program":0,"isDrum":false},{"pitch":68,"velocity":123,"startTime":138.4614,"endTime":138.990245625,"instrument":2,"program":0,"isDrum":false},{"pitch":60,"velocity":95,"startTime":138.846015,"endTime":139.2706940625,"instrument":2,"program":0,"isDrum":false},{"pitch":38,"velocity":122,"startTime":139.23063,"endTime":139.9597959375,"instrument":2,"program":0,"isDrum":false},{"pitch":50,"velocity":123,"startTime":139.23063,"endTime":139.5511425,"instrument":2,"program":0,"isDrum":false},{"pitch":62,"velocity":123,"startTime":139.23063,"endTime":139.7194115625,"instrument":2,"program":0,"isDrum":false},{"pitch":68,"velocity":123,"startTime":139.23063,"endTime":139.6072321875,"instrument":2,"program":0,"isDrum":false},{"pitch":72,"velocity":123,"startTime":139.23063,"endTime":139.6232578125,"instrument":2,"program":0,"isDrum":false},{"pitch":60,"velocity":110,"startTime":139.615245,"endTime":139.9277446875,"instrument":2,"program":0,"isDrum":false},{"pitch":34,"velocity":121,"startTime":139.99985999999998,"endTime":142.71620343749998,"instrument":2,"program":0,"isDrum":false},{"pitch":46,"velocity":123,"startTime":139.99985999999998,"endTime":142.7642803125,"instrument":2,"program":0,"isDrum":false},{"pitch":62,"velocity":123,"startTime":139.99985999999998,"endTime":140.464603125,"instrument":2,"program":0,"isDrum":false},{"pitch":66,"velocity":18,"startTime":139.99985999999998,"endTime":140.240244375,"instrument":2,"program":0,"isDrum":false},{"pitch":70,"velocity":122,"startTime":139.99985999999998,"endTime":141.2178075,"instrument":2,"program":0,"isDrum":false},{"pitch":58,"velocity":107,"startTime":140.38447499999998,"endTime":140.8251796875,"instrument":2,"program":0,"isDrum":false},{"pitch":62,"velocity":123,"startTime":140.76909,"endTime":141.2258203125,"instrument":2,"program":0,"isDrum":false},{"pitch":65,"velocity":123,"startTime":140.76909,"endTime":141.201781875,"instrument":2,"program":0,"isDrum":false},{"pitch":58,"velocity":105,"startTime":141.153705,"endTime":141.5623584375,"instrument":2,"program":0,"isDrum":false},{"pitch":62,"velocity":122,"startTime":141.53832,"endTime":142.0110759375,"instrument":2,"program":0,"isDrum":false},{"pitch":65,"velocity":122,"startTime":141.53832,"endTime":142.035114375,"instrument":2,"program":0,"isDrum":false},{"pitch":70,"velocity":120,"startTime":141.53832,"endTime":142.099216875,"instrument":2,"program":0,"isDrum":false},{"pitch":58,"velocity":117,"startTime":141.922935,"endTime":143.06876718750001,"instrument":2,"program":0,"isDrum":false},{"pitch":62,"velocity":122,"startTime":142.30755,"endTime":142.6200496875,"instrument":2,"program":0,"isDrum":false},{"pitch":65,"velocity":122,"startTime":142.30755,"endTime":142.6360753125,"instrument":2,"program":0,"isDrum":false},{"pitch":70,"velocity":117,"startTime":142.30755,"endTime":142.5078703125,"instrument":2,"program":0,"isDrum":false},{"pitch":39,"velocity":122,"startTime":143.07677999999999,"endTime":144.52709906249999,"instrument":2,"program":0,"isDrum":false},{"pitch":51,"velocity":123,"startTime":143.07677999999999,"endTime":143.6136384375,"instrument":2,"program":0,"isDrum":false},{"pitch":58,"velocity":123,"startTime":143.07677999999999,"endTime":143.2610746875,"instrument":2,"program":0,"isDrum":false},{"pitch":63,"velocity":122,"startTime":143.07677999999999,"endTime":144.230625,"instrument":2,"program":0,"isDrum":false},{"pitch":67,"velocity":122,"startTime":143.07677999999999,"endTime":143.78992031250002,"instrument":2,"program":0,"isDrum":false},{"pitch":51,"velocity":123,"startTime":143.84601,"endTime":144.6072271875,"instrument":2,"program":0,"isDrum":false},{"pitch":58,"velocity":122,"startTime":143.84601,"endTime":144.5591503125,"instrument":2,"program":0,"isDrum":false},{"pitch":67,"velocity":122,"startTime":143.84601,"endTime":144.26267625,"instrument":2,"program":0,"isDrum":false},{"pitch":65,"velocity":122,"startTime":144.230625,"endTime":144.438958125,"instrument":2,"program":0,"isDrum":false},{"pitch":63,"velocity":112,"startTime":144.4229325,"endTime":144.5912015625,"instrument":2,"program":0,"isDrum":false},{"pitch":38,"velocity":123,"startTime":144.61524,"endTime":146.0014565625,"instrument":2,"program":0,"isDrum":false},{"pitch":58,"velocity":102,"startTime":144.61524,"endTime":145.64088,"instrument":2,"program":0,"isDrum":false},{"pitch":62,"velocity":123,"startTime":144.61524,"endTime":145.5847903125,"instrument":2,"program":0,"isDrum":false},{"pitch":65,"velocity":123,"startTime":144.61524,"endTime":145.68094406249998,"instrument":2,"program":0,"isDrum":false},{"pitch":70,"velocity":122,"startTime":144.61524,"endTime":145.73703375,"instrument":2,"program":0,"isDrum":false},{"pitch":50,"velocity":122,"startTime":145.38447,"endTime":146.17773843749998,"instrument":2,"program":0,"isDrum":false},{"pitch":67,"velocity":122,"startTime":145.769085,"endTime":146.0895975,"instrument":2,"program":0,"isDrum":false},{"pitch":36,"velocity":123,"startTime":146.1537,"endTime":147.563955,"instrument":2,"program":0,"isDrum":false},{"pitch":60,"velocity":122,"startTime":146.1537,"endTime":147.53190375,"instrument":2,"program":0,"isDrum":false},{"pitch":63,"velocity":122,"startTime":146.1537,"endTime":147.5719678125,"instrument":2,"program":0,"isDrum":false},{"pitch":67,"velocity":123,"startTime":146.1537,"endTime":147.579980625,"instrument":2,"program":0,"isDrum":false},{"pitch":72,"velocity":122,"startTime":146.1537,"endTime":147.5559421875,"instrument":2,"program":0,"isDrum":false},{"pitch":48,"velocity":121,"startTime":146.92293,"endTime":148.30113375,"instrument":2,"program":0,"isDrum":false},{"pitch":36,"velocity":123,"startTime":147.69216,"endTime":149.022286875,"instrument":2,"program":0,"isDrum":false},{"pitch":60,"velocity":123,"startTime":147.69216,"endTime":147.94857,"instrument":2,"program":0,"isDrum":false},{"pitch":63,"velocity":123,"startTime":147.69216,"endTime":148.04472375,"instrument":2,"program":0,"isDrum":false},{"pitch":67,"velocity":123,"startTime":147.69216,"endTime":148.15690312499999,"instrument":2,"program":0,"isDrum":false},{"pitch":72,"velocity":123,"startTime":147.69216,"endTime":148.33318500000001,"instrument":2,"program":0,"isDrum":false},{"pitch":62,"velocity":122,"startTime":148.076775,"endTime":148.2610696875,"instrument":2,"program":0,"isDrum":false},{"pitch":63,"velocity":119,"startTime":148.2690825,"endTime":148.7738896875,"instrument":2,"program":0,"isDrum":false},{"pitch":48,"velocity":121,"startTime":148.46139,"endTime":149.1745303125,"instrument":2,"program":0,"isDrum":false},{"pitch":60,"velocity":123,"startTime":148.46139,"endTime":148.68574875,"instrument":2,"program":0,"isDrum":false},{"pitch":67,"velocity":123,"startTime":148.46139,"endTime":148.8860690625,"instrument":2,"program":0,"isDrum":false},{"pitch":72,"velocity":122,"startTime":148.46139,"endTime":150.2482471875,"instrument":2,"program":0,"isDrum":false},{"pitch":62,"velocity":119,"startTime":148.846005,"endTime":149.09440218749998,"instrument":2,"program":0,"isDrum":false},{"pitch":43,"velocity":118,"startTime":149.0383125,"endTime":149.13446625,"instrument":2,"program":0,"isDrum":false},{"pitch":63,"velocity":114,"startTime":149.0383125,"endTime":149.1665175,"instrument":2,"program":0,"isDrum":false},{"pitch":41,"velocity":122,"startTime":149.23062,"endTime":150.2963240625,"instrument":2,"program":0,"isDrum":false},{"pitch":65,"velocity":121,"startTime":149.23062,"endTime":150.2963240625,"instrument":2,"program":0,"isDrum":false},{"pitch":68,"velocity":121,"startTime":149.23062,"endTime":150.7450415625,"instrument":2,"program":0,"isDrum":false},{"pitch":53,"velocity":122,"startTime":149.99984999999998,"endTime":150.28831125,"instrument":2,"program":0,"isDrum":false},{"pitch":40,"velocity":123,"startTime":150.384465,"endTime":150.7931184375,"instrument":2,"program":0,"isDrum":false},{"pitch":52,"velocity":122,"startTime":150.384465,"endTime":150.785105625,"instrument":2,"program":0,"isDrum":false},{"pitch":60,"velocity":123,"startTime":150.384465,"endTime":151.4661946875,"instrument":2,"program":0,"isDrum":false},{"pitch":64,"velocity":123,"startTime":150.384465,"endTime":150.6488878125,"instrument":2,"program":0,"isDrum":false},{"pitch":72,"velocity":123,"startTime":150.384465,"endTime":150.72100312499998,"instrument":2,"program":0,"isDrum":false},{"pitch":39,"velocity":123,"startTime":150.76908,"endTime":151.586386875,"instrument":2,"program":0,"isDrum":false},{"pitch":63,"velocity":123,"startTime":150.76908,"endTime":151.37805375,"instrument":2,"program":0,"isDrum":false},{"pitch":68,"velocity":123,"startTime":150.76908,"endTime":152.0911940625,"instrument":2,"program":0,"isDrum":false},{"pitch":72,"velocity":123,"startTime":150.76908,"endTime":151.3700409375,"instrument":2,"program":0,"isDrum":false},{"pitch":50,"velocity":123,"startTime":151.53831,"endTime":151.9309378125,"instrument":2,"program":0,"isDrum":false},{"pitch":60,"velocity":123,"startTime":151.53831,"endTime":151.938950625,"instrument":2,"program":0,"isDrum":false},{"pitch":62,"velocity":123,"startTime":151.53831,"endTime":152.227411875,"instrument":2,"program":0,"isDrum":false},{"pitch":72,"velocity":123,"startTime":151.53831,"endTime":151.8508096875,"instrument":2,"program":0,"isDrum":false},{"pitch":34,"velocity":123,"startTime":152.30754,"endTime":153.092795625,"instrument":2,"program":0,"isDrum":false},{"pitch":46,"velocity":123,"startTime":152.30754,"endTime":152.8764496875,"instrument":2,"program":0,"isDrum":false},{"pitch":58,"velocity":123,"startTime":152.30754,"endTime":153.30112874999998,"instrument":2,"program":0,"isDrum":false},{"pitch":62,"velocity":123,"startTime":152.30754,"endTime":153.7899103125,"instrument":2,"program":0,"isDrum":false},{"pitch":65,"velocity":123,"startTime":152.30754,"endTime":153.96619218749998,"instrument":2,"program":0,"isDrum":false},{"pitch":70,"velocity":123,"startTime":152.30754,"endTime":154.33478156249998,"instrument":2,"program":0,"isDrum":false},{"pitch":46,"velocity":120,"startTime":153.07676999999998,"endTime":154.40689687499997,"instrument":2,"program":0,"isDrum":false},{"pitch":34,"velocity":119,"startTime":153.461385,"endTime":153.7738846875,"instrument":2,"program":0,"isDrum":false},{"pitch":58,"velocity":118,"startTime":153.461385,"endTime":154.5591403125,"instrument":2,"program":0,"isDrum":false},{"pitch":34,"velocity":117,"startTime":153.846,"endTime":154.6713196875,"instrument":2,"program":0,"isDrum":false},{"pitch":62,"velocity":120,"startTime":153.846,"endTime":154.77548625,"instrument":2,"program":0,"isDrum":false},{"pitch":65,"velocity":120,"startTime":154.230615,"endTime":154.663306875,"instrument":2,"program":0,"isDrum":false},{"pitch":46,"velocity":122,"startTime":154.61523,"endTime":155.208178125,"instrument":2,"program":0,"isDrum":false},{"pitch":58,"velocity":120,"startTime":154.61523,"endTime":155.27228062499998,"instrument":2,"program":0,"isDrum":false},{"pitch":70,"velocity":120,"startTime":154.61523,"endTime":155.24824218749998,"instrument":2,"program":0,"isDrum":false},{"pitch":65,"velocity":107,"startTime":154.8075375,"endTime":155.3604215625,"instrument":2,"program":0,"isDrum":false},{"pitch":34,"velocity":116,"startTime":154.999845,"endTime":155.1200371875,"instrument":2,"program":0,"isDrum":false},{"pitch":39,"velocity":123,"startTime":155.38446,"endTime":156.394074375,"instrument":2,"program":0,"isDrum":false},{"pitch":58,"velocity":123,"startTime":155.38446,"endTime":156.3700359375,"instrument":2,"program":0,"isDrum":false},{"pitch":63,"velocity":123,"startTime":155.38446,"endTime":156.4661896875,"instrument":2,"program":0,"isDrum":false},{"pitch":67,"velocity":123,"startTime":155.38446,"endTime":156.4181128125,"instrument":2,"program":0,"isDrum":false},{"pitch":70,"velocity":123,"startTime":155.38446,"endTime":156.40208718749997,"instrument":2,"program":0,"isDrum":false},{"pitch":51,"velocity":120,"startTime":156.15368999999998,"endTime":156.93093281249998,"instrument":2,"program":0,"isDrum":false},{"pitch":39,"velocity":122,"startTime":156.53830499999998,"endTime":156.842791875,"instrument":2,"program":0,"isDrum":false},{"pitch":58,"velocity":123,"startTime":156.53830499999998,"endTime":157.2514453125,"instrument":2,"program":0,"isDrum":false},{"pitch":63,"velocity":120,"startTime":156.53830499999998,"endTime":156.88285593749998,"instrument":2,"program":0,"isDrum":false},{"pitch":67,"velocity":120,"startTime":156.53830499999998,"endTime":156.89888156249998,"instrument":2,"program":0,"isDrum":false},{"pitch":70,"velocity":122,"startTime":156.53830499999998,"endTime":157.8283678125,"instrument":2,"program":0,"isDrum":false},{"pitch":38,"velocity":121,"startTime":156.92292,"endTime":157.77227812499999,"instrument":2,"program":0,"isDrum":false},{"pitch":62,"velocity":123,"startTime":156.92292,"endTime":157.33958625,"instrument":2,"program":0,"isDrum":false},{"pitch":65,"velocity":123,"startTime":156.92292,"endTime":157.5559321875,"instrument":2,"program":0,"isDrum":false},{"pitch":58,"velocity":117,"startTime":157.307535,"endTime":157.7642653125,"instrument":2,"program":0,"isDrum":false},{"pitch":62,"velocity":110,"startTime":157.4998425,"endTime":158.092790625,"instrument":2,"program":0,"isDrum":false},{"pitch":50,"velocity":123,"startTime":157.69215,"endTime":158.46138,"instrument":2,"program":0,"isDrum":false},{"pitch":58,"velocity":122,"startTime":157.8844575,"endTime":158.31714937499999,"instrument":2,"program":0,"isDrum":false},{"pitch":65,"velocity":123,"startTime":157.8844575,"endTime":158.1408675,"instrument":2,"program":0,"isDrum":false},{"pitch":70,"velocity":122,"startTime":157.8844575,"endTime":158.253046875,"instrument":2,"program":0,"isDrum":false},{"pitch":43,"velocity":116,"startTime":158.076765,"endTime":158.4693928125,"instrument":2,"program":0,"isDrum":false},{"pitch":67,"velocity":112,"startTime":158.2690725,"endTime":158.31714937499999,"instrument":2,"program":0,"isDrum":false},{"pitch":36,"velocity":123,"startTime":158.46138,"endTime":159.919711875,"instrument":2,"program":0,"isDrum":false},{"pitch":60,"velocity":123,"startTime":158.46138,"endTime":159.278686875,"instrument":2,"program":0,"isDrum":false},{"pitch":63,"velocity":123,"startTime":158.46138,"endTime":159.51907125,"instrument":2,"program":0,"isDrum":false},{"pitch":67,"velocity":123,"startTime":158.46138,"endTime":159.6392634375,"instrument":2,"program":0,"isDrum":false},{"pitch":72,"velocity":123,"startTime":158.46138,"endTime":159.823558125,"instrument":2,"program":0,"isDrum":false},{"pitch":48,"velocity":122,"startTime":159.23060999999998,"endTime":160.48060875,"instrument":2,"program":0,"isDrum":false},{"pitch":62,"velocity":117,"startTime":159.61522499999998,"endTime":159.7995196875,"instrument":2,"program":0,"isDrum":false},{"pitch":63,"velocity":116,"startTime":159.8075325,"endTime":160.0719553125,"instrument":2,"program":0,"isDrum":false},{"pitch":36,"velocity":121,"startTime":159.99984,"endTime":161.0174671875,"instrument":2,"program":0,"isDrum":false},{"pitch":60,"velocity":122,"startTime":159.99984,"endTime":160.272275625,"instrument":2,"program":0,"isDrum":false},{"pitch":67,"velocity":122,"startTime":159.99984,"endTime":160.640865,"instrument":2,"program":0,"isDrum":false},{"pitch":72,"velocity":123,"startTime":159.99984,"endTime":160.656890625,"instrument":2,"program":0,"isDrum":false},{"pitch":62,"velocity":120,"startTime":160.384455,"endTime":160.5767625,"instrument":2,"program":0,"isDrum":false},{"pitch":63,"velocity":122,"startTime":160.5767625,"endTime":160.7770828125,"instrument":2,"program":0,"isDrum":false},{"pitch":48,"velocity":122,"startTime":160.76907,"endTime":161.3379796875,"instrument":2,"program":0,"isDrum":false},{"pitch":60,"velocity":123,"startTime":160.76907,"endTime":160.9693903125,"instrument":2,"program":0,"isDrum":false},{"pitch":67,"velocity":123,"startTime":160.76907,"endTime":161.22580031249998,"instrument":2,"program":0,"isDrum":false},{"pitch":72,"velocity":123,"startTime":160.76907,"endTime":161.37804375,"instrument":2,"program":0,"isDrum":false},{"pitch":62,"velocity":114,"startTime":161.153685,"endTime":161.394069375,"instrument":2,"program":0,"isDrum":false},{"pitch":43,"velocity":119,"startTime":161.3459925,"endTime":161.44214625,"instrument":2,"program":0,"isDrum":false},{"pitch":63,"velocity":117,"startTime":161.3459925,"endTime":161.47419749999997,"instrument":2,"program":0,"isDrum":false},{"pitch":41,"velocity":119,"startTime":161.5383,"endTime":162.69214499999998,"instrument":2,"program":0,"isDrum":false},{"pitch":60,"velocity":123,"startTime":161.5383,"endTime":162.179325,"instrument":2,"program":0,"isDrum":false},{"pitch":65,"velocity":123,"startTime":161.5383,"endTime":162.291504375,"instrument":2,"program":0,"isDrum":false},{"pitch":68,"velocity":122,"startTime":161.5383,"endTime":162.33156843749998,"instrument":2,"program":0,"isDrum":false},{"pitch":72,"velocity":123,"startTime":161.5383,"endTime":162.31554281249998,"instrument":2,"program":0,"isDrum":false},{"pitch":53,"velocity":123,"startTime":162.30752999999999,"endTime":162.7161834375,"instrument":2,"program":0,"isDrum":false},{"pitch":65,"velocity":122,"startTime":162.69214499999998,"endTime":162.7802859375,"instrument":2,"program":0,"isDrum":false},{"pitch":77,"velocity":121,"startTime":162.69214499999998,"endTime":162.78829875,"instrument":2,"program":0,"isDrum":false},{"pitch":52,"velocity":120,"startTime":162.88445249999998,"endTime":162.91650374999998,"instrument":2,"program":0,"isDrum":false},{"pitch":67,"velocity":123,"startTime":162.88445249999998,"endTime":162.9565678125,"instrument":2,"program":0,"isDrum":false},{"pitch":79,"velocity":123,"startTime":162.88445249999998,"endTime":162.9886190625,"instrument":2,"program":0,"isDrum":false},{"pitch":51,"velocity":122,"startTime":163.07676,"endTime":163.55752875,"instrument":2,"program":0,"isDrum":false},{"pitch":63,"velocity":123,"startTime":163.07676,"endTime":163.5254775,"instrument":2,"program":0,"isDrum":false},{"pitch":68,"velocity":122,"startTime":163.07676,"endTime":163.42131093749998,"instrument":2,"program":0,"isDrum":false},{"pitch":80,"velocity":123,"startTime":163.07676,"endTime":163.509451875,"instrument":2,"program":0,"isDrum":false},{"pitch":50,"velocity":121,"startTime":163.84599,"endTime":164.2546434375,"instrument":2,"program":0,"isDrum":false},{"pitch":62,"velocity":123,"startTime":163.84599,"endTime":164.26265625,"instrument":2,"program":0,"isDrum":false},{"pitch":77,"velocity":123,"startTime":163.84599,"endTime":164.214579375,"instrument":2,"program":0,"isDrum":false},{"pitch":89,"velocity":122,"startTime":163.84599,"endTime":164.2065665625,"instrument":2,"program":0,"isDrum":false},{"pitch":49,"velocity":123,"startTime":164.61522,"endTime":165.8331675,"instrument":2,"program":0,"isDrum":false},{"pitch":61,"velocity":123,"startTime":164.61522,"endTime":165.57675749999999,"instrument":2,"program":0,"isDrum":false},{"pitch":68,"velocity":123,"startTime":164.61522,"endTime":165.4245140625,"instrument":2,"program":0,"isDrum":false},{"pitch":80,"velocity":122,"startTime":164.61522,"endTime":165.4565653125,"instrument":2,"program":0,"isDrum":false},{"pitch":61,"velocity":118,"startTime":165.57675749999999,"endTime":166.538295,"instrument":2,"program":0,"isDrum":false},{"pitch":73,"velocity":118,"startTime":165.57675749999999,"endTime":165.6969496875,"instrument":2,"program":0,"isDrum":false},{"pitch":85,"velocity":118,"startTime":165.57675749999999,"endTime":165.6969496875,"instrument":2,"program":0,"isDrum":false},{"pitch":48,"velocity":117,"startTime":165.86521875,"endTime":166.073551875,"instrument":2,"program":0,"isDrum":false},{"pitch":60,"velocity":121,"startTime":165.86521875,"endTime":166.073551875,"instrument":2,"program":0,"isDrum":false},{"pitch":73,"velocity":123,"startTime":165.86521875,"endTime":166.025475,"instrument":2,"program":0,"isDrum":false},{"pitch":85,"velocity":123,"startTime":165.86521875,"endTime":166.025475,"instrument":2,"program":0,"isDrum":false},{"pitch":47,"velocity":123,"startTime":166.15367999999998,"endTime":166.66649999999998,"instrument":2,"program":0,"isDrum":false},{"pitch":59,"velocity":123,"startTime":166.15367999999998,"endTime":166.69053843749998,"instrument":2,"program":0,"isDrum":false},{"pitch":73,"velocity":123,"startTime":166.15367999999998,"endTime":166.57034625,"instrument":2,"program":0,"isDrum":false},{"pitch":85,"velocity":122,"startTime":166.15367999999998,"endTime":166.52226937499998,"instrument":2,"program":0,"isDrum":false},{"pitch":46,"velocity":120,"startTime":166.92291,"endTime":167.3716275,"instrument":2,"program":0,"isDrum":false},{"pitch":58,"velocity":123,"startTime":166.92291,"endTime":167.3155378125,"instrument":2,"program":0,"isDrum":false},{"pitch":61,"velocity":123,"startTime":166.92291,"endTime":167.3475890625,"instrument":2,"program":0,"isDrum":false},{"pitch":73,"velocity":123,"startTime":166.92291,"endTime":167.3155378125,"instrument":2,"program":0,"isDrum":false},{"pitch":33,"velocity":123,"startTime":167.69214,"endTime":167.8764346875,"instrument":2,"program":0,"isDrum":false},{"pitch":45,"velocity":123,"startTime":167.69214,"endTime":167.8844475,"instrument":2,"program":0,"isDrum":false},{"pitch":69,"velocity":123,"startTime":167.69214,"endTime":167.804319375,"instrument":2,"program":0,"isDrum":false},{"pitch":76,"velocity":123,"startTime":167.69214,"endTime":167.8123321875,"instrument":2,"program":0,"isDrum":false},{"pitch":81,"velocity":123,"startTime":167.69214,"endTime":167.82034499999997,"instrument":2,"program":0,"isDrum":false},{"pitch":57,"velocity":120,"startTime":168.076755,"endTime":168.1408575,"instrument":2,"program":0,"isDrum":false},{"pitch":61,"velocity":122,"startTime":168.076755,"endTime":168.1648959375,"instrument":2,"program":0,"isDrum":false},{"pitch":64,"velocity":122,"startTime":168.076755,"endTime":168.1648959375,"instrument":2,"program":0,"isDrum":false},{"pitch":57,"velocity":121,"startTime":168.46137,"endTime":168.5334853125,"instrument":2,"program":0,"isDrum":false},{"pitch":61,"velocity":119,"startTime":168.46137,"endTime":168.5334853125,"instrument":2,"program":0,"isDrum":false},{"pitch":64,"velocity":122,"startTime":168.46137,"endTime":168.55752375,"instrument":2,"program":0,"isDrum":false},{"pitch":57,"velocity":121,"startTime":168.84598499999998,"endTime":168.9341259375,"instrument":2,"program":0,"isDrum":false},{"pitch":61,"velocity":121,"startTime":168.84598499999998,"endTime":168.94213875,"instrument":2,"program":0,"isDrum":false},{"pitch":64,"velocity":123,"startTime":168.84598499999998,"endTime":168.958164375,"instrument":2,"program":0,"isDrum":false},{"pitch":57,"velocity":120,"startTime":169.23059999999998,"endTime":169.3187409375,"instrument":2,"program":0,"isDrum":false},{"pitch":61,"velocity":120,"startTime":169.23059999999998,"endTime":169.3347665625,"instrument":2,"program":0,"isDrum":false},{"pitch":64,"velocity":120,"startTime":169.23059999999998,"endTime":169.342779375,"instrument":2,"program":0,"isDrum":false},{"pitch":57,"velocity":121,"startTime":169.615215,"endTime":169.7033559375,"instrument":2,"program":0,"isDrum":false},{"pitch":61,"velocity":119,"startTime":169.615215,"endTime":169.7033559375,"instrument":2,"program":0,"isDrum":false},{"pitch":64,"velocity":118,"startTime":169.615215,"endTime":169.727394375,"instrument":2,"program":0,"isDrum":false},{"pitch":57,"velocity":115,"startTime":169.99983,"endTime":170.0719453125,"instrument":2,"program":0,"isDrum":false},{"pitch":61,"velocity":118,"startTime":169.99983,"endTime":170.09598375,"instrument":2,"program":0,"isDrum":false},{"pitch":64,"velocity":119,"startTime":169.99983,"endTime":170.09598375,"instrument":2,"program":0,"isDrum":false},{"pitch":57,"velocity":118,"startTime":170.384445,"endTime":170.464573125,"instrument":2,"program":0,"isDrum":false},{"pitch":61,"velocity":118,"startTime":170.384445,"endTime":170.48059874999998,"instrument":2,"program":0,"isDrum":false},{"pitch":64,"velocity":120,"startTime":170.384445,"endTime":170.48861156249998,"instrument":2,"program":0,"isDrum":false},{"pitch":57,"velocity":122,"startTime":170.76906,"endTime":170.8572009375,"instrument":2,"program":0,"isDrum":false},{"pitch":62,"velocity":123,"startTime":170.76906,"endTime":170.89726499999998,"instrument":2,"program":0,"isDrum":false},{"pitch":66,"velocity":122,"startTime":170.76906,"endTime":170.913290625,"instrument":2,"program":0,"isDrum":false},{"pitch":57,"velocity":122,"startTime":171.153675,"endTime":171.22579031249998,"instrument":2,"program":0,"isDrum":false},{"pitch":61,"velocity":121,"startTime":171.153675,"endTime":171.2418159375,"instrument":2,"program":0,"isDrum":false},{"pitch":64,"velocity":123,"startTime":171.153675,"endTime":171.2418159375,"instrument":2,"program":0,"isDrum":false},{"pitch":57,"velocity":117,"startTime":171.3459825,"endTime":171.39405937499998,"instrument":2,"program":0,"isDrum":false},{"pitch":61,"velocity":121,"startTime":171.3459825,"endTime":171.4341234375,"instrument":2,"program":0,"isDrum":false},{"pitch":64,"velocity":118,"startTime":171.3459825,"endTime":171.4341234375,"instrument":2,"program":0,"isDrum":false},{"pitch":57,"velocity":122,"startTime":171.53829,"endTime":171.650469375,"instrument":2,"program":0,"isDrum":false},{"pitch":60,"velocity":122,"startTime":171.53829,"endTime":171.650469375,"instrument":2,"program":0,"isDrum":false},{"pitch":63,"velocity":122,"startTime":171.53829,"endTime":171.69854625,"instrument":2,"program":0,"isDrum":false},{"pitch":57,"velocity":123,"startTime":171.922905,"endTime":172.0270715625,"instrument":2,"program":0,"isDrum":false},{"pitch":61,"velocity":123,"startTime":171.922905,"endTime":172.0591228125,"instrument":2,"program":0,"isDrum":false},{"pitch":64,"velocity":123,"startTime":171.922905,"endTime":172.05111,"instrument":2,"program":0,"isDrum":false},{"pitch":57,"velocity":123,"startTime":172.30751999999998,"endTime":172.3956609375,"instrument":2,"program":0,"isDrum":false},{"pitch":62,"velocity":123,"startTime":172.30751999999998,"endTime":172.419699375,"instrument":2,"program":0,"isDrum":false},{"pitch":66,"velocity":122,"startTime":172.30751999999998,"endTime":172.4437378125,"instrument":2,"program":0,"isDrum":false},{"pitch":57,"velocity":122,"startTime":172.69213499999998,"endTime":172.7642503125,"instrument":2,"program":0,"isDrum":false},{"pitch":61,"velocity":123,"startTime":172.69213499999998,"endTime":172.7642503125,"instrument":2,"program":0,"isDrum":false},{"pitch":64,"velocity":122,"startTime":172.69213499999998,"endTime":172.7802759375,"instrument":2,"program":0,"isDrum":false},{"pitch":57,"velocity":118,"startTime":172.8844425,"endTime":172.932519375,"instrument":2,"program":0,"isDrum":false},{"pitch":61,"velocity":119,"startTime":172.8844425,"endTime":172.9565578125,"instrument":2,"program":0,"isDrum":false},{"pitch":64,"velocity":122,"startTime":172.8844425,"endTime":172.9565578125,"instrument":2,"program":0,"isDrum":false},{"pitch":57,"velocity":121,"startTime":173.07675,"endTime":173.2930959375,"instrument":2,"program":0,"isDrum":false},{"pitch":60,"velocity":123,"startTime":173.07675,"endTime":173.285083125,"instrument":2,"program":0,"isDrum":false},{"pitch":63,"velocity":123,"startTime":173.07675,"endTime":173.317134375,"instrument":2,"program":0,"isDrum":false},{"pitch":57,"velocity":120,"startTime":173.461365,"endTime":173.541493125,"instrument":2,"program":0,"isDrum":false},{"pitch":61,"velocity":121,"startTime":173.461365,"endTime":173.541493125,"instrument":2,"program":0,"isDrum":false},{"pitch":64,"velocity":123,"startTime":173.461365,"endTime":173.5254675,"instrument":2,"program":0,"isDrum":false},{"pitch":57,"velocity":118,"startTime":173.6536725,"endTime":173.7418134375,"instrument":2,"program":0,"isDrum":false},{"pitch":61,"velocity":121,"startTime":173.6536725,"endTime":173.75783906249998,"instrument":2,"program":0,"isDrum":false},{"pitch":64,"velocity":123,"startTime":173.6536725,"endTime":173.74982624999998,"instrument":2,"program":0,"isDrum":false},{"pitch":57,"velocity":123,"startTime":173.84598,"endTime":174.0463003125,"instrument":2,"program":0,"isDrum":false},{"pitch":62,"velocity":123,"startTime":173.84598,"endTime":174.0943771875,"instrument":2,"program":0,"isDrum":false},{"pitch":66,"velocity":123,"startTime":173.84598,"endTime":174.11841562499998,"instrument":2,"program":0,"isDrum":false},{"pitch":69,"velocity":123,"startTime":173.84598,"endTime":174.07033875,"instrument":2,"program":0,"isDrum":false},{"pitch":57,"velocity":115,"startTime":174.230595,"endTime":174.28668468749999,"instrument":2,"program":0,"isDrum":false},{"pitch":61,"velocity":118,"startTime":174.230595,"endTime":174.30271031249998,"instrument":2,"program":0,"isDrum":false},{"pitch":64,"velocity":118,"startTime":174.230595,"endTime":174.278671875,"instrument":2,"program":0,"isDrum":false},{"pitch":57,"velocity":113,"startTime":174.4229025,"endTime":174.5110434375,"instrument":2,"program":0,"isDrum":false},{"pitch":61,"velocity":118,"startTime":174.4229025,"endTime":174.5430946875,"instrument":2,"program":0,"isDrum":false},{"pitch":64,"velocity":123,"startTime":174.4229025,"endTime":174.5591203125,"instrument":2,"program":0,"isDrum":false},{"pitch":57,"velocity":123,"startTime":174.61521,"endTime":174.8796328125,"instrument":2,"program":0,"isDrum":false},{"pitch":62,"velocity":123,"startTime":174.61521,"endTime":174.88764562499998,"instrument":2,"program":0,"isDrum":false},{"pitch":66,"velocity":123,"startTime":174.61521,"endTime":174.9277096875,"instrument":2,"program":0,"isDrum":false},{"pitch":69,"velocity":123,"startTime":174.61521,"endTime":174.88764562499998,"instrument":2,"program":0,"isDrum":false},{"pitch":57,"velocity":117,"startTime":174.999825,"endTime":175.0639275,"instrument":2,"program":0,"isDrum":false},{"pitch":61,"velocity":121,"startTime":174.999825,"endTime":175.07995312499997,"instrument":2,"program":0,"isDrum":false},{"pitch":64,"velocity":122,"startTime":174.999825,"endTime":175.0719403125,"instrument":2,"program":0,"isDrum":false},{"pitch":57,"velocity":117,"startTime":175.19213249999999,"endTime":175.28828625,"instrument":2,"program":0,"isDrum":false},{"pitch":61,"velocity":121,"startTime":175.19213249999999,"endTime":175.2962990625,"instrument":2,"program":0,"isDrum":false},{"pitch":64,"velocity":122,"startTime":175.19213249999999,"endTime":175.2802734375,"instrument":2,"program":0,"isDrum":false},{"pitch":69,"velocity":122,"startTime":175.19213249999999,"endTime":175.3123246875,"instrument":2,"program":0,"isDrum":false},{"pitch":57,"velocity":121,"startTime":175.38443999999998,"endTime":175.4565553125,"instrument":2,"program":0,"isDrum":false},{"pitch":60,"velocity":121,"startTime":175.38443999999998,"endTime":175.48059375,"instrument":2,"program":0,"isDrum":false},{"pitch":63,"velocity":123,"startTime":175.38443999999998,"endTime":175.4886065625,"instrument":2,"program":0,"isDrum":false},{"pitch":69,"velocity":123,"startTime":175.38443999999998,"endTime":175.4725809375,"instrument":2,"program":0,"isDrum":false},{"pitch":57,"velocity":122,"startTime":175.57674749999998,"endTime":175.6648884375,"instrument":2,"program":0,"isDrum":false},{"pitch":60,"velocity":117,"startTime":175.57674749999998,"endTime":175.6648884375,"instrument":2,"program":0,"isDrum":false},{"pitch":63,"velocity":122,"startTime":175.57674749999998,"endTime":175.688926875,"instrument":2,"program":0,"isDrum":false},{"pitch":69,"velocity":122,"startTime":175.57674749999998,"endTime":175.67290125,"instrument":2,"program":0,"isDrum":false},{"pitch":57,"velocity":123,"startTime":175.76905499999998,"endTime":175.89726,"instrument":2,"program":0,"isDrum":false},{"pitch":61,"velocity":123,"startTime":175.76905499999998,"endTime":175.92129843749998,"instrument":2,"program":0,"isDrum":false},{"pitch":64,"velocity":123,"startTime":175.76905499999998,"endTime":175.913285625,"instrument":2,"program":0,"isDrum":false},{"pitch":69,"velocity":121,"startTime":175.76905499999998,"endTime":175.86520875,"instrument":2,"program":0,"isDrum":false},{"pitch":57,"velocity":123,"startTime":176.15367,"endTime":176.29790062499998,"instrument":2,"program":0,"isDrum":false},{"pitch":62,"velocity":122,"startTime":176.15367,"endTime":176.31392625,"instrument":2,"program":0,"isDrum":false},{"pitch":66,"velocity":122,"startTime":176.15367,"endTime":176.3700159375,"instrument":2,"program":0,"isDrum":false},{"pitch":69,"velocity":123,"startTime":176.15367,"endTime":176.3379646875,"instrument":2,"program":0,"isDrum":false},{"pitch":57,"velocity":123,"startTime":176.538285,"endTime":176.71456687499997,"instrument":2,"program":0,"isDrum":false},{"pitch":61,"velocity":123,"startTime":176.538285,"endTime":176.71456687499997,"instrument":2,"program":0,"isDrum":false},{"pitch":64,"velocity":123,"startTime":176.538285,"endTime":176.71456687499997,"instrument":2,"program":0,"isDrum":false},{"pitch":69,"velocity":123,"startTime":176.538285,"endTime":176.7386053125,"instrument":2,"program":0,"isDrum":false},{"pitch":48,"velocity":120,"startTime":176.9229,"endTime":177.003028125,"instrument":2,"program":0,"isDrum":false},{"pitch":55,"velocity":123,"startTime":176.9229,"endTime":177.0110409375,"instrument":2,"program":0,"isDrum":false},{"pitch":60,"velocity":123,"startTime":176.9229,"endTime":176.9870025,"instrument":2,"program":0,"isDrum":false},{"pitch":64,"velocity":123,"startTime":176.9229,"endTime":176.9870025,"instrument":2,"program":0,"isDrum":false},{"pitch":67,"velocity":123,"startTime":176.9229,"endTime":176.9950153125,"instrument":2,"program":0,"isDrum":false},{"pitch":55,"velocity":119,"startTime":177.08315625,"endTime":177.21136124999998,"instrument":2,"program":0,"isDrum":false},{"pitch":48,"velocity":118,"startTime":177.0911690625,"endTime":177.19533562499998,"instrument":2,"program":0,"isDrum":false},{"pitch":60,"velocity":123,"startTime":177.0911690625,"endTime":177.17931,"instrument":2,"program":0,"isDrum":false},{"pitch":67,"velocity":123,"startTime":177.0911690625,"endTime":177.2033484375,"instrument":2,"program":0,"isDrum":false},{"pitch":64,"velocity":123,"startTime":177.099181875,"endTime":177.19533562499998,"instrument":2,"program":0,"isDrum":false},{"pitch":60,"velocity":122,"startTime":177.2834765625,"endTime":177.37963031249998,"instrument":2,"program":0,"isDrum":false},{"pitch":48,"velocity":123,"startTime":177.291489375,"endTime":177.40366874999998,"instrument":2,"program":0,"isDrum":false},{"pitch":55,"velocity":121,"startTime":177.291489375,"endTime":177.41168156249998,"instrument":2,"program":0,"isDrum":false},{"pitch":67,"velocity":123,"startTime":177.291489375,"endTime":177.3956559375,"instrument":2,"program":0,"isDrum":false},{"pitch":64,"velocity":123,"startTime":177.2995021875,"endTime":177.38764312499998,"instrument":2,"program":0,"isDrum":false},{"pitch":48,"velocity":109,"startTime":177.46777125,"endTime":177.6200146875,"instrument":2,"program":0,"isDrum":false},{"pitch":55,"velocity":122,"startTime":177.4757840625,"endTime":177.59597625,"instrument":2,"program":0,"isDrum":false},{"pitch":60,"velocity":122,"startTime":177.4757840625,"endTime":177.57995062499998,"instrument":2,"program":0,"isDrum":false},{"pitch":67,"velocity":123,"startTime":177.4757840625,"endTime":177.5879634375,"instrument":2,"program":0,"isDrum":false},{"pitch":64,"velocity":122,"startTime":177.483796875,"endTime":177.612001875,"instrument":2,"program":0,"isDrum":false},{"pitch":47,"velocity":120,"startTime":177.6841171875,"endTime":177.8283478125,"instrument":2,"program":0,"isDrum":false},{"pitch":55,"velocity":123,"startTime":177.69213,"endTime":177.836360625,"instrument":2,"program":0,"isDrum":false},{"pitch":59,"velocity":123,"startTime":177.69213,"endTime":177.8443734375,"instrument":2,"program":0,"isDrum":false},{"pitch":62,"velocity":123,"startTime":177.69213,"endTime":177.85238625,"instrument":2,"program":0,"isDrum":false},{"pitch":67,"velocity":123,"startTime":177.69213,"endTime":177.85238625,"instrument":2,"program":0,"isDrum":false},{"pitch":47,"velocity":120,"startTime":178.060719375,"endTime":178.253026875,"instrument":2,"program":0,"isDrum":false},{"pitch":55,"velocity":123,"startTime":178.0687321875,"endTime":178.2289884375,"instrument":2,"program":0,"isDrum":false},{"pitch":67,"velocity":123,"startTime":178.0687321875,"endTime":178.220975625,"instrument":2,"program":0,"isDrum":false},{"pitch":59,"velocity":123,"startTime":178.076745,"endTime":178.1969371875,"instrument":2,"program":0,"isDrum":false},{"pitch":62,"velocity":123,"startTime":178.076745,"endTime":178.253026875,"instrument":2,"program":0,"isDrum":false},{"pitch":53,"velocity":123,"startTime":178.445334375,"endTime":178.573539375,"instrument":2,"program":0,"isDrum":false},{"pitch":46,"velocity":122,"startTime":178.46135999999998,"endTime":178.5815521875,"instrument":2,"program":0,"isDrum":false},{"pitch":58,"velocity":123,"startTime":178.46135999999998,"endTime":178.5655265625,"instrument":2,"program":0,"isDrum":false},{"pitch":62,"velocity":123,"startTime":178.46135999999998,"endTime":178.55751375,"instrument":2,"program":0,"isDrum":false},{"pitch":65,"velocity":123,"startTime":178.46937281249998,"endTime":178.5815521875,"instrument":2,"program":0,"isDrum":false},{"pitch":62,"velocity":115,"startTime":178.62161625,"endTime":178.733795625,"instrument":2,"program":0,"isDrum":false},{"pitch":53,"velocity":122,"startTime":178.6296290625,"endTime":178.7578340625,"instrument":2,"program":0,"isDrum":false},{"pitch":58,"velocity":120,"startTime":178.6296290625,"endTime":178.74982125,"instrument":2,"program":0,"isDrum":false},{"pitch":46,"velocity":121,"startTime":178.63764187499999,"endTime":178.74982125,"instrument":2,"program":0,"isDrum":false},{"pitch":65,"velocity":123,"startTime":178.63764187499999,"endTime":178.74982125,"instrument":2,"program":0,"isDrum":false},{"pitch":62,"velocity":123,"startTime":178.81392375,"endTime":178.926103125,"instrument":2,"program":0,"isDrum":false},{"pitch":53,"velocity":122,"startTime":178.82193656249999,"endTime":179.102385,"instrument":2,"program":0,"isDrum":false},{"pitch":58,"velocity":123,"startTime":178.82193656249999,"endTime":178.94212875,"instrument":2,"program":0,"isDrum":false},{"pitch":65,"velocity":113,"startTime":178.82193656249999,"endTime":178.9501415625,"instrument":2,"program":0,"isDrum":false},{"pitch":46,"velocity":120,"startTime":178.8379621875,"endTime":178.94212875,"instrument":2,"program":0,"isDrum":false},{"pitch":58,"velocity":122,"startTime":179.00623125,"endTime":179.13443625,"instrument":2,"program":0,"isDrum":false},{"pitch":62,"velocity":123,"startTime":179.00623125,"endTime":179.1103978125,"instrument":2,"program":0,"isDrum":false},{"pitch":65,"velocity":117,"startTime":179.01424406249998,"endTime":179.13443625,"instrument":2,"program":0,"isDrum":false},{"pitch":46,"velocity":121,"startTime":179.02225687499998,"endTime":179.1745003125,"instrument":2,"program":0,"isDrum":false},{"pitch":66,"velocity":120,"startTime":179.02225687499998,"endTime":179.118410625,"instrument":2,"program":0,"isDrum":false},{"pitch":66,"velocity":123,"startTime":179.21456437499998,"endTime":179.4228975,"instrument":2,"program":0,"isDrum":false},{"pitch":50,"velocity":122,"startTime":179.2225771875,"endTime":179.438923125,"instrument":2,"program":0,"isDrum":false},{"pitch":54,"velocity":123,"startTime":179.2225771875,"endTime":179.4228975,"instrument":2,"program":0,"isDrum":false},{"pitch":60,"velocity":123,"startTime":179.2225771875,"endTime":179.40687187499998,"instrument":2,"program":0,"isDrum":false},{"pitch":62,"velocity":123,"startTime":179.2225771875,"endTime":179.4469359375,"instrument":2,"program":0,"isDrum":false},{"pitch":50,"velocity":122,"startTime":179.631230625,"endTime":179.8475765625,"instrument":2,"program":0,"isDrum":false},{"pitch":54,"velocity":123,"startTime":179.631230625,"endTime":179.81552531249997,"instrument":2,"program":0,"isDrum":false},{"pitch":60,"velocity":123,"startTime":179.6392434375,"endTime":179.8075125,"instrument":2,"program":0,"isDrum":false},{"pitch":62,"velocity":123,"startTime":179.6392434375,"endTime":179.8315509375,"instrument":2,"program":0,"isDrum":false},{"pitch":66,"velocity":123,"startTime":179.6392434375,"endTime":179.855589375,"instrument":2,"program":0,"isDrum":false},{"pitch":50,"velocity":123,"startTime":180.0078328125,"endTime":180.29629406249998,"instrument":2,"program":0,"isDrum":false},{"pitch":67,"velocity":123,"startTime":180.0078328125,"endTime":180.2802684375,"instrument":2,"program":0,"isDrum":false},{"pitch":43,"velocity":123,"startTime":180.015845625,"endTime":180.28828124999998,"instrument":2,"program":0,"isDrum":false},{"pitch":55,"velocity":123,"startTime":180.015845625,"endTime":180.28828124999998,"instrument":2,"program":0,"isDrum":false},{"pitch":59,"velocity":123,"startTime":180.015845625,"endTime":180.27225562499999,"instrument":2,"program":0,"isDrum":false},{"pitch":62,"velocity":123,"startTime":180.015845625,"endTime":180.2642428125,"instrument":2,"program":0,"isDrum":false},{"pitch":66,"velocity":101,"startTime":180.047896875,"endTime":180.0719353125,"instrument":2,"program":0,"isDrum":false},{"pitch":61,"velocity":113,"startTime":187.307505,"endTime":187.4276971875,"instrument":2,"program":0,"isDrum":false},{"pitch":65,"velocity":113,"startTime":187.307505,"endTime":187.40365875,"instrument":2,"program":0,"isDrum":false},{"pitch":68,"velocity":113,"startTime":187.307505,"endTime":187.3956459375,"instrument":2,"program":0,"isDrum":false},{"pitch":73,"velocity":113,"startTime":187.307505,"endTime":187.40365875,"instrument":2,"program":0,"isDrum":false},{"pitch":60,"velocity":114,"startTime":187.69212,"endTime":187.77224812499998,"instrument":2,"program":0,"isDrum":false},{"pitch":64,"velocity":114,"startTime":187.69212,"endTime":187.7562225,"instrument":2,"program":0,"isDrum":false},{"pitch":67,"velocity":114,"startTime":187.69212,"endTime":187.7562225,"instrument":2,"program":0,"isDrum":false},{"pitch":72,"velocity":114,"startTime":187.69212,"endTime":187.77224812499998,"instrument":2,"program":0,"isDrum":false},{"pitch":60,"velocity":114,"startTime":187.8844275,"endTime":187.96455562499997,"instrument":2,"program":0,"isDrum":false},{"pitch":64,"velocity":114,"startTime":187.8844275,"endTime":187.94853,"instrument":2,"program":0,"isDrum":false},{"pitch":67,"velocity":114,"startTime":187.8844275,"endTime":187.9565428125,"instrument":2,"program":0,"isDrum":false},{"pitch":72,"velocity":114,"startTime":187.8844275,"endTime":187.9565428125,"instrument":2,"program":0,"isDrum":false},{"pitch":59,"velocity":114,"startTime":188.07673499999999,"endTime":188.188914375,"instrument":2,"program":0,"isDrum":false},{"pitch":63,"velocity":114,"startTime":188.07673499999999,"endTime":188.1488503125,"instrument":2,"program":0,"isDrum":false},{"pitch":66,"velocity":114,"startTime":188.07673499999999,"endTime":188.20494,"instrument":2,"program":0,"isDrum":false},{"pitch":71,"velocity":114,"startTime":188.07673499999999,"endTime":188.1969271875,"instrument":2,"program":0,"isDrum":false},{"pitch":60,"velocity":114,"startTime":188.46134999999998,"endTime":188.62160625,"instrument":2,"program":0,"isDrum":false},{"pitch":64,"velocity":114,"startTime":188.46134999999998,"endTime":188.541478125,"instrument":2,"program":0,"isDrum":false},{"pitch":67,"velocity":114,"startTime":188.46134999999998,"endTime":188.589555,"instrument":2,"program":0,"isDrum":false},{"pitch":72,"velocity":114,"startTime":188.46134999999998,"endTime":188.5815421875,"instrument":2,"program":0,"isDrum":false},{"pitch":61,"velocity":114,"startTime":188.84596499999998,"endTime":188.99820843749998,"instrument":2,"program":0,"isDrum":false},{"pitch":65,"velocity":114,"startTime":188.84596499999998,"endTime":188.9501315625,"instrument":2,"program":0,"isDrum":false},{"pitch":68,"velocity":114,"startTime":188.84596499999998,"endTime":188.9501315625,"instrument":2,"program":0,"isDrum":false},{"pitch":73,"velocity":114,"startTime":188.84596499999998,"endTime":188.9661571875,"instrument":2,"program":0,"isDrum":false},{"pitch":60,"velocity":114,"startTime":189.23058,"endTime":189.310708125,"instrument":2,"program":0,"isDrum":false},{"pitch":64,"velocity":114,"startTime":189.23058,"endTime":189.2866696875,"instrument":2,"program":0,"isDrum":false},{"pitch":67,"velocity":114,"startTime":189.23058,"endTime":189.3026953125,"instrument":2,"program":0,"isDrum":false},{"pitch":72,"velocity":114,"startTime":189.23058,"endTime":189.32673375,"instrument":2,"program":0,"isDrum":false},{"pitch":60,"velocity":114,"startTime":189.4228875,"endTime":189.5110284375,"instrument":2,"program":0,"isDrum":false},{"pitch":64,"velocity":114,"startTime":189.4228875,"endTime":189.4629515625,"instrument":2,"program":0,"isDrum":false},{"pitch":67,"velocity":114,"startTime":189.4228875,"endTime":189.5110284375,"instrument":2,"program":0,"isDrum":false},{"pitch":72,"velocity":114,"startTime":189.4228875,"endTime":189.5110284375,"instrument":2,"program":0,"isDrum":false},{"pitch":59,"velocity":114,"startTime":189.615195,"endTime":189.95974593749997,"instrument":2,"program":0,"isDrum":false},{"pitch":63,"velocity":114,"startTime":189.615195,"endTime":189.8075025,"instrument":2,"program":0,"isDrum":false},{"pitch":66,"velocity":114,"startTime":189.615195,"endTime":189.83955375,"instrument":2,"program":0,"isDrum":false},{"pitch":71,"velocity":114,"startTime":189.615195,"endTime":189.83955375,"instrument":2,"program":0,"isDrum":false},{"pitch":60,"velocity":122,"startTime":189.99981,"endTime":190.15205343749997,"instrument":2,"program":0,"isDrum":false},{"pitch":64,"velocity":122,"startTime":189.99981,"endTime":190.2482071875,"instrument":2,"program":0,"isDrum":false},{"pitch":67,"velocity":120,"startTime":189.99981,"endTime":190.384425,"instrument":2,"program":0,"isDrum":false},{"pitch":72,"velocity":120,"startTime":189.99981,"endTime":190.25622,"instrument":2,"program":0,"isDrum":false},{"pitch":41,"velocity":117,"startTime":190.384425,"endTime":190.6007709375,"instrument":2,"program":0,"isDrum":false},{"pitch":53,"velocity":123,"startTime":190.384425,"endTime":190.560706875,"instrument":2,"program":0,"isDrum":false},{"pitch":65,"velocity":123,"startTime":190.384425,"endTime":190.60878375,"instrument":2,"program":0,"isDrum":false},{"pitch":70,"velocity":123,"startTime":190.384425,"endTime":190.68089906249998,"instrument":2,"program":0,"isDrum":false},{"pitch":74,"velocity":121,"startTime":190.384425,"endTime":190.688911875,"instrument":2,"program":0,"isDrum":false},{"pitch":41,"velocity":122,"startTime":190.76904,"endTime":190.8571809375,"instrument":2,"program":0,"isDrum":false},{"pitch":53,"velocity":114,"startTime":190.76904,"endTime":190.84115531249998,"instrument":2,"program":0,"isDrum":false},{"pitch":65,"velocity":123,"startTime":190.76904,"endTime":190.84916812499998,"instrument":2,"program":0,"isDrum":false},{"pitch":69,"velocity":123,"startTime":190.76904,"endTime":190.84916812499998,"instrument":2,"program":0,"isDrum":false},{"pitch":72,"velocity":123,"startTime":190.76904,"endTime":190.86519375,"instrument":2,"program":0,"isDrum":false},{"pitch":41,"velocity":116,"startTime":190.9613475,"endTime":191.0334628125,"instrument":2,"program":0,"isDrum":false},{"pitch":53,"velocity":118,"startTime":190.9613475,"endTime":191.0494884375,"instrument":2,"program":0,"isDrum":false},{"pitch":65,"velocity":117,"startTime":190.9613475,"endTime":191.00942437499998,"instrument":2,"program":0,"isDrum":false},{"pitch":69,"velocity":121,"startTime":190.9613475,"endTime":191.01743718749998,"instrument":2,"program":0,"isDrum":false},{"pitch":72,"velocity":116,"startTime":190.9613475,"endTime":191.06551406249997,"instrument":2,"program":0,"isDrum":false},{"pitch":41,"velocity":118,"startTime":191.153655,"endTime":191.394039375,"instrument":2,"program":0,"isDrum":false},{"pitch":53,"velocity":123,"startTime":191.153655,"endTime":191.40205218749998,"instrument":2,"program":0,"isDrum":false},{"pitch":65,"velocity":120,"startTime":191.153655,"endTime":191.3860265625,"instrument":2,"program":0,"isDrum":false},{"pitch":68,"velocity":122,"startTime":191.153655,"endTime":191.40205218749998,"instrument":2,"program":0,"isDrum":false},{"pitch":71,"velocity":117,"startTime":191.153655,"endTime":191.44211625,"instrument":2,"program":0,"isDrum":false},{"pitch":41,"velocity":117,"startTime":191.53826999999998,"endTime":191.8026928125,"instrument":2,"program":0,"isDrum":false},{"pitch":53,"velocity":123,"startTime":191.53826999999998,"endTime":191.810705625,"instrument":2,"program":0,"isDrum":false},{"pitch":65,"velocity":123,"startTime":191.53826999999998,"endTime":191.79468,"instrument":2,"program":0,"isDrum":false},{"pitch":69,"velocity":123,"startTime":191.53826999999998,"endTime":191.8187184375,"instrument":2,"program":0,"isDrum":false},{"pitch":72,"velocity":123,"startTime":191.53826999999998,"endTime":191.842756875,"instrument":2,"program":0,"isDrum":false},{"pitch":41,"velocity":105,"startTime":191.92288499999998,"endTime":191.9869875,"instrument":2,"program":0,"isDrum":false},{"pitch":53,"velocity":119,"startTime":191.92288499999998,"endTime":191.9950003125,"instrument":2,"program":0,"isDrum":false},{"pitch":65,"velocity":123,"startTime":191.92288499999998,"endTime":191.9869875,"instrument":2,"program":0,"isDrum":false},{"pitch":70,"velocity":123,"startTime":191.92288499999998,"endTime":191.9789746875,"instrument":2,"program":0,"isDrum":false},{"pitch":74,"velocity":118,"startTime":191.92288499999998,"endTime":191.9869875,"instrument":2,"program":0,"isDrum":false},{"pitch":41,"velocity":117,"startTime":192.1151925,"endTime":192.1712821875,"instrument":2,"program":0,"isDrum":false},{"pitch":53,"velocity":120,"startTime":192.1151925,"endTime":192.1873078125,"instrument":2,"program":0,"isDrum":false},{"pitch":65,"velocity":120,"startTime":192.1151925,"endTime":192.163269375,"instrument":2,"program":0,"isDrum":false},{"pitch":70,"velocity":120,"startTime":192.1151925,"endTime":192.2033334375,"instrument":2,"program":0,"isDrum":false},{"pitch":74,"velocity":120,"startTime":192.1151925,"endTime":192.1552565625,"instrument":2,"program":0,"isDrum":false},{"pitch":41,"velocity":120,"startTime":192.3075,"endTime":192.547884375,"instrument":2,"program":0,"isDrum":false},{"pitch":53,"velocity":120,"startTime":192.3075,"endTime":192.579935625,"instrument":2,"program":0,"isDrum":false},{"pitch":65,"velocity":122,"startTime":192.3075,"endTime":192.5719228125,"instrument":2,"program":0,"isDrum":false},{"pitch":69,"velocity":122,"startTime":192.3075,"endTime":192.53185875,"instrument":2,"program":0,"isDrum":false},{"pitch":72,"velocity":117,"startTime":192.3075,"endTime":192.579935625,"instrument":2,"program":0,"isDrum":false},{"pitch":41,"velocity":117,"startTime":192.692115,"endTime":192.7642303125,"instrument":2,"program":0,"isDrum":false},{"pitch":53,"velocity":120,"startTime":192.692115,"endTime":192.7802559375,"instrument":2,"program":0,"isDrum":false},{"pitch":65,"velocity":114,"startTime":192.692115,"endTime":192.7642303125,"instrument":2,"program":0,"isDrum":false},{"pitch":68,"velocity":122,"startTime":192.692115,"endTime":192.78826875,"instrument":2,"program":0,"isDrum":false},{"pitch":71,"velocity":117,"startTime":192.692115,"endTime":192.740191875,"instrument":2,"program":0,"isDrum":false},{"pitch":41,"velocity":114,"startTime":192.8844225,"endTime":192.97256343749999,"instrument":2,"program":0,"isDrum":false},{"pitch":53,"velocity":122,"startTime":192.8844225,"endTime":192.98858906249998,"instrument":2,"program":0,"isDrum":false},{"pitch":65,"velocity":93,"startTime":192.8844225,"endTime":192.97256343749999,"instrument":2,"program":0,"isDrum":false},{"pitch":68,"velocity":110,"startTime":192.8844225,"endTime":192.996601875,"instrument":2,"program":0,"isDrum":false},{"pitch":71,"velocity":115,"startTime":192.8844225,"endTime":193.00461468749998,"instrument":2,"program":0,"isDrum":false},{"pitch":41,"velocity":119,"startTime":193.07673,"endTime":193.22897343749997,"instrument":2,"program":0,"isDrum":false},{"pitch":53,"velocity":123,"startTime":193.07673,"endTime":193.2690375,"instrument":2,"program":0,"isDrum":false},{"pitch":65,"velocity":123,"startTime":193.07673,"endTime":193.285063125,"instrument":2,"program":0,"isDrum":false},{"pitch":69,"velocity":123,"startTime":193.07673,"endTime":193.220960625,"instrument":2,"program":0,"isDrum":false},{"pitch":72,"velocity":123,"startTime":193.07673,"endTime":193.22897343749997,"instrument":2,"program":0,"isDrum":false},{"pitch":46,"velocity":121,"startTime":193.461345,"endTime":193.72576781249998,"instrument":2,"program":0,"isDrum":false},{"pitch":58,"velocity":122,"startTime":193.461345,"endTime":193.74980625,"instrument":2,"program":0,"isDrum":false},{"pitch":65,"velocity":123,"startTime":193.461345,"endTime":193.6776909375,"instrument":2,"program":0,"isDrum":false},{"pitch":70,"velocity":123,"startTime":193.461345,"endTime":193.70974218749998,"instrument":2,"program":0,"isDrum":false},{"pitch":74,"velocity":121,"startTime":193.461345,"endTime":193.6937165625,"instrument":2,"program":0,"isDrum":false},{"pitch":46,"velocity":119,"startTime":193.84596,"endTime":194.1264084375,"instrument":2,"program":0,"isDrum":false},{"pitch":58,"velocity":123,"startTime":193.84596,"endTime":194.11839562499998,"instrument":2,"program":0,"isDrum":false},{"pitch":65,"velocity":123,"startTime":193.84596,"endTime":194.1103828125,"instrument":2,"program":0,"isDrum":false},{"pitch":70,"velocity":122,"startTime":193.84596,"endTime":194.09435718749998,"instrument":2,"program":0,"isDrum":false},{"pitch":74,"velocity":122,"startTime":193.84596,"endTime":194.08634437499998,"instrument":2,"program":0,"isDrum":false},{"pitch":76,"velocity":117,"startTime":194.0382675,"endTime":194.1584596875,"instrument":2,"program":0,"isDrum":false},{"pitch":45,"velocity":123,"startTime":194.230575,"endTime":194.35878,"instrument":2,"program":0,"isDrum":false},{"pitch":57,"velocity":122,"startTime":194.230575,"endTime":194.35878,"instrument":2,"program":0,"isDrum":false},{"pitch":65,"velocity":122,"startTime":194.230575,"endTime":194.3667928125,"instrument":2,"program":0,"isDrum":false},{"pitch":69,"velocity":123,"startTime":194.230575,"endTime":194.35878,"instrument":2,"program":0,"isDrum":false},{"pitch":72,"velocity":123,"startTime":194.230575,"endTime":194.3507671875,"instrument":2,"program":0,"isDrum":false},{"pitch":45,"velocity":123,"startTime":194.61518999999998,"endTime":194.90365125,"instrument":2,"program":0,"isDrum":false},{"pitch":57,"velocity":123,"startTime":194.61518999999998,"endTime":194.855574375,"instrument":2,"program":0,"isDrum":false},{"pitch":65,"velocity":123,"startTime":194.61518999999998,"endTime":194.7033309375,"instrument":2,"program":0,"isDrum":false},{"pitch":69,"velocity":123,"startTime":194.61518999999998,"endTime":194.7994846875,"instrument":2,"program":0,"isDrum":false},{"pitch":72,"velocity":123,"startTime":194.61518999999998,"endTime":194.7834590625,"instrument":2,"program":0,"isDrum":false},{"pitch":65,"velocity":122,"startTime":194.80749749999998,"endTime":195.15204843749999,"instrument":2,"program":0,"isDrum":false},{"pitch":43,"velocity":123,"startTime":194.99980499999998,"endTime":195.15204843749999,"instrument":2,"program":0,"isDrum":false},{"pitch":55,"velocity":120,"startTime":194.99980499999998,"endTime":195.15204843749999,"instrument":2,"program":0,"isDrum":false},{"pitch":67,"velocity":122,"startTime":194.99980499999998,"endTime":195.16006125,"instrument":2,"program":0,"isDrum":false},{"pitch":71,"velocity":123,"startTime":194.99980499999998,"endTime":195.144035625,"instrument":2,"program":0,"isDrum":false},{"pitch":43,"velocity":123,"startTime":195.38442,"endTime":195.4725609375,"instrument":2,"program":0,"isDrum":false},{"pitch":55,"velocity":123,"startTime":195.38442,"endTime":195.496599375,"instrument":2,"program":0,"isDrum":false},{"pitch":65,"velocity":123,"startTime":195.38442,"endTime":195.48057375,"instrument":2,"program":0,"isDrum":false},{"pitch":67,"velocity":123,"startTime":195.38442,"endTime":195.464548125,"instrument":2,"program":0,"isDrum":false},{"pitch":71,"velocity":118,"startTime":195.38442,"endTime":195.4885865625,"instrument":2,"program":0,"isDrum":false},{"pitch":43,"velocity":113,"startTime":195.5767275,"endTime":195.7610221875,"instrument":2,"program":0,"isDrum":false},{"pitch":55,"velocity":123,"startTime":195.5767275,"endTime":195.769035,"instrument":2,"program":0,"isDrum":false},{"pitch":65,"velocity":121,"startTime":195.5767275,"endTime":195.656855625,"instrument":2,"program":0,"isDrum":false},{"pitch":67,"velocity":122,"startTime":195.5767275,"endTime":195.67288125,"instrument":2,"program":0,"isDrum":false},{"pitch":71,"velocity":115,"startTime":195.5767275,"endTime":195.7129453125,"instrument":2,"program":0,"isDrum":false},{"pitch":48,"velocity":122,"startTime":195.769035,"endTime":196.05749624999999,"instrument":2,"program":0,"isDrum":false},{"pitch":60,"velocity":122,"startTime":195.769035,"endTime":195.8732015625,"instrument":2,"program":0,"isDrum":false},{"pitch":67,"velocity":123,"startTime":195.769035,"endTime":195.92929125,"instrument":2,"program":0,"isDrum":false},{"pitch":72,"velocity":122,"startTime":195.769035,"endTime":195.96935531249997,"instrument":2,"program":0,"isDrum":false},{"pitch":72,"velocity":123,"startTime":196.15365,"endTime":196.233778125,"instrument":2,"program":0,"isDrum":false},{"pitch":72,"velocity":121,"startTime":196.3459575,"endTime":196.50621375,"instrument":2,"program":0,"isDrum":false},{"pitch":70,"velocity":122,"startTime":196.538265,"endTime":196.92288,"instrument":2,"program":0,"isDrum":false},{"pitch":74,"velocity":119,"startTime":196.538265,"endTime":196.682495625,"instrument":2,"program":0,"isDrum":false},{"pitch":77,"velocity":117,"startTime":196.7305725,"endTime":196.9148671875,"instrument":2,"program":0,"isDrum":false},{"pitch":69,"velocity":123,"startTime":196.92288,"endTime":197.2433925,"instrument":2,"program":0,"isDrum":false},{"pitch":72,"velocity":121,"startTime":196.92288,"endTime":197.1151875,"instrument":2,"program":0,"isDrum":false},{"pitch":77,"velocity":121,"startTime":197.1151875,"endTime":197.31550781250002,"instrument":2,"program":0,"isDrum":false},{"pitch":68,"velocity":118,"startTime":197.307495,"endTime":197.69210999999999,"instrument":2,"program":0,"isDrum":false},{"pitch":71,"velocity":118,"startTime":197.307495,"endTime":197.48377687500002,"instrument":2,"program":0,"isDrum":false},{"pitch":77,"velocity":118,"startTime":197.4998025,"endTime":197.70813562499998,"instrument":2,"program":0,"isDrum":false},{"pitch":67,"velocity":122,"startTime":197.69210999999999,"endTime":197.86839187500001,"instrument":2,"program":0,"isDrum":false},{"pitch":70,"velocity":123,"startTime":197.69210999999999,"endTime":197.90845593749998,"instrument":2,"program":0,"isDrum":false},{"pitch":77,"velocity":120,"startTime":197.88441749999998,"endTime":197.9565328125,"instrument":2,"program":0,"isDrum":false},{"pitch":61,"velocity":123,"startTime":198.07672499999998,"endTime":198.2129428125,"instrument":2,"program":0,"isDrum":false},{"pitch":65,"velocity":120,"startTime":198.07672499999998,"endTime":198.1328146875,"instrument":2,"program":0,"isDrum":false},{"pitch":68,"velocity":122,"startTime":198.07672499999998,"endTime":198.1488403125,"instrument":2,"program":0,"isDrum":false},{"pitch":73,"velocity":120,"startTime":198.07672499999998,"endTime":198.16486593749997,"instrument":2,"program":0,"isDrum":false},{"pitch":61,"velocity":123,"startTime":198.26903249999998,"endTime":198.4052503125,"instrument":2,"program":0,"isDrum":false},{"pitch":65,"velocity":120,"startTime":198.26903249999998,"endTime":198.3251221875,"instrument":2,"program":0,"isDrum":false},{"pitch":68,"velocity":122,"startTime":198.26903249999998,"endTime":198.3411478125,"instrument":2,"program":0,"isDrum":false},{"pitch":73,"velocity":120,"startTime":198.26903249999998,"endTime":198.35717343749997,"instrument":2,"program":0,"isDrum":false},{"pitch":60,"velocity":123,"startTime":198.46133999999998,"endTime":198.541468125,"instrument":2,"program":0,"isDrum":false},{"pitch":64,"velocity":119,"startTime":198.46133999999998,"endTime":198.52544249999997,"instrument":2,"program":0,"isDrum":false},{"pitch":67,"velocity":119,"startTime":198.46133999999998,"endTime":198.5334553125,"instrument":2,"program":0,"isDrum":false},{"pitch":72,"velocity":112,"startTime":198.46133999999998,"endTime":198.5334553125,"instrument":2,"program":0,"isDrum":false},{"pitch":59,"velocity":117,"startTime":198.845955,"endTime":198.9180703125,"instrument":2,"program":0,"isDrum":false},{"pitch":63,"velocity":117,"startTime":198.845955,"endTime":198.9020446875,"instrument":2,"program":0,"isDrum":false},{"pitch":66,"velocity":117,"startTime":198.845955,"endTime":198.94210875,"instrument":2,"program":0,"isDrum":false},{"pitch":71,"velocity":112,"startTime":198.845955,"endTime":198.92608312500002,"instrument":2,"program":0,"isDrum":false},{"pitch":59,"velocity":117,"startTime":199.0382625,"endTime":199.23057,"instrument":2,"program":0,"isDrum":false},{"pitch":63,"velocity":95,"startTime":199.0382625,"endTime":199.13441625,"instrument":2,"program":0,"isDrum":false},{"pitch":66,"velocity":109,"startTime":199.0382625,"endTime":199.1424290625,"instrument":2,"program":0,"isDrum":false},{"pitch":71,"velocity":102,"startTime":199.0382625,"endTime":199.1424290625,"instrument":2,"program":0,"isDrum":false},{"pitch":60,"velocity":122,"startTime":199.23057,"endTime":199.35076218749998,"instrument":2,"program":0,"isDrum":false},{"pitch":64,"velocity":118,"startTime":199.23057,"endTime":199.31069812500002,"instrument":2,"program":0,"isDrum":false},{"pitch":67,"velocity":113,"startTime":199.23057,"endTime":199.3187109375,"instrument":2,"program":0,"isDrum":false},{"pitch":72,"velocity":116,"startTime":199.23057,"endTime":199.32672374999999,"instrument":2,"program":0,"isDrum":false},{"pitch":61,"velocity":119,"startTime":199.615185,"endTime":199.71133874999998,"instrument":2,"program":0,"isDrum":false},{"pitch":65,"velocity":115,"startTime":199.615185,"endTime":199.68730031249999,"instrument":2,"program":0,"isDrum":false},{"pitch":68,"velocity":120,"startTime":199.615185,"endTime":199.695313125,"instrument":2,"program":0,"isDrum":false},{"pitch":73,"velocity":118,"startTime":199.615185,"endTime":199.7193515625,"instrument":2,"program":0,"isDrum":false},{"pitch":61,"velocity":117,"startTime":199.8074925,"endTime":199.94371031249997,"instrument":2,"program":0,"isDrum":false},{"pitch":65,"velocity":107,"startTime":199.8074925,"endTime":199.8475565625,"instrument":2,"program":0,"isDrum":false},{"pitch":68,"velocity":120,"startTime":199.8074925,"endTime":199.887620625,"instrument":2,"program":0,"isDrum":false},{"pitch":73,"velocity":120,"startTime":199.8074925,"endTime":199.87960781249998,"instrument":2,"program":0,"isDrum":false},{"pitch":60,"velocity":118,"startTime":199.9998,"endTime":200.07191531249998,"instrument":2,"program":0,"isDrum":false},{"pitch":64,"velocity":121,"startTime":199.9998,"endTime":200.06390249999998,"instrument":2,"program":0,"isDrum":false},{"pitch":67,"velocity":117,"startTime":199.9998,"endTime":200.0558896875,"instrument":2,"program":0,"isDrum":false},{"pitch":72,"velocity":117,"startTime":199.9998,"endTime":200.07191531249998,"instrument":2,"program":0,"isDrum":false},{"pitch":60,"velocity":112,"startTime":200.1921075,"endTime":200.35236374999997,"instrument":2,"program":0,"isDrum":false},{"pitch":67,"velocity":108,"startTime":200.1921075,"endTime":200.272235625,"instrument":2,"program":0,"isDrum":false},{"pitch":72,"velocity":105,"startTime":200.1921075,"endTime":200.26422281249998,"instrument":2,"program":0,"isDrum":false},{"pitch":59,"velocity":120,"startTime":200.384415,"endTime":200.720953125,"instrument":2,"program":0,"isDrum":false},{"pitch":63,"velocity":123,"startTime":200.384415,"endTime":200.56069687500002,"instrument":2,"program":0,"isDrum":false},{"pitch":66,"velocity":113,"startTime":200.384415,"endTime":200.464543125,"instrument":2,"program":0,"isDrum":false},{"pitch":71,"velocity":119,"startTime":200.384415,"endTime":200.58473531250002,"instrument":2,"program":0,"isDrum":false},{"pitch":48,"velocity":123,"startTime":200.76903,"endTime":200.96133749999998,"instrument":2,"program":0,"isDrum":false},{"pitch":60,"velocity":123,"startTime":200.76903,"endTime":200.86518375,"instrument":2,"program":0,"isDrum":false},{"pitch":64,"velocity":123,"startTime":200.76903,"endTime":200.849158125,"instrument":2,"program":0,"isDrum":false},{"pitch":67,"velocity":123,"startTime":200.76903,"endTime":200.849158125,"instrument":2,"program":0,"isDrum":false},{"pitch":72,"velocity":123,"startTime":200.76903,"endTime":200.8892221875,"instrument":2,"program":0,"isDrum":false},{"pitch":41,"velocity":123,"startTime":201.15364499999998,"endTime":201.2898628125,"instrument":2,"program":0,"isDrum":false},{"pitch":53,"velocity":123,"startTime":201.15364499999998,"endTime":201.24979875,"instrument":2,"program":0,"isDrum":false},{"pitch":65,"velocity":123,"startTime":201.15364499999998,"endTime":201.2738371875,"instrument":2,"program":0,"isDrum":false},{"pitch":69,"velocity":123,"startTime":201.15364499999998,"endTime":201.24178593749997,"instrument":2,"program":0,"isDrum":false},{"pitch":72,"velocity":123,"startTime":201.15364499999998,"endTime":201.26582437499997,"instrument":2,"program":0,"isDrum":false},{"pitch":77,"velocity":123,"startTime":201.15364499999998,"endTime":201.26582437499997,"instrument":2,"program":0,"isDrum":false},{"pitch":36,"velocity":123,"startTime":201.53825999999998,"endTime":201.6744778125,"instrument":2,"program":0,"isDrum":false},{"pitch":48,"velocity":123,"startTime":201.53825999999998,"endTime":201.62640093749997,"instrument":2,"program":0,"isDrum":false},{"pitch":64,"velocity":123,"startTime":201.53825999999998,"endTime":201.5943496875,"instrument":2,"program":0,"isDrum":false},{"pitch":67,"velocity":123,"startTime":201.53825999999998,"endTime":201.6103753125,"instrument":2,"program":0,"isDrum":false},{"pitch":72,"velocity":123,"startTime":201.53825999999998,"endTime":201.650439375,"instrument":2,"program":0,"isDrum":false},{"pitch":29,"velocity":123,"startTime":201.922875,"endTime":202.46774624999998,"instrument":2,"program":0,"isDrum":false},{"pitch":41,"velocity":123,"startTime":201.922875,"endTime":202.49178468749997,"instrument":2,"program":0,"isDrum":false},{"pitch":65,"velocity":123,"startTime":201.922875,"endTime":202.3715925,"instrument":2,"program":0,"isDrum":false},{"pitch":69,"velocity":123,"startTime":201.922875,"endTime":202.3635796875,"instrument":2,"program":0,"isDrum":false},{"pitch":72,"velocity":123,"startTime":201.922875,"endTime":202.34755406249997,"instrument":2,"program":0,"isDrum":false},{"pitch":77,"velocity":123,"startTime":201.922875,"endTime":202.33954125,"instrument":2,"program":0,"isDrum":false},{"pitch":60,"velocity":117,"startTime":202.4997975,"endTime":202.55588718750002,"instrument":2,"program":0,"isDrum":false},{"pitch":64,"velocity":117,"startTime":202.4997975,"endTime":202.55588718750002,"instrument":2,"program":0,"isDrum":false},{"pitch":67,"velocity":117,"startTime":202.4997975,"endTime":202.5719128125,"instrument":2,"program":0,"isDrum":false},{"pitch":60,"velocity":118,"startTime":202.692105,"endTime":202.73216906249996,"instrument":2,"program":0,"isDrum":false},{"pitch":64,"velocity":118,"startTime":202.692105,"endTime":202.8844125,"instrument":2,"program":0,"isDrum":false},{"pitch":67,"velocity":118,"startTime":202.692105,"endTime":202.85236124999997,"instrument":2,"program":0,"isDrum":false},{"pitch":60,"velocity":116,"startTime":202.8844125,"endTime":202.95652781249998,"instrument":2,"program":0,"isDrum":false},{"pitch":65,"velocity":116,"startTime":202.8844125,"endTime":203.07672,"instrument":2,"program":0,"isDrum":false},{"pitch":69,"velocity":116,"startTime":202.8844125,"endTime":203.1167840625,"instrument":2,"program":0,"isDrum":false},{"pitch":60,"velocity":117,"startTime":203.07672,"endTime":203.2449890625,"instrument":2,"program":0,"isDrum":false},{"pitch":67,"velocity":117,"startTime":203.07672,"endTime":203.2690275,"instrument":2,"program":0,"isDrum":false},{"pitch":70,"velocity":117,"startTime":203.07672,"endTime":203.1328096875,"instrument":2,"program":0,"isDrum":false},{"pitch":65,"velocity":118,"startTime":203.2690275,"endTime":203.461335,"instrument":2,"program":0,"isDrum":false},{"pitch":69,"velocity":118,"startTime":203.2690275,"endTime":203.52543749999998,"instrument":2,"program":0,"isDrum":false},{"pitch":64,"velocity":123,"startTime":203.461335,"endTime":203.6536425,"instrument":2,"program":0,"isDrum":false},{"pitch":67,"velocity":123,"startTime":203.461335,"endTime":203.49338625000001,"instrument":2,"program":0,"isDrum":false},{"pitch":41,"velocity":123,"startTime":203.6536425,"endTime":203.7818475,"instrument":2,"program":0,"isDrum":false},{"pitch":53,"velocity":123,"startTime":203.6536425,"endTime":203.7738346875,"instrument":2,"program":0,"isDrum":false},{"pitch":65,"velocity":123,"startTime":203.6536425,"endTime":203.71774499999998,"instrument":2,"program":0,"isDrum":false},{"pitch":69,"velocity":123,"startTime":203.6536425,"endTime":203.733770625,"instrument":2,"program":0,"isDrum":false},{"pitch":72,"velocity":123,"startTime":203.6536425,"endTime":203.74979625,"instrument":2,"program":0,"isDrum":false},{"pitch":77,"velocity":123,"startTime":203.6536425,"endTime":203.74979625,"instrument":2,"program":0,"isDrum":false},{"pitch":41,"velocity":120,"startTime":203.84595,"endTime":203.95812937499997,"instrument":2,"program":0,"isDrum":false},{"pitch":53,"velocity":123,"startTime":203.84595,"endTime":203.9661421875,"instrument":2,"program":0,"isDrum":false},{"pitch":65,"velocity":123,"startTime":203.84595,"endTime":203.9180653125,"instrument":2,"program":0,"isDrum":false},{"pitch":69,"velocity":123,"startTime":203.84595,"endTime":203.926078125,"instrument":2,"program":0,"isDrum":false},{"pitch":72,"velocity":123,"startTime":203.84595,"endTime":203.94210375,"instrument":2,"program":0,"isDrum":false},{"pitch":77,"velocity":123,"startTime":203.84595,"endTime":203.93409093749997,"instrument":2,"program":0,"isDrum":false},{"pitch":41,"velocity":123,"startTime":204.0382575,"endTime":204.406846875,"instrument":2,"program":0,"isDrum":false},{"pitch":53,"velocity":123,"startTime":204.0382575,"endTime":204.3507571875,"instrument":2,"program":0,"isDrum":false},{"pitch":65,"velocity":123,"startTime":204.0382575,"endTime":204.3507571875,"instrument":2,"program":0,"isDrum":false},{"pitch":69,"velocity":123,"startTime":204.0382575,"endTime":204.3507571875,"instrument":2,"program":0,"isDrum":false},{"pitch":72,"velocity":123,"startTime":204.0382575,"endTime":204.32671875,"instrument":2,"program":0,"isDrum":false},{"pitch":77,"velocity":123,"startTime":204.0382575,"endTime":204.31870593749997,"instrument":2,"program":0,"isDrum":false},{"pitch":36,"velocity":123,"startTime":204.61517999999998,"endTime":204.77543624999998,"instrument":2,"program":0,"isDrum":false},{"pitch":48,"velocity":123,"startTime":204.61517999999998,"endTime":204.74338500000002,"instrument":2,"program":0,"isDrum":false},{"pitch":60,"velocity":123,"startTime":204.61517999999998,"endTime":204.695308125,"instrument":2,"program":0,"isDrum":false},{"pitch":64,"velocity":123,"startTime":204.61517999999998,"endTime":204.71133375,"instrument":2,"program":0,"isDrum":false},{"pitch":67,"velocity":123,"startTime":204.61517999999998,"endTime":204.72735937499996,"instrument":2,"program":0,"isDrum":false},{"pitch":72,"velocity":123,"startTime":204.61517999999998,"endTime":204.759410625,"instrument":2,"program":0,"isDrum":false},{"pitch":29,"velocity":123,"startTime":204.999795,"endTime":205.09594875,"instrument":2,"program":0,"isDrum":false},{"pitch":41,"velocity":123,"startTime":204.999795,"endTime":205.06389749999997,"instrument":2,"program":0,"isDrum":false},{"pitch":65,"velocity":123,"startTime":204.999795,"endTime":205.10396156250002,"instrument":2,"program":0,"isDrum":false},{"pitch":69,"velocity":123,"startTime":204.999795,"endTime":205.12800000000001,"instrument":2,"program":0,"isDrum":false},{"pitch":72,"velocity":123,"startTime":204.999795,"endTime":205.111974375,"instrument":2,"program":0,"isDrum":false},{"pitch":77,"velocity":123,"startTime":204.999795,"endTime":205.111974375,"instrument":2,"program":0,"isDrum":false},{"pitch":36,"velocity":123,"startTime":205.38441,"endTime":205.48857656250001,"instrument":2,"program":0,"isDrum":false},{"pitch":48,"velocity":123,"startTime":205.38441,"endTime":205.4725509375,"instrument":2,"program":0,"isDrum":false},{"pitch":60,"velocity":123,"startTime":205.38441,"endTime":205.4404996875,"instrument":2,"program":0,"isDrum":false},{"pitch":64,"velocity":123,"startTime":205.38441,"endTime":205.4404996875,"instrument":2,"program":0,"isDrum":false},{"pitch":67,"velocity":123,"startTime":205.38441,"endTime":205.4565253125,"instrument":2,"program":0,"isDrum":false},{"pitch":72,"velocity":123,"startTime":205.38441,"endTime":205.50460218749998,"instrument":2,"program":0,"isDrum":false},{"pitch":29,"velocity":123,"startTime":205.769025,"endTime":206.2578065625,"instrument":2,"program":0,"isDrum":false},{"pitch":41,"velocity":123,"startTime":205.769025,"endTime":206.24979374999998,"instrument":2,"program":0,"isDrum":false},{"pitch":65,"velocity":123,"startTime":205.769025,"endTime":206.1776784375,"instrument":2,"program":0,"isDrum":false},{"pitch":69,"velocity":123,"startTime":205.769025,"endTime":206.16966562499996,"instrument":2,"program":0,"isDrum":false},{"pitch":72,"velocity":123,"startTime":205.769025,"endTime":206.14562718749997,"instrument":2,"program":0,"isDrum":false},{"pitch":77,"velocity":123,"startTime":205.769025,"endTime":206.12158874999997,"instrument":2,"program":0,"isDrum":false},{"pitch":60,"velocity":113,"startTime":206.3459475,"endTime":206.426075625,"instrument":2,"program":0,"isDrum":false},{"pitch":64,"velocity":113,"startTime":206.3459475,"endTime":206.43408843749998,"instrument":2,"program":0,"isDrum":false},{"pitch":67,"velocity":113,"startTime":206.3459475,"endTime":206.4661396875,"instrument":2,"program":0,"isDrum":false},{"pitch":64,"velocity":113,"startTime":206.538255,"endTime":206.6584471875,"instrument":2,"program":0,"isDrum":false},{"pitch":67,"velocity":113,"startTime":206.538255,"endTime":206.7065240625,"instrument":2,"program":0,"isDrum":false},{"pitch":65,"velocity":113,"startTime":206.7305625,"endTime":206.86678031249997,"instrument":2,"program":0,"isDrum":false},{"pitch":69,"velocity":113,"startTime":206.7305625,"endTime":206.8828059375,"instrument":2,"program":0,"isDrum":false},{"pitch":60,"velocity":113,"startTime":206.92287,"endTime":206.97094687499998,"instrument":2,"program":0,"isDrum":false},{"pitch":67,"velocity":113,"startTime":206.92287,"endTime":207.03504937499997,"instrument":2,"program":0,"isDrum":false},{"pitch":70,"velocity":113,"startTime":206.92287,"endTime":207.01101093749998,"instrument":2,"program":0,"isDrum":false},{"pitch":65,"velocity":113,"startTime":207.1151775,"endTime":207.29145937500002,"instrument":2,"program":0,"isDrum":false},{"pitch":69,"velocity":113,"startTime":207.1151775,"endTime":207.3635746875,"instrument":2,"program":0,"isDrum":false},{"pitch":64,"velocity":113,"startTime":207.30748499999999,"endTime":207.49979249999998,"instrument":2,"program":0,"isDrum":false},{"pitch":67,"velocity":113,"startTime":207.30748499999999,"endTime":207.3635746875,"instrument":2,"program":0,"isDrum":false},{"pitch":29,"velocity":123,"startTime":207.49979249999998,"endTime":207.6360103125,"instrument":2,"program":0,"isDrum":false},{"pitch":41,"velocity":123,"startTime":207.49979249999998,"endTime":207.6039590625,"instrument":2,"program":0,"isDrum":false},{"pitch":65,"velocity":123,"startTime":207.49979249999998,"endTime":207.5558821875,"instrument":2,"program":0,"isDrum":false},{"pitch":69,"velocity":123,"startTime":207.49979249999998,"endTime":207.56389499999997,"instrument":2,"program":0,"isDrum":false},{"pitch":72,"velocity":123,"startTime":207.49979249999998,"endTime":207.579920625,"instrument":2,"program":0,"isDrum":false},{"pitch":77,"velocity":123,"startTime":207.49979249999998,"endTime":207.61197187499997,"instrument":2,"program":0,"isDrum":false},{"pitch":29,"velocity":123,"startTime":207.69209999999998,"endTime":207.85235624999999,"instrument":2,"program":0,"isDrum":false},{"pitch":41,"velocity":123,"startTime":207.69209999999998,"endTime":207.868381875,"instrument":2,"program":0,"isDrum":false},{"pitch":65,"velocity":123,"startTime":207.69209999999998,"endTime":207.772228125,"instrument":2,"program":0,"isDrum":false},{"pitch":69,"velocity":123,"startTime":207.69209999999998,"endTime":207.7642153125,"instrument":2,"program":0,"isDrum":false},{"pitch":72,"velocity":123,"startTime":207.69209999999998,"endTime":207.7642153125,"instrument":2,"program":0,"isDrum":false},{"pitch":77,"velocity":123,"startTime":207.69209999999998,"endTime":207.7642153125,"instrument":2,"program":0,"isDrum":false},{"pitch":60,"velocity":112,"startTime":207.88440749999998,"endTime":207.964535625,"instrument":2,"program":0,"isDrum":false},{"pitch":64,"velocity":112,"startTime":207.88440749999998,"endTime":207.97254843749997,"instrument":2,"program":0,"isDrum":false},{"pitch":67,"velocity":112,"startTime":207.88440749999998,"endTime":208.0045996875,"instrument":2,"program":0,"isDrum":false},{"pitch":64,"velocity":112,"startTime":208.07671499999998,"endTime":208.1969071875,"instrument":2,"program":0,"isDrum":false},{"pitch":67,"velocity":112,"startTime":208.07671499999998,"endTime":208.24498406249998,"instrument":2,"program":0,"isDrum":false},{"pitch":65,"velocity":112,"startTime":208.2690225,"endTime":208.40524031249998,"instrument":2,"program":0,"isDrum":false},{"pitch":69,"velocity":112,"startTime":208.2690225,"endTime":208.4212659375,"instrument":2,"program":0,"isDrum":false},{"pitch":60,"velocity":112,"startTime":208.46133,"endTime":208.509406875,"instrument":2,"program":0,"isDrum":false},{"pitch":67,"velocity":112,"startTime":208.46133,"endTime":208.573509375,"instrument":2,"program":0,"isDrum":false},{"pitch":70,"velocity":112,"startTime":208.46133,"endTime":208.5494709375,"instrument":2,"program":0,"isDrum":false},{"pitch":65,"velocity":112,"startTime":208.6536375,"endTime":208.829919375,"instrument":2,"program":0,"isDrum":false},{"pitch":69,"velocity":112,"startTime":208.6536375,"endTime":208.90203468750002,"instrument":2,"program":0,"isDrum":false},{"pitch":64,"velocity":112,"startTime":208.845945,"endTime":209.0382525,"instrument":2,"program":0,"isDrum":false},{"pitch":67,"velocity":112,"startTime":208.845945,"endTime":208.90203468750002,"instrument":2,"program":0,"isDrum":false},{"pitch":29,"velocity":123,"startTime":209.0382525,"endTime":209.15844468749998,"instrument":2,"program":0,"isDrum":false},{"pitch":41,"velocity":123,"startTime":209.0382525,"endTime":209.15043187499998,"instrument":2,"program":0,"isDrum":false},{"pitch":65,"velocity":123,"startTime":209.0382525,"endTime":209.102355,"instrument":2,"program":0,"isDrum":false},{"pitch":69,"velocity":123,"startTime":209.0382525,"endTime":209.12639343749998,"instrument":2,"program":0,"isDrum":false},{"pitch":77,"velocity":123,"startTime":209.0382525,"endTime":209.13440624999998,"instrument":2,"program":0,"isDrum":false},{"pitch":29,"velocity":123,"startTime":209.23056,"endTime":209.36677781249998,"instrument":2,"program":0,"isDrum":false},{"pitch":41,"velocity":123,"startTime":209.23056,"endTime":209.36677781249998,"instrument":2,"program":0,"isDrum":false},{"pitch":65,"velocity":123,"startTime":209.23056,"endTime":209.310688125,"instrument":2,"program":0,"isDrum":false},{"pitch":69,"velocity":123,"startTime":209.23056,"endTime":209.3347265625,"instrument":2,"program":0,"isDrum":false},{"pitch":77,"velocity":123,"startTime":209.23056,"endTime":209.34273937499998,"instrument":2,"program":0,"isDrum":false},{"pitch":60,"velocity":112,"startTime":209.4228675,"endTime":209.502995625,"instrument":2,"program":0,"isDrum":false},{"pitch":64,"velocity":112,"startTime":209.4228675,"endTime":209.51100843749998,"instrument":2,"program":0,"isDrum":false},{"pitch":67,"velocity":112,"startTime":209.4228675,"endTime":209.5430596875,"instrument":2,"program":0,"isDrum":false},{"pitch":64,"velocity":112,"startTime":209.615175,"endTime":209.7353671875,"instrument":2,"program":0,"isDrum":false},{"pitch":67,"velocity":112,"startTime":209.615175,"endTime":209.7834440625,"instrument":2,"program":0,"isDrum":false},{"pitch":65,"velocity":112,"startTime":209.8074825,"endTime":209.94370031249997,"instrument":2,"program":0,"isDrum":false},{"pitch":69,"velocity":112,"startTime":209.8074825,"endTime":209.9597259375,"instrument":2,"program":0,"isDrum":false},{"pitch":60,"velocity":112,"startTime":209.99979,"endTime":210.04786687499998,"instrument":2,"program":0,"isDrum":false},{"pitch":67,"velocity":112,"startTime":209.99979,"endTime":210.11196937499997,"instrument":2,"program":0,"isDrum":false},{"pitch":70,"velocity":112,"startTime":209.99979,"endTime":210.08793093749998,"instrument":2,"program":0,"isDrum":false},{"pitch":65,"velocity":112,"startTime":210.1920975,"endTime":210.36837937500002,"instrument":2,"program":0,"isDrum":false},{"pitch":69,"velocity":112,"startTime":210.1920975,"endTime":210.4404946875,"instrument":2,"program":0,"isDrum":false},{"pitch":64,"velocity":112,"startTime":210.384405,"endTime":210.57671249999999,"instrument":2,"program":0,"isDrum":false},{"pitch":67,"velocity":112,"startTime":210.384405,"endTime":210.4404946875,"instrument":2,"program":0,"isDrum":false},{"pitch":65,"velocity":123,"startTime":210.57671249999999,"endTime":210.76901999999998,"instrument":2,"program":0,"isDrum":false},{"pitch":77,"velocity":123,"startTime":210.76901999999998,"endTime":210.89722500000002,"instrument":2,"program":0,"isDrum":false},{"pitch":77,"velocity":121,"startTime":210.96132749999998,"endTime":211.47414750000002,"instrument":2,"program":0,"isDrum":false},{"pitch":75,"velocity":122,"startTime":211.15363499999998,"endTime":213.252991875,"instrument":2,"program":0,"isDrum":false},{"pitch":72,"velocity":123,"startTime":211.34594249999998,"endTime":213.220940625,"instrument":2,"program":0,"isDrum":false},{"pitch":68,"velocity":123,"startTime":211.7305575,"endTime":213.1969021875,"instrument":2,"program":0,"isDrum":false},{"pitch":65,"velocity":123,"startTime":212.1151725,"endTime":213.1808765625,"instrument":2,"program":0,"isDrum":false},{"pitch":63,"velocity":123,"startTime":212.4997875,"endTime":213.2449790625,"instrument":2,"program":0,"isDrum":false},{"pitch":48,"velocity":123,"startTime":213.2690175,"endTime":213.461325,"instrument":2,"program":0,"isDrum":false},{"pitch":60,"velocity":123,"startTime":213.2690175,"endTime":213.44529937500002,"instrument":2,"program":0,"isDrum":false},{"pitch":72,"velocity":123,"startTime":213.2690175,"endTime":213.461325,"instrument":2,"program":0,"isDrum":false},{"pitch":84,"velocity":123,"startTime":213.2690175,"endTime":213.46933781250002,"instrument":2,"program":0,"isDrum":false},{"pitch":47,"velocity":123,"startTime":213.6536325,"endTime":213.84593999999998,"instrument":2,"program":0,"isDrum":false},{"pitch":59,"velocity":123,"startTime":213.6536325,"endTime":213.8219015625,"instrument":2,"program":0,"isDrum":false},{"pitch":71,"velocity":123,"startTime":213.6536325,"endTime":213.76581187499997,"instrument":2,"program":0,"isDrum":false},{"pitch":83,"velocity":123,"startTime":213.6536325,"endTime":213.84593999999998,"instrument":2,"program":0,"isDrum":false},{"pitch":51,"velocity":123,"startTime":214.03824749999998,"endTime":214.23055499999998,"instrument":2,"program":0,"isDrum":false},{"pitch":63,"velocity":123,"startTime":214.03824749999998,"endTime":214.29465749999997,"instrument":2,"program":0,"isDrum":false},{"pitch":75,"velocity":123,"startTime":214.03824749999998,"endTime":214.22254218749998,"instrument":2,"program":0,"isDrum":false},{"pitch":87,"velocity":123,"startTime":214.03824749999998,"endTime":214.2385678125,"instrument":2,"program":0,"isDrum":false},{"pitch":50,"velocity":123,"startTime":214.42286249999998,"endTime":214.61516999999998,"instrument":2,"program":0,"isDrum":false},{"pitch":62,"velocity":123,"startTime":214.42286249999998,"endTime":214.59113156249998,"instrument":2,"program":0,"isDrum":false},{"pitch":74,"velocity":123,"startTime":214.42286249999998,"endTime":214.51901625,"instrument":2,"program":0,"isDrum":false},{"pitch":86,"velocity":123,"startTime":214.42286249999998,"endTime":214.59113156249998,"instrument":2,"program":0,"isDrum":false},{"pitch":56,"velocity":123,"startTime":214.8074775,"endTime":214.999785,"instrument":2,"program":0,"isDrum":false},{"pitch":68,"velocity":123,"startTime":214.8074775,"endTime":214.9356825,"instrument":2,"program":0,"isDrum":false},{"pitch":80,"velocity":123,"startTime":214.8074775,"endTime":214.919656875,"instrument":2,"program":0,"isDrum":false},{"pitch":92,"velocity":123,"startTime":214.8074775,"endTime":214.99177218749998,"instrument":2,"program":0,"isDrum":false},{"pitch":55,"velocity":123,"startTime":215.1920925,"endTime":215.3844,"instrument":2,"program":0,"isDrum":false},{"pitch":67,"velocity":123,"startTime":215.1920925,"endTime":215.368374375,"instrument":2,"program":0,"isDrum":false},{"pitch":79,"velocity":123,"startTime":215.1920925,"endTime":215.2962590625,"instrument":2,"program":0,"isDrum":false},{"pitch":91,"velocity":123,"startTime":215.1920925,"endTime":215.35234874999998,"instrument":2,"program":0,"isDrum":false},{"pitch":48,"velocity":123,"startTime":215.5767075,"endTime":215.769015,"instrument":2,"program":0,"isDrum":false},{"pitch":60,"velocity":123,"startTime":215.5767075,"endTime":215.80106625000002,"instrument":2,"program":0,"isDrum":false},{"pitch":72,"velocity":123,"startTime":215.5767075,"endTime":215.82510468750002,"instrument":2,"program":0,"isDrum":false},{"pitch":84,"velocity":123,"startTime":215.5767075,"endTime":215.7930534375,"instrument":2,"program":0,"isDrum":false},{"pitch":96,"velocity":123,"startTime":215.5767075,"endTime":215.817091875,"instrument":2,"program":0,"isDrum":false},{"pitch":72,"velocity":123,"startTime":217.49978249999998,"endTime":217.58792343749997,"instrument":2,"program":0,"isDrum":false},{"pitch":76,"velocity":121,"startTime":217.49978249999998,"endTime":217.61196187499996,"instrument":2,"program":0,"isDrum":false},{"pitch":72,"velocity":123,"startTime":217.69208999999998,"endTime":217.804269375,"instrument":2,"program":0,"isDrum":false},{"pitch":76,"velocity":116,"startTime":217.69208999999998,"endTime":217.8122821875,"instrument":2,"program":0,"isDrum":false},{"pitch":74,"velocity":123,"startTime":217.88439749999998,"endTime":217.97253843749996,"instrument":2,"program":0,"isDrum":false},{"pitch":77,"velocity":122,"startTime":217.88439749999998,"endTime":218.02862812499998,"instrument":2,"program":0,"isDrum":false},{"pitch":72,"velocity":118,"startTime":218.076705,"endTime":218.188884375,"instrument":2,"program":0,"isDrum":false},{"pitch":76,"velocity":122,"startTime":218.076705,"endTime":218.21292281249998,"instrument":2,"program":0,"isDrum":false},{"pitch":71,"velocity":123,"startTime":218.2690125,"endTime":218.34914062500002,"instrument":2,"program":0,"isDrum":false},{"pitch":74,"velocity":120,"startTime":218.2690125,"endTime":218.34914062500002,"instrument":2,"program":0,"isDrum":false},{"pitch":69,"velocity":123,"startTime":218.46132,"endTime":218.5494609375,"instrument":2,"program":0,"isDrum":false},{"pitch":72,"velocity":123,"startTime":218.46132,"endTime":218.5494609375,"instrument":2,"program":0,"isDrum":false},{"pitch":67,"velocity":123,"startTime":218.6536275,"endTime":218.78984531249998,"instrument":2,"program":0,"isDrum":false},{"pitch":71,"velocity":123,"startTime":218.6536275,"endTime":218.78984531249998,"instrument":2,"program":0,"isDrum":false},{"pitch":62,"velocity":123,"startTime":219.0382425,"endTime":219.182473125,"instrument":2,"program":0,"isDrum":false},{"pitch":67,"velocity":123,"startTime":219.0382425,"endTime":219.31869093749998,"instrument":2,"program":0,"isDrum":false},{"pitch":71,"velocity":123,"startTime":219.0382425,"endTime":219.374780625,"instrument":2,"program":0,"isDrum":false},{"pitch":48,"velocity":119,"startTime":219.4228575,"endTime":219.87958781249998,"instrument":2,"program":0,"isDrum":false},{"pitch":55,"velocity":123,"startTime":219.4228575,"endTime":219.90362625,"instrument":2,"program":0,"isDrum":false},{"pitch":60,"velocity":123,"startTime":219.4228575,"endTime":219.87958781249998,"instrument":2,"program":0,"isDrum":false},{"pitch":64,"velocity":123,"startTime":219.4228575,"endTime":219.83952375,"instrument":2,"program":0,"isDrum":false},{"pitch":67,"velocity":123,"startTime":219.4228575,"endTime":219.87157499999998,"instrument":2,"program":0,"isDrum":false},{"pitch":72,"velocity":122,"startTime":219.4228575,"endTime":219.87157499999998,"instrument":2,"program":0,"isDrum":false},{"pitch":48,"velocity":121,"startTime":219.99978,"endTime":220.08792093749997,"instrument":2,"program":0,"isDrum":false},{"pitch":55,"velocity":117,"startTime":219.99978,"endTime":220.1840746875,"instrument":2,"program":0,"isDrum":false},{"pitch":60,"velocity":123,"startTime":219.99978,"endTime":220.144010625,"instrument":2,"program":0,"isDrum":false},{"pitch":64,"velocity":123,"startTime":219.99978,"endTime":220.08792093749997,"instrument":2,"program":0,"isDrum":false},{"pitch":67,"velocity":123,"startTime":219.99978,"endTime":220.16003625,"instrument":2,"program":0,"isDrum":false},{"pitch":72,"velocity":122,"startTime":219.99978,"endTime":220.15202343750002,"instrument":2,"program":0,"isDrum":false},{"pitch":53,"velocity":122,"startTime":220.19208749999999,"endTime":220.3603565625,"instrument":2,"program":0,"isDrum":false},{"pitch":60,"velocity":121,"startTime":220.19208749999999,"endTime":220.36836937500001,"instrument":2,"program":0,"isDrum":false},{"pitch":65,"velocity":123,"startTime":220.19208749999999,"endTime":220.3202925,"instrument":2,"program":0,"isDrum":false},{"pitch":69,"velocity":123,"startTime":220.19208749999999,"endTime":220.35234375,"instrument":2,"program":0,"isDrum":false},{"pitch":72,"velocity":122,"startTime":220.19208749999999,"endTime":220.336318125,"instrument":2,"program":0,"isDrum":false},{"pitch":53,"velocity":119,"startTime":220.57670249999998,"endTime":220.68888187499996,"instrument":2,"program":0,"isDrum":false},{"pitch":60,"velocity":122,"startTime":220.57670249999998,"endTime":220.6808690625,"instrument":2,"program":0,"isDrum":false},{"pitch":65,"velocity":123,"startTime":220.57670249999998,"endTime":220.656830625,"instrument":2,"program":0,"isDrum":false},{"pitch":69,"velocity":123,"startTime":220.57670249999998,"endTime":220.66484343749997,"instrument":2,"program":0,"isDrum":false},{"pitch":72,"velocity":123,"startTime":220.57670249999998,"endTime":220.6968946875,"instrument":2,"program":0,"isDrum":false},{"pitch":53,"velocity":119,"startTime":220.76900999999998,"endTime":220.92926624999998,"instrument":2,"program":0,"isDrum":false},{"pitch":60,"velocity":119,"startTime":220.76900999999998,"endTime":220.88118937499996,"instrument":2,"program":0,"isDrum":false},{"pitch":65,"velocity":122,"startTime":220.76900999999998,"endTime":220.849138125,"instrument":2,"program":0,"isDrum":false},{"pitch":69,"velocity":123,"startTime":220.76900999999998,"endTime":220.8892021875,"instrument":2,"program":0,"isDrum":false},{"pitch":72,"velocity":122,"startTime":220.76900999999998,"endTime":220.913240625,"instrument":2,"program":0,"isDrum":false},{"pitch":52,"velocity":123,"startTime":220.96131749999998,"endTime":221.073496875,"instrument":2,"program":0,"isDrum":false},{"pitch":59,"velocity":123,"startTime":220.96131749999998,"endTime":221.073496875,"instrument":2,"program":0,"isDrum":false},{"pitch":64,"velocity":123,"startTime":220.96131749999998,"endTime":221.04945843749996,"instrument":2,"program":0,"isDrum":false},{"pitch":68,"velocity":122,"startTime":220.96131749999998,"endTime":221.073496875,"instrument":2,"program":0,"isDrum":false},{"pitch":71,"velocity":123,"startTime":220.96131749999998,"endTime":221.08952250000002,"instrument":2,"program":0,"isDrum":false},{"pitch":52,"velocity":113,"startTime":221.153625,"endTime":221.25779156250002,"instrument":2,"program":0,"isDrum":false},{"pitch":59,"velocity":123,"startTime":221.153625,"endTime":221.25779156250002,"instrument":2,"program":0,"isDrum":false},{"pitch":64,"velocity":121,"startTime":221.153625,"endTime":221.24977875,"instrument":2,"program":0,"isDrum":false},{"pitch":68,"velocity":123,"startTime":221.153625,"endTime":221.2738171875,"instrument":2,"program":0,"isDrum":false},{"pitch":71,"velocity":120,"startTime":221.153625,"endTime":221.265804375,"instrument":2,"program":0,"isDrum":false},{"pitch":52,"velocity":112,"startTime":221.3459325,"endTime":221.4340734375,"instrument":2,"program":0,"isDrum":false},{"pitch":59,"velocity":122,"startTime":221.3459325,"endTime":221.4340734375,"instrument":2,"program":0,"isDrum":false},{"pitch":64,"velocity":123,"startTime":221.3459325,"endTime":221.42606062500002,"instrument":2,"program":0,"isDrum":false},{"pitch":68,"velocity":122,"startTime":221.3459325,"endTime":221.44208625,"instrument":2,"program":0,"isDrum":false},{"pitch":71,"velocity":122,"startTime":221.3459325,"endTime":221.44208625,"instrument":2,"program":0,"isDrum":false},{"pitch":52,"velocity":122,"startTime":221.53824,"endTime":221.65041937499998,"instrument":2,"program":0,"isDrum":false},{"pitch":59,"velocity":123,"startTime":221.53824,"endTime":221.61836812500002,"instrument":2,"program":0,"isDrum":false},{"pitch":64,"velocity":123,"startTime":221.53824,"endTime":221.63439375,"instrument":2,"program":0,"isDrum":false},{"pitch":68,"velocity":123,"startTime":221.53824,"endTime":221.67445781249998,"instrument":2,"program":0,"isDrum":false},{"pitch":71,"velocity":121,"startTime":221.53824,"endTime":221.67445781249998,"instrument":2,"program":0,"isDrum":false},{"pitch":45,"velocity":123,"startTime":221.7305475,"endTime":221.906829375,"instrument":2,"program":0,"isDrum":false},{"pitch":57,"velocity":123,"startTime":221.7305475,"endTime":221.922855,"instrument":2,"program":0,"isDrum":false},{"pitch":64,"velocity":123,"startTime":221.7305475,"endTime":221.906829375,"instrument":2,"program":0,"isDrum":false},{"pitch":69,"velocity":123,"startTime":221.7305475,"endTime":221.8827909375,"instrument":2,"program":0,"isDrum":false},{"pitch":72,"velocity":122,"startTime":221.7305475,"endTime":221.89080374999998,"instrument":2,"program":0,"isDrum":false},{"pitch":45,"velocity":122,"startTime":222.1151625,"endTime":222.20330343749998,"instrument":2,"program":0,"isDrum":false},{"pitch":57,"velocity":123,"startTime":222.1151625,"endTime":222.2433675,"instrument":2,"program":0,"isDrum":false},{"pitch":64,"velocity":123,"startTime":222.1151625,"endTime":222.23535468749998,"instrument":2,"program":0,"isDrum":false},{"pitch":69,"velocity":123,"startTime":222.1151625,"endTime":222.23535468749998,"instrument":2,"program":0,"isDrum":false},{"pitch":72,"velocity":123,"startTime":222.1151625,"endTime":222.259393125,"instrument":2,"program":0,"isDrum":false},{"pitch":48,"velocity":121,"startTime":222.4997775,"endTime":223.64560968749998,"instrument":2,"program":0,"isDrum":false},{"pitch":58,"velocity":123,"startTime":222.4997775,"endTime":223.71772499999997,"instrument":2,"program":0,"isDrum":false},{"pitch":60,"velocity":123,"startTime":222.4997775,"endTime":223.91003249999997,"instrument":2,"program":0,"isDrum":false},{"pitch":64,"velocity":123,"startTime":222.4997775,"endTime":223.9500965625,"instrument":2,"program":0,"isDrum":false},{"pitch":67,"velocity":123,"startTime":222.4997775,"endTime":223.926058125,"instrument":2,"program":0,"isDrum":false},{"pitch":70,"velocity":123,"startTime":222.4997775,"endTime":223.990160625,"instrument":2,"program":0,"isDrum":false},{"pitch":52,"velocity":123,"startTime":224.03823749999998,"endTime":225.22413375,"instrument":2,"program":0,"isDrum":false},{"pitch":58,"velocity":123,"startTime":224.03823749999998,"endTime":225.2641978125,"instrument":2,"program":0,"isDrum":false},{"pitch":60,"velocity":123,"startTime":224.03823749999998,"endTime":225.24817218750002,"instrument":2,"program":0,"isDrum":false},{"pitch":64,"velocity":123,"startTime":224.03823749999998,"endTime":225.1920825,"instrument":2,"program":0,"isDrum":false},{"pitch":67,"velocity":123,"startTime":224.03823749999998,"endTime":225.20810812499997,"instrument":2,"program":0,"isDrum":false},{"pitch":70,"velocity":123,"startTime":224.03823749999998,"endTime":225.256185,"instrument":2,"program":0,"isDrum":false},{"pitch":72,"velocity":123,"startTime":224.03823749999998,"endTime":225.24817218750002,"instrument":2,"program":0,"isDrum":false},{"pitch":55,"velocity":123,"startTime":225.5766975,"endTime":226.75458093749998,"instrument":2,"program":0,"isDrum":false},{"pitch":58,"velocity":123,"startTime":225.5766975,"endTime":226.810670625,"instrument":2,"program":0,"isDrum":false},{"pitch":60,"velocity":123,"startTime":225.5766975,"endTime":226.74656812499998,"instrument":2,"program":0,"isDrum":false},{"pitch":64,"velocity":123,"startTime":225.5766975,"endTime":226.8026578125,"instrument":2,"program":0,"isDrum":false},{"pitch":67,"velocity":123,"startTime":225.5766975,"endTime":226.74656812499998,"instrument":2,"program":0,"isDrum":false},{"pitch":70,"velocity":123,"startTime":225.5766975,"endTime":226.76259375,"instrument":2,"program":0,"isDrum":false},{"pitch":72,"velocity":123,"startTime":225.5766975,"endTime":226.7866321875,"instrument":2,"program":0,"isDrum":false},{"pitch":76,"velocity":123,"startTime":225.5766975,"endTime":226.810670625,"instrument":2,"program":0,"isDrum":false},{"pitch":60,"velocity":123,"startTime":227.11515749999998,"endTime":228.430715625,"instrument":2,"program":0,"isDrum":false},{"pitch":67,"velocity":123,"startTime":227.11515749999998,"endTime":228.42259875,"instrument":2,"program":0,"isDrum":false},{"pitch":70,"velocity":123,"startTime":227.11515749999998,"endTime":228.4266571875,"instrument":2,"program":0,"isDrum":false},{"pitch":72,"velocity":123,"startTime":227.11515749999998,"endTime":228.41042343750001,"instrument":2,"program":0,"isDrum":false},{"pitch":76,"velocity":123,"startTime":227.11515749999998,"endTime":228.414481875,"instrument":2,"program":0,"isDrum":false},{"pitch":82,"velocity":123,"startTime":227.11515749999998,"endTime":228.414481875,"instrument":2,"program":0,"isDrum":false},{"pitch":84,"velocity":123,"startTime":227.11515749999998,"endTime":228.4185403125,"instrument":2,"program":0,"isDrum":false},{"pitch":65,"velocity":123,"startTime":228.4713,"endTime":228.739156875,"instrument":2,"program":0,"isDrum":false},{"pitch":57,"velocity":123,"startTime":228.73104,"endTime":229.0029553125,"instrument":2,"program":0,"isDrum":false},{"pitch":58,"velocity":122,"startTime":228.99078,"endTime":229.2180525,"instrument":2,"program":0,"isDrum":false},{"pitch":59,"velocity":123,"startTime":229.25052,"endTime":229.46155875,"instrument":2,"program":0,"isDrum":false},{"pitch":60,"velocity":122,"startTime":229.51026000000002,"endTime":229.61577937500002,"instrument":2,"program":0,"isDrum":false},{"pitch":62,"velocity":123,"startTime":229.64013,"endTime":229.745649375,"instrument":2,"program":0,"isDrum":false},{"pitch":64,"velocity":123,"startTime":229.77,"endTime":229.891753125,"instrument":2,"program":0,"isDrum":false},{"pitch":65,"velocity":122,"startTime":229.89987,"endTime":229.9972725,"instrument":2,"program":0,"isDrum":false},{"pitch":65,"velocity":122,"startTime":230.02974,"endTime":230.297596875,"instrument":2,"program":0,"isDrum":false},{"pitch":57,"velocity":123,"startTime":230.28948,"endTime":230.56545375000002,"instrument":2,"program":0,"isDrum":false},{"pitch":58,"velocity":122,"startTime":230.54922,"endTime":230.7967846875,"instrument":2,"program":0,"isDrum":false},{"pitch":59,"velocity":123,"startTime":230.80896,"endTime":230.9753559375,"instrument":2,"program":0,"isDrum":false},{"pitch":60,"velocity":123,"startTime":230.93883,"endTime":231.0321740625,"instrument":2,"program":0,"isDrum":false},{"pitch":62,"velocity":123,"startTime":231.0687,"endTime":231.239154375,"instrument":2,"program":0,"isDrum":false},{"pitch":60,"velocity":123,"startTime":231.19857000000002,"endTime":231.53136187500002,"instrument":2,"program":0,"isDrum":false},{"pitch":65,"velocity":123,"startTime":231.58818,"endTime":231.8682121875,"instrument":2,"program":0,"isDrum":false},{"pitch":57,"velocity":123,"startTime":231.84792000000002,"endTime":232.1117184375,"instrument":2,"program":0,"isDrum":false},{"pitch":58,"velocity":122,"startTime":232.10766,"endTime":232.33087406250002,"instrument":2,"program":0,"isDrum":false},{"pitch":59,"velocity":123,"startTime":232.3674,"endTime":232.60278937500001,"instrument":2,"program":0,"isDrum":false},{"pitch":60,"velocity":123,"startTime":232.62714,"endTime":232.7367178125,"instrument":2,"program":0,"isDrum":false},{"pitch":62,"velocity":123,"startTime":232.75701,"endTime":232.8747046875,"instrument":2,"program":0,"isDrum":false},{"pitch":64,"velocity":122,"startTime":232.88688000000002,"endTime":233.057334375,"instrument":2,"program":0,"isDrum":false},{"pitch":65,"velocity":122,"startTime":233.01675,"endTime":233.1100940625,"instrument":2,"program":0,"isDrum":false},{"pitch":67,"velocity":123,"startTime":233.14662,"endTime":233.40636,"instrument":2,"program":0,"isDrum":false},{"pitch":59,"velocity":123,"startTime":233.40636,"endTime":233.68233375,"instrument":2,"program":0,"isDrum":false},{"pitch":60,"velocity":123,"startTime":233.6661,"endTime":233.8893140625,"instrument":2,"program":0,"isDrum":false},{"pitch":61,"velocity":122,"startTime":233.92584,"endTime":234.0273009375,"instrument":2,"program":0,"isDrum":false},{"pitch":62,"velocity":123,"startTime":234.05571,"endTime":234.1734046875,"instrument":2,"program":0,"isDrum":false},{"pitch":64,"velocity":123,"startTime":234.18558000000002,"endTime":234.29109937500002,"instrument":2,"program":0,"isDrum":false},{"pitch":62,"velocity":123,"startTime":234.31545,"endTime":234.4777875,"instrument":2,"program":0,"isDrum":false},{"pitch":60,"velocity":123,"startTime":234.70506,"endTime":236.91285,"instrument":2,"program":0,"isDrum":false},{"pitch":67,"velocity":123,"startTime":234.70506,"endTime":236.709928125,"instrument":2,"program":0,"isDrum":false},{"pitch":72,"velocity":123,"startTime":234.70506,"endTime":236.6165840625,"instrument":2,"program":0,"isDrum":false},{"pitch":60,"velocity":123,"startTime":237.04272,"endTime":237.7772971875,"instrument":2,"program":0,"isDrum":false},{"pitch":65,"velocity":123,"startTime":237.04272,"endTime":237.72859593750002,"instrument":2,"program":0,"isDrum":false},{"pitch":69,"velocity":123,"startTime":237.04272,"endTime":237.7529465625,"instrument":2,"program":0,"isDrum":false},{"pitch":72,"velocity":123,"startTime":237.04272,"endTime":237.68395312500002,"instrument":2,"program":0,"isDrum":false},{"pitch":60,"velocity":123,"startTime":237.82194,"endTime":239.29921125,"instrument":2,"program":0,"isDrum":false},{"pitch":64,"velocity":123,"startTime":237.82194,"endTime":239.242393125,"instrument":2,"program":0,"isDrum":false},{"pitch":67,"velocity":123,"startTime":237.82194,"endTime":239.209925625,"instrument":2,"program":0,"isDrum":false},{"pitch":72,"velocity":123,"startTime":237.82194,"endTime":239.323561875,"instrument":2,"program":0,"isDrum":false},{"pitch":55,"velocity":122,"startTime":239.38038,"endTime":239.53865906250002,"instrument":2,"program":0,"isDrum":false},{"pitch":67,"velocity":123,"startTime":239.38038,"endTime":239.52648375,"instrument":2,"program":0,"isDrum":false},{"pitch":58,"velocity":122,"startTime":239.51025,"endTime":239.65635375,"instrument":2,"program":0,"isDrum":false},{"pitch":70,"velocity":122,"startTime":239.51025,"endTime":239.6198278125,"instrument":2,"program":0,"isDrum":false},{"pitch":60,"velocity":122,"startTime":239.64012,"endTime":239.7253471875,"instrument":2,"program":0,"isDrum":false},{"pitch":72,"velocity":122,"startTime":239.64012,"endTime":239.713171875,"instrument":2,"program":0,"isDrum":false},{"pitch":60,"velocity":117,"startTime":239.76999,"endTime":239.9323275,"instrument":2,"program":0,"isDrum":false},{"pitch":72,"velocity":123,"startTime":239.76999,"endTime":239.9120353125,"instrument":2,"program":0,"isDrum":false},{"pitch":58,"velocity":123,"startTime":239.89986,"endTime":240.037846875,"instrument":2,"program":0,"isDrum":false},{"pitch":70,"velocity":123,"startTime":239.89986,"endTime":239.9932040625,"instrument":2,"program":0,"isDrum":false},{"pitch":63,"velocity":123,"startTime":240.02973,"endTime":240.85765125,"instrument":2,"program":0,"isDrum":false},{"pitch":67,"velocity":123,"startTime":240.02973,"endTime":240.79271625,"instrument":2,"program":0,"isDrum":false},{"pitch":70,"velocity":123,"startTime":240.02973,"endTime":240.85765125,"instrument":2,"program":0,"isDrum":false},{"pitch":75,"velocity":122,"startTime":240.02973,"endTime":240.86576812500002,"instrument":2,"program":0,"isDrum":false},{"pitch":60,"velocity":123,"startTime":240.93882,"endTime":243.20342812500002,"instrument":2,"program":0,"isDrum":false},{"pitch":67,"velocity":123,"startTime":240.93882,"endTime":243.1790775,"instrument":2,"program":0,"isDrum":false},{"pitch":72,"velocity":123,"startTime":240.93882,"endTime":243.16284375,"instrument":2,"program":0,"isDrum":false},{"pitch":53,"velocity":122,"startTime":243.27648,"endTime":243.8243690625,"instrument":2,"program":0,"isDrum":false},{"pitch":60,"velocity":123,"startTime":243.27648,"endTime":243.95829750000001,"instrument":2,"program":0,"isDrum":false},{"pitch":65,"velocity":123,"startTime":243.27648,"endTime":243.8893040625,"instrument":2,"program":0,"isDrum":false},{"pitch":69,"velocity":123,"startTime":243.27648,"endTime":243.950180625,"instrument":2,"program":0,"isDrum":false},{"pitch":72,"velocity":123,"startTime":243.27648,"endTime":243.94206375000002,"instrument":2,"program":0,"isDrum":false},{"pitch":58,"velocity":123,"startTime":244.0557,"endTime":245.6344321875,"instrument":2,"program":0,"isDrum":false},{"pitch":62,"velocity":123,"startTime":244.0557,"endTime":245.48021156250002,"instrument":2,"program":0,"isDrum":false},{"pitch":65,"velocity":123,"startTime":244.0557,"endTime":245.443685625,"instrument":2,"program":0,"isDrum":false},{"pitch":70,"velocity":123,"startTime":244.0557,"endTime":245.5532634375,"instrument":2,"program":0,"isDrum":false},{"pitch":74,"velocity":123,"startTime":244.0557,"endTime":245.492386875,"instrument":2,"program":0,"isDrum":false},{"pitch":55,"velocity":122,"startTime":245.61414000000002,"endTime":247.0711190625,"instrument":2,"program":0,"isDrum":false},{"pitch":62,"velocity":123,"startTime":245.61414000000002,"endTime":247.083294375,"instrument":2,"program":0,"isDrum":false},{"pitch":67,"velocity":123,"startTime":245.61414000000002,"endTime":247.03459312500001,"instrument":2,"program":0,"isDrum":false},{"pitch":70,"velocity":123,"startTime":245.61414000000002,"endTime":247.04676843750002,"instrument":2,"program":0,"isDrum":false},{"pitch":74,"velocity":123,"startTime":245.61414000000002,"endTime":246.92907375000001,"instrument":2,"program":0,"isDrum":false},{"pitch":60,"velocity":123,"startTime":247.17258,"endTime":248.73102,"instrument":2,"program":0,"isDrum":false},{"pitch":64,"velocity":123,"startTime":247.17258,"endTime":248.544331875,"instrument":2,"program":0,"isDrum":false},{"pitch":67,"velocity":123,"startTime":247.17258,"endTime":248.6052084375,"instrument":2,"program":0,"isDrum":false},{"pitch":72,"velocity":123,"startTime":247.17258,"endTime":248.67826031250002,"instrument":2,"program":0,"isDrum":false},{"pitch":76,"velocity":123,"startTime":247.17258,"endTime":248.666085,"instrument":2,"program":0,"isDrum":false},{"pitch":55,"velocity":123,"startTime":248.73102,"endTime":250.2123496875,"instrument":2,"program":0,"isDrum":false},{"pitch":62,"velocity":123,"startTime":248.73102,"endTime":250.248875625,"instrument":2,"program":0,"isDrum":false},{"pitch":65,"velocity":123,"startTime":248.73102,"endTime":250.102771875,"instrument":2,"program":0,"isDrum":false},{"pitch":70,"velocity":123,"startTime":248.73102,"endTime":250.232641875,"instrument":2,"program":0,"isDrum":false},{"pitch":74,"velocity":123,"startTime":248.73102,"endTime":250.21640812500002,"instrument":2,"program":0,"isDrum":false},{"pitch":60,"velocity":123,"startTime":250.28946000000002,"endTime":251.8276078125,"instrument":2,"program":0,"isDrum":false},{"pitch":64,"velocity":123,"startTime":250.28946000000002,"endTime":251.76673125,"instrument":2,"program":0,"isDrum":false},{"pitch":67,"velocity":123,"startTime":250.28946000000002,"endTime":251.72208843750002,"instrument":2,"program":0,"isDrum":false},{"pitch":72,"velocity":123,"startTime":250.28946000000002,"endTime":251.7789065625,"instrument":2,"program":0,"isDrum":false},{"pitch":76,"velocity":123,"startTime":250.28946000000002,"endTime":251.758614375,"instrument":2,"program":0,"isDrum":false},{"pitch":55,"velocity":121,"startTime":251.8479,"endTime":252.602769375,"instrument":2,"program":0,"isDrum":false},{"pitch":62,"velocity":123,"startTime":251.8479,"endTime":252.6149446875,"instrument":2,"program":0,"isDrum":false},{"pitch":65,"velocity":123,"startTime":251.8479,"endTime":252.4039059375,"instrument":2,"program":0,"isDrum":false},{"pitch":70,"velocity":123,"startTime":251.8479,"endTime":252.562185,"instrument":2,"program":0,"isDrum":false},{"pitch":74,"velocity":123,"startTime":251.8479,"endTime":252.57841875,"instrument":2,"program":0,"isDrum":false},{"pitch":60,"velocity":123,"startTime":252.62712,"endTime":253.40634,"instrument":2,"program":0,"isDrum":false},{"pitch":64,"velocity":123,"startTime":252.62712,"endTime":253.35358031250001,"instrument":2,"program":0,"isDrum":false},{"pitch":67,"velocity":123,"startTime":252.62712,"endTime":253.284586875,"instrument":2,"program":0,"isDrum":false},{"pitch":72,"velocity":123,"startTime":252.62712,"endTime":253.3738725,"instrument":2,"program":0,"isDrum":false},{"pitch":76,"velocity":122,"startTime":252.62712,"endTime":253.32517125,"instrument":2,"program":0,"isDrum":false},{"pitch":55,"velocity":123,"startTime":253.40634,"endTime":254.144975625,"instrument":2,"program":0,"isDrum":false},{"pitch":62,"velocity":123,"startTime":253.40634,"endTime":254.1409171875,"instrument":2,"program":0,"isDrum":false},{"pitch":65,"velocity":123,"startTime":253.40634,"endTime":254.015105625,"instrument":2,"program":0,"isDrum":false},{"pitch":70,"velocity":123,"startTime":253.40634,"endTime":254.1246834375,"instrument":2,"program":0,"isDrum":false},{"pitch":74,"velocity":123,"startTime":253.40634,"endTime":254.112508125,"instrument":2,"program":0,"isDrum":false},{"pitch":60,"velocity":123,"startTime":254.18556,"endTime":254.956663125,"instrument":2,"program":0,"isDrum":false},{"pitch":64,"velocity":123,"startTime":254.18556,"endTime":254.8065009375,"instrument":2,"program":0,"isDrum":false},{"pitch":67,"velocity":123,"startTime":254.18556,"endTime":254.85926062500002,"instrument":2,"program":0,"isDrum":false},{"pitch":72,"velocity":123,"startTime":254.18556,"endTime":254.9120203125,"instrument":2,"program":0,"isDrum":false},{"pitch":76,"velocity":121,"startTime":254.18556,"endTime":254.8470853125,"instrument":2,"program":0,"isDrum":false},{"pitch":65,"velocity":123,"startTime":254.96478000000002,"endTime":255.216403125,"instrument":2,"program":0,"isDrum":false},{"pitch":77,"velocity":123,"startTime":254.96478000000002,"endTime":255.216403125,"instrument":2,"program":0,"isDrum":false},{"pitch":57,"velocity":123,"startTime":255.22452,"endTime":255.476143125,"instrument":2,"program":0,"isDrum":false},{"pitch":69,"velocity":123,"startTime":255.22452,"endTime":255.476143125,"instrument":2,"program":0,"isDrum":false},{"pitch":58,"velocity":122,"startTime":255.48426,"endTime":255.73588312500002,"instrument":2,"program":0,"isDrum":false},{"pitch":70,"velocity":122,"startTime":255.48426,"endTime":255.73588312500002,"instrument":2,"program":0,"isDrum":false},{"pitch":59,"velocity":123,"startTime":255.744,"endTime":256.0362075,"instrument":2,"program":0,"isDrum":false},{"pitch":71,"velocity":123,"startTime":255.744,"endTime":256.0362075,"instrument":2,"program":0,"isDrum":false},{"pitch":60,"velocity":120,"startTime":256.00374,"endTime":256.16607750000003,"instrument":2,"program":0,"isDrum":false},{"pitch":72,"velocity":120,"startTime":256.00374,"endTime":256.16607750000003,"instrument":2,"program":0,"isDrum":false},{"pitch":62,"velocity":121,"startTime":256.13361,"endTime":256.2675384375,"instrument":2,"program":0,"isDrum":false},{"pitch":74,"velocity":121,"startTime":256.13361,"endTime":256.2675384375,"instrument":2,"program":0,"isDrum":false},{"pitch":64,"velocity":122,"startTime":256.26348,"endTime":256.4379928125,"instrument":2,"program":0,"isDrum":false},{"pitch":76,"velocity":122,"startTime":256.26348,"endTime":256.4379928125,"instrument":2,"program":0,"isDrum":false},{"pitch":65,"velocity":123,"startTime":256.39335,"endTime":256.4866940625,"instrument":2,"program":0,"isDrum":false},{"pitch":77,"velocity":123,"startTime":256.39335,"endTime":256.4866940625,"instrument":2,"program":0,"isDrum":false},{"pitch":65,"velocity":123,"startTime":256.52322,"endTime":256.774843125,"instrument":2,"program":0,"isDrum":false},{"pitch":77,"velocity":123,"startTime":256.52322,"endTime":256.774843125,"instrument":2,"program":0,"isDrum":false},{"pitch":57,"velocity":123,"startTime":256.78296,"endTime":257.05487531250003,"instrument":2,"program":0,"isDrum":false},{"pitch":69,"velocity":123,"startTime":256.78296,"endTime":257.05487531250003,"instrument":2,"program":0,"isDrum":false},{"pitch":58,"velocity":122,"startTime":257.0427,"endTime":257.2821478125,"instrument":2,"program":0,"isDrum":false},{"pitch":70,"velocity":122,"startTime":257.0427,"endTime":257.2821478125,"instrument":2,"program":0,"isDrum":false},{"pitch":59,"velocity":122,"startTime":257.30244,"endTime":257.4444853125,"instrument":2,"program":0,"isDrum":false},{"pitch":71,"velocity":122,"startTime":257.30244,"endTime":257.4444853125,"instrument":2,"program":0,"isDrum":false},{"pitch":60,"velocity":120,"startTime":257.43231000000003,"endTime":257.5418878125,"instrument":2,"program":0,"isDrum":false},{"pitch":72,"velocity":120,"startTime":257.43231000000003,"endTime":257.5418878125,"instrument":2,"program":0,"isDrum":false},{"pitch":62,"velocity":123,"startTime":257.56218,"endTime":257.700166875,"instrument":2,"program":0,"isDrum":false},{"pitch":74,"velocity":123,"startTime":257.56218,"endTime":257.700166875,"instrument":2,"program":0,"isDrum":false},{"pitch":60,"velocity":123,"startTime":257.69205,"endTime":258.0532509375,"instrument":2,"program":0,"isDrum":false},{"pitch":72,"velocity":123,"startTime":257.69205,"endTime":258.0532509375,"instrument":2,"program":0,"isDrum":false},{"pitch":65,"velocity":123,"startTime":258.08166,"endTime":258.35763375,"instrument":2,"program":0,"isDrum":false},{"pitch":77,"velocity":123,"startTime":258.08166,"endTime":258.35763375,"instrument":2,"program":0,"isDrum":false},{"pitch":57,"velocity":123,"startTime":258.3414,"endTime":258.609256875,"instrument":2,"program":0,"isDrum":false},{"pitch":69,"velocity":123,"startTime":258.3414,"endTime":258.609256875,"instrument":2,"program":0,"isDrum":false},{"pitch":58,"velocity":123,"startTime":258.60114,"endTime":258.8487046875,"instrument":2,"program":0,"isDrum":false},{"pitch":70,"velocity":123,"startTime":258.60114,"endTime":258.8487046875,"instrument":2,"program":0,"isDrum":false},{"pitch":59,"velocity":123,"startTime":258.86088,"endTime":259.1327953125,"instrument":2,"program":0,"isDrum":false},{"pitch":71,"velocity":123,"startTime":258.86088,"endTime":259.1327953125,"instrument":2,"program":0,"isDrum":false},{"pitch":60,"velocity":119,"startTime":259.12062000000003,"endTime":259.25454843750003,"instrument":2,"program":0,"isDrum":false},{"pitch":72,"velocity":119,"startTime":259.12062000000003,"endTime":259.25454843750003,"instrument":2,"program":0,"isDrum":false},{"pitch":62,"velocity":120,"startTime":259.25049,"endTime":259.36412625,"instrument":2,"program":0,"isDrum":false},{"pitch":74,"velocity":120,"startTime":259.25049,"endTime":259.36412625,"instrument":2,"program":0,"isDrum":false},{"pitch":64,"velocity":121,"startTime":259.38036,"endTime":259.5792234375,"instrument":2,"program":0,"isDrum":false},{"pitch":76,"velocity":121,"startTime":259.38036,"endTime":259.5792234375,"instrument":2,"program":0,"isDrum":false},{"pitch":65,"velocity":121,"startTime":259.51023,"endTime":259.599515625,"instrument":2,"program":0,"isDrum":false},{"pitch":77,"velocity":121,"startTime":259.51023,"endTime":259.599515625,"instrument":2,"program":0,"isDrum":false},{"pitch":67,"velocity":123,"startTime":259.6401,"endTime":259.891723125,"instrument":2,"program":0,"isDrum":false},{"pitch":79,"velocity":123,"startTime":259.6401,"endTime":259.891723125,"instrument":2,"program":0,"isDrum":false},{"pitch":59,"velocity":123,"startTime":259.89984,"endTime":260.2285734375,"instrument":2,"program":0,"isDrum":false},{"pitch":71,"velocity":123,"startTime":259.89984,"endTime":260.2285734375,"instrument":2,"program":0,"isDrum":false},{"pitch":60,"velocity":122,"startTime":260.15958,"endTime":260.411203125,"instrument":2,"program":0,"isDrum":false},{"pitch":72,"velocity":122,"startTime":260.15958,"endTime":260.411203125,"instrument":2,"program":0,"isDrum":false},{"pitch":62,"velocity":122,"startTime":260.41932,"endTime":260.6506509375,"instrument":2,"program":0,"isDrum":false},{"pitch":74,"velocity":122,"startTime":260.41932,"endTime":260.6506509375,"instrument":2,"program":0,"isDrum":false},{"pitch":63,"velocity":120,"startTime":260.67906,"endTime":260.800813125,"instrument":2,"program":0,"isDrum":false},{"pitch":75,"velocity":120,"startTime":260.67906,"endTime":260.800813125,"instrument":2,"program":0,"isDrum":false},{"pitch":64,"velocity":123,"startTime":260.80893000000003,"endTime":260.9388,"instrument":2,"program":0,"isDrum":false},{"pitch":76,"velocity":123,"startTime":260.80893000000003,"endTime":260.9388,"instrument":2,"program":0,"isDrum":false},{"pitch":65,"velocity":119,"startTime":260.9388,"endTime":261.03214406250004,"instrument":2,"program":0,"isDrum":false},{"pitch":77,"velocity":119,"startTime":260.9388,"endTime":261.03214406250004,"instrument":2,"program":0,"isDrum":false},{"pitch":67,"velocity":122,"startTime":261.06867,"endTime":261.190423125,"instrument":2,"program":0,"isDrum":false},{"pitch":79,"velocity":122,"startTime":261.06867,"endTime":261.190423125,"instrument":2,"program":0,"isDrum":false},{"pitch":66,"velocity":122,"startTime":261.19854,"endTime":261.368994375,"instrument":2,"program":0,"isDrum":false},{"pitch":78,"velocity":122,"startTime":261.19854,"endTime":261.368994375,"instrument":2,"program":0,"isDrum":false},{"pitch":68,"velocity":122,"startTime":261.32841,"endTime":261.4623384375,"instrument":2,"program":0,"isDrum":false},{"pitch":80,"velocity":122,"startTime":261.32841,"endTime":261.4623384375,"instrument":2,"program":0,"isDrum":false},{"pitch":70,"velocity":123,"startTime":261.45828,"endTime":261.5678578125,"instrument":2,"program":0,"isDrum":false},{"pitch":82,"velocity":123,"startTime":261.45828,"endTime":261.5678578125,"instrument":2,"program":0,"isDrum":false},{"pitch":68,"velocity":122,"startTime":261.71802,"endTime":261.856006875,"instrument":2,"program":0,"isDrum":false},{"pitch":80,"velocity":122,"startTime":261.71802,"endTime":261.856006875,"instrument":2,"program":0,"isDrum":false},{"pitch":70,"velocity":121,"startTime":261.84789,"endTime":261.9899353125,"instrument":2,"program":0,"isDrum":false},{"pitch":82,"velocity":121,"startTime":261.84789,"endTime":261.9899353125,"instrument":2,"program":0,"isDrum":false},{"pitch":72,"velocity":123,"startTime":261.97776,"endTime":262.131980625,"instrument":2,"program":0,"isDrum":false},{"pitch":84,"velocity":123,"startTime":261.97776,"endTime":262.131980625,"instrument":2,"program":0,"isDrum":false},{"pitch":70,"velocity":122,"startTime":262.36737,"endTime":262.4850646875,"instrument":2,"program":0,"isDrum":false},{"pitch":82,"velocity":122,"startTime":262.36737,"endTime":262.4850646875,"instrument":2,"program":0,"isDrum":false},{"pitch":72,"velocity":122,"startTime":262.49724000000003,"endTime":262.6636359375,"instrument":2,"program":0,"isDrum":false},{"pitch":84,"velocity":122,"startTime":262.49724000000003,"endTime":262.6636359375,"instrument":2,"program":0,"isDrum":false},{"pitch":74,"velocity":121,"startTime":262.62711,"endTime":262.7042203125,"instrument":2,"program":0,"isDrum":false},{"pitch":86,"velocity":121,"startTime":262.62711,"endTime":262.7042203125,"instrument":2,"program":0,"isDrum":false},{"pitch":47,"velocity":123,"startTime":262.75698,"endTime":263.966394375,"instrument":2,"program":0,"isDrum":false},{"pitch":59,"velocity":123,"startTime":262.75698,"endTime":263.9785696875,"instrument":2,"program":0,"isDrum":false},{"pitch":66,"velocity":123,"startTime":262.75698,"endTime":263.9461021875,"instrument":2,"program":0,"isDrum":false},{"pitch":71,"velocity":123,"startTime":262.75698,"endTime":263.87710875,"instrument":2,"program":0,"isDrum":false},{"pitch":75,"velocity":123,"startTime":262.75698,"endTime":263.8568165625,"instrument":2,"program":0,"isDrum":false},{"pitch":78,"velocity":123,"startTime":262.75698,"endTime":263.8933425,"instrument":2,"program":0,"isDrum":false},{"pitch":44,"velocity":123,"startTime":264.31542,"endTime":265.557301875,"instrument":2,"program":0,"isDrum":false},{"pitch":56,"velocity":123,"startTime":264.31542,"endTime":265.5532434375,"instrument":2,"program":0,"isDrum":false},{"pitch":63,"velocity":123,"startTime":264.31542,"endTime":265.427431875,"instrument":2,"program":0,"isDrum":false},{"pitch":68,"velocity":123,"startTime":264.31542,"endTime":265.43960718750003,"instrument":2,"program":0,"isDrum":false},{"pitch":72,"velocity":123,"startTime":264.31542,"endTime":265.4152565625,"instrument":2,"program":0,"isDrum":false},{"pitch":75,"velocity":123,"startTime":264.31542,"endTime":265.50048375,"instrument":2,"program":0,"isDrum":false},{"pitch":46,"velocity":123,"startTime":265.87386000000004,"endTime":269.76996,"instrument":2,"program":0,"isDrum":false},{"pitch":58,"velocity":123,"startTime":265.87386000000004,"endTime":269.76996,"instrument":2,"program":0,"isDrum":false},{"pitch":65,"velocity":123,"startTime":265.87386000000004,"endTime":269.76996,"instrument":2,"program":0,"isDrum":false},{"pitch":70,"velocity":123,"startTime":265.87386000000004,"endTime":269.76996,"instrument":2,"program":0,"isDrum":false},{"pitch":74,"velocity":123,"startTime":265.87386000000004,"endTime":269.76996,"instrument":2,"program":0,"isDrum":false},{"pitch":77,"velocity":123,"startTime":265.87386000000004,"endTime":269.76996,"instrument":2,"program":0,"isDrum":false},{"pitch":46,"velocity":115,"startTime":269.964765,"endTime":270.15957000000003,"instrument":2,"program":0,"isDrum":false},{"pitch":58,"velocity":115,"startTime":269.964765,"endTime":270.15957000000003,"instrument":2,"program":0,"isDrum":false},{"pitch":45,"velocity":117,"startTime":270.15957000000003,"endTime":270.354375,"instrument":2,"program":0,"isDrum":false},{"pitch":57,"velocity":117,"startTime":270.15957000000003,"endTime":270.354375,"instrument":2,"program":0,"isDrum":false},{"pitch":46,"velocity":118,"startTime":270.354375,"endTime":270.54918,"instrument":2,"program":0,"isDrum":false},{"pitch":58,"velocity":118,"startTime":270.354375,"endTime":270.54918,"instrument":2,"program":0,"isDrum":false},{"pitch":48,"velocity":119,"startTime":270.54918,"endTime":270.743985,"instrument":2,"program":0,"isDrum":false},{"pitch":60,"velocity":119,"startTime":270.54918,"endTime":270.743985,"instrument":2,"program":0,"isDrum":false},{"pitch":46,"velocity":120,"startTime":270.743985,"endTime":270.93879,"instrument":2,"program":0,"isDrum":false},{"pitch":58,"velocity":120,"startTime":270.743985,"endTime":270.93879,"instrument":2,"program":0,"isDrum":false},{"pitch":50,"velocity":122,"startTime":270.93879,"endTime":271.133595,"instrument":2,"program":0,"isDrum":false},{"pitch":62,"velocity":122,"startTime":270.93879,"endTime":271.133595,"instrument":2,"program":0,"isDrum":false},{"pitch":46,"velocity":123,"startTime":271.133595,"endTime":271.3284,"instrument":2,"program":0,"isDrum":false},{"pitch":58,"velocity":123,"startTime":271.133595,"endTime":271.3284,"instrument":2,"program":0,"isDrum":false},{"pitch":51,"velocity":123,"startTime":271.3284,"endTime":271.523205,"instrument":2,"program":0,"isDrum":false},{"pitch":63,"velocity":123,"startTime":271.3284,"endTime":271.523205,"instrument":2,"program":0,"isDrum":false},{"pitch":46,"velocity":123,"startTime":271.523205,"endTime":271.71801,"instrument":2,"program":0,"isDrum":false},{"pitch":58,"velocity":123,"startTime":271.523205,"endTime":271.71801,"instrument":2,"program":0,"isDrum":false},{"pitch":53,"velocity":123,"startTime":271.71801,"endTime":271.912815,"instrument":2,"program":0,"isDrum":false},{"pitch":65,"velocity":123,"startTime":271.71801,"endTime":271.912815,"instrument":2,"program":0,"isDrum":false},{"pitch":46,"velocity":123,"startTime":271.912815,"endTime":272.10762,"instrument":2,"program":0,"isDrum":false},{"pitch":58,"velocity":123,"startTime":271.912815,"endTime":272.10762,"instrument":2,"program":0,"isDrum":false},{"pitch":51,"velocity":123,"startTime":272.10762,"endTime":272.13967125,"instrument":2,"program":0,"isDrum":false},{"pitch":55,"velocity":123,"startTime":272.10762,"endTime":272.8528115625,"instrument":2,"program":0,"isDrum":false},{"pitch":58,"velocity":123,"startTime":272.10762,"endTime":272.492235,"instrument":2,"program":0,"isDrum":false},{"pitch":63,"velocity":123,"startTime":272.10762,"endTime":272.1316584375,"instrument":2,"program":0,"isDrum":false},{"pitch":67,"velocity":123,"startTime":272.10762,"endTime":272.1316584375,"instrument":2,"program":0,"isDrum":false},{"pitch":75,"velocity":122,"startTime":272.1316584375,"endTime":273.00505499999997,"instrument":2,"program":0,"isDrum":false},{"pitch":63,"velocity":123,"startTime":272.13967125,"endTime":273.01306781249997,"instrument":2,"program":0,"isDrum":false},{"pitch":67,"velocity":123,"startTime":272.13967125,"endTime":273.021080625,"instrument":2,"program":0,"isDrum":false},{"pitch":51,"velocity":123,"startTime":272.1476840625,"endTime":273.0611446875,"instrument":2,"program":0,"isDrum":false},{"pitch":58,"velocity":123,"startTime":272.1476840625,"endTime":272.732619375,"instrument":2,"program":0,"isDrum":false},{"pitch":70,"velocity":123,"startTime":272.1476840625,"endTime":273.0290934375,"instrument":2,"program":0,"isDrum":false},{"pitch":58,"velocity":123,"startTime":272.87685,"endTime":273.0451190625,"instrument":2,"program":0,"isDrum":false},{"pitch":63,"velocity":123,"startTime":273.0691575,"endTime":273.261465,"instrument":2,"program":0,"isDrum":false},{"pitch":67,"velocity":123,"startTime":273.0691575,"endTime":273.2694778125,"instrument":2,"program":0,"isDrum":false},{"pitch":70,"velocity":121,"startTime":273.0691575,"endTime":273.3816571875,"instrument":2,"program":0,"isDrum":false},{"pitch":75,"velocity":122,"startTime":273.0691575,"endTime":273.341593125,"instrument":2,"program":0,"isDrum":false},{"pitch":51,"velocity":122,"startTime":273.261465,"endTime":273.61402875,"instrument":2,"program":0,"isDrum":false},{"pitch":50,"velocity":123,"startTime":273.64608,"endTime":274.5996046875,"instrument":2,"program":0,"isDrum":false},{"pitch":58,"velocity":123,"startTime":273.64608,"endTime":274.110823125,"instrument":2,"program":0,"isDrum":false},{"pitch":62,"velocity":123,"startTime":273.64608,"endTime":274.44736125,"instrument":2,"program":0,"isDrum":false},{"pitch":65,"velocity":123,"startTime":273.64608,"endTime":274.4874253125,"instrument":2,"program":0,"isDrum":false},{"pitch":70,"velocity":123,"startTime":273.64608,"endTime":274.51146375,"instrument":2,"program":0,"isDrum":false},{"pitch":74,"velocity":122,"startTime":273.64608,"endTime":274.4713996875,"instrument":2,"program":0,"isDrum":false},{"pitch":58,"velocity":122,"startTime":274.41531,"endTime":275.02428375,"instrument":2,"program":0,"isDrum":false},{"pitch":62,"velocity":123,"startTime":274.6076175,"endTime":274.92813,"instrument":2,"program":0,"isDrum":false},{"pitch":65,"velocity":123,"startTime":274.6076175,"endTime":274.82396343749997,"instrument":2,"program":0,"isDrum":false},{"pitch":70,"velocity":122,"startTime":274.6076175,"endTime":274.8399890625,"instrument":2,"program":0,"isDrum":false},{"pitch":74,"velocity":120,"startTime":274.6076175,"endTime":274.82396343749997,"instrument":2,"program":0,"isDrum":false},{"pitch":50,"velocity":117,"startTime":274.799925,"endTime":275.040309375,"instrument":2,"program":0,"isDrum":false},{"pitch":48,"velocity":122,"startTime":275.18453999999997,"endTime":275.9938340625,"instrument":2,"program":0,"isDrum":false},{"pitch":55,"velocity":123,"startTime":275.18453999999997,"endTime":275.69736,"instrument":2,"program":0,"isDrum":false},{"pitch":60,"velocity":123,"startTime":275.18453999999997,"endTime":275.969795625,"instrument":2,"program":0,"isDrum":false},{"pitch":63,"velocity":123,"startTime":275.18453999999997,"endTime":276.4425515625,"instrument":2,"program":0,"isDrum":false},{"pitch":67,"velocity":123,"startTime":275.18453999999997,"endTime":276.4105003125,"instrument":2,"program":0,"isDrum":false},{"pitch":72,"velocity":122,"startTime":275.18453999999997,"endTime":276.386461875,"instrument":2,"program":0,"isDrum":false},{"pitch":55,"velocity":123,"startTime":275.95377,"endTime":276.5226796875,"instrument":2,"program":0,"isDrum":false},{"pitch":60,"velocity":120,"startTime":276.1460775,"endTime":276.482615625,"instrument":2,"program":0,"isDrum":false},{"pitch":48,"velocity":118,"startTime":276.338385,"endTime":276.5066540625,"instrument":2,"program":0,"isDrum":false},{"pitch":43,"velocity":123,"startTime":276.723,"endTime":277.476204375,"instrument":2,"program":0,"isDrum":false},{"pitch":55,"velocity":123,"startTime":276.723,"endTime":277.444153125,"instrument":2,"program":0,"isDrum":false},{"pitch":59,"velocity":123,"startTime":276.723,"endTime":277.412101875,"instrument":2,"program":0,"isDrum":false},{"pitch":62,"velocity":123,"startTime":276.723,"endTime":277.540306875,"instrument":2,"program":0,"isDrum":false},{"pitch":67,"velocity":123,"startTime":276.723,"endTime":277.4521659375,"instrument":2,"program":0,"isDrum":false},{"pitch":48,"velocity":123,"startTime":277.49223,"endTime":277.8367809375,"instrument":2,"program":0,"isDrum":false},{"pitch":55,"velocity":123,"startTime":277.49223,"endTime":277.828768125,"instrument":2,"program":0,"isDrum":false},{"pitch":60,"velocity":123,"startTime":277.49223,"endTime":277.84479375,"instrument":2,"program":0,"isDrum":false},{"pitch":63,"velocity":123,"startTime":277.49223,"endTime":277.84479375,"instrument":2,"program":0,"isDrum":false},{"pitch":67,"velocity":123,"startTime":277.49223,"endTime":277.7887040625,"instrument":2,"program":0,"isDrum":false},{"pitch":43,"velocity":123,"startTime":278.26146,"endTime":279.06274125,"instrument":2,"program":0,"isDrum":false},{"pitch":55,"velocity":123,"startTime":278.26146,"endTime":278.99863875,"instrument":2,"program":0,"isDrum":false},{"pitch":59,"velocity":123,"startTime":278.26146,"endTime":278.8624209375,"instrument":2,"program":0,"isDrum":false},{"pitch":62,"velocity":123,"startTime":278.26146,"endTime":279.0547284375,"instrument":2,"program":0,"isDrum":false},{"pitch":67,"velocity":122,"startTime":278.26146,"endTime":279.0066515625,"instrument":2,"program":0,"isDrum":false},{"pitch":48,"velocity":123,"startTime":279.03069,"endTime":279.31915125,"instrument":2,"program":0,"isDrum":false},{"pitch":55,"velocity":123,"startTime":279.03069,"endTime":279.3431896875,"instrument":2,"program":0,"isDrum":false},{"pitch":60,"velocity":123,"startTime":279.03069,"endTime":279.367228125,"instrument":2,"program":0,"isDrum":false},{"pitch":63,"velocity":123,"startTime":279.03069,"endTime":279.4072921875,"instrument":2,"program":0,"isDrum":false},{"pitch":67,"velocity":123,"startTime":279.03069,"endTime":279.4393434375,"instrument":2,"program":0,"isDrum":false},{"pitch":46,"velocity":120,"startTime":279.79992,"endTime":280.5611371875,"instrument":2,"program":0,"isDrum":false},{"pitch":53,"velocity":123,"startTime":279.79992,"endTime":280.5451115625,"instrument":2,"program":0,"isDrum":false},{"pitch":56,"velocity":123,"startTime":279.79992,"endTime":280.4810090625,"instrument":2,"program":0,"isDrum":false},{"pitch":58,"velocity":123,"startTime":279.79992,"endTime":280.4008809375,"instrument":2,"program":0,"isDrum":false},{"pitch":62,"velocity":123,"startTime":279.79992,"endTime":280.53709875,"instrument":2,"program":0,"isDrum":false},{"pitch":65,"velocity":123,"startTime":279.79992,"endTime":280.521073125,"instrument":2,"program":0,"isDrum":false},{"pitch":51,"velocity":123,"startTime":280.56915,"endTime":281.322354375,"instrument":2,"program":0,"isDrum":false},{"pitch":55,"velocity":123,"startTime":280.56915,"endTime":281.322354375,"instrument":2,"program":0,"isDrum":false},{"pitch":58,"velocity":123,"startTime":280.56915,"endTime":281.2662646875,"instrument":2,"program":0,"isDrum":false},{"pitch":63,"velocity":122,"startTime":280.56915,"endTime":281.322354375,"instrument":2,"program":0,"isDrum":false},{"pitch":67,"velocity":123,"startTime":280.56915,"endTime":281.290303125,"instrument":2,"program":0,"isDrum":false},{"pitch":50,"velocity":122,"startTime":281.33838,"endTime":282.9489553125,"instrument":2,"program":0,"isDrum":false},{"pitch":60,"velocity":123,"startTime":281.33838,"endTime":282.7085709375,"instrument":2,"program":0,"isDrum":false},{"pitch":62,"velocity":123,"startTime":281.33838,"endTime":284.4393384375,"instrument":2,"program":0,"isDrum":false},{"pitch":66,"velocity":122,"startTime":281.33838,"endTime":282.1957509375,"instrument":2,"program":0,"isDrum":false},{"pitch":67,"velocity":122,"startTime":282.10761,"endTime":282.4040840625,"instrument":2,"program":0,"isDrum":false},{"pitch":69,"velocity":123,"startTime":282.492225,"endTime":282.748635,"instrument":2,"program":0,"isDrum":false},{"pitch":43,"velocity":122,"startTime":282.87684,"endTime":284.078761875,"instrument":2,"program":0,"isDrum":false},{"pitch":58,"velocity":122,"startTime":282.87684,"endTime":283.7342109375,"instrument":2,"program":0,"isDrum":false},{"pitch":67,"velocity":121,"startTime":282.87684,"endTime":284.4233128125,"instrument":2,"program":0,"isDrum":false},{"pitch":70,"velocity":121,"startTime":282.87684,"endTime":284.44735125,"instrument":2,"program":0,"isDrum":false},{"pitch":50,"velocity":122,"startTime":283.261455,"endTime":284.4153,"instrument":2,"program":0,"isDrum":false},{"pitch":55,"velocity":123,"startTime":283.64607,"endTime":284.431325625,"instrument":2,"program":0,"isDrum":false},{"pitch":58,"velocity":110,"startTime":284.030685,"endTime":284.3752359375,"instrument":2,"program":0,"isDrum":false},{"pitch":44,"velocity":123,"startTime":284.4153,"endTime":286.0098496875,"instrument":2,"program":0,"isDrum":false},{"pitch":51,"velocity":121,"startTime":284.799915,"endTime":285.8656190625,"instrument":2,"program":0,"isDrum":false},{"pitch":56,"velocity":123,"startTime":285.18453,"endTime":285.9617728125,"instrument":2,"program":0,"isDrum":false},{"pitch":60,"velocity":123,"startTime":285.18453,"endTime":285.79350375,"instrument":2,"program":0,"isDrum":false},{"pitch":63,"velocity":123,"startTime":285.18453,"endTime":285.9297215625,"instrument":2,"program":0,"isDrum":false},{"pitch":68,"velocity":120,"startTime":285.18453,"endTime":286.0098496875,"instrument":2,"program":0,"isDrum":false},{"pitch":51,"velocity":122,"startTime":285.95376,"endTime":286.3143365625,"instrument":2,"program":0,"isDrum":false},{"pitch":58,"velocity":117,"startTime":285.95376,"endTime":286.706964375,"instrument":2,"program":0,"isDrum":false},{"pitch":63,"velocity":115,"startTime":285.95376,"endTime":287.059528125,"instrument":2,"program":0,"isDrum":false},{"pitch":67,"velocity":119,"startTime":285.95376,"endTime":286.6989515625,"instrument":2,"program":0,"isDrum":false},{"pitch":51,"velocity":109,"startTime":286.338375,"endTime":287.091579375,"instrument":2,"program":0,"isDrum":false},{"pitch":58,"velocity":115,"startTime":286.72299,"endTime":287.0034384375,"instrument":2,"program":0,"isDrum":false},{"pitch":48,"velocity":122,"startTime":287.49222,"endTime":288.6540778125,"instrument":2,"program":0,"isDrum":false},{"pitch":67,"velocity":123,"startTime":287.49222,"endTime":287.9810015625,"instrument":2,"program":0,"isDrum":false},{"pitch":72,"velocity":122,"startTime":287.49222,"endTime":287.9168990625,"instrument":2,"program":0,"isDrum":false},{"pitch":55,"velocity":117,"startTime":287.87683499999997,"endTime":288.2694628125,"instrument":2,"program":0,"isDrum":false},{"pitch":63,"velocity":120,"startTime":287.87683499999997,"endTime":288.309526875,"instrument":2,"program":0,"isDrum":false},{"pitch":60,"velocity":123,"startTime":288.26144999999997,"endTime":288.63805218749997,"instrument":2,"program":0,"isDrum":false},{"pitch":67,"velocity":123,"startTime":288.26144999999997,"endTime":288.67811625,"instrument":2,"program":0,"isDrum":false},{"pitch":72,"velocity":122,"startTime":288.26144999999997,"endTime":289.078756875,"instrument":2,"program":0,"isDrum":false},{"pitch":55,"velocity":122,"startTime":288.646065,"endTime":289.0066415625,"instrument":2,"program":0,"isDrum":false},{"pitch":63,"velocity":121,"startTime":288.646065,"endTime":289.014654375,"instrument":2,"program":0,"isDrum":false},{"pitch":43,"velocity":121,"startTime":289.03068,"endTime":290.200550625,"instrument":2,"program":0,"isDrum":false},{"pitch":67,"velocity":121,"startTime":289.03068,"endTime":289.4874103125,"instrument":2,"program":0,"isDrum":false},{"pitch":70,"velocity":122,"startTime":289.03068,"endTime":289.623628125,"instrument":2,"program":0,"isDrum":false},{"pitch":50,"velocity":114,"startTime":289.415295,"endTime":289.847986875,"instrument":2,"program":0,"isDrum":false},{"pitch":62,"velocity":116,"startTime":289.415295,"endTime":290.1124096875,"instrument":2,"program":0,"isDrum":false},{"pitch":55,"velocity":122,"startTime":289.79991,"endTime":290.5451015625,"instrument":2,"program":0,"isDrum":false},{"pitch":67,"velocity":123,"startTime":289.79991,"endTime":291.16208812499997,"instrument":2,"program":0,"isDrum":false},{"pitch":70,"velocity":122,"startTime":289.79991,"endTime":290.5931784375,"instrument":2,"program":0,"isDrum":false},{"pitch":50,"velocity":114,"startTime":290.184525,"endTime":290.3367684375,"instrument":2,"program":0,"isDrum":false},{"pitch":62,"velocity":122,"startTime":290.184525,"endTime":290.4329221875,"instrument":2,"program":0,"isDrum":false},{"pitch":48,"velocity":121,"startTime":290.56914,"endTime":291.739010625,"instrument":2,"program":0,"isDrum":false},{"pitch":63,"velocity":123,"startTime":290.56914,"endTime":291.3624084375,"instrument":2,"program":0,"isDrum":false},{"pitch":72,"velocity":122,"startTime":290.56914,"endTime":291.0899728125,"instrument":2,"program":0,"isDrum":false},{"pitch":55,"velocity":119,"startTime":290.953755,"endTime":291.3624084375,"instrument":2,"program":0,"isDrum":false},{"pitch":60,"velocity":123,"startTime":291.33837,"endTime":291.7149721875,"instrument":2,"program":0,"isDrum":false},{"pitch":67,"velocity":123,"startTime":291.33837,"endTime":291.7790746875,"instrument":2,"program":0,"isDrum":false},{"pitch":72,"velocity":122,"startTime":291.33837,"endTime":292.1797153125,"instrument":2,"program":0,"isDrum":false},{"pitch":55,"velocity":121,"startTime":291.722985,"endTime":291.8592028125,"instrument":2,"program":0,"isDrum":false},{"pitch":63,"velocity":121,"startTime":291.722985,"endTime":292.0434975,"instrument":2,"program":0,"isDrum":false},{"pitch":43,"velocity":123,"startTime":292.1076,"endTime":293.2374065625,"instrument":2,"program":0,"isDrum":false},{"pitch":62,"velocity":118,"startTime":292.1076,"endTime":293.42170125,"instrument":2,"program":0,"isDrum":false},{"pitch":67,"velocity":122,"startTime":292.1076,"endTime":293.5418934375,"instrument":2,"program":0,"isDrum":false},{"pitch":70,"velocity":122,"startTime":292.1076,"endTime":293.68612406249997,"instrument":2,"program":0,"isDrum":false},{"pitch":48,"velocity":121,"startTime":293.64606,"endTime":295.28067375,"instrument":2,"program":0,"isDrum":false},{"pitch":63,"velocity":123,"startTime":293.64606,"endTime":295.0643278125,"instrument":2,"program":0,"isDrum":false},{"pitch":67,"velocity":120,"startTime":293.64606,"endTime":294.2470209375,"instrument":2,"program":0,"isDrum":false},{"pitch":72,"velocity":123,"startTime":293.64606,"endTime":294.591571875,"instrument":2,"program":0,"isDrum":false},{"pitch":67,"velocity":18,"startTime":294.41528999999997,"endTime":295.0963790625,"instrument":2,"program":0,"isDrum":false},{"pitch":72,"velocity":18,"startTime":294.79990499999997,"endTime":294.92811,"instrument":2,"program":0,"isDrum":false},{"pitch":44,"velocity":122,"startTime":295.18452,"endTime":298.3175296875,"instrument":2,"program":0,"isDrum":false},{"pitch":56,"velocity":120,"startTime":295.18452,"endTime":298.245414375,"instrument":2,"program":0,"isDrum":false},{"pitch":59,"velocity":123,"startTime":295.18452,"endTime":297.892850625,"instrument":2,"program":0,"isDrum":false},{"pitch":63,"velocity":122,"startTime":295.18452,"endTime":298.07714531249997,"instrument":2,"program":0,"isDrum":false},{"pitch":68,"velocity":122,"startTime":295.18452,"endTime":298.10118375,"instrument":2,"program":0,"isDrum":false},{"pitch":46,"velocity":123,"startTime":298.26144,"endTime":301.31432156249997,"instrument":2,"program":0,"isDrum":false},{"pitch":60,"velocity":123,"startTime":298.26144,"endTime":299.1829134375,"instrument":2,"program":0,"isDrum":false},{"pitch":63,"velocity":122,"startTime":298.26144,"endTime":299.0066315625,"instrument":2,"program":0,"isDrum":false},{"pitch":68,"velocity":123,"startTime":298.26144,"endTime":298.950541875,"instrument":2,"program":0,"isDrum":false},{"pitch":63,"velocity":117,"startTime":299.03067,"endTime":299.431310625,"instrument":2,"program":0,"isDrum":false},{"pitch":68,"velocity":120,"startTime":299.03067,"endTime":299.51945156249997,"instrument":2,"program":0,"isDrum":false},{"pitch":58,"velocity":118,"startTime":299.415285,"endTime":299.8720153125,"instrument":2,"program":0,"isDrum":false},{"pitch":60,"velocity":119,"startTime":299.7999,"endTime":301.226180625,"instrument":2,"program":0,"isDrum":false},{"pitch":63,"velocity":118,"startTime":299.7999,"endTime":301.130026875,"instrument":2,"program":0,"isDrum":false},{"pitch":68,"velocity":118,"startTime":299.7999,"endTime":301.033873125,"instrument":2,"program":0,"isDrum":false},{"pitch":58,"velocity":18,"startTime":300.3768225,"endTime":301.0258603125,"instrument":2,"program":0,"isDrum":false},{"pitch":39,"velocity":117,"startTime":301.33835999999997,"endTime":302.13964125,"instrument":2,"program":0,"isDrum":false},{"pitch":58,"velocity":119,"startTime":301.33835999999997,"endTime":301.722975,"instrument":2,"program":0,"isDrum":false},{"pitch":63,"velocity":121,"startTime":301.33835999999997,"endTime":301.94733375,"instrument":2,"program":0,"isDrum":false},{"pitch":67,"velocity":122,"startTime":301.33835999999997,"endTime":301.979385,"instrument":2,"program":0,"isDrum":false},{"pitch":46,"velocity":119,"startTime":301.722975,"endTime":302.1316284375,"instrument":2,"program":0,"isDrum":false},{"pitch":51,"velocity":122,"startTime":302.10759,"endTime":302.7245765625,"instrument":2,"program":0,"isDrum":false},{"pitch":67,"velocity":123,"startTime":302.10759,"endTime":302.508230625,"instrument":2,"program":0,"isDrum":false},{"pitch":70,"velocity":122,"startTime":302.492205,"endTime":302.924896875,"instrument":2,"program":0,"isDrum":false},{"pitch":56,"velocity":122,"startTime":302.87682,"endTime":304.543485,"instrument":2,"program":0,"isDrum":false},{"pitch":63,"velocity":117,"startTime":302.87682,"endTime":304.5034209375,"instrument":2,"program":0,"isDrum":false},{"pitch":68,"velocity":122,"startTime":302.87682,"endTime":303.35758875,"instrument":2,"program":0,"isDrum":false},{"pitch":72,"velocity":120,"startTime":302.87682,"endTime":303.3175246875,"instrument":2,"program":0,"isDrum":false},{"pitch":70,"velocity":123,"startTime":303.261435,"endTime":303.7021396875,"instrument":2,"program":0,"isDrum":false},{"pitch":74,"velocity":118,"startTime":303.261435,"endTime":303.6540628125,"instrument":2,"program":0,"isDrum":false},{"pitch":68,"velocity":120,"startTime":303.64605,"endTime":304.287075,"instrument":2,"program":0,"isDrum":false},{"pitch":72,"velocity":121,"startTime":303.64605,"endTime":304.4072671875,"instrument":2,"program":0,"isDrum":false},{"pitch":74,"velocity":118,"startTime":304.030665,"endTime":304.44733125,"instrument":2,"program":0,"isDrum":false},{"pitch":55,"velocity":117,"startTime":304.41528,"endTime":305.95374,"instrument":2,"program":0,"isDrum":false},{"pitch":67,"velocity":122,"startTime":304.41528,"endTime":304.912074375,"instrument":2,"program":0,"isDrum":false},{"pitch":70,"velocity":121,"startTime":304.41528,"endTime":304.9361128125,"instrument":2,"program":0,"isDrum":false},{"pitch":63,"velocity":121,"startTime":304.799895,"endTime":305.809509375,"instrument":2,"program":0,"isDrum":false},{"pitch":67,"velocity":121,"startTime":305.18451,"endTime":305.553099375,"instrument":2,"program":0,"isDrum":false},{"pitch":70,"velocity":120,"startTime":305.569125,"endTime":305.95374,"instrument":2,"program":0,"isDrum":false},{"pitch":54,"velocity":121,"startTime":305.95374,"endTime":307.5482896875,"instrument":2,"program":0,"isDrum":false},{"pitch":66,"velocity":122,"startTime":305.95374,"endTime":307.187713125,"instrument":2,"program":0,"isDrum":false},{"pitch":69,"velocity":122,"startTime":305.95374,"endTime":307.1476490625,"instrument":2,"program":0,"isDrum":false},{"pitch":72,"velocity":119,"startTime":305.95374,"endTime":306.39444468749997,"instrument":2,"program":0,"isDrum":false},{"pitch":74,"velocity":117,"startTime":306.338355,"endTime":306.7149571875,"instrument":2,"program":0,"isDrum":false},{"pitch":72,"velocity":117,"startTime":306.72297,"endTime":307.15566187499996,"instrument":2,"program":0,"isDrum":false},{"pitch":74,"velocity":118,"startTime":307.107585,"endTime":307.508225625,"instrument":2,"program":0,"isDrum":false},{"pitch":53,"velocity":120,"startTime":307.4922,"endTime":310.6332225,"instrument":2,"program":0,"isDrum":false},{"pitch":65,"velocity":121,"startTime":307.4922,"endTime":307.9168790625,"instrument":2,"program":0,"isDrum":false},{"pitch":70,"velocity":122,"startTime":307.4922,"endTime":308.3495709375,"instrument":2,"program":0,"isDrum":false},{"pitch":62,"velocity":122,"startTime":307.87681499999997,"endTime":308.58194249999997,"instrument":2,"program":0,"isDrum":false},{"pitch":65,"velocity":116,"startTime":308.26143,"endTime":308.8784165625,"instrument":2,"program":0,"isDrum":false},{"pitch":70,"velocity":120,"startTime":308.646045,"endTime":308.92649343749997,"instrument":2,"program":0,"isDrum":false},{"pitch":61,"velocity":121,"startTime":309.03066,"endTime":310.3046971875,"instrument":2,"program":0,"isDrum":false},{"pitch":65,"velocity":122,"startTime":309.03066,"endTime":310.184505,"instrument":2,"program":0,"isDrum":false},{"pitch":70,"velocity":123,"startTime":309.03066,"endTime":309.5034159375,"instrument":2,"program":0,"isDrum":false},{"pitch":68,"velocity":118,"startTime":309.415275,"endTime":309.687710625,"instrument":2,"program":0,"isDrum":false},{"pitch":68,"velocity":121,"startTime":309.79989,"endTime":310.1925178125,"instrument":2,"program":0,"isDrum":false},{"pitch":67,"velocity":117,"startTime":310.184505,"endTime":310.392838125,"instrument":2,"program":0,"isDrum":false},{"pitch":52,"velocity":115,"startTime":310.56912,"endTime":313.1732840625,"instrument":2,"program":0,"isDrum":false},{"pitch":60,"velocity":117,"startTime":310.56912,"endTime":310.8655940625,"instrument":2,"program":0,"isDrum":false},{"pitch":64,"velocity":115,"startTime":310.56912,"endTime":311.0739271875,"instrument":2,"program":0,"isDrum":false},{"pitch":67,"velocity":121,"startTime":310.56912,"endTime":311.4104653125,"instrument":2,"program":0,"isDrum":false},{"pitch":60,"velocity":114,"startTime":310.953735,"endTime":313.42168125,"instrument":2,"program":0,"isDrum":false},{"pitch":64,"velocity":122,"startTime":311.33835,"endTime":313.67809124999997,"instrument":2,"program":0,"isDrum":false},{"pitch":70,"velocity":117,"startTime":311.722965,"endTime":311.9393109375,"instrument":2,"program":0,"isDrum":false},{"pitch":70,"velocity":120,"startTime":312.10758,"endTime":312.572323125,"instrument":2,"program":0,"isDrum":false},{"pitch":68,"velocity":118,"startTime":312.492195,"endTime":312.748605,"instrument":2,"program":0,"isDrum":false},{"pitch":68,"velocity":115,"startTime":312.87681,"endTime":313.1572584375,"instrument":2,"program":0,"isDrum":false},{"pitch":67,"velocity":115,"startTime":313.261425,"endTime":313.533860625,"instrument":2,"program":0,"isDrum":false},{"pitch":36,"velocity":123,"startTime":313.64603999999997,"endTime":314.046680625,"instrument":2,"program":0,"isDrum":false},{"pitch":48,"velocity":120,"startTime":313.64603999999997,"endTime":315.1845,"instrument":2,"program":0,"isDrum":false},{"pitch":60,"velocity":121,"startTime":313.64603999999997,"endTime":314.030655,"instrument":2,"program":0,"isDrum":false},{"pitch":67,"velocity":123,"startTime":313.64603999999997,"endTime":315.9457171875,"instrument":2,"program":0,"isDrum":false},{"pitch":64,"velocity":122,"startTime":314.030655,"endTime":314.44732125,"instrument":2,"program":0,"isDrum":false},{"pitch":60,"velocity":101,"startTime":314.41526999999996,"endTime":315.09635906249997,"instrument":2,"program":0,"isDrum":false},{"pitch":58,"velocity":122,"startTime":314.799885,"endTime":315.1444359375,"instrument":2,"program":0,"isDrum":false},{"pitch":53,"velocity":123,"startTime":315.1845,"endTime":315.569115,"instrument":2,"program":0,"isDrum":false},{"pitch":57,"velocity":123,"startTime":315.1845,"endTime":315.569115,"instrument":2,"program":0,"isDrum":false},{"pitch":60,"velocity":123,"startTime":315.1845,"endTime":315.569115,"instrument":2,"program":0,"isDrum":false},{"pitch":65,"velocity":123,"startTime":315.1845,"endTime":315.569115,"instrument":2,"program":0,"isDrum":false},{"pitch":48,"velocity":115,"startTime":315.53706375,"endTime":315.937704375,"instrument":2,"program":0,"isDrum":false},{"pitch":53,"velocity":120,"startTime":315.937704375,"endTime":316.4585371875,"instrument":2,"program":0,"isDrum":false},{"pitch":65,"velocity":120,"startTime":315.95373,"endTime":316.7630240625,"instrument":2,"program":0,"isDrum":false},{"pitch":48,"velocity":102,"startTime":316.3784090625,"endTime":316.803088125,"instrument":2,"program":0,"isDrum":false},{"pitch":62,"velocity":118,"startTime":316.7469984375,"endTime":317.2277671875,"instrument":2,"program":0,"isDrum":false},{"pitch":46,"velocity":119,"startTime":316.75501125,"endTime":317.668471875,"instrument":2,"program":0,"isDrum":false},{"pitch":53,"velocity":117,"startTime":316.75501125,"endTime":322.6764796875,"instrument":2,"program":0,"isDrum":false},{"pitch":58,"velocity":122,"startTime":316.75501125,"endTime":317.66045906249997,"instrument":2,"program":0,"isDrum":false},{"pitch":62,"velocity":105,"startTime":317.26783125,"endTime":317.64443343749997,"instrument":2,"program":0,"isDrum":false},{"pitch":57,"velocity":109,"startTime":317.6123821875,"endTime":317.97295875,"instrument":2,"program":0,"isDrum":false},{"pitch":60,"velocity":121,"startTime":317.620395,"endTime":318.0450740625,"instrument":2,"program":0,"isDrum":false},{"pitch":45,"velocity":120,"startTime":317.6284078125,"endTime":318.6700734375,"instrument":2,"program":0,"isDrum":false},{"pitch":60,"velocity":119,"startTime":318.1252021875,"endTime":318.5819325,"instrument":2,"program":0,"isDrum":false},{"pitch":57,"velocity":119,"startTime":318.133215,"endTime":318.48577875,"instrument":2,"program":0,"isDrum":false},{"pitch":59,"velocity":114,"startTime":318.61398375,"endTime":319.9200721875,"instrument":2,"program":0,"isDrum":false},{"pitch":44,"velocity":117,"startTime":318.6219965625,"endTime":320.1284053125,"instrument":2,"program":0,"isDrum":false},{"pitch":56,"velocity":122,"startTime":318.630009375,"endTime":320.008213125,"instrument":2,"program":0,"isDrum":false},{"pitch":65,"velocity":119,"startTime":319.2790471875,"endTime":320.21654624999996,"instrument":2,"program":0,"isDrum":false},{"pitch":55,"velocity":115,"startTime":320.02423875,"endTime":322.6844925,"instrument":2,"program":0,"isDrum":false},{"pitch":43,"velocity":122,"startTime":320.0322515625,"endTime":322.72455656249997,"instrument":2,"program":0,"isDrum":false},{"pitch":58,"velocity":122,"startTime":320.0322515625,"endTime":322.700518125,"instrument":2,"program":0,"isDrum":false},{"pitch":65,"velocity":119,"startTime":320.9296865625,"endTime":322.6764796875,"instrument":2,"program":0,"isDrum":false},{"pitch":41,"velocity":122,"startTime":322.6844925,"endTime":327.2998725,"instrument":2,"program":0,"isDrum":false},{"pitch":53,"velocity":122,"startTime":322.732569375,"endTime":327.540256875,"instrument":2,"program":0,"isDrum":false},{"pitch":57,"velocity":122,"startTime":322.78064625,"endTime":327.58833375,"instrument":2,"program":0,"isDrum":false},{"pitch":60,"velocity":122,"startTime":322.828723125,"endTime":327.44410312499997,"instrument":2,"program":0,"isDrum":false},{"pitch":65,"velocity":123,"startTime":322.8768,"endTime":327.876795,"instrument":2,"program":0,"isDrum":false},{"pitch":39,"velocity":125,"startTime":76.971076875,"endTime":77.9566528125,"instrument":3,"program":33,"isDrum":false},{"pitch":39,"velocity":125,"startTime":78.124921875,"endTime":78.2451140625,"instrument":3,"program":33,"isDrum":false},{"pitch":39,"velocity":125,"startTime":78.509536875,"endTime":79.278766875,"instrument":3,"program":33,"isDrum":false},{"pitch":34,"velocity":125,"startTime":79.278766875,"endTime":80.07203531249999,"instrument":3,"program":33,"isDrum":false},{"pitch":36,"velocity":125,"startTime":80.047996875,"endTime":80.913380625,"instrument":3,"program":33,"isDrum":false},{"pitch":36,"velocity":125,"startTime":81.201841875,"endTime":81.330046875,"instrument":3,"program":33,"isDrum":false},{"pitch":36,"velocity":125,"startTime":81.586456875,"endTime":82.387738125,"instrument":3,"program":33,"isDrum":false},{"pitch":31,"velocity":125,"startTime":82.355686875,"endTime":82.7643403125,"instrument":3,"program":33,"isDrum":false},{"pitch":30,"velocity":125,"startTime":82.740301875,"endTime":83.17299375,"instrument":3,"program":33,"isDrum":false},{"pitch":29,"velocity":125,"startTime":83.124916875,"endTime":84.26273625,"instrument":3,"program":33,"isDrum":false},{"pitch":40,"velocity":125,"startTime":84.278761875,"endTime":84.71145374999999,"instrument":3,"program":33,"isDrum":false},{"pitch":39,"velocity":125,"startTime":84.663376875,"endTime":85.4726709375,"instrument":3,"program":33,"isDrum":false},{"pitch":38,"velocity":125,"startTime":85.43260687499999,"endTime":85.9213884375,"instrument":3,"program":33,"isDrum":false},{"pitch":36,"velocity":119,"startTime":86.009529375,"endTime":86.297990625,"instrument":3,"program":33,"isDrum":false},{"pitch":34,"velocity":125,"startTime":86.201836875,"endTime":87.1874128125,"instrument":3,"program":33,"isDrum":false},{"pitch":34,"velocity":121,"startTime":87.355681875,"endTime":87.53997656249999,"instrument":3,"program":33,"isDrum":false},{"pitch":34,"velocity":125,"startTime":87.740296875,"endTime":87.97266843749999,"instrument":3,"program":33,"isDrum":false},{"pitch":34,"velocity":125,"startTime":88.124911875,"endTime":88.42939874999999,"instrument":3,"program":33,"isDrum":false},{"pitch":34,"velocity":125,"startTime":88.50952687499999,"endTime":88.70183437499999,"instrument":3,"program":33,"isDrum":false},{"pitch":36,"velocity":125,"startTime":88.70183437499999,"endTime":88.894141875,"instrument":3,"program":33,"isDrum":false},{"pitch":38,"velocity":125,"startTime":88.894141875,"endTime":89.27074406249999,"instrument":3,"program":33,"isDrum":false},{"pitch":39,"velocity":125,"startTime":89.26273125,"endTime":89.5752309375,"instrument":3,"program":33,"isDrum":false},{"pitch":39,"velocity":125,"startTime":89.64734625,"endTime":89.823628125,"instrument":3,"program":33,"isDrum":false},{"pitch":39,"velocity":125,"startTime":90.03196125,"endTime":90.2803584375,"instrument":3,"program":33,"isDrum":false},{"pitch":39,"velocity":125,"startTime":90.41657625,"endTime":90.79317843749999,"instrument":3,"program":33,"isDrum":false},{"pitch":38,"velocity":125,"startTime":90.80119125,"endTime":91.0015115625,"instrument":3,"program":33,"isDrum":false},{"pitch":38,"velocity":125,"startTime":91.18580625,"endTime":91.41016499999999,"instrument":3,"program":33,"isDrum":false},{"pitch":38,"velocity":125,"startTime":91.57042125,"endTime":91.77074156249999,"instrument":3,"program":33,"isDrum":false},{"pitch":38,"velocity":125,"startTime":91.95503625,"endTime":92.33965125,"instrument":3,"program":33,"isDrum":false},{"pitch":36,"velocity":125,"startTime":92.355676875,"endTime":92.6281125,"instrument":3,"program":33,"isDrum":false},{"pitch":36,"velocity":125,"startTime":92.740291875,"endTime":92.996701875,"instrument":3,"program":33,"isDrum":false},{"pitch":36,"velocity":125,"startTime":93.124906875,"endTime":93.4854834375,"instrument":3,"program":33,"isDrum":false},{"pitch":31,"velocity":125,"startTime":93.50952187499999,"endTime":93.88612406249999,"instrument":3,"program":33,"isDrum":false},{"pitch":32,"velocity":125,"startTime":93.894136875,"endTime":95.4726609375,"instrument":3,"program":33,"isDrum":false},{"pitch":27,"velocity":125,"startTime":95.432596875,"endTime":99.535156875,"instrument":3,"program":33,"isDrum":false},{"pitch":39,"velocity":125,"startTime":95.432596875,"endTime":99.51913125,"instrument":3,"program":33,"isDrum":false},{"pitch":34,"velocity":125,"startTime":99.9999,"endTime":100.9534246875,"instrument":3,"program":33,"isDrum":false},{"pitch":34,"velocity":122,"startTime":101.169770625,"endTime":101.3220140625,"instrument":3,"program":33,"isDrum":false},{"pitch":34,"velocity":124,"startTime":101.5303471875,"endTime":102.86047406249999,"instrument":3,"program":33,"isDrum":false},{"pitch":34,"velocity":125,"startTime":103.0688071875,"endTime":103.97425499999999,"instrument":3,"program":33,"isDrum":false},{"pitch":34,"velocity":125,"startTime":104.2226521875,"endTime":104.374895625,"instrument":3,"program":33,"isDrum":false},{"pitch":34,"velocity":125,"startTime":104.6072671875,"endTime":105.4085484375,"instrument":3,"program":33,"isDrum":false},{"pitch":29,"velocity":123,"startTime":105.37649718750001,"endTime":106.1457271875,"instrument":3,"program":33,"isDrum":false},{"pitch":34,"velocity":125,"startTime":106.1457271875,"endTime":107.035149375,"instrument":3,"program":33,"isDrum":false},{"pitch":34,"velocity":122,"startTime":107.2995721875,"endTime":107.4598284375,"instrument":3,"program":33,"isDrum":false},{"pitch":34,"velocity":125,"startTime":107.6841871875,"endTime":109.21463437499999,"instrument":3,"program":33,"isDrum":false},{"pitch":31,"velocity":125,"startTime":109.2226471875,"endTime":110.10405656249999,"instrument":3,"program":33,"isDrum":false},{"pitch":31,"velocity":123,"startTime":110.3764921875,"endTime":110.56078687499999,"instrument":3,"program":33,"isDrum":false},{"pitch":31,"velocity":124,"startTime":110.7611071875,"endTime":112.33963124999998,"instrument":3,"program":33,"isDrum":false},{"pitch":36,"velocity":124,"startTime":112.2995671875,"endTime":113.15693812499998,"instrument":3,"program":33,"isDrum":false},{"pitch":36,"velocity":122,"startTime":113.4534121875,"endTime":113.605655625,"instrument":3,"program":33,"isDrum":false},{"pitch":36,"velocity":125,"startTime":113.8380271875,"endTime":114.983859375,"instrument":3,"program":33,"isDrum":false},{"pitch":31,"velocity":123,"startTime":114.99187218750001,"endTime":115.41655124999998,"instrument":3,"program":33,"isDrum":false},{"pitch":36,"velocity":125,"startTime":115.3764871875,"endTime":116.50629375,"instrument":3,"program":33,"isDrum":false},{"pitch":31,"velocity":123,"startTime":116.53033218750001,"endTime":116.746678125,"instrument":3,"program":33,"isDrum":false},{"pitch":30,"velocity":120,"startTime":116.7226396875,"endTime":116.9630240625,"instrument":3,"program":33,"isDrum":false},{"pitch":29,"velocity":125,"startTime":116.9149471875,"endTime":117.67616437499998,"instrument":3,"program":33,"isDrum":false},{"pitch":29,"velocity":125,"startTime":117.6841771875,"endTime":118.4534071875,"instrument":3,"program":33,"isDrum":false},{"pitch":34,"velocity":125,"startTime":118.4534071875,"endTime":119.4229575,"instrument":3,"program":33,"isDrum":false},{"pitch":34,"velocity":121,"startTime":119.60725218750001,"endTime":119.8957134375,"instrument":3,"program":33,"isDrum":false},{"pitch":34,"velocity":125,"startTime":119.9918671875,"endTime":121.490263125,"instrument":3,"program":33,"isDrum":false},{"pitch":31,"velocity":125,"startTime":121.5303271875,"endTime":122.27551875,"instrument":3,"program":33,"isDrum":false},{"pitch":34,"velocity":124,"startTime":122.2995571875,"endTime":122.708210625,"instrument":3,"program":33,"isDrum":false},{"pitch":38,"velocity":122,"startTime":122.6841721875,"endTime":123.08481281249999,"instrument":3,"program":33,"isDrum":false},{"pitch":43,"velocity":125,"startTime":123.0687871875,"endTime":124.21461937499998,"instrument":3,"program":33,"isDrum":false},{"pitch":38,"velocity":125,"startTime":124.2226321875,"endTime":124.6873753125,"instrument":3,"program":33,"isDrum":false},{"pitch":36,"velocity":124,"startTime":124.60724718750001,"endTime":125.769105,"instrument":3,"program":33,"isDrum":false},{"pitch":35,"velocity":125,"startTime":125.7610921875,"endTime":126.1296815625,"instrument":3,"program":33,"isDrum":false},{"pitch":34,"velocity":125,"startTime":126.14570718750001,"endTime":126.93096281249998,"instrument":3,"program":33,"isDrum":false},{"pitch":33,"velocity":125,"startTime":126.9149371875,"endTime":127.6681415625,"instrument":3,"program":33,"isDrum":false},{"pitch":32,"velocity":125,"startTime":127.68416718750001,"endTime":129.26269125,"instrument":3,"program":33,"isDrum":false},{"pitch":31,"velocity":124,"startTime":129.2226271875,"endTime":129.96781875,"instrument":3,"program":33,"isDrum":false},{"pitch":34,"velocity":121,"startTime":129.9918571875,"endTime":130.785125625,"instrument":3,"program":33,"isDrum":false},{"pitch":39,"velocity":125,"startTime":130.7610871875,"endTime":131.44217625,"instrument":3,"program":33,"isDrum":false},{"pitch":39,"velocity":123,"startTime":131.5303171875,"endTime":131.71461187499997,"instrument":3,"program":33,"isDrum":false},{"pitch":39,"velocity":123,"startTime":131.9149321875,"endTime":132.099226875,"instrument":3,"program":33,"isDrum":false},{"pitch":39,"velocity":124,"startTime":132.2995471875,"endTime":132.4998675,"instrument":3,"program":33,"isDrum":false},{"pitch":39,"velocity":123,"startTime":132.6841621875,"endTime":133.0126875,"instrument":3,"program":33,"isDrum":false},{"pitch":38,"velocity":124,"startTime":133.0687771875,"endTime":133.3412128125,"instrument":3,"program":33,"isDrum":false},{"pitch":38,"velocity":123,"startTime":133.45339218750001,"endTime":133.765891875,"instrument":3,"program":33,"isDrum":false},{"pitch":36,"velocity":123,"startTime":133.8380071875,"endTime":134.054353125,"instrument":3,"program":33,"isDrum":false},{"pitch":36,"velocity":122,"startTime":134.2226221875,"endTime":134.37486562499998,"instrument":3,"program":33,"isDrum":false},{"pitch":36,"velocity":123,"startTime":134.6072371875,"endTime":134.9437753125,"instrument":3,"program":33,"isDrum":false},{"pitch":31,"velocity":125,"startTime":134.9918521875,"endTime":135.2482621875,"instrument":3,"program":33,"isDrum":false},{"pitch":36,"velocity":123,"startTime":135.3764671875,"endTime":135.68095406249998,"instrument":3,"program":33,"isDrum":false},{"pitch":36,"velocity":121,"startTime":135.7610821875,"endTime":136.025505,"instrument":3,"program":33,"isDrum":false},{"pitch":36,"velocity":123,"startTime":136.1456971875,"endTime":136.24986375,"instrument":3,"program":33,"isDrum":false},{"pitch":36,"velocity":122,"startTime":136.3380046875,"endTime":136.522299375,"instrument":3,"program":33,"isDrum":false},{"pitch":31,"velocity":122,"startTime":136.53031218750002,"endTime":136.73063249999998,"instrument":3,"program":33,"isDrum":false},{"pitch":30,"velocity":125,"startTime":136.7226196875,"endTime":136.90691437499999,"instrument":3,"program":33,"isDrum":false},{"pitch":29,"velocity":123,"startTime":136.9149271875,"endTime":137.2434525,"instrument":3,"program":33,"isDrum":false},{"pitch":29,"velocity":122,"startTime":137.2995421875,"endTime":137.515888125,"instrument":3,"program":33,"isDrum":false},{"pitch":29,"velocity":120,"startTime":137.6841571875,"endTime":138.00466968749998,"instrument":3,"program":33,"isDrum":false},{"pitch":41,"velocity":125,"startTime":138.0687721875,"endTime":138.22902843749998,"instrument":3,"program":33,"isDrum":false},{"pitch":40,"velocity":125,"startTime":138.2610796875,"endTime":138.477425625,"instrument":3,"program":33,"isDrum":false},{"pitch":39,"velocity":125,"startTime":138.4533871875,"endTime":138.765886875,"instrument":3,"program":33,"isDrum":false},{"pitch":39,"velocity":120,"startTime":138.8380021875,"endTime":139.23063,"instrument":3,"program":33,"isDrum":false},{"pitch":38,"velocity":125,"startTime":139.2226171875,"endTime":139.4950528125,"instrument":3,"program":33,"isDrum":false},{"pitch":38,"velocity":125,"startTime":139.6072321875,"endTime":139.83960374999998,"instrument":3,"program":33,"isDrum":false},{"pitch":36,"velocity":121,"startTime":139.79953968750002,"endTime":139.9918471875,"instrument":3,"program":33,"isDrum":false},{"pitch":34,"velocity":125,"startTime":139.9918471875,"endTime":140.3203725,"instrument":3,"program":33,"isDrum":false},{"pitch":34,"velocity":121,"startTime":140.3764621875,"endTime":140.5687696875,"instrument":3,"program":33,"isDrum":false},{"pitch":34,"velocity":122,"startTime":140.7610771875,"endTime":140.977423125,"instrument":3,"program":33,"isDrum":false},{"pitch":34,"velocity":123,"startTime":141.1456921875,"endTime":141.3379996875,"instrument":3,"program":33,"isDrum":false},{"pitch":34,"velocity":125,"startTime":141.5303071875,"endTime":141.7706915625,"instrument":3,"program":33,"isDrum":false},{"pitch":34,"velocity":125,"startTime":141.9149221875,"endTime":142.131268125,"instrument":3,"program":33,"isDrum":false},{"pitch":34,"velocity":123,"startTime":142.2995371875,"endTime":142.483831875,"instrument":3,"program":33,"isDrum":false},{"pitch":36,"velocity":124,"startTime":142.4918446875,"endTime":142.7001778125,"instrument":3,"program":33,"isDrum":false},{"pitch":38,"velocity":125,"startTime":142.6841521875,"endTime":142.9886390625,"instrument":3,"program":33,"isDrum":false},{"pitch":39,"velocity":122,"startTime":143.06876718750001,"endTime":144.01427906249998,"instrument":3,"program":33,"isDrum":false},{"pitch":39,"velocity":120,"startTime":144.2226121875,"endTime":144.58318875,"instrument":3,"program":33,"isDrum":false},{"pitch":38,"velocity":123,"startTime":144.6072271875,"endTime":145.51267499999997,"instrument":3,"program":33,"isDrum":false},{"pitch":38,"velocity":124,"startTime":145.7610721875,"endTime":146.1456871875,"instrument":3,"program":33,"isDrum":false},{"pitch":36,"velocity":122,"startTime":146.1456871875,"endTime":147.131263125,"instrument":3,"program":33,"isDrum":false},{"pitch":36,"velocity":119,"startTime":147.2995321875,"endTime":147.4437628125,"instrument":3,"program":33,"isDrum":false},{"pitch":36,"velocity":122,"startTime":147.6841471875,"endTime":148.4533771875,"instrument":3,"program":33,"isDrum":false},{"pitch":31,"velocity":122,"startTime":148.4533771875,"endTime":148.8540178125,"instrument":3,"program":33,"isDrum":false},{"pitch":30,"velocity":120,"startTime":148.8379921875,"endTime":149.2386328125,"instrument":3,"program":33,"isDrum":false},{"pitch":29,"velocity":123,"startTime":149.2226071875,"endTime":150.36042656249998,"instrument":3,"program":33,"isDrum":false},{"pitch":41,"velocity":122,"startTime":150.3764521875,"endTime":150.592798125,"instrument":3,"program":33,"isDrum":false},{"pitch":40,"velocity":121,"startTime":150.5687596875,"endTime":150.817156875,"instrument":3,"program":33,"isDrum":false},{"pitch":39,"velocity":123,"startTime":150.7610671875,"endTime":151.490233125,"instrument":3,"program":33,"isDrum":false},{"pitch":38,"velocity":125,"startTime":151.5302971875,"endTime":152.33959124999998,"instrument":3,"program":33,"isDrum":false},{"pitch":34,"velocity":125,"startTime":152.2995271875,"endTime":153.33318,"instrument":3,"program":33,"isDrum":false},{"pitch":34,"velocity":119,"startTime":153.4533721875,"endTime":153.62965406249998,"instrument":3,"program":33,"isDrum":false},{"pitch":34,"velocity":123,"startTime":153.8379871875,"endTime":154.8155503125,"instrument":3,"program":33,"isDrum":false},{"pitch":36,"velocity":121,"startTime":154.7995246875,"endTime":154.999845,"instrument":3,"program":33,"isDrum":false},{"pitch":38,"velocity":124,"startTime":154.9918321875,"endTime":155.400485625,"instrument":3,"program":33,"isDrum":false},{"pitch":39,"velocity":123,"startTime":155.3764471875,"endTime":156.025485,"instrument":3,"program":33,"isDrum":false},{"pitch":39,"velocity":119,"startTime":156.1456771875,"endTime":156.362023125,"instrument":3,"program":33,"isDrum":false},{"pitch":39,"velocity":122,"startTime":156.5302921875,"endTime":156.92292,"instrument":3,"program":33,"isDrum":false},{"pitch":38,"velocity":125,"startTime":156.9149071875,"endTime":157.6360603125,"instrument":3,"program":33,"isDrum":false},{"pitch":38,"velocity":121,"startTime":157.6841371875,"endTime":157.804329375,"instrument":3,"program":33,"isDrum":false},{"pitch":38,"velocity":125,"startTime":158.0687521875,"endTime":158.51746968749998,"instrument":3,"program":33,"isDrum":false},{"pitch":36,"velocity":125,"startTime":158.4533671875,"endTime":159.5431096875,"instrument":3,"program":33,"isDrum":false},{"pitch":31,"velocity":121,"startTime":159.6072121875,"endTime":159.8636221875,"instrument":3,"program":33,"isDrum":false},{"pitch":34,"velocity":122,"startTime":159.7995196875,"endTime":159.97580156249998,"instrument":3,"program":33,"isDrum":false},{"pitch":36,"velocity":124,"startTime":159.9918271875,"endTime":160.76907,"instrument":3,"program":33,"isDrum":false},{"pitch":31,"velocity":122,"startTime":160.7610571875,"endTime":161.1777234375,"instrument":3,"program":33,"isDrum":false},{"pitch":30,"velocity":122,"startTime":161.1456721875,"endTime":161.50624875,"instrument":3,"program":33,"isDrum":false},{"pitch":29,"velocity":124,"startTime":161.5302871875,"endTime":162.6681065625,"instrument":3,"program":33,"isDrum":false},{"pitch":41,"velocity":125,"startTime":162.6841321875,"endTime":162.9084909375,"instrument":3,"program":33,"isDrum":false},{"pitch":40,"velocity":121,"startTime":162.8764396875,"endTime":163.10881124999997,"instrument":3,"program":33,"isDrum":false},{"pitch":39,"velocity":125,"startTime":163.0687471875,"endTime":163.80592593749998,"instrument":3,"program":33,"isDrum":false},{"pitch":38,"velocity":125,"startTime":163.8379771875,"endTime":164.6072071875,"instrument":3,"program":33,"isDrum":false},{"pitch":37,"velocity":125,"startTime":164.6072071875,"endTime":165.56874468750001,"instrument":3,"program":33,"isDrum":false},{"pitch":37,"velocity":123,"startTime":165.56874468750001,"endTime":166.5302821875,"instrument":3,"program":33,"isDrum":false},{"pitch":36,"velocity":125,"startTime":165.8572059375,"endTime":166.1777184375,"instrument":3,"program":33,"isDrum":false},{"pitch":35,"velocity":125,"startTime":166.1456671875,"endTime":166.9148971875,"instrument":3,"program":33,"isDrum":false},{"pitch":34,"velocity":125,"startTime":166.9148971875,"endTime":167.65207593749997,"instrument":3,"program":33,"isDrum":false},{"pitch":33,"velocity":125,"startTime":167.6841271875,"endTime":167.95656281249998,"instrument":3,"program":33,"isDrum":false},{"pitch":37,"velocity":125,"startTime":173.4533521875,"endTime":173.56553156249998,"instrument":3,"program":33,"isDrum":false},{"pitch":37,"velocity":124,"startTime":173.6456596875,"endTime":173.797903125,"instrument":3,"program":33,"isDrum":false},{"pitch":38,"velocity":125,"startTime":173.8379671875,"endTime":174.16649249999998,"instrument":3,"program":33,"isDrum":false},{"pitch":37,"velocity":124,"startTime":174.2225821875,"endTime":174.3187359375,"instrument":3,"program":33,"isDrum":false},{"pitch":37,"velocity":125,"startTime":174.4148896875,"endTime":174.52706906249998,"instrument":3,"program":33,"isDrum":false},{"pitch":38,"velocity":125,"startTime":174.6071971875,"endTime":174.919696875,"instrument":3,"program":33,"isDrum":false},{"pitch":37,"velocity":125,"startTime":174.9918121875,"endTime":175.0879659375,"instrument":3,"program":33,"isDrum":false},{"pitch":37,"velocity":125,"startTime":175.1841196875,"endTime":175.3283503125,"instrument":3,"program":33,"isDrum":false},{"pitch":36,"velocity":123,"startTime":175.3764271875,"endTime":175.496619375,"instrument":3,"program":33,"isDrum":false},{"pitch":36,"velocity":122,"startTime":175.5687346875,"endTime":175.720978125,"instrument":3,"program":33,"isDrum":false},{"pitch":37,"velocity":125,"startTime":175.7610421875,"endTime":175.93732406249998,"instrument":3,"program":33,"isDrum":false},{"pitch":38,"velocity":125,"startTime":176.1456571875,"endTime":176.394054375,"instrument":3,"program":33,"isDrum":false},{"pitch":37,"velocity":125,"startTime":176.5302721875,"endTime":176.71456687499997,"instrument":3,"program":33,"isDrum":false},{"pitch":36,"velocity":125,"startTime":176.9148871875,"endTime":177.035079375,"instrument":3,"program":33,"isDrum":false},{"pitch":36,"velocity":120,"startTime":177.1071946875,"endTime":177.227386875,"instrument":3,"program":33,"isDrum":false},{"pitch":36,"velocity":116,"startTime":177.2995021875,"endTime":177.4597584375,"instrument":3,"program":33,"isDrum":false},{"pitch":31,"velocity":125,"startTime":177.4918096875,"endTime":177.6360403125,"instrument":3,"program":33,"isDrum":false},{"pitch":35,"velocity":125,"startTime":177.6841171875,"endTime":177.8844375,"instrument":3,"program":33,"isDrum":false},{"pitch":35,"velocity":125,"startTime":178.0687321875,"endTime":178.2610396875,"instrument":3,"program":33,"isDrum":false},{"pitch":34,"velocity":125,"startTime":178.4533471875,"endTime":178.6456546875,"instrument":3,"program":33,"isDrum":false},{"pitch":33,"velocity":125,"startTime":178.6456546875,"endTime":178.7738596875,"instrument":3,"program":33,"isDrum":false},{"pitch":32,"velocity":125,"startTime":178.8379621875,"endTime":179.01424406249998,"instrument":3,"program":33,"isDrum":false},{"pitch":31,"velocity":125,"startTime":179.0302696875,"endTime":179.1745003125,"instrument":3,"program":33,"isDrum":false},{"pitch":30,"velocity":125,"startTime":179.2225771875,"endTime":179.4789871875,"instrument":3,"program":33,"isDrum":false},{"pitch":26,"velocity":125,"startTime":179.6071921875,"endTime":179.83956375,"instrument":3,"program":33,"isDrum":false},{"pitch":28,"velocity":125,"startTime":179.6071921875,"endTime":179.663281875,"instrument":3,"program":33,"isDrum":false},{"pitch":31,"velocity":125,"startTime":179.9918071875,"endTime":180.2642428125,"instrument":3,"program":33,"isDrum":false},{"pitch":29,"velocity":125,"startTime":190.3764121875,"endTime":190.63282218749998,"instrument":3,"program":33,"isDrum":false},{"pitch":29,"velocity":125,"startTime":190.7610271875,"endTime":190.84916812499998,"instrument":3,"program":33,"isDrum":false},{"pitch":29,"velocity":124,"startTime":190.9533346875,"endTime":191.0334628125,"instrument":3,"program":33,"isDrum":false},{"pitch":29,"velocity":125,"startTime":191.1456421875,"endTime":191.44211625,"instrument":3,"program":33,"isDrum":false},{"pitch":29,"velocity":125,"startTime":191.5302571875,"endTime":191.810705625,"instrument":3,"program":33,"isDrum":false},{"pitch":29,"velocity":125,"startTime":191.9148721875,"endTime":192.003013125,"instrument":3,"program":33,"isDrum":false},{"pitch":29,"velocity":123,"startTime":192.1071796875,"endTime":192.2033334375,"instrument":3,"program":33,"isDrum":false},{"pitch":29,"velocity":125,"startTime":192.2994871875,"endTime":192.59596125,"instrument":3,"program":33,"isDrum":false},{"pitch":29,"velocity":125,"startTime":192.6841021875,"endTime":192.78826875,"instrument":3,"program":33,"isDrum":false},{"pitch":29,"velocity":122,"startTime":192.8764096875,"endTime":193.00461468749998,"instrument":3,"program":33,"isDrum":false},{"pitch":29,"velocity":125,"startTime":193.0687171875,"endTime":193.42929375,"instrument":3,"program":33,"isDrum":false},{"pitch":34,"velocity":125,"startTime":193.4533321875,"endTime":193.7417934375,"instrument":3,"program":33,"isDrum":false},{"pitch":34,"velocity":125,"startTime":193.8379471875,"endTime":193.9661521875,"instrument":3,"program":33,"isDrum":false},{"pitch":34,"velocity":119,"startTime":194.0302546875,"endTime":194.1905109375,"instrument":3,"program":33,"isDrum":false},{"pitch":33,"velocity":125,"startTime":194.2225621875,"endTime":194.47897218749998,"instrument":3,"program":33,"isDrum":false},{"pitch":33,"velocity":125,"startTime":194.60717718749999,"endTime":194.7193565625,"instrument":3,"program":33,"isDrum":false},{"pitch":33,"velocity":123,"startTime":194.7994846875,"endTime":194.951728125,"instrument":3,"program":33,"isDrum":false},{"pitch":31,"velocity":125,"startTime":194.9917921875,"endTime":195.304291875,"instrument":3,"program":33,"isDrum":false},{"pitch":31,"velocity":123,"startTime":195.3764071875,"endTime":195.464548125,"instrument":3,"program":33,"isDrum":false},{"pitch":31,"velocity":123,"startTime":195.5687146875,"endTime":195.769035,"instrument":3,"program":33,"isDrum":false},{"pitch":36,"velocity":125,"startTime":195.7610221875,"endTime":196.0494834375,"instrument":3,"program":33,"isDrum":false},{"pitch":37,"velocity":118,"startTime":198.06871218749998,"endTime":198.18890437499996,"instrument":3,"program":33,"isDrum":false},{"pitch":37,"velocity":106,"startTime":198.26101968749998,"endTime":198.42928874999998,"instrument":3,"program":33,"isDrum":false},{"pitch":36,"velocity":121,"startTime":198.45332718749998,"endTime":198.59755781249999,"instrument":3,"program":33,"isDrum":false},{"pitch":35,"velocity":116,"startTime":198.83794218749998,"endTime":198.9340959375,"instrument":3,"program":33,"isDrum":false},{"pitch":35,"velocity":111,"startTime":199.03024968749997,"endTime":199.19851874999998,"instrument":3,"program":33,"isDrum":false},{"pitch":36,"velocity":118,"startTime":199.22255718749997,"endTime":199.41486468749997,"instrument":3,"program":33,"isDrum":false},{"pitch":37,"velocity":118,"startTime":199.60717218749997,"endTime":199.6792875,"instrument":3,"program":33,"isDrum":false},{"pitch":37,"velocity":118,"startTime":199.79947968749997,"endTime":199.91967187499998,"instrument":3,"program":33,"isDrum":false},{"pitch":36,"velocity":117,"startTime":199.99178718749997,"endTime":200.11197937499998,"instrument":3,"program":33,"isDrum":false},{"pitch":36,"velocity":114,"startTime":200.18409468749996,"endTime":200.3764021875,"instrument":3,"program":33,"isDrum":false},{"pitch":35,"velocity":120,"startTime":200.3764021875,"endTime":200.71294031249997,"instrument":3,"program":33,"isDrum":false},{"pitch":36,"velocity":125,"startTime":200.7610171875,"endTime":200.92127343750002,"instrument":3,"program":33,"isDrum":false},{"pitch":29,"velocity":125,"startTime":201.14563218749998,"endTime":201.31390125,"instrument":3,"program":33,"isDrum":false},{"pitch":36,"velocity":125,"startTime":201.53024718749998,"endTime":201.73056749999998,"instrument":3,"program":33,"isDrum":false},{"pitch":29,"velocity":125,"startTime":201.91486218749998,"endTime":202.46774624999998,"instrument":3,"program":33,"isDrum":false},{"pitch":41,"velocity":125,"startTime":201.91486218749998,"endTime":202.42768218749998,"instrument":3,"program":33,"isDrum":false},{"pitch":29,"velocity":125,"startTime":203.6456296875,"endTime":203.74979625,"instrument":3,"program":33,"isDrum":false},{"pitch":41,"velocity":125,"startTime":203.6456296875,"endTime":203.74979625,"instrument":3,"program":33,"isDrum":false},{"pitch":29,"velocity":124,"startTime":203.8379371875,"endTime":203.94210375,"instrument":3,"program":33,"isDrum":false},{"pitch":41,"velocity":125,"startTime":203.8379371875,"endTime":203.93409093749997,"instrument":3,"program":33,"isDrum":false},{"pitch":29,"velocity":125,"startTime":204.0302446875,"endTime":204.6231928125,"instrument":3,"program":33,"isDrum":false},{"pitch":41,"velocity":125,"startTime":204.0302446875,"endTime":204.4949878125,"instrument":3,"program":33,"isDrum":false},{"pitch":36,"velocity":125,"startTime":204.60716718749998,"endTime":204.79947468749998,"instrument":3,"program":33,"isDrum":false},{"pitch":29,"velocity":125,"startTime":204.99178218749998,"endTime":205.18408968749998,"instrument":3,"program":33,"isDrum":false},{"pitch":41,"velocity":125,"startTime":204.99178218749998,"endTime":205.23216656249997,"instrument":3,"program":33,"isDrum":false},{"pitch":36,"velocity":125,"startTime":205.37639718749998,"endTime":205.5526790625,"instrument":3,"program":33,"isDrum":false},{"pitch":29,"velocity":125,"startTime":205.76101218749997,"endTime":206.297870625,"instrument":3,"program":33,"isDrum":false},{"pitch":41,"velocity":125,"startTime":205.76101218749997,"endTime":206.28985781249997,"instrument":3,"program":33,"isDrum":false},{"pitch":29,"velocity":123,"startTime":207.49177968749999,"endTime":207.58793343749997,"instrument":3,"program":33,"isDrum":false},{"pitch":41,"velocity":125,"startTime":207.49177968749999,"endTime":207.58793343749997,"instrument":3,"program":33,"isDrum":false},{"pitch":29,"velocity":124,"startTime":207.68408718749998,"endTime":207.78024093749997,"instrument":3,"program":33,"isDrum":false},{"pitch":41,"velocity":125,"startTime":207.68408718749998,"endTime":207.78024093749997,"instrument":3,"program":33,"isDrum":false},{"pitch":29,"velocity":125,"startTime":207.87639468749998,"endTime":208.14081749999997,"instrument":3,"program":33,"isDrum":false},{"pitch":41,"velocity":125,"startTime":207.87639468749998,"endTime":208.16485593749996,"instrument":3,"program":33,"isDrum":false},{"pitch":29,"velocity":125,"startTime":209.03023968749997,"endTime":209.13440624999998,"instrument":3,"program":33,"isDrum":false},{"pitch":41,"velocity":125,"startTime":209.03023968749997,"endTime":209.1424190625,"instrument":3,"program":33,"isDrum":false},{"pitch":29,"velocity":125,"startTime":209.22254718749997,"endTime":209.32671374999998,"instrument":3,"program":33,"isDrum":false},{"pitch":41,"velocity":125,"startTime":209.22254718749997,"endTime":209.31870093749998,"instrument":3,"program":33,"isDrum":false},{"pitch":29,"velocity":125,"startTime":209.41485468749997,"endTime":209.74338,"instrument":3,"program":33,"isDrum":false},{"pitch":41,"velocity":125,"startTime":209.41485468749997,"endTime":209.72735437499998,"instrument":3,"program":33,"isDrum":false},{"pitch":43,"velocity":125,"startTime":213.2610046875,"endTime":213.5654915625,"instrument":3,"program":33,"isDrum":false},{"pitch":41,"velocity":125,"startTime":213.6616453125,"endTime":213.974145,"instrument":3,"program":33,"isDrum":false},{"pitch":38,"velocity":125,"startTime":214.03023468749998,"endTime":214.27061906249997,"instrument":3,"program":33,"isDrum":false},{"pitch":35,"velocity":125,"startTime":214.41484968749998,"endTime":214.70331093749996,"instrument":3,"program":33,"isDrum":false},{"pitch":32,"velocity":125,"startTime":214.79946468749998,"endTime":215.06388749999996,"instrument":3,"program":33,"isDrum":false},{"pitch":31,"velocity":125,"startTime":215.176066875,"endTime":215.42446406249996,"instrument":3,"program":33,"isDrum":false},{"pitch":36,"velocity":98,"startTime":215.56869468749997,"endTime":215.9372840625,"instrument":3,"program":33,"isDrum":false},{"pitch":24,"velocity":125,"startTime":215.5847203125,"endTime":215.76100218749997,"instrument":3,"program":33,"isDrum":false},{"pitch":43,"velocity":121,"startTime":217.49176968749998,"endTime":217.579910625,"instrument":3,"program":33,"isDrum":false},{"pitch":43,"velocity":123,"startTime":217.68407718749998,"endTime":217.78824375,"instrument":3,"program":33,"isDrum":false},{"pitch":45,"velocity":121,"startTime":217.87638468749998,"endTime":217.98055125,"instrument":3,"program":33,"isDrum":false},{"pitch":43,"velocity":122,"startTime":218.06869218749998,"endTime":218.15683312500002,"instrument":3,"program":33,"isDrum":false},{"pitch":41,"velocity":125,"startTime":218.26099968749998,"endTime":218.34914062500002,"instrument":3,"program":33,"isDrum":false},{"pitch":40,"velocity":122,"startTime":218.45330718749997,"endTime":218.55747374999999,"instrument":3,"program":33,"isDrum":false},{"pitch":38,"velocity":121,"startTime":218.64561468749997,"endTime":218.9501015625,"instrument":3,"program":33,"isDrum":false},{"pitch":36,"velocity":123,"startTime":219.41484468749996,"endTime":219.887600625,"instrument":3,"program":33,"isDrum":false},{"pitch":38,"velocity":110,"startTime":219.41484468749996,"endTime":219.502985625,"instrument":3,"program":33,"isDrum":false},{"pitch":36,"velocity":122,"startTime":219.9917671875,"endTime":220.1680490625,"instrument":3,"program":33,"isDrum":false},{"pitch":33,"velocity":121,"startTime":220.1840746875,"endTime":220.560676875,"instrument":3,"program":33,"isDrum":false},{"pitch":33,"velocity":120,"startTime":220.56868968749998,"endTime":220.656830625,"instrument":3,"program":33,"isDrum":false},{"pitch":33,"velocity":118,"startTime":220.76099718749998,"endTime":220.86516375,"instrument":3,"program":33,"isDrum":false},{"pitch":35,"velocity":124,"startTime":220.95330468749998,"endTime":221.4020221875,"instrument":3,"program":33,"isDrum":false},{"pitch":35,"velocity":124,"startTime":221.53022718749997,"endTime":221.666445,"instrument":3,"program":33,"isDrum":false},{"pitch":40,"velocity":123,"startTime":221.72253468749997,"endTime":222.179265,"instrument":3,"program":33,"isDrum":false},{"pitch":40,"velocity":123,"startTime":222.29945718749997,"endTime":222.4757390625,"instrument":3,"program":33,"isDrum":false},{"pitch":36,"velocity":123,"startTime":222.49176468749997,"endTime":223.50939187499998,"instrument":3,"program":33,"isDrum":false},{"pitch":36,"velocity":123,"startTime":223.64560968749998,"endTime":223.9020196875,"instrument":3,"program":33,"isDrum":false},{"pitch":36,"velocity":122,"startTime":224.03022468749998,"endTime":225.28022343749998,"instrument":3,"program":33,"isDrum":false},{"pitch":36,"velocity":122,"startTime":225.37637718749997,"endTime":225.48054374999998,"instrument":3,"program":33,"isDrum":false},{"pitch":36,"velocity":123,"startTime":225.56868468749997,"endTime":225.76099218749997,"instrument":3,"program":33,"isDrum":false},{"pitch":41,"velocity":125,"startTime":228.4672415625,"endTime":228.722923125,"instrument":3,"program":33,"isDrum":false},{"pitch":33,"velocity":124,"startTime":228.72698156250001,"endTime":228.9583125,"instrument":3,"program":33,"isDrum":false},{"pitch":34,"velocity":124,"startTime":228.9867215625,"endTime":229.2302278125,"instrument":3,"program":33,"isDrum":false},{"pitch":35,"velocity":125,"startTime":229.2464615625,"endTime":229.5143184375,"instrument":3,"program":33,"isDrum":false},{"pitch":36,"velocity":124,"startTime":229.5062015625,"endTime":229.65636375,"instrument":3,"program":33,"isDrum":false},{"pitch":38,"velocity":119,"startTime":229.6360715625,"endTime":229.75376625,"instrument":3,"program":33,"isDrum":false},{"pitch":40,"velocity":120,"startTime":229.76594156250002,"endTime":229.8674025,"instrument":3,"program":33,"isDrum":false},{"pitch":41,"velocity":123,"startTime":229.8958115625,"endTime":229.964805,"instrument":3,"program":33,"isDrum":false},{"pitch":41,"velocity":124,"startTime":230.0256815625,"endTime":230.30977218750002,"instrument":3,"program":33,"isDrum":false},{"pitch":33,"velocity":124,"startTime":230.2854215625,"endTime":230.589804375,"instrument":3,"program":33,"isDrum":false},{"pitch":34,"velocity":121,"startTime":230.5451615625,"endTime":230.744025,"instrument":3,"program":33,"isDrum":false},{"pitch":35,"velocity":121,"startTime":230.8049015625,"endTime":230.9266546875,"instrument":3,"program":33,"isDrum":false},{"pitch":36,"velocity":118,"startTime":230.9347715625,"endTime":231.0402909375,"instrument":3,"program":33,"isDrum":false},{"pitch":38,"velocity":118,"startTime":231.06464156250001,"endTime":231.190453125,"instrument":3,"program":33,"isDrum":false},{"pitch":36,"velocity":124,"startTime":231.1945115625,"endTime":231.60441375,"instrument":3,"program":33,"isDrum":false},{"pitch":41,"velocity":125,"startTime":231.5841215625,"endTime":231.84792000000002,"instrument":3,"program":33,"isDrum":false},{"pitch":33,"velocity":123,"startTime":231.8438615625,"endTime":232.1117184375,"instrument":3,"program":33,"isDrum":false},{"pitch":34,"velocity":124,"startTime":232.10360156250002,"endTime":232.3552246875,"instrument":3,"program":33,"isDrum":false},{"pitch":35,"velocity":125,"startTime":232.3633415625,"endTime":232.60278937500001,"instrument":3,"program":33,"isDrum":false},{"pitch":36,"velocity":122,"startTime":232.6230815625,"endTime":232.765126875,"instrument":3,"program":33,"isDrum":false},{"pitch":38,"velocity":122,"startTime":232.75295156250002,"endTime":232.862529375,"instrument":3,"program":33,"isDrum":false},{"pitch":40,"velocity":122,"startTime":232.8828215625,"endTime":232.976165625,"instrument":3,"program":33,"isDrum":false},{"pitch":41,"velocity":119,"startTime":233.0126915625,"endTime":233.089801875,"instrument":3,"program":33,"isDrum":false},{"pitch":43,"velocity":125,"startTime":233.1425615625,"endTime":233.4023015625,"instrument":3,"program":33,"isDrum":false},{"pitch":35,"velocity":125,"startTime":233.4023015625,"endTime":233.7350934375,"instrument":3,"program":33,"isDrum":false},{"pitch":36,"velocity":121,"startTime":233.6620415625,"endTime":233.85278812500002,"instrument":3,"program":33,"isDrum":false},{"pitch":37,"velocity":119,"startTime":233.9217815625,"endTime":234.03947625,"instrument":3,"program":33,"isDrum":false},{"pitch":38,"velocity":122,"startTime":234.0516515625,"endTime":234.1531125,"instrument":3,"program":33,"isDrum":false},{"pitch":40,"velocity":122,"startTime":234.1815215625,"endTime":234.31545,"instrument":3,"program":33,"isDrum":false},{"pitch":38,"velocity":125,"startTime":234.3113915625,"endTime":234.6766509375,"instrument":3,"program":33,"isDrum":false},{"pitch":36,"velocity":125,"startTime":234.7010015625,"endTime":234.8673975,"instrument":3,"program":33,"isDrum":false},{"pitch":36,"velocity":119,"startTime":234.9607415625,"endTime":235.02973500000002,"instrument":3,"program":33,"isDrum":false},{"pitch":36,"velocity":120,"startTime":235.09061156250002,"endTime":235.2935334375,"instrument":3,"program":33,"isDrum":false},{"pitch":36,"velocity":104,"startTime":235.3503515625,"endTime":235.3990528125,"instrument":3,"program":33,"isDrum":false},{"pitch":36,"velocity":114,"startTime":235.4802215625,"endTime":235.6750265625,"instrument":3,"program":33,"isDrum":false},{"pitch":36,"velocity":119,"startTime":235.7399615625,"endTime":235.7886628125,"instrument":3,"program":33,"isDrum":false},{"pitch":36,"velocity":122,"startTime":235.8698315625,"endTime":236.076811875,"instrument":3,"program":33,"isDrum":false},{"pitch":36,"velocity":110,"startTime":236.12957156250002,"endTime":236.1863896875,"instrument":3,"program":33,"isDrum":false},{"pitch":36,"velocity":116,"startTime":236.2594415625,"endTime":236.44207125,"instrument":3,"program":33,"isDrum":false},{"pitch":36,"velocity":120,"startTime":236.5191815625,"endTime":236.588175,"instrument":3,"program":33,"isDrum":false},{"pitch":36,"velocity":121,"startTime":236.6490515625,"endTime":236.791096875,"instrument":3,"program":33,"isDrum":false},{"pitch":36,"velocity":116,"startTime":236.9087915625,"endTime":237.0305446875,"instrument":3,"program":33,"isDrum":false},{"pitch":29,"velocity":125,"startTime":237.0386615625,"endTime":237.375511875,"instrument":3,"program":33,"isDrum":false},{"pitch":29,"velocity":125,"startTime":237.42827156250002,"endTime":237.7935309375,"instrument":3,"program":33,"isDrum":false},{"pitch":36,"velocity":123,"startTime":237.8178815625,"endTime":237.9802190625,"instrument":3,"program":33,"isDrum":false},{"pitch":36,"velocity":111,"startTime":238.0776215625,"endTime":238.15067343750002,"instrument":3,"program":33,"isDrum":false},{"pitch":36,"velocity":112,"startTime":238.2074915625,"endTime":238.3373615625,"instrument":3,"program":33,"isDrum":false},{"pitch":36,"velocity":121,"startTime":238.4672315625,"endTime":238.55245875,"instrument":3,"program":33,"isDrum":false},{"pitch":36,"velocity":115,"startTime":238.5971015625,"endTime":238.78378968750002,"instrument":3,"program":33,"isDrum":false},{"pitch":36,"velocity":114,"startTime":238.8568415625,"endTime":238.925835,"instrument":3,"program":33,"isDrum":false},{"pitch":36,"velocity":119,"startTime":238.9867115625,"endTime":239.1733996875,"instrument":3,"program":33,"isDrum":false},{"pitch":36,"velocity":110,"startTime":239.2464515625,"endTime":239.38849687500002,"instrument":3,"program":33,"isDrum":false},{"pitch":31,"velocity":120,"startTime":239.3763215625,"endTime":239.4737240625,"instrument":3,"program":33,"isDrum":false},{"pitch":34,"velocity":120,"startTime":239.5061915625,"endTime":239.6035940625,"instrument":3,"program":33,"isDrum":false},{"pitch":36,"velocity":114,"startTime":239.6360615625,"endTime":239.7009965625,"instrument":3,"program":33,"isDrum":false},{"pitch":36,"velocity":124,"startTime":239.76593156250001,"endTime":239.891743125,"instrument":3,"program":33,"isDrum":false},{"pitch":34,"velocity":123,"startTime":239.8958015625,"endTime":239.98102875,"instrument":3,"program":33,"isDrum":false},{"pitch":39,"velocity":125,"startTime":240.0256715625,"endTime":240.69531375,"instrument":3,"program":33,"isDrum":false},{"pitch":34,"velocity":123,"startTime":240.6750215625,"endTime":240.7643071875,"instrument":3,"program":33,"isDrum":false},{"pitch":35,"velocity":121,"startTime":240.80489156250002,"endTime":240.8941771875,"instrument":3,"program":33,"isDrum":false},{"pitch":36,"velocity":120,"startTime":240.9347615625,"endTime":241.125508125,"instrument":3,"program":33,"isDrum":false},{"pitch":36,"velocity":116,"startTime":241.1945015625,"endTime":241.239144375,"instrument":3,"program":33,"isDrum":false},{"pitch":36,"velocity":119,"startTime":241.3243715625,"endTime":241.5110596875,"instrument":3,"program":33,"isDrum":false},{"pitch":36,"velocity":111,"startTime":241.5841115625,"endTime":241.66528031250002,"instrument":3,"program":33,"isDrum":false},{"pitch":36,"velocity":113,"startTime":241.7139815625,"endTime":241.89661125,"instrument":3,"program":33,"isDrum":false},{"pitch":36,"velocity":115,"startTime":241.9737215625,"endTime":242.0467734375,"instrument":3,"program":33,"isDrum":false},{"pitch":36,"velocity":114,"startTime":242.10359156250001,"endTime":242.2050525,"instrument":3,"program":33,"isDrum":false},{"pitch":34,"velocity":119,"startTime":242.2334615625,"endTime":242.3065134375,"instrument":3,"program":33,"isDrum":false},{"pitch":35,"velocity":112,"startTime":242.3633315625,"endTime":242.42014968750001,"instrument":3,"program":33,"isDrum":false},{"pitch":36,"velocity":123,"startTime":242.49320156250002,"endTime":242.6798896875,"instrument":3,"program":33,"isDrum":false},{"pitch":36,"velocity":112,"startTime":242.7529415625,"endTime":242.830051875,"instrument":3,"program":33,"isDrum":false},{"pitch":36,"velocity":116,"startTime":242.8828115625,"endTime":243.0694996875,"instrument":3,"program":33,"isDrum":false},{"pitch":36,"velocity":122,"startTime":243.14255156250002,"endTime":243.2561878125,"instrument":3,"program":33,"isDrum":false},{"pitch":29,"velocity":123,"startTime":243.2724215625,"endTime":243.471285,"instrument":3,"program":33,"isDrum":false},{"pitch":29,"velocity":119,"startTime":243.5321615625,"endTime":243.6295640625,"instrument":3,"program":33,"isDrum":false},{"pitch":29,"velocity":123,"startTime":243.6620315625,"endTime":243.8406028125,"instrument":3,"program":33,"isDrum":false},{"pitch":29,"velocity":112,"startTime":243.9217715625,"endTime":244.01511562500002,"instrument":3,"program":33,"isDrum":false},{"pitch":34,"velocity":122,"startTime":244.0516415625,"endTime":244.20180375,"instrument":3,"program":33,"isDrum":false},{"pitch":34,"velocity":118,"startTime":244.3113815625,"endTime":244.4128425,"instrument":3,"program":33,"isDrum":false},{"pitch":34,"velocity":121,"startTime":244.4412515625,"endTime":244.6076475,"instrument":3,"program":33,"isDrum":false},{"pitch":34,"velocity":121,"startTime":244.7009915625,"endTime":244.80245250000002,"instrument":3,"program":33,"isDrum":false},{"pitch":34,"velocity":121,"startTime":244.8308615625,"endTime":244.956673125,"instrument":3,"program":33,"isDrum":false},{"pitch":34,"velocity":121,"startTime":245.0906015625,"endTime":245.17582875,"instrument":3,"program":33,"isDrum":false},{"pitch":34,"velocity":124,"startTime":245.2204715625,"endTime":245.31381562500002,"instrument":3,"program":33,"isDrum":false},{"pitch":34,"velocity":122,"startTime":245.3503415625,"endTime":245.4396271875,"instrument":3,"program":33,"isDrum":false},{"pitch":33,"velocity":120,"startTime":245.48021156250002,"endTime":245.606023125,"instrument":3,"program":33,"isDrum":false},{"pitch":31,"velocity":123,"startTime":245.6100815625,"endTime":245.817061875,"instrument":3,"program":33,"isDrum":false},{"pitch":31,"velocity":121,"startTime":245.8698215625,"endTime":245.9347565625,"instrument":3,"program":33,"isDrum":false},{"pitch":31,"velocity":119,"startTime":245.9996915625,"endTime":246.1782628125,"instrument":3,"program":33,"isDrum":false},{"pitch":31,"velocity":117,"startTime":246.2594315625,"endTime":246.34465875,"instrument":3,"program":33,"isDrum":false},{"pitch":31,"velocity":119,"startTime":246.3893015625,"endTime":246.5597559375,"instrument":3,"program":33,"isDrum":false},{"pitch":31,"velocity":116,"startTime":246.6490415625,"endTime":246.73426875,"instrument":3,"program":33,"isDrum":false},{"pitch":31,"velocity":115,"startTime":246.7789115625,"endTime":246.8803725,"instrument":3,"program":33,"isDrum":false},{"pitch":34,"velocity":115,"startTime":246.9087815625,"endTime":247.0102425,"instrument":3,"program":33,"isDrum":false},{"pitch":35,"velocity":112,"startTime":247.0386515625,"endTime":247.1441709375,"instrument":3,"program":33,"isDrum":false},{"pitch":36,"velocity":119,"startTime":247.16852156250002,"endTime":247.375501875,"instrument":3,"program":33,"isDrum":false},{"pitch":36,"velocity":120,"startTime":247.4282615625,"endTime":247.4850796875,"instrument":3,"program":33,"isDrum":false},{"pitch":36,"velocity":113,"startTime":247.5581315625,"endTime":247.74076125,"instrument":3,"program":33,"isDrum":false},{"pitch":36,"velocity":114,"startTime":247.81787156250002,"endTime":247.8909234375,"instrument":3,"program":33,"isDrum":false},{"pitch":36,"velocity":118,"startTime":247.9477415625,"endTime":248.1181959375,"instrument":3,"program":33,"isDrum":false},{"pitch":36,"velocity":104,"startTime":248.2074815625,"endTime":248.2642996875,"instrument":3,"program":33,"isDrum":false},{"pitch":36,"velocity":112,"startTime":248.3373515625,"endTime":248.5483903125,"instrument":3,"program":33,"isDrum":false},{"pitch":36,"velocity":121,"startTime":248.5970915625,"endTime":248.7269615625,"instrument":3,"program":33,"isDrum":false},{"pitch":31,"velocity":123,"startTime":248.7269615625,"endTime":248.8811821875,"instrument":3,"program":33,"isDrum":false},{"pitch":31,"velocity":92,"startTime":248.9867015625,"endTime":249.05569500000001,"instrument":3,"program":33,"isDrum":false},{"pitch":31,"velocity":122,"startTime":249.1165715625,"endTime":249.274850625,"instrument":3,"program":33,"isDrum":false},{"pitch":31,"velocity":115,"startTime":249.3763115625,"endTime":249.4574803125,"instrument":3,"program":33,"isDrum":false},{"pitch":31,"velocity":118,"startTime":249.50618156250002,"endTime":249.664460625,"instrument":3,"program":33,"isDrum":false},{"pitch":31,"velocity":114,"startTime":249.7659215625,"endTime":249.83897343750002,"instrument":3,"program":33,"isDrum":false},{"pitch":31,"velocity":120,"startTime":249.8957915625,"endTime":250.0013109375,"instrument":3,"program":33,"isDrum":false},{"pitch":34,"velocity":119,"startTime":250.0256615625,"endTime":250.1230640625,"instrument":3,"program":33,"isDrum":false},{"pitch":35,"velocity":106,"startTime":250.15553156250002,"endTime":250.2529340625,"instrument":3,"program":33,"isDrum":false},{"pitch":36,"velocity":120,"startTime":250.2854015625,"endTime":250.459914375,"instrument":3,"program":33,"isDrum":false},{"pitch":36,"velocity":112,"startTime":250.54514156250002,"endTime":250.614135,"instrument":3,"program":33,"isDrum":false},{"pitch":36,"velocity":118,"startTime":250.6750115625,"endTime":250.8414075,"instrument":3,"program":33,"isDrum":false},{"pitch":36,"velocity":115,"startTime":250.9347515625,"endTime":251.003745,"instrument":3,"program":33,"isDrum":false},{"pitch":36,"velocity":116,"startTime":251.0646215625,"endTime":251.22695906250001,"instrument":3,"program":33,"isDrum":false},{"pitch":36,"velocity":114,"startTime":251.3243615625,"endTime":251.42176406250002,"instrument":3,"program":33,"isDrum":false},{"pitch":36,"velocity":118,"startTime":251.4542315625,"endTime":251.58816000000002,"instrument":3,"program":33,"isDrum":false},{"pitch":36,"velocity":113,"startTime":251.7139715625,"endTime":251.8276078125,"instrument":3,"program":33,"isDrum":false},{"pitch":31,"velocity":125,"startTime":251.84384156250002,"endTime":252.6230615625,"instrument":3,"program":33,"isDrum":false},{"pitch":36,"velocity":123,"startTime":252.6230615625,"endTime":253.4022815625,"instrument":3,"program":33,"isDrum":false},{"pitch":31,"velocity":125,"startTime":253.4022815625,"endTime":254.1815015625,"instrument":3,"program":33,"isDrum":false},{"pitch":36,"velocity":121,"startTime":254.1815015625,"endTime":254.7009815625,"instrument":3,"program":33,"isDrum":false},{"pitch":31,"velocity":118,"startTime":254.7659165625,"endTime":254.8795528125,"instrument":3,"program":33,"isDrum":false},{"pitch":41,"velocity":124,"startTime":254.9607215625,"endTime":255.2123446875,"instrument":3,"program":33,"isDrum":false},{"pitch":33,"velocity":124,"startTime":255.22046156250002,"endTime":255.476143125,"instrument":3,"program":33,"isDrum":false},{"pitch":34,"velocity":123,"startTime":255.4802015625,"endTime":255.7155909375,"instrument":3,"program":33,"isDrum":false},{"pitch":35,"velocity":125,"startTime":255.7399415625,"endTime":255.979389375,"instrument":3,"program":33,"isDrum":false},{"pitch":36,"velocity":122,"startTime":255.9996815625,"endTime":256.141726875,"instrument":3,"program":33,"isDrum":false},{"pitch":38,"velocity":119,"startTime":256.1295515625,"endTime":256.2513046875,"instrument":3,"program":33,"isDrum":false},{"pitch":40,"velocity":120,"startTime":256.2594215625,"endTime":256.4136421875,"instrument":3,"program":33,"isDrum":false},{"pitch":41,"velocity":123,"startTime":256.38929156250003,"endTime":256.46640187500003,"instrument":3,"program":33,"isDrum":false},{"pitch":41,"velocity":125,"startTime":256.5191615625,"endTime":256.79919375000003,"instrument":3,"program":33,"isDrum":false},{"pitch":33,"velocity":125,"startTime":256.7789015625,"endTime":257.067050625,"instrument":3,"program":33,"isDrum":false},{"pitch":34,"velocity":123,"startTime":257.0711090625,"endTime":257.2983815625,"instrument":3,"program":33,"isDrum":false},{"pitch":35,"velocity":123,"startTime":257.2983815625,"endTime":257.440426875,"instrument":3,"program":33,"isDrum":false},{"pitch":36,"velocity":119,"startTime":257.4282515625,"endTime":257.537829375,"instrument":3,"program":33,"isDrum":false},{"pitch":38,"velocity":124,"startTime":257.5581215625,"endTime":257.7204590625,"instrument":3,"program":33,"isDrum":false},{"pitch":36,"velocity":124,"startTime":257.6879915625,"endTime":258.0532509375,"instrument":3,"program":33,"isDrum":false},{"pitch":41,"velocity":125,"startTime":258.0776015625,"endTime":258.3535753125,"instrument":3,"program":33,"isDrum":false},{"pitch":33,"velocity":125,"startTime":258.3373415625,"endTime":258.625490625,"instrument":3,"program":33,"isDrum":false},{"pitch":34,"velocity":120,"startTime":258.5970815625,"endTime":258.8324709375,"instrument":3,"program":33,"isDrum":false},{"pitch":35,"velocity":125,"startTime":258.8568215625,"endTime":259.1084446875,"instrument":3,"program":33,"isDrum":false},{"pitch":36,"velocity":124,"startTime":259.1165615625,"endTime":259.258606875,"instrument":3,"program":33,"isDrum":false},{"pitch":38,"velocity":119,"startTime":259.2464315625,"endTime":259.3600678125,"instrument":3,"program":33,"isDrum":false},{"pitch":40,"velocity":114,"startTime":259.37630156250003,"endTime":259.4899378125,"instrument":3,"program":33,"isDrum":false},{"pitch":41,"velocity":121,"startTime":259.5061715625,"endTime":259.575165,"instrument":3,"program":33,"isDrum":false},{"pitch":43,"velocity":125,"startTime":259.6360415625,"endTime":259.8795478125,"instrument":3,"program":33,"isDrum":false},{"pitch":35,"velocity":124,"startTime":259.8957815625,"endTime":260.24074875,"instrument":3,"program":33,"isDrum":false},{"pitch":36,"velocity":123,"startTime":260.1555215625,"endTime":260.3746771875,"instrument":3,"program":33,"isDrum":false},{"pitch":38,"velocity":123,"startTime":260.4152615625,"endTime":260.6344171875,"instrument":3,"program":33,"isDrum":false},{"pitch":39,"velocity":123,"startTime":260.67500156250003,"endTime":260.833280625,"instrument":3,"program":33,"isDrum":false},{"pitch":40,"velocity":120,"startTime":260.8048715625,"endTime":260.9266246875,"instrument":3,"program":33,"isDrum":false},{"pitch":41,"velocity":125,"startTime":260.9347415625,"endTime":261.08490375,"instrument":3,"program":33,"isDrum":false},{"pitch":43,"velocity":120,"startTime":261.0646115625,"endTime":261.18230625,"instrument":3,"program":33,"isDrum":false},{"pitch":42,"velocity":125,"startTime":261.1944815625,"endTime":261.32841,"instrument":3,"program":33,"isDrum":false},{"pitch":44,"velocity":125,"startTime":261.3243515625,"endTime":261.47451375,"instrument":3,"program":33,"isDrum":false},{"pitch":46,"velocity":125,"startTime":261.4542215625,"endTime":261.57191625,"instrument":3,"program":33,"isDrum":false},{"pitch":44,"velocity":125,"startTime":261.7139615625,"endTime":261.8357146875,"instrument":3,"program":33,"isDrum":false},{"pitch":46,"velocity":125,"startTime":261.8438315625,"endTime":261.9655846875,"instrument":3,"program":33,"isDrum":false},{"pitch":48,"velocity":123,"startTime":261.9737015625,"endTime":262.1279221875,"instrument":3,"program":33,"isDrum":false},{"pitch":46,"velocity":125,"startTime":262.36331156250003,"endTime":262.48100625,"instrument":3,"program":33,"isDrum":false},{"pitch":48,"velocity":121,"startTime":262.4931815625,"endTime":262.635226875,"instrument":3,"program":33,"isDrum":false},{"pitch":50,"velocity":125,"startTime":262.6230515625,"endTime":262.692045,"instrument":3,"program":33,"isDrum":false},{"pitch":35,"velocity":125,"startTime":262.7529215625,"endTime":264.2870109375,"instrument":3,"program":33,"isDrum":false},{"pitch":32,"velocity":125,"startTime":264.3113615625,"endTime":265.8454509375,"instrument":3,"program":33,"isDrum":false},{"pitch":34,"velocity":125,"startTime":265.8698015625,"endTime":268.8162271875,"instrument":3,"program":33,"isDrum":false},{"pitch":39,"velocity":125,"startTime":272.1035615625,"endTime":273.00505499999997,"instrument":3,"program":33,"isDrum":false},{"pitch":39,"velocity":125,"startTime":273.2534521875,"endTime":273.64608,"instrument":3,"program":33,"isDrum":false},{"pitch":38,"velocity":125,"startTime":273.6380671875,"endTime":274.559540625,"instrument":3,"program":33,"isDrum":false},{"pitch":38,"velocity":125,"startTime":274.7919121875,"endTime":275.17652718749997,"instrument":3,"program":33,"isDrum":false},{"pitch":36,"velocity":125,"startTime":275.17652718749997,"endTime":276.162103125,"instrument":3,"program":33,"isDrum":false},{"pitch":36,"velocity":125,"startTime":276.3303721875,"endTime":276.69094875,"instrument":3,"program":33,"isDrum":false},{"pitch":31,"velocity":125,"startTime":276.7149871875,"endTime":277.444153125,"instrument":3,"program":33,"isDrum":false},{"pitch":36,"velocity":125,"startTime":277.4842171875,"endTime":277.90889625,"instrument":3,"program":33,"isDrum":false},{"pitch":35,"velocity":125,"startTime":278.2534471875,"endTime":279.0066515625,"instrument":3,"program":33,"isDrum":false},{"pitch":36,"velocity":125,"startTime":279.0226771875,"endTime":279.783894375,"instrument":3,"program":33,"isDrum":false},{"pitch":34,"velocity":125,"startTime":279.7919071875,"endTime":280.4970346875,"instrument":3,"program":33,"isDrum":false},{"pitch":39,"velocity":125,"startTime":280.5611371875,"endTime":281.322354375,"instrument":3,"program":33,"isDrum":false},{"pitch":38,"velocity":125,"startTime":281.3303671875,"endTime":282.1797253125,"instrument":3,"program":33,"isDrum":false},{"pitch":34,"velocity":125,"startTime":282.0995971875,"endTime":282.508250625,"instrument":3,"program":33,"isDrum":false},{"pitch":33,"velocity":125,"startTime":282.4842121875,"endTime":282.8848528125,"instrument":3,"program":33,"isDrum":false},{"pitch":31,"velocity":125,"startTime":282.8688271875,"endTime":283.309531875,"instrument":3,"program":33,"isDrum":false},{"pitch":38,"velocity":122,"startTime":283.2534421875,"endTime":283.6701084375,"instrument":3,"program":33,"isDrum":false},{"pitch":43,"velocity":125,"startTime":283.6380571875,"endTime":283.9906209375,"instrument":3,"program":33,"isDrum":false},{"pitch":31,"velocity":125,"startTime":284.0226721875,"endTime":284.3912615625,"instrument":3,"program":33,"isDrum":false},{"pitch":32,"velocity":125,"startTime":284.4072871875,"endTime":285.4970296875,"instrument":3,"program":33,"isDrum":false},{"pitch":32,"velocity":125,"startTime":285.5611321875,"endTime":285.8976703125,"instrument":3,"program":33,"isDrum":false},{"pitch":39,"velocity":125,"startTime":285.9457471875,"endTime":287.2999125,"instrument":3,"program":33,"isDrum":false},{"pitch":36,"velocity":123,"startTime":287.4842071875,"endTime":288.4777959375,"instrument":3,"program":33,"isDrum":false},{"pitch":36,"velocity":119,"startTime":288.63805218749997,"endTime":288.99862874999997,"instrument":3,"program":33,"isDrum":false},{"pitch":31,"velocity":123,"startTime":289.0226671875,"endTime":290.200550625,"instrument":3,"program":33,"isDrum":false},{"pitch":34,"velocity":120,"startTime":290.1765121875,"endTime":290.5771528125,"instrument":3,"program":33,"isDrum":false},{"pitch":36,"velocity":125,"startTime":290.5611271875,"endTime":291.6668953125,"instrument":3,"program":33,"isDrum":false},{"pitch":36,"velocity":123,"startTime":291.7149721875,"endTime":292.0515103125,"instrument":3,"program":33,"isDrum":false},{"pitch":31,"velocity":125,"startTime":292.0995871875,"endTime":293.32554749999997,"instrument":3,"program":33,"isDrum":false},{"pitch":34,"velocity":117,"startTime":293.2534321875,"endTime":293.6540728125,"instrument":3,"program":33,"isDrum":false},{"pitch":36,"velocity":125,"startTime":293.6380471875,"endTime":295.1204175,"instrument":3,"program":33,"isDrum":false},{"pitch":32,"velocity":123,"startTime":295.1765071875,"endTime":298.3255425,"instrument":3,"program":33,"isDrum":false},{"pitch":34,"velocity":125,"startTime":298.2534271875,"endTime":301.3303471875,"instrument":3,"program":33,"isDrum":false},{"pitch":39,"velocity":124,"startTime":301.3303471875,"endTime":306.74700843749997,"instrument":3,"program":33,"isDrum":false},{"pitch":46,"velocity":112,"startTime":311.7149521875,"endTime":311.9713621875,"instrument":3,"program":33,"isDrum":false},{"pitch":46,"velocity":114,"startTime":312.0995671875,"endTime":312.540271875,"instrument":3,"program":33,"isDrum":false},{"pitch":44,"velocity":118,"startTime":312.4841821875,"endTime":313.3255275,"instrument":3,"program":33,"isDrum":false},{"pitch":43,"velocity":119,"startTime":313.2534121875,"endTime":313.5258478125,"instrument":3,"program":33,"isDrum":false},{"pitch":43,"velocity":120,"startTime":313.63802718750003,"endTime":314.02264218749997,"instrument":3,"program":33,"isDrum":false},{"pitch":40,"velocity":119,"startTime":314.02264218749997,"endTime":314.335141875,"instrument":3,"program":33,"isDrum":false},{"pitch":36,"velocity":120,"startTime":314.4072571875,"endTime":314.8078978125,"instrument":3,"program":33,"isDrum":false},{"pitch":34,"velocity":120,"startTime":314.7918721875,"endTime":315.2085384375,"instrument":3,"program":33,"isDrum":false},{"pitch":33,"velocity":120,"startTime":315.1764871875,"endTime":316.6508446875,"instrument":3,"program":33,"isDrum":false},{"pitch":65,"velocity":104,"startTime":15.384599999999999,"endTime":16.025624999999998,"instrument":4,"program":48,"isDrum":false},{"pitch":65,"velocity":111,"startTime":16.15383,"endTime":16.482355312499998,"instrument":4,"program":48,"isDrum":false},{"pitch":65,"velocity":110,"startTime":16.538445,"endTime":18.0047896875,"instrument":4,"program":48,"isDrum":false},{"pitch":65,"velocity":111,"startTime":18.076905,"endTime":18.413443125,"instrument":4,"program":48,"isDrum":false},{"pitch":65,"velocity":117,"startTime":18.46152,"endTime":18.7900453125,"instrument":4,"program":48,"isDrum":false},{"pitch":65,"velocity":116,"startTime":18.846135,"endTime":19.23075,"instrument":4,"program":48,"isDrum":false},{"pitch":66,"velocity":115,"startTime":19.23075,"endTime":19.655429062499998,"instrument":4,"program":48,"isDrum":false},{"pitch":68,"velocity":113,"startTime":19.615365,"endTime":20.41664625,"instrument":4,"program":48,"isDrum":false},{"pitch":61,"velocity":103,"startTime":20.384595,"endTime":21.233953125,"instrument":4,"program":48,"isDrum":false},{"pitch":70,"velocity":101,"startTime":21.153824999999998,"endTime":24.0304246875,"instrument":4,"program":48,"isDrum":false},{"pitch":70,"velocity":107,"startTime":24.61536,"endTime":25.7451665625,"instrument":4,"program":48,"isDrum":false},{"pitch":82,"velocity":47,"startTime":24.61536,"endTime":25.35253875,"instrument":4,"program":48,"isDrum":false},{"pitch":82,"velocity":104,"startTime":25.38459,"endTime":27.708305625,"instrument":4,"program":48,"isDrum":false},{"pitch":70,"velocity":117,"startTime":25.769205,"endTime":26.490358125,"instrument":4,"program":48,"isDrum":false},{"pitch":70,"velocity":115,"startTime":26.538435,"endTime":27.69228,"instrument":4,"program":48,"isDrum":false},{"pitch":68,"velocity":111,"startTime":27.69228,"endTime":27.996766875000002,"instrument":4,"program":48,"isDrum":false},{"pitch":80,"velocity":76,"startTime":27.69228,"endTime":28.004779687499997,"instrument":4,"program":48,"isDrum":false},{"pitch":68,"velocity":116,"startTime":28.076895,"endTime":28.5015740625,"instrument":4,"program":48,"isDrum":false},{"pitch":80,"velocity":110,"startTime":28.076895,"endTime":28.509586875,"instrument":4,"program":48,"isDrum":false},{"pitch":70,"velocity":117,"startTime":28.46151,"endTime":28.846124999999997,"instrument":4,"program":48,"isDrum":false},{"pitch":82,"velocity":112,"startTime":28.46151,"endTime":28.9102275,"instrument":4,"program":48,"isDrum":false},{"pitch":68,"velocity":111,"startTime":28.846124999999997,"endTime":29.0784965625,"instrument":4,"program":48,"isDrum":false},{"pitch":80,"velocity":112,"startTime":28.846124999999997,"endTime":29.070483749999998,"instrument":4,"program":48,"isDrum":false},{"pitch":66,"velocity":113,"startTime":29.0384325,"endTime":29.222727187500002,"instrument":4,"program":48,"isDrum":false},{"pitch":78,"velocity":108,"startTime":29.0384325,"endTime":29.222727187500002,"instrument":4,"program":48,"isDrum":false},{"pitch":63,"velocity":116,"startTime":29.230739999999997,"endTime":29.5592653125,"instrument":4,"program":48,"isDrum":false},{"pitch":75,"velocity":118,"startTime":29.230739999999997,"endTime":29.535226875,"instrument":4,"program":48,"isDrum":false},{"pitch":65,"velocity":83,"startTime":29.999969999999998,"endTime":30.488751562499996,"instrument":4,"program":48,"isDrum":false},{"pitch":66,"velocity":112,"startTime":30.384584999999998,"endTime":30.817276874999997,"instrument":4,"program":48,"isDrum":false},{"pitch":71,"velocity":115,"startTime":30.769199999999998,"endTime":31.073686875,"instrument":4,"program":48,"isDrum":false},{"pitch":71,"velocity":114,"startTime":31.153814999999998,"endTime":31.562468437499998,"instrument":4,"program":48,"isDrum":false},{"pitch":70,"velocity":116,"startTime":31.538429999999998,"endTime":31.82689125,"instrument":4,"program":48,"isDrum":false},{"pitch":69,"velocity":111,"startTime":32.30766,"endTime":32.612146875,"instrument":4,"program":48,"isDrum":false},{"pitch":69,"velocity":118,"startTime":32.692275,"endTime":33.07689,"instrument":4,"program":48,"isDrum":false},{"pitch":70,"velocity":117,"startTime":33.07689,"endTime":33.42945375,"instrument":4,"program":48,"isDrum":false},{"pitch":71,"velocity":110,"startTime":33.84612,"endTime":34.1586196875,"instrument":4,"program":48,"isDrum":false},{"pitch":71,"velocity":118,"startTime":34.230734999999996,"endTime":34.61535,"instrument":4,"program":48,"isDrum":false},{"pitch":70,"velocity":117,"startTime":34.61535,"endTime":35.056054687499994,"instrument":4,"program":48,"isDrum":false},{"pitch":69,"velocity":115,"startTime":35.38458,"endTime":35.681054062499996,"instrument":4,"program":48,"isDrum":false},{"pitch":69,"velocity":115,"startTime":35.769194999999996,"endTime":35.99355375,"instrument":4,"program":48,"isDrum":false},{"pitch":70,"velocity":113,"startTime":36.15381,"endTime":37.1153475,"instrument":4,"program":48,"isDrum":false},{"pitch":67,"velocity":76,"startTime":37.307655,"endTime":37.5881034375,"instrument":4,"program":48,"isDrum":false},{"pitch":67,"velocity":117,"startTime":37.69227,"endTime":38.0127825,"instrument":4,"program":48,"isDrum":false},{"pitch":67,"velocity":118,"startTime":38.076885,"endTime":38.55765375,"instrument":4,"program":48,"isDrum":false},{"pitch":65,"velocity":115,"startTime":38.4615,"endTime":39.2227171875,"instrument":4,"program":48,"isDrum":false},{"pitch":70,"velocity":112,"startTime":39.23073,"endTime":40.03201125,"instrument":4,"program":48,"isDrum":false},{"pitch":64,"velocity":115,"startTime":39.99996,"endTime":40.3284853125,"instrument":4,"program":48,"isDrum":false},{"pitch":64,"velocity":117,"startTime":40.384575,"endTime":40.6970746875,"instrument":4,"program":48,"isDrum":false},{"pitch":64,"velocity":117,"startTime":40.76919,"endTime":41.0977153125,"instrument":4,"program":48,"isDrum":false},{"pitch":65,"velocity":110,"startTime":41.153805,"endTime":41.5304071875,"instrument":4,"program":48,"isDrum":false},{"pitch":65,"velocity":117,"startTime":41.538419999999995,"endTime":42.355726874999995,"instrument":4,"program":48,"isDrum":false},{"pitch":60,"velocity":113,"startTime":42.307649999999995,"endTime":42.676239374999994,"instrument":4,"program":48,"isDrum":false},{"pitch":63,"velocity":110,"startTime":42.692265,"endTime":44.8076475,"instrument":4,"program":48,"isDrum":false},{"pitch":65,"velocity":103,"startTime":43.076879999999996,"endTime":44.711493749999995,"instrument":4,"program":48,"isDrum":false},{"pitch":69,"velocity":104,"startTime":43.076879999999996,"endTime":44.7355321875,"instrument":4,"program":48,"isDrum":false},{"pitch":57,"velocity":98,"startTime":45.38457,"endTime":46.1778384375,"instrument":4,"program":48,"isDrum":false},{"pitch":58,"velocity":89,"startTime":46.1538,"endTime":51.8589225,"instrument":4,"program":48,"isDrum":false},{"pitch":75,"velocity":80,"startTime":76.923,"endTime":79.310818125,"instrument":4,"program":48,"isDrum":false},{"pitch":82,"velocity":92,"startTime":76.923,"endTime":80.0239584375,"instrument":4,"program":48,"isDrum":false},{"pitch":74,"velocity":101,"startTime":79.23069,"endTime":79.99992,"instrument":4,"program":48,"isDrum":false},{"pitch":72,"velocity":91,"startTime":79.99992,"endTime":85.8332475,"instrument":4,"program":48,"isDrum":false},{"pitch":75,"velocity":80,"startTime":79.99992,"endTime":83.07683999999999,"instrument":4,"program":48,"isDrum":false},{"pitch":79,"velocity":69,"startTime":79.99992,"endTime":83.060814375,"instrument":4,"program":48,"isDrum":false},{"pitch":84,"velocity":91,"startTime":79.99992,"endTime":86.2178625,"instrument":4,"program":48,"isDrum":false},{"pitch":77,"velocity":100,"startTime":81.53838,"endTime":82.227481875,"instrument":4,"program":48,"isDrum":false},{"pitch":82,"velocity":95,"startTime":82.30761,"endTime":83.060814375,"instrument":4,"program":48,"isDrum":false},{"pitch":77,"velocity":98,"startTime":83.07683999999999,"endTime":83.958249375,"instrument":4,"program":48,"isDrum":false},{"pitch":80,"velocity":96,"startTime":83.07683999999999,"endTime":86.24190093749999,"instrument":4,"program":48,"isDrum":false},{"pitch":76,"velocity":96,"startTime":83.84607,"endTime":84.5431846875,"instrument":4,"program":48,"isDrum":false},{"pitch":75,"velocity":92,"startTime":84.61529999999999,"endTime":85.44863249999999,"instrument":4,"program":48,"isDrum":false},{"pitch":74,"velocity":99,"startTime":85.38453,"endTime":86.14574718749999,"instrument":4,"program":48,"isDrum":false},{"pitch":70,"velocity":92,"startTime":86.15375999999999,"endTime":92.2675359375,"instrument":4,"program":48,"isDrum":false},{"pitch":74,"velocity":86,"startTime":86.15375999999999,"endTime":86.2178625,"instrument":4,"program":48,"isDrum":false},{"pitch":77,"velocity":74,"startTime":86.15375999999999,"endTime":89.3027953125,"instrument":4,"program":48,"isDrum":false},{"pitch":82,"velocity":88,"startTime":86.15375999999999,"endTime":92.33965125,"instrument":4,"program":48,"isDrum":false},{"pitch":80,"velocity":90,"startTime":88.46145,"endTime":89.2547184375,"instrument":4,"program":48,"isDrum":false},{"pitch":75,"velocity":90,"startTime":89.23067999999999,"endTime":89.60728218749999,"instrument":4,"program":48,"isDrum":false},{"pitch":79,"velocity":92,"startTime":89.23067999999999,"endTime":90.7290759375,"instrument":4,"program":48,"isDrum":false},{"pitch":75,"velocity":18,"startTime":89.615295,"endTime":90.69702468749999,"instrument":4,"program":48,"isDrum":false},{"pitch":74,"velocity":98,"startTime":90.76914,"endTime":92.3156128125,"instrument":4,"program":48,"isDrum":false},{"pitch":77,"velocity":73,"startTime":90.76914,"endTime":92.3957409375,"instrument":4,"program":48,"isDrum":false},{"pitch":72,"velocity":91,"startTime":92.3076,"endTime":93.9021496875,"instrument":4,"program":48,"isDrum":false},{"pitch":75,"velocity":83,"startTime":92.3076,"endTime":95.4486225,"instrument":4,"program":48,"isDrum":false},{"pitch":68,"velocity":67,"startTime":93.84606,"endTime":95.50471218749999,"instrument":4,"program":48,"isDrum":false},{"pitch":71,"velocity":92,"startTime":93.84606,"endTime":95.13612281249999,"instrument":4,"program":48,"isDrum":false},{"pitch":63,"velocity":63,"startTime":95.38452,"endTime":96.8348390625,"instrument":4,"program":48,"isDrum":false},{"pitch":70,"velocity":77,"startTime":95.38452,"endTime":96.9149671875,"instrument":4,"program":48,"isDrum":false},{"pitch":68,"velocity":76,"startTime":96.92298,"endTime":97.7162484375,"instrument":4,"program":48,"isDrum":false},{"pitch":72,"velocity":60,"startTime":96.92298,"endTime":97.72426125,"instrument":4,"program":48,"isDrum":false},{"pitch":75,"velocity":18,"startTime":96.92298,"endTime":97.66817156249999,"instrument":4,"program":48,"isDrum":false},{"pitch":80,"velocity":51,"startTime":96.92298,"endTime":97.68419718749999,"instrument":4,"program":48,"isDrum":false},{"pitch":67,"velocity":96,"startTime":97.69221,"endTime":98.5495809375,"instrument":4,"program":48,"isDrum":false},{"pitch":70,"velocity":90,"startTime":97.69221,"endTime":98.509516875,"instrument":4,"program":48,"isDrum":false},{"pitch":66,"velocity":63,"startTime":98.46144,"endTime":99.26272124999998,"instrument":4,"program":48,"isDrum":false},{"pitch":69,"velocity":63,"startTime":98.46144,"endTime":98.990285625,"instrument":4,"program":48,"isDrum":false},{"pitch":65,"velocity":97,"startTime":99.23066999999999,"endTime":99.96784875,"instrument":4,"program":48,"isDrum":false},{"pitch":68,"velocity":88,"startTime":99.23066999999999,"endTime":99.7995796875,"instrument":4,"program":48,"isDrum":false},{"pitch":70,"velocity":97,"startTime":130.7691,"endTime":133.07679,"instrument":4,"program":48,"isDrum":false},{"pitch":75,"velocity":86,"startTime":130.7691,"endTime":133.09281562500001,"instrument":4,"program":48,"isDrum":false},{"pitch":74,"velocity":100,"startTime":133.07679,"endTime":133.894096875,"instrument":4,"program":48,"isDrum":false},{"pitch":77,"velocity":102,"startTime":133.07679,"endTime":133.8860840625,"instrument":4,"program":48,"isDrum":false},{"pitch":72,"velocity":98,"startTime":133.84601999999998,"endTime":135.4085184375,"instrument":4,"program":48,"isDrum":false},{"pitch":75,"velocity":92,"startTime":133.84601999999998,"endTime":135.41653125,"instrument":4,"program":48,"isDrum":false},{"pitch":79,"velocity":98,"startTime":134.61525,"endTime":136.9630040625,"instrument":4,"program":48,"isDrum":false},{"pitch":69,"velocity":92,"startTime":135.38448,"endTime":135.432556875,"instrument":4,"program":48,"isDrum":false},{"pitch":71,"velocity":77,"startTime":135.38448,"endTime":136.0815946875,"instrument":4,"program":48,"isDrum":false},{"pitch":74,"velocity":95,"startTime":135.38448,"endTime":136.0976203125,"instrument":4,"program":48,"isDrum":false},{"pitch":72,"velocity":99,"startTime":136.15371,"endTime":137.003068125,"instrument":4,"program":48,"isDrum":false},{"pitch":75,"velocity":92,"startTime":136.15371,"endTime":136.971016875,"instrument":4,"program":48,"isDrum":false},{"pitch":68,"velocity":99,"startTime":136.92293999999998,"endTime":138.4614,"instrument":4,"program":48,"isDrum":false},{"pitch":77,"velocity":98,"startTime":136.92293999999998,"endTime":140.03191124999998,"instrument":4,"program":48,"isDrum":false},{"pitch":67,"velocity":104,"startTime":138.4614,"endTime":139.26268124999999,"instrument":4,"program":48,"isDrum":false},{"pitch":68,"velocity":100,"startTime":139.23063,"endTime":140.015885625,"instrument":4,"program":48,"isDrum":false},{"pitch":70,"velocity":95,"startTime":139.99985999999998,"endTime":141.6104353125,"instrument":4,"program":48,"isDrum":false},{"pitch":74,"velocity":96,"startTime":139.99985999999998,"endTime":141.618448125,"instrument":4,"program":48,"isDrum":false},{"pitch":72,"velocity":100,"startTime":141.53832,"endTime":142.2995371875,"instrument":4,"program":48,"isDrum":false},{"pitch":75,"velocity":96,"startTime":141.53832,"endTime":142.323575625,"instrument":4,"program":48,"isDrum":false},{"pitch":74,"velocity":95,"startTime":142.30755,"endTime":143.08479281249998,"instrument":4,"program":48,"isDrum":false},{"pitch":77,"velocity":96,"startTime":142.30755,"endTime":143.10883124999998,"instrument":4,"program":48,"isDrum":false},{"pitch":75,"velocity":98,"startTime":143.07677999999999,"endTime":143.8379971875,"instrument":4,"program":48,"isDrum":false},{"pitch":79,"velocity":102,"startTime":143.07677999999999,"endTime":144.663316875,"instrument":4,"program":48,"isDrum":false},{"pitch":70,"velocity":87,"startTime":143.84601,"endTime":145.46459812499998,"instrument":4,"program":48,"isDrum":false},{"pitch":75,"velocity":74,"startTime":143.84601,"endTime":144.5591503125,"instrument":4,"program":48,"isDrum":false},{"pitch":77,"velocity":89,"startTime":144.61524,"endTime":145.46459812499998,"instrument":4,"program":48,"isDrum":false},{"pitch":65,"velocity":82,"startTime":145.38447,"endTime":146.1456871875,"instrument":4,"program":48,"isDrum":false},{"pitch":74,"velocity":89,"startTime":145.38447,"endTime":146.12164875,"instrument":4,"program":48,"isDrum":false},{"pitch":67,"velocity":89,"startTime":146.1537,"endTime":146.971006875,"instrument":4,"program":48,"isDrum":false},{"pitch":75,"velocity":77,"startTime":146.1537,"endTime":146.9629940625,"instrument":4,"program":48,"isDrum":false},{"pitch":72,"velocity":77,"startTime":146.92293,"endTime":147.740236875,"instrument":4,"program":48,"isDrum":false},{"pitch":79,"velocity":92,"startTime":146.92293,"endTime":147.708185625,"instrument":4,"program":48,"isDrum":false},{"pitch":75,"velocity":86,"startTime":147.69216,"endTime":149.214594375,"instrument":4,"program":48,"isDrum":false},{"pitch":84,"velocity":78,"startTime":147.69216,"endTime":148.445364375,"instrument":4,"program":48,"isDrum":false},{"pitch":79,"velocity":84,"startTime":148.46139,"endTime":149.214594375,"instrument":4,"program":48,"isDrum":false},{"pitch":77,"velocity":89,"startTime":149.23062,"endTime":150.047926875,"instrument":4,"program":48,"isDrum":false},{"pitch":80,"velocity":84,"startTime":149.23062,"endTime":152.33959124999998,"instrument":4,"program":48,"isDrum":false},{"pitch":76,"velocity":94,"startTime":149.99984999999998,"endTime":150.77709281249997,"instrument":4,"program":48,"isDrum":false},{"pitch":75,"velocity":84,"startTime":150.76908,"endTime":151.586386875,"instrument":4,"program":48,"isDrum":false},{"pitch":74,"velocity":87,"startTime":151.53831,"endTime":152.27548875,"instrument":4,"program":48,"isDrum":false},{"pitch":70,"velocity":84,"startTime":152.30754,"endTime":153.24503906249998,"instrument":4,"program":48,"isDrum":false},{"pitch":82,"velocity":83,"startTime":152.30754,"endTime":154.67933250000002,"instrument":4,"program":48,"isDrum":false},{"pitch":72,"velocity":97,"startTime":153.07676999999998,"endTime":153.7738846875,"instrument":4,"program":48,"isDrum":false},{"pitch":75,"velocity":89,"startTime":153.07676999999998,"endTime":153.23702625,"instrument":4,"program":48,"isDrum":false},{"pitch":76,"velocity":89,"startTime":153.07676999999998,"endTime":153.204975,"instrument":4,"program":48,"isDrum":false},{"pitch":75,"velocity":42,"startTime":153.26907749999998,"endTime":153.68574375,"instrument":4,"program":48,"isDrum":false},{"pitch":74,"velocity":92,"startTime":153.846,"endTime":155.3764471875,"instrument":4,"program":48,"isDrum":false},{"pitch":77,"velocity":89,"startTime":153.846,"endTime":155.368434375,"instrument":4,"program":48,"isDrum":false},{"pitch":80,"velocity":82,"startTime":154.61523,"endTime":155.3924728125,"instrument":4,"program":48,"isDrum":false},{"pitch":75,"velocity":83,"startTime":155.38446,"endTime":156.92292,"instrument":4,"program":48,"isDrum":false},{"pitch":79,"velocity":88,"startTime":155.38446,"endTime":156.2177925,"instrument":4,"program":48,"isDrum":false},{"pitch":82,"velocity":90,"startTime":156.15368999999998,"endTime":156.92292,"instrument":4,"program":48,"isDrum":false},{"pitch":74,"velocity":92,"startTime":156.92292,"endTime":158.54150812499998,"instrument":4,"program":48,"isDrum":false},{"pitch":77,"velocity":78,"startTime":156.92292,"endTime":158.5014440625,"instrument":4,"program":48,"isDrum":false},{"pitch":82,"velocity":78,"startTime":157.69215,"endTime":158.4213159375,"instrument":4,"program":48,"isDrum":false},{"pitch":72,"velocity":89,"startTime":158.46138,"endTime":160.00785281249998,"instrument":4,"program":48,"isDrum":false},{"pitch":75,"velocity":86,"startTime":158.46138,"endTime":159.98381437499998,"instrument":4,"program":48,"isDrum":false},{"pitch":82,"velocity":87,"startTime":159.23060999999998,"endTime":159.99984,"instrument":4,"program":48,"isDrum":false},{"pitch":70,"velocity":81,"startTime":159.99984,"endTime":160.7610571875,"instrument":4,"program":48,"isDrum":false},{"pitch":74,"velocity":74,"startTime":159.99984,"endTime":160.89727499999998,"instrument":4,"program":48,"isDrum":false},{"pitch":77,"velocity":78,"startTime":159.99984,"endTime":160.8331725,"instrument":4,"program":48,"isDrum":false},{"pitch":72,"velocity":74,"startTime":160.76907,"endTime":161.5383,"instrument":4,"program":48,"isDrum":false},{"pitch":75,"velocity":90,"startTime":160.76907,"endTime":161.5383,"instrument":4,"program":48,"isDrum":false},{"pitch":82,"velocity":74,"startTime":160.76907,"endTime":160.87323656249998,"instrument":4,"program":48,"isDrum":false},{"pitch":65,"velocity":81,"startTime":161.5383,"endTime":162.49983749999998,"instrument":4,"program":48,"isDrum":false},{"pitch":72,"velocity":81,"startTime":161.5383,"endTime":162.30752999999999,"instrument":4,"program":48,"isDrum":false},{"pitch":77,"velocity":81,"startTime":161.5383,"endTime":162.49983749999998,"instrument":4,"program":48,"isDrum":false},{"pitch":80,"velocity":81,"startTime":161.5383,"endTime":162.59599125,"instrument":4,"program":48,"isDrum":false},{"pitch":53,"velocity":100,"startTime":162.69214499999998,"endTime":162.78829875,"instrument":4,"program":48,"isDrum":false},{"pitch":65,"velocity":100,"startTime":162.69214499999998,"endTime":162.78829875,"instrument":4,"program":48,"isDrum":false},{"pitch":77,"velocity":100,"startTime":162.69214499999998,"endTime":162.78829875,"instrument":4,"program":48,"isDrum":false},{"pitch":89,"velocity":92,"startTime":162.69214499999998,"endTime":162.8123371875,"instrument":4,"program":48,"isDrum":false},{"pitch":52,"velocity":100,"startTime":162.88445249999998,"endTime":162.98060625,"instrument":4,"program":48,"isDrum":false},{"pitch":64,"velocity":100,"startTime":162.88445249999998,"endTime":162.98060625,"instrument":4,"program":48,"isDrum":false},{"pitch":79,"velocity":100,"startTime":162.88445249999998,"endTime":162.98060625,"instrument":4,"program":48,"isDrum":false},{"pitch":91,"velocity":100,"startTime":162.88445249999998,"endTime":162.98060625,"instrument":4,"program":48,"isDrum":false},{"pitch":51,"velocity":100,"startTime":163.07676,"endTime":163.461375,"instrument":4,"program":48,"isDrum":false},{"pitch":63,"velocity":100,"startTime":163.07676,"endTime":163.58156718749999,"instrument":4,"program":48,"isDrum":false},{"pitch":68,"velocity":100,"startTime":163.07676,"endTime":163.5174646875,"instrument":4,"program":48,"isDrum":false},{"pitch":75,"velocity":100,"startTime":163.07676,"endTime":163.7097721875,"instrument":4,"program":48,"isDrum":false},{"pitch":80,"velocity":100,"startTime":163.07676,"endTime":163.55752875,"instrument":4,"program":48,"isDrum":false},{"pitch":92,"velocity":100,"startTime":163.07676,"endTime":163.717785,"instrument":4,"program":48,"isDrum":false},{"pitch":50,"velocity":95,"startTime":163.84599,"endTime":164.35880999999998,"instrument":4,"program":48,"isDrum":false},{"pitch":62,"velocity":90,"startTime":163.84599,"endTime":164.38284843749997,"instrument":4,"program":48,"isDrum":false},{"pitch":77,"velocity":104,"startTime":163.84599,"endTime":164.3187459375,"instrument":4,"program":48,"isDrum":false},{"pitch":89,"velocity":103,"startTime":163.84599,"endTime":164.278681875,"instrument":4,"program":48,"isDrum":false},{"pitch":49,"velocity":97,"startTime":164.61522,"endTime":165.720988125,"instrument":4,"program":48,"isDrum":false},{"pitch":61,"velocity":104,"startTime":164.61522,"endTime":165.688936875,"instrument":4,"program":48,"isDrum":false},{"pitch":68,"velocity":103,"startTime":164.61522,"endTime":165.41650124999998,"instrument":4,"program":48,"isDrum":false},{"pitch":80,"velocity":98,"startTime":164.61522,"endTime":165.43252687499998,"instrument":4,"program":48,"isDrum":false},{"pitch":73,"velocity":100,"startTime":165.57675749999999,"endTime":165.7129753125,"instrument":4,"program":48,"isDrum":false},{"pitch":85,"velocity":102,"startTime":165.57675749999999,"endTime":165.7129753125,"instrument":4,"program":48,"isDrum":false},{"pitch":48,"velocity":92,"startTime":165.96137249999998,"endTime":166.13765437499998,"instrument":4,"program":48,"isDrum":false},{"pitch":60,"velocity":89,"startTime":165.96137249999998,"endTime":166.1136159375,"instrument":4,"program":48,"isDrum":false},{"pitch":73,"velocity":100,"startTime":165.96137249999998,"endTime":166.12162875,"instrument":4,"program":48,"isDrum":false},{"pitch":85,"velocity":100,"startTime":165.96137249999998,"endTime":166.0975903125,"instrument":4,"program":48,"isDrum":false},{"pitch":47,"velocity":95,"startTime":166.15367999999998,"endTime":166.6023975,"instrument":4,"program":48,"isDrum":false},{"pitch":59,"velocity":100,"startTime":166.15367999999998,"endTime":166.63444875,"instrument":4,"program":48,"isDrum":false},{"pitch":73,"velocity":104,"startTime":166.15367999999998,"endTime":166.586371875,"instrument":4,"program":48,"isDrum":false},{"pitch":85,"velocity":103,"startTime":166.15367999999998,"endTime":166.5302821875,"instrument":4,"program":48,"isDrum":false},{"pitch":46,"velocity":102,"startTime":166.92291,"endTime":167.38765312499999,"instrument":4,"program":48,"isDrum":false},{"pitch":58,"velocity":102,"startTime":166.92291,"endTime":167.419704375,"instrument":4,"program":48,"isDrum":false},{"pitch":61,"velocity":104,"startTime":166.92291,"endTime":167.38765312499999,"instrument":4,"program":48,"isDrum":false},{"pitch":73,"velocity":100,"startTime":166.92291,"endTime":167.40367874999998,"instrument":4,"program":48,"isDrum":false},{"pitch":33,"velocity":119,"startTime":167.69214,"endTime":167.91649875,"instrument":4,"program":48,"isDrum":false},{"pitch":45,"velocity":122,"startTime":167.69214,"endTime":167.94855,"instrument":4,"program":48,"isDrum":false},{"pitch":57,"velocity":121,"startTime":167.69214,"endTime":167.91649875,"instrument":4,"program":48,"isDrum":false},{"pitch":64,"velocity":119,"startTime":173.461365,"endTime":173.58956999999998,"instrument":4,"program":48,"isDrum":false},{"pitch":69,"velocity":114,"startTime":173.461365,"endTime":173.5495059375,"instrument":4,"program":48,"isDrum":false},{"pitch":73,"velocity":112,"startTime":173.461365,"endTime":173.5495059375,"instrument":4,"program":48,"isDrum":false},{"pitch":76,"velocity":115,"startTime":173.461365,"endTime":173.541493125,"instrument":4,"program":48,"isDrum":false},{"pitch":81,"velocity":96,"startTime":173.461365,"endTime":173.5254675,"instrument":4,"program":48,"isDrum":false},{"pitch":64,"velocity":119,"startTime":173.6536725,"endTime":173.829954375,"instrument":4,"program":48,"isDrum":false},{"pitch":69,"velocity":115,"startTime":173.6536725,"endTime":173.74982624999998,"instrument":4,"program":48,"isDrum":false},{"pitch":73,"velocity":112,"startTime":173.6536725,"endTime":173.7898903125,"instrument":4,"program":48,"isDrum":false},{"pitch":76,"velocity":117,"startTime":173.6536725,"endTime":173.797903125,"instrument":4,"program":48,"isDrum":false},{"pitch":81,"velocity":112,"startTime":173.6536725,"endTime":173.75783906249998,"instrument":4,"program":48,"isDrum":false},{"pitch":62,"velocity":119,"startTime":173.84598,"endTime":174.14245406249998,"instrument":4,"program":48,"isDrum":false},{"pitch":66,"velocity":110,"startTime":173.84598,"endTime":174.2065565625,"instrument":4,"program":48,"isDrum":false},{"pitch":69,"velocity":121,"startTime":173.84598,"endTime":174.214569375,"instrument":4,"program":48,"isDrum":false},{"pitch":74,"velocity":121,"startTime":173.84598,"endTime":174.10239,"instrument":4,"program":48,"isDrum":false},{"pitch":78,"velocity":118,"startTime":173.84598,"endTime":174.19053093749997,"instrument":4,"program":48,"isDrum":false},{"pitch":81,"velocity":118,"startTime":173.84598,"endTime":174.2065565625,"instrument":4,"program":48,"isDrum":false},{"pitch":61,"velocity":108,"startTime":174.230595,"endTime":174.35879999999997,"instrument":4,"program":48,"isDrum":false},{"pitch":64,"velocity":112,"startTime":174.230595,"endTime":174.31072312499998,"instrument":4,"program":48,"isDrum":false},{"pitch":69,"velocity":114,"startTime":174.230595,"endTime":174.31072312499998,"instrument":4,"program":48,"isDrum":false},{"pitch":73,"velocity":115,"startTime":174.230595,"endTime":174.31072312499998,"instrument":4,"program":48,"isDrum":false},{"pitch":76,"velocity":116,"startTime":174.230595,"endTime":174.32674875,"instrument":4,"program":48,"isDrum":false},{"pitch":81,"velocity":18,"startTime":174.230595,"endTime":174.2546334375,"instrument":4,"program":48,"isDrum":false},{"pitch":61,"velocity":118,"startTime":174.4229025,"endTime":174.567133125,"instrument":4,"program":48,"isDrum":false},{"pitch":64,"velocity":108,"startTime":174.4229025,"endTime":174.6392484375,"instrument":4,"program":48,"isDrum":false},{"pitch":69,"velocity":117,"startTime":174.4229025,"endTime":174.52706906249998,"instrument":4,"program":48,"isDrum":false},{"pitch":73,"velocity":115,"startTime":174.4229025,"endTime":174.55110749999997,"instrument":4,"program":48,"isDrum":false},{"pitch":76,"velocity":108,"startTime":174.4229025,"endTime":174.55110749999997,"instrument":4,"program":48,"isDrum":false},{"pitch":81,"velocity":114,"startTime":174.4229025,"endTime":174.51905625,"instrument":4,"program":48,"isDrum":false},{"pitch":62,"velocity":123,"startTime":174.61521,"endTime":174.9437353125,"instrument":4,"program":48,"isDrum":false},{"pitch":66,"velocity":119,"startTime":174.61521,"endTime":174.951748125,"instrument":4,"program":48,"isDrum":false},{"pitch":69,"velocity":119,"startTime":174.61521,"endTime":175.07995312499997,"instrument":4,"program":48,"isDrum":false},{"pitch":74,"velocity":120,"startTime":174.61521,"endTime":174.8155303125,"instrument":4,"program":48,"isDrum":false},{"pitch":78,"velocity":119,"startTime":174.61521,"endTime":174.9357225,"instrument":4,"program":48,"isDrum":false},{"pitch":81,"velocity":119,"startTime":174.61521,"endTime":174.9357225,"instrument":4,"program":48,"isDrum":false},{"pitch":61,"velocity":113,"startTime":174.999825,"endTime":175.09597875,"instrument":4,"program":48,"isDrum":false},{"pitch":64,"velocity":117,"startTime":174.999825,"endTime":175.1200171875,"instrument":4,"program":48,"isDrum":false},{"pitch":73,"velocity":114,"startTime":174.999825,"endTime":175.1039915625,"instrument":4,"program":48,"isDrum":false},{"pitch":76,"velocity":112,"startTime":174.999825,"endTime":175.07995312499997,"instrument":4,"program":48,"isDrum":false},{"pitch":61,"velocity":107,"startTime":175.19213249999999,"endTime":175.304311875,"instrument":4,"program":48,"isDrum":false},{"pitch":64,"velocity":120,"startTime":175.19213249999999,"endTime":175.2962990625,"instrument":4,"program":48,"isDrum":false},{"pitch":69,"velocity":115,"startTime":175.19213249999999,"endTime":175.2642478125,"instrument":4,"program":48,"isDrum":false},{"pitch":73,"velocity":116,"startTime":175.19213249999999,"endTime":175.2962990625,"instrument":4,"program":48,"isDrum":false},{"pitch":76,"velocity":114,"startTime":175.19213249999999,"endTime":175.2642478125,"instrument":4,"program":48,"isDrum":false},{"pitch":81,"velocity":101,"startTime":175.19213249999999,"endTime":175.22418374999998,"instrument":4,"program":48,"isDrum":false},{"pitch":60,"velocity":113,"startTime":175.38443999999998,"endTime":175.4886065625,"instrument":4,"program":48,"isDrum":false},{"pitch":63,"velocity":116,"startTime":175.38443999999998,"endTime":175.48059375,"instrument":4,"program":48,"isDrum":false},{"pitch":69,"velocity":111,"startTime":175.38443999999998,"endTime":175.4565553125,"instrument":4,"program":48,"isDrum":false},{"pitch":72,"velocity":118,"startTime":175.38443999999998,"endTime":175.48059375,"instrument":4,"program":48,"isDrum":false},{"pitch":75,"velocity":118,"startTime":175.38443999999998,"endTime":175.4725809375,"instrument":4,"program":48,"isDrum":false},{"pitch":60,"velocity":112,"startTime":175.57674749999998,"endTime":175.6969396875,"instrument":4,"program":48,"isDrum":false},{"pitch":63,"velocity":115,"startTime":175.57674749999998,"endTime":175.7129653125,"instrument":4,"program":48,"isDrum":false},{"pitch":69,"velocity":113,"startTime":175.57674749999998,"endTime":175.63283718749997,"instrument":4,"program":48,"isDrum":false},{"pitch":72,"velocity":115,"startTime":175.57674749999998,"endTime":175.656875625,"instrument":4,"program":48,"isDrum":false},{"pitch":75,"velocity":114,"startTime":175.57674749999998,"endTime":175.67290125,"instrument":4,"program":48,"isDrum":false},{"pitch":61,"velocity":116,"startTime":175.76905499999998,"endTime":175.977388125,"instrument":4,"program":48,"isDrum":false},{"pitch":64,"velocity":112,"startTime":175.76905499999998,"endTime":175.99341374999997,"instrument":4,"program":48,"isDrum":false},{"pitch":69,"velocity":119,"startTime":175.76905499999998,"endTime":175.9052728125,"instrument":4,"program":48,"isDrum":false},{"pitch":73,"velocity":116,"startTime":175.76905499999998,"endTime":175.93732406249998,"instrument":4,"program":48,"isDrum":false},{"pitch":76,"velocity":118,"startTime":175.76905499999998,"endTime":175.92931125,"instrument":4,"program":48,"isDrum":false},{"pitch":62,"velocity":119,"startTime":176.15367,"endTime":176.35399031249997,"instrument":4,"program":48,"isDrum":false},{"pitch":66,"velocity":111,"startTime":176.15367,"endTime":176.32995187499998,"instrument":4,"program":48,"isDrum":false},{"pitch":69,"velocity":120,"startTime":176.15367,"endTime":176.24982375,"instrument":4,"program":48,"isDrum":false},{"pitch":74,"velocity":119,"startTime":176.15367,"endTime":176.28187499999999,"instrument":4,"program":48,"isDrum":false},{"pitch":78,"velocity":119,"startTime":176.15367,"endTime":176.32193906249998,"instrument":4,"program":48,"isDrum":false},{"pitch":61,"velocity":119,"startTime":176.538285,"endTime":176.7386053125,"instrument":4,"program":48,"isDrum":false},{"pitch":64,"velocity":120,"startTime":176.538285,"endTime":176.7305925,"instrument":4,"program":48,"isDrum":false},{"pitch":69,"velocity":122,"startTime":176.538285,"endTime":176.66648999999998,"instrument":4,"program":48,"isDrum":false},{"pitch":73,"velocity":118,"startTime":176.538285,"endTime":176.69052843749998,"instrument":4,"program":48,"isDrum":false},{"pitch":76,"velocity":122,"startTime":176.538285,"endTime":176.71456687499997,"instrument":4,"program":48,"isDrum":false},{"pitch":60,"velocity":120,"startTime":176.9229,"endTime":176.9870025,"instrument":4,"program":48,"isDrum":false},{"pitch":64,"velocity":119,"startTime":176.9229,"endTime":176.9950153125,"instrument":4,"program":48,"isDrum":false},{"pitch":67,"velocity":119,"startTime":176.9229,"endTime":176.9870025,"instrument":4,"program":48,"isDrum":false},{"pitch":72,"velocity":120,"startTime":176.9229,"endTime":176.9870025,"instrument":4,"program":48,"isDrum":false},{"pitch":76,"velocity":118,"startTime":176.9229,"endTime":176.9950153125,"instrument":4,"program":48,"isDrum":false},{"pitch":60,"velocity":116,"startTime":177.1152075,"endTime":177.21136124999998,"instrument":4,"program":48,"isDrum":false},{"pitch":64,"velocity":108,"startTime":177.1152075,"endTime":177.21937406249998,"instrument":4,"program":48,"isDrum":false},{"pitch":67,"velocity":116,"startTime":177.1152075,"endTime":177.19533562499998,"instrument":4,"program":48,"isDrum":false},{"pitch":72,"velocity":114,"startTime":177.1152075,"endTime":177.18732281249999,"instrument":4,"program":48,"isDrum":false},{"pitch":76,"velocity":116,"startTime":177.1152075,"endTime":177.2033484375,"instrument":4,"program":48,"isDrum":false},{"pitch":60,"velocity":115,"startTime":177.307515,"endTime":177.419694375,"instrument":4,"program":48,"isDrum":false},{"pitch":64,"velocity":117,"startTime":177.307515,"endTime":177.419694375,"instrument":4,"program":48,"isDrum":false},{"pitch":67,"velocity":113,"startTime":177.307515,"endTime":177.38764312499998,"instrument":4,"program":48,"isDrum":false},{"pitch":72,"velocity":116,"startTime":177.307515,"endTime":177.37963031249998,"instrument":4,"program":48,"isDrum":false},{"pitch":76,"velocity":113,"startTime":177.307515,"endTime":177.3956559375,"instrument":4,"program":48,"isDrum":false},{"pitch":60,"velocity":115,"startTime":177.4998225,"endTime":177.6520659375,"instrument":4,"program":48,"isDrum":false},{"pitch":64,"velocity":118,"startTime":177.4998225,"endTime":177.6360403125,"instrument":4,"program":48,"isDrum":false},{"pitch":67,"velocity":119,"startTime":177.4998225,"endTime":177.60398906249998,"instrument":4,"program":48,"isDrum":false},{"pitch":72,"velocity":120,"startTime":177.4998225,"endTime":177.62802749999997,"instrument":4,"program":48,"isDrum":false},{"pitch":76,"velocity":117,"startTime":177.4998225,"endTime":177.6360403125,"instrument":4,"program":48,"isDrum":false},{"pitch":59,"velocity":118,"startTime":177.69213,"endTime":177.8764246875,"instrument":4,"program":48,"isDrum":false},{"pitch":62,"velocity":119,"startTime":177.69213,"endTime":177.868411875,"instrument":4,"program":48,"isDrum":false},{"pitch":67,"velocity":119,"startTime":177.69213,"endTime":177.8283478125,"instrument":4,"program":48,"isDrum":false},{"pitch":71,"velocity":121,"startTime":177.69213,"endTime":177.836360625,"instrument":4,"program":48,"isDrum":false},{"pitch":74,"velocity":119,"startTime":177.69213,"endTime":177.8603990625,"instrument":4,"program":48,"isDrum":false},{"pitch":59,"velocity":115,"startTime":178.076745,"endTime":178.220975625,"instrument":4,"program":48,"isDrum":false},{"pitch":62,"velocity":119,"startTime":178.076745,"endTime":178.20495,"instrument":4,"program":48,"isDrum":false},{"pitch":67,"velocity":117,"startTime":178.076745,"endTime":178.220975625,"instrument":4,"program":48,"isDrum":false},{"pitch":71,"velocity":121,"startTime":178.076745,"endTime":178.17289875,"instrument":4,"program":48,"isDrum":false},{"pitch":74,"velocity":119,"startTime":178.076745,"endTime":178.253026875,"instrument":4,"program":48,"isDrum":false},{"pitch":58,"velocity":121,"startTime":178.46135999999998,"endTime":178.589565,"instrument":4,"program":48,"isDrum":false},{"pitch":65,"velocity":114,"startTime":178.46135999999998,"endTime":178.5655265625,"instrument":4,"program":48,"isDrum":false},{"pitch":70,"velocity":118,"startTime":178.46135999999998,"endTime":178.5495009375,"instrument":4,"program":48,"isDrum":false},{"pitch":74,"velocity":122,"startTime":178.46135999999998,"endTime":178.5655265625,"instrument":4,"program":48,"isDrum":false},{"pitch":77,"velocity":116,"startTime":178.46135999999998,"endTime":178.55751375,"instrument":4,"program":48,"isDrum":false},{"pitch":58,"velocity":115,"startTime":178.65366749999998,"endTime":178.7898853125,"instrument":4,"program":48,"isDrum":false},{"pitch":65,"velocity":114,"startTime":178.65366749999998,"endTime":178.7818725,"instrument":4,"program":48,"isDrum":false},{"pitch":70,"velocity":120,"startTime":178.65366749999998,"endTime":178.74982125,"instrument":4,"program":48,"isDrum":false},{"pitch":74,"velocity":104,"startTime":178.65366749999998,"endTime":178.733795625,"instrument":4,"program":48,"isDrum":false},{"pitch":77,"velocity":117,"startTime":178.65366749999998,"endTime":178.7738596875,"instrument":4,"program":48,"isDrum":false},{"pitch":65,"velocity":105,"startTime":178.84597499999998,"endTime":179.00623125,"instrument":4,"program":48,"isDrum":false},{"pitch":70,"velocity":105,"startTime":178.84597499999998,"endTime":178.94212875,"instrument":4,"program":48,"isDrum":false},{"pitch":74,"velocity":105,"startTime":178.84597499999998,"endTime":178.926103125,"instrument":4,"program":48,"isDrum":false},{"pitch":77,"velocity":105,"startTime":178.84597499999998,"endTime":178.9501415625,"instrument":4,"program":48,"isDrum":false},{"pitch":58,"velocity":119,"startTime":179.03828249999998,"endTime":179.18251312499999,"instrument":4,"program":48,"isDrum":false},{"pitch":70,"velocity":116,"startTime":179.03828249999998,"endTime":179.1424490625,"instrument":4,"program":48,"isDrum":false},{"pitch":74,"velocity":111,"startTime":179.03828249999998,"endTime":179.118410625,"instrument":4,"program":48,"isDrum":false},{"pitch":77,"velocity":118,"startTime":179.03828249999998,"endTime":179.1745003125,"instrument":4,"program":48,"isDrum":false},{"pitch":50,"velocity":122,"startTime":179.23059,"endTime":179.40687187499998,"instrument":4,"program":48,"isDrum":false},{"pitch":62,"velocity":123,"startTime":179.23059,"endTime":179.45494874999997,"instrument":4,"program":48,"isDrum":false},{"pitch":72,"velocity":117,"startTime":179.23059,"endTime":179.43091031249998,"instrument":4,"program":48,"isDrum":false},{"pitch":74,"velocity":117,"startTime":179.23059,"endTime":179.39084625,"instrument":4,"program":48,"isDrum":false},{"pitch":78,"velocity":118,"startTime":179.23059,"endTime":179.4148846875,"instrument":4,"program":48,"isDrum":false},{"pitch":50,"velocity":122,"startTime":179.615205,"endTime":179.8075125,"instrument":4,"program":48,"isDrum":false},{"pitch":62,"velocity":120,"startTime":179.615205,"endTime":179.75943562499998,"instrument":4,"program":48,"isDrum":false},{"pitch":72,"velocity":121,"startTime":179.615205,"endTime":179.77546125,"instrument":4,"program":48,"isDrum":false},{"pitch":74,"velocity":122,"startTime":179.615205,"endTime":179.7834740625,"instrument":4,"program":48,"isDrum":false},{"pitch":78,"velocity":119,"startTime":179.615205,"endTime":179.79148687499998,"instrument":4,"program":48,"isDrum":false},{"pitch":43,"velocity":121,"startTime":179.99982,"endTime":180.1921275,"instrument":4,"program":48,"isDrum":false},{"pitch":55,"velocity":122,"startTime":179.99982,"endTime":180.2001403125,"instrument":4,"program":48,"isDrum":false},{"pitch":71,"velocity":122,"startTime":179.99982,"endTime":180.1680890625,"instrument":4,"program":48,"isDrum":false},{"pitch":74,"velocity":121,"startTime":179.99982,"endTime":180.1921275,"instrument":4,"program":48,"isDrum":false},{"pitch":79,"velocity":119,"startTime":179.99982,"endTime":180.2001403125,"instrument":4,"program":48,"isDrum":false},{"pitch":50,"velocity":116,"startTime":181.153665,"endTime":181.2257803125,"instrument":4,"program":48,"isDrum":false},{"pitch":62,"velocity":114,"startTime":181.153665,"endTime":181.2257803125,"instrument":4,"program":48,"isDrum":false},{"pitch":50,"velocity":113,"startTime":181.3459725,"endTime":181.39404937499998,"instrument":4,"program":48,"isDrum":false},{"pitch":62,"velocity":114,"startTime":181.3459725,"endTime":181.40206218749998,"instrument":4,"program":48,"isDrum":false},{"pitch":52,"velocity":119,"startTime":181.53828,"endTime":181.7065490625,"instrument":4,"program":48,"isDrum":false},{"pitch":64,"velocity":119,"startTime":181.53828,"endTime":181.7225746875,"instrument":4,"program":48,"isDrum":false},{"pitch":50,"velocity":115,"startTime":181.73058749999998,"endTime":181.8187284375,"instrument":4,"program":48,"isDrum":false},{"pitch":62,"velocity":114,"startTime":181.73058749999998,"endTime":181.81071562499997,"instrument":4,"program":48,"isDrum":false},{"pitch":50,"velocity":116,"startTime":182.692125,"endTime":182.7482146875,"instrument":4,"program":48,"isDrum":false},{"pitch":62,"velocity":118,"startTime":182.692125,"endTime":182.7562275,"instrument":4,"program":48,"isDrum":false},{"pitch":50,"velocity":116,"startTime":182.8844325,"endTime":182.948535,"instrument":4,"program":48,"isDrum":false},{"pitch":62,"velocity":116,"startTime":182.8844325,"endTime":182.9565478125,"instrument":4,"program":48,"isDrum":false},{"pitch":52,"velocity":119,"startTime":183.07674,"endTime":183.20494499999998,"instrument":4,"program":48,"isDrum":false},{"pitch":64,"velocity":119,"startTime":183.07674,"endTime":183.220970625,"instrument":4,"program":48,"isDrum":false},{"pitch":50,"velocity":116,"startTime":183.2690475,"endTime":183.349175625,"instrument":4,"program":48,"isDrum":false},{"pitch":62,"velocity":119,"startTime":183.2690475,"endTime":183.3411628125,"instrument":4,"program":48,"isDrum":false},{"pitch":62,"velocity":119,"startTime":183.461355,"endTime":183.5014190625,"instrument":4,"program":48,"isDrum":false},{"pitch":74,"velocity":119,"startTime":183.461355,"endTime":183.5334703125,"instrument":4,"program":48,"isDrum":false},{"pitch":62,"velocity":119,"startTime":183.6536625,"endTime":183.7418034375,"instrument":4,"program":48,"isDrum":false},{"pitch":74,"velocity":121,"startTime":183.6536625,"endTime":183.7898803125,"instrument":4,"program":48,"isDrum":false},{"pitch":64,"velocity":121,"startTime":183.84597,"endTime":184.054303125,"instrument":4,"program":48,"isDrum":false},{"pitch":76,"velocity":116,"startTime":183.84597,"endTime":184.0142390625,"instrument":4,"program":48,"isDrum":false},{"pitch":62,"velocity":119,"startTime":184.0382775,"endTime":184.1905209375,"instrument":4,"program":48,"isDrum":false},{"pitch":74,"velocity":117,"startTime":184.0382775,"endTime":184.2065465625,"instrument":4,"program":48,"isDrum":false},{"pitch":60,"velocity":119,"startTime":184.230585,"endTime":184.3668028125,"instrument":4,"program":48,"isDrum":false},{"pitch":72,"velocity":120,"startTime":184.230585,"endTime":184.3668028125,"instrument":4,"program":48,"isDrum":false},{"pitch":59,"velocity":119,"startTime":184.4228925,"endTime":184.567123125,"instrument":4,"program":48,"isDrum":false},{"pitch":71,"velocity":119,"startTime":184.4228925,"endTime":184.5430846875,"instrument":4,"program":48,"isDrum":false},{"pitch":57,"velocity":119,"startTime":184.6152,"endTime":184.791481875,"instrument":4,"program":48,"isDrum":false},{"pitch":69,"velocity":120,"startTime":184.6152,"endTime":184.7353921875,"instrument":4,"program":48,"isDrum":false},{"pitch":49,"velocity":116,"startTime":187.307505,"endTime":187.37962031249998,"instrument":4,"program":48,"isDrum":false},{"pitch":56,"velocity":113,"startTime":187.307505,"endTime":187.3956459375,"instrument":4,"program":48,"isDrum":false},{"pitch":61,"velocity":113,"startTime":187.307505,"endTime":187.38763312499998,"instrument":4,"program":48,"isDrum":false},{"pitch":48,"velocity":103,"startTime":187.69212,"endTime":187.7562225,"instrument":4,"program":48,"isDrum":false},{"pitch":55,"velocity":107,"startTime":187.69212,"endTime":187.7562225,"instrument":4,"program":48,"isDrum":false},{"pitch":60,"velocity":111,"startTime":187.69212,"endTime":187.7642353125,"instrument":4,"program":48,"isDrum":false},{"pitch":48,"velocity":113,"startTime":187.8844275,"endTime":187.9565428125,"instrument":4,"program":48,"isDrum":false},{"pitch":55,"velocity":111,"startTime":187.8844275,"endTime":187.94051718749998,"instrument":4,"program":48,"isDrum":false},{"pitch":60,"velocity":108,"startTime":187.8844275,"endTime":187.9565428125,"instrument":4,"program":48,"isDrum":false},{"pitch":47,"velocity":117,"startTime":188.07673499999999,"endTime":188.1488503125,"instrument":4,"program":48,"isDrum":false},{"pitch":54,"velocity":117,"startTime":188.07673499999999,"endTime":188.1408375,"instrument":4,"program":48,"isDrum":false},{"pitch":59,"velocity":118,"startTime":188.07673499999999,"endTime":188.1408375,"instrument":4,"program":48,"isDrum":false},{"pitch":48,"velocity":114,"startTime":188.46134999999998,"endTime":188.5494909375,"instrument":4,"program":48,"isDrum":false},{"pitch":55,"velocity":116,"startTime":188.46134999999998,"endTime":188.5334653125,"instrument":4,"program":48,"isDrum":false},{"pitch":60,"velocity":119,"startTime":188.46134999999998,"endTime":188.541478125,"instrument":4,"program":48,"isDrum":false},{"pitch":49,"velocity":116,"startTime":188.84596499999998,"endTime":188.9341059375,"instrument":4,"program":48,"isDrum":false},{"pitch":56,"velocity":117,"startTime":188.84596499999998,"endTime":188.926093125,"instrument":4,"program":48,"isDrum":false},{"pitch":61,"velocity":118,"startTime":188.84596499999998,"endTime":188.926093125,"instrument":4,"program":48,"isDrum":false},{"pitch":48,"velocity":113,"startTime":189.23058,"endTime":189.3026953125,"instrument":4,"program":48,"isDrum":false},{"pitch":55,"velocity":113,"startTime":189.23058,"endTime":189.3026953125,"instrument":4,"program":48,"isDrum":false},{"pitch":60,"velocity":114,"startTime":189.23058,"endTime":189.310708125,"instrument":4,"program":48,"isDrum":false},{"pitch":48,"velocity":104,"startTime":189.4228875,"endTime":189.4950028125,"instrument":4,"program":48,"isDrum":false},{"pitch":55,"velocity":100,"startTime":189.4228875,"endTime":189.470964375,"instrument":4,"program":48,"isDrum":false},{"pitch":60,"velocity":110,"startTime":189.4228875,"endTime":189.48699,"instrument":4,"program":48,"isDrum":false},{"pitch":47,"velocity":118,"startTime":189.615195,"endTime":189.9757715625,"instrument":4,"program":48,"isDrum":false},{"pitch":54,"velocity":116,"startTime":189.615195,"endTime":189.9437203125,"instrument":4,"program":48,"isDrum":false},{"pitch":59,"velocity":114,"startTime":189.615195,"endTime":189.951733125,"instrument":4,"program":48,"isDrum":false},{"pitch":48,"velocity":118,"startTime":189.99981,"endTime":190.34436093749997,"instrument":4,"program":48,"isDrum":false},{"pitch":55,"velocity":115,"startTime":189.99981,"endTime":190.1841046875,"instrument":4,"program":48,"isDrum":false},{"pitch":60,"velocity":117,"startTime":189.99981,"endTime":190.2321815625,"instrument":4,"program":48,"isDrum":false},{"pitch":53,"velocity":119,"startTime":190.384425,"endTime":190.640835,"instrument":4,"program":48,"isDrum":false},{"pitch":65,"velocity":117,"startTime":190.384425,"endTime":190.63282218749998,"instrument":4,"program":48,"isDrum":false},{"pitch":70,"velocity":118,"startTime":190.384425,"endTime":190.67288625,"instrument":4,"program":48,"isDrum":false},{"pitch":74,"velocity":120,"startTime":190.384425,"endTime":190.64884781249998,"instrument":4,"program":48,"isDrum":false},{"pitch":53,"velocity":117,"startTime":190.76904,"endTime":190.84115531249998,"instrument":4,"program":48,"isDrum":false},{"pitch":65,"velocity":117,"startTime":190.76904,"endTime":190.8331425,"instrument":4,"program":48,"isDrum":false},{"pitch":69,"velocity":119,"startTime":190.76904,"endTime":190.82512968749998,"instrument":4,"program":48,"isDrum":false},{"pitch":72,"velocity":119,"startTime":190.76904,"endTime":190.8331425,"instrument":4,"program":48,"isDrum":false},{"pitch":53,"velocity":116,"startTime":190.9613475,"endTime":191.01743718749998,"instrument":4,"program":48,"isDrum":false},{"pitch":65,"velocity":114,"startTime":190.9613475,"endTime":191.00942437499998,"instrument":4,"program":48,"isDrum":false},{"pitch":69,"velocity":118,"startTime":190.9613475,"endTime":191.01743718749998,"instrument":4,"program":48,"isDrum":false},{"pitch":72,"velocity":113,"startTime":190.9613475,"endTime":191.0494884375,"instrument":4,"program":48,"isDrum":false},{"pitch":53,"velocity":117,"startTime":191.153655,"endTime":191.40205218749998,"instrument":4,"program":48,"isDrum":false},{"pitch":65,"velocity":119,"startTime":191.153655,"endTime":191.40205218749998,"instrument":4,"program":48,"isDrum":false},{"pitch":68,"velocity":117,"startTime":191.153655,"endTime":191.410065,"instrument":4,"program":48,"isDrum":false},{"pitch":71,"velocity":119,"startTime":191.153655,"endTime":191.4341034375,"instrument":4,"program":48,"isDrum":false},{"pitch":53,"velocity":117,"startTime":191.53826999999998,"endTime":191.8347440625,"instrument":4,"program":48,"isDrum":false},{"pitch":65,"velocity":114,"startTime":191.53826999999998,"endTime":191.8026928125,"instrument":4,"program":48,"isDrum":false},{"pitch":69,"velocity":118,"startTime":191.53826999999998,"endTime":191.8347440625,"instrument":4,"program":48,"isDrum":false},{"pitch":72,"velocity":115,"startTime":191.53826999999998,"endTime":191.842756875,"instrument":4,"program":48,"isDrum":false},{"pitch":53,"velocity":120,"startTime":191.92288499999998,"endTime":191.9869875,"instrument":4,"program":48,"isDrum":false},{"pitch":65,"velocity":115,"startTime":191.92288499999998,"endTime":191.9789746875,"instrument":4,"program":48,"isDrum":false},{"pitch":70,"velocity":119,"startTime":191.92288499999998,"endTime":191.9789746875,"instrument":4,"program":48,"isDrum":false},{"pitch":74,"velocity":112,"startTime":191.92288499999998,"endTime":191.9869875,"instrument":4,"program":48,"isDrum":false},{"pitch":53,"velocity":118,"startTime":192.1151925,"endTime":192.179295,"instrument":4,"program":48,"isDrum":false},{"pitch":65,"velocity":113,"startTime":192.1151925,"endTime":192.1552565625,"instrument":4,"program":48,"isDrum":false},{"pitch":70,"velocity":118,"startTime":192.1151925,"endTime":192.1873078125,"instrument":4,"program":48,"isDrum":false},{"pitch":74,"velocity":117,"startTime":192.1151925,"endTime":192.179295,"instrument":4,"program":48,"isDrum":false},{"pitch":53,"velocity":121,"startTime":192.3075,"endTime":192.59596125,"instrument":4,"program":48,"isDrum":false},{"pitch":65,"velocity":117,"startTime":192.3075,"endTime":192.579935625,"instrument":4,"program":48,"isDrum":false},{"pitch":69,"velocity":121,"startTime":192.3075,"endTime":192.5719228125,"instrument":4,"program":48,"isDrum":false},{"pitch":72,"velocity":116,"startTime":192.3075,"endTime":192.61999968749998,"instrument":4,"program":48,"isDrum":false},{"pitch":53,"velocity":119,"startTime":192.692115,"endTime":192.7802559375,"instrument":4,"program":48,"isDrum":false},{"pitch":65,"velocity":104,"startTime":192.692115,"endTime":192.7642303125,"instrument":4,"program":48,"isDrum":false},{"pitch":68,"velocity":117,"startTime":192.692115,"endTime":192.78826875,"instrument":4,"program":48,"isDrum":false},{"pitch":71,"velocity":114,"startTime":192.692115,"endTime":192.7562175,"instrument":4,"program":48,"isDrum":false},{"pitch":53,"velocity":118,"startTime":192.8844225,"endTime":192.98057624999998,"instrument":4,"program":48,"isDrum":false},{"pitch":65,"velocity":113,"startTime":192.8844225,"endTime":192.97256343749999,"instrument":4,"program":48,"isDrum":false},{"pitch":68,"velocity":114,"startTime":192.8844225,"endTime":193.00461468749998,"instrument":4,"program":48,"isDrum":false},{"pitch":71,"velocity":116,"startTime":192.8844225,"endTime":193.0206403125,"instrument":4,"program":48,"isDrum":false},{"pitch":53,"velocity":119,"startTime":193.07673,"endTime":193.34115281249998,"instrument":4,"program":48,"isDrum":false},{"pitch":65,"velocity":117,"startTime":193.07673,"endTime":193.3571784375,"instrument":4,"program":48,"isDrum":false},{"pitch":69,"velocity":121,"startTime":193.07673,"endTime":193.3571784375,"instrument":4,"program":48,"isDrum":false},{"pitch":72,"velocity":119,"startTime":193.07673,"endTime":193.37320406249998,"instrument":4,"program":48,"isDrum":false},{"pitch":58,"velocity":118,"startTime":193.461345,"endTime":193.765831875,"instrument":4,"program":48,"isDrum":false},{"pitch":65,"velocity":111,"startTime":193.461345,"endTime":193.72576781249998,"instrument":4,"program":48,"isDrum":false},{"pitch":70,"velocity":118,"startTime":193.461345,"endTime":193.7417934375,"instrument":4,"program":48,"isDrum":false},{"pitch":74,"velocity":117,"startTime":193.461345,"endTime":193.74980625,"instrument":4,"program":48,"isDrum":false},{"pitch":58,"velocity":119,"startTime":193.84596,"endTime":193.9661521875,"instrument":4,"program":48,"isDrum":false},{"pitch":65,"velocity":112,"startTime":193.84596,"endTime":193.94211375,"instrument":4,"program":48,"isDrum":false},{"pitch":70,"velocity":117,"startTime":193.84596,"endTime":193.990190625,"instrument":4,"program":48,"isDrum":false},{"pitch":74,"velocity":119,"startTime":193.84596,"endTime":193.9821778125,"instrument":4,"program":48,"isDrum":false},{"pitch":58,"velocity":117,"startTime":194.0382675,"endTime":194.1744853125,"instrument":4,"program":48,"isDrum":false},{"pitch":65,"velocity":107,"startTime":194.0382675,"endTime":194.1103828125,"instrument":4,"program":48,"isDrum":false},{"pitch":76,"velocity":104,"startTime":194.0382675,"endTime":194.1264084375,"instrument":4,"program":48,"isDrum":false},{"pitch":57,"velocity":119,"startTime":194.230575,"endTime":194.35878,"instrument":4,"program":48,"isDrum":false},{"pitch":65,"velocity":121,"startTime":194.230575,"endTime":194.33474156249997,"instrument":4,"program":48,"isDrum":false},{"pitch":69,"velocity":120,"startTime":194.230575,"endTime":194.342754375,"instrument":4,"program":48,"isDrum":false},{"pitch":72,"velocity":117,"startTime":194.230575,"endTime":194.3667928125,"instrument":4,"program":48,"isDrum":false},{"pitch":57,"velocity":119,"startTime":194.61518999999998,"endTime":194.7033309375,"instrument":4,"program":48,"isDrum":false},{"pitch":69,"velocity":119,"startTime":194.61518999999998,"endTime":194.7674334375,"instrument":4,"program":48,"isDrum":false},{"pitch":72,"velocity":119,"startTime":194.61518999999998,"endTime":194.759420625,"instrument":4,"program":48,"isDrum":false},{"pitch":57,"velocity":119,"startTime":194.80749749999998,"endTime":194.9597409375,"instrument":4,"program":48,"isDrum":false},{"pitch":65,"velocity":118,"startTime":194.80749749999998,"endTime":194.9276896875,"instrument":4,"program":48,"isDrum":false},{"pitch":55,"velocity":121,"startTime":194.99980499999998,"endTime":195.15204843749999,"instrument":4,"program":48,"isDrum":false},{"pitch":65,"velocity":116,"startTime":194.99980499999998,"endTime":195.111984375,"instrument":4,"program":48,"isDrum":false},{"pitch":67,"velocity":118,"startTime":194.99980499999998,"endTime":195.1199971875,"instrument":4,"program":48,"isDrum":false},{"pitch":71,"velocity":119,"startTime":194.99980499999998,"endTime":195.12801,"instrument":4,"program":48,"isDrum":false},{"pitch":55,"velocity":117,"startTime":195.38442,"endTime":195.51262499999999,"instrument":4,"program":48,"isDrum":false},{"pitch":65,"velocity":117,"startTime":195.38442,"endTime":195.48057375,"instrument":4,"program":48,"isDrum":false},{"pitch":67,"velocity":119,"startTime":195.38442,"endTime":195.496599375,"instrument":4,"program":48,"isDrum":false},{"pitch":71,"velocity":121,"startTime":195.38442,"endTime":195.5046121875,"instrument":4,"program":48,"isDrum":false},{"pitch":55,"velocity":115,"startTime":195.5767275,"endTime":195.80108625,"instrument":4,"program":48,"isDrum":false},{"pitch":65,"velocity":115,"startTime":195.5767275,"endTime":195.70493249999998,"instrument":4,"program":48,"isDrum":false},{"pitch":67,"velocity":115,"startTime":195.5767275,"endTime":195.70493249999998,"instrument":4,"program":48,"isDrum":false},{"pitch":71,"velocity":116,"startTime":195.5767275,"endTime":195.7610221875,"instrument":4,"program":48,"isDrum":false},{"pitch":48,"velocity":119,"startTime":195.769035,"endTime":195.9533296875,"instrument":4,"program":48,"isDrum":false},{"pitch":60,"velocity":121,"startTime":195.769035,"endTime":195.9613425,"instrument":4,"program":48,"isDrum":false},{"pitch":64,"velocity":119,"startTime":195.769035,"endTime":195.96935531249997,"instrument":4,"program":48,"isDrum":false},{"pitch":67,"velocity":121,"startTime":195.769035,"endTime":195.977368125,"instrument":4,"program":48,"isDrum":false},{"pitch":72,"velocity":119,"startTime":195.769035,"endTime":196.0014065625,"instrument":4,"program":48,"isDrum":false},{"pitch":49,"velocity":113,"startTime":198.07672499999998,"endTime":198.10076343749998,"instrument":4,"program":48,"isDrum":false},{"pitch":56,"velocity":113,"startTime":198.07672499999998,"endTime":198.124801875,"instrument":4,"program":48,"isDrum":false},{"pitch":61,"velocity":113,"startTime":198.07672499999998,"endTime":198.124801875,"instrument":4,"program":48,"isDrum":false},{"pitch":49,"velocity":113,"startTime":198.26903249999998,"endTime":198.33313499999997,"instrument":4,"program":48,"isDrum":false},{"pitch":56,"velocity":115,"startTime":198.26903249999998,"endTime":198.3251221875,"instrument":4,"program":48,"isDrum":false},{"pitch":36,"velocity":114,"startTime":198.46133999999998,"endTime":198.509416875,"instrument":4,"program":48,"isDrum":false},{"pitch":43,"velocity":116,"startTime":198.46133999999998,"endTime":198.5174296875,"instrument":4,"program":48,"isDrum":false},{"pitch":48,"velocity":118,"startTime":198.46133999999998,"endTime":198.5174296875,"instrument":4,"program":48,"isDrum":false},{"pitch":35,"velocity":103,"startTime":198.845955,"endTime":198.87800625,"instrument":4,"program":48,"isDrum":false},{"pitch":42,"velocity":113,"startTime":198.845955,"endTime":198.894031875,"instrument":4,"program":48,"isDrum":false},{"pitch":47,"velocity":112,"startTime":198.845955,"endTime":198.88601906249997,"instrument":4,"program":48,"isDrum":false},{"pitch":35,"velocity":108,"startTime":199.0382625,"endTime":199.07832656249997,"instrument":4,"program":48,"isDrum":false},{"pitch":42,"velocity":112,"startTime":199.0382625,"endTime":199.086339375,"instrument":4,"program":48,"isDrum":false},{"pitch":47,"velocity":100,"startTime":199.0382625,"endTime":199.07832656249997,"instrument":4,"program":48,"isDrum":false},{"pitch":36,"velocity":118,"startTime":199.23057,"endTime":199.31069812500002,"instrument":4,"program":48,"isDrum":false},{"pitch":43,"velocity":112,"startTime":199.23057,"endTime":199.3026853125,"instrument":4,"program":48,"isDrum":false},{"pitch":48,"velocity":113,"startTime":199.23057,"endTime":199.31069812500002,"instrument":4,"program":48,"isDrum":false},{"pitch":37,"velocity":115,"startTime":199.615185,"endTime":199.6792875,"instrument":4,"program":48,"isDrum":false},{"pitch":44,"velocity":117,"startTime":199.615185,"endTime":199.663261875,"instrument":4,"program":48,"isDrum":false},{"pitch":49,"velocity":112,"startTime":199.615185,"endTime":199.6792875,"instrument":4,"program":48,"isDrum":false},{"pitch":37,"velocity":115,"startTime":199.8074925,"endTime":199.87159499999999,"instrument":4,"program":48,"isDrum":false},{"pitch":44,"velocity":112,"startTime":199.8074925,"endTime":199.87159499999999,"instrument":4,"program":48,"isDrum":false},{"pitch":49,"velocity":104,"startTime":199.8074925,"endTime":199.87159499999999,"instrument":4,"program":48,"isDrum":false},{"pitch":36,"velocity":111,"startTime":199.9998,"endTime":200.07191531249998,"instrument":4,"program":48,"isDrum":false},{"pitch":43,"velocity":112,"startTime":199.9998,"endTime":200.0558896875,"instrument":4,"program":48,"isDrum":false},{"pitch":48,"velocity":111,"startTime":199.9998,"endTime":200.06390249999998,"instrument":4,"program":48,"isDrum":false},{"pitch":36,"velocity":104,"startTime":200.1921075,"endTime":200.28024843749998,"instrument":4,"program":48,"isDrum":false},{"pitch":48,"velocity":100,"startTime":200.1921075,"endTime":200.26422281249998,"instrument":4,"program":48,"isDrum":false},{"pitch":35,"velocity":115,"startTime":200.384415,"endTime":200.54467124999996,"instrument":4,"program":48,"isDrum":false},{"pitch":42,"velocity":114,"startTime":200.384415,"endTime":200.44851749999998,"instrument":4,"program":48,"isDrum":false},{"pitch":47,"velocity":115,"startTime":200.384415,"endTime":200.47255593749998,"instrument":4,"program":48,"isDrum":false},{"pitch":48,"velocity":116,"startTime":200.76903,"endTime":200.88120937499997,"instrument":4,"program":48,"isDrum":false},{"pitch":60,"velocity":116,"startTime":200.76903,"endTime":200.8731965625,"instrument":4,"program":48,"isDrum":false},{"pitch":64,"velocity":116,"startTime":200.76903,"endTime":200.897235,"instrument":4,"program":48,"isDrum":false},{"pitch":67,"velocity":116,"startTime":200.76903,"endTime":200.90524781249997,"instrument":4,"program":48,"isDrum":false},{"pitch":72,"velocity":116,"startTime":200.76903,"endTime":200.96133749999998,"instrument":4,"program":48,"isDrum":false},{"pitch":41,"velocity":116,"startTime":201.15364499999998,"endTime":201.2738371875,"instrument":4,"program":48,"isDrum":false},{"pitch":60,"velocity":116,"startTime":201.15364499999998,"endTime":201.24979875,"instrument":4,"program":48,"isDrum":false},{"pitch":65,"velocity":116,"startTime":201.15364499999998,"endTime":201.2738371875,"instrument":4,"program":48,"isDrum":false},{"pitch":69,"velocity":116,"startTime":201.15364499999998,"endTime":201.28185000000002,"instrument":4,"program":48,"isDrum":false},{"pitch":72,"velocity":116,"startTime":201.15364499999998,"endTime":201.28185000000002,"instrument":4,"program":48,"isDrum":false},{"pitch":77,"velocity":116,"startTime":201.15364499999998,"endTime":201.34595249999998,"instrument":4,"program":48,"isDrum":false},{"pitch":48,"velocity":117,"startTime":201.53825999999998,"endTime":201.68249062499999,"instrument":4,"program":48,"isDrum":false},{"pitch":60,"velocity":119,"startTime":201.53825999999998,"endTime":201.618388125,"instrument":4,"program":48,"isDrum":false},{"pitch":64,"velocity":118,"startTime":201.53825999999998,"endTime":201.650439375,"instrument":4,"program":48,"isDrum":false},{"pitch":67,"velocity":120,"startTime":201.53825999999998,"endTime":201.66646500000002,"instrument":4,"program":48,"isDrum":false},{"pitch":41,"velocity":114,"startTime":201.922875,"endTime":202.3155028125,"instrument":4,"program":48,"isDrum":false},{"pitch":65,"velocity":119,"startTime":201.922875,"endTime":202.2834515625,"instrument":4,"program":48,"isDrum":false},{"pitch":69,"velocity":121,"startTime":201.922875,"endTime":202.3155028125,"instrument":4,"program":48,"isDrum":false},{"pitch":72,"velocity":119,"startTime":201.922875,"endTime":202.3155028125,"instrument":4,"program":48,"isDrum":false},{"pitch":77,"velocity":122,"startTime":201.922875,"endTime":202.30749,"instrument":4,"program":48,"isDrum":false},{"pitch":29,"velocity":118,"startTime":203.6536425,"endTime":203.76582187499997,"instrument":4,"program":48,"isDrum":false},{"pitch":41,"velocity":123,"startTime":203.6536425,"endTime":203.74178343749998,"instrument":4,"program":48,"isDrum":false},{"pitch":65,"velocity":119,"startTime":203.6536425,"endTime":203.7578090625,"instrument":4,"program":48,"isDrum":false},{"pitch":72,"velocity":119,"startTime":203.6536425,"endTime":203.7818475,"instrument":4,"program":48,"isDrum":false},{"pitch":77,"velocity":118,"startTime":203.6536425,"endTime":203.7818475,"instrument":4,"program":48,"isDrum":false},{"pitch":29,"velocity":116,"startTime":203.84595,"endTime":203.974155,"instrument":4,"program":48,"isDrum":false},{"pitch":41,"velocity":116,"startTime":203.84595,"endTime":203.974155,"instrument":4,"program":48,"isDrum":false},{"pitch":65,"velocity":119,"startTime":203.84595,"endTime":203.95812937499997,"instrument":4,"program":48,"isDrum":false},{"pitch":72,"velocity":119,"startTime":203.84595,"endTime":203.98216781249997,"instrument":4,"program":48,"isDrum":false},{"pitch":77,"velocity":117,"startTime":203.84595,"endTime":203.9661421875,"instrument":4,"program":48,"isDrum":false},{"pitch":29,"velocity":113,"startTime":204.0382575,"endTime":204.58312875,"instrument":4,"program":48,"isDrum":false},{"pitch":41,"velocity":122,"startTime":204.0382575,"endTime":204.58312875,"instrument":4,"program":48,"isDrum":false},{"pitch":65,"velocity":123,"startTime":204.0382575,"endTime":204.470949375,"instrument":4,"program":48,"isDrum":false},{"pitch":72,"velocity":116,"startTime":204.0382575,"endTime":204.470949375,"instrument":4,"program":48,"isDrum":false},{"pitch":77,"velocity":119,"startTime":204.0382575,"endTime":204.45492375,"instrument":4,"program":48,"isDrum":false},{"pitch":36,"velocity":120,"startTime":204.61517999999998,"endTime":204.8155003125,"instrument":4,"program":48,"isDrum":false},{"pitch":60,"velocity":119,"startTime":204.61517999999998,"endTime":204.6872953125,"instrument":4,"program":48,"isDrum":false},{"pitch":72,"velocity":120,"startTime":204.61517999999998,"endTime":204.7674234375,"instrument":4,"program":48,"isDrum":false},{"pitch":29,"velocity":119,"startTime":204.999795,"endTime":205.16806406249998,"instrument":4,"program":48,"isDrum":false},{"pitch":41,"velocity":120,"startTime":204.999795,"endTime":205.16806406249998,"instrument":4,"program":48,"isDrum":false},{"pitch":65,"velocity":120,"startTime":204.999795,"endTime":205.1199871875,"instrument":4,"program":48,"isDrum":false},{"pitch":69,"velocity":120,"startTime":204.999795,"endTime":205.14402562499998,"instrument":4,"program":48,"isDrum":false},{"pitch":72,"velocity":118,"startTime":204.999795,"endTime":205.14402562499998,"instrument":4,"program":48,"isDrum":false},{"pitch":77,"velocity":122,"startTime":204.999795,"endTime":205.13601281249998,"instrument":4,"program":48,"isDrum":false},{"pitch":36,"velocity":118,"startTime":205.38441,"endTime":205.59274312499997,"instrument":4,"program":48,"isDrum":false},{"pitch":60,"velocity":121,"startTime":205.38441,"endTime":205.4725509375,"instrument":4,"program":48,"isDrum":false},{"pitch":64,"velocity":119,"startTime":205.38441,"endTime":205.48857656250001,"instrument":4,"program":48,"isDrum":false},{"pitch":67,"velocity":122,"startTime":205.38441,"endTime":205.49658937499999,"instrument":4,"program":48,"isDrum":false},{"pitch":72,"velocity":121,"startTime":205.38441,"endTime":205.52062781249998,"instrument":4,"program":48,"isDrum":false},{"pitch":29,"velocity":117,"startTime":205.769025,"endTime":206.297870625,"instrument":4,"program":48,"isDrum":false},{"pitch":41,"velocity":123,"startTime":205.769025,"endTime":206.297870625,"instrument":4,"program":48,"isDrum":false},{"pitch":65,"velocity":119,"startTime":205.769025,"endTime":206.2738321875,"instrument":4,"program":48,"isDrum":false},{"pitch":69,"velocity":121,"startTime":205.769025,"endTime":206.281845,"instrument":4,"program":48,"isDrum":false},{"pitch":72,"velocity":122,"startTime":205.769025,"endTime":206.2738321875,"instrument":4,"program":48,"isDrum":false},{"pitch":77,"velocity":123,"startTime":205.769025,"endTime":206.281845,"instrument":4,"program":48,"isDrum":false},{"pitch":65,"velocity":119,"startTime":207.49979249999998,"endTime":207.6279975,"instrument":4,"program":48,"isDrum":false},{"pitch":72,"velocity":118,"startTime":207.49979249999998,"endTime":207.6279975,"instrument":4,"program":48,"isDrum":false},{"pitch":77,"velocity":111,"startTime":207.49979249999998,"endTime":207.6279975,"instrument":4,"program":48,"isDrum":false},{"pitch":65,"velocity":117,"startTime":207.69209999999998,"endTime":207.8283178125,"instrument":4,"program":48,"isDrum":false},{"pitch":72,"velocity":117,"startTime":207.69209999999998,"endTime":207.85235624999999,"instrument":4,"program":48,"isDrum":false},{"pitch":77,"velocity":117,"startTime":207.69209999999998,"endTime":207.84434343750002,"instrument":4,"program":48,"isDrum":false},{"pitch":65,"velocity":117,"startTime":207.88440749999998,"endTime":208.07671499999998,"instrument":4,"program":48,"isDrum":false},{"pitch":72,"velocity":117,"startTime":207.88440749999998,"endTime":208.07671499999998,"instrument":4,"program":48,"isDrum":false},{"pitch":77,"velocity":117,"startTime":207.88440749999998,"endTime":207.98056125,"instrument":4,"program":48,"isDrum":false},{"pitch":77,"velocity":98,"startTime":208.07671499999998,"endTime":208.9981884375,"instrument":4,"program":48,"isDrum":false},{"pitch":65,"velocity":119,"startTime":209.0382525,"endTime":209.15043187499998,"instrument":4,"program":48,"isDrum":false},{"pitch":72,"velocity":119,"startTime":209.0382525,"endTime":209.1664575,"instrument":4,"program":48,"isDrum":false},{"pitch":77,"velocity":114,"startTime":209.0382525,"endTime":209.1664575,"instrument":4,"program":48,"isDrum":false},{"pitch":65,"velocity":118,"startTime":209.23056,"endTime":209.4228675,"instrument":4,"program":48,"isDrum":false},{"pitch":72,"velocity":118,"startTime":209.23056,"endTime":209.4228675,"instrument":4,"program":48,"isDrum":false},{"pitch":77,"velocity":117,"startTime":209.23056,"endTime":209.41485468749997,"instrument":4,"program":48,"isDrum":false},{"pitch":65,"velocity":117,"startTime":209.4228675,"endTime":209.615175,"instrument":4,"program":48,"isDrum":false},{"pitch":72,"velocity":117,"startTime":209.4228675,"endTime":209.615175,"instrument":4,"program":48,"isDrum":false},{"pitch":77,"velocity":117,"startTime":209.4228675,"endTime":209.51902124999998,"instrument":4,"program":48,"isDrum":false},{"pitch":77,"velocity":94,"startTime":209.615175,"endTime":210.57671249999999,"instrument":4,"program":48,"isDrum":false},{"pitch":77,"velocity":116,"startTime":210.76901999999998,"endTime":210.8892121875,"instrument":4,"program":48,"isDrum":false},{"pitch":77,"velocity":116,"startTime":210.96132749999998,"endTime":211.7385703125,"instrument":4,"program":48,"isDrum":false},{"pitch":75,"velocity":116,"startTime":211.15363499999998,"endTime":212.9885690625,"instrument":4,"program":48,"isDrum":false},{"pitch":72,"velocity":107,"startTime":211.34594249999998,"endTime":212.53183875000002,"instrument":4,"program":48,"isDrum":false},{"pitch":68,"velocity":118,"startTime":211.7305575,"endTime":212.98055624999998,"instrument":4,"program":48,"isDrum":false},{"pitch":65,"velocity":118,"startTime":212.1151725,"endTime":213.0045946875,"instrument":4,"program":48,"isDrum":false},{"pitch":63,"velocity":117,"startTime":212.4997875,"endTime":212.5238259375,"instrument":4,"program":48,"isDrum":false},{"pitch":60,"velocity":116,"startTime":213.2690175,"endTime":213.42927374999996,"instrument":4,"program":48,"isDrum":false},{"pitch":67,"velocity":116,"startTime":213.2690175,"endTime":213.461325,"instrument":4,"program":48,"isDrum":false},{"pitch":72,"velocity":116,"startTime":213.2690175,"endTime":213.4533121875,"instrument":4,"program":48,"isDrum":false},{"pitch":59,"velocity":114,"startTime":213.6536325,"endTime":213.797863125,"instrument":4,"program":48,"isDrum":false},{"pitch":65,"velocity":114,"startTime":213.6536325,"endTime":213.84593999999998,"instrument":4,"program":48,"isDrum":false},{"pitch":71,"velocity":114,"startTime":213.6536325,"endTime":213.84593999999998,"instrument":4,"program":48,"isDrum":false},{"pitch":74,"velocity":114,"startTime":213.6536325,"endTime":213.84593999999998,"instrument":4,"program":48,"isDrum":false},{"pitch":63,"velocity":115,"startTime":214.03824749999998,"endTime":214.22254218749998,"instrument":4,"program":48,"isDrum":false},{"pitch":71,"velocity":115,"startTime":214.03824749999998,"endTime":214.23055499999998,"instrument":4,"program":48,"isDrum":false},{"pitch":75,"velocity":115,"startTime":214.03824749999998,"endTime":214.22254218749998,"instrument":4,"program":48,"isDrum":false},{"pitch":62,"velocity":116,"startTime":214.42286249999998,"endTime":214.5751059375,"instrument":4,"program":48,"isDrum":false},{"pitch":67,"velocity":116,"startTime":214.42286249999998,"endTime":214.61516999999998,"instrument":4,"program":48,"isDrum":false},{"pitch":74,"velocity":116,"startTime":214.42286249999998,"endTime":214.61516999999998,"instrument":4,"program":48,"isDrum":false},{"pitch":77,"velocity":116,"startTime":214.42286249999998,"endTime":214.61516999999998,"instrument":4,"program":48,"isDrum":false},{"pitch":59,"velocity":120,"startTime":214.8074775,"endTime":214.999785,"instrument":4,"program":48,"isDrum":false},{"pitch":68,"velocity":120,"startTime":214.8074775,"endTime":214.97574656249998,"instrument":4,"program":48,"isDrum":false},{"pitch":74,"velocity":120,"startTime":214.8074775,"endTime":214.999785,"instrument":4,"program":48,"isDrum":false},{"pitch":80,"velocity":120,"startTime":214.8074775,"endTime":214.97574656249998,"instrument":4,"program":48,"isDrum":false},{"pitch":55,"velocity":120,"startTime":215.1920925,"endTime":215.3844,"instrument":4,"program":48,"isDrum":false},{"pitch":67,"velocity":120,"startTime":215.1920925,"endTime":215.3603615625,"instrument":4,"program":48,"isDrum":false},{"pitch":77,"velocity":120,"startTime":215.1920925,"endTime":215.3844,"instrument":4,"program":48,"isDrum":false},{"pitch":83,"velocity":120,"startTime":215.1920925,"endTime":215.3844,"instrument":4,"program":48,"isDrum":false},{"pitch":24,"velocity":120,"startTime":215.5767075,"endTime":215.7930534375,"instrument":4,"program":48,"isDrum":false},{"pitch":48,"velocity":120,"startTime":215.5767075,"endTime":215.769015,"instrument":4,"program":48,"isDrum":false},{"pitch":60,"velocity":120,"startTime":215.5767075,"endTime":215.7770278125,"instrument":4,"program":48,"isDrum":false},{"pitch":72,"velocity":120,"startTime":215.5767075,"endTime":215.7930534375,"instrument":4,"program":48,"isDrum":false},{"pitch":67,"velocity":113,"startTime":216.7305525,"endTime":216.810680625,"instrument":4,"program":48,"isDrum":false},{"pitch":67,"velocity":108,"startTime":216.92286,"endTime":217.10715468749999,"instrument":4,"program":48,"isDrum":false},{"pitch":69,"velocity":118,"startTime":217.11516749999998,"endTime":217.2834365625,"instrument":4,"program":48,"isDrum":false},{"pitch":67,"velocity":118,"startTime":217.30747499999998,"endTime":217.7161284375,"instrument":4,"program":48,"isDrum":false},{"pitch":48,"velocity":120,"startTime":217.49978249999998,"endTime":217.59593625,"instrument":4,"program":48,"isDrum":false},{"pitch":55,"velocity":120,"startTime":217.49978249999998,"endTime":217.579910625,"instrument":4,"program":48,"isDrum":false},{"pitch":64,"velocity":119,"startTime":217.49978249999998,"endTime":217.6199746875,"instrument":4,"program":48,"isDrum":false},{"pitch":48,"velocity":113,"startTime":217.69208999999998,"endTime":217.772218125,"instrument":4,"program":48,"isDrum":false},{"pitch":55,"velocity":116,"startTime":217.69208999999998,"endTime":217.772218125,"instrument":4,"program":48,"isDrum":false},{"pitch":64,"velocity":118,"startTime":217.69208999999998,"endTime":217.772218125,"instrument":4,"program":48,"isDrum":false},{"pitch":50,"velocity":122,"startTime":217.88439749999998,"endTime":217.964525625,"instrument":4,"program":48,"isDrum":false},{"pitch":57,"velocity":119,"startTime":217.88439749999998,"endTime":217.964525625,"instrument":4,"program":48,"isDrum":false},{"pitch":65,"velocity":115,"startTime":217.88439749999998,"endTime":217.964525625,"instrument":4,"program":48,"isDrum":false},{"pitch":48,"velocity":108,"startTime":218.076705,"endTime":218.15683312500002,"instrument":4,"program":48,"isDrum":false},{"pitch":55,"velocity":121,"startTime":218.076705,"endTime":218.15683312500002,"instrument":4,"program":48,"isDrum":false},{"pitch":64,"velocity":120,"startTime":218.076705,"endTime":218.15683312500002,"instrument":4,"program":48,"isDrum":false},{"pitch":47,"velocity":119,"startTime":218.2690125,"endTime":218.34914062500002,"instrument":4,"program":48,"isDrum":false},{"pitch":53,"velocity":118,"startTime":218.2690125,"endTime":218.34914062500002,"instrument":4,"program":48,"isDrum":false},{"pitch":62,"velocity":119,"startTime":218.2690125,"endTime":218.34914062500002,"instrument":4,"program":48,"isDrum":false},{"pitch":45,"velocity":119,"startTime":218.46132,"endTime":218.54144812500002,"instrument":4,"program":48,"isDrum":false},{"pitch":52,"velocity":121,"startTime":218.46132,"endTime":218.54144812500002,"instrument":4,"program":48,"isDrum":false},{"pitch":60,"velocity":119,"startTime":218.46132,"endTime":218.5334353125,"instrument":4,"program":48,"isDrum":false},{"pitch":43,"velocity":123,"startTime":218.6536275,"endTime":218.894011875,"instrument":4,"program":48,"isDrum":false},{"pitch":50,"velocity":123,"startTime":218.6536275,"endTime":218.87798625,"instrument":4,"program":48,"isDrum":false},{"pitch":59,"velocity":122,"startTime":218.6536275,"endTime":218.894011875,"instrument":4,"program":48,"isDrum":false},{"pitch":55,"velocity":119,"startTime":219.4228575,"endTime":219.87157499999998,"instrument":4,"program":48,"isDrum":false},{"pitch":60,"velocity":119,"startTime":219.4228575,"endTime":219.87958781249998,"instrument":4,"program":48,"isDrum":false},{"pitch":55,"velocity":117,"startTime":219.99978,"endTime":220.09593375,"instrument":4,"program":48,"isDrum":false},{"pitch":60,"velocity":110,"startTime":219.99978,"endTime":220.11195937499997,"instrument":4,"program":48,"isDrum":false},{"pitch":53,"velocity":119,"startTime":220.19208749999999,"endTime":220.272215625,"instrument":4,"program":48,"isDrum":false},{"pitch":57,"velocity":119,"startTime":220.19208749999999,"endTime":220.28022843749997,"instrument":4,"program":48,"isDrum":false},{"pitch":60,"velocity":117,"startTime":220.19208749999999,"endTime":220.3202925,"instrument":4,"program":48,"isDrum":false},{"pitch":53,"velocity":119,"startTime":220.57670249999998,"endTime":220.6488178125,"instrument":4,"program":48,"isDrum":false},{"pitch":57,"velocity":119,"startTime":220.57670249999998,"endTime":220.66484343749997,"instrument":4,"program":48,"isDrum":false},{"pitch":60,"velocity":119,"startTime":220.57670249999998,"endTime":220.6808690625,"instrument":4,"program":48,"isDrum":false},{"pitch":53,"velocity":114,"startTime":220.76900999999998,"endTime":220.849138125,"instrument":4,"program":48,"isDrum":false},{"pitch":57,"velocity":114,"startTime":220.76900999999998,"endTime":220.83311249999997,"instrument":4,"program":48,"isDrum":false},{"pitch":60,"velocity":111,"startTime":220.76900999999998,"endTime":220.88118937499996,"instrument":4,"program":48,"isDrum":false},{"pitch":52,"velocity":118,"startTime":220.96131749999998,"endTime":221.0334328125,"instrument":4,"program":48,"isDrum":false},{"pitch":56,"velocity":118,"startTime":220.96131749999998,"endTime":221.04945843749996,"instrument":4,"program":48,"isDrum":false},{"pitch":59,"velocity":118,"startTime":220.96131749999998,"endTime":221.073496875,"instrument":4,"program":48,"isDrum":false},{"pitch":52,"velocity":106,"startTime":221.153625,"endTime":221.21772749999997,"instrument":4,"program":48,"isDrum":false},{"pitch":56,"velocity":107,"startTime":221.153625,"endTime":221.24977875,"instrument":4,"program":48,"isDrum":false},{"pitch":59,"velocity":110,"startTime":221.153625,"endTime":221.24977875,"instrument":4,"program":48,"isDrum":false},{"pitch":52,"velocity":116,"startTime":221.3459325,"endTime":221.42606062500002,"instrument":4,"program":48,"isDrum":false},{"pitch":56,"velocity":116,"startTime":221.3459325,"endTime":221.44208625,"instrument":4,"program":48,"isDrum":false},{"pitch":59,"velocity":117,"startTime":221.3459325,"endTime":221.45009906250002,"instrument":4,"program":48,"isDrum":false},{"pitch":52,"velocity":116,"startTime":221.53824,"endTime":221.61836812500002,"instrument":4,"program":48,"isDrum":false},{"pitch":56,"velocity":116,"startTime":221.53824,"endTime":221.65843218749998,"instrument":4,"program":48,"isDrum":false},{"pitch":59,"velocity":115,"startTime":221.53824,"endTime":221.666445,"instrument":4,"program":48,"isDrum":false},{"pitch":52,"velocity":118,"startTime":221.7305475,"endTime":221.86676531249998,"instrument":4,"program":48,"isDrum":false},{"pitch":57,"velocity":119,"startTime":221.7305475,"endTime":221.8827909375,"instrument":4,"program":48,"isDrum":false},{"pitch":60,"velocity":116,"startTime":221.7305475,"endTime":221.8988165625,"instrument":4,"program":48,"isDrum":false},{"pitch":52,"velocity":120,"startTime":222.1151625,"endTime":222.2674059375,"instrument":4,"program":48,"isDrum":false},{"pitch":57,"velocity":122,"startTime":222.1151625,"endTime":222.291444375,"instrument":4,"program":48,"isDrum":false},{"pitch":60,"velocity":118,"startTime":222.1151625,"endTime":222.2834315625,"instrument":4,"program":48,"isDrum":false},{"pitch":52,"velocity":118,"startTime":222.4997775,"endTime":223.99817343750001,"instrument":4,"program":48,"isDrum":false},{"pitch":55,"velocity":119,"startTime":222.4997775,"endTime":226.77060656249998,"instrument":4,"program":48,"isDrum":false},{"pitch":58,"velocity":103,"startTime":222.4997775,"endTime":226.72252968749999,"instrument":4,"program":48,"isDrum":false},{"pitch":60,"velocity":107,"startTime":224.03823749999998,"endTime":226.810670625,"instrument":4,"program":48,"isDrum":false},{"pitch":64,"velocity":116,"startTime":224.03823749999998,"endTime":225.59272312499996,"instrument":4,"program":48,"isDrum":false},{"pitch":67,"velocity":113,"startTime":225.5766975,"endTime":227.15522156249997,"instrument":4,"program":48,"isDrum":false},{"pitch":60,"velocity":119,"startTime":227.11515749999998,"endTime":228.057339375,"instrument":4,"program":48,"isDrum":false},{"pitch":72,"velocity":113,"startTime":227.11515749999998,"endTime":228.057339375,"instrument":4,"program":48,"isDrum":false},{"pitch":84,"velocity":115,"startTime":227.11515749999998,"endTime":228.0370471875,"instrument":4,"program":48,"isDrum":false},{"pitch":43,"velocity":116,"startTime":276.723,"endTime":277.49223,"instrument":4,"program":48,"isDrum":false},{"pitch":55,"velocity":115,"startTime":276.723,"endTime":277.5162684375,"instrument":4,"program":48,"isDrum":false},{"pitch":67,"velocity":104,"startTime":276.723,"endTime":277.8367809375,"instrument":4,"program":48,"isDrum":false},{"pitch":71,"velocity":103,"startTime":276.723,"endTime":277.4201146875,"instrument":4,"program":48,"isDrum":false},{"pitch":74,"velocity":101,"startTime":276.723,"endTime":277.5002428125,"instrument":4,"program":48,"isDrum":false},{"pitch":79,"velocity":113,"startTime":276.723,"endTime":277.8127425,"instrument":4,"program":48,"isDrum":false},{"pitch":48,"velocity":117,"startTime":277.49223,"endTime":277.8047296875,"instrument":4,"program":48,"isDrum":false},{"pitch":72,"velocity":116,"startTime":277.49223,"endTime":277.8528065625,"instrument":4,"program":48,"isDrum":false},{"pitch":75,"velocity":101,"startTime":277.49223,"endTime":277.84479375,"instrument":4,"program":48,"isDrum":false},{"pitch":43,"velocity":116,"startTime":278.26146,"endTime":278.9906259375,"instrument":4,"program":48,"isDrum":false},{"pitch":55,"velocity":118,"startTime":278.26146,"endTime":279.0226771875,"instrument":4,"program":48,"isDrum":false},{"pitch":67,"velocity":111,"startTime":278.26146,"endTime":279.431330625,"instrument":4,"program":48,"isDrum":false},{"pitch":71,"velocity":111,"startTime":278.26146,"endTime":278.8944721875,"instrument":4,"program":48,"isDrum":false},{"pitch":74,"velocity":112,"startTime":278.26146,"endTime":279.014664375,"instrument":4,"program":48,"isDrum":false},{"pitch":79,"velocity":115,"startTime":278.26146,"endTime":279.2790871875,"instrument":4,"program":48,"isDrum":false},{"pitch":48,"velocity":119,"startTime":279.03069,"endTime":279.335176875,"instrument":4,"program":48,"isDrum":false},{"pitch":72,"velocity":115,"startTime":279.03069,"endTime":279.44735625,"instrument":4,"program":48,"isDrum":false},{"pitch":75,"velocity":114,"startTime":279.03069,"endTime":279.5194715625,"instrument":4,"program":48,"isDrum":false},{"pitch":46,"velocity":110,"startTime":279.79992,"endTime":280.232611875,"instrument":4,"program":48,"isDrum":false},{"pitch":58,"velocity":118,"startTime":279.79992,"endTime":280.31274,"instrument":4,"program":48,"isDrum":false},{"pitch":65,"velocity":118,"startTime":279.79992,"endTime":280.456970625,"instrument":4,"program":48,"isDrum":false},{"pitch":70,"velocity":115,"startTime":279.79992,"endTime":281.2021621875,"instrument":4,"program":48,"isDrum":false},{"pitch":74,"velocity":116,"startTime":279.79992,"endTime":280.56915,"instrument":4,"program":48,"isDrum":false},{"pitch":77,"velocity":119,"startTime":279.79992,"endTime":280.617226875,"instrument":4,"program":48,"isDrum":false},{"pitch":51,"velocity":116,"startTime":280.56915,"endTime":281.35440562499997,"instrument":4,"program":48,"isDrum":false},{"pitch":58,"velocity":115,"startTime":280.56915,"endTime":281.1380596875,"instrument":4,"program":48,"isDrum":false},{"pitch":63,"velocity":117,"startTime":280.56915,"endTime":281.3143415625,"instrument":4,"program":48,"isDrum":false},{"pitch":67,"velocity":114,"startTime":280.56915,"endTime":281.1540853125,"instrument":4,"program":48,"isDrum":false},{"pitch":75,"velocity":112,"startTime":280.56915,"endTime":281.34639281249997,"instrument":4,"program":48,"isDrum":false},{"pitch":79,"velocity":112,"startTime":280.953765,"endTime":281.4104953125,"instrument":4,"program":48,"isDrum":false},{"pitch":62,"velocity":114,"startTime":281.33838,"endTime":284.4153,"instrument":4,"program":48,"isDrum":false},{"pitch":72,"velocity":114,"startTime":281.33838,"endTime":282.5322890625,"instrument":4,"program":48,"isDrum":false},{"pitch":74,"velocity":114,"startTime":281.33838,"endTime":284.4153,"instrument":4,"program":48,"isDrum":false},{"pitch":78,"velocity":110,"startTime":281.33838,"endTime":282.13966125,"instrument":4,"program":48,"isDrum":false},{"pitch":79,"velocity":111,"startTime":282.10761,"endTime":284.4153,"instrument":4,"program":48,"isDrum":false},{"pitch":81,"velocity":112,"startTime":282.492225,"endTime":282.6845325,"instrument":4,"program":48,"isDrum":false},{"pitch":82,"velocity":116,"startTime":282.87684,"endTime":284.4153,"instrument":4,"program":48,"isDrum":false},{"pitch":60,"velocity":112,"startTime":284.4153,"endTime":285.70536281249997,"instrument":4,"program":48,"isDrum":false},{"pitch":63,"velocity":112,"startTime":284.4153,"endTime":285.6332475,"instrument":4,"program":48,"isDrum":false},{"pitch":68,"velocity":112,"startTime":284.4153,"endTime":285.9777984375,"instrument":4,"program":48,"isDrum":false},{"pitch":72,"velocity":112,"startTime":284.4153,"endTime":285.18453,"instrument":4,"program":48,"isDrum":false},{"pitch":72,"velocity":113,"startTime":285.18453,"endTime":285.95376,"instrument":4,"program":48,"isDrum":false},{"pitch":74,"velocity":110,"startTime":285.569145,"endTime":285.937734375,"instrument":4,"program":48,"isDrum":false},{"pitch":63,"velocity":114,"startTime":285.95376,"endTime":287.49222,"instrument":4,"program":48,"isDrum":false},{"pitch":67,"velocity":114,"startTime":285.95376,"endTime":287.49222,"instrument":4,"program":48,"isDrum":false},{"pitch":70,"velocity":114,"startTime":285.95376,"endTime":287.49222,"instrument":4,"program":48,"isDrum":false},{"pitch":79,"velocity":104,"startTime":298.26144,"endTime":298.694131875,"instrument":4,"program":48,"isDrum":false},{"pitch":77,"velocity":110,"startTime":298.646055,"endTime":298.9745803125,"instrument":4,"program":48,"isDrum":false},{"pitch":77,"velocity":116,"startTime":299.03067,"endTime":299.4793875,"instrument":4,"program":48,"isDrum":false},{"pitch":75,"velocity":112,"startTime":299.415285,"endTime":299.7918871875,"instrument":4,"program":48,"isDrum":false},{"pitch":75,"velocity":111,"startTime":299.7999,"endTime":300.200540625,"instrument":4,"program":48,"isDrum":false},{"pitch":72,"velocity":114,"startTime":300.184515,"endTime":300.969770625,"instrument":4,"program":48,"isDrum":false},{"pitch":74,"velocity":112,"startTime":300.95374499999997,"endTime":301.3303471875,"instrument":4,"program":48,"isDrum":false},{"pitch":63,"velocity":96,"startTime":301.33835999999997,"endTime":307.48418718749997,"instrument":4,"program":48,"isDrum":false},{"pitch":67,"velocity":65,"startTime":301.33835999999997,"endTime":302.6764996875,"instrument":4,"program":48,"isDrum":false},{"pitch":75,"velocity":103,"startTime":301.33835999999997,"endTime":302.8527815625,"instrument":4,"program":48,"isDrum":false},{"pitch":68,"velocity":111,"startTime":302.87682,"endTime":304.3511775,"instrument":4,"program":48,"isDrum":false},{"pitch":72,"velocity":111,"startTime":302.87682,"endTime":303.341563125,"instrument":4,"program":48,"isDrum":false},{"pitch":74,"velocity":110,"startTime":303.261435,"endTime":303.84637031249997,"instrument":4,"program":48,"isDrum":false},{"pitch":72,"velocity":110,"startTime":303.64605,"endTime":304.0547034375,"instrument":4,"program":48,"isDrum":false},{"pitch":74,"velocity":89,"startTime":304.030665,"endTime":304.4072671875,"instrument":4,"program":48,"isDrum":false},{"pitch":67,"velocity":96,"startTime":304.41528,"endTime":306.001816875,"instrument":4,"program":48,"isDrum":false},{"pitch":70,"velocity":101,"startTime":304.41528,"endTime":305.95374,"instrument":4,"program":48,"isDrum":false},{"pitch":66,"velocity":110,"startTime":305.95374,"endTime":307.5803409375,"instrument":4,"program":48,"isDrum":false},{"pitch":72,"velocity":103,"startTime":305.95374,"endTime":306.4264959375,"instrument":4,"program":48,"isDrum":false},{"pitch":74,"velocity":112,"startTime":306.338355,"endTime":306.69091875,"instrument":4,"program":48,"isDrum":false},{"pitch":72,"velocity":108,"startTime":306.72297,"endTime":307.2438028125,"instrument":4,"program":48,"isDrum":false},{"pitch":74,"velocity":100,"startTime":307.107585,"endTime":309.0707240625,"instrument":4,"program":48,"isDrum":false},{"pitch":62,"velocity":113,"startTime":307.4922,"endTime":307.5322640625,"instrument":4,"program":48,"isDrum":false},{"pitch":65,"velocity":71,"startTime":307.4922,"endTime":310.38482531249997,"instrument":4,"program":48,"isDrum":false},{"pitch":70,"velocity":106,"startTime":307.4922,"endTime":308.95854468749997,"instrument":4,"program":48,"isDrum":false},{"pitch":61,"velocity":116,"startTime":309.03066,"endTime":310.6252096875,"instrument":4,"program":48,"isDrum":false},{"pitch":70,"velocity":110,"startTime":309.03066,"endTime":309.4713646875,"instrument":4,"program":48,"isDrum":false},{"pitch":68,"velocity":112,"startTime":309.415275,"endTime":309.76783875,"instrument":4,"program":48,"isDrum":false},{"pitch":68,"velocity":116,"startTime":309.79989,"endTime":310.1123896875,"instrument":4,"program":48,"isDrum":false},{"pitch":67,"velocity":114,"startTime":310.184505,"endTime":312.508220625,"instrument":4,"program":48,"isDrum":false},{"pitch":60,"velocity":111,"startTime":310.56912,"endTime":314.0707190625,"instrument":4,"program":48,"isDrum":false},{"pitch":64,"velocity":106,"startTime":310.56912,"endTime":312.1636696875,"instrument":4,"program":48,"isDrum":false},{"pitch":70,"velocity":101,"startTime":312.10758,"endTime":312.540271875,"instrument":4,"program":48,"isDrum":false},{"pitch":68,"velocity":113,"startTime":312.492195,"endTime":312.860784375,"instrument":4,"program":48,"isDrum":false},{"pitch":68,"velocity":117,"startTime":312.87681,"endTime":313.2534121875,"instrument":4,"program":48,"isDrum":false},{"pitch":67,"velocity":117,"startTime":313.261425,"endTime":313.5819375,"instrument":4,"program":48,"isDrum":false},{"pitch":67,"velocity":116,"startTime":313.64603999999997,"endTime":315.232576875,"instrument":4,"program":48,"isDrum":false},{"pitch":64,"velocity":114,"startTime":314.030655,"endTime":314.495398125,"instrument":4,"program":48,"isDrum":false},{"pitch":60,"velocity":108,"startTime":314.41526999999996,"endTime":316.7149471875,"instrument":4,"program":48,"isDrum":false},{"pitch":58,"velocity":108,"startTime":314.799885,"endTime":315.21655125,"instrument":4,"program":48,"isDrum":false},{"pitch":57,"velocity":111,"startTime":315.1845,"endTime":316.81911375,"instrument":4,"program":48,"isDrum":false},{"pitch":65,"velocity":106,"startTime":315.1845,"endTime":326.514616875,"instrument":4,"program":48,"isDrum":false},{"pitch":58,"velocity":107,"startTime":316.72296,"endTime":317.412061875,"instrument":4,"program":48,"isDrum":false},{"pitch":60,"velocity":18,"startTime":316.72296,"endTime":316.8271265625,"instrument":4,"program":48,"isDrum":false},{"pitch":57,"velocity":110,"startTime":317.49219,"endTime":318.4937915625,"instrument":4,"program":48,"isDrum":false},{"pitch":56,"velocity":106,"startTime":318.4537275,"endTime":319.815905625,"instrument":4,"program":48,"isDrum":false},{"pitch":55,"velocity":89,"startTime":319.79988,"endTime":322.027441875,"instrument":4,"program":48,"isDrum":false},{"pitch":62,"velocity":76,"startTime":319.79988,"endTime":322.6764796875,"instrument":4,"program":48,"isDrum":false},{"pitch":41,"velocity":18,"startTime":322.2998775,"endTime":326.4425015625,"instrument":4,"program":48,"isDrum":false},{"pitch":53,"velocity":18,"startTime":322.2998775,"endTime":326.5066040625,"instrument":4,"program":48,"isDrum":false},{"pitch":57,"velocity":18,"startTime":322.2998775,"endTime":326.546668125,"instrument":4,"program":48,"isDrum":false},{"pitch":65,"velocity":113,"startTime":2.6923049999999997,"endTime":3.0128174999999997,"instrument":5,"program":52,"isDrum":false},{"pitch":68,"velocity":113,"startTime":2.6923049999999997,"endTime":3.0689071875,"instrument":5,"program":52,"isDrum":false},{"pitch":70,"velocity":113,"startTime":2.6923049999999997,"endTime":3.0689071875,"instrument":5,"program":52,"isDrum":false},{"pitch":73,"velocity":113,"startTime":2.6923049999999997,"endTime":2.996791875,"instrument":5,"program":52,"isDrum":false},{"pitch":65,"velocity":113,"startTime":3.07692,"endTime":3.3814068749999997,"instrument":5,"program":52,"isDrum":false},{"pitch":68,"velocity":113,"startTime":3.07692,"endTime":3.2932659374999997,"instrument":5,"program":52,"isDrum":false},{"pitch":70,"velocity":113,"startTime":3.07692,"endTime":3.3012787500000003,"instrument":5,"program":52,"isDrum":false},{"pitch":73,"velocity":113,"startTime":3.07692,"endTime":3.3573684374999995,"instrument":5,"program":52,"isDrum":false},{"pitch":65,"velocity":113,"startTime":3.461535,"endTime":3.8060859375000002,"instrument":5,"program":52,"isDrum":false},{"pitch":68,"velocity":113,"startTime":3.461535,"endTime":3.8060859375000002,"instrument":5,"program":52,"isDrum":false},{"pitch":70,"velocity":113,"startTime":3.461535,"endTime":3.8221115625,"instrument":5,"program":52,"isDrum":false},{"pitch":73,"velocity":113,"startTime":3.461535,"endTime":3.7900603124999996,"instrument":5,"program":52,"isDrum":false},{"pitch":65,"velocity":113,"startTime":3.8461499999999997,"endTime":4.5272390625,"instrument":5,"program":52,"isDrum":false},{"pitch":68,"velocity":113,"startTime":3.8461499999999997,"endTime":4.5512775,"instrument":5,"program":52,"isDrum":false},{"pitch":70,"velocity":113,"startTime":3.8461499999999997,"endTime":4.567303125,"instrument":5,"program":52,"isDrum":false},{"pitch":73,"velocity":113,"startTime":3.8461499999999997,"endTime":4.503200625,"instrument":5,"program":52,"isDrum":false},{"pitch":65,"velocity":113,"startTime":4.61538,"endTime":5.304481875,"instrument":5,"program":52,"isDrum":false},{"pitch":68,"velocity":113,"startTime":4.61538,"endTime":5.2483921875,"instrument":5,"program":52,"isDrum":false},{"pitch":70,"velocity":113,"startTime":4.61538,"endTime":5.2644178125,"instrument":5,"program":52,"isDrum":false},{"pitch":73,"velocity":113,"startTime":4.61538,"endTime":5.288456249999999,"instrument":5,"program":52,"isDrum":false},{"pitch":63,"velocity":113,"startTime":5.769225,"endTime":6.0897375,"instrument":5,"program":52,"isDrum":false},{"pitch":67,"velocity":113,"startTime":5.769225,"endTime":6.0656990625,"instrument":5,"program":52,"isDrum":false},{"pitch":70,"velocity":113,"startTime":5.769225,"endTime":6.0656990625,"instrument":5,"program":52,"isDrum":false},{"pitch":73,"velocity":113,"startTime":5.769225,"endTime":6.073711875,"instrument":5,"program":52,"isDrum":false},{"pitch":63,"velocity":113,"startTime":6.15384,"endTime":6.5304421875,"instrument":5,"program":52,"isDrum":false},{"pitch":67,"velocity":113,"startTime":6.15384,"endTime":6.4823653125,"instrument":5,"program":52,"isDrum":false},{"pitch":70,"velocity":113,"startTime":6.15384,"endTime":6.498390937499999,"instrument":5,"program":52,"isDrum":false},{"pitch":73,"velocity":113,"startTime":6.15384,"endTime":6.5304421875,"instrument":5,"program":52,"isDrum":false},{"pitch":65,"velocity":113,"startTime":6.538455,"endTime":6.9150571875,"instrument":5,"program":52,"isDrum":false},{"pitch":68,"velocity":113,"startTime":6.538455,"endTime":6.89101875,"instrument":5,"program":52,"isDrum":false},{"pitch":70,"velocity":113,"startTime":6.538455,"endTime":6.858967499999999,"instrument":5,"program":52,"isDrum":false},{"pitch":67,"velocity":113,"startTime":6.92307,"endTime":7.299672187500001,"instrument":5,"program":52,"isDrum":false},{"pitch":70,"velocity":113,"startTime":6.92307,"endTime":7.299672187500001,"instrument":5,"program":52,"isDrum":false},{"pitch":73,"velocity":113,"startTime":6.92307,"endTime":7.299672187500001,"instrument":5,"program":52,"isDrum":false},{"pitch":65,"velocity":113,"startTime":7.307684999999999,"endTime":7.4919796875,"instrument":5,"program":52,"isDrum":false},{"pitch":68,"velocity":113,"startTime":7.307684999999999,"endTime":7.4919796875,"instrument":5,"program":52,"isDrum":false},{"pitch":63,"velocity":113,"startTime":7.499992499999999,"endTime":8.30127375,"instrument":5,"program":52,"isDrum":false},{"pitch":67,"velocity":113,"startTime":7.499992499999999,"endTime":8.189094375,"instrument":5,"program":52,"isDrum":false},{"pitch":63,"velocity":113,"startTime":8.46153,"endTime":8.81409375,"instrument":5,"program":52,"isDrum":false},{"pitch":66,"velocity":113,"startTime":8.46153,"endTime":8.749991249999999,"instrument":5,"program":52,"isDrum":false},{"pitch":68,"velocity":113,"startTime":8.46153,"endTime":8.8221065625,"instrument":5,"program":52,"isDrum":false},{"pitch":72,"velocity":113,"startTime":8.46153,"endTime":8.7820425,"instrument":5,"program":52,"isDrum":false},{"pitch":63,"velocity":113,"startTime":8.846145,"endTime":9.1666575,"instrument":5,"program":52,"isDrum":false},{"pitch":66,"velocity":113,"startTime":8.846145,"endTime":9.13460625,"instrument":5,"program":52,"isDrum":false},{"pitch":68,"velocity":113,"startTime":8.846145,"endTime":9.1746703125,"instrument":5,"program":52,"isDrum":false},{"pitch":72,"velocity":113,"startTime":8.846145,"endTime":9.182683125,"instrument":5,"program":52,"isDrum":false},{"pitch":63,"velocity":113,"startTime":9.23076,"endTime":9.58332375,"instrument":5,"program":52,"isDrum":false},{"pitch":66,"velocity":113,"startTime":9.23076,"endTime":9.5272340625,"instrument":5,"program":52,"isDrum":false},{"pitch":68,"velocity":113,"startTime":9.23076,"endTime":9.6073621875,"instrument":5,"program":52,"isDrum":false},{"pitch":72,"velocity":113,"startTime":9.23076,"endTime":9.58332375,"instrument":5,"program":52,"isDrum":false},{"pitch":63,"velocity":113,"startTime":9.615375,"endTime":10.3765921875,"instrument":5,"program":52,"isDrum":false},{"pitch":66,"velocity":113,"startTime":9.615375,"endTime":10.3765921875,"instrument":5,"program":52,"isDrum":false},{"pitch":70,"velocity":113,"startTime":9.615375,"endTime":10.3765921875,"instrument":5,"program":52,"isDrum":false},{"pitch":73,"velocity":113,"startTime":9.615375,"endTime":10.3765921875,"instrument":5,"program":52,"isDrum":false},{"pitch":63,"velocity":113,"startTime":10.384604999999999,"endTime":10.6009509375,"instrument":5,"program":52,"isDrum":false},{"pitch":66,"velocity":113,"startTime":10.384604999999999,"endTime":10.576912499999999,"instrument":5,"program":52,"isDrum":false},{"pitch":68,"velocity":113,"startTime":10.384604999999999,"endTime":11.0496684375,"instrument":5,"program":52,"isDrum":false},{"pitch":72,"velocity":113,"startTime":10.384604999999999,"endTime":11.1458221875,"instrument":5,"program":52,"isDrum":false},{"pitch":68,"velocity":113,"startTime":11.153834999999999,"endTime":11.4663346875,"instrument":5,"program":52,"isDrum":false},{"pitch":61,"velocity":113,"startTime":11.53845,"endTime":11.714731874999998,"instrument":5,"program":52,"isDrum":false},{"pitch":65,"velocity":113,"startTime":11.53845,"endTime":11.7067190625,"instrument":5,"program":52,"isDrum":false},{"pitch":68,"velocity":113,"startTime":11.53845,"endTime":11.714731874999998,"instrument":5,"program":52,"isDrum":false},{"pitch":73,"velocity":113,"startTime":11.53845,"endTime":11.746783125,"instrument":5,"program":52,"isDrum":false},{"pitch":61,"velocity":113,"startTime":11.923065,"endTime":12.2996671875,"instrument":5,"program":52,"isDrum":false},{"pitch":65,"velocity":113,"startTime":11.923065,"endTime":12.1073596875,"instrument":5,"program":52,"isDrum":false},{"pitch":68,"velocity":113,"startTime":11.923065,"endTime":12.267615937499999,"instrument":5,"program":52,"isDrum":false},{"pitch":73,"velocity":113,"startTime":11.923065,"endTime":12.2996671875,"instrument":5,"program":52,"isDrum":false},{"pitch":66,"velocity":113,"startTime":12.30768,"endTime":12.604154062500001,"instrument":5,"program":52,"isDrum":false},{"pitch":70,"velocity":113,"startTime":12.30768,"endTime":12.6842821875,"instrument":5,"program":52,"isDrum":false},{"pitch":65,"velocity":113,"startTime":12.692295,"endTime":13.0688971875,"instrument":5,"program":52,"isDrum":false},{"pitch":68,"velocity":113,"startTime":12.692295,"endTime":13.0688971875,"instrument":5,"program":52,"isDrum":false},{"pitch":63,"velocity":113,"startTime":13.07691,"endTime":13.453512187499998,"instrument":5,"program":52,"isDrum":false},{"pitch":66,"velocity":113,"startTime":13.07691,"endTime":13.453512187499998,"instrument":5,"program":52,"isDrum":false},{"pitch":61,"velocity":113,"startTime":13.461525,"endTime":14.919856874999999,"instrument":5,"program":52,"isDrum":false},{"pitch":65,"velocity":113,"startTime":13.461525,"endTime":14.87178,"instrument":5,"program":52,"isDrum":false},{"pitch":46,"velocity":113,"startTime":15.384599999999999,"endTime":18.4214559375,"instrument":5,"program":52,"isDrum":false},{"pitch":53,"velocity":113,"startTime":15.384599999999999,"endTime":18.4214559375,"instrument":5,"program":52,"isDrum":false},{"pitch":58,"velocity":113,"startTime":15.384599999999999,"endTime":18.341327812499998,"instrument":5,"program":52,"isDrum":false},{"pitch":61,"velocity":113,"startTime":15.384599999999999,"endTime":18.453507187499998,"instrument":5,"program":52,"isDrum":false},{"pitch":65,"velocity":113,"startTime":15.384599999999999,"endTime":18.453507187499998,"instrument":5,"program":52,"isDrum":false},{"pitch":59,"velocity":113,"startTime":18.46152,"endTime":19.222737187499998,"instrument":5,"program":52,"isDrum":false},{"pitch":66,"velocity":113,"startTime":19.23075,"endTime":19.6073521875,"instrument":5,"program":52,"isDrum":false},{"pitch":68,"velocity":113,"startTime":19.615365,"endTime":20.3765821875,"instrument":5,"program":52,"isDrum":false},{"pitch":61,"velocity":113,"startTime":20.384595,"endTime":21.1458121875,"instrument":5,"program":52,"isDrum":false},{"pitch":66,"velocity":113,"startTime":21.153824999999998,"endTime":24.607347187499997,"instrument":5,"program":52,"isDrum":false},{"pitch":70,"velocity":113,"startTime":21.153824999999998,"endTime":24.607347187499997,"instrument":5,"program":52,"isDrum":false},{"pitch":58,"velocity":113,"startTime":24.61536,"endTime":27.6842671875,"instrument":5,"program":52,"isDrum":false},{"pitch":63,"velocity":113,"startTime":24.61536,"endTime":27.6842671875,"instrument":5,"program":52,"isDrum":false},{"pitch":56,"velocity":113,"startTime":27.69228,"endTime":28.453497187500002,"instrument":5,"program":52,"isDrum":false},{"pitch":60,"velocity":113,"startTime":27.69228,"endTime":28.453497187500002,"instrument":5,"program":52,"isDrum":false},{"pitch":68,"velocity":113,"startTime":27.69228,"endTime":28.453497187500002,"instrument":5,"program":52,"isDrum":false},{"pitch":58,"velocity":113,"startTime":28.46151,"endTime":28.838112187500002,"instrument":5,"program":52,"isDrum":false},{"pitch":70,"velocity":113,"startTime":28.46151,"endTime":28.838112187500002,"instrument":5,"program":52,"isDrum":false},{"pitch":56,"velocity":113,"startTime":28.846124999999997,"endTime":29.0304196875,"instrument":5,"program":52,"isDrum":false},{"pitch":68,"velocity":113,"startTime":28.846124999999997,"endTime":29.0304196875,"instrument":5,"program":52,"isDrum":false},{"pitch":66,"velocity":113,"startTime":29.0384325,"endTime":29.222727187500002,"instrument":5,"program":52,"isDrum":false},{"pitch":63,"velocity":113,"startTime":29.230739999999997,"endTime":29.39099625,"instrument":5,"program":52,"isDrum":false},{"pitch":65,"velocity":113,"startTime":29.999969999999998,"endTime":30.3765721875,"instrument":5,"program":52,"isDrum":false},{"pitch":66,"velocity":113,"startTime":30.384584999999998,"endTime":30.7611871875,"instrument":5,"program":52,"isDrum":false},{"pitch":59,"velocity":113,"startTime":30.769199999999998,"endTime":31.02561,"instrument":5,"program":52,"isDrum":false},{"pitch":63,"velocity":113,"startTime":30.769199999999998,"endTime":31.0496484375,"instrument":5,"program":52,"isDrum":false},{"pitch":71,"velocity":113,"startTime":30.769199999999998,"endTime":31.0496484375,"instrument":5,"program":52,"isDrum":false},{"pitch":59,"velocity":113,"startTime":31.153814999999998,"endTime":31.5304171875,"instrument":5,"program":52,"isDrum":false},{"pitch":63,"velocity":113,"startTime":31.153814999999998,"endTime":31.4342634375,"instrument":5,"program":52,"isDrum":false},{"pitch":71,"velocity":113,"startTime":31.153814999999998,"endTime":31.498365937499997,"instrument":5,"program":52,"isDrum":false},{"pitch":58,"velocity":113,"startTime":31.538429999999998,"endTime":31.89099375,"instrument":5,"program":52,"isDrum":false},{"pitch":65,"velocity":113,"startTime":31.538429999999998,"endTime":31.858942499999998,"instrument":5,"program":52,"isDrum":false},{"pitch":70,"velocity":113,"startTime":31.538429999999998,"endTime":31.8028528125,"instrument":5,"program":52,"isDrum":false},{"pitch":57,"velocity":113,"startTime":32.30766,"endTime":32.5720828125,"instrument":5,"program":52,"isDrum":false},{"pitch":64,"velocity":113,"startTime":32.30766,"endTime":32.604134062499995,"instrument":5,"program":52,"isDrum":false},{"pitch":69,"velocity":113,"startTime":32.30766,"endTime":32.56407,"instrument":5,"program":52,"isDrum":false},{"pitch":57,"velocity":113,"startTime":32.692275,"endTime":33.052851562499995,"instrument":5,"program":52,"isDrum":false},{"pitch":64,"velocity":113,"startTime":32.692275,"endTime":33.0688771875,"instrument":5,"program":52,"isDrum":false},{"pitch":69,"velocity":113,"startTime":32.692275,"endTime":33.052851562499995,"instrument":5,"program":52,"isDrum":false},{"pitch":58,"velocity":113,"startTime":33.07689,"endTime":33.421440937499995,"instrument":5,"program":52,"isDrum":false},{"pitch":65,"velocity":113,"startTime":33.07689,"endTime":33.3974025,"instrument":5,"program":52,"isDrum":false},{"pitch":70,"velocity":113,"startTime":33.07689,"endTime":33.469517812499994,"instrument":5,"program":52,"isDrum":false},{"pitch":59,"velocity":113,"startTime":33.84612,"endTime":34.086504375,"instrument":5,"program":52,"isDrum":false},{"pitch":66,"velocity":113,"startTime":33.84612,"endTime":34.150606875,"instrument":5,"program":52,"isDrum":false},{"pitch":71,"velocity":113,"startTime":33.84612,"endTime":34.13458125,"instrument":5,"program":52,"isDrum":false},{"pitch":59,"velocity":113,"startTime":34.230734999999996,"endTime":34.6073371875,"instrument":5,"program":52,"isDrum":false},{"pitch":66,"velocity":113,"startTime":34.230734999999996,"endTime":34.591311562499996,"instrument":5,"program":52,"isDrum":false},{"pitch":71,"velocity":113,"startTime":34.230734999999996,"endTime":34.6073371875,"instrument":5,"program":52,"isDrum":false},{"pitch":58,"velocity":113,"startTime":34.61535,"endTime":35.015990625,"instrument":5,"program":52,"isDrum":false},{"pitch":65,"velocity":113,"startTime":34.61535,"endTime":35.007977812499995,"instrument":5,"program":52,"isDrum":false},{"pitch":70,"velocity":113,"startTime":34.61535,"endTime":34.983939375,"instrument":5,"program":52,"isDrum":false},{"pitch":57,"velocity":113,"startTime":35.38458,"endTime":35.67304125,"instrument":5,"program":52,"isDrum":false},{"pitch":64,"velocity":113,"startTime":35.38458,"endTime":35.7611821875,"instrument":5,"program":52,"isDrum":false},{"pitch":69,"velocity":113,"startTime":35.38458,"endTime":35.7611821875,"instrument":5,"program":52,"isDrum":false},{"pitch":57,"velocity":113,"startTime":35.769194999999996,"endTime":36.1457971875,"instrument":5,"program":52,"isDrum":false},{"pitch":58,"velocity":113,"startTime":36.15381,"endTime":36.586501874999996,"instrument":5,"program":52,"isDrum":false},{"pitch":65,"velocity":113,"startTime":36.15381,"endTime":36.546437812499995,"instrument":5,"program":52,"isDrum":false},{"pitch":70,"velocity":113,"startTime":36.15381,"endTime":36.4663096875,"instrument":5,"program":52,"isDrum":false},{"pitch":63,"velocity":113,"startTime":36.92304,"endTime":38.42944875,"instrument":5,"program":52,"isDrum":false},{"pitch":67,"velocity":113,"startTime":36.92304,"endTime":38.4374615625,"instrument":5,"program":52,"isDrum":false},{"pitch":70,"velocity":113,"startTime":36.92304,"endTime":38.4534871875,"instrument":5,"program":52,"isDrum":false},{"pitch":62,"velocity":113,"startTime":38.4615,"endTime":39.4150246875,"instrument":5,"program":52,"isDrum":false},{"pitch":65,"velocity":113,"startTime":38.4615,"endTime":39.4150246875,"instrument":5,"program":52,"isDrum":false},{"pitch":70,"velocity":113,"startTime":39.4230375,"endTime":39.9919471875,"instrument":5,"program":52,"isDrum":false},{"pitch":61,"velocity":113,"startTime":39.99996,"endTime":40.3765621875,"instrument":5,"program":52,"isDrum":false},{"pitch":64,"velocity":113,"startTime":39.99996,"endTime":40.3765621875,"instrument":5,"program":52,"isDrum":false},{"pitch":67,"velocity":113,"startTime":40.384575,"endTime":40.7611771875,"instrument":5,"program":52,"isDrum":false},{"pitch":70,"velocity":113,"startTime":40.76919,"endTime":41.5304071875,"instrument":5,"program":52,"isDrum":false},{"pitch":60,"velocity":113,"startTime":41.538419999999995,"endTime":42.299637187500004,"instrument":5,"program":52,"isDrum":false},{"pitch":65,"velocity":113,"startTime":41.538419999999995,"endTime":42.299637187500004,"instrument":5,"program":52,"isDrum":false},{"pitch":69,"velocity":113,"startTime":41.538419999999995,"endTime":42.299637187500004,"instrument":5,"program":52,"isDrum":false},{"pitch":63,"velocity":113,"startTime":42.307649999999995,"endTime":43.0688671875,"instrument":5,"program":52,"isDrum":false},{"pitch":72,"velocity":113,"startTime":43.076879999999996,"endTime":44.711493749999995,"instrument":5,"program":52,"isDrum":false},{"pitch":57,"velocity":113,"startTime":45.38457,"endTime":46.1457871875,"instrument":5,"program":52,"isDrum":false},{"pitch":58,"velocity":113,"startTime":46.1538,"endTime":51.874948124999996,"instrument":5,"program":52,"isDrum":false},{"pitch":88,"velocity":113,"startTime":176.95495125,"endTime":176.970976875,"instrument":5,"program":52,"isDrum":false},{"pitch":76,"velocity":113,"startTime":176.970976875,"endTime":177.0591178125,"instrument":5,"program":52,"isDrum":false},{"pitch":76,"velocity":113,"startTime":177.1392459375,"endTime":177.227386875,"instrument":5,"program":52,"isDrum":false},{"pitch":88,"velocity":113,"startTime":177.1392459375,"endTime":177.21136124999998,"instrument":5,"program":52,"isDrum":false},{"pitch":88,"velocity":113,"startTime":177.307515,"endTime":177.3155278125,"instrument":5,"program":52,"isDrum":false},{"pitch":76,"velocity":113,"startTime":177.323540625,"endTime":177.3956559375,"instrument":5,"program":52,"isDrum":false},{"pitch":76,"velocity":113,"startTime":177.483796875,"endTime":177.57995062499998,"instrument":5,"program":52,"isDrum":false},{"pitch":88,"velocity":113,"startTime":177.483796875,"endTime":177.57995062499998,"instrument":5,"program":52,"isDrum":false},{"pitch":74,"velocity":113,"startTime":177.7001428125,"endTime":177.8123221875,"instrument":5,"program":52,"isDrum":false},{"pitch":86,"velocity":113,"startTime":177.7001428125,"endTime":177.8123221875,"instrument":5,"program":52,"isDrum":false},{"pitch":74,"velocity":113,"startTime":178.0847578125,"endTime":178.2289884375,"instrument":5,"program":52,"isDrum":false},{"pitch":86,"velocity":113,"startTime":178.0847578125,"endTime":178.2129628125,"instrument":5,"program":52,"isDrum":false},{"pitch":86,"velocity":113,"startTime":178.46135999999998,"endTime":178.46937281249998,"instrument":5,"program":52,"isDrum":false},{"pitch":74,"velocity":113,"startTime":178.477385625,"endTime":178.55751375,"instrument":5,"program":52,"isDrum":false},{"pitch":74,"velocity":113,"startTime":178.65366749999998,"endTime":178.733795625,"instrument":5,"program":52,"isDrum":false},{"pitch":86,"velocity":113,"startTime":178.65366749999998,"endTime":178.7257828125,"instrument":5,"program":52,"isDrum":false},{"pitch":86,"velocity":113,"startTime":178.82994937499998,"endTime":178.84597499999998,"instrument":5,"program":52,"isDrum":false},{"pitch":74,"velocity":113,"startTime":178.84597499999998,"endTime":178.9180903125,"instrument":5,"program":52,"isDrum":false},{"pitch":74,"velocity":113,"startTime":179.02225687499998,"endTime":179.0943721875,"instrument":5,"program":52,"isDrum":false},{"pitch":86,"velocity":113,"startTime":179.02225687499998,"endTime":179.1103978125,"instrument":5,"program":52,"isDrum":false},{"pitch":78,"velocity":113,"startTime":179.23059,"endTime":179.23860281249998,"instrument":5,"program":52,"isDrum":false},{"pitch":90,"velocity":113,"startTime":179.246615625,"endTime":179.342769375,"instrument":5,"program":52,"isDrum":false},{"pitch":78,"velocity":113,"startTime":179.62321781249997,"endTime":179.73539718749998,"instrument":5,"program":52,"isDrum":false},{"pitch":90,"velocity":113,"startTime":179.62321781249997,"endTime":179.73539718749998,"instrument":5,"program":52,"isDrum":false},{"pitch":79,"velocity":113,"startTime":180.0078328125,"endTime":180.015845625,"instrument":5,"program":52,"isDrum":false},{"pitch":91,"velocity":113,"startTime":180.0078328125,"endTime":180.1360378125,"instrument":5,"program":52,"isDrum":false},{"pitch":62,"velocity":113,"startTime":181.153665,"endTime":181.2257803125,"instrument":5,"program":52,"isDrum":false},{"pitch":74,"velocity":113,"startTime":181.153665,"endTime":181.24981875,"instrument":5,"program":52,"isDrum":false},{"pitch":62,"velocity":113,"startTime":181.3459725,"endTime":181.45013906249997,"instrument":5,"program":52,"isDrum":false},{"pitch":74,"velocity":113,"startTime":181.3459725,"endTime":181.45013906249997,"instrument":5,"program":52,"isDrum":false},{"pitch":64,"velocity":113,"startTime":181.53828,"endTime":181.7225746875,"instrument":5,"program":52,"isDrum":false},{"pitch":76,"velocity":113,"startTime":181.53828,"endTime":181.7225746875,"instrument":5,"program":52,"isDrum":false},{"pitch":62,"velocity":113,"startTime":181.73058749999998,"endTime":181.92289499999998,"instrument":5,"program":52,"isDrum":false},{"pitch":74,"velocity":113,"startTime":181.73058749999998,"endTime":181.8988565625,"instrument":5,"program":52,"isDrum":false},{"pitch":60,"velocity":113,"startTime":182.692125,"endTime":182.804304375,"instrument":5,"program":52,"isDrum":false},{"pitch":74,"velocity":113,"startTime":182.692125,"endTime":182.7802659375,"instrument":5,"program":52,"isDrum":false},{"pitch":74,"velocity":113,"startTime":182.8844325,"endTime":182.9885990625,"instrument":5,"program":52,"isDrum":false},{"pitch":64,"velocity":113,"startTime":183.07674,"endTime":183.2610346875,"instrument":5,"program":52,"isDrum":false},{"pitch":76,"velocity":113,"startTime":183.07674,"endTime":183.2610346875,"instrument":5,"program":52,"isDrum":false},{"pitch":62,"velocity":113,"startTime":183.2690475,"endTime":183.39725249999998,"instrument":5,"program":52,"isDrum":false},{"pitch":74,"velocity":113,"startTime":183.2690475,"endTime":183.39725249999998,"instrument":5,"program":52,"isDrum":false},{"pitch":72,"velocity":113,"startTime":184.99981499999998,"endTime":185.12802,"instrument":5,"program":52,"isDrum":false},{"pitch":72,"velocity":113,"startTime":185.19212249999998,"endTime":185.336353125,"instrument":5,"program":52,"isDrum":false},{"pitch":72,"velocity":113,"startTime":185.38442999999998,"endTime":185.5687246875,"instrument":5,"program":52,"isDrum":false},{"pitch":69,"velocity":113,"startTime":185.57673749999998,"endTime":185.9533396875,"instrument":5,"program":52,"isDrum":false},{"pitch":65,"velocity":113,"startTime":185.9613525,"endTime":186.3379546875,"instrument":5,"program":52,"isDrum":false},{"pitch":62,"velocity":113,"startTime":186.3459675,"endTime":186.7225696875,"instrument":5,"program":52,"isDrum":false},{"pitch":60,"velocity":113,"startTime":186.7305825,"endTime":187.1232103125,"instrument":5,"program":52,"isDrum":false},{"pitch":74,"velocity":113,"startTime":190.384425,"endTime":190.7610271875,"instrument":5,"program":52,"isDrum":false},{"pitch":86,"velocity":113,"startTime":190.384425,"endTime":190.7450015625,"instrument":5,"program":52,"isDrum":false},{"pitch":72,"velocity":113,"startTime":190.76904,"endTime":190.8571809375,"instrument":5,"program":52,"isDrum":false},{"pitch":84,"velocity":113,"startTime":190.76904,"endTime":190.84115531249998,"instrument":5,"program":52,"isDrum":false},{"pitch":72,"velocity":113,"startTime":190.9613475,"endTime":191.05750125,"instrument":5,"program":52,"isDrum":false},{"pitch":84,"velocity":113,"startTime":190.9613475,"endTime":191.04147562499998,"instrument":5,"program":52,"isDrum":false},{"pitch":71,"velocity":113,"startTime":191.153655,"endTime":191.44211625,"instrument":5,"program":52,"isDrum":false},{"pitch":83,"velocity":113,"startTime":191.153655,"endTime":191.458141875,"instrument":5,"program":52,"isDrum":false},{"pitch":72,"velocity":113,"startTime":191.53826999999998,"endTime":191.8828209375,"instrument":5,"program":52,"isDrum":false},{"pitch":84,"velocity":113,"startTime":191.53826999999998,"endTime":191.8667953125,"instrument":5,"program":52,"isDrum":false},{"pitch":74,"velocity":113,"startTime":191.92288499999998,"endTime":192.0110259375,"instrument":5,"program":52,"isDrum":false},{"pitch":86,"velocity":113,"startTime":191.92288499999998,"endTime":192.003013125,"instrument":5,"program":52,"isDrum":false},{"pitch":74,"velocity":113,"startTime":192.1151925,"endTime":192.21134625,"instrument":5,"program":52,"isDrum":false},{"pitch":86,"velocity":113,"startTime":192.1151925,"endTime":192.21134625,"instrument":5,"program":52,"isDrum":false},{"pitch":72,"velocity":113,"startTime":192.3075,"endTime":192.65205093749998,"instrument":5,"program":52,"isDrum":false},{"pitch":84,"velocity":113,"startTime":192.3075,"endTime":192.6680765625,"instrument":5,"program":52,"isDrum":false},{"pitch":71,"velocity":113,"startTime":192.692115,"endTime":192.7642303125,"instrument":5,"program":52,"isDrum":false},{"pitch":83,"velocity":113,"startTime":192.692115,"endTime":192.7642303125,"instrument":5,"program":52,"isDrum":false},{"pitch":71,"velocity":113,"startTime":192.8844225,"endTime":192.97256343749999,"instrument":5,"program":52,"isDrum":false},{"pitch":83,"velocity":113,"startTime":192.8844225,"endTime":192.964550625,"instrument":5,"program":52,"isDrum":false},{"pitch":72,"velocity":113,"startTime":193.07673,"endTime":193.33314,"instrument":5,"program":52,"isDrum":false},{"pitch":84,"velocity":113,"startTime":193.07673,"endTime":193.317114375,"instrument":5,"program":52,"isDrum":false},{"pitch":74,"velocity":113,"startTime":193.461345,"endTime":193.70172937499999,"instrument":5,"program":52,"isDrum":false},{"pitch":86,"velocity":113,"startTime":193.461345,"endTime":193.717755,"instrument":5,"program":52,"isDrum":false},{"pitch":74,"velocity":113,"startTime":193.84596,"endTime":194.022241875,"instrument":5,"program":52,"isDrum":false},{"pitch":86,"velocity":113,"startTime":193.84596,"endTime":193.9661521875,"instrument":5,"program":52,"isDrum":false},{"pitch":76,"velocity":113,"startTime":194.0382675,"endTime":194.1744853125,"instrument":5,"program":52,"isDrum":false},{"pitch":88,"velocity":113,"startTime":194.0382675,"endTime":194.182498125,"instrument":5,"program":52,"isDrum":false},{"pitch":72,"velocity":113,"startTime":194.230575,"endTime":194.44692093749998,"instrument":5,"program":52,"isDrum":false},{"pitch":84,"velocity":113,"startTime":194.230575,"endTime":194.438908125,"instrument":5,"program":52,"isDrum":false},{"pitch":72,"velocity":113,"startTime":194.61518999999998,"endTime":194.7033309375,"instrument":5,"program":52,"isDrum":false},{"pitch":84,"velocity":113,"startTime":194.61518999999998,"endTime":194.6873053125,"instrument":5,"program":52,"isDrum":false},{"pitch":72,"velocity":113,"startTime":194.80749749999998,"endTime":194.919676875,"instrument":5,"program":52,"isDrum":false},{"pitch":84,"velocity":113,"startTime":194.80749749999998,"endTime":194.90365125,"instrument":5,"program":52,"isDrum":false},{"pitch":71,"velocity":113,"startTime":194.99980499999998,"endTime":195.20012531249998,"instrument":5,"program":52,"isDrum":false},{"pitch":83,"velocity":113,"startTime":194.99980499999998,"endTime":195.1840996875,"instrument":5,"program":52,"isDrum":false},{"pitch":71,"velocity":113,"startTime":195.38442,"endTime":195.464548125,"instrument":5,"program":52,"isDrum":false},{"pitch":83,"velocity":113,"startTime":195.38442,"endTime":195.464548125,"instrument":5,"program":52,"isDrum":false},{"pitch":71,"velocity":113,"startTime":195.5767275,"endTime":195.70493249999998,"instrument":5,"program":52,"isDrum":false},{"pitch":83,"velocity":113,"startTime":195.5767275,"endTime":195.6808940625,"instrument":5,"program":52,"isDrum":false},{"pitch":72,"velocity":113,"startTime":195.769035,"endTime":195.9613425,"instrument":5,"program":52,"isDrum":false},{"pitch":84,"velocity":113,"startTime":195.769035,"endTime":195.91326562499998,"instrument":5,"program":52,"isDrum":false},{"pitch":55,"velocity":113,"startTime":219.0382425,"endTime":219.41484468749996,"instrument":5,"program":52,"isDrum":false},{"pitch":48,"velocity":113,"startTime":219.4228575,"endTime":220.1840746875,"instrument":5,"program":52,"isDrum":false},{"pitch":52,"velocity":113,"startTime":219.4228575,"endTime":220.11195937499997,"instrument":5,"program":52,"isDrum":false},{"pitch":60,"velocity":113,"startTime":219.4228575,"endTime":220.1840746875,"instrument":5,"program":52,"isDrum":false},{"pitch":53,"velocity":113,"startTime":220.19208749999999,"endTime":220.945291875,"instrument":5,"program":52,"isDrum":false},{"pitch":57,"velocity":113,"startTime":220.19208749999999,"endTime":220.95330468749998,"instrument":5,"program":52,"isDrum":false},{"pitch":52,"velocity":113,"startTime":220.96131749999998,"endTime":221.72253468749997,"instrument":5,"program":52,"isDrum":false},{"pitch":56,"velocity":113,"startTime":220.96131749999998,"endTime":221.72253468749997,"instrument":5,"program":52,"isDrum":false},{"pitch":59,"velocity":113,"startTime":220.96131749999998,"endTime":221.72253468749997,"instrument":5,"program":52,"isDrum":false},{"pitch":57,"velocity":113,"startTime":221.7305475,"endTime":222.355546875,"instrument":5,"program":52,"isDrum":false},{"pitch":60,"velocity":113,"startTime":221.7305475,"endTime":222.49176468749997,"instrument":5,"program":52,"isDrum":false},{"pitch":48,"velocity":113,"startTime":222.4997775,"endTime":224.01419906249998,"instrument":5,"program":52,"isDrum":false},{"pitch":55,"velocity":113,"startTime":222.4997775,"endTime":222.5238159375,"instrument":5,"program":52,"isDrum":false},{"pitch":58,"velocity":113,"startTime":222.4997775,"endTime":224.03022468749998,"instrument":5,"program":52,"isDrum":false},{"pitch":52,"velocity":113,"startTime":224.03823749999998,"endTime":225.56868468749997,"instrument":5,"program":52,"isDrum":false},{"pitch":64,"velocity":113,"startTime":224.03823749999998,"endTime":225.432466875,"instrument":5,"program":52,"isDrum":false},{"pitch":67,"velocity":113,"startTime":224.03823749999998,"endTime":225.528620625,"instrument":5,"program":52,"isDrum":false},{"pitch":55,"velocity":113,"startTime":225.5766975,"endTime":227.10714468749998,"instrument":5,"program":52,"isDrum":false},{"pitch":67,"velocity":113,"startTime":225.5766975,"endTime":227.10714468749998,"instrument":5,"program":52,"isDrum":false},{"pitch":64,"velocity":113,"startTime":227.11515749999998,"endTime":228.1790925,"instrument":5,"program":52,"isDrum":false},{"pitch":70,"velocity":113,"startTime":227.11515749999998,"endTime":228.187209375,"instrument":5,"program":52,"isDrum":false},{"pitch":72,"velocity":113,"startTime":227.11515749999998,"endTime":228.1790925,"instrument":5,"program":52,"isDrum":false},{"pitch":76,"velocity":120,"startTime":173.461365,"endTime":173.5334803125,"instrument":6,"program":62,"isDrum":false},{"pitch":76,"velocity":119,"startTime":173.6536725,"endTime":173.733800625,"instrument":6,"program":62,"isDrum":false},{"pitch":81,"velocity":121,"startTime":173.84598,"endTime":174.16649249999998,"instrument":6,"program":62,"isDrum":false},{"pitch":76,"velocity":119,"startTime":174.230595,"endTime":174.31072312499998,"instrument":6,"program":62,"isDrum":false},{"pitch":76,"velocity":120,"startTime":174.4229025,"endTime":174.5110434375,"instrument":6,"program":62,"isDrum":false},{"pitch":81,"velocity":121,"startTime":174.61521,"endTime":174.9597609375,"instrument":6,"program":62,"isDrum":false},{"pitch":76,"velocity":120,"startTime":174.999825,"endTime":175.0879659375,"instrument":6,"program":62,"isDrum":false},{"pitch":76,"velocity":119,"startTime":175.19213249999999,"endTime":175.304311875,"instrument":6,"program":62,"isDrum":false},{"pitch":75,"velocity":120,"startTime":175.38443999999998,"endTime":175.48059375,"instrument":6,"program":62,"isDrum":false},{"pitch":75,"velocity":118,"startTime":175.57674749999998,"endTime":175.688926875,"instrument":6,"program":62,"isDrum":false},{"pitch":76,"velocity":119,"startTime":175.76905499999998,"endTime":175.92129843749998,"instrument":6,"program":62,"isDrum":false},{"pitch":78,"velocity":120,"startTime":176.15367,"endTime":176.3459775,"instrument":6,"program":62,"isDrum":false},{"pitch":76,"velocity":121,"startTime":176.538285,"endTime":176.69854125,"instrument":6,"program":62,"isDrum":false},{"pitch":72,"velocity":117,"startTime":184.99981499999998,"endTime":185.1200071875,"instrument":6,"program":62,"isDrum":false},{"pitch":72,"velocity":117,"startTime":185.19212249999998,"endTime":185.28827625,"instrument":6,"program":62,"isDrum":false},{"pitch":72,"velocity":117,"startTime":185.38442999999998,"endTime":186.5943646875,"instrument":6,"program":62,"isDrum":false},{"pitch":69,"velocity":117,"startTime":185.57673749999998,"endTime":187.1151975,"instrument":6,"program":62,"isDrum":false},{"pitch":65,"velocity":117,"startTime":185.9613525,"endTime":187.1552615625,"instrument":6,"program":62,"isDrum":false},{"pitch":62,"velocity":119,"startTime":186.3459675,"endTime":187.17128718749998,"instrument":6,"program":62,"isDrum":false},{"pitch":60,"velocity":118,"startTime":186.7305825,"endTime":187.2353896875,"instrument":6,"program":62,"isDrum":false},{"pitch":60,"velocity":121,"startTime":202.4997975,"endTime":202.57992562500002,"instrument":6,"program":62,"isDrum":false},{"pitch":64,"velocity":119,"startTime":202.4997975,"endTime":202.5879384375,"instrument":6,"program":62,"isDrum":false},{"pitch":67,"velocity":121,"startTime":202.4997975,"endTime":202.57992562500002,"instrument":6,"program":62,"isDrum":false},{"pitch":60,"velocity":120,"startTime":202.692105,"endTime":202.7642203125,"instrument":6,"program":62,"isDrum":false},{"pitch":64,"velocity":119,"startTime":202.692105,"endTime":202.7642203125,"instrument":6,"program":62,"isDrum":false},{"pitch":67,"velocity":120,"startTime":202.692105,"endTime":202.78024593749998,"instrument":6,"program":62,"isDrum":false},{"pitch":60,"velocity":119,"startTime":202.8844125,"endTime":202.948515,"instrument":6,"program":62,"isDrum":false},{"pitch":65,"velocity":118,"startTime":202.8844125,"endTime":202.94050218750002,"instrument":6,"program":62,"isDrum":false},{"pitch":69,"velocity":119,"startTime":202.8844125,"endTime":202.948515,"instrument":6,"program":62,"isDrum":false},{"pitch":60,"velocity":117,"startTime":203.07672,"endTime":203.14082249999998,"instrument":6,"program":62,"isDrum":false},{"pitch":67,"velocity":119,"startTime":203.07672,"endTime":203.1328096875,"instrument":6,"program":62,"isDrum":false},{"pitch":70,"velocity":120,"startTime":203.07672,"endTime":203.17287374999998,"instrument":6,"program":62,"isDrum":false},{"pitch":60,"velocity":119,"startTime":203.2690275,"endTime":203.349155625,"instrument":6,"program":62,"isDrum":false},{"pitch":65,"velocity":120,"startTime":203.2690275,"endTime":203.34114281249998,"instrument":6,"program":62,"isDrum":false},{"pitch":69,"velocity":119,"startTime":203.2690275,"endTime":203.34114281249998,"instrument":6,"program":62,"isDrum":false},{"pitch":60,"velocity":121,"startTime":203.461335,"endTime":203.57351437499997,"instrument":6,"program":62,"isDrum":false},{"pitch":64,"velocity":121,"startTime":203.461335,"endTime":203.5655015625,"instrument":6,"program":62,"isDrum":false},{"pitch":67,"velocity":122,"startTime":203.461335,"endTime":203.5655015625,"instrument":6,"program":62,"isDrum":false},{"pitch":60,"velocity":116,"startTime":206.3459475,"endTime":206.43408843749998,"instrument":6,"program":62,"isDrum":false},{"pitch":64,"velocity":115,"startTime":206.3459475,"endTime":206.44210124999998,"instrument":6,"program":62,"isDrum":false},{"pitch":67,"velocity":117,"startTime":206.3459475,"endTime":206.44210124999998,"instrument":6,"program":62,"isDrum":false},{"pitch":60,"velocity":115,"startTime":206.538255,"endTime":206.6424215625,"instrument":6,"program":62,"isDrum":false},{"pitch":64,"velocity":113,"startTime":206.538255,"endTime":206.62639593749998,"instrument":6,"program":62,"isDrum":false},{"pitch":67,"velocity":116,"startTime":206.538255,"endTime":206.682485625,"instrument":6,"program":62,"isDrum":false},{"pitch":60,"velocity":119,"startTime":206.7305625,"endTime":206.81870343749998,"instrument":6,"program":62,"isDrum":false},{"pitch":65,"velocity":117,"startTime":206.7305625,"endTime":206.810690625,"instrument":6,"program":62,"isDrum":false},{"pitch":69,"velocity":117,"startTime":206.7305625,"endTime":206.8507546875,"instrument":6,"program":62,"isDrum":false},{"pitch":60,"velocity":114,"startTime":206.92287,"endTime":207.0270365625,"instrument":6,"program":62,"isDrum":false},{"pitch":67,"velocity":119,"startTime":206.92287,"endTime":207.051075,"instrument":6,"program":62,"isDrum":false},{"pitch":70,"velocity":119,"startTime":206.92287,"endTime":207.067100625,"instrument":6,"program":62,"isDrum":false},{"pitch":60,"velocity":119,"startTime":207.1151775,"endTime":207.21133125,"instrument":6,"program":62,"isDrum":false},{"pitch":65,"velocity":117,"startTime":207.1151775,"endTime":207.20331843749997,"instrument":6,"program":62,"isDrum":false},{"pitch":69,"velocity":119,"startTime":207.1151775,"endTime":207.22735687499997,"instrument":6,"program":62,"isDrum":false},{"pitch":60,"velocity":119,"startTime":207.30748499999999,"endTime":207.41966437499997,"instrument":6,"program":62,"isDrum":false},{"pitch":64,"velocity":119,"startTime":207.30748499999999,"endTime":207.4276771875,"instrument":6,"program":62,"isDrum":false},{"pitch":67,"velocity":119,"startTime":207.30748499999999,"endTime":207.451715625,"instrument":6,"program":62,"isDrum":false},{"pitch":60,"velocity":119,"startTime":207.88440749999998,"endTime":207.98056125,"instrument":6,"program":62,"isDrum":false},{"pitch":64,"velocity":117,"startTime":207.88440749999998,"endTime":207.9885740625,"instrument":6,"program":62,"isDrum":false},{"pitch":67,"velocity":118,"startTime":207.88440749999998,"endTime":207.964535625,"instrument":6,"program":62,"isDrum":false},{"pitch":60,"velocity":116,"startTime":208.07671499999998,"endTime":208.16485593749996,"instrument":6,"program":62,"isDrum":false},{"pitch":64,"velocity":115,"startTime":208.07671499999998,"endTime":208.156843125,"instrument":6,"program":62,"isDrum":false},{"pitch":67,"velocity":119,"startTime":208.07671499999998,"endTime":208.1969071875,"instrument":6,"program":62,"isDrum":false},{"pitch":60,"velocity":121,"startTime":208.2690225,"endTime":208.35716343749996,"instrument":6,"program":62,"isDrum":false},{"pitch":65,"velocity":118,"startTime":208.2690225,"endTime":208.3411378125,"instrument":6,"program":62,"isDrum":false},{"pitch":69,"velocity":120,"startTime":208.2690225,"endTime":208.37318906250002,"instrument":6,"program":62,"isDrum":false},{"pitch":60,"velocity":121,"startTime":208.46133,"endTime":208.54145812500002,"instrument":6,"program":62,"isDrum":false},{"pitch":67,"velocity":120,"startTime":208.46133,"endTime":208.58152218749998,"instrument":6,"program":62,"isDrum":false},{"pitch":70,"velocity":119,"startTime":208.46133,"endTime":208.60556062499998,"instrument":6,"program":62,"isDrum":false},{"pitch":60,"velocity":117,"startTime":208.6536375,"endTime":208.7578040625,"instrument":6,"program":62,"isDrum":false},{"pitch":65,"velocity":120,"startTime":208.6536375,"endTime":208.7417784375,"instrument":6,"program":62,"isDrum":false},{"pitch":69,"velocity":119,"startTime":208.6536375,"endTime":208.77382968749998,"instrument":6,"program":62,"isDrum":false},{"pitch":60,"velocity":121,"startTime":208.845945,"endTime":208.97415,"instrument":6,"program":62,"isDrum":false},{"pitch":64,"velocity":120,"startTime":208.845945,"endTime":208.97415,"instrument":6,"program":62,"isDrum":false},{"pitch":67,"velocity":121,"startTime":208.845945,"endTime":208.97415,"instrument":6,"program":62,"isDrum":false},{"pitch":60,"velocity":120,"startTime":209.4228675,"endTime":209.51902124999998,"instrument":6,"program":62,"isDrum":false},{"pitch":64,"velocity":121,"startTime":209.4228675,"endTime":209.51100843749998,"instrument":6,"program":62,"isDrum":false},{"pitch":67,"velocity":121,"startTime":209.4228675,"endTime":209.51100843749998,"instrument":6,"program":62,"isDrum":false},{"pitch":60,"velocity":117,"startTime":209.615175,"endTime":209.7193415625,"instrument":6,"program":62,"isDrum":false},{"pitch":64,"velocity":119,"startTime":209.615175,"endTime":209.695303125,"instrument":6,"program":62,"isDrum":false},{"pitch":67,"velocity":120,"startTime":209.615175,"endTime":209.74338,"instrument":6,"program":62,"isDrum":false},{"pitch":60,"velocity":119,"startTime":209.8074825,"endTime":209.89562343749998,"instrument":6,"program":62,"isDrum":false},{"pitch":65,"velocity":120,"startTime":209.8074825,"endTime":209.887610625,"instrument":6,"program":62,"isDrum":false},{"pitch":69,"velocity":120,"startTime":209.8074825,"endTime":209.91966187499997,"instrument":6,"program":62,"isDrum":false},{"pitch":60,"velocity":120,"startTime":209.99979,"endTime":210.09594375,"instrument":6,"program":62,"isDrum":false},{"pitch":67,"velocity":120,"startTime":209.99979,"endTime":210.1199821875,"instrument":6,"program":62,"isDrum":false},{"pitch":70,"velocity":119,"startTime":209.99979,"endTime":210.144020625,"instrument":6,"program":62,"isDrum":false},{"pitch":60,"velocity":121,"startTime":210.1920975,"endTime":210.28825125,"instrument":6,"program":62,"isDrum":false},{"pitch":65,"velocity":120,"startTime":210.1920975,"endTime":210.2642128125,"instrument":6,"program":62,"isDrum":false},{"pitch":69,"velocity":120,"startTime":210.1920975,"endTime":210.30427687499997,"instrument":6,"program":62,"isDrum":false},{"pitch":60,"velocity":122,"startTime":210.384405,"endTime":210.52062281249997,"instrument":6,"program":62,"isDrum":false},{"pitch":64,"velocity":119,"startTime":210.384405,"endTime":210.51261,"instrument":6,"program":62,"isDrum":false},{"pitch":67,"velocity":121,"startTime":210.384405,"endTime":210.52062281249997,"instrument":6,"program":62,"isDrum":false},{"pitch":72,"velocity":119,"startTime":211.34594249999998,"endTime":212.91645375000002,"instrument":6,"program":62,"isDrum":false},{"pitch":68,"velocity":119,"startTime":211.7305575,"endTime":212.9404921875,"instrument":6,"program":62,"isDrum":false},{"pitch":65,"velocity":119,"startTime":212.1151725,"endTime":212.98055624999998,"instrument":6,"program":62,"isDrum":false},{"pitch":63,"velocity":119,"startTime":212.4997875,"endTime":213.02062031249997,"instrument":6,"program":62,"isDrum":false},{"pitch":48,"velocity":120,"startTime":213.2690175,"endTime":213.5334403125,"instrument":6,"program":62,"isDrum":false},{"pitch":47,"velocity":121,"startTime":213.6536325,"endTime":213.894016875,"instrument":6,"program":62,"isDrum":false},{"pitch":44,"velocity":122,"startTime":214.03824749999998,"endTime":214.32670875,"instrument":6,"program":62,"isDrum":false},{"pitch":53,"velocity":122,"startTime":214.03824749999998,"endTime":214.23055499999998,"instrument":6,"program":62,"isDrum":false},{"pitch":43,"velocity":122,"startTime":214.42286249999998,"endTime":214.6712596875,"instrument":6,"program":62,"isDrum":false},{"pitch":50,"velocity":122,"startTime":214.42286249999998,"endTime":214.8074775,"instrument":6,"program":62,"isDrum":false},{"pitch":41,"velocity":122,"startTime":214.8074775,"endTime":215.047861875,"instrument":6,"program":62,"isDrum":false},{"pitch":56,"velocity":122,"startTime":214.8074775,"endTime":214.999785,"instrument":6,"program":62,"isDrum":false},{"pitch":38,"velocity":122,"startTime":215.1920925,"endTime":215.44048968750002,"instrument":6,"program":62,"isDrum":false},{"pitch":55,"velocity":122,"startTime":215.1920925,"endTime":215.3844,"instrument":6,"program":62,"isDrum":false},{"pitch":12,"velocity":121,"startTime":215.5767075,"endTime":215.9693353125,"instrument":6,"program":62,"isDrum":false},{"pitch":36,"velocity":122,"startTime":215.5767075,"endTime":215.9613225,"instrument":6,"program":62,"isDrum":false},{"pitch":43,"velocity":112,"startTime":216.7305525,"endTime":216.79465499999998,"instrument":6,"program":62,"isDrum":false},{"pitch":55,"velocity":111,"startTime":216.7305525,"endTime":216.810680625,"instrument":6,"program":62,"isDrum":false},{"pitch":43,"velocity":113,"startTime":216.92286,"endTime":217.002988125,"instrument":6,"program":62,"isDrum":false},{"pitch":55,"velocity":113,"startTime":216.92286,"endTime":217.002988125,"instrument":6,"program":62,"isDrum":false},{"pitch":45,"velocity":117,"startTime":217.11516749999998,"endTime":217.3154878125,"instrument":6,"program":62,"isDrum":false},{"pitch":57,"velocity":116,"startTime":217.11516749999998,"endTime":217.29946218749998,"instrument":6,"program":62,"isDrum":false},{"pitch":43,"velocity":116,"startTime":217.30747499999998,"endTime":217.59593625,"instrument":6,"program":62,"isDrum":false},{"pitch":55,"velocity":115,"startTime":217.30747499999998,"endTime":217.49176968749998,"instrument":6,"program":62,"isDrum":false},{"pitch":52,"velocity":121,"startTime":217.49978249999998,"endTime":217.6199746875,"instrument":6,"program":62,"isDrum":false},{"pitch":55,"velocity":120,"startTime":217.49978249999998,"endTime":217.58792343749997,"instrument":6,"program":62,"isDrum":false},{"pitch":43,"velocity":101,"startTime":217.69208999999998,"endTime":217.70811562499998,"instrument":6,"program":62,"isDrum":false},{"pitch":52,"velocity":118,"startTime":217.69208999999998,"endTime":217.8443334375,"instrument":6,"program":62,"isDrum":false},{"pitch":55,"velocity":119,"startTime":217.69208999999998,"endTime":218.02862812499998,"instrument":6,"program":62,"isDrum":false},{"pitch":53,"velocity":119,"startTime":217.88439749999998,"endTime":218.0366409375,"instrument":6,"program":62,"isDrum":false},{"pitch":52,"velocity":119,"startTime":218.076705,"endTime":218.20491,"instrument":6,"program":62,"isDrum":false},{"pitch":55,"velocity":119,"startTime":218.076705,"endTime":218.20491,"instrument":6,"program":62,"isDrum":false},{"pitch":50,"velocity":120,"startTime":218.2690125,"endTime":218.38920468749998,"instrument":6,"program":62,"isDrum":false},{"pitch":55,"velocity":119,"startTime":218.2690125,"endTime":218.3972175,"instrument":6,"program":62,"isDrum":false},{"pitch":48,"velocity":120,"startTime":218.46132,"endTime":218.5654865625,"instrument":6,"program":62,"isDrum":false},{"pitch":55,"velocity":119,"startTime":218.46132,"endTime":218.58151218749998,"instrument":6,"program":62,"isDrum":false},{"pitch":47,"velocity":121,"startTime":218.6536275,"endTime":218.8539478125,"instrument":6,"program":62,"isDrum":false},{"pitch":55,"velocity":121,"startTime":218.6536275,"endTime":218.8699734375,"instrument":6,"program":62,"isDrum":false},{"pitch":55,"velocity":119,"startTime":219.0382425,"endTime":219.32670374999998,"instrument":6,"program":62,"isDrum":false},{"pitch":59,"velocity":121,"startTime":219.4228575,"endTime":219.438883125,"instrument":6,"program":62,"isDrum":false},{"pitch":60,"velocity":118,"startTime":219.4228575,"endTime":219.87157499999998,"instrument":6,"program":62,"isDrum":false},{"pitch":60,"velocity":120,"startTime":219.99978,"endTime":220.11195937499997,"instrument":6,"program":62,"isDrum":false},{"pitch":60,"velocity":121,"startTime":220.19208749999999,"endTime":220.336318125,"instrument":6,"program":62,"isDrum":false},{"pitch":60,"velocity":119,"startTime":220.57670249999998,"endTime":220.68888187499996,"instrument":6,"program":62,"isDrum":false},{"pitch":60,"velocity":117,"startTime":220.76900999999998,"endTime":220.913240625,"instrument":6,"program":62,"isDrum":false},{"pitch":59,"velocity":118,"startTime":220.96131749999998,"endTime":221.08952250000002,"instrument":6,"program":62,"isDrum":false},{"pitch":59,"velocity":116,"startTime":221.153625,"endTime":221.2738171875,"instrument":6,"program":62,"isDrum":false},{"pitch":59,"velocity":119,"startTime":221.3459325,"endTime":221.46612468749998,"instrument":6,"program":62,"isDrum":false},{"pitch":59,"velocity":117,"startTime":221.53824,"endTime":221.6904834375,"instrument":6,"program":62,"isDrum":false},{"pitch":52,"velocity":121,"startTime":221.7305475,"endTime":221.9468934375,"instrument":6,"program":62,"isDrum":false},{"pitch":52,"velocity":121,"startTime":222.1151625,"endTime":222.40362374999998,"instrument":6,"program":62,"isDrum":false},{"pitch":50,"velocity":120,"startTime":222.4997775,"endTime":223.2690075,"instrument":6,"program":62,"isDrum":false},{"pitch":48,"velocity":119,"startTime":223.84592999999998,"endTime":223.94208375,"instrument":6,"program":62,"isDrum":false},{"pitch":66,"velocity":115,"startTime":298.26144,"endTime":298.3656065625,"instrument":6,"program":62,"isDrum":false},{"pitch":67,"velocity":120,"startTime":298.26144,"endTime":298.646055,"instrument":6,"program":62,"isDrum":false},{"pitch":65,"velocity":119,"startTime":298.646055,"endTime":298.9906059375,"instrument":6,"program":62,"isDrum":false},{"pitch":65,"velocity":120,"startTime":299.03067,"endTime":299.4793875,"instrument":6,"program":62,"isDrum":false},{"pitch":63,"velocity":117,"startTime":299.415285,"endTime":299.7438103125,"instrument":6,"program":62,"isDrum":false},{"pitch":63,"velocity":118,"startTime":299.7999,"endTime":300.184515,"instrument":6,"program":62,"isDrum":false},{"pitch":60,"velocity":116,"startTime":300.184515,"endTime":301.0098346875,"instrument":6,"program":62,"isDrum":false},{"pitch":62,"velocity":119,"startTime":300.95374499999997,"endTime":301.3303471875,"instrument":6,"program":62,"isDrum":false},{"pitch":63,"velocity":119,"startTime":301.33835999999997,"endTime":306.02585531249997,"instrument":6,"program":62,"isDrum":false},{"pitch":74,"velocity":119,"startTime":170.76906,"endTime":171.0815596875,"instrument":7,"program":69,"isDrum":false},{"pitch":73,"velocity":118,"startTime":171.153675,"endTime":171.22579031249998,"instrument":7,"program":69,"isDrum":false},{"pitch":73,"velocity":119,"startTime":171.3459825,"endTime":171.4341234375,"instrument":7,"program":69,"isDrum":false},{"pitch":71,"velocity":113,"startTime":171.53829,"endTime":171.57034124999998,"instrument":7,"program":69,"isDrum":false},{"pitch":72,"velocity":117,"startTime":171.53829,"endTime":171.61841812499998,"instrument":7,"program":69,"isDrum":false},{"pitch":72,"velocity":118,"startTime":171.7305975,"endTime":171.81072562499998,"instrument":7,"program":69,"isDrum":false},{"pitch":73,"velocity":119,"startTime":171.922905,"endTime":171.9950203125,"instrument":7,"program":69,"isDrum":false},{"pitch":73,"velocity":118,"startTime":172.11521249999998,"endTime":172.179315,"instrument":7,"program":69,"isDrum":false},{"pitch":74,"velocity":118,"startTime":172.30751999999998,"endTime":172.3796353125,"instrument":7,"program":69,"isDrum":false},{"pitch":74,"velocity":119,"startTime":172.49982749999998,"endTime":172.5879684375,"instrument":7,"program":69,"isDrum":false},{"pitch":73,"velocity":119,"startTime":172.69213499999998,"endTime":172.772263125,"instrument":7,"program":69,"isDrum":false},{"pitch":73,"velocity":118,"startTime":172.8844425,"endTime":172.964570625,"instrument":7,"program":69,"isDrum":false},{"pitch":72,"velocity":118,"startTime":173.07675,"endTime":173.381236875,"instrument":7,"program":69,"isDrum":false},{"pitch":59,"velocity":119,"startTime":180.384435,"endTime":180.496614375,"instrument":7,"program":69,"isDrum":false},{"pitch":67,"velocity":119,"startTime":180.384435,"endTime":180.48058874999998,"instrument":7,"program":69,"isDrum":false},{"pitch":59,"velocity":119,"startTime":180.5767425,"endTime":180.76905,"instrument":7,"program":69,"isDrum":false},{"pitch":67,"velocity":119,"startTime":180.5767425,"endTime":180.6648834375,"instrument":7,"program":69,"isDrum":false},{"pitch":60,"velocity":120,"startTime":180.76905,"endTime":181.0014215625,"instrument":7,"program":69,"isDrum":false},{"pitch":67,"velocity":120,"startTime":180.76905,"endTime":181.04148562499998,"instrument":7,"program":69,"isDrum":false},{"pitch":59,"velocity":120,"startTime":180.9613575,"endTime":181.0975753125,"instrument":7,"program":69,"isDrum":false},{"pitch":59,"velocity":120,"startTime":181.92289499999998,"endTime":182.01904875,"instrument":7,"program":69,"isDrum":false},{"pitch":67,"velocity":120,"startTime":181.92289499999998,"endTime":182.003023125,"instrument":7,"program":69,"isDrum":false},{"pitch":59,"velocity":120,"startTime":182.11520249999998,"endTime":182.30750999999998,"instrument":7,"program":69,"isDrum":false},{"pitch":67,"velocity":120,"startTime":182.11520249999998,"endTime":182.195330625,"instrument":7,"program":69,"isDrum":false},{"pitch":60,"velocity":120,"startTime":182.30750999999998,"endTime":182.4918046875,"instrument":7,"program":69,"isDrum":false},{"pitch":67,"velocity":120,"startTime":182.30750999999998,"endTime":182.4998175,"instrument":7,"program":69,"isDrum":false},{"pitch":59,"velocity":120,"startTime":182.4998175,"endTime":182.611996875,"instrument":7,"program":69,"isDrum":false},{"pitch":55,"velocity":120,"startTime":183.461355,"endTime":183.56552156249998,"instrument":7,"program":69,"isDrum":false},{"pitch":59,"velocity":120,"startTime":183.461355,"endTime":183.56552156249998,"instrument":7,"program":69,"isDrum":false},{"pitch":67,"velocity":120,"startTime":183.461355,"endTime":183.55750874999998,"instrument":7,"program":69,"isDrum":false},{"pitch":55,"velocity":120,"startTime":183.6536625,"endTime":183.797893125,"instrument":7,"program":69,"isDrum":false},{"pitch":59,"velocity":119,"startTime":183.6536625,"endTime":183.8379571875,"instrument":7,"program":69,"isDrum":false},{"pitch":67,"velocity":120,"startTime":183.6536625,"endTime":183.765841875,"instrument":7,"program":69,"isDrum":false},{"pitch":57,"velocity":120,"startTime":183.84597,"endTime":184.0382775,"instrument":7,"program":69,"isDrum":false},{"pitch":60,"velocity":119,"startTime":183.84597,"endTime":184.0302646875,"instrument":7,"program":69,"isDrum":false},{"pitch":67,"velocity":120,"startTime":183.84597,"endTime":184.58314875,"instrument":7,"program":69,"isDrum":false},{"pitch":55,"velocity":119,"startTime":184.0382775,"endTime":184.2065465625,"instrument":7,"program":69,"isDrum":false},{"pitch":59,"velocity":111,"startTime":184.0382775,"endTime":184.2546234375,"instrument":7,"program":69,"isDrum":false},{"pitch":54,"velocity":119,"startTime":184.230585,"endTime":184.342764375,"instrument":7,"program":69,"isDrum":false},{"pitch":57,"velocity":119,"startTime":184.230585,"endTime":184.44693093749999,"instrument":7,"program":69,"isDrum":false},{"pitch":52,"velocity":120,"startTime":184.4228925,"endTime":184.6152,"instrument":7,"program":69,"isDrum":false},{"pitch":55,"velocity":120,"startTime":184.4228925,"endTime":184.58314875,"instrument":7,"program":69,"isDrum":false},{"pitch":50,"velocity":120,"startTime":184.6152,"endTime":184.7834690625,"instrument":7,"program":69,"isDrum":false},{"pitch":54,"velocity":120,"startTime":184.6152,"endTime":184.80750749999999,"instrument":7,"program":69,"isDrum":false},{"pitch":62,"velocity":120,"startTime":184.6152,"endTime":184.8475715625,"instrument":7,"program":69,"isDrum":false},{"pitch":66,"velocity":120,"startTime":184.6152,"endTime":184.823533125,"instrument":7,"program":69,"isDrum":false},{"pitch":72,"velocity":118,"startTime":184.99981499999998,"endTime":185.1200071875,"instrument":7,"program":69,"isDrum":false},{"pitch":72,"velocity":118,"startTime":185.19212249999998,"endTime":185.28827625,"instrument":7,"program":69,"isDrum":false},{"pitch":72,"velocity":118,"startTime":185.38442999999998,"endTime":186.5943646875,"instrument":7,"program":69,"isDrum":false},{"pitch":69,"velocity":118,"startTime":185.57673749999998,"endTime":187.1151975,"instrument":7,"program":69,"isDrum":false},{"pitch":65,"velocity":118,"startTime":185.9613525,"endTime":187.1552615625,"instrument":7,"program":69,"isDrum":false},{"pitch":62,"velocity":119,"startTime":186.3459675,"endTime":187.17128718749998,"instrument":7,"program":69,"isDrum":false},{"pitch":60,"velocity":119,"startTime":186.7305825,"endTime":187.2353896875,"instrument":7,"program":69,"isDrum":false},{"pitch":72,"velocity":119,"startTime":211.34594249999998,"endTime":212.91645375000002,"instrument":7,"program":69,"isDrum":false},{"pitch":68,"velocity":119,"startTime":211.7305575,"endTime":212.9404921875,"instrument":7,"program":69,"isDrum":false},{"pitch":65,"velocity":119,"startTime":212.1151725,"endTime":212.98055624999998,"instrument":7,"program":69,"isDrum":false},{"pitch":63,"velocity":119,"startTime":212.4997875,"endTime":213.02062031249997,"instrument":7,"program":69,"isDrum":false},{"pitch":48,"velocity":120,"startTime":213.2690175,"endTime":213.5334403125,"instrument":7,"program":69,"isDrum":false},{"pitch":47,"velocity":120,"startTime":213.6536325,"endTime":213.894016875,"instrument":7,"program":69,"isDrum":false},{"pitch":44,"velocity":120,"startTime":214.03824749999998,"endTime":214.32670875,"instrument":7,"program":69,"isDrum":false},{"pitch":53,"velocity":120,"startTime":214.03824749999998,"endTime":214.23055499999998,"instrument":7,"program":69,"isDrum":false},{"pitch":43,"velocity":121,"startTime":214.42286249999998,"endTime":214.6712596875,"instrument":7,"program":69,"isDrum":false},{"pitch":50,"velocity":121,"startTime":214.42286249999998,"endTime":214.8074775,"instrument":7,"program":69,"isDrum":false},{"pitch":41,"velocity":121,"startTime":214.8074775,"endTime":215.047861875,"instrument":7,"program":69,"isDrum":false},{"pitch":56,"velocity":121,"startTime":214.8074775,"endTime":214.999785,"instrument":7,"program":69,"isDrum":false},{"pitch":38,"velocity":121,"startTime":215.1920925,"endTime":215.44048968750002,"instrument":7,"program":69,"isDrum":false},{"pitch":55,"velocity":121,"startTime":215.1920925,"endTime":215.3844,"instrument":7,"program":69,"isDrum":false},{"pitch":36,"velocity":120,"startTime":215.5767075,"endTime":215.9693353125,"instrument":7,"program":69,"isDrum":false},{"pitch":60,"velocity":121,"startTime":215.5767075,"endTime":215.9613225,"instrument":7,"program":69,"isDrum":false},{"pitch":79,"velocity":119,"startTime":215.9613225,"endTime":216.07350187499998,"instrument":7,"program":69,"isDrum":false},{"pitch":79,"velocity":120,"startTime":216.15363,"endTime":216.3058734375,"instrument":7,"program":69,"isDrum":false},{"pitch":81,"velocity":120,"startTime":216.3459375,"endTime":216.5142065625,"instrument":7,"program":69,"isDrum":false},{"pitch":79,"velocity":120,"startTime":216.538245,"endTime":217.4276671875,"instrument":7,"program":69,"isDrum":false},{"pitch":76,"velocity":120,"startTime":217.49978249999998,"endTime":217.6199746875,"instrument":7,"program":69,"isDrum":false},{"pitch":79,"velocity":120,"startTime":217.49978249999998,"endTime":217.59593625,"instrument":7,"program":69,"isDrum":false},{"pitch":76,"velocity":118,"startTime":217.69208999999998,"endTime":217.8443334375,"instrument":7,"program":69,"isDrum":false},{"pitch":79,"velocity":119,"startTime":217.69208999999998,"endTime":218.02862812499998,"instrument":7,"program":69,"isDrum":false},{"pitch":77,"velocity":119,"startTime":217.88439749999998,"endTime":218.0366409375,"instrument":7,"program":69,"isDrum":false},{"pitch":76,"velocity":119,"startTime":218.076705,"endTime":218.20491,"instrument":7,"program":69,"isDrum":false},{"pitch":79,"velocity":119,"startTime":218.076705,"endTime":218.20491,"instrument":7,"program":69,"isDrum":false},{"pitch":74,"velocity":120,"startTime":218.2690125,"endTime":218.38920468749998,"instrument":7,"program":69,"isDrum":false},{"pitch":79,"velocity":119,"startTime":218.2690125,"endTime":218.3972175,"instrument":7,"program":69,"isDrum":false},{"pitch":72,"velocity":120,"startTime":218.46132,"endTime":218.5654865625,"instrument":7,"program":69,"isDrum":false},{"pitch":79,"velocity":119,"startTime":218.46132,"endTime":218.58151218749998,"instrument":7,"program":69,"isDrum":false},{"pitch":71,"velocity":120,"startTime":218.6536275,"endTime":218.8539478125,"instrument":7,"program":69,"isDrum":false},{"pitch":79,"velocity":120,"startTime":218.6536275,"endTime":218.8699734375,"instrument":7,"program":69,"isDrum":false},{"pitch":79,"velocity":119,"startTime":219.0462553125,"endTime":219.3347165625,"instrument":7,"program":69,"isDrum":false},{"pitch":84,"velocity":119,"startTime":219.438883125,"endTime":219.887600625,"instrument":7,"program":69,"isDrum":false},{"pitch":83,"velocity":120,"startTime":219.4468959375,"endTime":219.4629215625,"instrument":7,"program":69,"isDrum":false},{"pitch":84,"velocity":120,"startTime":219.9757415625,"endTime":220.09593375,"instrument":7,"program":69,"isDrum":false},{"pitch":84,"velocity":120,"startTime":220.19208749999999,"endTime":220.336318125,"instrument":7,"program":69,"isDrum":false},{"pitch":84,"velocity":119,"startTime":220.56868968749998,"endTime":220.6808690625,"instrument":7,"program":69,"isDrum":false},{"pitch":84,"velocity":118,"startTime":220.74497156249998,"endTime":220.89721500000002,"instrument":7,"program":69,"isDrum":false},{"pitch":83,"velocity":119,"startTime":220.945291875,"endTime":221.073496875,"instrument":7,"program":69,"isDrum":false},{"pitch":83,"velocity":118,"startTime":221.14561218749998,"endTime":221.265804375,"instrument":7,"program":69,"isDrum":false},{"pitch":83,"velocity":119,"startTime":221.3459325,"endTime":221.46612468749998,"instrument":7,"program":69,"isDrum":false},{"pitch":83,"velocity":118,"startTime":221.53824,"endTime":221.6904834375,"instrument":7,"program":69,"isDrum":false},{"pitch":76,"velocity":120,"startTime":221.7385603125,"endTime":221.95490625,"instrument":7,"program":69,"isDrum":false},{"pitch":76,"velocity":120,"startTime":222.1231753125,"endTime":222.4116365625,"instrument":7,"program":69,"isDrum":false},{"pitch":74,"velocity":120,"startTime":222.5077903125,"endTime":223.83791718749998,"instrument":7,"program":69,"isDrum":false},{"pitch":72,"velocity":119,"startTime":223.84592999999998,"endTime":223.94208375,"instrument":7,"program":69,"isDrum":false},{"pitch":74,"velocity":118,"startTime":223.9500965625,"endTime":224.03823749999998,"instrument":7,"program":69,"isDrum":false},{"pitch":72,"velocity":118,"startTime":224.03823749999998,"endTime":224.118365625,"instrument":7,"program":69,"isDrum":false},{"pitch":74,"velocity":119,"startTime":224.13439125,"endTime":224.20650656249998,"instrument":7,"program":69,"isDrum":false},{"pitch":72,"velocity":118,"startTime":224.214519375,"endTime":224.310673125,"instrument":7,"program":69,"isDrum":false},{"pitch":74,"velocity":119,"startTime":224.3026603125,"endTime":224.310673125,"instrument":7,"program":69,"isDrum":false},{"pitch":72,"velocity":117,"startTime":224.39080124999998,"endTime":224.48695499999997,"instrument":7,"program":69,"isDrum":false},{"pitch":74,"velocity":119,"startTime":224.4789421875,"endTime":224.5430446875,"instrument":7,"program":69,"isDrum":false},{"pitch":72,"velocity":117,"startTime":224.56708312499998,"endTime":224.65522406249997,"instrument":7,"program":69,"isDrum":false},{"pitch":74,"velocity":119,"startTime":224.64721125,"endTime":224.72733937499999,"instrument":7,"program":69,"isDrum":false},{"pitch":72,"velocity":118,"startTime":224.743365,"endTime":224.8315059375,"instrument":7,"program":69,"isDrum":false},{"pitch":74,"velocity":119,"startTime":224.8315059375,"endTime":224.9116340625,"instrument":7,"program":69,"isDrum":false},{"pitch":72,"velocity":118,"startTime":224.92765968749998,"endTime":225.01580062499997,"instrument":7,"program":69,"isDrum":false},{"pitch":74,"velocity":119,"startTime":225.0077878125,"endTime":225.0879159375,"instrument":7,"program":69,"isDrum":false},{"pitch":72,"velocity":119,"startTime":225.11195437499998,"endTime":225.2000953125,"instrument":7,"program":69,"isDrum":false},{"pitch":74,"velocity":118,"startTime":225.1920825,"endTime":225.256185,"instrument":7,"program":69,"isDrum":false},{"pitch":72,"velocity":118,"startTime":225.28022343749998,"endTime":225.368364375,"instrument":7,"program":69,"isDrum":false},{"pitch":74,"velocity":119,"startTime":225.368364375,"endTime":225.4484925,"instrument":7,"program":69,"isDrum":false},{"pitch":72,"velocity":119,"startTime":225.47253093749998,"endTime":225.56868468749997,"instrument":7,"program":69,"isDrum":false},{"pitch":74,"velocity":119,"startTime":225.560671875,"endTime":225.6327871875,"instrument":7,"program":69,"isDrum":false},{"pitch":72,"velocity":118,"startTime":225.656825625,"endTime":225.73695374999997,"instrument":7,"program":69,"isDrum":false},{"pitch":74,"velocity":119,"startTime":225.73695374999997,"endTime":225.80105625000002,"instrument":7,"program":69,"isDrum":false},{"pitch":72,"velocity":118,"startTime":225.83310749999998,"endTime":225.913235625,"instrument":7,"program":69,"isDrum":false},{"pitch":74,"velocity":119,"startTime":225.913235625,"endTime":225.99336375000001,"instrument":7,"program":69,"isDrum":false},{"pitch":72,"velocity":118,"startTime":226.0174021875,"endTime":226.09753031249997,"instrument":7,"program":69,"isDrum":false},{"pitch":74,"velocity":119,"startTime":226.09753031249997,"endTime":226.17765843749999,"instrument":7,"program":69,"isDrum":false},{"pitch":72,"velocity":118,"startTime":226.20169687499998,"endTime":226.2097096875,"instrument":7,"program":69,"isDrum":false},{"pitch":74,"velocity":119,"startTime":226.281825,"endTime":226.36195312499999,"instrument":7,"program":69,"isDrum":false},{"pitch":72,"velocity":119,"startTime":226.38599156249998,"endTime":226.4661196875,"instrument":7,"program":69,"isDrum":false},{"pitch":74,"velocity":118,"startTime":226.4741325,"endTime":226.5462478125,"instrument":7,"program":69,"isDrum":false},{"pitch":72,"velocity":119,"startTime":226.56227343749998,"endTime":226.6584271875,"instrument":7,"program":69,"isDrum":false},{"pitch":74,"velocity":118,"startTime":226.6584271875,"endTime":226.72252968749999,"instrument":7,"program":69,"isDrum":false},{"pitch":72,"velocity":117,"startTime":226.72252968749999,"endTime":226.810670625,"instrument":7,"program":69,"isDrum":false},{"pitch":74,"velocity":117,"startTime":226.810670625,"endTime":226.88278593750002,"instrument":7,"program":69,"isDrum":false},{"pitch":72,"velocity":117,"startTime":226.86676031249996,"endTime":226.96291406249998,"instrument":7,"program":69,"isDrum":false},{"pitch":71,"velocity":111,"startTime":226.9789396875,"endTime":227.067080625,"instrument":7,"program":69,"isDrum":false},{"pitch":72,"velocity":119,"startTime":227.0590678125,"endTime":228.22779375000002,"instrument":7,"program":69,"isDrum":false},{"pitch":67,"velocity":122,"startTime":143.82197156249998,"endTime":144.2226121875,"instrument":8,"program":30,"isDrum":false},{"pitch":65,"velocity":124,"startTime":144.19857375,"endTime":144.3988940625,"instrument":8,"program":30,"isDrum":false},{"pitch":63,"velocity":124,"startTime":144.40690687499998,"endTime":144.567163125,"instrument":8,"program":30,"isDrum":false},{"pitch":70,"velocity":124,"startTime":144.5912015625,"endTime":145.7610721875,"instrument":8,"program":30,"isDrum":false},{"pitch":67,"velocity":124,"startTime":145.7610721875,"endTime":146.137674375,"instrument":8,"program":30,"isDrum":false},{"pitch":72,"velocity":124,"startTime":146.1456871875,"endTime":147.5399165625,"instrument":8,"program":30,"isDrum":false},{"pitch":72,"velocity":124,"startTime":147.6681215625,"endTime":148.124851875,"instrument":8,"program":30,"isDrum":false},{"pitch":74,"velocity":124,"startTime":148.076775,"endTime":148.2690825,"instrument":8,"program":30,"isDrum":false},{"pitch":75,"velocity":124,"startTime":148.2610696875,"endTime":148.51747968749999,"instrument":8,"program":30,"isDrum":false},{"pitch":72,"velocity":124,"startTime":148.5014540625,"endTime":148.8860690625,"instrument":8,"program":30,"isDrum":false},{"pitch":74,"velocity":124,"startTime":148.8540178125,"endTime":149.06235093749999,"instrument":8,"program":30,"isDrum":false},{"pitch":75,"velocity":124,"startTime":149.0383125,"endTime":149.25465843749998,"instrument":8,"program":30,"isDrum":false},{"pitch":77,"velocity":124,"startTime":149.2706840625,"endTime":150.400490625,"instrument":8,"program":30,"isDrum":false},{"pitch":72,"velocity":124,"startTime":150.4085034375,"endTime":150.68895187500001,"instrument":8,"program":30,"isDrum":false},{"pitch":77,"velocity":124,"startTime":150.72901593749998,"endTime":150.9613875,"instrument":8,"program":30,"isDrum":false},{"pitch":79,"velocity":123,"startTime":150.9613875,"endTime":151.105618125,"instrument":8,"program":30,"isDrum":false},{"pitch":80,"velocity":124,"startTime":151.18574625,"endTime":151.297925625,"instrument":8,"program":30,"isDrum":false},{"pitch":82,"velocity":124,"startTime":151.3460025,"endTime":151.4341434375,"instrument":8,"program":30,"isDrum":false},{"pitch":82,"velocity":124,"startTime":151.522284375,"endTime":152.77228312499997,"instrument":8,"program":30,"isDrum":false},{"pitch":80,"velocity":124,"startTime":152.7562575,"endTime":152.88446249999998,"instrument":8,"program":30,"isDrum":false},{"pitch":82,"velocity":124,"startTime":152.89247531249998,"endTime":153.06074437499998,"instrument":8,"program":30,"isDrum":false},{"pitch":80,"velocity":124,"startTime":153.028693125,"endTime":153.1488853125,"instrument":8,"program":30,"isDrum":false},{"pitch":79,"velocity":124,"startTime":153.1488853125,"endTime":153.285103125,"instrument":8,"program":30,"isDrum":false},{"pitch":80,"velocity":124,"startTime":153.285103125,"endTime":153.4052953125,"instrument":8,"program":30,"isDrum":false},{"pitch":79,"velocity":124,"startTime":153.3892696875,"endTime":153.5254875,"instrument":8,"program":30,"isDrum":false},{"pitch":77,"velocity":124,"startTime":153.5174746875,"endTime":153.62965406249998,"instrument":8,"program":30,"isDrum":false},{"pitch":79,"velocity":124,"startTime":153.60561562499998,"endTime":153.7578590625,"instrument":8,"program":30,"isDrum":false},{"pitch":77,"velocity":124,"startTime":153.7097821875,"endTime":153.846,"instrument":8,"program":30,"isDrum":false},{"pitch":75,"velocity":124,"startTime":153.8379871875,"endTime":153.97420499999998,"instrument":8,"program":30,"isDrum":false},{"pitch":77,"velocity":124,"startTime":153.97420499999998,"endTime":154.0783715625,"instrument":8,"program":30,"isDrum":false},{"pitch":75,"velocity":124,"startTime":154.0623459375,"endTime":154.19055093749998,"instrument":8,"program":30,"isDrum":false},{"pitch":74,"velocity":124,"startTime":154.1745253125,"endTime":154.2546534375,"instrument":8,"program":30,"isDrum":false},{"pitch":75,"velocity":124,"startTime":154.2546534375,"endTime":154.3668328125,"instrument":8,"program":30,"isDrum":false},{"pitch":74,"velocity":124,"startTime":154.35080718749998,"endTime":154.4469609375,"instrument":8,"program":30,"isDrum":false},{"pitch":72,"velocity":124,"startTime":154.45497375,"endTime":154.61523,"instrument":8,"program":30,"isDrum":false},{"pitch":70,"velocity":124,"startTime":154.58317875,"endTime":155.3443959375,"instrument":8,"program":30,"isDrum":false},{"pitch":70,"velocity":124,"startTime":155.63285718749998,"endTime":155.79311343749998,"instrument":8,"program":30,"isDrum":false},{"pitch":72,"velocity":124,"startTime":155.8091390625,"endTime":156.009459375,"instrument":8,"program":30,"isDrum":false},{"pitch":74,"velocity":124,"startTime":155.96939531249998,"endTime":156.0976003125,"instrument":8,"program":30,"isDrum":false},{"pitch":75,"velocity":124,"startTime":156.1296515625,"endTime":156.2418309375,"instrument":8,"program":30,"isDrum":false},{"pitch":77,"velocity":124,"startTime":156.2738821875,"endTime":156.426125625,"instrument":8,"program":30,"isDrum":false},{"pitch":79,"velocity":124,"startTime":156.40208718749997,"endTime":156.52227937499998,"instrument":8,"program":30,"isDrum":false},{"pitch":80,"velocity":124,"startTime":156.53830499999998,"endTime":156.66651,"instrument":8,"program":30,"isDrum":false},{"pitch":82,"velocity":124,"startTime":156.6584971875,"endTime":157.17933,"instrument":8,"program":30,"isDrum":false},{"pitch":70,"velocity":124,"startTime":157.1713171875,"endTime":157.27548375,"instrument":8,"program":30,"isDrum":false},{"pitch":72,"velocity":124,"startTime":157.2995221875,"endTime":157.48381687499997,"instrument":8,"program":30,"isDrum":false},{"pitch":74,"velocity":124,"startTime":157.451765625,"endTime":157.579970625,"instrument":8,"program":30,"isDrum":false},{"pitch":75,"velocity":124,"startTime":157.59599624999998,"endTime":157.7161884375,"instrument":8,"program":30,"isDrum":false},{"pitch":77,"velocity":124,"startTime":157.7322140625,"endTime":157.91650875,"instrument":8,"program":30,"isDrum":false},{"pitch":79,"velocity":124,"startTime":157.8844575,"endTime":158.01266249999998,"instrument":8,"program":30,"isDrum":false},{"pitch":80,"velocity":124,"startTime":158.03670093749997,"endTime":158.15689312499998,"instrument":8,"program":30,"isDrum":false},{"pitch":82,"velocity":124,"startTime":158.17291874999998,"endTime":159.61522499999998,"instrument":8,"program":30,"isDrum":false},{"pitch":74,"velocity":124,"startTime":159.61522499999998,"endTime":159.79150687499998,"instrument":8,"program":30,"isDrum":false},{"pitch":75,"velocity":124,"startTime":159.8075325,"endTime":159.99984,"instrument":8,"program":30,"isDrum":false},{"pitch":72,"velocity":124,"startTime":159.99984,"endTime":160.3604165625,"instrument":8,"program":30,"isDrum":false},{"pitch":74,"velocity":124,"startTime":160.384455,"endTime":160.5767625,"instrument":8,"program":30,"isDrum":false},{"pitch":75,"velocity":124,"startTime":160.5527240625,"endTime":160.7931084375,"instrument":8,"program":30,"isDrum":false},{"pitch":72,"velocity":124,"startTime":160.785095625,"endTime":161.201761875,"instrument":8,"program":30,"isDrum":false},{"pitch":74,"velocity":124,"startTime":161.1456721875,"endTime":161.3379796875,"instrument":8,"program":30,"isDrum":false},{"pitch":75,"velocity":124,"startTime":161.3219540625,"endTime":161.5302871875,"instrument":8,"program":30,"isDrum":false},{"pitch":77,"velocity":124,"startTime":161.554325625,"endTime":162.612016875,"instrument":8,"program":30,"isDrum":false},{"pitch":65,"velocity":124,"startTime":162.6200296875,"endTime":162.932529375,"instrument":8,"program":30,"isDrum":false},{"pitch":67,"velocity":124,"startTime":162.86842687499998,"endTime":163.1168240625,"instrument":8,"program":30,"isDrum":false},{"pitch":68,"velocity":124,"startTime":163.124836875,"endTime":163.78188749999998,"instrument":8,"program":30,"isDrum":false},{"pitch":77,"velocity":124,"startTime":163.80592593749998,"endTime":164.61522,"instrument":8,"program":30,"isDrum":false},{"pitch":68,"velocity":124,"startTime":164.6072071875,"endTime":165.64086,"instrument":8,"program":30,"isDrum":false},{"pitch":73,"velocity":124,"startTime":165.63284718749998,"endTime":165.79310343749998,"instrument":8,"program":30,"isDrum":false},{"pitch":73,"velocity":124,"startTime":165.86521875,"endTime":166.0895775,"instrument":8,"program":30,"isDrum":false},{"pitch":73,"velocity":124,"startTime":166.18573124999998,"endTime":166.89085875,"instrument":8,"program":30,"isDrum":false},{"pitch":61,"velocity":124,"startTime":166.90688437499998,"endTime":167.4757940625,"instrument":8,"program":30,"isDrum":false},{"pitch":53,"velocity":122,"startTime":228.4713,"endTime":228.7513321875,"instrument":8,"program":30,"isDrum":false},{"pitch":45,"velocity":122,"startTime":228.73104,"endTime":228.99078,"instrument":8,"program":30,"isDrum":false},{"pitch":46,"velocity":121,"startTime":228.99078,"endTime":229.23834468750002,"instrument":8,"program":30,"isDrum":false},{"pitch":47,"velocity":121,"startTime":229.25052,"endTime":229.502143125,"instrument":8,"program":30,"isDrum":false},{"pitch":48,"velocity":121,"startTime":229.51026000000002,"endTime":229.664480625,"instrument":8,"program":30,"isDrum":false},{"pitch":50,"velocity":119,"startTime":229.64013,"endTime":229.7740584375,"instrument":8,"program":30,"isDrum":false},{"pitch":52,"velocity":121,"startTime":229.77,"endTime":229.94857125000001,"instrument":8,"program":30,"isDrum":false},{"pitch":53,"velocity":121,"startTime":229.89987,"endTime":229.9850971875,"instrument":8,"program":30,"isDrum":false},{"pitch":53,"velocity":121,"startTime":230.02974,"endTime":230.30571375,"instrument":8,"program":30,"isDrum":false},{"pitch":45,"velocity":121,"startTime":230.28948,"endTime":230.5938628125,"instrument":8,"program":30,"isDrum":false},{"pitch":46,"velocity":121,"startTime":230.54922,"endTime":230.7967846875,"instrument":8,"program":30,"isDrum":false},{"pitch":47,"velocity":120,"startTime":230.80896,"endTime":230.9753559375,"instrument":8,"program":30,"isDrum":false},{"pitch":48,"velocity":117,"startTime":230.93883,"endTime":231.044349375,"instrument":8,"program":30,"isDrum":false},{"pitch":50,"velocity":121,"startTime":231.0687,"endTime":231.206686875,"instrument":8,"program":30,"isDrum":false},{"pitch":48,"velocity":123,"startTime":231.19857000000002,"endTime":231.53136187500002,"instrument":8,"program":30,"isDrum":false},{"pitch":53,"velocity":120,"startTime":231.58818,"endTime":231.8682121875,"instrument":8,"program":30,"isDrum":false},{"pitch":45,"velocity":120,"startTime":231.84792000000002,"endTime":232.0873678125,"instrument":8,"program":30,"isDrum":false},{"pitch":46,"velocity":121,"startTime":232.10766,"endTime":232.37551687500002,"instrument":8,"program":30,"isDrum":false},{"pitch":47,"velocity":121,"startTime":232.3674,"endTime":232.64743218750002,"instrument":8,"program":30,"isDrum":false},{"pitch":48,"velocity":119,"startTime":232.62714,"endTime":232.8016528125,"instrument":8,"program":30,"isDrum":false},{"pitch":50,"velocity":120,"startTime":232.75701,"endTime":232.8909384375,"instrument":8,"program":30,"isDrum":false},{"pitch":52,"velocity":119,"startTime":232.88688000000002,"endTime":233.06950968750002,"instrument":8,"program":30,"isDrum":false},{"pitch":53,"velocity":118,"startTime":233.01675,"endTime":233.11415250000002,"instrument":8,"program":30,"isDrum":false},{"pitch":55,"velocity":122,"startTime":233.14662,"endTime":233.4023015625,"instrument":8,"program":30,"isDrum":false},{"pitch":47,"velocity":121,"startTime":233.40636,"endTime":233.7269765625,"instrument":8,"program":30,"isDrum":false},{"pitch":48,"velocity":116,"startTime":233.6661,"endTime":233.885255625,"instrument":8,"program":30,"isDrum":false},{"pitch":49,"velocity":117,"startTime":233.92584,"endTime":234.08006062500002,"instrument":8,"program":30,"isDrum":false},{"pitch":50,"velocity":121,"startTime":234.120645,"endTime":234.29109937500002,"instrument":8,"program":30,"isDrum":false},{"pitch":52,"velocity":118,"startTime":234.250515,"endTime":234.3479175,"instrument":8,"program":30,"isDrum":false},{"pitch":50,"velocity":114,"startTime":234.31545,"endTime":234.680709375,"instrument":8,"program":30,"isDrum":false},{"pitch":43,"velocity":123,"startTime":234.70506,"endTime":237.0711290625,"instrument":8,"program":30,"isDrum":false},{"pitch":48,"velocity":121,"startTime":234.70506,"endTime":237.8178815625,"instrument":8,"program":30,"isDrum":false},{"pitch":41,"velocity":121,"startTime":237.04272,"endTime":237.7935309375,"instrument":8,"program":30,"isDrum":false},{"pitch":43,"velocity":117,"startTime":237.82194,"endTime":239.3357371875,"instrument":8,"program":30,"isDrum":false},{"pitch":48,"velocity":122,"startTime":237.82194,"endTime":237.8422321875,"instrument":8,"program":30,"isDrum":false},{"pitch":43,"velocity":118,"startTime":239.38038,"endTime":239.5467759375,"instrument":8,"program":30,"isDrum":false},{"pitch":46,"velocity":120,"startTime":239.51025,"endTime":239.62388625,"instrument":8,"program":30,"isDrum":false},{"pitch":48,"velocity":121,"startTime":239.64012,"endTime":239.7375225,"instrument":8,"program":30,"isDrum":false},{"pitch":48,"velocity":121,"startTime":239.76999,"endTime":239.91609375000002,"instrument":8,"program":30,"isDrum":false},{"pitch":46,"velocity":119,"startTime":239.89986,"endTime":240.00537937500002,"instrument":8,"program":30,"isDrum":false},{"pitch":51,"velocity":121,"startTime":240.02973,"endTime":240.9591121875,"instrument":8,"program":30,"isDrum":false},{"pitch":43,"velocity":124,"startTime":240.93882,"endTime":243.211545,"instrument":8,"program":30,"isDrum":false},{"pitch":48,"velocity":122,"startTime":240.93882,"endTime":244.1246934375,"instrument":8,"program":30,"isDrum":false},{"pitch":41,"velocity":121,"startTime":243.27648,"endTime":244.00699875,"instrument":8,"program":30,"isDrum":false},{"pitch":46,"velocity":121,"startTime":244.0557,"endTime":245.5938478125,"instrument":8,"program":30,"isDrum":false},{"pitch":53,"velocity":121,"startTime":244.0557,"endTime":245.606023125,"instrument":8,"program":30,"isDrum":false},{"pitch":43,"velocity":120,"startTime":245.61414000000002,"endTime":247.1117034375,"instrument":8,"program":30,"isDrum":false},{"pitch":50,"velocity":122,"startTime":245.61414000000002,"endTime":247.21316437500002,"instrument":8,"program":30,"isDrum":false},{"pitch":48,"velocity":120,"startTime":247.17258,"endTime":248.7756628125,"instrument":8,"program":30,"isDrum":false},{"pitch":43,"velocity":122,"startTime":248.73102,"endTime":250.20829125,"instrument":8,"program":30,"isDrum":false},{"pitch":46,"velocity":120,"startTime":248.73102,"endTime":250.2569925,"instrument":8,"program":30,"isDrum":false},{"pitch":43,"velocity":120,"startTime":250.28946000000002,"endTime":251.807315625,"instrument":8,"program":30,"isDrum":false},{"pitch":48,"velocity":118,"startTime":250.28946000000002,"endTime":251.86007531250002,"instrument":8,"program":30,"isDrum":false},{"pitch":43,"velocity":118,"startTime":251.8479,"endTime":252.5824771875,"instrument":8,"program":30,"isDrum":false},{"pitch":46,"velocity":121,"startTime":251.8479,"endTime":252.62712,"instrument":8,"program":30,"isDrum":false},{"pitch":43,"velocity":122,"startTime":252.62712,"endTime":253.33734656250002,"instrument":8,"program":30,"isDrum":false},{"pitch":48,"velocity":118,"startTime":252.62712,"endTime":253.4266321875,"instrument":8,"program":30,"isDrum":false},{"pitch":43,"velocity":119,"startTime":253.40634,"endTime":254.9607215625,"instrument":8,"program":30,"isDrum":false},{"pitch":46,"velocity":121,"startTime":253.40634,"endTime":254.1896184375,"instrument":8,"program":30,"isDrum":false},{"pitch":48,"velocity":116,"startTime":254.18556,"endTime":254.9850721875,"instrument":8,"program":30,"isDrum":false},{"pitch":53,"velocity":121,"startTime":254.96478000000002,"endTime":255.216403125,"instrument":8,"program":30,"isDrum":false},{"pitch":45,"velocity":121,"startTime":255.22452,"endTime":255.476143125,"instrument":8,"program":30,"isDrum":false},{"pitch":46,"velocity":120,"startTime":255.48426,"endTime":255.73588312500002,"instrument":8,"program":30,"isDrum":false},{"pitch":47,"velocity":122,"startTime":255.744,"endTime":256.0362075,"instrument":8,"program":30,"isDrum":false},{"pitch":48,"velocity":117,"startTime":256.00374,"endTime":256.16607750000003,"instrument":8,"program":30,"isDrum":false},{"pitch":50,"velocity":118,"startTime":256.13361,"endTime":256.2675384375,"instrument":8,"program":30,"isDrum":false},{"pitch":52,"velocity":120,"startTime":256.26348,"endTime":256.4379928125,"instrument":8,"program":30,"isDrum":false},{"pitch":53,"velocity":121,"startTime":256.39335,"endTime":256.4866940625,"instrument":8,"program":30,"isDrum":false},{"pitch":53,"velocity":121,"startTime":256.52322,"endTime":256.774843125,"instrument":8,"program":30,"isDrum":false},{"pitch":45,"velocity":121,"startTime":256.78296,"endTime":257.05487531250003,"instrument":8,"program":30,"isDrum":false},{"pitch":46,"velocity":120,"startTime":257.0427,"endTime":257.2821478125,"instrument":8,"program":30,"isDrum":false},{"pitch":47,"velocity":120,"startTime":257.30244,"endTime":257.4444853125,"instrument":8,"program":30,"isDrum":false},{"pitch":48,"velocity":117,"startTime":257.43231000000003,"endTime":257.5418878125,"instrument":8,"program":30,"isDrum":false},{"pitch":50,"velocity":122,"startTime":257.56218,"endTime":257.700166875,"instrument":8,"program":30,"isDrum":false},{"pitch":48,"velocity":122,"startTime":257.69205,"endTime":258.0532509375,"instrument":8,"program":30,"isDrum":false},{"pitch":53,"velocity":122,"startTime":258.08166,"endTime":258.35763375,"instrument":8,"program":30,"isDrum":false},{"pitch":45,"velocity":122,"startTime":258.3414,"endTime":258.609256875,"instrument":8,"program":30,"isDrum":false},{"pitch":46,"velocity":121,"startTime":258.60114,"endTime":258.8487046875,"instrument":8,"program":30,"isDrum":false},{"pitch":47,"velocity":121,"startTime":258.86088,"endTime":259.1327953125,"instrument":8,"program":30,"isDrum":false},{"pitch":48,"velocity":116,"startTime":259.12062000000003,"endTime":259.25454843750003,"instrument":8,"program":30,"isDrum":false},{"pitch":50,"velocity":117,"startTime":259.25049,"endTime":259.36412625,"instrument":8,"program":30,"isDrum":false},{"pitch":52,"velocity":118,"startTime":259.38036,"endTime":259.5792234375,"instrument":8,"program":30,"isDrum":false},{"pitch":53,"velocity":118,"startTime":259.51023,"endTime":259.599515625,"instrument":8,"program":30,"isDrum":false},{"pitch":55,"velocity":121,"startTime":259.6401,"endTime":259.891723125,"instrument":8,"program":30,"isDrum":false},{"pitch":47,"velocity":121,"startTime":259.89984,"endTime":260.2285734375,"instrument":8,"program":30,"isDrum":false},{"pitch":48,"velocity":119,"startTime":260.15958,"endTime":260.411203125,"instrument":8,"program":30,"isDrum":false},{"pitch":50,"velocity":120,"startTime":260.41932,"endTime":260.6506509375,"instrument":8,"program":30,"isDrum":false},{"pitch":51,"velocity":117,"startTime":260.67906,"endTime":260.800813125,"instrument":8,"program":30,"isDrum":false},{"pitch":52,"velocity":121,"startTime":260.80893000000003,"endTime":260.9388,"instrument":8,"program":30,"isDrum":false},{"pitch":53,"velocity":116,"startTime":260.9388,"endTime":261.03214406250004,"instrument":8,"program":30,"isDrum":false},{"pitch":55,"velocity":120,"startTime":261.06867,"endTime":261.190423125,"instrument":8,"program":30,"isDrum":false},{"pitch":54,"velocity":120,"startTime":261.19854,"endTime":261.368994375,"instrument":8,"program":30,"isDrum":false},{"pitch":56,"velocity":119,"startTime":261.32841,"endTime":261.4623384375,"instrument":8,"program":30,"isDrum":false},{"pitch":58,"velocity":121,"startTime":261.45828,"endTime":261.5678578125,"instrument":8,"program":30,"isDrum":false},{"pitch":56,"velocity":120,"startTime":261.71802,"endTime":261.856006875,"instrument":8,"program":30,"isDrum":false},{"pitch":58,"velocity":118,"startTime":261.84789,"endTime":261.9899353125,"instrument":8,"program":30,"isDrum":false},{"pitch":60,"velocity":121,"startTime":261.97776,"endTime":262.131980625,"instrument":8,"program":30,"isDrum":false},{"pitch":58,"velocity":120,"startTime":262.36737,"endTime":262.4850646875,"instrument":8,"program":30,"isDrum":false},{"pitch":60,"velocity":119,"startTime":262.49724000000003,"endTime":262.6636359375,"instrument":8,"program":30,"isDrum":false},{"pitch":62,"velocity":118,"startTime":262.62711,"endTime":262.7042203125,"instrument":8,"program":30,"isDrum":false},{"pitch":47,"velocity":121,"startTime":262.75698,"endTime":262.821915,"instrument":8,"program":30,"isDrum":false},{"pitch":49,"velocity":116,"startTime":262.821915,"endTime":262.88685,"instrument":8,"program":30,"isDrum":false},{"pitch":51,"velocity":116,"startTime":262.88685,"endTime":262.95178500000003,"instrument":8,"program":30,"isDrum":false},{"pitch":49,"velocity":117,"startTime":262.95178500000003,"endTime":263.01672,"instrument":8,"program":30,"isDrum":false},{"pitch":51,"velocity":117,"startTime":263.01672,"endTime":263.081655,"instrument":8,"program":30,"isDrum":false},{"pitch":54,"velocity":118,"startTime":263.081655,"endTime":263.14659,"instrument":8,"program":30,"isDrum":false},{"pitch":51,"velocity":118,"startTime":263.14659,"endTime":263.211525,"instrument":8,"program":30,"isDrum":false},{"pitch":54,"velocity":118,"startTime":263.211525,"endTime":263.27646,"instrument":8,"program":30,"isDrum":false},{"pitch":52,"velocity":121,"startTime":263.27646,"endTime":263.34139500000003,"instrument":8,"program":30,"isDrum":false},{"pitch":54,"velocity":118,"startTime":263.34139500000003,"endTime":263.40633,"instrument":8,"program":30,"isDrum":false},{"pitch":54,"velocity":119,"startTime":263.40633,"endTime":263.471265,"instrument":8,"program":30,"isDrum":false},{"pitch":56,"velocity":121,"startTime":263.471265,"endTime":263.5686675,"instrument":8,"program":30,"isDrum":false},{"pitch":58,"velocity":120,"startTime":263.5362,"endTime":263.601135,"instrument":8,"program":30,"isDrum":false},{"pitch":58,"velocity":119,"startTime":263.601135,"endTime":263.66607,"instrument":8,"program":30,"isDrum":false},{"pitch":56,"velocity":119,"startTime":263.66607,"endTime":263.7512971875,"instrument":8,"program":30,"isDrum":false},{"pitch":54,"velocity":119,"startTime":263.731005,"endTime":263.79594000000003,"instrument":8,"program":30,"isDrum":false},{"pitch":53,"velocity":119,"startTime":263.79594000000003,"endTime":263.860875,"instrument":8,"program":30,"isDrum":false},{"pitch":56,"velocity":119,"startTime":263.860875,"endTime":263.9542190625,"instrument":8,"program":30,"isDrum":false},{"pitch":58,"velocity":120,"startTime":263.92581,"endTime":263.990745,"instrument":8,"program":30,"isDrum":false},{"pitch":59,"velocity":121,"startTime":263.990745,"endTime":264.063796875,"instrument":8,"program":30,"isDrum":false},{"pitch":61,"velocity":121,"startTime":264.05568,"endTime":264.1327903125,"instrument":8,"program":30,"isDrum":false},{"pitch":62,"velocity":120,"startTime":264.120615,"endTime":264.18555000000003,"instrument":8,"program":30,"isDrum":false},{"pitch":63,"velocity":118,"startTime":264.18555000000003,"endTime":264.31542,"instrument":8,"program":30,"isDrum":false},{"pitch":44,"velocity":120,"startTime":264.31542,"endTime":264.380355,"instrument":8,"program":30,"isDrum":false},{"pitch":46,"velocity":124,"startTime":264.380355,"endTime":264.44529,"instrument":8,"program":30,"isDrum":false},{"pitch":48,"velocity":125,"startTime":264.44529,"endTime":264.510225,"instrument":8,"program":30,"isDrum":false},{"pitch":46,"velocity":125,"startTime":264.510225,"endTime":264.57516,"instrument":8,"program":30,"isDrum":false},{"pitch":44,"velocity":125,"startTime":264.57516,"endTime":264.640095,"instrument":8,"program":30,"isDrum":false},{"pitch":46,"velocity":125,"startTime":264.640095,"endTime":264.70503,"instrument":8,"program":30,"isDrum":false},{"pitch":48,"velocity":125,"startTime":264.70503,"endTime":264.769965,"instrument":8,"program":30,"isDrum":false},{"pitch":50,"velocity":125,"startTime":264.769965,"endTime":264.8349,"instrument":8,"program":30,"isDrum":false},{"pitch":51,"velocity":125,"startTime":264.8349,"endTime":264.899835,"instrument":8,"program":30,"isDrum":false},{"pitch":53,"velocity":125,"startTime":264.899835,"endTime":264.96477,"instrument":8,"program":30,"isDrum":false},{"pitch":56,"velocity":125,"startTime":264.96477,"endTime":265.02970500000004,"instrument":8,"program":30,"isDrum":false},{"pitch":55,"velocity":125,"startTime":265.02970500000004,"endTime":265.09464,"instrument":8,"program":30,"isDrum":false},{"pitch":56,"velocity":125,"startTime":265.09464,"endTime":265.159575,"instrument":8,"program":30,"isDrum":false},{"pitch":58,"velocity":125,"startTime":265.159575,"endTime":265.22451,"instrument":8,"program":30,"isDrum":false},{"pitch":60,"velocity":125,"startTime":265.22451,"endTime":265.289445,"instrument":8,"program":30,"isDrum":false},{"pitch":62,"velocity":125,"startTime":265.289445,"endTime":265.35438,"instrument":8,"program":30,"isDrum":false},{"pitch":63,"velocity":125,"startTime":265.35438,"endTime":265.419315,"instrument":8,"program":30,"isDrum":false},{"pitch":60,"velocity":122,"startTime":265.419315,"endTime":265.48425,"instrument":8,"program":30,"isDrum":false},{"pitch":63,"velocity":125,"startTime":265.48425,"endTime":265.87386000000004,"instrument":8,"program":30,"isDrum":false},{"pitch":46,"velocity":118,"startTime":265.87386000000004,"endTime":265.9509703125,"instrument":8,"program":30,"isDrum":false},{"pitch":48,"velocity":119,"startTime":265.938795,"endTime":266.00373,"instrument":8,"program":30,"isDrum":false},{"pitch":50,"velocity":119,"startTime":266.00373,"endTime":266.093015625,"instrument":8,"program":30,"isDrum":false},{"pitch":48,"velocity":119,"startTime":266.068665,"endTime":266.1660675,"instrument":8,"program":30,"isDrum":false},{"pitch":50,"velocity":119,"startTime":266.1336,"endTime":266.20665187500003,"instrument":8,"program":30,"isDrum":false},{"pitch":51,"velocity":119,"startTime":266.198535,"endTime":266.26347,"instrument":8,"program":30,"isDrum":false},{"pitch":50,"velocity":119,"startTime":266.26347,"endTime":266.32840500000003,"instrument":8,"program":30,"isDrum":false},{"pitch":51,"velocity":119,"startTime":266.32840500000003,"endTime":266.39334,"instrument":8,"program":30,"isDrum":false},{"pitch":53,"velocity":120,"startTime":266.39334,"endTime":266.458275,"instrument":8,"program":30,"isDrum":false},{"pitch":52,"velocity":120,"startTime":266.458275,"endTime":266.52321,"instrument":8,"program":30,"isDrum":false},{"pitch":53,"velocity":120,"startTime":266.52321,"endTime":266.6003203125,"instrument":8,"program":30,"isDrum":false},{"pitch":55,"velocity":120,"startTime":266.588145,"endTime":266.65308,"instrument":8,"program":30,"isDrum":false},{"pitch":53,"velocity":120,"startTime":266.65308,"endTime":266.71801500000004,"instrument":8,"program":30,"isDrum":false},{"pitch":56,"velocity":121,"startTime":266.71801500000004,"endTime":266.79918375,"instrument":8,"program":30,"isDrum":false},{"pitch":55,"velocity":121,"startTime":266.78295,"endTime":266.8519434375,"instrument":8,"program":30,"isDrum":false},{"pitch":53,"velocity":121,"startTime":266.847885,"endTime":266.91687843750003,"instrument":8,"program":30,"isDrum":false},{"pitch":55,"velocity":121,"startTime":266.91282,"endTime":266.9736965625,"instrument":8,"program":30,"isDrum":false},{"pitch":56,"velocity":121,"startTime":266.977755,"endTime":267.05892375,"instrument":8,"program":30,"isDrum":false},{"pitch":58,"velocity":121,"startTime":267.04269,"endTime":267.08327437500003,"instrument":8,"program":30,"isDrum":false},{"pitch":60,"velocity":121,"startTime":267.107625,"endTime":267.1603846875,"instrument":8,"program":30,"isDrum":false},{"pitch":62,"velocity":122,"startTime":267.17256,"endTime":267.2415534375,"instrument":8,"program":30,"isDrum":false},{"pitch":63,"velocity":122,"startTime":267.237495,"endTime":267.3064884375,"instrument":8,"program":30,"isDrum":false},{"pitch":62,"velocity":122,"startTime":267.30243,"endTime":267.3470728125,"instrument":8,"program":30,"isDrum":false},{"pitch":60,"velocity":122,"startTime":267.367365,"endTime":267.4323,"instrument":8,"program":30,"isDrum":false},{"pitch":62,"velocity":122,"startTime":267.4323,"endTime":267.497235,"instrument":8,"program":30,"isDrum":false},{"pitch":63,"velocity":122,"startTime":267.497235,"endTime":267.5581115625,"instrument":8,"program":30,"isDrum":false},{"pitch":65,"velocity":122,"startTime":267.56217,"endTime":267.618988125,"instrument":8,"program":30,"isDrum":false},{"pitch":67,"velocity":123,"startTime":267.62710500000003,"endTime":267.7042153125,"instrument":8,"program":30,"isDrum":false},{"pitch":68,"velocity":123,"startTime":267.69204,"endTime":267.765091875,"instrument":8,"program":30,"isDrum":false},{"pitch":70,"velocity":123,"startTime":267.756975,"endTime":267.8422021875,"instrument":8,"program":30,"isDrum":false},{"pitch":68,"velocity":123,"startTime":267.82191,"endTime":267.87061125,"instrument":8,"program":30,"isDrum":false},{"pitch":65,"velocity":123,"startTime":267.886845,"endTime":267.943663125,"instrument":8,"program":30,"isDrum":false},{"pitch":67,"velocity":123,"startTime":267.95178,"endTime":268.008598125,"instrument":8,"program":30,"isDrum":false},{"pitch":70,"velocity":123,"startTime":268.016715,"endTime":268.0532409375,"instrument":8,"program":30,"isDrum":false},{"pitch":72,"velocity":124,"startTime":268.08165,"endTime":268.146585,"instrument":8,"program":30,"isDrum":false},{"pitch":74,"velocity":124,"startTime":268.146585,"endTime":268.219636875,"instrument":8,"program":30,"isDrum":false},{"pitch":75,"velocity":124,"startTime":268.21152,"endTime":271.3243415625,"instrument":8,"program":30,"isDrum":false},{"pitch":55,"velocity":111,"startTime":272.2999275,"endTime":272.604414375,"instrument":8,"program":30,"isDrum":false},{"pitch":58,"velocity":115,"startTime":272.2999275,"endTime":272.4842221875,"instrument":8,"program":30,"isDrum":false},{"pitch":58,"velocity":108,"startTime":272.492235,"endTime":272.6124271875,"instrument":8,"program":30,"isDrum":false},{"pitch":63,"velocity":110,"startTime":272.5162734375,"endTime":272.6765296875,"instrument":8,"program":30,"isDrum":false},{"pitch":63,"velocity":105,"startTime":272.6845425,"endTime":272.7246065625,"instrument":8,"program":30,"isDrum":false},{"pitch":67,"velocity":113,"startTime":272.6925553125,"endTime":272.8688371875,"instrument":8,"program":30,"isDrum":false},{"pitch":67,"velocity":112,"startTime":272.87685,"endTime":272.9329396875,"instrument":8,"program":30,"isDrum":false},{"pitch":70,"velocity":114,"startTime":272.892875625,"endTime":273.9906309375,"instrument":8,"program":30,"isDrum":false},{"pitch":53,"velocity":111,"startTime":273.8383875,"endTime":274.09479749999997,"instrument":8,"program":30,"isDrum":false},{"pitch":58,"velocity":114,"startTime":273.854413125,"endTime":274.0226821875,"instrument":8,"program":30,"isDrum":false},{"pitch":58,"velocity":110,"startTime":274.030695,"endTime":274.1508871875,"instrument":8,"program":30,"isDrum":false},{"pitch":62,"velocity":113,"startTime":274.06274625,"endTime":274.2149896875,"instrument":8,"program":30,"isDrum":false},{"pitch":62,"velocity":110,"startTime":274.2230025,"endTime":274.271079375,"instrument":8,"program":30,"isDrum":false},{"pitch":65,"velocity":112,"startTime":274.239028125,"endTime":274.4072971875,"instrument":8,"program":30,"isDrum":false},{"pitch":65,"velocity":113,"startTime":274.41531,"endTime":274.45537406249997,"instrument":8,"program":30,"isDrum":false},{"pitch":70,"velocity":112,"startTime":274.41531,"endTime":275.360821875,"instrument":8,"program":30,"isDrum":false},{"pitch":60,"velocity":112,"startTime":275.3528090625,"endTime":275.5611421875,"instrument":8,"program":30,"isDrum":false},{"pitch":55,"velocity":111,"startTime":275.3768475,"endTime":275.681334375,"instrument":8,"program":30,"isDrum":false},{"pitch":63,"velocity":109,"startTime":275.55312937499997,"endTime":275.7534496875,"instrument":8,"program":30,"isDrum":false},{"pitch":60,"velocity":114,"startTime":275.569155,"endTime":275.6412703125,"instrument":8,"program":30,"isDrum":false},{"pitch":63,"velocity":108,"startTime":275.7614625,"endTime":275.7855009375,"instrument":8,"program":30,"isDrum":false},{"pitch":67,"velocity":111,"startTime":275.7614625,"endTime":275.9457571875,"instrument":8,"program":30,"isDrum":false},{"pitch":70,"velocity":114,"startTime":275.9457571875,"endTime":277.155691875,"instrument":8,"program":30,"isDrum":false},{"pitch":65,"velocity":117,"startTime":275.95377,"endTime":277.2999225,"instrument":8,"program":30,"isDrum":false},{"pitch":67,"velocity":117,"startTime":144.2065865625,"endTime":144.6072271875,"instrument":9,"program":30,"isDrum":false},{"pitch":65,"velocity":119,"startTime":144.58318875,"endTime":144.7835090625,"instrument":9,"program":30,"isDrum":false},{"pitch":63,"velocity":119,"startTime":144.791521875,"endTime":144.951778125,"instrument":9,"program":30,"isDrum":false},{"pitch":70,"velocity":119,"startTime":144.9758165625,"endTime":146.1456871875,"instrument":9,"program":30,"isDrum":false},{"pitch":67,"velocity":119,"startTime":146.1456871875,"endTime":146.52228937499999,"instrument":9,"program":30,"isDrum":false},{"pitch":72,"velocity":119,"startTime":146.5303021875,"endTime":147.9245315625,"instrument":9,"program":30,"isDrum":false},{"pitch":72,"velocity":119,"startTime":148.0527365625,"endTime":148.509466875,"instrument":9,"program":30,"isDrum":false},{"pitch":74,"velocity":119,"startTime":148.46139,"endTime":148.6536975,"instrument":9,"program":30,"isDrum":false},{"pitch":75,"velocity":119,"startTime":148.6456846875,"endTime":148.90209468749998,"instrument":9,"program":30,"isDrum":false},{"pitch":72,"velocity":119,"startTime":148.8860690625,"endTime":149.2706840625,"instrument":9,"program":30,"isDrum":false},{"pitch":74,"velocity":119,"startTime":149.2386328125,"endTime":149.44696593749998,"instrument":9,"program":30,"isDrum":false},{"pitch":75,"velocity":119,"startTime":149.4229275,"endTime":149.63927343749998,"instrument":9,"program":30,"isDrum":false},{"pitch":77,"velocity":119,"startTime":149.6552990625,"endTime":150.785105625,"instrument":9,"program":30,"isDrum":false},{"pitch":72,"velocity":119,"startTime":150.7931184375,"endTime":151.073566875,"instrument":9,"program":30,"isDrum":false},{"pitch":77,"velocity":119,"startTime":151.11363093749998,"endTime":151.3460025,"instrument":9,"program":30,"isDrum":false},{"pitch":79,"velocity":118,"startTime":151.3460025,"endTime":151.490233125,"instrument":9,"program":30,"isDrum":false},{"pitch":80,"velocity":119,"startTime":151.57036125,"endTime":151.682540625,"instrument":9,"program":30,"isDrum":false},{"pitch":82,"velocity":119,"startTime":151.7306175,"endTime":151.8187584375,"instrument":9,"program":30,"isDrum":false},{"pitch":82,"velocity":119,"startTime":151.906899375,"endTime":153.156898125,"instrument":9,"program":30,"isDrum":false},{"pitch":80,"velocity":119,"startTime":153.1408725,"endTime":153.26907749999998,"instrument":9,"program":30,"isDrum":false},{"pitch":82,"velocity":119,"startTime":153.27709031249998,"endTime":153.44535937499998,"instrument":9,"program":30,"isDrum":false},{"pitch":80,"velocity":119,"startTime":153.413308125,"endTime":153.5335003125,"instrument":9,"program":30,"isDrum":false},{"pitch":79,"velocity":119,"startTime":153.5335003125,"endTime":153.669718125,"instrument":9,"program":30,"isDrum":false},{"pitch":80,"velocity":119,"startTime":153.669718125,"endTime":153.7899103125,"instrument":9,"program":30,"isDrum":false},{"pitch":79,"velocity":119,"startTime":153.7738846875,"endTime":153.9101025,"instrument":9,"program":30,"isDrum":false},{"pitch":77,"velocity":119,"startTime":153.9020896875,"endTime":154.0142690625,"instrument":9,"program":30,"isDrum":false},{"pitch":79,"velocity":119,"startTime":153.99023062499998,"endTime":154.14247406249999,"instrument":9,"program":30,"isDrum":false},{"pitch":77,"velocity":119,"startTime":154.0943971875,"endTime":154.230615,"instrument":9,"program":30,"isDrum":false},{"pitch":75,"velocity":119,"startTime":154.2226021875,"endTime":154.35881999999998,"instrument":9,"program":30,"isDrum":false},{"pitch":77,"velocity":119,"startTime":154.35881999999998,"endTime":154.4629865625,"instrument":9,"program":30,"isDrum":false},{"pitch":75,"velocity":119,"startTime":154.4469609375,"endTime":154.57516593749997,"instrument":9,"program":30,"isDrum":false},{"pitch":74,"velocity":119,"startTime":154.5591403125,"endTime":154.6392684375,"instrument":9,"program":30,"isDrum":false},{"pitch":75,"velocity":119,"startTime":154.6392684375,"endTime":154.7514478125,"instrument":9,"program":30,"isDrum":false},{"pitch":74,"velocity":119,"startTime":154.7354221875,"endTime":154.8315759375,"instrument":9,"program":30,"isDrum":false},{"pitch":72,"velocity":119,"startTime":154.83958875,"endTime":154.999845,"instrument":9,"program":30,"isDrum":false},{"pitch":70,"velocity":119,"startTime":154.96779375,"endTime":155.7290109375,"instrument":9,"program":30,"isDrum":false},{"pitch":70,"velocity":119,"startTime":156.01747218749998,"endTime":156.1777284375,"instrument":9,"program":30,"isDrum":false},{"pitch":72,"velocity":119,"startTime":156.1937540625,"endTime":156.394074375,"instrument":9,"program":30,"isDrum":false},{"pitch":74,"velocity":119,"startTime":156.35401031249998,"endTime":156.4822153125,"instrument":9,"program":30,"isDrum":false},{"pitch":75,"velocity":119,"startTime":156.51426656249998,"endTime":156.6264459375,"instrument":9,"program":30,"isDrum":false},{"pitch":77,"velocity":119,"startTime":156.6584971875,"endTime":156.810740625,"instrument":9,"program":30,"isDrum":false},{"pitch":79,"velocity":119,"startTime":156.7867021875,"endTime":156.90689437499998,"instrument":9,"program":30,"isDrum":false},{"pitch":80,"velocity":119,"startTime":156.92292,"endTime":157.05112499999998,"instrument":9,"program":30,"isDrum":false},{"pitch":82,"velocity":119,"startTime":157.0431121875,"endTime":157.563945,"instrument":9,"program":30,"isDrum":false},{"pitch":70,"velocity":119,"startTime":157.5559321875,"endTime":157.66009875,"instrument":9,"program":30,"isDrum":false},{"pitch":72,"velocity":119,"startTime":157.6841371875,"endTime":157.868431875,"instrument":9,"program":30,"isDrum":false},{"pitch":74,"velocity":119,"startTime":157.836380625,"endTime":157.96458562499998,"instrument":9,"program":30,"isDrum":false},{"pitch":75,"velocity":119,"startTime":157.98061124999998,"endTime":158.1008034375,"instrument":9,"program":30,"isDrum":false},{"pitch":77,"velocity":119,"startTime":158.1168290625,"endTime":158.30112375,"instrument":9,"program":30,"isDrum":false},{"pitch":79,"velocity":119,"startTime":158.2690725,"endTime":158.39727749999997,"instrument":9,"program":30,"isDrum":false},{"pitch":80,"velocity":119,"startTime":158.4213159375,"endTime":158.54150812499998,"instrument":9,"program":30,"isDrum":false},{"pitch":82,"velocity":119,"startTime":158.55753375,"endTime":159.99984,"instrument":9,"program":30,"isDrum":false},{"pitch":74,"velocity":119,"startTime":159.99984,"endTime":160.17612187499998,"instrument":9,"program":30,"isDrum":false},{"pitch":75,"velocity":119,"startTime":160.1921475,"endTime":160.384455,"instrument":9,"program":30,"isDrum":false},{"pitch":72,"velocity":119,"startTime":160.384455,"endTime":160.7450315625,"instrument":9,"program":30,"isDrum":false},{"pitch":74,"velocity":119,"startTime":160.76907,"endTime":160.9613775,"instrument":9,"program":30,"isDrum":false},{"pitch":75,"velocity":119,"startTime":160.9373390625,"endTime":161.1777234375,"instrument":9,"program":30,"isDrum":false},{"pitch":72,"velocity":119,"startTime":161.169710625,"endTime":161.58637687499998,"instrument":9,"program":30,"isDrum":false},{"pitch":74,"velocity":119,"startTime":161.5302871875,"endTime":161.7225946875,"instrument":9,"program":30,"isDrum":false},{"pitch":75,"velocity":119,"startTime":161.7065690625,"endTime":161.9149021875,"instrument":9,"program":30,"isDrum":false},{"pitch":77,"velocity":119,"startTime":161.93894062500001,"endTime":162.996631875,"instrument":9,"program":30,"isDrum":false},{"pitch":65,"velocity":119,"startTime":163.0046446875,"endTime":163.317144375,"instrument":9,"program":30,"isDrum":false},{"pitch":67,"velocity":119,"startTime":163.25304187499998,"endTime":163.5014390625,"instrument":9,"program":30,"isDrum":false},{"pitch":68,"velocity":119,"startTime":163.509451875,"endTime":164.16650249999998,"instrument":9,"program":30,"isDrum":false},{"pitch":77,"velocity":119,"startTime":164.19054093749997,"endTime":164.999835,"instrument":9,"program":30,"isDrum":false},{"pitch":68,"velocity":119,"startTime":164.9918221875,"endTime":166.025475,"instrument":9,"program":30,"isDrum":false},{"pitch":73,"velocity":119,"startTime":166.01746218749997,"endTime":166.1777184375,"instrument":9,"program":30,"isDrum":false},{"pitch":73,"velocity":119,"startTime":166.24983375,"endTime":166.4741925,"instrument":9,"program":30,"isDrum":false},{"pitch":73,"velocity":119,"startTime":166.57034625,"endTime":167.27547375,"instrument":9,"program":30,"isDrum":false},{"pitch":61,"velocity":119,"startTime":167.29149937499997,"endTime":167.8604090625,"instrument":9,"program":30,"isDrum":false},{"pitch":53,"velocity":117,"startTime":228.66610500000002,"endTime":228.9461371875,"instrument":9,"program":30,"isDrum":false},{"pitch":45,"velocity":117,"startTime":228.925845,"endTime":229.185585,"instrument":9,"program":30,"isDrum":false},{"pitch":46,"velocity":115,"startTime":229.185585,"endTime":229.4331496875,"instrument":9,"program":30,"isDrum":false},{"pitch":47,"velocity":116,"startTime":229.445325,"endTime":229.696948125,"instrument":9,"program":30,"isDrum":false},{"pitch":48,"velocity":115,"startTime":229.705065,"endTime":229.859285625,"instrument":9,"program":30,"isDrum":false},{"pitch":50,"velocity":113,"startTime":229.834935,"endTime":229.9688634375,"instrument":9,"program":30,"isDrum":false},{"pitch":52,"velocity":116,"startTime":229.964805,"endTime":230.14337625000002,"instrument":9,"program":30,"isDrum":false},{"pitch":53,"velocity":115,"startTime":230.094675,"endTime":230.1799021875,"instrument":9,"program":30,"isDrum":false},{"pitch":53,"velocity":115,"startTime":230.224545,"endTime":230.50051875,"instrument":9,"program":30,"isDrum":false},{"pitch":45,"velocity":115,"startTime":230.484285,"endTime":230.7886678125,"instrument":9,"program":30,"isDrum":false},{"pitch":46,"velocity":115,"startTime":230.744025,"endTime":230.9915896875,"instrument":9,"program":30,"isDrum":false},{"pitch":47,"velocity":114,"startTime":231.00376500000002,"endTime":231.17016093750001,"instrument":9,"program":30,"isDrum":false},{"pitch":48,"velocity":110,"startTime":231.133635,"endTime":231.239154375,"instrument":9,"program":30,"isDrum":false},{"pitch":50,"velocity":116,"startTime":231.263505,"endTime":231.401491875,"instrument":9,"program":30,"isDrum":false},{"pitch":48,"velocity":117,"startTime":231.393375,"endTime":231.726166875,"instrument":9,"program":30,"isDrum":false},{"pitch":53,"velocity":114,"startTime":231.782985,"endTime":232.0630171875,"instrument":9,"program":30,"isDrum":false},{"pitch":45,"velocity":114,"startTime":232.04272500000002,"endTime":232.2821728125,"instrument":9,"program":30,"isDrum":false},{"pitch":46,"velocity":115,"startTime":232.302465,"endTime":232.570321875,"instrument":9,"program":30,"isDrum":false},{"pitch":47,"velocity":115,"startTime":232.562205,"endTime":232.84223718750002,"instrument":9,"program":30,"isDrum":false},{"pitch":48,"velocity":113,"startTime":232.821945,"endTime":232.9964578125,"instrument":9,"program":30,"isDrum":false},{"pitch":50,"velocity":114,"startTime":232.951815,"endTime":233.0857434375,"instrument":9,"program":30,"isDrum":false},{"pitch":52,"velocity":113,"startTime":233.081685,"endTime":233.26431468750002,"instrument":9,"program":30,"isDrum":false},{"pitch":53,"velocity":112,"startTime":233.211555,"endTime":233.3089575,"instrument":9,"program":30,"isDrum":false},{"pitch":55,"velocity":117,"startTime":233.34142500000002,"endTime":233.59710656250002,"instrument":9,"program":30,"isDrum":false},{"pitch":47,"velocity":115,"startTime":233.601165,"endTime":233.9217815625,"instrument":9,"program":30,"isDrum":false},{"pitch":48,"velocity":109,"startTime":233.860905,"endTime":234.08006062500002,"instrument":9,"program":30,"isDrum":false},{"pitch":49,"velocity":110,"startTime":234.120645,"endTime":234.27486562500002,"instrument":9,"program":30,"isDrum":false},{"pitch":50,"velocity":116,"startTime":234.31545,"endTime":234.48590437500002,"instrument":9,"program":30,"isDrum":false},{"pitch":52,"velocity":112,"startTime":234.44532,"endTime":234.5427225,"instrument":9,"program":30,"isDrum":false},{"pitch":50,"velocity":107,"startTime":234.510255,"endTime":234.875514375,"instrument":9,"program":30,"isDrum":false},{"pitch":43,"velocity":117,"startTime":234.899865,"endTime":237.2659340625,"instrument":9,"program":30,"isDrum":false},{"pitch":48,"velocity":115,"startTime":234.899865,"endTime":238.0126865625,"instrument":9,"program":30,"isDrum":false},{"pitch":41,"velocity":115,"startTime":237.237525,"endTime":237.9883359375,"instrument":9,"program":30,"isDrum":false},{"pitch":43,"velocity":110,"startTime":238.01674500000001,"endTime":239.5305421875,"instrument":9,"program":30,"isDrum":false},{"pitch":48,"velocity":117,"startTime":238.01674500000001,"endTime":238.0370371875,"instrument":9,"program":30,"isDrum":false},{"pitch":43,"velocity":112,"startTime":239.575185,"endTime":239.7415809375,"instrument":9,"program":30,"isDrum":false},{"pitch":46,"velocity":114,"startTime":239.70505500000002,"endTime":239.81869125,"instrument":9,"program":30,"isDrum":false},{"pitch":48,"velocity":115,"startTime":239.834925,"endTime":239.9323275,"instrument":9,"program":30,"isDrum":false},{"pitch":48,"velocity":115,"startTime":239.964795,"endTime":240.11089875,"instrument":9,"program":30,"isDrum":false},{"pitch":46,"velocity":113,"startTime":240.094665,"endTime":240.200184375,"instrument":9,"program":30,"isDrum":false},{"pitch":51,"velocity":115,"startTime":240.224535,"endTime":241.1539171875,"instrument":9,"program":30,"isDrum":false},{"pitch":43,"velocity":119,"startTime":241.133625,"endTime":243.40635,"instrument":9,"program":30,"isDrum":false},{"pitch":48,"velocity":117,"startTime":241.133625,"endTime":244.31949843750002,"instrument":9,"program":30,"isDrum":false},{"pitch":41,"velocity":115,"startTime":243.471285,"endTime":244.20180375,"instrument":9,"program":30,"isDrum":false},{"pitch":46,"velocity":116,"startTime":244.250505,"endTime":245.7886528125,"instrument":9,"program":30,"isDrum":false},{"pitch":53,"velocity":116,"startTime":244.250505,"endTime":245.800828125,"instrument":9,"program":30,"isDrum":false},{"pitch":43,"velocity":114,"startTime":245.808945,"endTime":247.3065084375,"instrument":9,"program":30,"isDrum":false},{"pitch":50,"velocity":117,"startTime":245.808945,"endTime":247.407969375,"instrument":9,"program":30,"isDrum":false},{"pitch":48,"velocity":114,"startTime":247.367385,"endTime":248.9704678125,"instrument":9,"program":30,"isDrum":false},{"pitch":43,"velocity":117,"startTime":248.925825,"endTime":250.40309625,"instrument":9,"program":30,"isDrum":false},{"pitch":46,"velocity":114,"startTime":248.925825,"endTime":250.4517975,"instrument":9,"program":30,"isDrum":false},{"pitch":43,"velocity":114,"startTime":250.484265,"endTime":252.002120625,"instrument":9,"program":30,"isDrum":false},{"pitch":48,"velocity":112,"startTime":250.484265,"endTime":252.05488031250002,"instrument":9,"program":30,"isDrum":false},{"pitch":43,"velocity":112,"startTime":252.042705,"endTime":252.77728218750002,"instrument":9,"program":30,"isDrum":false},{"pitch":46,"velocity":115,"startTime":252.042705,"endTime":252.821925,"instrument":9,"program":30,"isDrum":false},{"pitch":43,"velocity":117,"startTime":252.821925,"endTime":253.53215156250002,"instrument":9,"program":30,"isDrum":false},{"pitch":48,"velocity":112,"startTime":252.821925,"endTime":253.6214371875,"instrument":9,"program":30,"isDrum":false},{"pitch":43,"velocity":113,"startTime":253.601145,"endTime":255.1555265625,"instrument":9,"program":30,"isDrum":false},{"pitch":46,"velocity":115,"startTime":253.601145,"endTime":254.3844234375,"instrument":9,"program":30,"isDrum":false},{"pitch":48,"velocity":109,"startTime":254.380365,"endTime":255.1798771875,"instrument":9,"program":30,"isDrum":false},{"pitch":53,"velocity":115,"startTime":255.159585,"endTime":255.411208125,"instrument":9,"program":30,"isDrum":false},{"pitch":45,"velocity":116,"startTime":255.41932500000001,"endTime":255.670948125,"instrument":9,"program":30,"isDrum":false},{"pitch":46,"velocity":114,"startTime":255.679065,"endTime":255.93068812500002,"instrument":9,"program":30,"isDrum":false},{"pitch":47,"velocity":117,"startTime":255.938805,"endTime":256.2310125,"instrument":9,"program":30,"isDrum":false},{"pitch":48,"velocity":110,"startTime":256.198545,"endTime":256.3608825,"instrument":9,"program":30,"isDrum":false},{"pitch":50,"velocity":112,"startTime":256.328415,"endTime":256.4623434375,"instrument":9,"program":30,"isDrum":false},{"pitch":52,"velocity":114,"startTime":256.458285,"endTime":256.63279781250003,"instrument":9,"program":30,"isDrum":false},{"pitch":53,"velocity":115,"startTime":256.58815500000003,"endTime":256.6814990625,"instrument":9,"program":30,"isDrum":false},{"pitch":53,"velocity":115,"startTime":256.718025,"endTime":256.969648125,"instrument":9,"program":30,"isDrum":false},{"pitch":45,"velocity":116,"startTime":256.97776500000003,"endTime":257.2496803125,"instrument":9,"program":30,"isDrum":false},{"pitch":46,"velocity":114,"startTime":257.237505,"endTime":257.47695281250003,"instrument":9,"program":30,"isDrum":false},{"pitch":47,"velocity":114,"startTime":257.497245,"endTime":257.6392903125,"instrument":9,"program":30,"isDrum":false},{"pitch":48,"velocity":110,"startTime":257.627115,"endTime":257.7366928125,"instrument":9,"program":30,"isDrum":false},{"pitch":50,"velocity":117,"startTime":257.756985,"endTime":257.894971875,"instrument":9,"program":30,"isDrum":false},{"pitch":48,"velocity":117,"startTime":257.886855,"endTime":258.2480559375,"instrument":9,"program":30,"isDrum":false},{"pitch":53,"velocity":117,"startTime":258.27646500000003,"endTime":258.55243875,"instrument":9,"program":30,"isDrum":false},{"pitch":45,"velocity":117,"startTime":258.536205,"endTime":258.804061875,"instrument":9,"program":30,"isDrum":false},{"pitch":46,"velocity":115,"startTime":258.795945,"endTime":259.0435096875,"instrument":9,"program":30,"isDrum":false},{"pitch":47,"velocity":115,"startTime":259.055685,"endTime":259.3276003125,"instrument":9,"program":30,"isDrum":false},{"pitch":48,"velocity":109,"startTime":259.315425,"endTime":259.4493534375,"instrument":9,"program":30,"isDrum":false},{"pitch":50,"velocity":110,"startTime":259.445295,"endTime":259.55893125,"instrument":9,"program":30,"isDrum":false},{"pitch":52,"velocity":112,"startTime":259.575165,"endTime":259.7740284375,"instrument":9,"program":30,"isDrum":false},{"pitch":53,"velocity":112,"startTime":259.705035,"endTime":259.794320625,"instrument":9,"program":30,"isDrum":false},{"pitch":55,"velocity":116,"startTime":259.834905,"endTime":260.086528125,"instrument":9,"program":30,"isDrum":false},{"pitch":47,"velocity":116,"startTime":260.094645,"endTime":260.4233784375,"instrument":9,"program":30,"isDrum":false},{"pitch":48,"velocity":113,"startTime":260.354385,"endTime":260.606008125,"instrument":9,"program":30,"isDrum":false},{"pitch":50,"velocity":114,"startTime":260.614125,"endTime":260.8454559375,"instrument":9,"program":30,"isDrum":false},{"pitch":51,"velocity":110,"startTime":260.873865,"endTime":260.995618125,"instrument":9,"program":30,"isDrum":false},{"pitch":52,"velocity":115,"startTime":261.003735,"endTime":261.133605,"instrument":9,"program":30,"isDrum":false},{"pitch":53,"velocity":109,"startTime":261.133605,"endTime":261.2269490625,"instrument":9,"program":30,"isDrum":false},{"pitch":55,"velocity":114,"startTime":261.263475,"endTime":261.385228125,"instrument":9,"program":30,"isDrum":false},{"pitch":54,"velocity":114,"startTime":261.393345,"endTime":261.56379937500003,"instrument":9,"program":30,"isDrum":false},{"pitch":56,"velocity":113,"startTime":261.523215,"endTime":261.6571434375,"instrument":9,"program":30,"isDrum":false},{"pitch":58,"velocity":115,"startTime":261.65308500000003,"endTime":261.7626628125,"instrument":9,"program":30,"isDrum":false},{"pitch":56,"velocity":114,"startTime":261.912825,"endTime":262.050811875,"instrument":9,"program":30,"isDrum":false},{"pitch":58,"velocity":112,"startTime":262.042695,"endTime":262.1847403125,"instrument":9,"program":30,"isDrum":false},{"pitch":60,"velocity":116,"startTime":262.172565,"endTime":262.326785625,"instrument":9,"program":30,"isDrum":false},{"pitch":58,"velocity":114,"startTime":262.562175,"endTime":262.6798696875,"instrument":9,"program":30,"isDrum":false},{"pitch":60,"velocity":113,"startTime":262.692045,"endTime":262.8584409375,"instrument":9,"program":30,"isDrum":false},{"pitch":62,"velocity":112,"startTime":262.821915,"endTime":262.8990253125,"instrument":9,"program":30,"isDrum":false},{"pitch":47,"velocity":115,"startTime":262.95178500000003,"endTime":263.01672,"instrument":9,"program":30,"isDrum":false},{"pitch":49,"velocity":109,"startTime":263.01672,"endTime":263.081655,"instrument":9,"program":30,"isDrum":false},{"pitch":51,"velocity":109,"startTime":263.081655,"endTime":263.14659,"instrument":9,"program":30,"isDrum":false},{"pitch":49,"velocity":110,"startTime":263.14659,"endTime":263.211525,"instrument":9,"program":30,"isDrum":false},{"pitch":51,"velocity":111,"startTime":263.211525,"endTime":263.27646,"instrument":9,"program":30,"isDrum":false},{"pitch":54,"velocity":112,"startTime":263.27646,"endTime":263.34139500000003,"instrument":9,"program":30,"isDrum":false},{"pitch":51,"velocity":112,"startTime":263.34139500000003,"endTime":263.40633,"instrument":9,"program":30,"isDrum":false},{"pitch":54,"velocity":112,"startTime":263.40633,"endTime":263.471265,"instrument":9,"program":30,"isDrum":false},{"pitch":52,"velocity":115,"startTime":263.471265,"endTime":263.5362,"instrument":9,"program":30,"isDrum":false},{"pitch":54,"velocity":112,"startTime":263.5362,"endTime":263.601135,"instrument":9,"program":30,"isDrum":false},{"pitch":54,"velocity":113,"startTime":263.601135,"endTime":263.66607,"instrument":9,"program":30,"isDrum":false},{"pitch":56,"velocity":115,"startTime":263.66607,"endTime":263.76347250000003,"instrument":9,"program":30,"isDrum":false},{"pitch":58,"velocity":114,"startTime":263.731005,"endTime":263.79594000000003,"instrument":9,"program":30,"isDrum":false},{"pitch":58,"velocity":113,"startTime":263.79594000000003,"endTime":263.860875,"instrument":9,"program":30,"isDrum":false},{"pitch":56,"velocity":113,"startTime":263.860875,"endTime":263.9461021875,"instrument":9,"program":30,"isDrum":false},{"pitch":54,"velocity":113,"startTime":263.92581,"endTime":263.990745,"instrument":9,"program":30,"isDrum":false},{"pitch":53,"velocity":113,"startTime":263.990745,"endTime":264.05568,"instrument":9,"program":30,"isDrum":false},{"pitch":56,"velocity":113,"startTime":264.05568,"endTime":264.1490240625,"instrument":9,"program":30,"isDrum":false},{"pitch":58,"velocity":114,"startTime":264.120615,"endTime":264.18555000000003,"instrument":9,"program":30,"isDrum":false},{"pitch":59,"velocity":115,"startTime":264.18555000000003,"endTime":264.258601875,"instrument":9,"program":30,"isDrum":false},{"pitch":61,"velocity":115,"startTime":264.250485,"endTime":264.3275953125,"instrument":9,"program":30,"isDrum":false},{"pitch":62,"velocity":114,"startTime":264.31542,"endTime":264.380355,"instrument":9,"program":30,"isDrum":false},{"pitch":63,"velocity":112,"startTime":264.380355,"endTime":264.510225,"instrument":9,"program":30,"isDrum":false},{"pitch":44,"velocity":114,"startTime":264.510225,"endTime":264.57516,"instrument":9,"program":30,"isDrum":false},{"pitch":46,"velocity":119,"startTime":264.57516,"endTime":264.640095,"instrument":9,"program":30,"isDrum":false},{"pitch":48,"velocity":120,"startTime":264.640095,"endTime":264.70503,"instrument":9,"program":30,"isDrum":false},{"pitch":46,"velocity":120,"startTime":264.70503,"endTime":264.769965,"instrument":9,"program":30,"isDrum":false},{"pitch":44,"velocity":120,"startTime":264.769965,"endTime":264.8349,"instrument":9,"program":30,"isDrum":false},{"pitch":46,"velocity":120,"startTime":264.8349,"endTime":264.899835,"instrument":9,"program":30,"isDrum":false},{"pitch":48,"velocity":120,"startTime":264.899835,"endTime":264.96477,"instrument":9,"program":30,"isDrum":false},{"pitch":50,"velocity":120,"startTime":264.96477,"endTime":265.02970500000004,"instrument":9,"program":30,"isDrum":false},{"pitch":51,"velocity":120,"startTime":265.02970500000004,"endTime":265.09464,"instrument":9,"program":30,"isDrum":false},{"pitch":53,"velocity":120,"startTime":265.09464,"endTime":265.159575,"instrument":9,"program":30,"isDrum":false},{"pitch":56,"velocity":120,"startTime":265.159575,"endTime":265.22451,"instrument":9,"program":30,"isDrum":false},{"pitch":55,"velocity":120,"startTime":265.22451,"endTime":265.289445,"instrument":9,"program":30,"isDrum":false},{"pitch":56,"velocity":120,"startTime":265.289445,"endTime":265.35438,"instrument":9,"program":30,"isDrum":false},{"pitch":58,"velocity":120,"startTime":265.35438,"endTime":265.419315,"instrument":9,"program":30,"isDrum":false},{"pitch":60,"velocity":120,"startTime":265.419315,"endTime":265.48425,"instrument":9,"program":30,"isDrum":false},{"pitch":62,"velocity":120,"startTime":265.48425,"endTime":265.549185,"instrument":9,"program":30,"isDrum":false},{"pitch":63,"velocity":120,"startTime":265.549185,"endTime":265.61412,"instrument":9,"program":30,"isDrum":false},{"pitch":60,"velocity":116,"startTime":265.61412,"endTime":265.679055,"instrument":9,"program":30,"isDrum":false},{"pitch":63,"velocity":120,"startTime":265.679055,"endTime":266.068665,"instrument":9,"program":30,"isDrum":false},{"pitch":46,"velocity":112,"startTime":266.068665,"endTime":266.1457753125,"instrument":9,"program":30,"isDrum":false},{"pitch":48,"velocity":112,"startTime":266.1336,"endTime":266.198535,"instrument":9,"program":30,"isDrum":false},{"pitch":50,"velocity":112,"startTime":266.198535,"endTime":266.287820625,"instrument":9,"program":30,"isDrum":false},{"pitch":48,"velocity":113,"startTime":266.26347,"endTime":266.3608725,"instrument":9,"program":30,"isDrum":false},{"pitch":50,"velocity":113,"startTime":266.32840500000003,"endTime":266.401456875,"instrument":9,"program":30,"isDrum":false},{"pitch":51,"velocity":113,"startTime":266.39334,"endTime":266.458275,"instrument":9,"program":30,"isDrum":false},{"pitch":50,"velocity":113,"startTime":266.458275,"endTime":266.52321,"instrument":9,"program":30,"isDrum":false},{"pitch":51,"velocity":113,"startTime":266.52321,"endTime":266.588145,"instrument":9,"program":30,"isDrum":false},{"pitch":53,"velocity":114,"startTime":266.588145,"endTime":266.65308,"instrument":9,"program":30,"isDrum":false},{"pitch":52,"velocity":114,"startTime":266.65308,"endTime":266.71801500000004,"instrument":9,"program":30,"isDrum":false},{"pitch":53,"velocity":114,"startTime":266.71801500000004,"endTime":266.7951253125,"instrument":9,"program":30,"isDrum":false},{"pitch":55,"velocity":114,"startTime":266.78295,"endTime":266.847885,"instrument":9,"program":30,"isDrum":false},{"pitch":53,"velocity":114,"startTime":266.847885,"endTime":266.91282,"instrument":9,"program":30,"isDrum":false},{"pitch":56,"velocity":115,"startTime":266.91282,"endTime":266.99398875,"instrument":9,"program":30,"isDrum":false},{"pitch":55,"velocity":115,"startTime":266.977755,"endTime":267.0467484375,"instrument":9,"program":30,"isDrum":false},{"pitch":53,"velocity":115,"startTime":267.04269,"endTime":267.1116834375,"instrument":9,"program":30,"isDrum":false},{"pitch":55,"velocity":115,"startTime":267.107625,"endTime":267.1685015625,"instrument":9,"program":30,"isDrum":false},{"pitch":56,"velocity":115,"startTime":267.17256,"endTime":267.25372875,"instrument":9,"program":30,"isDrum":false},{"pitch":58,"velocity":115,"startTime":267.237495,"endTime":267.278079375,"instrument":9,"program":30,"isDrum":false},{"pitch":60,"velocity":116,"startTime":267.30243,"endTime":267.3551896875,"instrument":9,"program":30,"isDrum":false},{"pitch":62,"velocity":116,"startTime":267.367365,"endTime":267.4363584375,"instrument":9,"program":30,"isDrum":false},{"pitch":63,"velocity":116,"startTime":267.4323,"endTime":267.5012934375,"instrument":9,"program":30,"isDrum":false},{"pitch":62,"velocity":116,"startTime":267.497235,"endTime":267.5418778125,"instrument":9,"program":30,"isDrum":false},{"pitch":60,"velocity":116,"startTime":267.56217,"endTime":267.62710500000003,"instrument":9,"program":30,"isDrum":false},{"pitch":62,"velocity":117,"startTime":267.62710500000003,"endTime":267.69204,"instrument":9,"program":30,"isDrum":false},{"pitch":63,"velocity":117,"startTime":267.69204,"endTime":267.7529165625,"instrument":9,"program":30,"isDrum":false},{"pitch":65,"velocity":117,"startTime":267.756975,"endTime":267.813793125,"instrument":9,"program":30,"isDrum":false},{"pitch":67,"velocity":117,"startTime":267.82191,"endTime":267.8990203125,"instrument":9,"program":30,"isDrum":false},{"pitch":68,"velocity":117,"startTime":267.886845,"endTime":267.959896875,"instrument":9,"program":30,"isDrum":false},{"pitch":70,"velocity":117,"startTime":267.95178,"endTime":268.0370071875,"instrument":9,"program":30,"isDrum":false},{"pitch":68,"velocity":117,"startTime":268.016715,"endTime":268.06541625,"instrument":9,"program":30,"isDrum":false},{"pitch":65,"velocity":118,"startTime":268.08165,"endTime":268.13846812500003,"instrument":9,"program":30,"isDrum":false},{"pitch":67,"velocity":118,"startTime":268.146585,"endTime":268.203403125,"instrument":9,"program":30,"isDrum":false},{"pitch":70,"velocity":118,"startTime":268.21152,"endTime":268.2480459375,"instrument":9,"program":30,"isDrum":false},{"pitch":72,"velocity":118,"startTime":268.276455,"endTime":268.34139,"instrument":9,"program":30,"isDrum":false},{"pitch":74,"velocity":118,"startTime":268.34139,"endTime":268.414441875,"instrument":9,"program":30,"isDrum":false},{"pitch":75,"velocity":119,"startTime":268.406325,"endTime":271.5191465625,"instrument":9,"program":30,"isDrum":false},{"pitch":55,"velocity":102,"startTime":272.6845425,"endTime":272.989029375,"instrument":9,"program":30,"isDrum":false},{"pitch":58,"velocity":108,"startTime":272.6845425,"endTime":272.8688371875,"instrument":9,"program":30,"isDrum":false},{"pitch":58,"velocity":98,"startTime":272.87685,"endTime":272.99704218749997,"instrument":9,"program":30,"isDrum":false},{"pitch":63,"velocity":100,"startTime":272.9008884375,"endTime":273.0611446875,"instrument":9,"program":30,"isDrum":false},{"pitch":63,"velocity":94,"startTime":273.0691575,"endTime":273.1092215625,"instrument":9,"program":30,"isDrum":false},{"pitch":67,"velocity":105,"startTime":273.0771703125,"endTime":273.2534521875,"instrument":9,"program":30,"isDrum":false},{"pitch":67,"velocity":104,"startTime":273.261465,"endTime":273.3175546875,"instrument":9,"program":30,"isDrum":false},{"pitch":70,"velocity":106,"startTime":273.277490625,"endTime":274.3752459375,"instrument":9,"program":30,"isDrum":false},{"pitch":53,"velocity":102,"startTime":274.2230025,"endTime":274.4794125,"instrument":9,"program":30,"isDrum":false},{"pitch":58,"velocity":107,"startTime":274.239028125,"endTime":274.4072971875,"instrument":9,"program":30,"isDrum":false},{"pitch":58,"velocity":101,"startTime":274.41531,"endTime":274.5355021875,"instrument":9,"program":30,"isDrum":false},{"pitch":62,"velocity":105,"startTime":274.44736125,"endTime":274.5996046875,"instrument":9,"program":30,"isDrum":false},{"pitch":62,"velocity":101,"startTime":274.6076175,"endTime":274.655694375,"instrument":9,"program":30,"isDrum":false},{"pitch":65,"velocity":104,"startTime":274.623643125,"endTime":274.7919121875,"instrument":9,"program":30,"isDrum":false},{"pitch":65,"velocity":105,"startTime":274.799925,"endTime":274.8399890625,"instrument":9,"program":30,"isDrum":false},{"pitch":70,"velocity":104,"startTime":274.799925,"endTime":275.745436875,"instrument":9,"program":30,"isDrum":false},{"pitch":60,"velocity":104,"startTime":275.7374240625,"endTime":275.9457571875,"instrument":9,"program":30,"isDrum":false},{"pitch":55,"velocity":102,"startTime":275.7614625,"endTime":276.065949375,"instrument":9,"program":30,"isDrum":false},{"pitch":63,"velocity":99,"startTime":275.937744375,"endTime":276.1380646875,"instrument":9,"program":30,"isDrum":false},{"pitch":60,"velocity":106,"startTime":275.95377,"endTime":276.0258853125,"instrument":9,"program":30,"isDrum":false},{"pitch":63,"velocity":97,"startTime":276.1460775,"endTime":276.1701159375,"instrument":9,"program":30,"isDrum":false},{"pitch":67,"velocity":102,"startTime":276.1460775,"endTime":276.3303721875,"instrument":9,"program":30,"isDrum":false},{"pitch":70,"velocity":107,"startTime":276.3303721875,"endTime":277.540306875,"instrument":9,"program":30,"isDrum":false},{"pitch":65,"velocity":110,"startTime":276.338385,"endTime":277.6845375,"instrument":9,"program":30,"isDrum":false},{"pitch":74,"velocity":123,"startTime":190.384425,"endTime":190.6969246875,"instrument":10,"program":55,"isDrum":false},{"pitch":72,"velocity":123,"startTime":190.76904,"endTime":190.84115531249998,"instrument":10,"program":55,"isDrum":false},{"pitch":72,"velocity":122,"startTime":190.9613475,"endTime":191.0334628125,"instrument":10,"program":55,"isDrum":false},{"pitch":71,"velocity":123,"startTime":191.153655,"endTime":191.28186,"instrument":10,"program":55,"isDrum":false},{"pitch":72,"velocity":123,"startTime":191.53826999999998,"endTime":191.73859031249998,"instrument":10,"program":55,"isDrum":false},{"pitch":74,"velocity":123,"startTime":191.92288499999998,"endTime":192.0110259375,"instrument":10,"program":55,"isDrum":false},{"pitch":74,"velocity":121,"startTime":192.1151925,"endTime":192.2033334375,"instrument":10,"program":55,"isDrum":false},{"pitch":72,"velocity":124,"startTime":192.3075,"endTime":192.46775625,"instrument":10,"program":55,"isDrum":false},{"pitch":71,"velocity":124,"startTime":192.692115,"endTime":192.7642303125,"instrument":10,"program":55,"isDrum":false},{"pitch":71,"velocity":124,"startTime":192.8844225,"endTime":192.97256343749999,"instrument":10,"program":55,"isDrum":false},{"pitch":72,"velocity":123,"startTime":193.07673,"endTime":193.23698625,"instrument":10,"program":55,"isDrum":false},{"pitch":74,"velocity":122,"startTime":193.461345,"endTime":193.58954999999997,"instrument":10,"program":55,"isDrum":false},{"pitch":74,"velocity":123,"startTime":193.84596,"endTime":193.9341009375,"instrument":10,"program":55,"isDrum":false},{"pitch":76,"velocity":122,"startTime":194.0382675,"endTime":194.13442125,"instrument":10,"program":55,"isDrum":false},{"pitch":72,"velocity":124,"startTime":194.230575,"endTime":194.35878,"instrument":10,"program":55,"isDrum":false},{"pitch":72,"velocity":123,"startTime":194.61518999999998,"endTime":194.6873053125,"instrument":10,"program":55,"isDrum":false},{"pitch":72,"velocity":121,"startTime":194.80749749999998,"endTime":194.8956384375,"instrument":10,"program":55,"isDrum":false},{"pitch":71,"velocity":123,"startTime":194.99980499999998,"endTime":195.111984375,"instrument":10,"program":55,"isDrum":false},{"pitch":71,"velocity":123,"startTime":195.38442,"endTime":195.4565353125,"instrument":10,"program":55,"isDrum":false},{"pitch":71,"velocity":124,"startTime":195.5767275,"endTime":195.6648684375,"instrument":10,"program":55,"isDrum":false},{"pitch":72,"velocity":123,"startTime":195.769035,"endTime":195.8732015625,"instrument":10,"program":55,"isDrum":false},{"pitch":60,"velocity":122,"startTime":200.76903,"endTime":201.0334528125,"instrument":10,"program":55,"isDrum":false},{"pitch":72,"velocity":124,"startTime":200.76903,"endTime":201.0334528125,"instrument":10,"program":55,"isDrum":false},{"pitch":65,"velocity":124,"startTime":201.1616578125,"endTime":201.44210625,"instrument":10,"program":55,"isDrum":false},{"pitch":77,"velocity":122,"startTime":201.1616578125,"endTime":201.41005499999997,"instrument":10,"program":55,"isDrum":false},{"pitch":60,"velocity":120,"startTime":201.55428562499998,"endTime":201.79466999999997,"instrument":10,"program":55,"isDrum":false},{"pitch":72,"velocity":121,"startTime":201.57031125,"endTime":201.778644375,"instrument":10,"program":55,"isDrum":false},{"pitch":65,"velocity":124,"startTime":201.95492625,"endTime":202.4757590625,"instrument":10,"program":55,"isDrum":false},{"pitch":77,"velocity":123,"startTime":201.95492625,"endTime":202.4997975,"instrument":10,"program":55,"isDrum":false},{"pitch":65,"velocity":123,"startTime":203.67768093749999,"endTime":203.78986031249997,"instrument":10,"program":55,"isDrum":false},{"pitch":77,"velocity":120,"startTime":203.67768093749999,"endTime":203.7818475,"instrument":10,"program":55,"isDrum":false},{"pitch":77,"velocity":120,"startTime":203.86998843749998,"endTime":203.98216781249997,"instrument":10,"program":55,"isDrum":false},{"pitch":65,"velocity":121,"startTime":203.87800125,"endTime":203.98216781249997,"instrument":10,"program":55,"isDrum":false},{"pitch":77,"velocity":123,"startTime":204.07030875,"endTime":204.51101343749997,"instrument":10,"program":55,"isDrum":false},{"pitch":65,"velocity":123,"startTime":204.0943471875,"endTime":204.51101343749997,"instrument":10,"program":55,"isDrum":false},{"pitch":60,"velocity":121,"startTime":204.61517999999998,"endTime":204.887615625,"instrument":10,"program":55,"isDrum":false},{"pitch":72,"velocity":123,"startTime":204.6392184375,"endTime":204.855564375,"instrument":10,"program":55,"isDrum":false},{"pitch":65,"velocity":124,"startTime":205.03985906249997,"endTime":205.27223062500002,"instrument":10,"program":55,"isDrum":false},{"pitch":77,"velocity":123,"startTime":205.03985906249997,"endTime":205.240179375,"instrument":10,"program":55,"isDrum":false},{"pitch":60,"velocity":122,"startTime":205.40043562499997,"endTime":205.6488328125,"instrument":10,"program":55,"isDrum":false},{"pitch":72,"velocity":124,"startTime":205.40043562499997,"endTime":205.61678156249997,"instrument":10,"program":55,"isDrum":false},{"pitch":65,"velocity":123,"startTime":205.7930634375,"endTime":206.2578065625,"instrument":10,"program":55,"isDrum":false},{"pitch":77,"velocity":123,"startTime":205.7930634375,"endTime":206.24178093749998,"instrument":10,"program":55,"isDrum":false},{"pitch":65,"velocity":124,"startTime":207.5078053125,"endTime":207.6199846875,"instrument":10,"program":55,"isDrum":false},{"pitch":77,"velocity":123,"startTime":207.53184375,"endTime":207.6039590625,"instrument":10,"program":55,"isDrum":false},{"pitch":65,"velocity":123,"startTime":207.72415125,"endTime":207.82030500000002,"instrument":10,"program":55,"isDrum":false},{"pitch":77,"velocity":123,"startTime":207.72415125,"endTime":207.80427937499996,"instrument":10,"program":55,"isDrum":false},{"pitch":65,"velocity":122,"startTime":207.9084459375,"endTime":208.26100968749998,"instrument":10,"program":55,"isDrum":false},{"pitch":77,"velocity":124,"startTime":207.9084459375,"endTime":208.26100968749998,"instrument":10,"program":55,"isDrum":false},{"pitch":65,"velocity":124,"startTime":209.0622909375,"endTime":209.15844468749998,"instrument":10,"program":55,"isDrum":false},{"pitch":77,"velocity":123,"startTime":209.07831656249996,"endTime":209.15844468749998,"instrument":10,"program":55,"isDrum":false},{"pitch":65,"velocity":124,"startTime":209.2706240625,"endTime":209.358765,"instrument":10,"program":55,"isDrum":false},{"pitch":77,"velocity":124,"startTime":209.278636875,"endTime":209.358765,"instrument":10,"program":55,"isDrum":false},{"pitch":65,"velocity":123,"startTime":209.4629315625,"endTime":209.60716218749997,"instrument":10,"program":55,"isDrum":false},{"pitch":77,"velocity":124,"startTime":209.4629315625,"endTime":209.60716218749997,"instrument":10,"program":55,"isDrum":false},{"pitch":65,"velocity":124,"startTime":210.60075093749998,"endTime":210.68889187499997,"instrument":10,"program":55,"isDrum":false},{"pitch":77,"velocity":123,"startTime":210.60075093749998,"endTime":210.6969046875,"instrument":10,"program":55,"isDrum":false},{"pitch":77,"velocity":122,"startTime":210.79305843749998,"endTime":210.88119937499997,"instrument":10,"program":55,"isDrum":false},{"pitch":65,"velocity":124,"startTime":210.80107125,"endTime":210.88119937499997,"instrument":10,"program":55,"isDrum":false},{"pitch":65,"velocity":124,"startTime":210.98536593749998,"endTime":211.12959656249998,"instrument":10,"program":55,"isDrum":false},{"pitch":77,"velocity":124,"startTime":210.98536593749998,"endTime":211.14562218749998,"instrument":10,"program":55,"isDrum":false},{"pitch":60,"velocity":123,"startTime":213.2690175,"endTime":213.50940187499998,"instrument":10,"program":55,"isDrum":false},{"pitch":59,"velocity":121,"startTime":213.6536325,"endTime":213.894016875,"instrument":10,"program":55,"isDrum":false},{"pitch":63,"velocity":122,"startTime":214.03824749999998,"endTime":214.25459343749998,"instrument":10,"program":55,"isDrum":false},{"pitch":62,"velocity":123,"startTime":214.42286249999998,"endTime":214.6231828125,"instrument":10,"program":55,"isDrum":false},{"pitch":68,"velocity":121,"startTime":214.8074775,"endTime":215.0077978125,"instrument":10,"program":55,"isDrum":false},{"pitch":67,"velocity":123,"startTime":215.1920925,"endTime":215.40042562499997,"instrument":10,"program":55,"isDrum":false},{"pitch":72,"velocity":123,"startTime":215.5767075,"endTime":215.80106625000002,"instrument":10,"program":55,"isDrum":false},{"pitch":76,"velocity":122,"startTime":217.49978249999998,"endTime":217.5718978125,"instrument":10,"program":55,"isDrum":false},{"pitch":76,"velocity":123,"startTime":217.69208999999998,"endTime":217.7642053125,"instrument":10,"program":55,"isDrum":false},{"pitch":77,"velocity":124,"startTime":217.88439749999998,"endTime":217.98856406250002,"instrument":10,"program":55,"isDrum":false},{"pitch":76,"velocity":122,"startTime":218.076705,"endTime":218.1648459375,"instrument":10,"program":55,"isDrum":false},{"pitch":74,"velocity":123,"startTime":218.2690125,"endTime":218.37317906250001,"instrument":10,"program":55,"isDrum":false},{"pitch":72,"velocity":122,"startTime":218.46132,"endTime":218.5494609375,"instrument":10,"program":55,"isDrum":false},{"pitch":71,"velocity":122,"startTime":218.6536275,"endTime":218.86196062499997,"instrument":10,"program":55,"isDrum":false},{"pitch":35,"velocity":111,"startTime":74.6072971875,"endTime":74.65537406249999,"instrument":11,"program":0,"isDrum":true},{"pitch":45,"velocity":111,"startTime":74.6072971875,"endTime":74.6874253125,"instrument":11,"program":0,"isDrum":true},{"pitch":35,"velocity":113,"startTime":74.7996046875,"endTime":74.8476815625,"instrument":11,"program":0,"isDrum":true},{"pitch":45,"velocity":113,"startTime":74.7996046875,"endTime":74.87172,"instrument":11,"program":0,"isDrum":true},{"pitch":35,"velocity":114,"startTime":74.99191218749999,"endTime":75.0399890625,"instrument":11,"program":0,"isDrum":true},{"pitch":45,"velocity":114,"startTime":74.99191218749999,"endTime":75.0720403125,"instrument":11,"program":0,"isDrum":true},{"pitch":35,"velocity":115,"startTime":75.18421968749999,"endTime":75.272360625,"instrument":11,"program":0,"isDrum":true},{"pitch":45,"velocity":115,"startTime":75.18421968749999,"endTime":75.26434781249999,"instrument":11,"program":0,"isDrum":true},{"pitch":35,"velocity":116,"startTime":75.37652718749999,"endTime":75.464668125,"instrument":11,"program":0,"isDrum":true},{"pitch":45,"velocity":116,"startTime":75.37652718749999,"endTime":75.45665531249999,"instrument":11,"program":0,"isDrum":true},{"pitch":35,"velocity":117,"startTime":75.56883468749999,"endTime":75.64094999999999,"instrument":11,"program":0,"isDrum":true},{"pitch":45,"velocity":117,"startTime":75.56883468749999,"endTime":75.64094999999999,"instrument":11,"program":0,"isDrum":true},{"pitch":35,"velocity":118,"startTime":75.7611421875,"endTime":75.8412703125,"instrument":11,"program":0,"isDrum":true},{"pitch":45,"velocity":118,"startTime":75.7611421875,"endTime":75.8412703125,"instrument":11,"program":0,"isDrum":true},{"pitch":35,"velocity":119,"startTime":75.9534496875,"endTime":76.0335778125,"instrument":11,"program":0,"isDrum":true},{"pitch":45,"velocity":119,"startTime":75.9534496875,"endTime":76.0335778125,"instrument":11,"program":0,"isDrum":true},{"pitch":35,"velocity":121,"startTime":76.1457571875,"endTime":76.2258853125,"instrument":11,"program":0,"isDrum":true},{"pitch":43,"velocity":121,"startTime":76.1457571875,"endTime":76.2258853125,"instrument":11,"program":0,"isDrum":true},{"pitch":35,"velocity":122,"startTime":76.3380646875,"endTime":76.4181928125,"instrument":11,"program":0,"isDrum":true},{"pitch":43,"velocity":122,"startTime":76.3380646875,"endTime":76.4181928125,"instrument":11,"program":0,"isDrum":true},{"pitch":35,"velocity":123,"startTime":76.53037218749999,"endTime":76.6105003125,"instrument":11,"program":0,"isDrum":true},{"pitch":43,"velocity":123,"startTime":76.53037218749999,"endTime":76.6024875,"instrument":11,"program":0,"isDrum":true},{"pitch":35,"velocity":123,"startTime":76.72267968749999,"endTime":76.81883343749999,"instrument":11,"program":0,"isDrum":true},{"pitch":43,"velocity":123,"startTime":76.72267968749999,"endTime":76.81883343749999,"instrument":11,"program":0,"isDrum":true},{"pitch":35,"velocity":124,"startTime":76.91498718749999,"endTime":77.94864,"instrument":11,"program":0,"isDrum":true},{"pitch":49,"velocity":124,"startTime":76.91498718749999,"endTime":81.53036718749999,"instrument":11,"program":0,"isDrum":true},{"pitch":51,"velocity":120,"startTime":77.2996021875,"endTime":77.483896875,"instrument":11,"program":0,"isDrum":true},{"pitch":40,"velocity":124,"startTime":77.6842171875,"endTime":78.94222875,"instrument":11,"program":0,"isDrum":true},{"pitch":42,"velocity":122,"startTime":77.6842171875,"endTime":77.94864,"instrument":11,"program":0,"isDrum":true},{"pitch":51,"velocity":122,"startTime":77.6842171875,"endTime":77.868511875,"instrument":11,"program":0,"isDrum":true},{"pitch":35,"velocity":117,"startTime":78.06883218749999,"endTime":78.18902437499999,"instrument":11,"program":0,"isDrum":true},{"pitch":51,"velocity":120,"startTime":78.06883218749999,"endTime":78.17299874999999,"instrument":11,"program":0,"isDrum":true},{"pitch":35,"velocity":123,"startTime":78.45344718749999,"endTime":79.6874203125,"instrument":11,"program":0,"isDrum":true},{"pitch":51,"velocity":122,"startTime":78.45344718749999,"endTime":78.637741875,"instrument":11,"program":0,"isDrum":true},{"pitch":51,"velocity":117,"startTime":78.8380621875,"endTime":78.9181903125,"instrument":11,"program":0,"isDrum":true},{"pitch":40,"velocity":124,"startTime":79.2226771875,"endTime":80.3925478125,"instrument":11,"program":0,"isDrum":true},{"pitch":42,"velocity":123,"startTime":79.2226771875,"endTime":79.4310103125,"instrument":11,"program":0,"isDrum":true},{"pitch":51,"velocity":123,"startTime":79.2226771875,"endTime":79.406971875,"instrument":11,"program":0,"isDrum":true},{"pitch":51,"velocity":118,"startTime":79.6072921875,"endTime":79.74351,"instrument":11,"program":0,"isDrum":true},{"pitch":35,"velocity":124,"startTime":79.99190718749999,"endTime":80.8733165625,"instrument":11,"program":0,"isDrum":true},{"pitch":51,"velocity":122,"startTime":79.99190718749999,"endTime":80.1040865625,"instrument":11,"program":0,"isDrum":true},{"pitch":51,"velocity":119,"startTime":80.37652218749999,"endTime":80.4566503125,"instrument":11,"program":0,"isDrum":true},{"pitch":40,"velocity":124,"startTime":80.7611371875,"endTime":81.9470334375,"instrument":11,"program":0,"isDrum":true},{"pitch":42,"velocity":123,"startTime":80.7611371875,"endTime":80.98549593749999,"instrument":11,"program":0,"isDrum":true},{"pitch":51,"velocity":123,"startTime":80.7611371875,"endTime":80.945431875,"instrument":11,"program":0,"isDrum":true},{"pitch":35,"velocity":121,"startTime":81.1457521875,"endTime":81.2178675,"instrument":11,"program":0,"isDrum":true},{"pitch":51,"velocity":120,"startTime":81.1457521875,"endTime":81.28197,"instrument":11,"program":0,"isDrum":true},{"pitch":35,"velocity":124,"startTime":81.53036718749999,"endTime":82.435815,"instrument":11,"program":0,"isDrum":true},{"pitch":51,"velocity":122,"startTime":81.53036718749999,"endTime":81.6585721875,"instrument":11,"program":0,"isDrum":true},{"pitch":51,"velocity":120,"startTime":81.91498218749999,"endTime":82.01914875,"instrument":11,"program":0,"isDrum":true},{"pitch":40,"velocity":124,"startTime":82.2995971875,"endTime":83.477480625,"instrument":11,"program":0,"isDrum":true},{"pitch":42,"velocity":124,"startTime":82.2995971875,"endTime":82.547994375,"instrument":11,"program":0,"isDrum":true},{"pitch":51,"velocity":123,"startTime":82.2995971875,"endTime":82.419789375,"instrument":11,"program":0,"isDrum":true},{"pitch":35,"velocity":116,"startTime":82.6842121875,"endTime":82.7563275,"instrument":11,"program":0,"isDrum":true},{"pitch":51,"velocity":113,"startTime":82.6842121875,"endTime":82.82043,"instrument":11,"program":0,"isDrum":true},{"pitch":35,"velocity":124,"startTime":83.06882718749999,"endTime":83.958249375,"instrument":11,"program":0,"isDrum":true},{"pitch":49,"velocity":122,"startTime":83.06882718749999,"endTime":83.45344218749999,"instrument":11,"program":0,"isDrum":true},{"pitch":51,"velocity":118,"startTime":83.45344218749999,"endTime":83.55760875,"instrument":11,"program":0,"isDrum":true},{"pitch":40,"velocity":124,"startTime":83.8380571875,"endTime":84.887735625,"instrument":11,"program":0,"isDrum":true},{"pitch":42,"velocity":123,"startTime":83.8380571875,"endTime":84.07042875,"instrument":11,"program":0,"isDrum":true},{"pitch":51,"velocity":123,"startTime":83.8380571875,"endTime":83.98228781249999,"instrument":11,"program":0,"isDrum":true},{"pitch":35,"velocity":118,"startTime":84.2226721875,"endTime":84.310813125,"instrument":11,"program":0,"isDrum":true},{"pitch":49,"velocity":120,"startTime":84.2226721875,"endTime":84.60728718749999,"instrument":11,"program":0,"isDrum":true},{"pitch":35,"velocity":123,"startTime":84.60728718749999,"endTime":85.38453,"instrument":11,"program":0,"isDrum":true},{"pitch":49,"velocity":123,"startTime":84.60728718749999,"endTime":84.99190218749999,"instrument":11,"program":0,"isDrum":true},{"pitch":51,"velocity":119,"startTime":84.99190218749999,"endTime":85.080043125,"instrument":11,"program":0,"isDrum":true},{"pitch":40,"velocity":124,"startTime":85.3765171875,"endTime":86.586451875,"instrument":11,"program":0,"isDrum":true},{"pitch":42,"velocity":123,"startTime":85.3765171875,"endTime":85.60888875,"instrument":11,"program":0,"isDrum":true},{"pitch":51,"velocity":123,"startTime":85.3765171875,"endTime":85.5367734375,"instrument":11,"program":0,"isDrum":true},{"pitch":35,"velocity":117,"startTime":85.7611321875,"endTime":85.8412603125,"instrument":11,"program":0,"isDrum":true},{"pitch":51,"velocity":120,"startTime":85.7611321875,"endTime":85.86529875,"instrument":11,"program":0,"isDrum":true},{"pitch":35,"velocity":123,"startTime":86.14574718749999,"endTime":87.0271565625,"instrument":11,"program":0,"isDrum":true},{"pitch":51,"velocity":123,"startTime":86.14574718749999,"endTime":86.2739521875,"instrument":11,"program":0,"isDrum":true},{"pitch":51,"velocity":119,"startTime":86.53036218749999,"endTime":86.618503125,"instrument":11,"program":0,"isDrum":true},{"pitch":40,"velocity":124,"startTime":86.9149771875,"endTime":87.7563225,"instrument":11,"program":0,"isDrum":true},{"pitch":42,"velocity":121,"startTime":86.9149771875,"endTime":87.0912590625,"instrument":11,"program":0,"isDrum":true},{"pitch":51,"velocity":124,"startTime":86.9149771875,"endTime":87.051195,"instrument":11,"program":0,"isDrum":true},{"pitch":35,"velocity":122,"startTime":87.2995921875,"endTime":87.3717075,"instrument":11,"program":0,"isDrum":true},{"pitch":51,"velocity":120,"startTime":87.2995921875,"endTime":87.41978437499999,"instrument":11,"program":0,"isDrum":true},{"pitch":35,"velocity":124,"startTime":87.6842071875,"endTime":88.541578125,"instrument":11,"program":0,"isDrum":true},{"pitch":51,"velocity":122,"startTime":87.6842071875,"endTime":87.7963865625,"instrument":11,"program":0,"isDrum":true},{"pitch":40,"velocity":124,"startTime":88.06882218749999,"endTime":88.1810015625,"instrument":11,"program":0,"isDrum":true},{"pitch":51,"velocity":120,"startTime":88.06882218749999,"endTime":88.14093749999999,"instrument":11,"program":0,"isDrum":true},{"pitch":40,"velocity":124,"startTime":88.45343718749999,"endTime":88.55760375,"instrument":11,"program":0,"isDrum":true},{"pitch":42,"velocity":121,"startTime":88.45343718749999,"endTime":88.60568062499999,"instrument":11,"program":0,"isDrum":true},{"pitch":43,"velocity":123,"startTime":88.6457446875,"endTime":88.8220265625,"instrument":11,"program":0,"isDrum":true},{"pitch":35,"velocity":124,"startTime":88.8380521875,"endTime":88.96625718749999,"instrument":11,"program":0,"isDrum":true},{"pitch":45,"velocity":122,"startTime":88.8380521875,"endTime":88.96625718749999,"instrument":11,"program":0,"isDrum":true},{"pitch":35,"velocity":123,"startTime":89.2226671875,"endTime":90.128115,"instrument":11,"program":0,"isDrum":true},{"pitch":49,"velocity":124,"startTime":89.2226671875,"endTime":91.14574218749999,"instrument":11,"program":0,"isDrum":true},{"pitch":51,"velocity":122,"startTime":89.60728218749999,"endTime":89.695423125,"instrument":11,"program":0,"isDrum":true},{"pitch":40,"velocity":124,"startTime":89.99189718749999,"endTime":91.22587031249999,"instrument":11,"program":0,"isDrum":true},{"pitch":42,"velocity":123,"startTime":89.99189718749999,"endTime":90.1922175,"instrument":11,"program":0,"isDrum":true},{"pitch":51,"velocity":123,"startTime":89.99189718749999,"endTime":90.1201021875,"instrument":11,"program":0,"isDrum":true},{"pitch":35,"velocity":120,"startTime":90.3765121875,"endTime":90.4886915625,"instrument":11,"program":0,"isDrum":true},{"pitch":51,"velocity":119,"startTime":90.3765121875,"endTime":90.50471718749999,"instrument":11,"program":0,"isDrum":true},{"pitch":35,"velocity":124,"startTime":90.7611271875,"endTime":91.6104853125,"instrument":11,"program":0,"isDrum":true},{"pitch":51,"velocity":122,"startTime":90.7611271875,"endTime":90.90535781249999,"instrument":11,"program":0,"isDrum":true},{"pitch":51,"velocity":117,"startTime":91.14574218749999,"endTime":91.2178575,"instrument":11,"program":0,"isDrum":true},{"pitch":40,"velocity":124,"startTime":91.53035718749999,"endTime":92.7963815625,"instrument":11,"program":0,"isDrum":true},{"pitch":42,"velocity":122,"startTime":91.53035718749999,"endTime":91.72266468749999,"instrument":11,"program":0,"isDrum":true},{"pitch":51,"velocity":123,"startTime":91.53035718749999,"endTime":91.68260062499999,"instrument":11,"program":0,"isDrum":true},{"pitch":35,"velocity":122,"startTime":91.9149721875,"endTime":92.05920281249999,"instrument":11,"program":0,"isDrum":true},{"pitch":51,"velocity":115,"startTime":91.9149721875,"endTime":92.035164375,"instrument":11,"program":0,"isDrum":true},{"pitch":35,"velocity":124,"startTime":92.2995871875,"endTime":93.17298375,"instrument":11,"program":0,"isDrum":true},{"pitch":51,"velocity":122,"startTime":92.2995871875,"endTime":92.451830625,"instrument":11,"program":0,"isDrum":true},{"pitch":51,"velocity":119,"startTime":92.68420218749999,"endTime":92.78836874999999,"instrument":11,"program":0,"isDrum":true},{"pitch":40,"velocity":124,"startTime":93.06881718749999,"endTime":93.6617653125,"instrument":11,"program":0,"isDrum":true},{"pitch":42,"velocity":121,"startTime":93.06881718749999,"endTime":93.205035,"instrument":11,"program":0,"isDrum":true},{"pitch":51,"velocity":124,"startTime":93.06881718749999,"endTime":93.1809965625,"instrument":11,"program":0,"isDrum":true},{"pitch":35,"velocity":121,"startTime":93.4534321875,"endTime":93.55759875,"instrument":11,"program":0,"isDrum":true},{"pitch":42,"velocity":120,"startTime":93.4534321875,"endTime":93.5495859375,"instrument":11,"program":0,"isDrum":true},{"pitch":35,"velocity":124,"startTime":93.8380471875,"endTime":94.9277896875,"instrument":11,"program":0,"isDrum":true},{"pitch":49,"velocity":123,"startTime":93.8380471875,"endTime":95.2002253125,"instrument":11,"program":0,"isDrum":true},{"pitch":35,"velocity":124,"startTime":95.3765071875,"endTime":99.57522093749999,"instrument":11,"program":0,"isDrum":true},{"pitch":49,"velocity":123,"startTime":95.3765071875,"endTime":98.926183125,"instrument":11,"program":0,"isDrum":true},{"pitch":42,"velocity":121,"startTime":98.83804218750001,"endTime":100.336438125,"instrument":11,"program":0,"isDrum":true},{"pitch":40,"velocity":122,"startTime":99.2226571875,"endTime":99.4149646875,"instrument":11,"program":0,"isDrum":true},{"pitch":43,"velocity":119,"startTime":99.4149646875,"endTime":99.59925937499999,"instrument":11,"program":0,"isDrum":true},{"pitch":45,"velocity":117,"startTime":99.6072721875,"endTime":99.91977187500001,"instrument":11,"program":0,"isDrum":true},{"pitch":35,"velocity":124,"startTime":99.9918871875,"endTime":100.721053125,"instrument":11,"program":0,"isDrum":true},{"pitch":49,"velocity":124,"startTime":99.9918871875,"endTime":103.1649609375,"instrument":11,"program":0,"isDrum":true},{"pitch":42,"velocity":122,"startTime":100.75310437499999,"endTime":100.93739906249999,"instrument":11,"program":0,"isDrum":true},{"pitch":40,"velocity":124,"startTime":100.7611171875,"endTime":101.97906468749999,"instrument":11,"program":0,"isDrum":true},{"pitch":35,"velocity":119,"startTime":101.13771937499999,"endTime":101.22586031249999,"instrument":11,"program":0,"isDrum":true},{"pitch":42,"velocity":116,"startTime":101.1457321875,"endTime":101.24989875,"instrument":11,"program":0,"isDrum":true},{"pitch":35,"velocity":124,"startTime":101.5303471875,"endTime":102.804384375,"instrument":11,"program":0,"isDrum":true},{"pitch":42,"velocity":122,"startTime":101.5303471875,"endTime":101.6745778125,"instrument":11,"program":0,"isDrum":true},{"pitch":42,"velocity":114,"startTime":101.91496218750001,"endTime":102.01912875,"instrument":11,"program":0,"isDrum":true},{"pitch":40,"velocity":124,"startTime":102.2995771875,"endTime":103.54156312499998,"instrument":11,"program":0,"isDrum":true},{"pitch":42,"velocity":123,"startTime":102.2995771875,"endTime":102.4918846875,"instrument":11,"program":0,"isDrum":true},{"pitch":42,"velocity":114,"startTime":102.6841921875,"endTime":102.79637156249998,"instrument":11,"program":0,"isDrum":true},{"pitch":35,"velocity":123,"startTime":103.0688071875,"endTime":103.97425499999999,"instrument":11,"program":0,"isDrum":true},{"pitch":42,"velocity":122,"startTime":103.0688071875,"endTime":103.23707625,"instrument":11,"program":0,"isDrum":true},{"pitch":42,"velocity":113,"startTime":103.45342218750001,"endTime":103.573614375,"instrument":11,"program":0,"isDrum":true},{"pitch":40,"velocity":124,"startTime":103.8380371875,"endTime":105.0079078125,"instrument":11,"program":0,"isDrum":true},{"pitch":42,"velocity":122,"startTime":103.8380371875,"endTime":103.9982934375,"instrument":11,"program":0,"isDrum":true},{"pitch":35,"velocity":121,"startTime":104.2226521875,"endTime":104.33483156249999,"instrument":11,"program":0,"isDrum":true},{"pitch":42,"velocity":116,"startTime":104.2226521875,"endTime":104.32681875,"instrument":11,"program":0,"isDrum":true},{"pitch":35,"velocity":123,"startTime":104.6072671875,"endTime":105.84124031249999,"instrument":11,"program":0,"isDrum":true},{"pitch":42,"velocity":120,"startTime":104.6072671875,"endTime":104.7514978125,"instrument":11,"program":0,"isDrum":true},{"pitch":42,"velocity":115,"startTime":104.9918821875,"endTime":105.112074375,"instrument":11,"program":0,"isDrum":true},{"pitch":40,"velocity":124,"startTime":105.37649718750001,"endTime":106.57040624999999,"instrument":11,"program":0,"isDrum":true},{"pitch":42,"velocity":121,"startTime":105.37649718750001,"endTime":105.464638125,"instrument":11,"program":0,"isDrum":true},{"pitch":42,"velocity":120,"startTime":105.5688046875,"endTime":105.7611121875,"instrument":11,"program":0,"isDrum":true},{"pitch":46,"velocity":120,"startTime":105.7611121875,"endTime":106.169765625,"instrument":11,"program":0,"isDrum":true},{"pitch":35,"velocity":123,"startTime":106.1457271875,"endTime":107.0431621875,"instrument":11,"program":0,"isDrum":true},{"pitch":49,"velocity":123,"startTime":106.1457271875,"endTime":107.8764946875,"instrument":11,"program":0,"isDrum":true},{"pitch":42,"velocity":113,"startTime":106.5303421875,"endTime":106.650534375,"instrument":11,"program":0,"isDrum":true},{"pitch":40,"velocity":124,"startTime":106.91495718750001,"endTime":108.09284062500001,"instrument":11,"program":0,"isDrum":true},{"pitch":42,"velocity":123,"startTime":106.91495718750001,"endTime":107.1072646875,"instrument":11,"program":0,"isDrum":true},{"pitch":35,"velocity":120,"startTime":107.2995721875,"endTime":107.41175156249999,"instrument":11,"program":0,"isDrum":true},{"pitch":42,"velocity":117,"startTime":107.2995721875,"endTime":107.43578999999998,"instrument":11,"program":0,"isDrum":true},{"pitch":35,"velocity":123,"startTime":107.6841871875,"endTime":108.91014750000001,"instrument":11,"program":0,"isDrum":true},{"pitch":42,"velocity":115,"startTime":107.6841871875,"endTime":107.8604690625,"instrument":11,"program":0,"isDrum":true},{"pitch":42,"velocity":114,"startTime":108.0688021875,"endTime":108.18899437500001,"instrument":11,"program":0,"isDrum":true},{"pitch":40,"velocity":124,"startTime":108.45341718750001,"endTime":109.58322375,"instrument":11,"program":0,"isDrum":true},{"pitch":42,"velocity":123,"startTime":108.45341718750001,"endTime":108.637711875,"instrument":11,"program":0,"isDrum":true},{"pitch":42,"velocity":114,"startTime":108.8380321875,"endTime":108.97424999999998,"instrument":11,"program":0,"isDrum":true},{"pitch":35,"velocity":123,"startTime":109.2226471875,"endTime":110.09604374999999,"instrument":11,"program":0,"isDrum":true},{"pitch":42,"velocity":120,"startTime":109.2226471875,"endTime":109.36687781250001,"instrument":11,"program":0,"isDrum":true},{"pitch":42,"velocity":115,"startTime":109.6072621875,"endTime":109.71142875,"instrument":11,"program":0,"isDrum":true},{"pitch":40,"velocity":124,"startTime":109.99187718750001,"endTime":111.20181187499999,"instrument":11,"program":0,"isDrum":true},{"pitch":42,"velocity":123,"startTime":109.99187718750001,"endTime":110.18418468750001,"instrument":11,"program":0,"isDrum":true},{"pitch":35,"velocity":121,"startTime":110.3764921875,"endTime":110.48065874999999,"instrument":11,"program":0,"isDrum":true},{"pitch":42,"velocity":116,"startTime":110.3764921875,"endTime":110.51270999999998,"instrument":11,"program":0,"isDrum":true},{"pitch":35,"velocity":123,"startTime":110.7611071875,"endTime":111.9950803125,"instrument":11,"program":0,"isDrum":true},{"pitch":42,"velocity":121,"startTime":110.7611071875,"endTime":110.881299375,"instrument":11,"program":0,"isDrum":true},{"pitch":42,"velocity":116,"startTime":111.1457221875,"endTime":111.2178375,"instrument":11,"program":0,"isDrum":true},{"pitch":40,"velocity":124,"startTime":111.53033718750001,"endTime":112.70822062500001,"instrument":11,"program":0,"isDrum":true},{"pitch":42,"velocity":123,"startTime":111.53033718750001,"endTime":111.69059343749998,"instrument":11,"program":0,"isDrum":true},{"pitch":42,"velocity":116,"startTime":111.9149521875,"endTime":112.0431571875,"instrument":11,"program":0,"isDrum":true},{"pitch":35,"velocity":124,"startTime":112.2995671875,"endTime":113.221040625,"instrument":11,"program":0,"isDrum":true},{"pitch":42,"velocity":120,"startTime":112.2995671875,"endTime":112.451810625,"instrument":11,"program":0,"isDrum":true},{"pitch":42,"velocity":116,"startTime":112.6841821875,"endTime":112.78834875,"instrument":11,"program":0,"isDrum":true},{"pitch":40,"velocity":124,"startTime":113.0687971875,"endTime":114.28674468749999,"instrument":11,"program":0,"isDrum":true},{"pitch":42,"velocity":123,"startTime":113.0687971875,"endTime":113.25309187499998,"instrument":11,"program":0,"isDrum":true},{"pitch":35,"velocity":120,"startTime":113.4534121875,"endTime":113.5816171875,"instrument":11,"program":0,"isDrum":true},{"pitch":42,"velocity":117,"startTime":113.4534121875,"endTime":113.5816171875,"instrument":11,"program":0,"isDrum":true},{"pitch":35,"velocity":123,"startTime":113.8380271875,"endTime":115.09603874999999,"instrument":11,"program":0,"isDrum":true},{"pitch":42,"velocity":120,"startTime":113.8380271875,"endTime":113.9662321875,"instrument":11,"program":0,"isDrum":true},{"pitch":42,"velocity":113,"startTime":114.2226421875,"endTime":114.32680875,"instrument":11,"program":0,"isDrum":true},{"pitch":40,"velocity":124,"startTime":114.6072571875,"endTime":115.769115,"instrument":11,"program":0,"isDrum":true},{"pitch":42,"velocity":122,"startTime":114.6072571875,"endTime":114.77552625,"instrument":11,"program":0,"isDrum":true},{"pitch":42,"velocity":118,"startTime":114.99187218750001,"endTime":115.10405156249999,"instrument":11,"program":0,"isDrum":true},{"pitch":35,"velocity":123,"startTime":115.3764871875,"endTime":116.265909375,"instrument":11,"program":0,"isDrum":true},{"pitch":42,"velocity":120,"startTime":115.3764871875,"endTime":115.528730625,"instrument":11,"program":0,"isDrum":true},{"pitch":42,"velocity":113,"startTime":115.7611021875,"endTime":115.8412303125,"instrument":11,"program":0,"isDrum":true},{"pitch":40,"velocity":124,"startTime":116.1457171875,"endTime":116.971036875,"instrument":11,"program":0,"isDrum":true},{"pitch":42,"velocity":122,"startTime":116.1457171875,"endTime":116.27392218749999,"instrument":11,"program":0,"isDrum":true},{"pitch":35,"velocity":121,"startTime":116.53033218750001,"endTime":116.650524375,"instrument":11,"program":0,"isDrum":true},{"pitch":46,"velocity":120,"startTime":116.53033218750001,"endTime":116.89090875000001,"instrument":11,"program":0,"isDrum":true},{"pitch":35,"velocity":123,"startTime":116.9149471875,"endTime":117.836420625,"instrument":11,"program":0,"isDrum":true},{"pitch":42,"velocity":121,"startTime":116.9149471875,"endTime":117.035139375,"instrument":11,"program":0,"isDrum":true},{"pitch":40,"velocity":124,"startTime":117.2995621875,"endTime":117.45981843749999,"instrument":11,"program":0,"isDrum":true},{"pitch":42,"velocity":116,"startTime":117.6841771875,"endTime":117.8764846875,"instrument":11,"program":0,"isDrum":true},{"pitch":43,"velocity":124,"startTime":117.6841771875,"endTime":117.84443343749999,"instrument":11,"program":0,"isDrum":true},{"pitch":45,"velocity":122,"startTime":117.8764846875,"endTime":118.156933125,"instrument":11,"program":0,"isDrum":true},{"pitch":35,"velocity":123,"startTime":118.06879218750001,"endTime":118.285138125,"instrument":11,"program":0,"isDrum":true},{"pitch":35,"velocity":123,"startTime":118.4534071875,"endTime":119.3187909375,"instrument":11,"program":0,"isDrum":true},{"pitch":49,"velocity":122,"startTime":118.4534071875,"endTime":120.9534046875,"instrument":11,"program":0,"isDrum":true},{"pitch":42,"velocity":111,"startTime":118.8380221875,"endTime":119.0303296875,"instrument":11,"program":0,"isDrum":true},{"pitch":40,"velocity":123,"startTime":119.2226371875,"endTime":120.44058468749999,"instrument":11,"program":0,"isDrum":true},{"pitch":42,"velocity":122,"startTime":119.2226371875,"endTime":119.38289343749999,"instrument":11,"program":0,"isDrum":true},{"pitch":35,"velocity":121,"startTime":119.60725218750001,"endTime":119.7514828125,"instrument":11,"program":0,"isDrum":true},{"pitch":42,"velocity":113,"startTime":119.60725218750001,"endTime":119.71943156249999,"instrument":11,"program":0,"isDrum":true},{"pitch":35,"velocity":124,"startTime":119.9918671875,"endTime":121.25789156249999,"instrument":11,"program":0,"isDrum":true},{"pitch":42,"velocity":120,"startTime":119.9918671875,"endTime":120.1360978125,"instrument":11,"program":0,"isDrum":true},{"pitch":42,"velocity":115,"startTime":120.3764821875,"endTime":120.5046871875,"instrument":11,"program":0,"isDrum":true},{"pitch":40,"velocity":124,"startTime":120.7610971875,"endTime":121.95500624999998,"instrument":11,"program":0,"isDrum":true},{"pitch":42,"velocity":123,"startTime":120.7610971875,"endTime":120.92135343749999,"instrument":11,"program":0,"isDrum":true},{"pitch":42,"velocity":116,"startTime":121.1457121875,"endTime":121.25789156249999,"instrument":11,"program":0,"isDrum":true},{"pitch":35,"velocity":124,"startTime":121.5303271875,"endTime":122.40372375,"instrument":11,"program":0,"isDrum":true},{"pitch":42,"velocity":121,"startTime":121.5303271875,"endTime":121.682570625,"instrument":11,"program":0,"isDrum":true},{"pitch":42,"velocity":116,"startTime":121.9149421875,"endTime":122.035134375,"instrument":11,"program":0,"isDrum":true},{"pitch":40,"velocity":124,"startTime":122.2995571875,"endTime":123.5495559375,"instrument":11,"program":0,"isDrum":true},{"pitch":42,"velocity":122,"startTime":122.2995571875,"endTime":122.45981343749999,"instrument":11,"program":0,"isDrum":true},{"pitch":35,"velocity":118,"startTime":122.6841721875,"endTime":122.8284028125,"instrument":11,"program":0,"isDrum":true},{"pitch":42,"velocity":115,"startTime":122.6841721875,"endTime":122.82038999999999,"instrument":11,"program":0,"isDrum":true},{"pitch":35,"velocity":124,"startTime":123.0687871875,"endTime":124.0623759375,"instrument":11,"program":0,"isDrum":true},{"pitch":42,"velocity":121,"startTime":123.0687871875,"endTime":123.2130178125,"instrument":11,"program":0,"isDrum":true},{"pitch":42,"velocity":113,"startTime":123.4534021875,"endTime":123.55756875,"instrument":11,"program":0,"isDrum":true},{"pitch":40,"velocity":124,"startTime":123.8380171875,"endTime":125.0399390625,"instrument":11,"program":0,"isDrum":true},{"pitch":42,"velocity":122,"startTime":123.8380171875,"endTime":123.99827343749999,"instrument":11,"program":0,"isDrum":true},{"pitch":35,"velocity":120,"startTime":124.2226321875,"endTime":124.35884999999999,"instrument":11,"program":0,"isDrum":true},{"pitch":43,"velocity":121,"startTime":124.2226321875,"endTime":124.342824375,"instrument":11,"program":0,"isDrum":true},{"pitch":35,"velocity":123,"startTime":124.60724718750001,"endTime":125.48064375,"instrument":11,"program":0,"isDrum":true},{"pitch":49,"velocity":123,"startTime":124.60724718750001,"endTime":125.7610921875,"instrument":11,"program":0,"isDrum":true},{"pitch":46,"velocity":120,"startTime":124.9918621875,"endTime":125.3764771875,"instrument":11,"program":0,"isDrum":true},{"pitch":40,"velocity":124,"startTime":125.3764771875,"endTime":126.6905784375,"instrument":11,"program":0,"isDrum":true},{"pitch":46,"velocity":121,"startTime":125.3764771875,"endTime":125.7610921875,"instrument":11,"program":0,"isDrum":true},{"pitch":35,"velocity":123,"startTime":125.7610921875,"endTime":125.9053228125,"instrument":11,"program":0,"isDrum":true},{"pitch":49,"velocity":124,"startTime":125.7610921875,"endTime":126.14570718750001,"instrument":11,"program":0,"isDrum":true},{"pitch":35,"velocity":124,"startTime":126.14570718750001,"endTime":126.4822453125,"instrument":11,"program":0,"isDrum":true},{"pitch":49,"velocity":124,"startTime":126.14570718750001,"endTime":126.9149371875,"instrument":11,"program":0,"isDrum":true},{"pitch":46,"velocity":119,"startTime":126.5303221875,"endTime":126.9149371875,"instrument":11,"program":0,"isDrum":true},{"pitch":35,"velocity":120,"startTime":126.7226296875,"endTime":127.2354496875,"instrument":11,"program":0,"isDrum":true},{"pitch":40,"velocity":124,"startTime":126.9149371875,"endTime":128.285128125,"instrument":11,"program":0,"isDrum":true},{"pitch":49,"velocity":124,"startTime":126.9149371875,"endTime":126.9149371875,"instrument":11,"program":0,"isDrum":true},{"pitch":35,"velocity":123,"startTime":127.2995521875,"endTime":127.4918596875,"instrument":11,"program":0,"isDrum":true},{"pitch":46,"velocity":119,"startTime":127.2995521875,"endTime":127.68416718750001,"instrument":11,"program":0,"isDrum":true},{"pitch":35,"velocity":124,"startTime":127.68416718750001,"endTime":128.18897437500002,"instrument":11,"program":0,"isDrum":true},{"pitch":49,"velocity":124,"startTime":127.68416718750001,"endTime":129.2226271875,"instrument":11,"program":0,"isDrum":true},{"pitch":46,"velocity":121,"startTime":128.0687821875,"endTime":128.4533971875,"instrument":11,"program":0,"isDrum":true},{"pitch":40,"velocity":124,"startTime":128.4533971875,"endTime":128.894101875,"instrument":11,"program":0,"isDrum":true},{"pitch":46,"velocity":120,"startTime":128.4533971875,"endTime":128.8380121875,"instrument":11,"program":0,"isDrum":true},{"pitch":35,"velocity":124,"startTime":128.8380121875,"endTime":129.246665625,"instrument":11,"program":0,"isDrum":true},{"pitch":46,"velocity":120,"startTime":128.8380121875,"endTime":128.8380121875,"instrument":11,"program":0,"isDrum":true},{"pitch":40,"velocity":124,"startTime":129.2226271875,"endTime":129.66333187499998,"instrument":11,"program":0,"isDrum":true},{"pitch":46,"velocity":123,"startTime":129.2226271875,"endTime":129.2226271875,"instrument":11,"program":0,"isDrum":true},{"pitch":35,"velocity":124,"startTime":129.6072421875,"endTime":129.96781875,"instrument":11,"program":0,"isDrum":true},{"pitch":40,"velocity":124,"startTime":129.9918571875,"endTime":130.112049375,"instrument":11,"program":0,"isDrum":true},{"pitch":42,"velocity":120,"startTime":129.9918571875,"endTime":130.18416468750002,"instrument":11,"program":0,"isDrum":true},{"pitch":43,"velocity":123,"startTime":130.18416468750002,"endTime":130.3123696875,"instrument":11,"program":0,"isDrum":true},{"pitch":35,"velocity":123,"startTime":130.3764721875,"endTime":130.5367284375,"instrument":11,"program":0,"isDrum":true},{"pitch":45,"velocity":124,"startTime":130.3764721875,"endTime":130.5687796875,"instrument":11,"program":0,"isDrum":true},{"pitch":35,"velocity":124,"startTime":130.7610871875,"endTime":131.79474,"instrument":11,"program":0,"isDrum":true},{"pitch":49,"velocity":123,"startTime":130.7610871875,"endTime":131.1457021875,"instrument":11,"program":0,"isDrum":true},{"pitch":51,"velocity":120,"startTime":131.1457021875,"endTime":131.32999687499998,"instrument":11,"program":0,"isDrum":true},{"pitch":40,"velocity":124,"startTime":131.5303171875,"endTime":132.78832875,"instrument":11,"program":0,"isDrum":true},{"pitch":42,"velocity":122,"startTime":131.5303171875,"endTime":131.79474,"instrument":11,"program":0,"isDrum":true},{"pitch":51,"velocity":122,"startTime":131.5303171875,"endTime":131.71461187499997,"instrument":11,"program":0,"isDrum":true},{"pitch":35,"velocity":117,"startTime":131.9149321875,"endTime":132.035124375,"instrument":11,"program":0,"isDrum":true},{"pitch":51,"velocity":120,"startTime":131.9149321875,"endTime":132.01909874999998,"instrument":11,"program":0,"isDrum":true},{"pitch":35,"velocity":123,"startTime":132.2995471875,"endTime":133.5335203125,"instrument":11,"program":0,"isDrum":true},{"pitch":51,"velocity":122,"startTime":132.2995471875,"endTime":132.483841875,"instrument":11,"program":0,"isDrum":true},{"pitch":51,"velocity":117,"startTime":132.6841621875,"endTime":132.7642903125,"instrument":11,"program":0,"isDrum":true},{"pitch":40,"velocity":124,"startTime":133.0687771875,"endTime":134.23864781249998,"instrument":11,"program":0,"isDrum":true},{"pitch":42,"velocity":123,"startTime":133.0687771875,"endTime":133.27711031249999,"instrument":11,"program":0,"isDrum":true},{"pitch":51,"velocity":123,"startTime":133.0687771875,"endTime":133.253071875,"instrument":11,"program":0,"isDrum":true},{"pitch":51,"velocity":118,"startTime":133.45339218750001,"endTime":133.58961,"instrument":11,"program":0,"isDrum":true},{"pitch":35,"velocity":124,"startTime":133.8380071875,"endTime":134.7194165625,"instrument":11,"program":0,"isDrum":true},{"pitch":51,"velocity":122,"startTime":133.8380071875,"endTime":133.9501865625,"instrument":11,"program":0,"isDrum":true},{"pitch":51,"velocity":119,"startTime":134.2226221875,"endTime":134.3027503125,"instrument":11,"program":0,"isDrum":true},{"pitch":40,"velocity":124,"startTime":134.6072371875,"endTime":135.7931334375,"instrument":11,"program":0,"isDrum":true},{"pitch":42,"velocity":123,"startTime":134.6072371875,"endTime":134.8315959375,"instrument":11,"program":0,"isDrum":true},{"pitch":51,"velocity":123,"startTime":134.6072371875,"endTime":134.79153187499998,"instrument":11,"program":0,"isDrum":true},{"pitch":35,"velocity":121,"startTime":134.9918521875,"endTime":135.0639675,"instrument":11,"program":0,"isDrum":true},{"pitch":51,"velocity":120,"startTime":134.9918521875,"endTime":135.12806999999998,"instrument":11,"program":0,"isDrum":true},{"pitch":35,"velocity":124,"startTime":135.3764671875,"endTime":136.281915,"instrument":11,"program":0,"isDrum":true},{"pitch":51,"velocity":122,"startTime":135.3764671875,"endTime":135.5046721875,"instrument":11,"program":0,"isDrum":true},{"pitch":51,"velocity":120,"startTime":135.7610821875,"endTime":135.86524875,"instrument":11,"program":0,"isDrum":true},{"pitch":40,"velocity":124,"startTime":136.1456971875,"endTime":137.323580625,"instrument":11,"program":0,"isDrum":true},{"pitch":42,"velocity":124,"startTime":136.1456971875,"endTime":136.394094375,"instrument":11,"program":0,"isDrum":true},{"pitch":51,"velocity":123,"startTime":136.1456971875,"endTime":136.265889375,"instrument":11,"program":0,"isDrum":true},{"pitch":35,"velocity":116,"startTime":136.53031218750002,"endTime":136.6024275,"instrument":11,"program":0,"isDrum":true},{"pitch":51,"velocity":113,"startTime":136.53031218750002,"endTime":136.66653,"instrument":11,"program":0,"isDrum":true},{"pitch":35,"velocity":124,"startTime":136.9149271875,"endTime":137.80434937500002,"instrument":11,"program":0,"isDrum":true},{"pitch":51,"velocity":122,"startTime":136.9149271875,"endTime":137.051145,"instrument":11,"program":0,"isDrum":true},{"pitch":51,"velocity":118,"startTime":137.2995421875,"endTime":137.40370875,"instrument":11,"program":0,"isDrum":true},{"pitch":40,"velocity":124,"startTime":137.6841571875,"endTime":138.73383562499998,"instrument":11,"program":0,"isDrum":true},{"pitch":42,"velocity":123,"startTime":137.6841571875,"endTime":137.91652875,"instrument":11,"program":0,"isDrum":true},{"pitch":51,"velocity":123,"startTime":137.6841571875,"endTime":137.8283878125,"instrument":11,"program":0,"isDrum":true},{"pitch":35,"velocity":118,"startTime":138.0687721875,"endTime":138.156913125,"instrument":11,"program":0,"isDrum":true},{"pitch":51,"velocity":120,"startTime":138.0687721875,"endTime":138.18095156249998,"instrument":11,"program":0,"isDrum":true},{"pitch":35,"velocity":123,"startTime":138.4533871875,"endTime":139.23063,"instrument":11,"program":0,"isDrum":true},{"pitch":51,"velocity":123,"startTime":138.4533871875,"endTime":138.605630625,"instrument":11,"program":0,"isDrum":true},{"pitch":51,"velocity":119,"startTime":138.8380021875,"endTime":138.92614312499998,"instrument":11,"program":0,"isDrum":true},{"pitch":40,"velocity":124,"startTime":139.2226171875,"endTime":140.432551875,"instrument":11,"program":0,"isDrum":true},{"pitch":42,"velocity":123,"startTime":139.2226171875,"endTime":139.45498874999998,"instrument":11,"program":0,"isDrum":true},{"pitch":51,"velocity":123,"startTime":139.2226171875,"endTime":139.3828734375,"instrument":11,"program":0,"isDrum":true},{"pitch":35,"velocity":117,"startTime":139.6072321875,"endTime":139.6873603125,"instrument":11,"program":0,"isDrum":true},{"pitch":51,"velocity":120,"startTime":139.6072321875,"endTime":139.71139875,"instrument":11,"program":0,"isDrum":true},{"pitch":35,"velocity":123,"startTime":139.9918471875,"endTime":140.8732565625,"instrument":11,"program":0,"isDrum":true},{"pitch":51,"velocity":123,"startTime":139.9918471875,"endTime":140.1200521875,"instrument":11,"program":0,"isDrum":true},{"pitch":51,"velocity":119,"startTime":140.3764621875,"endTime":140.464603125,"instrument":11,"program":0,"isDrum":true},{"pitch":40,"velocity":124,"startTime":140.7610771875,"endTime":141.6024225,"instrument":11,"program":0,"isDrum":true},{"pitch":42,"velocity":121,"startTime":140.7610771875,"endTime":140.9373590625,"instrument":11,"program":0,"isDrum":true},{"pitch":51,"velocity":124,"startTime":140.7610771875,"endTime":140.89729499999999,"instrument":11,"program":0,"isDrum":true},{"pitch":35,"velocity":122,"startTime":141.1456921875,"endTime":141.2178075,"instrument":11,"program":0,"isDrum":true},{"pitch":51,"velocity":120,"startTime":141.1456921875,"endTime":141.265884375,"instrument":11,"program":0,"isDrum":true},{"pitch":35,"velocity":124,"startTime":141.5303071875,"endTime":142.38767812499998,"instrument":11,"program":0,"isDrum":true},{"pitch":51,"velocity":122,"startTime":141.5303071875,"endTime":141.64248656249998,"instrument":11,"program":0,"isDrum":true},{"pitch":40,"velocity":124,"startTime":141.9149221875,"endTime":142.02710156249998,"instrument":11,"program":0,"isDrum":true},{"pitch":51,"velocity":120,"startTime":141.9149221875,"endTime":141.9870375,"instrument":11,"program":0,"isDrum":true},{"pitch":40,"velocity":124,"startTime":142.2995371875,"endTime":142.40370375,"instrument":11,"program":0,"isDrum":true},{"pitch":42,"velocity":121,"startTime":142.2995371875,"endTime":142.451780625,"instrument":11,"program":0,"isDrum":true},{"pitch":43,"velocity":123,"startTime":142.4918446875,"endTime":142.6681265625,"instrument":11,"program":0,"isDrum":true},{"pitch":35,"velocity":124,"startTime":142.6841521875,"endTime":142.8123571875,"instrument":11,"program":0,"isDrum":true},{"pitch":45,"velocity":122,"startTime":142.6841521875,"endTime":142.8123571875,"instrument":11,"program":0,"isDrum":true},{"pitch":35,"velocity":123,"startTime":143.06876718750001,"endTime":144.086394375,"instrument":11,"program":0,"isDrum":true},{"pitch":49,"velocity":122,"startTime":143.06876718750001,"endTime":143.4213309375,"instrument":11,"program":0,"isDrum":true},{"pitch":51,"velocity":120,"startTime":143.4533821875,"endTime":143.66171531249998,"instrument":11,"program":0,"isDrum":true},{"pitch":40,"velocity":124,"startTime":143.8379971875,"endTime":144.999855,"instrument":11,"program":0,"isDrum":true},{"pitch":42,"velocity":122,"startTime":143.8379971875,"endTime":144.2546634375,"instrument":11,"program":0,"isDrum":true},{"pitch":51,"velocity":122,"startTime":143.8379971875,"endTime":144.00626625,"instrument":11,"program":0,"isDrum":true},{"pitch":35,"velocity":118,"startTime":144.2226121875,"endTime":144.3187659375,"instrument":11,"program":0,"isDrum":true},{"pitch":51,"velocity":120,"startTime":144.2226121875,"endTime":144.35081718749998,"instrument":11,"program":0,"isDrum":true},{"pitch":35,"velocity":123,"startTime":144.6072271875,"endTime":145.46459812499998,"instrument":11,"program":0,"isDrum":true},{"pitch":51,"velocity":123,"startTime":144.6072271875,"endTime":144.70338093750001,"instrument":11,"program":0,"isDrum":true},{"pitch":51,"velocity":119,"startTime":144.9918421875,"endTime":145.047931875,"instrument":11,"program":0,"isDrum":true},{"pitch":40,"velocity":124,"startTime":145.3764571875,"endTime":146.554340625,"instrument":11,"program":0,"isDrum":true},{"pitch":42,"velocity":123,"startTime":145.3764571875,"endTime":145.592803125,"instrument":11,"program":0,"isDrum":true},{"pitch":51,"velocity":123,"startTime":145.3764571875,"endTime":145.48863656249998,"instrument":11,"program":0,"isDrum":true},{"pitch":35,"velocity":114,"startTime":145.7610721875,"endTime":145.89729,"instrument":11,"program":0,"isDrum":true},{"pitch":51,"velocity":118,"startTime":145.7610721875,"endTime":145.881264375,"instrument":11,"program":0,"isDrum":true},{"pitch":35,"velocity":124,"startTime":146.1456871875,"endTime":147.051135,"instrument":11,"program":0,"isDrum":true},{"pitch":51,"velocity":123,"startTime":146.1456871875,"endTime":146.24985375,"instrument":11,"program":0,"isDrum":true},{"pitch":51,"velocity":114,"startTime":146.5303021875,"endTime":146.6264559375,"instrument":11,"program":0,"isDrum":true},{"pitch":40,"velocity":124,"startTime":146.9149171875,"endTime":147.98062124999998,"instrument":11,"program":0,"isDrum":true},{"pitch":42,"velocity":122,"startTime":146.9149171875,"endTime":147.1392759375,"instrument":11,"program":0,"isDrum":true},{"pitch":51,"velocity":123,"startTime":146.9149171875,"endTime":147.035109375,"instrument":11,"program":0,"isDrum":true},{"pitch":35,"velocity":114,"startTime":147.2995321875,"endTime":147.4117115625,"instrument":11,"program":0,"isDrum":true},{"pitch":51,"velocity":115,"startTime":147.2995321875,"endTime":147.40369875,"instrument":11,"program":0,"isDrum":true},{"pitch":35,"velocity":124,"startTime":147.6841471875,"endTime":148.5495309375,"instrument":11,"program":0,"isDrum":true},{"pitch":51,"velocity":122,"startTime":147.6841471875,"endTime":147.79632656249998,"instrument":11,"program":0,"isDrum":true},{"pitch":51,"velocity":115,"startTime":148.0687621875,"endTime":148.1488903125,"instrument":11,"program":0,"isDrum":true},{"pitch":40,"velocity":123,"startTime":148.4533771875,"endTime":149.663311875,"instrument":11,"program":0,"isDrum":true},{"pitch":42,"velocity":124,"startTime":148.4533771875,"endTime":148.72581281249998,"instrument":11,"program":0,"isDrum":true},{"pitch":51,"velocity":122,"startTime":148.4533771875,"endTime":148.605620625,"instrument":11,"program":0,"isDrum":true},{"pitch":35,"velocity":118,"startTime":148.8379921875,"endTime":148.9661971875,"instrument":11,"program":0,"isDrum":true},{"pitch":51,"velocity":121,"startTime":148.8379921875,"endTime":148.97421,"instrument":11,"program":0,"isDrum":true},{"pitch":35,"velocity":124,"startTime":149.2226071875,"endTime":150.1200421875,"instrument":11,"program":0,"isDrum":true},{"pitch":49,"velocity":123,"startTime":149.2226071875,"endTime":149.5911965625,"instrument":11,"program":0,"isDrum":true},{"pitch":51,"velocity":120,"startTime":149.6072221875,"endTime":149.7194015625,"instrument":11,"program":0,"isDrum":true},{"pitch":40,"velocity":124,"startTime":149.9918371875,"endTime":151.073566875,"instrument":11,"program":0,"isDrum":true},{"pitch":42,"velocity":123,"startTime":149.9918371875,"endTime":150.2802984375,"instrument":11,"program":0,"isDrum":true},{"pitch":51,"velocity":124,"startTime":149.9918371875,"endTime":150.400490625,"instrument":11,"program":0,"isDrum":true},{"pitch":35,"velocity":120,"startTime":150.3764521875,"endTime":150.48061875,"instrument":11,"program":0,"isDrum":true},{"pitch":35,"velocity":123,"startTime":150.7610671875,"endTime":151.906899375,"instrument":11,"program":0,"isDrum":true},{"pitch":51,"velocity":123,"startTime":150.7610671875,"endTime":150.8411953125,"instrument":11,"program":0,"isDrum":true},{"pitch":40,"velocity":124,"startTime":151.5302971875,"endTime":152.708180625,"instrument":11,"program":0,"isDrum":true},{"pitch":42,"velocity":123,"startTime":151.5302971875,"endTime":151.82677125,"instrument":11,"program":0,"isDrum":true},{"pitch":51,"velocity":123,"startTime":151.5302971875,"endTime":151.69856625,"instrument":11,"program":0,"isDrum":true},{"pitch":51,"velocity":120,"startTime":151.9149121875,"endTime":152.01907875,"instrument":11,"program":0,"isDrum":true},{"pitch":35,"velocity":124,"startTime":152.2995271875,"endTime":153.1649109375,"instrument":11,"program":0,"isDrum":true},{"pitch":49,"velocity":123,"startTime":152.2995271875,"endTime":152.483821875,"instrument":11,"program":0,"isDrum":true},{"pitch":51,"velocity":117,"startTime":152.68414218750002,"endTime":152.8123471875,"instrument":11,"program":0,"isDrum":true},{"pitch":40,"velocity":123,"startTime":153.0687571875,"endTime":154.086384375,"instrument":11,"program":0,"isDrum":true},{"pitch":42,"velocity":124,"startTime":153.0687571875,"endTime":153.3411928125,"instrument":11,"program":0,"isDrum":true},{"pitch":51,"velocity":123,"startTime":153.0687571875,"endTime":153.2290134375,"instrument":11,"program":0,"isDrum":true},{"pitch":35,"velocity":119,"startTime":153.4533721875,"endTime":153.62164125,"instrument":11,"program":0,"isDrum":true},{"pitch":51,"velocity":120,"startTime":153.4533721875,"endTime":153.55753875,"instrument":11,"program":0,"isDrum":true},{"pitch":35,"velocity":122,"startTime":153.8379871875,"endTime":154.6552940625,"instrument":11,"program":0,"isDrum":true},{"pitch":51,"velocity":123,"startTime":153.8379871875,"endTime":153.96619218749998,"instrument":11,"program":0,"isDrum":true},{"pitch":40,"velocity":123,"startTime":154.2226021875,"endTime":154.31875593750001,"instrument":11,"program":0,"isDrum":true},{"pitch":42,"velocity":123,"startTime":154.2226021875,"endTime":154.45497375,"instrument":11,"program":0,"isDrum":true},{"pitch":51,"velocity":122,"startTime":154.2226021875,"endTime":154.342794375,"instrument":11,"program":0,"isDrum":true},{"pitch":40,"velocity":123,"startTime":154.6072171875,"endTime":154.74343499999998,"instrument":11,"program":0,"isDrum":true},{"pitch":43,"velocity":122,"startTime":154.7995246875,"endTime":154.983819375,"instrument":11,"program":0,"isDrum":true},{"pitch":51,"velocity":123,"startTime":154.7995246875,"endTime":154.91170406249998,"instrument":11,"program":0,"isDrum":true},{"pitch":35,"velocity":123,"startTime":154.9918321875,"endTime":155.144075625,"instrument":11,"program":0,"isDrum":true},{"pitch":42,"velocity":123,"startTime":154.9918321875,"endTime":155.07997312499998,"instrument":11,"program":0,"isDrum":true},{"pitch":45,"velocity":122,"startTime":154.9918321875,"endTime":155.35240875,"instrument":11,"program":0,"isDrum":true},{"pitch":35,"velocity":123,"startTime":155.3764471875,"endTime":156.233818125,"instrument":11,"program":0,"isDrum":true},{"pitch":49,"velocity":123,"startTime":155.3764471875,"endTime":155.8892671875,"instrument":11,"program":0,"isDrum":true},{"pitch":40,"velocity":124,"startTime":156.1456771875,"endTime":157.3315734375,"instrument":11,"program":0,"isDrum":true},{"pitch":42,"velocity":123,"startTime":156.1456771875,"endTime":156.4982409375,"instrument":11,"program":0,"isDrum":true},{"pitch":51,"velocity":123,"startTime":156.1456771875,"endTime":156.3700359375,"instrument":11,"program":0,"isDrum":true},{"pitch":35,"velocity":116,"startTime":156.5302921875,"endTime":156.68253562499999,"instrument":11,"program":0,"isDrum":true},{"pitch":51,"velocity":121,"startTime":156.5302921875,"endTime":156.63445875,"instrument":11,"program":0,"isDrum":true},{"pitch":35,"velocity":123,"startTime":156.9149071875,"endTime":157.79631656249998,"instrument":11,"program":0,"isDrum":true},{"pitch":49,"velocity":123,"startTime":156.9149071875,"endTime":157.1072146875,"instrument":11,"program":0,"isDrum":true},{"pitch":51,"velocity":120,"startTime":157.2995221875,"endTime":157.419714375,"instrument":11,"program":0,"isDrum":true},{"pitch":40,"velocity":124,"startTime":157.6841371875,"endTime":158.87003343749998,"instrument":11,"program":0,"isDrum":true},{"pitch":42,"velocity":123,"startTime":157.6841371875,"endTime":158.0046496875,"instrument":11,"program":0,"isDrum":true},{"pitch":51,"velocity":123,"startTime":157.6841371875,"endTime":157.836380625,"instrument":11,"program":0,"isDrum":true},{"pitch":35,"velocity":121,"startTime":158.0687521875,"endTime":158.2450340625,"instrument":11,"program":0,"isDrum":true},{"pitch":51,"velocity":122,"startTime":158.0687521875,"endTime":158.1649059375,"instrument":11,"program":0,"isDrum":true},{"pitch":35,"velocity":124,"startTime":158.4533671875,"endTime":159.3668278125,"instrument":11,"program":0,"isDrum":true},{"pitch":49,"velocity":123,"startTime":158.4533671875,"endTime":158.67772593749999,"instrument":11,"program":0,"isDrum":true},{"pitch":51,"velocity":118,"startTime":158.8379821875,"endTime":158.9501615625,"instrument":11,"program":0,"isDrum":true},{"pitch":40,"velocity":124,"startTime":159.2225971875,"endTime":160.35240375,"instrument":11,"program":0,"isDrum":true},{"pitch":42,"velocity":123,"startTime":159.2225971875,"endTime":159.503045625,"instrument":11,"program":0,"isDrum":true},{"pitch":51,"velocity":123,"startTime":159.2225971875,"endTime":159.3828534375,"instrument":11,"program":0,"isDrum":true},{"pitch":35,"velocity":121,"startTime":159.6072121875,"endTime":159.74343,"instrument":11,"program":0,"isDrum":true},{"pitch":51,"velocity":120,"startTime":159.6072121875,"endTime":159.727404375,"instrument":11,"program":0,"isDrum":true},{"pitch":35,"velocity":124,"startTime":159.9918271875,"endTime":160.88926218749998,"instrument":11,"program":0,"isDrum":true},{"pitch":51,"velocity":123,"startTime":159.9918271875,"endTime":160.16009625,"instrument":11,"program":0,"isDrum":true},{"pitch":51,"velocity":120,"startTime":160.3764421875,"endTime":160.4886215625,"instrument":11,"program":0,"isDrum":true},{"pitch":40,"velocity":124,"startTime":160.7610571875,"endTime":161.9629790625,"instrument":11,"program":0,"isDrum":true},{"pitch":42,"velocity":123,"startTime":160.7610571875,"endTime":161.1616978125,"instrument":11,"program":0,"isDrum":true},{"pitch":51,"velocity":124,"startTime":160.7610571875,"endTime":160.92131343749998,"instrument":11,"program":0,"isDrum":true},{"pitch":35,"velocity":123,"startTime":161.1456721875,"endTime":161.297915625,"instrument":11,"program":0,"isDrum":true},{"pitch":51,"velocity":122,"startTime":161.1456721875,"endTime":161.28188999999998,"instrument":11,"program":0,"isDrum":true},{"pitch":35,"velocity":123,"startTime":161.5302871875,"endTime":162.40368375,"instrument":11,"program":0,"isDrum":true},{"pitch":49,"velocity":123,"startTime":161.5302871875,"endTime":161.7306075,"instrument":11,"program":0,"isDrum":true},{"pitch":51,"velocity":121,"startTime":161.9149021875,"endTime":162.02708156249997,"instrument":11,"program":0,"isDrum":true},{"pitch":40,"velocity":123,"startTime":162.2995171875,"endTime":162.6841321875,"instrument":11,"program":0,"isDrum":true},{"pitch":42,"velocity":123,"startTime":162.2995171875,"endTime":162.6200296875,"instrument":11,"program":0,"isDrum":true},{"pitch":51,"velocity":123,"startTime":162.2995171875,"endTime":162.53188874999998,"instrument":11,"program":0,"isDrum":true},{"pitch":40,"velocity":122,"startTime":162.6841321875,"endTime":162.98060625,"instrument":11,"program":0,"isDrum":true},{"pitch":40,"velocity":124,"startTime":162.8764396875,"endTime":163.0687471875,"instrument":11,"program":0,"isDrum":true},{"pitch":35,"velocity":124,"startTime":163.0687471875,"endTime":164.30272031249999,"instrument":11,"program":0,"isDrum":true},{"pitch":49,"velocity":120,"startTime":163.0687471875,"endTime":163.3732340625,"instrument":11,"program":0,"isDrum":true},{"pitch":40,"velocity":124,"startTime":163.8379771875,"endTime":165.1520784375,"instrument":11,"program":0,"isDrum":true},{"pitch":57,"velocity":121,"startTime":163.8379771875,"endTime":164.0142590625,"instrument":11,"program":0,"isDrum":true},{"pitch":35,"velocity":124,"startTime":164.6072071875,"endTime":165.4485525,"instrument":11,"program":0,"isDrum":true},{"pitch":49,"velocity":121,"startTime":164.6072071875,"endTime":164.8155403125,"instrument":11,"program":0,"isDrum":true},{"pitch":40,"velocity":124,"startTime":165.3764371875,"endTime":165.60880874999998,"instrument":11,"program":0,"isDrum":true},{"pitch":51,"velocity":122,"startTime":165.3764371875,"endTime":165.512655,"instrument":11,"program":0,"isDrum":true},{"pitch":35,"velocity":123,"startTime":165.56874468750001,"endTime":165.73701375,"instrument":11,"program":0,"isDrum":true},{"pitch":52,"velocity":122,"startTime":165.56874468750001,"endTime":165.6969496875,"instrument":11,"program":0,"isDrum":true},{"pitch":35,"velocity":124,"startTime":165.8572059375,"endTime":166.01746218749997,"instrument":11,"program":0,"isDrum":true},{"pitch":49,"velocity":120,"startTime":165.8572059375,"endTime":166.025475,"instrument":11,"program":0,"isDrum":true},{"pitch":35,"velocity":124,"startTime":166.1456671875,"endTime":167.3315634375,"instrument":11,"program":0,"isDrum":true},{"pitch":57,"velocity":121,"startTime":166.1456671875,"endTime":166.44214125,"instrument":11,"program":0,"isDrum":true},{"pitch":40,"velocity":124,"startTime":166.9148971875,"endTime":167.38765312499999,"instrument":11,"program":0,"isDrum":true},{"pitch":43,"velocity":124,"startTime":166.9148971875,"endTime":167.3956659375,"instrument":11,"program":0,"isDrum":true},{"pitch":49,"velocity":123,"startTime":166.9148971875,"endTime":167.07515343749998,"instrument":11,"program":0,"isDrum":true},{"pitch":40,"velocity":124,"startTime":167.69214,"endTime":167.72419125,"instrument":11,"program":0,"isDrum":true},{"pitch":40,"velocity":123,"startTime":167.7322040625,"endTime":168.076755,"instrument":11,"program":0,"isDrum":true},{"pitch":81,"velocity":103,"startTime":168.092780625,"endTime":168.20496,"instrument":11,"program":0,"isDrum":true},{"pitch":81,"velocity":103,"startTime":168.4533571875,"endTime":168.5495109375,"instrument":11,"program":0,"isDrum":true},{"pitch":81,"velocity":104,"startTime":168.8219465625,"endTime":168.9181003125,"instrument":11,"program":0,"isDrum":true},{"pitch":81,"velocity":103,"startTime":169.19854875000001,"endTime":169.3027153125,"instrument":11,"program":0,"isDrum":true},{"pitch":81,"velocity":104,"startTime":169.59117656249998,"endTime":169.7033559375,"instrument":11,"program":0,"isDrum":true},{"pitch":81,"velocity":104,"startTime":169.9757915625,"endTime":170.0879709375,"instrument":11,"program":0,"isDrum":true},{"pitch":81,"velocity":104,"startTime":170.3604065625,"endTime":170.4725859375,"instrument":11,"program":0,"isDrum":true},{"pitch":81,"velocity":104,"startTime":170.7610471875,"endTime":170.8572009375,"instrument":11,"program":0,"isDrum":true},{"pitch":81,"velocity":104,"startTime":171.1296365625,"endTime":171.22579031249998,"instrument":11,"program":0,"isDrum":true},{"pitch":81,"velocity":104,"startTime":171.5142515625,"endTime":171.6264309375,"instrument":11,"program":0,"isDrum":true},{"pitch":81,"velocity":106,"startTime":171.906879375,"endTime":172.00303312499997,"instrument":11,"program":0,"isDrum":true},{"pitch":81,"velocity":102,"startTime":172.2834815625,"endTime":172.3956609375,"instrument":11,"program":0,"isDrum":true},{"pitch":81,"velocity":104,"startTime":172.66008375,"endTime":172.7562375,"instrument":11,"program":0,"isDrum":true},{"pitch":81,"velocity":102,"startTime":173.06072437499998,"endTime":173.156878125,"instrument":11,"program":0,"isDrum":true},{"pitch":81,"velocity":103,"startTime":173.44533937499997,"endTime":173.541493125,"instrument":11,"program":0,"isDrum":true},{"pitch":81,"velocity":103,"startTime":173.8379671875,"endTime":173.92610812499998,"instrument":11,"program":0,"isDrum":true},{"pitch":81,"velocity":104,"startTime":174.2546334375,"endTime":174.33476156249998,"instrument":11,"program":0,"isDrum":true},{"pitch":81,"velocity":103,"startTime":174.64726124999999,"endTime":174.7354021875,"instrument":11,"program":0,"isDrum":true},{"pitch":81,"velocity":105,"startTime":175.03187624999998,"endTime":175.1200171875,"instrument":11,"program":0,"isDrum":true},{"pitch":81,"velocity":103,"startTime":175.41649124999998,"endTime":175.5206578125,"instrument":11,"program":0,"isDrum":true},{"pitch":81,"velocity":102,"startTime":175.7930934375,"endTime":175.8892471875,"instrument":11,"program":0,"isDrum":true},{"pitch":81,"velocity":103,"startTime":176.1777084375,"endTime":176.2738621875,"instrument":11,"program":0,"isDrum":true},{"pitch":81,"velocity":104,"startTime":176.57033625,"endTime":176.68251562499998,"instrument":11,"program":0,"isDrum":true},{"pitch":35,"velocity":123,"startTime":176.9148871875,"endTime":176.9789896875,"instrument":11,"program":0,"isDrum":true},{"pitch":45,"velocity":123,"startTime":176.9148871875,"endTime":176.9789896875,"instrument":11,"program":0,"isDrum":true},{"pitch":47,"velocity":118,"startTime":176.9148871875,"endTime":176.9469384375,"instrument":11,"program":0,"isDrum":true},{"pitch":81,"velocity":102,"startTime":176.9469384375,"endTime":177.02706656249998,"instrument":11,"program":0,"isDrum":true},{"pitch":35,"velocity":123,"startTime":177.1071946875,"endTime":177.19533562499998,"instrument":11,"program":0,"isDrum":true},{"pitch":45,"velocity":123,"startTime":177.1071946875,"endTime":177.2033484375,"instrument":11,"program":0,"isDrum":true},{"pitch":81,"velocity":99,"startTime":177.1392459375,"endTime":177.21136124999998,"instrument":11,"program":0,"isDrum":true},{"pitch":35,"velocity":123,"startTime":177.2995021875,"endTime":177.38764312499998,"instrument":11,"program":0,"isDrum":true},{"pitch":45,"velocity":124,"startTime":177.2995021875,"endTime":177.38764312499998,"instrument":11,"program":0,"isDrum":true},{"pitch":81,"velocity":104,"startTime":177.2995021875,"endTime":177.38764312499998,"instrument":11,"program":0,"isDrum":true},{"pitch":81,"velocity":110,"startTime":177.4757840625,"endTime":177.563925,"instrument":11,"program":0,"isDrum":true},{"pitch":35,"velocity":123,"startTime":177.4918096875,"endTime":177.5879634375,"instrument":11,"program":0,"isDrum":true},{"pitch":45,"velocity":122,"startTime":177.4918096875,"endTime":177.6200146875,"instrument":11,"program":0,"isDrum":true},{"pitch":35,"velocity":124,"startTime":177.6841171875,"endTime":177.85238625,"instrument":11,"program":0,"isDrum":true},{"pitch":43,"velocity":124,"startTime":177.6841171875,"endTime":177.868411875,"instrument":11,"program":0,"isDrum":true},{"pitch":81,"velocity":114,"startTime":177.69213,"endTime":177.7802709375,"instrument":11,"program":0,"isDrum":true},{"pitch":35,"velocity":124,"startTime":178.0687321875,"endTime":178.2450140625,"instrument":11,"program":0,"isDrum":true},{"pitch":43,"velocity":123,"startTime":178.0687321875,"endTime":178.253026875,"instrument":11,"program":0,"isDrum":true},{"pitch":45,"velocity":121,"startTime":178.0687321875,"endTime":178.12482187499998,"instrument":11,"program":0,"isDrum":true},{"pitch":81,"velocity":109,"startTime":178.076745,"endTime":178.17289875,"instrument":11,"program":0,"isDrum":true},{"pitch":35,"velocity":124,"startTime":178.4533471875,"endTime":178.51744968749998,"instrument":11,"program":0,"isDrum":true},{"pitch":43,"velocity":123,"startTime":178.4533471875,"endTime":178.54148812499997,"instrument":11,"program":0,"isDrum":true},{"pitch":81,"velocity":108,"startTime":178.4533471875,"endTime":178.5254625,"instrument":11,"program":0,"isDrum":true},{"pitch":81,"velocity":106,"startTime":178.6296290625,"endTime":178.70975718749997,"instrument":11,"program":0,"isDrum":true},{"pitch":35,"velocity":123,"startTime":178.6456546875,"endTime":178.7257828125,"instrument":11,"program":0,"isDrum":true},{"pitch":43,"velocity":123,"startTime":178.6456546875,"endTime":178.733795625,"instrument":11,"program":0,"isDrum":true},{"pitch":81,"velocity":108,"startTime":178.8059109375,"endTime":178.894051875,"instrument":11,"program":0,"isDrum":true},{"pitch":35,"velocity":123,"startTime":178.8379621875,"endTime":178.926103125,"instrument":11,"program":0,"isDrum":true},{"pitch":43,"velocity":123,"startTime":178.8379621875,"endTime":178.926103125,"instrument":11,"program":0,"isDrum":true},{"pitch":81,"velocity":111,"startTime":178.9982184375,"endTime":179.086359375,"instrument":11,"program":0,"isDrum":true},{"pitch":35,"velocity":122,"startTime":179.0302696875,"endTime":179.13443625,"instrument":11,"program":0,"isDrum":true},{"pitch":43,"velocity":123,"startTime":179.0302696875,"endTime":179.1424490625,"instrument":11,"program":0,"isDrum":true},{"pitch":81,"velocity":112,"startTime":179.19853875,"endTime":179.3027053125,"instrument":11,"program":0,"isDrum":true},{"pitch":35,"velocity":123,"startTime":179.2225771875,"endTime":179.39084625,"instrument":11,"program":0,"isDrum":true},{"pitch":45,"velocity":124,"startTime":179.2225771875,"endTime":179.4148846875,"instrument":11,"program":0,"isDrum":true},{"pitch":81,"velocity":112,"startTime":179.58315375,"endTime":179.6873203125,"instrument":11,"program":0,"isDrum":true},{"pitch":35,"velocity":124,"startTime":179.6071921875,"endTime":179.77546125,"instrument":11,"program":0,"isDrum":true},{"pitch":43,"velocity":124,"startTime":179.6071921875,"endTime":179.77546125,"instrument":11,"program":0,"isDrum":true},{"pitch":35,"velocity":124,"startTime":179.9918071875,"endTime":180.31231968749998,"instrument":11,"program":0,"isDrum":true},{"pitch":40,"velocity":124,"startTime":179.9918071875,"endTime":180.31231968749998,"instrument":11,"program":0,"isDrum":true},{"pitch":81,"velocity":117,"startTime":179.99982,"endTime":180.0719353125,"instrument":11,"program":0,"isDrum":true},{"pitch":35,"velocity":123,"startTime":190.3764121875,"endTime":190.5767325,"instrument":11,"program":0,"isDrum":true},{"pitch":43,"velocity":123,"startTime":190.3764121875,"endTime":190.592758125,"instrument":11,"program":0,"isDrum":true},{"pitch":81,"velocity":114,"startTime":190.4244890625,"endTime":190.5206428125,"instrument":11,"program":0,"isDrum":true},{"pitch":35,"velocity":122,"startTime":190.7610271875,"endTime":190.84115531249998,"instrument":11,"program":0,"isDrum":true},{"pitch":43,"velocity":122,"startTime":190.7610271875,"endTime":190.84115531249998,"instrument":11,"program":0,"isDrum":true},{"pitch":81,"velocity":108,"startTime":190.7930784375,"endTime":190.881219375,"instrument":11,"program":0,"isDrum":true},{"pitch":35,"velocity":121,"startTime":190.9533346875,"endTime":191.02545,"instrument":11,"program":0,"isDrum":true},{"pitch":43,"velocity":121,"startTime":190.9533346875,"endTime":191.01743718749998,"instrument":11,"program":0,"isDrum":true},{"pitch":81,"velocity":108,"startTime":190.98538593749998,"endTime":191.06551406249997,"instrument":11,"program":0,"isDrum":true},{"pitch":35,"velocity":122,"startTime":191.1456421875,"endTime":191.34596249999998,"instrument":11,"program":0,"isDrum":true},{"pitch":43,"velocity":121,"startTime":191.1456421875,"endTime":191.37000093749998,"instrument":11,"program":0,"isDrum":true},{"pitch":81,"velocity":111,"startTime":191.18570624999998,"endTime":191.28186,"instrument":11,"program":0,"isDrum":true},{"pitch":35,"velocity":123,"startTime":191.5302571875,"endTime":191.778654375,"instrument":11,"program":0,"isDrum":true},{"pitch":43,"velocity":123,"startTime":191.5302571875,"endTime":191.778654375,"instrument":11,"program":0,"isDrum":true},{"pitch":81,"velocity":113,"startTime":191.57032124999998,"endTime":191.6584621875,"instrument":11,"program":0,"isDrum":true},{"pitch":35,"velocity":123,"startTime":191.9148721875,"endTime":192.003013125,"instrument":11,"program":0,"isDrum":true},{"pitch":45,"velocity":122,"startTime":191.9148721875,"endTime":192.003013125,"instrument":11,"program":0,"isDrum":true},{"pitch":81,"velocity":111,"startTime":191.9469234375,"endTime":192.0110259375,"instrument":11,"program":0,"isDrum":true},{"pitch":35,"velocity":121,"startTime":192.1071796875,"endTime":192.21134625,"instrument":11,"program":0,"isDrum":true},{"pitch":45,"velocity":120,"startTime":192.1071796875,"endTime":192.195320625,"instrument":11,"program":0,"isDrum":true},{"pitch":81,"velocity":109,"startTime":192.131218125,"endTime":192.2193590625,"instrument":11,"program":0,"isDrum":true},{"pitch":35,"velocity":124,"startTime":192.2994871875,"endTime":192.579935625,"instrument":11,"program":0,"isDrum":true},{"pitch":43,"velocity":123,"startTime":192.2994871875,"endTime":192.5719228125,"instrument":11,"program":0,"isDrum":true},{"pitch":81,"velocity":110,"startTime":192.323525625,"endTime":192.419679375,"instrument":11,"program":0,"isDrum":true},{"pitch":35,"velocity":122,"startTime":192.6841021875,"endTime":192.7802559375,"instrument":11,"program":0,"isDrum":true},{"pitch":41,"velocity":123,"startTime":192.6841021875,"endTime":192.7802559375,"instrument":11,"program":0,"isDrum":true},{"pitch":81,"velocity":113,"startTime":192.6841021875,"endTime":192.7642303125,"instrument":11,"program":0,"isDrum":true},{"pitch":35,"velocity":122,"startTime":192.8764096875,"endTime":192.98858906249998,"instrument":11,"program":0,"isDrum":true},{"pitch":41,"velocity":121,"startTime":192.8764096875,"endTime":192.97256343749999,"instrument":11,"program":0,"isDrum":true},{"pitch":81,"velocity":107,"startTime":192.8764096875,"endTime":192.9565378125,"instrument":11,"program":0,"isDrum":true},{"pitch":35,"velocity":124,"startTime":193.0687171875,"endTime":193.34115281249998,"instrument":11,"program":0,"isDrum":true},{"pitch":43,"velocity":123,"startTime":193.0687171875,"endTime":193.3091015625,"instrument":11,"program":0,"isDrum":true},{"pitch":81,"velocity":109,"startTime":193.07673,"endTime":193.17288374999998,"instrument":11,"program":0,"isDrum":true},{"pitch":35,"velocity":124,"startTime":193.4533321875,"endTime":193.8379471875,"instrument":11,"program":0,"isDrum":true},{"pitch":49,"velocity":123,"startTime":193.4533321875,"endTime":194.07031874999998,"instrument":11,"program":0,"isDrum":true},{"pitch":81,"velocity":114,"startTime":193.461345,"endTime":193.55749874999998,"instrument":11,"program":0,"isDrum":true},{"pitch":35,"velocity":121,"startTime":193.8379471875,"endTime":194.0302546875,"instrument":11,"program":0,"isDrum":true},{"pitch":43,"velocity":121,"startTime":193.8379471875,"endTime":194.0302546875,"instrument":11,"program":0,"isDrum":true},{"pitch":81,"velocity":108,"startTime":193.861985625,"endTime":193.91807531249998,"instrument":11,"program":0,"isDrum":true},{"pitch":35,"velocity":124,"startTime":194.0302546875,"endTime":194.2225621875,"instrument":11,"program":0,"isDrum":true},{"pitch":43,"velocity":124,"startTime":194.0302546875,"endTime":194.2225621875,"instrument":11,"program":0,"isDrum":true},{"pitch":81,"velocity":106,"startTime":194.0302546875,"endTime":194.1103828125,"instrument":11,"program":0,"isDrum":true},{"pitch":35,"velocity":124,"startTime":194.2225621875,"endTime":194.60717718749999,"instrument":11,"program":0,"isDrum":true},{"pitch":57,"velocity":123,"startTime":194.2225621875,"endTime":194.7193565625,"instrument":11,"program":0,"isDrum":true},{"pitch":81,"velocity":113,"startTime":194.230575,"endTime":194.32672875,"instrument":11,"program":0,"isDrum":true},{"pitch":35,"velocity":120,"startTime":194.60717718749999,"endTime":194.7994846875,"instrument":11,"program":0,"isDrum":true},{"pitch":43,"velocity":120,"startTime":194.60717718749999,"endTime":194.7994846875,"instrument":11,"program":0,"isDrum":true},{"pitch":81,"velocity":114,"startTime":194.63922843749998,"endTime":194.71134375,"instrument":11,"program":0,"isDrum":true},{"pitch":35,"velocity":123,"startTime":194.7994846875,"endTime":194.9917921875,"instrument":11,"program":0,"isDrum":true},{"pitch":43,"velocity":123,"startTime":194.7994846875,"endTime":194.9917921875,"instrument":11,"program":0,"isDrum":true},{"pitch":81,"velocity":111,"startTime":194.80749749999998,"endTime":194.90365125,"instrument":11,"program":0,"isDrum":true},{"pitch":35,"velocity":124,"startTime":194.9917921875,"endTime":195.2321765625,"instrument":11,"program":0,"isDrum":true},{"pitch":49,"velocity":124,"startTime":194.9917921875,"endTime":195.4244840625,"instrument":11,"program":0,"isDrum":true},{"pitch":81,"velocity":116,"startTime":195.00781781249998,"endTime":195.0879459375,"instrument":11,"program":0,"isDrum":true},{"pitch":35,"velocity":123,"startTime":195.3764071875,"endTime":195.4485225,"instrument":11,"program":0,"isDrum":true},{"pitch":43,"velocity":123,"startTime":195.3764071875,"endTime":195.4565353125,"instrument":11,"program":0,"isDrum":true},{"pitch":81,"velocity":115,"startTime":195.41647124999997,"endTime":195.5046121875,"instrument":11,"program":0,"isDrum":true},{"pitch":35,"velocity":124,"startTime":195.5687146875,"endTime":195.6648684375,"instrument":11,"program":0,"isDrum":true},{"pitch":43,"velocity":123,"startTime":195.5687146875,"endTime":195.64083,"instrument":11,"program":0,"isDrum":true},{"pitch":81,"velocity":112,"startTime":195.6007659375,"endTime":195.6808940625,"instrument":11,"program":0,"isDrum":true},{"pitch":35,"velocity":124,"startTime":195.7610221875,"endTime":196.37800875,"instrument":11,"program":0,"isDrum":true},{"pitch":46,"velocity":123,"startTime":195.7610221875,"endTime":196.1456371875,"instrument":11,"program":0,"isDrum":true},{"pitch":81,"velocity":117,"startTime":195.77704781249997,"endTime":195.8732015625,"instrument":11,"program":0,"isDrum":true},{"pitch":35,"velocity":124,"startTime":200.7610171875,"endTime":200.8731965625,"instrument":11,"program":0,"isDrum":true},{"pitch":49,"velocity":123,"startTime":200.7610171875,"endTime":200.92127343750002,"instrument":11,"program":0,"isDrum":true},{"pitch":81,"velocity":111,"startTime":200.7770428125,"endTime":200.85717093749997,"instrument":11,"program":0,"isDrum":true},{"pitch":35,"velocity":124,"startTime":201.14563218749998,"endTime":201.32191406249999,"instrument":11,"program":0,"isDrum":true},{"pitch":52,"velocity":123,"startTime":201.14563218749998,"endTime":201.329926875,"instrument":11,"program":0,"isDrum":true},{"pitch":81,"velocity":117,"startTime":201.16967062499998,"endTime":201.2578115625,"instrument":11,"program":0,"isDrum":true},{"pitch":35,"velocity":124,"startTime":201.53024718749998,"endTime":201.64242656250002,"instrument":11,"program":0,"isDrum":true},{"pitch":49,"velocity":122,"startTime":201.53024718749998,"endTime":201.714541875,"instrument":11,"program":0,"isDrum":true},{"pitch":81,"velocity":117,"startTime":201.57031125,"endTime":201.650439375,"instrument":11,"program":0,"isDrum":true},{"pitch":35,"velocity":124,"startTime":201.91486218749998,"endTime":202.29947718749997,"instrument":11,"program":0,"isDrum":true},{"pitch":57,"velocity":123,"startTime":201.91486218749998,"endTime":202.38761812500002,"instrument":11,"program":0,"isDrum":true},{"pitch":81,"velocity":119,"startTime":201.95492625,"endTime":202.05108,"instrument":11,"program":0,"isDrum":true},{"pitch":81,"velocity":104,"startTime":202.5078103125,"endTime":202.5879384375,"instrument":11,"program":0,"isDrum":true},{"pitch":81,"velocity":108,"startTime":202.68409218749997,"endTime":202.7642203125,"instrument":11,"program":0,"isDrum":true},{"pitch":81,"velocity":113,"startTime":202.8844125,"endTime":202.95652781249998,"instrument":11,"program":0,"isDrum":true},{"pitch":81,"velocity":116,"startTime":203.06870718749997,"endTime":203.14883531249998,"instrument":11,"program":0,"isDrum":true},{"pitch":81,"velocity":118,"startTime":203.253001875,"endTime":203.34114281249998,"instrument":11,"program":0,"isDrum":true},{"pitch":81,"velocity":120,"startTime":203.461335,"endTime":203.55748875,"instrument":11,"program":0,"isDrum":true},{"pitch":35,"velocity":122,"startTime":203.6456296875,"endTime":203.72575781249998,"instrument":11,"program":0,"isDrum":true},{"pitch":49,"velocity":123,"startTime":203.6456296875,"endTime":203.71774499999998,"instrument":11,"program":0,"isDrum":true},{"pitch":35,"velocity":124,"startTime":203.8379371875,"endTime":203.926078125,"instrument":11,"program":0,"isDrum":true},{"pitch":57,"velocity":122,"startTime":203.8379371875,"endTime":203.926078125,"instrument":11,"program":0,"isDrum":true},{"pitch":35,"velocity":124,"startTime":204.0302446875,"endTime":204.42287249999998,"instrument":11,"program":0,"isDrum":true},{"pitch":49,"velocity":123,"startTime":204.0302446875,"endTime":204.42287249999998,"instrument":11,"program":0,"isDrum":true},{"pitch":35,"velocity":124,"startTime":204.60716718749998,"endTime":204.77543624999998,"instrument":11,"program":0,"isDrum":true},{"pitch":43,"velocity":124,"startTime":204.60716718749998,"endTime":204.791461875,"instrument":11,"program":0,"isDrum":true},{"pitch":81,"velocity":122,"startTime":204.63120562499998,"endTime":204.7353721875,"instrument":11,"program":0,"isDrum":true},{"pitch":35,"velocity":124,"startTime":204.99178218749998,"endTime":205.13601281249998,"instrument":11,"program":0,"isDrum":true},{"pitch":43,"velocity":124,"startTime":204.99178218749998,"endTime":205.16005124999998,"instrument":11,"program":0,"isDrum":true},{"pitch":81,"velocity":118,"startTime":205.0238334375,"endTime":205.1199871875,"instrument":11,"program":0,"isDrum":true},{"pitch":35,"velocity":124,"startTime":205.37639718749998,"endTime":205.5366534375,"instrument":11,"program":0,"isDrum":true},{"pitch":43,"velocity":124,"startTime":205.37639718749998,"endTime":205.52864062499998,"instrument":11,"program":0,"isDrum":true},{"pitch":81,"velocity":116,"startTime":205.40043562499997,"endTime":205.50460218749998,"instrument":11,"program":0,"isDrum":true},{"pitch":35,"velocity":124,"startTime":205.76101218749997,"endTime":206.60235749999998,"instrument":11,"program":0,"isDrum":true},{"pitch":49,"velocity":123,"startTime":205.76101218749997,"endTime":206.57030625000002,"instrument":11,"program":0,"isDrum":true},{"pitch":81,"velocity":118,"startTime":205.7930634375,"endTime":205.88921718749998,"instrument":11,"program":0,"isDrum":true},{"pitch":81,"velocity":100,"startTime":206.31389624999997,"endTime":206.4020371875,"instrument":11,"program":0,"isDrum":true},{"pitch":81,"velocity":107,"startTime":206.522229375,"endTime":206.60235749999998,"instrument":11,"program":0,"isDrum":true},{"pitch":81,"velocity":114,"startTime":206.7065240625,"endTime":206.77863937499998,"instrument":11,"program":0,"isDrum":true},{"pitch":81,"velocity":118,"startTime":206.8988315625,"endTime":206.97094687499998,"instrument":11,"program":0,"isDrum":true},{"pitch":81,"velocity":118,"startTime":207.0911390625,"endTime":207.1712671875,"instrument":11,"program":0,"isDrum":true},{"pitch":81,"velocity":119,"startTime":207.29145937500002,"endTime":207.387613125,"instrument":11,"program":0,"isDrum":true},{"pitch":35,"velocity":124,"startTime":207.49177968749999,"endTime":207.579920625,"instrument":11,"program":0,"isDrum":true},{"pitch":43,"velocity":123,"startTime":207.49177968749999,"endTime":207.579920625,"instrument":11,"program":0,"isDrum":true},{"pitch":35,"velocity":124,"startTime":207.68408718749998,"endTime":207.78024093749997,"instrument":11,"program":0,"isDrum":true},{"pitch":43,"velocity":124,"startTime":207.68408718749998,"endTime":207.78024093749997,"instrument":11,"program":0,"isDrum":true},{"pitch":35,"velocity":124,"startTime":207.87639468749998,"endTime":208.11677906249997,"instrument":11,"program":0,"isDrum":true},{"pitch":43,"velocity":124,"startTime":207.87639468749998,"endTime":208.11677906249997,"instrument":11,"program":0,"isDrum":true},{"pitch":81,"velocity":102,"startTime":208.1328046875,"endTime":208.2289584375,"instrument":11,"program":0,"isDrum":true},{"pitch":81,"velocity":106,"startTime":208.30107375,"endTime":208.381201875,"instrument":11,"program":0,"isDrum":true},{"pitch":81,"velocity":117,"startTime":208.4853684375,"endTime":208.573509375,"instrument":11,"program":0,"isDrum":true},{"pitch":81,"velocity":118,"startTime":208.6776759375,"endTime":208.7578040625,"instrument":11,"program":0,"isDrum":true},{"pitch":81,"velocity":121,"startTime":208.8699834375,"endTime":208.9501115625,"instrument":11,"program":0,"isDrum":true},{"pitch":35,"velocity":123,"startTime":209.03023968749997,"endTime":209.1103678125,"instrument":11,"program":0,"isDrum":true},{"pitch":43,"velocity":124,"startTime":209.03023968749997,"endTime":209.11838062500001,"instrument":11,"program":0,"isDrum":true},{"pitch":35,"velocity":124,"startTime":209.22254718749997,"endTime":209.31870093749998,"instrument":11,"program":0,"isDrum":true},{"pitch":43,"velocity":124,"startTime":209.22254718749997,"endTime":209.31870093749998,"instrument":11,"program":0,"isDrum":true},{"pitch":35,"velocity":124,"startTime":209.41485468749997,"endTime":209.5751109375,"instrument":11,"program":0,"isDrum":true},{"pitch":43,"velocity":124,"startTime":209.41485468749997,"endTime":209.58312374999997,"instrument":11,"program":0,"isDrum":true},{"pitch":81,"velocity":104,"startTime":209.6552390625,"endTime":209.74338,"instrument":11,"program":0,"isDrum":true},{"pitch":81,"velocity":110,"startTime":209.8315209375,"endTime":209.91966187499997,"instrument":11,"program":0,"isDrum":true},{"pitch":81,"velocity":118,"startTime":210.0238284375,"endTime":210.09594375,"instrument":11,"program":0,"isDrum":true},{"pitch":81,"velocity":118,"startTime":210.20011031250002,"endTime":210.272225625,"instrument":11,"program":0,"isDrum":true},{"pitch":81,"velocity":121,"startTime":210.3924178125,"endTime":210.4885715625,"instrument":11,"program":0,"isDrum":true},{"pitch":35,"velocity":123,"startTime":213.2610046875,"endTime":213.48536343749998,"instrument":11,"program":0,"isDrum":true},{"pitch":43,"velocity":124,"startTime":213.2610046875,"endTime":213.48536343749998,"instrument":11,"program":0,"isDrum":true},{"pitch":81,"velocity":118,"startTime":213.2610046875,"endTime":213.35715843749998,"instrument":11,"program":0,"isDrum":true},{"pitch":35,"velocity":124,"startTime":213.6456196875,"endTime":213.88600406249998,"instrument":11,"program":0,"isDrum":true},{"pitch":43,"velocity":124,"startTime":213.6456196875,"endTime":213.84593999999998,"instrument":11,"program":0,"isDrum":true},{"pitch":45,"velocity":124,"startTime":213.6456196875,"endTime":213.87799125,"instrument":11,"program":0,"isDrum":true},{"pitch":81,"velocity":121,"startTime":213.6536325,"endTime":213.7577990625,"instrument":11,"program":0,"isDrum":true},{"pitch":35,"velocity":124,"startTime":214.03023468749998,"endTime":214.24658062499998,"instrument":11,"program":0,"isDrum":true},{"pitch":45,"velocity":124,"startTime":214.03023468749998,"endTime":214.25459343749998,"instrument":11,"program":0,"isDrum":true},{"pitch":81,"velocity":121,"startTime":214.0462603125,"endTime":214.15042687499997,"instrument":11,"program":0,"isDrum":true},{"pitch":35,"velocity":124,"startTime":214.41484968749998,"endTime":214.60715718749998,"instrument":11,"program":0,"isDrum":true},{"pitch":43,"velocity":124,"startTime":214.41484968749998,"endTime":214.61516999999998,"instrument":11,"program":0,"isDrum":true},{"pitch":81,"velocity":119,"startTime":214.41484968749998,"endTime":214.52702906250002,"instrument":11,"program":0,"isDrum":true},{"pitch":35,"velocity":124,"startTime":214.79946468749998,"endTime":214.99177218749998,"instrument":11,"program":0,"isDrum":true},{"pitch":45,"velocity":124,"startTime":214.79946468749998,"endTime":214.999785,"instrument":11,"program":0,"isDrum":true},{"pitch":81,"velocity":120,"startTime":214.79946468749998,"endTime":214.919656875,"instrument":11,"program":0,"isDrum":true},{"pitch":35,"velocity":124,"startTime":215.18407968749997,"endTime":215.4084384375,"instrument":11,"program":0,"isDrum":true},{"pitch":43,"velocity":124,"startTime":215.18407968749997,"endTime":215.3443359375,"instrument":11,"program":0,"isDrum":true},{"pitch":81,"velocity":120,"startTime":215.2001053125,"endTime":215.3202975,"instrument":11,"program":0,"isDrum":true},{"pitch":81,"velocity":120,"startTime":215.560681875,"endTime":215.7049125,"instrument":11,"program":0,"isDrum":true},{"pitch":35,"velocity":124,"startTime":215.56869468749997,"endTime":215.8090790625,"instrument":11,"program":0,"isDrum":true},{"pitch":49,"velocity":123,"startTime":215.56869468749997,"endTime":215.817091875,"instrument":11,"program":0,"isDrum":true},{"pitch":81,"velocity":103,"startTime":217.53183375,"endTime":217.62798750000002,"instrument":11,"program":0,"isDrum":true},{"pitch":81,"velocity":103,"startTime":217.70811562499998,"endTime":217.79625656250002,"instrument":11,"program":0,"isDrum":true},{"pitch":81,"velocity":114,"startTime":217.9084359375,"endTime":217.996576875,"instrument":11,"program":0,"isDrum":true},{"pitch":81,"velocity":117,"startTime":218.1007434375,"endTime":218.188884375,"instrument":11,"program":0,"isDrum":true},{"pitch":81,"velocity":117,"startTime":218.2930509375,"endTime":218.37317906250001,"instrument":11,"program":0,"isDrum":true},{"pitch":81,"velocity":118,"startTime":218.4853584375,"endTime":218.58151218749998,"instrument":11,"program":0,"isDrum":true},{"pitch":81,"velocity":120,"startTime":218.68567875,"endTime":218.7818325,"instrument":11,"program":0,"isDrum":true},{"pitch":35,"velocity":123,"startTime":219.41484468749996,"endTime":219.9597159375,"instrument":11,"program":0,"isDrum":true},{"pitch":49,"velocity":123,"startTime":219.41484468749996,"endTime":219.9597159375,"instrument":11,"program":0,"isDrum":true},{"pitch":81,"velocity":120,"startTime":219.4468959375,"endTime":219.5430496875,"instrument":11,"program":0,"isDrum":true},{"pitch":81,"velocity":106,"startTime":219.8074725,"endTime":219.91965187499997,"instrument":11,"program":0,"isDrum":true},{"pitch":35,"velocity":119,"startTime":219.9917671875,"endTime":220.1840746875,"instrument":11,"program":0,"isDrum":true},{"pitch":57,"velocity":119,"startTime":219.9917671875,"endTime":220.1840746875,"instrument":11,"program":0,"isDrum":true},{"pitch":35,"velocity":122,"startTime":220.1840746875,"endTime":220.37638218749998,"instrument":11,"program":0,"isDrum":true},{"pitch":52,"velocity":124,"startTime":220.1840746875,"endTime":220.76099718749998,"instrument":11,"program":0,"isDrum":true},{"pitch":81,"velocity":117,"startTime":220.19208749999999,"endTime":220.28824125,"instrument":11,"program":0,"isDrum":true},{"pitch":81,"velocity":116,"startTime":220.61676656249998,"endTime":220.6968946875,"instrument":11,"program":0,"isDrum":true},{"pitch":35,"velocity":124,"startTime":220.95330468749998,"endTime":221.24977875,"instrument":11,"program":0,"isDrum":true},{"pitch":55,"velocity":128,"startTime":220.95330468749998,"endTime":221.24977875,"instrument":11,"program":0,"isDrum":true},{"pitch":81,"velocity":118,"startTime":220.9853559375,"endTime":221.0815096875,"instrument":11,"program":0,"isDrum":true},{"pitch":35,"velocity":123,"startTime":221.33791968749998,"endTime":221.5943296875,"instrument":11,"program":0,"isDrum":true},{"pitch":49,"velocity":123,"startTime":221.33791968749998,"endTime":221.5622784375,"instrument":11,"program":0,"isDrum":true},{"pitch":81,"velocity":116,"startTime":221.36195812499997,"endTime":221.458111875,"instrument":11,"program":0,"isDrum":true},{"pitch":35,"velocity":124,"startTime":221.72253468749997,"endTime":222.37958531249998,"instrument":11,"program":0,"isDrum":true},{"pitch":57,"velocity":123,"startTime":221.72253468749997,"endTime":222.3475340625,"instrument":11,"program":0,"isDrum":true},{"pitch":81,"velocity":119,"startTime":221.74657312499997,"endTime":221.84272687499998,"instrument":11,"program":0,"isDrum":true},{"pitch":81,"velocity":118,"startTime":222.1552265625,"endTime":222.2674059375,"instrument":11,"program":0,"isDrum":true},{"pitch":35,"velocity":124,"startTime":222.49176468749997,"endTime":222.772213125,"instrument":11,"program":0,"isDrum":true},{"pitch":49,"velocity":123,"startTime":222.49176468749997,"endTime":223.86996843749998,"instrument":11,"program":0,"isDrum":true},{"pitch":81,"velocity":117,"startTime":222.5398415625,"endTime":222.63599531249997,"instrument":11,"program":0,"isDrum":true},{"pitch":35,"velocity":123,"startTime":222.87637968749996,"endTime":223.10875125,"instrument":11,"program":0,"isDrum":true},{"pitch":81,"velocity":115,"startTime":222.900418125,"endTime":223.0125975,"instrument":11,"program":0,"isDrum":true},{"pitch":35,"velocity":123,"startTime":223.2609946875,"endTime":223.54945593749997,"instrument":11,"program":0,"isDrum":true},{"pitch":81,"velocity":117,"startTime":223.2690075,"endTime":223.38118687499997,"instrument":11,"program":0,"isDrum":true},{"pitch":35,"velocity":123,"startTime":223.64560968749998,"endTime":223.894006875,"instrument":11,"program":0,"isDrum":true},{"pitch":81,"velocity":116,"startTime":223.64560968749998,"endTime":223.74977625,"instrument":11,"program":0,"isDrum":true},{"pitch":81,"velocity":107,"startTime":224.01419906249998,"endTime":224.12637843749997,"instrument":11,"program":0,"isDrum":true},{"pitch":35,"velocity":124,"startTime":224.03022468749998,"endTime":224.278621875,"instrument":11,"program":0,"isDrum":true},{"pitch":57,"velocity":123,"startTime":224.03022468749998,"endTime":225.41644125000002,"instrument":11,"program":0,"isDrum":true},{"pitch":35,"velocity":123,"startTime":224.41483968749998,"endTime":224.64721125,"instrument":11,"program":0,"isDrum":true},{"pitch":81,"velocity":110,"startTime":224.41483968749998,"endTime":224.51099343749996,"instrument":11,"program":0,"isDrum":true},{"pitch":35,"velocity":124,"startTime":224.79945468749997,"endTime":225.0718903125,"instrument":11,"program":0,"isDrum":true},{"pitch":81,"velocity":111,"startTime":224.79945468749997,"endTime":224.8956084375,"instrument":11,"program":0,"isDrum":true},{"pitch":35,"velocity":123,"startTime":225.18406968749997,"endTime":225.4484925,"instrument":11,"program":0,"isDrum":true},{"pitch":81,"velocity":112,"startTime":225.18406968749997,"endTime":225.28022343749998,"instrument":11,"program":0,"isDrum":true},{"pitch":81,"velocity":113,"startTime":225.5526590625,"endTime":225.64881281249998,"instrument":11,"program":0,"isDrum":true},{"pitch":35,"velocity":123,"startTime":225.56868468749997,"endTime":225.84112031249998,"instrument":11,"program":0,"isDrum":true},{"pitch":49,"velocity":123,"startTime":225.56868468749997,"endTime":227.01099093749997,"instrument":11,"program":0,"isDrum":true},{"pitch":35,"velocity":122,"startTime":225.95329968749996,"endTime":226.22573531249998,"instrument":11,"program":0,"isDrum":true},{"pitch":81,"velocity":112,"startTime":225.95329968749996,"endTime":226.04945343749998,"instrument":11,"program":0,"isDrum":true},{"pitch":35,"velocity":123,"startTime":226.3379146875,"endTime":226.6103503125,"instrument":11,"program":0,"isDrum":true},{"pitch":81,"velocity":111,"startTime":226.3379146875,"endTime":226.43406843749997,"instrument":11,"program":0,"isDrum":true},{"pitch":35,"velocity":123,"startTime":226.72252968749999,"endTime":227.01099093749997,"instrument":11,"program":0,"isDrum":true},{"pitch":81,"velocity":111,"startTime":226.72252968749999,"endTime":226.81868343749997,"instrument":11,"program":0,"isDrum":true},{"pitch":81,"velocity":115,"startTime":227.067080625,"endTime":227.163234375,"instrument":11,"program":0,"isDrum":true},{"pitch":35,"velocity":124,"startTime":227.10714468749998,"endTime":227.3635546875,"instrument":11,"program":0,"isDrum":true},{"pitch":49,"velocity":124,"startTime":227.10714468749998,"endTime":228.219676875,"instrument":11,"program":0,"isDrum":true},{"pitch":81,"velocity":102,"startTime":227.2193240625,"endTime":227.22733687499996,"instrument":11,"program":0,"isDrum":true},{"pitch":81,"velocity":112,"startTime":227.32349062499998,"endTime":227.387593125,"instrument":11,"program":0,"isDrum":true},{"pitch":81,"velocity":105,"startTime":227.4597084375,"endTime":227.46772124999998,"instrument":11,"program":0,"isDrum":true},{"pitch":81,"velocity":115,"startTime":227.579900625,"endTime":227.611951875,"instrument":11,"program":0,"isDrum":true},{"pitch":40,"velocity":119,"startTime":228.07763156250002,"endTime":228.1263328125,"instrument":11,"program":0,"isDrum":true},{"pitch":40,"velocity":122,"startTime":228.2075015625,"endTime":228.2562028125,"instrument":11,"program":0,"isDrum":true},{"pitch":45,"velocity":122,"startTime":228.3373715625,"endTime":228.3860728125,"instrument":11,"program":0,"isDrum":true},{"pitch":35,"velocity":121,"startTime":228.4672415625,"endTime":228.6295790625,"instrument":11,"program":0,"isDrum":true},{"pitch":49,"velocity":122,"startTime":228.4672415625,"endTime":232.41610125,"instrument":11,"program":0,"isDrum":true},{"pitch":35,"velocity":120,"startTime":228.72698156250001,"endTime":229.128766875,"instrument":11,"program":0,"isDrum":true},{"pitch":40,"velocity":121,"startTime":228.8568515625,"endTime":229.518376875,"instrument":11,"program":0,"isDrum":true},{"pitch":42,"velocity":121,"startTime":228.8568515625,"endTime":229.323571875,"instrument":11,"program":0,"isDrum":true},{"pitch":51,"velocity":122,"startTime":228.8568515625,"endTime":229.055715,"instrument":11,"program":0,"isDrum":true},{"pitch":35,"velocity":121,"startTime":229.2464615625,"endTime":229.42909125,"instrument":11,"program":0,"isDrum":true},{"pitch":51,"velocity":122,"startTime":229.2464615625,"endTime":229.437208125,"instrument":11,"program":0,"isDrum":true},{"pitch":35,"velocity":120,"startTime":229.5062015625,"endTime":229.9282790625,"instrument":11,"program":0,"isDrum":true},{"pitch":40,"velocity":121,"startTime":229.6360715625,"endTime":230.3219475,"instrument":11,"program":0,"isDrum":true},{"pitch":42,"velocity":121,"startTime":229.6360715625,"endTime":230.1636684375,"instrument":11,"program":0,"isDrum":true},{"pitch":51,"velocity":121,"startTime":229.6360715625,"endTime":229.834935,"instrument":11,"program":0,"isDrum":true},{"pitch":35,"velocity":120,"startTime":230.0256815625,"endTime":230.20425281250002,"instrument":11,"program":0,"isDrum":true},{"pitch":51,"velocity":122,"startTime":230.0256815625,"endTime":230.2529540625,"instrument":11,"program":0,"isDrum":true},{"pitch":35,"velocity":121,"startTime":230.2854215625,"endTime":230.7115575,"instrument":11,"program":0,"isDrum":true},{"pitch":40,"velocity":123,"startTime":230.41529156250002,"endTime":231.08493375,"instrument":11,"program":0,"isDrum":true},{"pitch":42,"velocity":121,"startTime":230.41529156250002,"endTime":230.9834728125,"instrument":11,"program":0,"isDrum":true},{"pitch":51,"velocity":122,"startTime":230.41529156250002,"endTime":230.638505625,"instrument":11,"program":0,"isDrum":true},{"pitch":35,"velocity":121,"startTime":230.8049015625,"endTime":230.963180625,"instrument":11,"program":0,"isDrum":true},{"pitch":51,"velocity":121,"startTime":230.8049015625,"endTime":231.0159403125,"instrument":11,"program":0,"isDrum":true},{"pitch":35,"velocity":121,"startTime":231.06464156250001,"endTime":231.2513296875,"instrument":11,"program":0,"isDrum":true},{"pitch":40,"velocity":123,"startTime":231.1945115625,"endTime":231.86415375,"instrument":11,"program":0,"isDrum":true},{"pitch":42,"velocity":121,"startTime":231.1945115625,"endTime":231.7383421875,"instrument":11,"program":0,"isDrum":true},{"pitch":51,"velocity":122,"startTime":231.1945115625,"endTime":231.4380178125,"instrument":11,"program":0,"isDrum":true},{"pitch":35,"velocity":120,"startTime":231.4542515625,"endTime":231.523245,"instrument":11,"program":0,"isDrum":true},{"pitch":35,"velocity":122,"startTime":231.5841215625,"endTime":231.791101875,"instrument":11,"program":0,"isDrum":true},{"pitch":51,"velocity":122,"startTime":231.5841215625,"endTime":231.80327718750002,"instrument":11,"program":0,"isDrum":true},{"pitch":35,"velocity":122,"startTime":231.8438615625,"endTime":232.26999750000002,"instrument":11,"program":0,"isDrum":true},{"pitch":40,"velocity":124,"startTime":231.9737315625,"endTime":232.6555490625,"instrument":11,"program":0,"isDrum":true},{"pitch":42,"velocity":122,"startTime":231.9737315625,"endTime":232.5946725,"instrument":11,"program":0,"isDrum":true},{"pitch":51,"velocity":122,"startTime":231.9737315625,"endTime":232.1928871875,"instrument":11,"program":0,"isDrum":true},{"pitch":35,"velocity":121,"startTime":232.3633415625,"endTime":232.5094453125,"instrument":11,"program":0,"isDrum":true},{"pitch":51,"velocity":122,"startTime":232.3633415625,"endTime":232.6068478125,"instrument":11,"program":0,"isDrum":true},{"pitch":35,"velocity":123,"startTime":232.6230815625,"endTime":233.041100625,"instrument":11,"program":0,"isDrum":true},{"pitch":40,"velocity":123,"startTime":232.75295156250002,"endTime":233.4388275,"instrument":11,"program":0,"isDrum":true},{"pitch":42,"velocity":121,"startTime":232.75295156250002,"endTime":233.317074375,"instrument":11,"program":0,"isDrum":true},{"pitch":51,"velocity":122,"startTime":232.75295156250002,"endTime":232.9842825,"instrument":11,"program":0,"isDrum":true},{"pitch":35,"velocity":121,"startTime":233.1425615625,"endTime":233.29272375,"instrument":11,"program":0,"isDrum":true},{"pitch":51,"velocity":122,"startTime":233.1425615625,"endTime":233.38606781250002,"instrument":11,"program":0,"isDrum":true},{"pitch":35,"velocity":123,"startTime":233.4023015625,"endTime":233.771619375,"instrument":11,"program":0,"isDrum":true},{"pitch":40,"velocity":123,"startTime":233.5321715625,"endTime":233.9461321875,"instrument":11,"program":0,"isDrum":true},{"pitch":42,"velocity":121,"startTime":233.5321715625,"endTime":234.144995625,"instrument":11,"program":0,"isDrum":true},{"pitch":51,"velocity":122,"startTime":233.5321715625,"endTime":233.7675609375,"instrument":11,"program":0,"isDrum":true},{"pitch":35,"velocity":121,"startTime":233.9217815625,"endTime":234.00700875,"instrument":11,"program":0,"isDrum":true},{"pitch":51,"velocity":122,"startTime":233.9217815625,"endTime":234.1490540625,"instrument":11,"program":0,"isDrum":true},{"pitch":40,"velocity":122,"startTime":234.0516515625,"endTime":234.14093718750001,"instrument":11,"program":0,"isDrum":true},{"pitch":40,"velocity":121,"startTime":234.1815215625,"endTime":234.2383396875,"instrument":11,"program":0,"isDrum":true},{"pitch":42,"velocity":121,"startTime":234.3113915625,"endTime":234.6725925,"instrument":11,"program":0,"isDrum":true},{"pitch":43,"velocity":122,"startTime":234.3113915625,"endTime":234.388501875,"instrument":11,"program":0,"isDrum":true},{"pitch":51,"velocity":123,"startTime":234.3113915625,"endTime":234.664475625,"instrument":11,"program":0,"isDrum":true},{"pitch":40,"velocity":121,"startTime":234.44126156250002,"endTime":234.4899628125,"instrument":11,"program":0,"isDrum":true},{"pitch":45,"velocity":123,"startTime":234.5711315625,"endTime":234.7091184375,"instrument":11,"program":0,"isDrum":true},{"pitch":35,"velocity":124,"startTime":234.7010015625,"endTime":234.87957281250002,"instrument":11,"program":0,"isDrum":true},{"pitch":49,"velocity":123,"startTime":234.7010015625,"endTime":235.11090375,"instrument":11,"program":0,"isDrum":true},{"pitch":35,"velocity":119,"startTime":234.9607415625,"endTime":235.3097671875,"instrument":11,"program":0,"isDrum":true},{"pitch":40,"velocity":123,"startTime":235.09061156250002,"endTime":235.7643121875,"instrument":11,"program":0,"isDrum":true},{"pitch":42,"velocity":122,"startTime":235.09061156250002,"endTime":235.5289228125,"instrument":11,"program":0,"isDrum":true},{"pitch":46,"velocity":122,"startTime":235.09061156250002,"endTime":235.30570875,"instrument":11,"program":0,"isDrum":true},{"pitch":35,"velocity":122,"startTime":235.4802215625,"endTime":235.622266875,"instrument":11,"program":0,"isDrum":true},{"pitch":46,"velocity":122,"startTime":235.4802215625,"endTime":235.8130134375,"instrument":11,"program":0,"isDrum":true},{"pitch":35,"velocity":120,"startTime":235.7399615625,"endTime":236.1214546875,"instrument":11,"program":0,"isDrum":true},{"pitch":40,"velocity":123,"startTime":235.8698315625,"endTime":236.53947375,"instrument":11,"program":0,"isDrum":true},{"pitch":42,"velocity":122,"startTime":235.8698315625,"endTime":236.25132468750002,"instrument":11,"program":0,"isDrum":true},{"pitch":46,"velocity":122,"startTime":235.8698315625,"endTime":236.0808703125,"instrument":11,"program":0,"isDrum":true},{"pitch":35,"velocity":118,"startTime":236.2594415625,"endTime":236.3974284375,"instrument":11,"program":0,"isDrum":true},{"pitch":46,"velocity":122,"startTime":236.2594415625,"endTime":236.466421875,"instrument":11,"program":0,"isDrum":true},{"pitch":35,"velocity":121,"startTime":236.5191815625,"endTime":236.89661625,"instrument":11,"program":0,"isDrum":true},{"pitch":40,"velocity":123,"startTime":236.6490515625,"endTime":237.2902846875,"instrument":11,"program":0,"isDrum":true},{"pitch":46,"velocity":123,"startTime":236.6490515625,"endTime":236.920966875,"instrument":11,"program":0,"isDrum":true},{"pitch":35,"velocity":123,"startTime":237.0386615625,"endTime":237.14012250000002,"instrument":11,"program":0,"isDrum":true},{"pitch":46,"velocity":123,"startTime":237.0386615625,"endTime":237.3146353125,"instrument":11,"program":0,"isDrum":true},{"pitch":35,"velocity":122,"startTime":237.2984015625,"endTime":237.69207,"instrument":11,"program":0,"isDrum":true},{"pitch":40,"velocity":123,"startTime":237.42827156250002,"endTime":238.0532709375,"instrument":11,"program":0,"isDrum":true},{"pitch":46,"velocity":123,"startTime":237.42827156250002,"endTime":237.7123621875,"instrument":11,"program":0,"isDrum":true},{"pitch":35,"velocity":123,"startTime":237.8178815625,"endTime":237.95181,"instrument":11,"program":0,"isDrum":true},{"pitch":46,"velocity":123,"startTime":237.8178815625,"endTime":238.10603062500002,"instrument":11,"program":0,"isDrum":true},{"pitch":35,"velocity":121,"startTime":238.0776215625,"endTime":238.4509978125,"instrument":11,"program":0,"isDrum":true},{"pitch":40,"velocity":123,"startTime":238.2074915625,"endTime":238.90554281250002,"instrument":11,"program":0,"isDrum":true},{"pitch":46,"velocity":122,"startTime":238.2074915625,"endTime":238.5159328125,"instrument":11,"program":0,"isDrum":true},{"pitch":35,"velocity":123,"startTime":238.5971015625,"endTime":238.722913125,"instrument":11,"program":0,"isDrum":true},{"pitch":46,"velocity":122,"startTime":238.5971015625,"endTime":238.90960125,"instrument":11,"program":0,"isDrum":true},{"pitch":35,"velocity":123,"startTime":238.8568415625,"endTime":239.1246984375,"instrument":11,"program":0,"isDrum":true},{"pitch":40,"velocity":123,"startTime":238.9867115625,"endTime":239.3844384375,"instrument":11,"program":0,"isDrum":true},{"pitch":46,"velocity":122,"startTime":238.9867115625,"endTime":239.3195034375,"instrument":11,"program":0,"isDrum":true},{"pitch":35,"velocity":123,"startTime":239.2464515625,"endTime":239.3113865625,"instrument":11,"program":0,"isDrum":true},{"pitch":35,"velocity":123,"startTime":239.3763215625,"endTime":239.4574903125,"instrument":11,"program":0,"isDrum":true},{"pitch":46,"velocity":122,"startTime":239.3763215625,"endTime":239.680704375,"instrument":11,"program":0,"isDrum":true},{"pitch":40,"velocity":123,"startTime":239.5061915625,"endTime":239.5711265625,"instrument":11,"program":0,"isDrum":true},{"pitch":40,"velocity":122,"startTime":239.6360615625,"endTime":239.7091134375,"instrument":11,"program":0,"isDrum":true},{"pitch":40,"velocity":122,"startTime":239.76593156250001,"endTime":239.8673925,"instrument":11,"program":0,"isDrum":true},{"pitch":46,"velocity":122,"startTime":239.76593156250001,"endTime":239.97697031250001,"instrument":11,"program":0,"isDrum":true},{"pitch":35,"velocity":123,"startTime":239.8958015625,"endTime":240.0906065625,"instrument":11,"program":0,"isDrum":true},{"pitch":40,"velocity":124,"startTime":240.0256715625,"endTime":240.1555415625,"instrument":11,"program":0,"isDrum":true},{"pitch":49,"velocity":124,"startTime":240.0256715625,"endTime":240.873885,"instrument":11,"program":0,"isDrum":true},{"pitch":40,"velocity":123,"startTime":240.6750215625,"endTime":240.7561903125,"instrument":11,"program":0,"isDrum":true},{"pitch":40,"velocity":123,"startTime":240.80489156250002,"endTime":240.89011875,"instrument":11,"program":0,"isDrum":true},{"pitch":35,"velocity":124,"startTime":240.9347615625,"endTime":241.1458003125,"instrument":11,"program":0,"isDrum":true},{"pitch":49,"velocity":122,"startTime":240.9347615625,"endTime":241.3406053125,"instrument":11,"program":0,"isDrum":true},{"pitch":35,"velocity":122,"startTime":241.1945015625,"endTime":241.5191765625,"instrument":11,"program":0,"isDrum":true},{"pitch":40,"velocity":124,"startTime":241.3243715625,"endTime":242.02648125000002,"instrument":11,"program":0,"isDrum":true},{"pitch":46,"velocity":122,"startTime":241.3243715625,"endTime":241.6409296875,"instrument":11,"program":0,"isDrum":true},{"pitch":35,"velocity":121,"startTime":241.5841115625,"endTime":241.644988125,"instrument":11,"program":0,"isDrum":true},{"pitch":35,"velocity":120,"startTime":241.7139815625,"endTime":241.9169034375,"instrument":11,"program":0,"isDrum":true},{"pitch":46,"velocity":122,"startTime":241.7139815625,"endTime":242.04271500000002,"instrument":11,"program":0,"isDrum":true},{"pitch":35,"velocity":121,"startTime":241.9737215625,"endTime":242.25375375000002,"instrument":11,"program":0,"isDrum":true},{"pitch":40,"velocity":123,"startTime":242.10359156250001,"endTime":242.7691753125,"instrument":11,"program":0,"isDrum":true},{"pitch":46,"velocity":122,"startTime":242.10359156250001,"endTime":242.440441875,"instrument":11,"program":0,"isDrum":true},{"pitch":35,"velocity":116,"startTime":242.3633315625,"endTime":242.440441875,"instrument":11,"program":0,"isDrum":true},{"pitch":35,"velocity":123,"startTime":242.49320156250002,"endTime":242.6961234375,"instrument":11,"program":0,"isDrum":true},{"pitch":46,"velocity":122,"startTime":242.49320156250002,"endTime":242.82599343750002,"instrument":11,"program":0,"isDrum":true},{"pitch":35,"velocity":121,"startTime":242.7529415625,"endTime":243.0492075,"instrument":11,"program":0,"isDrum":true},{"pitch":40,"velocity":123,"startTime":242.8828115625,"endTime":243.5565121875,"instrument":11,"program":0,"isDrum":true},{"pitch":46,"velocity":122,"startTime":242.8828115625,"endTime":243.211545,"instrument":11,"program":0,"isDrum":true},{"pitch":35,"velocity":121,"startTime":243.14255156250002,"endTime":243.2156034375,"instrument":11,"program":0,"isDrum":true},{"pitch":35,"velocity":121,"startTime":243.2724215625,"endTime":243.43070062500001,"instrument":11,"program":0,"isDrum":true},{"pitch":46,"velocity":122,"startTime":243.2724215625,"endTime":243.5970965625,"instrument":11,"program":0,"isDrum":true},{"pitch":35,"velocity":122,"startTime":243.5321615625,"endTime":243.657973125,"instrument":11,"program":0,"isDrum":true},{"pitch":40,"velocity":123,"startTime":243.6620315625,"endTime":243.75943406250002,"instrument":11,"program":0,"isDrum":true},{"pitch":46,"velocity":122,"startTime":243.6620315625,"endTime":244.0191740625,"instrument":11,"program":0,"isDrum":true},{"pitch":40,"velocity":122,"startTime":243.79190156250002,"endTime":243.885245625,"instrument":11,"program":0,"isDrum":true},{"pitch":40,"velocity":121,"startTime":243.9217715625,"endTime":244.3438490625,"instrument":11,"program":0,"isDrum":true},{"pitch":35,"velocity":123,"startTime":244.0516415625,"endTime":244.26673875,"instrument":11,"program":0,"isDrum":true},{"pitch":49,"velocity":122,"startTime":244.0516415625,"endTime":244.4006671875,"instrument":11,"program":0,"isDrum":true},{"pitch":35,"velocity":121,"startTime":244.3113815625,"endTime":244.59141375000002,"instrument":11,"program":0,"isDrum":true},{"pitch":40,"velocity":124,"startTime":244.4412515625,"endTime":245.1271275,"instrument":11,"program":0,"isDrum":true},{"pitch":46,"velocity":123,"startTime":244.4412515625,"endTime":244.7740434375,"instrument":11,"program":0,"isDrum":true},{"pitch":35,"velocity":120,"startTime":244.7009915625,"endTime":244.76998500000002,"instrument":11,"program":0,"isDrum":true},{"pitch":35,"velocity":121,"startTime":244.8308615625,"endTime":244.989140625,"instrument":11,"program":0,"isDrum":true},{"pitch":46,"velocity":122,"startTime":244.8308615625,"endTime":245.1555365625,"instrument":11,"program":0,"isDrum":true},{"pitch":35,"velocity":123,"startTime":245.0906015625,"endTime":245.297581875,"instrument":11,"program":0,"isDrum":true},{"pitch":40,"velocity":123,"startTime":245.2204715625,"endTime":245.362516875,"instrument":11,"program":0,"isDrum":true},{"pitch":46,"velocity":123,"startTime":245.2204715625,"endTime":245.557321875,"instrument":11,"program":0,"isDrum":true},{"pitch":43,"velocity":121,"startTime":245.3503415625,"endTime":245.50050375,"instrument":11,"program":0,"isDrum":true},{"pitch":45,"velocity":121,"startTime":245.48021156250002,"endTime":245.7643021875,"instrument":11,"program":0,"isDrum":true},{"pitch":35,"velocity":124,"startTime":245.6100815625,"endTime":245.79676968750002,"instrument":11,"program":0,"isDrum":true},{"pitch":49,"velocity":122,"startTime":245.6100815625,"endTime":245.9834578125,"instrument":11,"program":0,"isDrum":true},{"pitch":35,"velocity":123,"startTime":245.8698215625,"endTime":246.060568125,"instrument":11,"program":0,"isDrum":true},{"pitch":40,"velocity":124,"startTime":245.9996915625,"endTime":246.71803500000001,"instrument":11,"program":0,"isDrum":true},{"pitch":46,"velocity":123,"startTime":245.9996915625,"endTime":246.3324834375,"instrument":11,"program":0,"isDrum":true},{"pitch":35,"velocity":121,"startTime":246.2594315625,"endTime":246.336541875,"instrument":11,"program":0,"isDrum":true},{"pitch":35,"velocity":121,"startTime":246.3893015625,"endTime":246.5759896875,"instrument":11,"program":0,"isDrum":true},{"pitch":46,"velocity":122,"startTime":246.3893015625,"endTime":246.661216875,"instrument":11,"program":0,"isDrum":true},{"pitch":35,"velocity":123,"startTime":246.6490415625,"endTime":246.8276128125,"instrument":11,"program":0,"isDrum":true},{"pitch":40,"velocity":124,"startTime":246.7789115625,"endTime":247.43232,"instrument":11,"program":0,"isDrum":true},{"pitch":46,"velocity":122,"startTime":246.7789115625,"endTime":247.099528125,"instrument":11,"program":0,"isDrum":true},{"pitch":35,"velocity":121,"startTime":247.0386515625,"endTime":247.1198203125,"instrument":11,"program":0,"isDrum":true},{"pitch":35,"velocity":122,"startTime":247.16852156250002,"endTime":247.367385,"instrument":11,"program":0,"isDrum":true},{"pitch":49,"velocity":123,"startTime":247.16852156250002,"endTime":247.5297225,"instrument":11,"program":0,"isDrum":true},{"pitch":35,"velocity":121,"startTime":247.4282615625,"endTime":247.6149496875,"instrument":11,"program":0,"isDrum":true},{"pitch":40,"velocity":123,"startTime":247.5581315625,"endTime":248.2642996875,"instrument":11,"program":0,"isDrum":true},{"pitch":46,"velocity":122,"startTime":247.5581315625,"endTime":247.8259884375,"instrument":11,"program":0,"isDrum":true},{"pitch":35,"velocity":121,"startTime":247.81787156250002,"endTime":247.8990403125,"instrument":11,"program":0,"isDrum":true},{"pitch":35,"velocity":121,"startTime":247.9477415625,"endTime":248.1181959375,"instrument":11,"program":0,"isDrum":true},{"pitch":46,"velocity":122,"startTime":247.9477415625,"endTime":248.22371531250002,"instrument":11,"program":0,"isDrum":true},{"pitch":35,"velocity":121,"startTime":248.2074815625,"endTime":248.48751375,"instrument":11,"program":0,"isDrum":true},{"pitch":40,"velocity":124,"startTime":248.3373515625,"endTime":249.0191690625,"instrument":11,"program":0,"isDrum":true},{"pitch":46,"velocity":122,"startTime":248.3373515625,"endTime":248.6539096875,"instrument":11,"program":0,"isDrum":true},{"pitch":35,"velocity":122,"startTime":248.5970915625,"endTime":248.674201875,"instrument":11,"program":0,"isDrum":true},{"pitch":35,"velocity":121,"startTime":248.7269615625,"endTime":248.9217665625,"instrument":11,"program":0,"isDrum":true},{"pitch":46,"velocity":122,"startTime":248.7269615625,"endTime":248.99076,"instrument":11,"program":0,"isDrum":true},{"pitch":35,"velocity":121,"startTime":248.9867015625,"endTime":249.2626753125,"instrument":11,"program":0,"isDrum":true},{"pitch":40,"velocity":123,"startTime":249.1165715625,"endTime":249.8065059375,"instrument":11,"program":0,"isDrum":true},{"pitch":46,"velocity":122,"startTime":249.1165715625,"endTime":249.40066218750002,"instrument":11,"program":0,"isDrum":true},{"pitch":35,"velocity":120,"startTime":249.3763115625,"endTime":249.4574803125,"instrument":11,"program":0,"isDrum":true},{"pitch":35,"velocity":121,"startTime":249.50618156250002,"endTime":249.6725775,"instrument":11,"program":0,"isDrum":true},{"pitch":46,"velocity":122,"startTime":249.50618156250002,"endTime":249.78621375,"instrument":11,"program":0,"isDrum":true},{"pitch":35,"velocity":121,"startTime":249.7659215625,"endTime":250.054070625,"instrument":11,"program":0,"isDrum":true},{"pitch":40,"velocity":124,"startTime":249.8957915625,"endTime":250.573550625,"instrument":11,"program":0,"isDrum":true},{"pitch":46,"velocity":122,"startTime":249.8957915625,"endTime":250.1961159375,"instrument":11,"program":0,"isDrum":true},{"pitch":35,"velocity":121,"startTime":250.15553156250002,"endTime":250.2367003125,"instrument":11,"program":0,"isDrum":true},{"pitch":35,"velocity":123,"startTime":250.2854015625,"endTime":250.459914375,"instrument":11,"program":0,"isDrum":true},{"pitch":46,"velocity":122,"startTime":250.2854015625,"endTime":250.56543375,"instrument":11,"program":0,"isDrum":true},{"pitch":35,"velocity":121,"startTime":250.54514156250002,"endTime":250.8129984375,"instrument":11,"program":0,"isDrum":true},{"pitch":40,"velocity":123,"startTime":250.6750115625,"endTime":251.369004375,"instrument":11,"program":0,"isDrum":true},{"pitch":46,"velocity":122,"startTime":250.6750115625,"endTime":250.963160625,"instrument":11,"program":0,"isDrum":true},{"pitch":35,"velocity":123,"startTime":250.9347515625,"endTime":251.01592031250001,"instrument":11,"program":0,"isDrum":true},{"pitch":35,"velocity":122,"startTime":251.0646215625,"endTime":251.222900625,"instrument":11,"program":0,"isDrum":true},{"pitch":46,"velocity":121,"startTime":251.0646215625,"endTime":251.33247843750001,"instrument":11,"program":0,"isDrum":true},{"pitch":35,"velocity":123,"startTime":251.3243615625,"endTime":251.515108125,"instrument":11,"program":0,"isDrum":true},{"pitch":40,"velocity":123,"startTime":251.4542315625,"endTime":252.164458125,"instrument":11,"program":0,"isDrum":true},{"pitch":46,"velocity":121,"startTime":251.4542315625,"endTime":251.79919875000002,"instrument":11,"program":0,"isDrum":true},{"pitch":35,"velocity":123,"startTime":251.7139715625,"endTime":251.7951403125,"instrument":11,"program":0,"isDrum":true},{"pitch":35,"velocity":124,"startTime":251.84384156250002,"endTime":252.0751725,"instrument":11,"program":0,"isDrum":true},{"pitch":49,"velocity":123,"startTime":251.84384156250002,"endTime":252.5337759375,"instrument":11,"program":0,"isDrum":true},{"pitch":35,"velocity":123,"startTime":252.1035815625,"endTime":252.2740359375,"instrument":11,"program":0,"isDrum":true},{"pitch":40,"velocity":123,"startTime":252.2334515625,"endTime":252.951795,"instrument":11,"program":0,"isDrum":true},{"pitch":46,"velocity":122,"startTime":252.2334515625,"endTime":252.52160062500002,"instrument":11,"program":0,"isDrum":true},{"pitch":35,"velocity":124,"startTime":252.49319156250002,"endTime":252.878743125,"instrument":11,"program":0,"isDrum":true},{"pitch":49,"velocity":123,"startTime":252.6230615625,"endTime":253.26023625,"instrument":11,"program":0,"isDrum":true},{"pitch":35,"velocity":123,"startTime":252.8828015625,"endTime":253.19935968750002,"instrument":11,"program":0,"isDrum":true},{"pitch":40,"velocity":123,"startTime":253.0126715625,"endTime":253.7513071875,"instrument":11,"program":0,"isDrum":true},{"pitch":46,"velocity":122,"startTime":253.0126715625,"endTime":253.24806093750001,"instrument":11,"program":0,"isDrum":true},{"pitch":35,"velocity":121,"startTime":253.2724115625,"endTime":253.35358031250001,"instrument":11,"program":0,"isDrum":true},{"pitch":35,"velocity":122,"startTime":253.4022815625,"endTime":253.6376709375,"instrument":11,"program":0,"isDrum":true},{"pitch":49,"velocity":123,"startTime":253.4022815625,"endTime":254.0597484375,"instrument":11,"program":0,"isDrum":true},{"pitch":35,"velocity":124,"startTime":253.6620215625,"endTime":253.7918915625,"instrument":11,"program":0,"isDrum":true},{"pitch":40,"velocity":124,"startTime":253.7918915625,"endTime":253.98669656250001,"instrument":11,"program":0,"isDrum":true},{"pitch":46,"velocity":122,"startTime":253.7918915625,"endTime":254.0272809375,"instrument":11,"program":0,"isDrum":true},{"pitch":35,"velocity":123,"startTime":254.1815015625,"endTime":254.3113715625,"instrument":11,"program":0,"isDrum":true},{"pitch":49,"velocity":123,"startTime":254.1815015625,"endTime":254.5792284375,"instrument":11,"program":0,"isDrum":true},{"pitch":35,"velocity":123,"startTime":254.4412415625,"endTime":254.5305271875,"instrument":11,"program":0,"isDrum":true},{"pitch":40,"velocity":124,"startTime":254.5711115625,"endTime":254.7659165625,"instrument":11,"program":0,"isDrum":true},{"pitch":46,"velocity":122,"startTime":254.5711115625,"endTime":254.68068937500001,"instrument":11,"program":0,"isDrum":true},{"pitch":35,"velocity":124,"startTime":254.7009815625,"endTime":254.83085156250002,"instrument":11,"program":0,"isDrum":true},{"pitch":49,"velocity":123,"startTime":254.7009815625,"endTime":254.8227346875,"instrument":11,"program":0,"isDrum":true},{"pitch":40,"velocity":123,"startTime":254.83085156250002,"endTime":255.248870625,"instrument":11,"program":0,"isDrum":true},{"pitch":46,"velocity":123,"startTime":254.83085156250002,"endTime":255.08653312500002,"instrument":11,"program":0,"isDrum":true},{"pitch":35,"velocity":123,"startTime":254.9607215625,"endTime":255.1555265625,"instrument":11,"program":0,"isDrum":true},{"pitch":49,"velocity":123,"startTime":254.9607215625,"endTime":257.2983815625,"instrument":11,"program":0,"isDrum":true},{"pitch":35,"velocity":121,"startTime":255.22046156250002,"endTime":255.5938378125,"instrument":11,"program":0,"isDrum":true},{"pitch":40,"velocity":123,"startTime":255.3503315625,"endTime":256.0077984375,"instrument":11,"program":0,"isDrum":true},{"pitch":46,"velocity":122,"startTime":255.3503315625,"endTime":255.68718187500002,"instrument":11,"program":0,"isDrum":true},{"pitch":35,"velocity":123,"startTime":255.7399415625,"endTime":255.89010375,"instrument":11,"program":0,"isDrum":true},{"pitch":46,"velocity":122,"startTime":255.7399415625,"endTime":256.0159153125,"instrument":11,"program":0,"isDrum":true},{"pitch":35,"velocity":121,"startTime":255.9996815625,"endTime":256.401466875,"instrument":11,"program":0,"isDrum":true},{"pitch":40,"velocity":123,"startTime":256.1295515625,"endTime":256.7951353125,"instrument":11,"program":0,"isDrum":true},{"pitch":46,"velocity":122,"startTime":256.1295515625,"endTime":256.4136421875,"instrument":11,"program":0,"isDrum":true},{"pitch":35,"velocity":123,"startTime":256.5191615625,"endTime":256.6814990625,"instrument":11,"program":0,"isDrum":true},{"pitch":46,"velocity":123,"startTime":256.5191615625,"endTime":256.8032521875,"instrument":11,"program":0,"isDrum":true},{"pitch":35,"velocity":120,"startTime":256.7789015625,"endTime":257.1401025,"instrument":11,"program":0,"isDrum":true},{"pitch":40,"velocity":123,"startTime":256.9087715625,"endTime":257.5946475,"instrument":11,"program":0,"isDrum":true},{"pitch":46,"velocity":123,"startTime":256.9087715625,"endTime":257.2050375,"instrument":11,"program":0,"isDrum":true},{"pitch":35,"velocity":121,"startTime":257.2983815625,"endTime":257.4120178125,"instrument":11,"program":0,"isDrum":true},{"pitch":46,"velocity":123,"startTime":257.2983815625,"endTime":257.5743553125,"instrument":11,"program":0,"isDrum":true},{"pitch":35,"velocity":122,"startTime":257.5581215625,"endTime":257.9152640625,"instrument":11,"program":0,"isDrum":true},{"pitch":40,"velocity":123,"startTime":257.6879915625,"endTime":258.3535753125,"instrument":11,"program":0,"isDrum":true},{"pitch":46,"velocity":122,"startTime":257.6879915625,"endTime":257.9720821875,"instrument":11,"program":0,"isDrum":true},{"pitch":35,"velocity":123,"startTime":258.0776015625,"endTime":258.1912378125,"instrument":11,"program":0,"isDrum":true},{"pitch":46,"velocity":122,"startTime":258.0776015625,"endTime":258.35763375,"instrument":11,"program":0,"isDrum":true},{"pitch":35,"velocity":122,"startTime":258.3373415625,"endTime":258.68230875,"instrument":11,"program":0,"isDrum":true},{"pitch":40,"velocity":123,"startTime":258.4672115625,"endTime":259.16932125,"instrument":11,"program":0,"isDrum":true},{"pitch":46,"velocity":122,"startTime":258.4672115625,"endTime":258.7513021875,"instrument":11,"program":0,"isDrum":true},{"pitch":35,"velocity":123,"startTime":258.8568215625,"endTime":258.9785746875,"instrument":11,"program":0,"isDrum":true},{"pitch":46,"velocity":122,"startTime":258.8568215625,"endTime":259.1490290625,"instrument":11,"program":0,"isDrum":true},{"pitch":35,"velocity":123,"startTime":259.1165615625,"endTime":259.4737040625,"instrument":11,"program":0,"isDrum":true},{"pitch":40,"velocity":123,"startTime":259.2464315625,"endTime":259.907956875,"instrument":11,"program":0,"isDrum":true},{"pitch":46,"velocity":123,"startTime":259.2464315625,"endTime":259.5629896875,"instrument":11,"program":0,"isDrum":true},{"pitch":35,"velocity":123,"startTime":259.6360415625,"endTime":259.7740284375,"instrument":11,"program":0,"isDrum":true},{"pitch":49,"velocity":123,"startTime":259.6360415625,"endTime":259.8673725,"instrument":11,"program":0,"isDrum":true},{"pitch":35,"velocity":123,"startTime":259.8957815625,"endTime":260.2285734375,"instrument":11,"program":0,"isDrum":true},{"pitch":40,"velocity":123,"startTime":260.0256515625,"endTime":260.71964437500003,"instrument":11,"program":0,"isDrum":true},{"pitch":46,"velocity":122,"startTime":260.0256515625,"endTime":260.3016253125,"instrument":11,"program":0,"isDrum":true},{"pitch":35,"velocity":122,"startTime":260.4152615625,"endTime":260.5613653125,"instrument":11,"program":0,"isDrum":true},{"pitch":46,"velocity":122,"startTime":260.4152615625,"endTime":260.7155859375,"instrument":11,"program":0,"isDrum":true},{"pitch":35,"velocity":123,"startTime":260.67500156250003,"endTime":260.8129884375,"instrument":11,"program":0,"isDrum":true},{"pitch":40,"velocity":123,"startTime":260.8048715625,"endTime":260.95503375,"instrument":11,"program":0,"isDrum":true},{"pitch":46,"velocity":123,"startTime":260.8048715625,"endTime":261.206656875,"instrument":11,"program":0,"isDrum":true},{"pitch":43,"velocity":121,"startTime":260.9347415625,"endTime":261.0889621875,"instrument":11,"program":0,"isDrum":true},{"pitch":45,"velocity":122,"startTime":261.0646115625,"endTime":261.190423125,"instrument":11,"program":0,"isDrum":true},{"pitch":35,"velocity":122,"startTime":261.1944815625,"endTime":261.693669375,"instrument":11,"program":0,"isDrum":true},{"pitch":49,"velocity":122,"startTime":261.1944815625,"endTime":261.6206175,"instrument":11,"program":0,"isDrum":true},{"pitch":40,"velocity":124,"startTime":261.5840915625,"endTime":261.709903125,"instrument":11,"program":0,"isDrum":true},{"pitch":40,"velocity":123,"startTime":261.7139615625,"endTime":261.823539375,"instrument":11,"program":0,"isDrum":true},{"pitch":43,"velocity":121,"startTime":261.8438315625,"endTime":262.02646125,"instrument":11,"program":0,"isDrum":true},{"pitch":35,"velocity":121,"startTime":261.9737015625,"endTime":262.2577921875,"instrument":11,"program":0,"isDrum":true},{"pitch":49,"velocity":121,"startTime":261.9737015625,"endTime":262.36331156250003,"instrument":11,"program":0,"isDrum":true},{"pitch":40,"velocity":122,"startTime":262.36331156250003,"endTime":262.4769478125,"instrument":11,"program":0,"isDrum":true},{"pitch":43,"velocity":121,"startTime":262.4931815625,"endTime":262.62711,"instrument":11,"program":0,"isDrum":true},{"pitch":35,"velocity":122,"startTime":262.6230515625,"endTime":262.6879865625,"instrument":11,"program":0,"isDrum":true},{"pitch":57,"velocity":122,"startTime":262.6230515625,"endTime":262.7042203125,"instrument":11,"program":0,"isDrum":true},{"pitch":35,"velocity":122,"startTime":262.7529215625,"endTime":264.0272709375,"instrument":11,"program":0,"isDrum":true},{"pitch":49,"velocity":122,"startTime":262.7529215625,"endTime":264.1165565625,"instrument":11,"program":0,"isDrum":true},{"pitch":46,"velocity":122,"startTime":263.1425315625,"endTime":263.8486996875,"instrument":11,"program":0,"isDrum":true},{"pitch":46,"velocity":123,"startTime":263.9217515625,"endTime":264.39658875,"instrument":11,"program":0,"isDrum":true},{"pitch":35,"velocity":124,"startTime":264.3113615625,"endTime":265.654704375,"instrument":11,"program":0,"isDrum":true},{"pitch":43,"velocity":123,"startTime":264.3113615625,"endTime":265.8373340625,"instrument":11,"program":0,"isDrum":true},{"pitch":46,"velocity":122,"startTime":264.7009715625,"endTime":265.35438,"instrument":11,"program":0,"isDrum":true},{"pitch":46,"velocity":122,"startTime":265.4801915625,"endTime":265.8616846875,"instrument":11,"program":0,"isDrum":true},{"pitch":35,"velocity":124,"startTime":265.8698015625,"endTime":268.9542140625,"instrument":11,"program":0,"isDrum":true},{"pitch":49,"velocity":123,"startTime":265.8698015625,"endTime":268.4387925,"instrument":11,"program":0,"isDrum":true},{"pitch":35,"velocity":124,"startTime":272.1035615625,"endTime":273.117234375,"instrument":11,"program":0,"isDrum":true},{"pitch":52,"velocity":123,"startTime":272.1035615625,"endTime":273.469798125,"instrument":11,"program":0,"isDrum":true},{"pitch":46,"velocity":120,"startTime":272.4842221875,"endTime":272.5964015625,"instrument":11,"program":0,"isDrum":true},{"pitch":40,"velocity":124,"startTime":272.8688371875,"endTime":274.1188359375,"instrument":11,"program":0,"isDrum":true},{"pitch":46,"velocity":122,"startTime":272.8688371875,"endTime":273.1733240625,"instrument":11,"program":0,"isDrum":true},{"pitch":35,"velocity":121,"startTime":273.2534521875,"endTime":273.4297340625,"instrument":11,"program":0,"isDrum":true},{"pitch":46,"velocity":119,"startTime":273.2534521875,"endTime":273.72620812499997,"instrument":11,"program":0,"isDrum":true},{"pitch":35,"velocity":124,"startTime":273.6380671875,"endTime":274.57556625,"instrument":11,"program":0,"isDrum":true},{"pitch":49,"velocity":123,"startTime":273.6380671875,"endTime":274.976206875,"instrument":11,"program":0,"isDrum":true},{"pitch":46,"velocity":119,"startTime":274.0226821875,"endTime":274.2230025,"instrument":11,"program":0,"isDrum":true},{"pitch":40,"velocity":124,"startTime":274.4072971875,"endTime":275.54511656249997,"instrument":11,"program":0,"isDrum":true},{"pitch":46,"velocity":122,"startTime":274.4072971875,"endTime":274.6797328125,"instrument":11,"program":0,"isDrum":true},{"pitch":35,"velocity":120,"startTime":274.7919121875,"endTime":274.9361428125,"instrument":11,"program":0,"isDrum":true},{"pitch":46,"velocity":120,"startTime":274.7919121875,"endTime":275.360821875,"instrument":11,"program":0,"isDrum":true},{"pitch":35,"velocity":124,"startTime":275.17652718749997,"endTime":276.1380646875,"instrument":11,"program":0,"isDrum":true},{"pitch":57,"velocity":123,"startTime":275.17652718749997,"endTime":276.43453875,"instrument":11,"program":0,"isDrum":true},{"pitch":46,"velocity":119,"startTime":275.5611421875,"endTime":275.6893471875,"instrument":11,"program":0,"isDrum":true},{"pitch":40,"velocity":124,"startTime":275.9457571875,"endTime":276.5306925,"instrument":11,"program":0,"isDrum":true},{"pitch":46,"velocity":122,"startTime":275.9457571875,"endTime":276.2342184375,"instrument":11,"program":0,"isDrum":true},{"pitch":35,"velocity":120,"startTime":276.3303721875,"endTime":276.4585771875,"instrument":11,"program":0,"isDrum":true},{"pitch":46,"velocity":122,"startTime":276.3303721875,"endTime":276.723,"instrument":11,"program":0,"isDrum":true},{"pitch":35,"velocity":123,"startTime":276.7149871875,"endTime":277.2438328125,"instrument":11,"program":0,"isDrum":true},{"pitch":49,"velocity":122,"startTime":276.7149871875,"endTime":277.380050625,"instrument":11,"program":0,"isDrum":true},{"pitch":35,"velocity":124,"startTime":277.4842171875,"endTime":277.8127425,"instrument":11,"program":0,"isDrum":true},{"pitch":52,"velocity":123,"startTime":277.4842171875,"endTime":277.9329346875,"instrument":11,"program":0,"isDrum":true},{"pitch":35,"velocity":124,"startTime":278.2534471875,"endTime":278.81434406249997,"instrument":11,"program":0,"isDrum":true},{"pitch":55,"velocity":128,"startTime":278.2534471875,"endTime":278.9265234375,"instrument":11,"program":0,"isDrum":true},{"pitch":35,"velocity":124,"startTime":279.0226771875,"endTime":279.3271640625,"instrument":11,"program":0,"isDrum":true},{"pitch":57,"velocity":123,"startTime":279.0226771875,"endTime":279.2790871875,"instrument":11,"program":0,"isDrum":true},{"pitch":35,"velocity":124,"startTime":279.7919071875,"endTime":280.2486375,"instrument":11,"program":0,"isDrum":true},{"pitch":52,"velocity":123,"startTime":279.7919071875,"endTime":280.34479125,"instrument":11,"program":0,"isDrum":true},{"pitch":35,"velocity":123,"startTime":280.5611371875,"endTime":281.0419059375,"instrument":11,"program":0,"isDrum":true},{"pitch":49,"velocity":123,"startTime":280.5611371875,"endTime":281.00184187499997,"instrument":11,"program":0,"isDrum":true},{"pitch":35,"velocity":124,"startTime":281.3303671875,"endTime":282.20376375,"instrument":11,"program":0,"isDrum":true},{"pitch":57,"velocity":123,"startTime":281.3303671875,"endTime":284.1348515625,"instrument":11,"program":0,"isDrum":true},{"pitch":40,"velocity":124,"startTime":282.0995971875,"endTime":283.4136984375,"instrument":11,"program":0,"isDrum":true},{"pitch":46,"velocity":122,"startTime":282.0995971875,"endTime":282.347994375,"instrument":11,"program":0,"isDrum":true},{"pitch":35,"velocity":123,"startTime":282.4842121875,"endTime":282.6604940625,"instrument":11,"program":0,"isDrum":true},{"pitch":46,"velocity":112,"startTime":282.4842121875,"endTime":282.62043,"instrument":11,"program":0,"isDrum":true},{"pitch":35,"velocity":124,"startTime":282.8688271875,"endTime":283.6861340625,"instrument":11,"program":0,"isDrum":true},{"pitch":46,"velocity":122,"startTime":282.8688271875,"endTime":283.0771603125,"instrument":11,"program":0,"isDrum":true},{"pitch":46,"velocity":112,"startTime":283.2534421875,"endTime":283.35760875,"instrument":11,"program":0,"isDrum":true},{"pitch":40,"velocity":123,"startTime":283.6380571875,"endTime":283.8624159375,"instrument":11,"program":0,"isDrum":true},{"pitch":46,"velocity":122,"startTime":283.6380571875,"endTime":283.854403125,"instrument":11,"program":0,"isDrum":true},{"pitch":43,"velocity":122,"startTime":283.8303646875,"endTime":284.0386978125,"instrument":11,"program":0,"isDrum":true},{"pitch":35,"velocity":124,"startTime":284.0226721875,"endTime":284.1829284375,"instrument":11,"program":0,"isDrum":true},{"pitch":45,"velocity":122,"startTime":284.0226721875,"endTime":284.367223125,"instrument":11,"program":0,"isDrum":true},{"pitch":35,"velocity":124,"startTime":284.4072871875,"endTime":285.264658125,"instrument":11,"program":0,"isDrum":true},{"pitch":49,"velocity":123,"startTime":284.4072871875,"endTime":287.2277971875,"instrument":11,"program":0,"isDrum":true},{"pitch":46,"velocity":111,"startTime":284.7919021875,"endTime":284.98420968749997,"instrument":11,"program":0,"isDrum":true},{"pitch":40,"velocity":122,"startTime":285.1765171875,"endTime":286.450554375,"instrument":11,"program":0,"isDrum":true},{"pitch":46,"velocity":122,"startTime":285.1765171875,"endTime":285.3768375,"instrument":11,"program":0,"isDrum":true},{"pitch":35,"velocity":123,"startTime":285.5611321875,"endTime":285.7374140625,"instrument":11,"program":0,"isDrum":true},{"pitch":46,"velocity":114,"startTime":285.5611321875,"endTime":285.649273125,"instrument":11,"program":0,"isDrum":true},{"pitch":35,"velocity":123,"startTime":285.9457471875,"endTime":286.94734875,"instrument":11,"program":0,"isDrum":true},{"pitch":46,"velocity":122,"startTime":285.9457471875,"endTime":286.0579265625,"instrument":11,"program":0,"isDrum":true},{"pitch":46,"velocity":111,"startTime":286.3303621875,"endTime":286.5226696875,"instrument":11,"program":0,"isDrum":true},{"pitch":40,"velocity":124,"startTime":286.7149771875,"endTime":287.17170749999997,"instrument":11,"program":0,"isDrum":true},{"pitch":46,"velocity":123,"startTime":286.7149771875,"endTime":286.851195,"instrument":11,"program":0,"isDrum":true},{"pitch":35,"velocity":123,"startTime":287.0995921875,"endTime":287.4521559375,"instrument":11,"program":0,"isDrum":true},{"pitch":46,"velocity":120,"startTime":287.0995921875,"endTime":287.20375875,"instrument":11,"program":0,"isDrum":true},{"pitch":35,"velocity":123,"startTime":287.4842071875,"endTime":288.3976678125,"instrument":11,"program":0,"isDrum":true},{"pitch":49,"velocity":122,"startTime":287.4842071875,"endTime":288.2053603125,"instrument":11,"program":0,"isDrum":true},{"pitch":40,"velocity":123,"startTime":288.25343718749997,"endTime":289.51144875,"instrument":11,"program":0,"isDrum":true},{"pitch":42,"velocity":122,"startTime":288.25343718749997,"endTime":288.54991125,"instrument":11,"program":0,"isDrum":true},{"pitch":35,"velocity":118,"startTime":288.63805218749997,"endTime":288.8303596875,"instrument":11,"program":0,"isDrum":true},{"pitch":42,"velocity":117,"startTime":288.63805218749997,"endTime":288.7983084375,"instrument":11,"program":0,"isDrum":true},{"pitch":35,"velocity":122,"startTime":289.0226671875,"endTime":290.2886915625,"instrument":11,"program":0,"isDrum":true},{"pitch":42,"velocity":121,"startTime":289.0226671875,"endTime":289.239013125,"instrument":11,"program":0,"isDrum":true},{"pitch":42,"velocity":111,"startTime":289.4072821875,"endTime":289.527474375,"instrument":11,"program":0,"isDrum":true},{"pitch":40,"velocity":124,"startTime":289.7918971875,"endTime":291.001831875,"instrument":11,"program":0,"isDrum":true},{"pitch":42,"velocity":123,"startTime":289.7918971875,"endTime":290.0483071875,"instrument":11,"program":0,"isDrum":true},{"pitch":42,"velocity":113,"startTime":290.1765121875,"endTime":290.328755625,"instrument":11,"program":0,"isDrum":true},{"pitch":35,"velocity":123,"startTime":290.5611271875,"endTime":291.4745878125,"instrument":11,"program":0,"isDrum":true},{"pitch":42,"velocity":122,"startTime":290.5611271875,"endTime":290.777473125,"instrument":11,"program":0,"isDrum":true},{"pitch":42,"velocity":114,"startTime":290.9457421875,"endTime":291.0899728125,"instrument":11,"program":0,"isDrum":true},{"pitch":40,"velocity":124,"startTime":291.3303571875,"endTime":292.5643303125,"instrument":11,"program":0,"isDrum":true},{"pitch":42,"velocity":122,"startTime":291.3303571875,"endTime":291.578754375,"instrument":11,"program":0,"isDrum":true},{"pitch":35,"velocity":123,"startTime":291.7149721875,"endTime":291.9072796875,"instrument":11,"program":0,"isDrum":true},{"pitch":42,"velocity":117,"startTime":291.7149721875,"endTime":291.85119,"instrument":11,"program":0,"isDrum":true},{"pitch":35,"velocity":123,"startTime":292.0995871875,"endTime":293.0450990625,"instrument":11,"program":0,"isDrum":true},{"pitch":42,"velocity":122,"startTime":292.0995871875,"endTime":292.4281125,"instrument":11,"program":0,"isDrum":true},{"pitch":46,"velocity":121,"startTime":292.4842021875,"endTime":292.87683,"instrument":11,"program":0,"isDrum":true},{"pitch":40,"velocity":124,"startTime":292.8688171875,"endTime":315.9457171875,"instrument":11,"program":0,"isDrum":true},{"pitch":42,"velocity":122,"startTime":292.8688171875,"endTime":293.2053553125,"instrument":11,"program":0,"isDrum":true},{"pitch":35,"velocity":123,"startTime":293.2534321875,"endTime":293.42170125,"instrument":11,"program":0,"isDrum":true},{"pitch":46,"velocity":122,"startTime":293.2534321875,"endTime":293.6380471875,"instrument":11,"program":0,"isDrum":true},{"pitch":35,"velocity":124,"startTime":293.6380471875,"endTime":294.847981875,"instrument":11,"program":0,"isDrum":true},{"pitch":49,"velocity":122,"startTime":293.6380471875,"endTime":294.6957384375,"instrument":11,"program":0,"isDrum":true},{"pitch":35,"velocity":124,"startTime":295.1765071875,"endTime":298.0130428125,"instrument":11,"program":0,"isDrum":true},{"pitch":57,"velocity":123,"startTime":295.1765071875,"endTime":297.989004375,"instrument":11,"program":0,"isDrum":true},{"pitch":51,"velocity":120,"startTime":296.7149671875,"endTime":296.9233003125,"instrument":11,"program":0,"isDrum":true},{"pitch":51,"velocity":119,"startTime":297.0995821875,"endTime":297.5482996875,"instrument":11,"program":0,"isDrum":true},{"pitch":51,"velocity":120,"startTime":297.6765046875,"endTime":301.466565,"instrument":11,"program":0,"isDrum":true},{"pitch":35,"velocity":124,"startTime":298.2534271875,"endTime":301.194129375,"instrument":11,"program":0,"isDrum":true},{"pitch":49,"velocity":123,"startTime":298.2534271875,"endTime":301.2982959375,"instrument":11,"program":0,"isDrum":true},{"pitch":35,"velocity":122,"startTime":301.3303471875,"endTime":302.42008968749997,"instrument":11,"program":0,"isDrum":true},{"pitch":52,"velocity":119,"startTime":301.3303471875,"endTime":312.90886125,"instrument":11,"program":0,"isDrum":true},{"pitch":51,"velocity":119,"startTime":302.0995771875,"endTime":302.4841921875,"instrument":11,"program":0,"isDrum":true},{"pitch":35,"velocity":121,"startTime":302.4841921875,"endTime":302.76464062499997,"instrument":11,"program":0,"isDrum":true},{"pitch":35,"velocity":123,"startTime":302.8688071875,"endTime":304.31912625,"instrument":11,"program":0,"isDrum":true},{"pitch":51,"velocity":119,"startTime":302.8688071875,"endTime":303.2534221875,"instrument":11,"program":0,"isDrum":true},{"pitch":51,"velocity":119,"startTime":303.6380371875,"endTime":304.0226521875,"instrument":11,"program":0,"isDrum":true},{"pitch":35,"velocity":122,"startTime":304.4072671875,"endTime":305.53707375,"instrument":11,"program":0,"isDrum":true},{"pitch":51,"velocity":119,"startTime":304.4072671875,"endTime":304.7918821875,"instrument":11,"program":0,"isDrum":true},{"pitch":51,"velocity":119,"startTime":305.1764971875,"endTime":305.6252146875,"instrument":11,"program":0,"isDrum":true},{"pitch":35,"velocity":117,"startTime":305.5611121875,"endTime":305.841560625,"instrument":11,"program":0,"isDrum":true},{"pitch":35,"velocity":122,"startTime":305.9457271875,"endTime":307.3559821875,"instrument":11,"program":0,"isDrum":true},{"pitch":51,"velocity":120,"startTime":305.9457271875,"endTime":306.43450875,"instrument":11,"program":0,"isDrum":true},{"pitch":51,"velocity":119,"startTime":306.7149571875,"endTime":307.315918125,"instrument":11,"program":0,"isDrum":true},{"pitch":35,"velocity":121,"startTime":307.48418718749997,"endTime":308.982583125,"instrument":11,"program":0,"isDrum":true},{"pitch":51,"velocity":119,"startTime":307.48418718749997,"endTime":308.0130328125,"instrument":11,"program":0,"isDrum":true},{"pitch":51,"velocity":119,"startTime":308.2534171875,"endTime":308.7502115625,"instrument":11,"program":0,"isDrum":true},{"pitch":35,"velocity":120,"startTime":309.0226471875,"endTime":310.0002103125,"instrument":11,"program":0,"isDrum":true},{"pitch":51,"velocity":120,"startTime":309.0226471875,"endTime":309.527454375,"instrument":11,"program":0,"isDrum":true},{"pitch":51,"velocity":118,"startTime":309.7918771875,"endTime":310.2405946875,"instrument":11,"program":0,"isDrum":true},{"pitch":35,"velocity":118,"startTime":310.1764921875,"endTime":310.4649534375,"instrument":11,"program":0,"isDrum":true},{"pitch":35,"velocity":121,"startTime":310.5611071875,"endTime":316.43449875,"instrument":11,"program":0,"isDrum":true},{"pitch":51,"velocity":118,"startTime":310.5611071875,"endTime":311.0579015625,"instrument":11,"program":0,"isDrum":true},{"pitch":51,"velocity":118,"startTime":311.3303371875,"endTime":311.8111059375,"instrument":11,"program":0,"isDrum":true},{"pitch":51,"velocity":118,"startTime":312.0995671875,"endTime":312.5322590625,"instrument":11,"program":0,"isDrum":true},{"pitch":51,"velocity":119,"startTime":312.8687971875,"endTime":313.437706875,"instrument":11,"program":0,"isDrum":true},{"pitch":51,"velocity":118,"startTime":313.63802718750003,"endTime":314.2630265625,"instrument":11,"program":0,"isDrum":true},{"pitch":51,"velocity":108,"startTime":314.4072571875,"endTime":315.2486025,"instrument":11,"program":0,"isDrum":true},{"pitch":49,"velocity":117,"startTime":315.1764871875,"endTime":316.7870625,"instrument":11,"program":0,"isDrum":true},{"pitch":36,"velocity":122,"startTime":176.9229,"endTime":176.9870025,"instrument":12,"program":47,"isDrum":false},{"pitch":48,"velocity":118,"startTime":176.9229,"endTime":176.9950153125,"instrument":12,"program":47,"isDrum":false},{"pitch":36,"velocity":122,"startTime":177.1152075,"endTime":177.2033484375,"instrument":12,"program":47,"isDrum":false},{"pitch":48,"velocity":117,"startTime":177.1152075,"endTime":177.18732281249999,"instrument":12,"program":47,"isDrum":false},{"pitch":36,"velocity":120,"startTime":177.307515,"endTime":177.37963031249998,"instrument":12,"program":47,"isDrum":false},{"pitch":48,"velocity":117,"startTime":177.307515,"endTime":177.37963031249998,"instrument":12,"program":47,"isDrum":false},{"pitch":36,"velocity":120,"startTime":177.4998225,"endTime":177.57193781249998,"instrument":12,"program":47,"isDrum":false},{"pitch":48,"velocity":118,"startTime":177.4998225,"endTime":177.57193781249998,"instrument":12,"program":47,"isDrum":false},{"pitch":36,"velocity":119,"startTime":177.69213,"endTime":177.77225812499998,"instrument":12,"program":47,"isDrum":false},{"pitch":48,"velocity":120,"startTime":177.69213,"endTime":177.77225812499998,"instrument":12,"program":47,"isDrum":false},{"pitch":36,"velocity":122,"startTime":178.076745,"endTime":178.15687312499998,"instrument":12,"program":47,"isDrum":false},{"pitch":48,"velocity":122,"startTime":178.076745,"endTime":178.1488603125,"instrument":12,"program":47,"isDrum":false},{"pitch":36,"velocity":119,"startTime":178.46135999999998,"endTime":178.54148812499997,"instrument":12,"program":47,"isDrum":false},{"pitch":48,"velocity":120,"startTime":178.46135999999998,"endTime":178.5334753125,"instrument":12,"program":47,"isDrum":false},{"pitch":36,"velocity":121,"startTime":178.65366749999998,"endTime":178.7257828125,"instrument":12,"program":47,"isDrum":false},{"pitch":48,"velocity":118,"startTime":178.65366749999998,"endTime":178.7257828125,"instrument":12,"program":47,"isDrum":false},{"pitch":36,"velocity":122,"startTime":178.84597499999998,"endTime":178.9180903125,"instrument":12,"program":47,"isDrum":false},{"pitch":48,"velocity":119,"startTime":178.84597499999998,"endTime":178.90206468749997,"instrument":12,"program":47,"isDrum":false},{"pitch":36,"velocity":122,"startTime":179.03828249999998,"endTime":179.118410625,"instrument":12,"program":47,"isDrum":false},{"pitch":48,"velocity":119,"startTime":179.03828249999998,"endTime":179.1103978125,"instrument":12,"program":47,"isDrum":false},{"pitch":36,"velocity":122,"startTime":179.23059,"endTime":179.3187309375,"instrument":12,"program":47,"isDrum":false},{"pitch":48,"velocity":120,"startTime":179.23059,"endTime":179.310718125,"instrument":12,"program":47,"isDrum":false},{"pitch":36,"velocity":120,"startTime":179.615205,"endTime":179.71135875,"instrument":12,"program":47,"isDrum":false},{"pitch":48,"velocity":120,"startTime":179.615205,"endTime":179.695333125,"instrument":12,"program":47,"isDrum":false},{"pitch":36,"velocity":122,"startTime":179.99982,"endTime":180.079948125,"instrument":12,"program":47,"isDrum":false},{"pitch":48,"velocity":120,"startTime":179.99982,"endTime":180.0879609375,"instrument":12,"program":47,"isDrum":false},{"pitch":36,"velocity":121,"startTime":190.384425,"endTime":190.45654031249998,"instrument":12,"program":47,"isDrum":false},{"pitch":48,"velocity":122,"startTime":190.384425,"endTime":190.44051468749998,"instrument":12,"program":47,"isDrum":false},{"pitch":36,"velocity":122,"startTime":190.76904,"endTime":190.84115531249998,"instrument":12,"program":47,"isDrum":false},{"pitch":48,"velocity":121,"startTime":190.76904,"endTime":190.8331425,"instrument":12,"program":47,"isDrum":false},{"pitch":36,"velocity":121,"startTime":191.153655,"endTime":191.20974468749998,"instrument":12,"program":47,"isDrum":false},{"pitch":48,"velocity":121,"startTime":191.153655,"endTime":191.20974468749998,"instrument":12,"program":47,"isDrum":false},{"pitch":36,"velocity":120,"startTime":191.53826999999998,"endTime":191.6103853125,"instrument":12,"program":47,"isDrum":false},{"pitch":48,"velocity":121,"startTime":191.53826999999998,"endTime":191.6103853125,"instrument":12,"program":47,"isDrum":false},{"pitch":36,"velocity":120,"startTime":191.92288499999998,"endTime":191.9950003125,"instrument":12,"program":47,"isDrum":false},{"pitch":48,"velocity":121,"startTime":191.92288499999998,"endTime":191.9789746875,"instrument":12,"program":47,"isDrum":false},{"pitch":36,"velocity":121,"startTime":192.3075,"endTime":192.3635896875,"instrument":12,"program":47,"isDrum":false},{"pitch":48,"velocity":119,"startTime":192.3075,"endTime":192.3635896875,"instrument":12,"program":47,"isDrum":false},{"pitch":36,"velocity":120,"startTime":192.692115,"endTime":192.7482046875,"instrument":12,"program":47,"isDrum":false},{"pitch":48,"velocity":121,"startTime":192.692115,"endTime":192.7482046875,"instrument":12,"program":47,"isDrum":false},{"pitch":36,"velocity":121,"startTime":193.07673,"endTime":193.1488453125,"instrument":12,"program":47,"isDrum":false},{"pitch":48,"velocity":122,"startTime":193.07673,"endTime":193.1488453125,"instrument":12,"program":47,"isDrum":false},{"pitch":36,"velocity":122,"startTime":193.461345,"endTime":193.51743468749999,"instrument":12,"program":47,"isDrum":false},{"pitch":48,"velocity":122,"startTime":193.461345,"endTime":193.53346031249998,"instrument":12,"program":47,"isDrum":false},{"pitch":36,"velocity":122,"startTime":194.230575,"endTime":194.3026903125,"instrument":12,"program":47,"isDrum":false},{"pitch":48,"velocity":122,"startTime":194.230575,"endTime":194.3026903125,"instrument":12,"program":47,"isDrum":false},{"pitch":36,"velocity":122,"startTime":194.99980499999998,"endTime":195.0719203125,"instrument":12,"program":47,"isDrum":false},{"pitch":48,"velocity":122,"startTime":194.99980499999998,"endTime":195.0719203125,"instrument":12,"program":47,"isDrum":false},{"pitch":36,"velocity":122,"startTime":195.38442,"endTime":195.464548125,"instrument":12,"program":47,"isDrum":false},{"pitch":48,"velocity":121,"startTime":195.38442,"endTime":195.4485225,"instrument":12,"program":47,"isDrum":false},{"pitch":36,"velocity":122,"startTime":195.769035,"endTime":195.86518875,"instrument":12,"program":47,"isDrum":false},{"pitch":48,"velocity":122,"startTime":195.769035,"endTime":195.8411503125,"instrument":12,"program":47,"isDrum":false},{"pitch":36,"velocity":122,"startTime":200.76903,"endTime":200.8411453125,"instrument":12,"program":47,"isDrum":false},{"pitch":48,"velocity":121,"startTime":200.76903,"endTime":200.8411453125,"instrument":12,"program":47,"isDrum":false},{"pitch":36,"velocity":123,"startTime":201.15364499999998,"endTime":201.2257603125,"instrument":12,"program":47,"isDrum":false},{"pitch":48,"velocity":121,"startTime":201.15364499999998,"endTime":201.2257603125,"instrument":12,"program":47,"isDrum":false},{"pitch":36,"velocity":122,"startTime":201.53825999999998,"endTime":201.6103753125,"instrument":12,"program":47,"isDrum":false},{"pitch":48,"velocity":121,"startTime":201.53825999999998,"endTime":201.6103753125,"instrument":12,"program":47,"isDrum":false},{"pitch":36,"velocity":122,"startTime":201.922875,"endTime":202.00300312500002,"instrument":12,"program":47,"isDrum":false},{"pitch":48,"velocity":122,"startTime":201.922875,"endTime":202.00300312500002,"instrument":12,"program":47,"isDrum":false},{"pitch":36,"velocity":114,"startTime":202.4997975,"endTime":202.5719128125,"instrument":12,"program":47,"isDrum":false},{"pitch":48,"velocity":111,"startTime":202.4997975,"endTime":202.55588718750002,"instrument":12,"program":47,"isDrum":false},{"pitch":36,"velocity":116,"startTime":202.692105,"endTime":202.74819468750002,"instrument":12,"program":47,"isDrum":false},{"pitch":48,"velocity":112,"startTime":202.692105,"endTime":202.74819468750002,"instrument":12,"program":47,"isDrum":false},{"pitch":36,"velocity":122,"startTime":202.8844125,"endTime":202.95652781249998,"instrument":12,"program":47,"isDrum":false},{"pitch":48,"velocity":118,"startTime":202.8844125,"endTime":202.94050218750002,"instrument":12,"program":47,"isDrum":false},{"pitch":36,"velocity":120,"startTime":203.07672,"endTime":203.14883531249998,"instrument":12,"program":47,"isDrum":false},{"pitch":48,"velocity":117,"startTime":203.07672,"endTime":203.14883531249998,"instrument":12,"program":47,"isDrum":false},{"pitch":36,"velocity":122,"startTime":203.2690275,"endTime":203.34114281249998,"instrument":12,"program":47,"isDrum":false},{"pitch":48,"velocity":119,"startTime":203.2690275,"endTime":203.34114281249998,"instrument":12,"program":47,"isDrum":false},{"pitch":36,"velocity":120,"startTime":203.461335,"endTime":203.541463125,"instrument":12,"program":47,"isDrum":false},{"pitch":48,"velocity":121,"startTime":203.461335,"endTime":203.53345031249998,"instrument":12,"program":47,"isDrum":false},{"pitch":36,"velocity":123,"startTime":204.61517999999998,"endTime":204.6872953125,"instrument":12,"program":47,"isDrum":false},{"pitch":48,"velocity":121,"startTime":204.61517999999998,"endTime":204.6872953125,"instrument":12,"program":47,"isDrum":false},{"pitch":36,"velocity":122,"startTime":204.999795,"endTime":205.0719103125,"instrument":12,"program":47,"isDrum":false},{"pitch":48,"velocity":122,"startTime":204.999795,"endTime":205.0719103125,"instrument":12,"program":47,"isDrum":false},{"pitch":36,"velocity":122,"startTime":205.38441,"endTime":205.4565253125,"instrument":12,"program":47,"isDrum":false},{"pitch":48,"velocity":121,"startTime":205.38441,"endTime":205.46453812500002,"instrument":12,"program":47,"isDrum":false},{"pitch":36,"velocity":121,"startTime":205.769025,"endTime":205.85716593749999,"instrument":12,"program":47,"isDrum":false},{"pitch":48,"velocity":120,"startTime":205.769025,"endTime":205.8411403125,"instrument":12,"program":47,"isDrum":false},{"pitch":36,"velocity":111,"startTime":206.3459475,"endTime":206.4020371875,"instrument":12,"program":47,"isDrum":false},{"pitch":48,"velocity":105,"startTime":206.3459475,"endTime":206.41806281249998,"instrument":12,"program":47,"isDrum":false},{"pitch":36,"velocity":113,"startTime":206.538255,"endTime":206.61037031249998,"instrument":12,"program":47,"isDrum":false},{"pitch":48,"velocity":110,"startTime":206.538255,"endTime":206.60235749999998,"instrument":12,"program":47,"isDrum":false},{"pitch":36,"velocity":122,"startTime":206.7305625,"endTime":206.810690625,"instrument":12,"program":47,"isDrum":false},{"pitch":48,"velocity":120,"startTime":206.7305625,"endTime":206.80267781249998,"instrument":12,"program":47,"isDrum":false},{"pitch":36,"velocity":122,"startTime":206.92287,"endTime":206.99498531249998,"instrument":12,"program":47,"isDrum":false},{"pitch":48,"velocity":120,"startTime":206.92287,"endTime":206.9789596875,"instrument":12,"program":47,"isDrum":false},{"pitch":36,"velocity":120,"startTime":207.1151775,"endTime":207.20331843749997,"instrument":12,"program":47,"isDrum":false},{"pitch":48,"velocity":118,"startTime":207.1151775,"endTime":207.1872928125,"instrument":12,"program":47,"isDrum":false},{"pitch":36,"velocity":120,"startTime":207.30748499999999,"endTime":207.39562593749997,"instrument":12,"program":47,"isDrum":false},{"pitch":48,"velocity":122,"startTime":207.30748499999999,"endTime":207.39562593749997,"instrument":12,"program":47,"isDrum":false},{"pitch":36,"velocity":119,"startTime":208.07671499999998,"endTime":208.14081749999997,"instrument":12,"program":47,"isDrum":false},{"pitch":48,"velocity":114,"startTime":208.07671499999998,"endTime":208.156843125,"instrument":12,"program":47,"isDrum":false},{"pitch":36,"velocity":121,"startTime":208.2690225,"endTime":208.3251121875,"instrument":12,"program":47,"isDrum":false},{"pitch":48,"velocity":116,"startTime":208.2690225,"endTime":208.3251121875,"instrument":12,"program":47,"isDrum":false},{"pitch":36,"velocity":122,"startTime":208.46133,"endTime":208.52543249999997,"instrument":12,"program":47,"isDrum":false},{"pitch":48,"velocity":118,"startTime":208.46133,"endTime":208.5334453125,"instrument":12,"program":47,"isDrum":false},{"pitch":36,"velocity":119,"startTime":208.6536375,"endTime":208.7417784375,"instrument":12,"program":47,"isDrum":false},{"pitch":48,"velocity":120,"startTime":208.6536375,"endTime":208.7257528125,"instrument":12,"program":47,"isDrum":false},{"pitch":36,"velocity":121,"startTime":208.845945,"endTime":208.9340859375,"instrument":12,"program":47,"isDrum":false},{"pitch":48,"velocity":122,"startTime":208.845945,"endTime":208.9180603125,"instrument":12,"program":47,"isDrum":false},{"pitch":36,"velocity":116,"startTime":209.615175,"endTime":209.6712646875,"instrument":12,"program":47,"isDrum":false},{"pitch":48,"velocity":118,"startTime":209.615175,"endTime":209.68729031249998,"instrument":12,"program":47,"isDrum":false},{"pitch":36,"velocity":121,"startTime":209.8074825,"endTime":209.8635721875,"instrument":12,"program":47,"isDrum":false},{"pitch":48,"velocity":119,"startTime":209.8074825,"endTime":209.8635721875,"instrument":12,"program":47,"isDrum":false},{"pitch":36,"velocity":122,"startTime":209.99979,"endTime":210.07190531249998,"instrument":12,"program":47,"isDrum":false},{"pitch":48,"velocity":118,"startTime":209.99979,"endTime":210.0558796875,"instrument":12,"program":47,"isDrum":false},{"pitch":36,"velocity":119,"startTime":210.1920975,"endTime":210.28023843749997,"instrument":12,"program":47,"isDrum":false},{"pitch":48,"velocity":120,"startTime":210.1920975,"endTime":210.25619999999998,"instrument":12,"program":47,"isDrum":false},{"pitch":36,"velocity":120,"startTime":210.384405,"endTime":210.4565203125,"instrument":12,"program":47,"isDrum":false},{"pitch":48,"velocity":122,"startTime":210.384405,"endTime":210.47254593749997,"instrument":12,"program":47,"isDrum":false},{"pitch":36,"velocity":108,"startTime":213.2690175,"endTime":213.349145625,"instrument":12,"program":47,"isDrum":false},{"pitch":36,"velocity":105,"startTime":213.6536325,"endTime":213.7577990625,"instrument":12,"program":47,"isDrum":false},{"pitch":36,"velocity":117,"startTime":214.03824749999998,"endTime":214.16645250000002,"instrument":12,"program":47,"isDrum":false},{"pitch":36,"velocity":122,"startTime":214.42286249999998,"endTime":214.5430546875,"instrument":12,"program":47,"isDrum":false},{"pitch":36,"velocity":121,"startTime":214.8074775,"endTime":214.92766968749999,"instrument":12,"program":47,"isDrum":false},{"pitch":36,"velocity":122,"startTime":215.1920925,"endTime":215.31228468749998,"instrument":12,"program":47,"isDrum":false},{"pitch":36,"velocity":123,"startTime":215.5767075,"endTime":215.6808740625,"instrument":12,"program":47,"isDrum":false},{"pitch":36,"velocity":115,"startTime":217.49978249999998,"endTime":217.5718978125,"instrument":12,"program":47,"isDrum":false},{"pitch":48,"velocity":110,"startTime":217.49978249999998,"endTime":217.5558721875,"instrument":12,"program":47,"isDrum":false},{"pitch":36,"velocity":111,"startTime":217.69208999999998,"endTime":217.75619249999997,"instrument":12,"program":47,"isDrum":false},{"pitch":48,"velocity":110,"startTime":217.69208999999998,"endTime":217.7481796875,"instrument":12,"program":47,"isDrum":false},{"pitch":36,"velocity":121,"startTime":217.88439749999998,"endTime":217.9565128125,"instrument":12,"program":47,"isDrum":false},{"pitch":48,"velocity":119,"startTime":217.88439749999998,"endTime":217.9565128125,"instrument":12,"program":47,"isDrum":false},{"pitch":36,"velocity":117,"startTime":218.076705,"endTime":218.124781875,"instrument":12,"program":47,"isDrum":false},{"pitch":48,"velocity":107,"startTime":218.076705,"endTime":218.11676906249997,"instrument":12,"program":47,"isDrum":false},{"pitch":36,"velocity":122,"startTime":218.2690125,"endTime":218.3571534375,"instrument":12,"program":47,"isDrum":false},{"pitch":48,"velocity":119,"startTime":218.2690125,"endTime":218.3411278125,"instrument":12,"program":47,"isDrum":false},{"pitch":36,"velocity":121,"startTime":218.46132,"endTime":218.5334353125,"instrument":12,"program":47,"isDrum":false},{"pitch":48,"velocity":119,"startTime":218.46132,"endTime":218.5334353125,"instrument":12,"program":47,"isDrum":false},{"pitch":36,"velocity":121,"startTime":218.6536275,"endTime":218.73375562500001,"instrument":12,"program":47,"isDrum":false},{"pitch":48,"velocity":121,"startTime":218.6536275,"endTime":218.74176843749999,"instrument":12,"program":47,"isDrum":false},{"pitch":36,"velocity":117,"startTime":219.99978,"endTime":220.079908125,"instrument":12,"program":47,"isDrum":false},{"pitch":48,"velocity":110,"startTime":219.99978,"endTime":220.079908125,"instrument":12,"program":47,"isDrum":false},{"pitch":36,"velocity":122,"startTime":220.19208749999999,"endTime":220.2642028125,"instrument":12,"program":47,"isDrum":false},{"pitch":48,"velocity":122,"startTime":220.19208749999999,"endTime":220.28022843749997,"instrument":12,"program":47,"isDrum":false},{"pitch":36,"velocity":122,"startTime":220.96131749999998,"endTime":221.05747125,"instrument":12,"program":47,"isDrum":false},{"pitch":48,"velocity":122,"startTime":220.96131749999998,"endTime":221.02541999999997,"instrument":12,"program":47,"isDrum":false},{"pitch":36,"velocity":118,"startTime":221.53824,"endTime":221.6103553125,"instrument":12,"program":47,"isDrum":false},{"pitch":48,"velocity":115,"startTime":221.53824,"endTime":221.6103553125,"instrument":12,"program":47,"isDrum":false},{"pitch":36,"velocity":121,"startTime":221.7305475,"endTime":221.8026628125,"instrument":12,"program":47,"isDrum":false},{"pitch":48,"velocity":122,"startTime":221.7305475,"endTime":221.8026628125,"instrument":12,"program":47,"isDrum":false},{"pitch":36,"velocity":122,"startTime":222.4997775,"endTime":222.61195687499998,"instrument":12,"program":47,"isDrum":false},{"pitch":48,"velocity":119,"startTime":222.4997775,"endTime":222.59593124999998,"instrument":12,"program":47,"isDrum":false},{"pitch":36,"velocity":107,"startTime":222.8843925,"endTime":222.94849499999998,"instrument":12,"program":47,"isDrum":false},{"pitch":48,"velocity":107,"startTime":222.8843925,"endTime":222.95650781249998,"instrument":12,"program":47,"isDrum":false},{"pitch":36,"velocity":108,"startTime":223.2690075,"endTime":223.31708437499998,"instrument":12,"program":47,"isDrum":false},{"pitch":48,"velocity":80,"startTime":223.46131499999998,"endTime":223.49336625,"instrument":12,"program":47,"isDrum":false},{"pitch":36,"velocity":110,"startTime":223.65362249999998,"endTime":223.71772499999997,"instrument":12,"program":47,"isDrum":false},{"pitch":48,"velocity":110,"startTime":223.65362249999998,"endTime":223.7257378125,"instrument":12,"program":47,"isDrum":false},{"pitch":36,"velocity":110,"startTime":224.03823749999998,"endTime":224.1103528125,"instrument":12,"program":47,"isDrum":false},{"pitch":48,"velocity":108,"startTime":224.03823749999998,"endTime":224.1103528125,"instrument":12,"program":47,"isDrum":false},{"pitch":36,"velocity":110,"startTime":224.4228525,"endTime":224.4949678125,"instrument":12,"program":47,"isDrum":false},{"pitch":48,"velocity":105,"startTime":224.4228525,"endTime":224.4949678125,"instrument":12,"program":47,"isDrum":false},{"pitch":36,"velocity":112,"startTime":224.8074675,"endTime":224.88759562500002,"instrument":12,"program":47,"isDrum":false},{"pitch":48,"velocity":112,"startTime":224.8074675,"endTime":224.8795828125,"instrument":12,"program":47,"isDrum":false},{"pitch":36,"velocity":116,"startTime":225.1920825,"endTime":225.24817218750002,"instrument":12,"program":47,"isDrum":false},{"pitch":48,"velocity":119,"startTime":225.1920825,"endTime":225.256185,"instrument":12,"program":47,"isDrum":false},{"pitch":47,"velocity":74,"startTime":225.769005,"endTime":225.785030625,"instrument":12,"program":47,"isDrum":false},{"pitch":48,"velocity":107,"startTime":225.769005,"endTime":225.8250946875,"instrument":12,"program":47,"isDrum":false},{"pitch":48,"velocity":98,"startTime":225.9613125,"endTime":225.96932531250002,"instrument":12,"program":47,"isDrum":false},{"pitch":48,"velocity":100,"startTime":226.15362,"endTime":226.20169687499998,"instrument":12,"program":47,"isDrum":false},{"pitch":48,"velocity":91,"startTime":226.3459275,"endTime":226.4020171875,"instrument":12,"program":47,"isDrum":false},{"pitch":48,"velocity":122,"startTime":226.538235,"endTime":226.5943246875,"instrument":12,"program":47,"isDrum":false},{"pitch":48,"velocity":118,"startTime":226.73054249999998,"endTime":226.7866321875,"instrument":12,"program":47,"isDrum":false},{"pitch":48,"velocity":117,"startTime":226.92284999999998,"endTime":226.9789396875,"instrument":12,"program":47,"isDrum":false},{"pitch":48,"velocity":90,"startTime":227.30746499999998,"endTime":227.3154778125,"instrument":12,"program":47,"isDrum":false},{"pitch":48,"velocity":89,"startTime":227.49977249999998,"endTime":227.5077853125,"instrument":12,"program":47,"isDrum":false},{"pitch":48,"velocity":86,"startTime":227.69208,"endTime":227.7204890625,"instrument":12,"program":47,"isDrum":false},{"pitch":48,"velocity":123,"startTime":227.7894825,"endTime":227.8422421875,"instrument":12,"program":47,"isDrum":false},{"pitch":48,"velocity":86,"startTime":227.886885,"endTime":227.9396446875,"instrument":12,"program":47,"isDrum":false},{"pitch":48,"velocity":91,"startTime":227.9842875,"endTime":228.03298875000002,"instrument":12,"program":47,"isDrum":false},{"pitch":48,"velocity":123,"startTime":228.08169,"endTime":228.13850812500002,"instrument":12,"program":47,"isDrum":false},{"pitch":48,"velocity":97,"startTime":228.1790925,"endTime":228.219676875,"instrument":12,"program":47,"isDrum":false},{"pitch":48,"velocity":123,"startTime":228.276495,"endTime":228.32519625,"instrument":12,"program":47,"isDrum":false},{"pitch":48,"velocity":122,"startTime":228.3738975,"endTime":228.4266571875,"instrument":12,"program":47,"isDrum":false},{"pitch":48,"velocity":123,"startTime":228.5687025,"endTime":228.62146218750001,"instrument":12,"program":47,"isDrum":false}],"totalTime":327.876795,"controlChanges":[{"time":0.9695503125,"controlNumber":0,"controlValue":0,"instrument":-1,"program":0,"isDrum":false},{"time":0.9775631249999999,"controlNumber":32,"controlValue":0,"instrument":-1,"program":0,"isDrum":false},{"time":0.6810890624999999,"controlNumber":121,"controlValue":0,"instrument":-1,"program":0,"isDrum":false},{"time":0.99358875,"controlNumber":7,"controlValue":123,"instrument":0,"program":60,"isDrum":false},{"time":0.99358875,"controlNumber":10,"controlValue":64,"instrument":0,"program":60,"isDrum":false},{"time":0.99358875,"controlNumber":11,"controlValue":100,"instrument":0,"program":60,"isDrum":false},{"time":1.0016015624999999,"controlNumber":91,"controlValue":127,"instrument":0,"program":60,"isDrum":false},{"time":1.0016015624999999,"controlNumber":93,"controlValue":60,"instrument":0,"program":60,"isDrum":false},{"time":329.03064,"controlNumber":120,"controlValue":0,"instrument":0,"program":60,"isDrum":false},{"time":329.0386528125,"controlNumber":123,"controlValue":0,"instrument":0,"program":60,"isDrum":false},{"time":0.92948625,"controlNumber":0,"controlValue":0,"instrument":0,"program":0,"isDrum":false},{"time":0.9374990624999999,"controlNumber":32,"controlValue":0,"instrument":0,"program":0,"isDrum":false},{"time":0.6730762499999999,"controlNumber":121,"controlValue":0,"instrument":0,"program":0,"isDrum":false},{"time":108.6938015625,"controlNumber":0,"controlValue":40,"instrument":1,"program":65,"isDrum":false},{"time":108.3412378125,"controlNumber":1,"controlValue":20,"instrument":1,"program":65,"isDrum":false},{"time":108.4053403125,"controlNumber":1,"controlValue":60,"instrument":1,"program":65,"isDrum":false},{"time":108.46944281249999,"controlNumber":1,"controlValue":76,"instrument":1,"program":65,"isDrum":false},{"time":108.5335453125,"controlNumber":1,"controlValue":82,"instrument":1,"program":65,"isDrum":false},{"time":108.5976478125,"controlNumber":1,"controlValue":100,"instrument":1,"program":65,"isDrum":false},{"time":108.66175031249999,"controlNumber":1,"controlValue":73,"instrument":1,"program":65,"isDrum":false},{"time":108.7258528125,"controlNumber":1,"controlValue":0,"instrument":1,"program":65,"isDrum":false},{"time":110.528735625,"controlNumber":1,"controlValue":11,"instrument":1,"program":65,"isDrum":false},{"time":110.592838125,"controlNumber":1,"controlValue":28,"instrument":1,"program":65,"isDrum":false},{"time":110.65694062499999,"controlNumber":1,"controlValue":41,"instrument":1,"program":65,"isDrum":false},{"time":110.721043125,"controlNumber":1,"controlValue":53,"instrument":1,"program":65,"isDrum":false},{"time":110.785145625,"controlNumber":1,"controlValue":75,"instrument":1,"program":65,"isDrum":false},{"time":110.8572609375,"controlNumber":1,"controlValue":77,"instrument":1,"program":65,"isDrum":false},{"time":110.9854659375,"controlNumber":1,"controlValue":86,"instrument":1,"program":65,"isDrum":false},{"time":111.0495684375,"controlNumber":1,"controlValue":96,"instrument":1,"program":65,"isDrum":false},{"time":111.18578624999999,"controlNumber":1,"controlValue":101,"instrument":1,"program":65,"isDrum":false},{"time":111.25790156249998,"controlNumber":1,"controlValue":97,"instrument":1,"program":65,"isDrum":false},{"time":111.3220040625,"controlNumber":1,"controlValue":61,"instrument":1,"program":65,"isDrum":false},{"time":111.3861065625,"controlNumber":1,"controlValue":0,"instrument":1,"program":65,"isDrum":false},{"time":114.0623859375,"controlNumber":1,"controlValue":1,"instrument":1,"program":65,"isDrum":false},{"time":114.1264884375,"controlNumber":1,"controlValue":33,"instrument":1,"program":65,"isDrum":false},{"time":114.19059093749999,"controlNumber":1,"controlValue":51,"instrument":1,"program":65,"isDrum":false},{"time":114.26270625,"controlNumber":1,"controlValue":76,"instrument":1,"program":65,"isDrum":false},{"time":114.32680875,"controlNumber":1,"controlValue":103,"instrument":1,"program":65,"isDrum":false},{"time":114.39091125,"controlNumber":1,"controlValue":121,"instrument":1,"program":65,"isDrum":false},{"time":114.45501374999999,"controlNumber":1,"controlValue":107,"instrument":1,"program":65,"isDrum":false},{"time":114.51911625,"controlNumber":1,"controlValue":65,"instrument":1,"program":65,"isDrum":false},{"time":114.58321875,"controlNumber":1,"controlValue":0,"instrument":1,"program":65,"isDrum":false},{"time":123.10885124999999,"controlNumber":1,"controlValue":9,"instrument":1,"program":65,"isDrum":false},{"time":123.17295374999999,"controlNumber":1,"controlValue":27,"instrument":1,"program":65,"isDrum":false},{"time":123.23705625000001,"controlNumber":1,"controlValue":51,"instrument":1,"program":65,"isDrum":false},{"time":123.30115874999998,"controlNumber":1,"controlValue":74,"instrument":1,"program":65,"isDrum":false},{"time":123.36526124999999,"controlNumber":1,"controlValue":80,"instrument":1,"program":65,"isDrum":false},{"time":123.42936375000001,"controlNumber":1,"controlValue":91,"instrument":1,"program":65,"isDrum":false},{"time":123.49346624999998,"controlNumber":1,"controlValue":115,"instrument":1,"program":65,"isDrum":false},{"time":123.55756875,"controlNumber":1,"controlValue":126,"instrument":1,"program":65,"isDrum":false},{"time":123.62167125,"controlNumber":1,"controlValue":116,"instrument":1,"program":65,"isDrum":false},{"time":123.68577374999998,"controlNumber":1,"controlValue":78,"instrument":1,"program":65,"isDrum":false},{"time":123.74987625,"controlNumber":1,"controlValue":0,"instrument":1,"program":65,"isDrum":false},{"time":128.862050625,"controlNumber":1,"controlValue":12,"instrument":1,"program":65,"isDrum":false},{"time":128.92615312499998,"controlNumber":1,"controlValue":38,"instrument":1,"program":65,"isDrum":false},{"time":128.990255625,"controlNumber":1,"controlValue":55,"instrument":1,"program":65,"isDrum":false},{"time":129.054358125,"controlNumber":1,"controlValue":71,"instrument":1,"program":65,"isDrum":false},{"time":129.11846062499998,"controlNumber":1,"controlValue":83,"instrument":1,"program":65,"isDrum":false},{"time":129.182563125,"controlNumber":1,"controlValue":97,"instrument":1,"program":65,"isDrum":false},{"time":129.246665625,"controlNumber":1,"controlValue":109,"instrument":1,"program":65,"isDrum":false},{"time":129.31076812499998,"controlNumber":1,"controlValue":119,"instrument":1,"program":65,"isDrum":false},{"time":129.374870625,"controlNumber":1,"controlValue":127,"instrument":1,"program":65,"isDrum":false},{"time":129.6553190625,"controlNumber":1,"controlValue":126,"instrument":1,"program":65,"isDrum":false},{"time":129.71942156249997,"controlNumber":1,"controlValue":68,"instrument":1,"program":65,"isDrum":false},{"time":129.7835240625,"controlNumber":1,"controlValue":0,"instrument":1,"program":65,"isDrum":false},{"time":132.0110859375,"controlNumber":1,"controlValue":12,"instrument":1,"program":65,"isDrum":false},{"time":132.07518843749997,"controlNumber":1,"controlValue":32,"instrument":1,"program":65,"isDrum":false},{"time":132.1392909375,"controlNumber":1,"controlValue":45,"instrument":1,"program":65,"isDrum":false},{"time":132.2033934375,"controlNumber":1,"controlValue":53,"instrument":1,"program":65,"isDrum":false},{"time":132.2674959375,"controlNumber":1,"controlValue":65,"instrument":1,"program":65,"isDrum":false},{"time":132.3315984375,"controlNumber":1,"controlValue":77,"instrument":1,"program":65,"isDrum":false},{"time":132.3957009375,"controlNumber":1,"controlValue":88,"instrument":1,"program":65,"isDrum":false},{"time":132.4598034375,"controlNumber":1,"controlValue":96,"instrument":1,"program":65,"isDrum":false},{"time":132.5239059375,"controlNumber":1,"controlValue":101,"instrument":1,"program":65,"isDrum":false},{"time":132.5880084375,"controlNumber":1,"controlValue":101,"instrument":1,"program":65,"isDrum":false},{"time":132.74826468749998,"controlNumber":1,"controlValue":103,"instrument":1,"program":65,"isDrum":false},{"time":132.8283928125,"controlNumber":1,"controlValue":101,"instrument":1,"program":65,"isDrum":false},{"time":132.8924953125,"controlNumber":1,"controlValue":94,"instrument":1,"program":65,"isDrum":false},{"time":132.9565978125,"controlNumber":1,"controlValue":86,"instrument":1,"program":65,"isDrum":false},{"time":133.0207003125,"controlNumber":1,"controlValue":65,"instrument":1,"program":65,"isDrum":false},{"time":133.0848028125,"controlNumber":1,"controlValue":0,"instrument":1,"program":65,"isDrum":false},{"time":134.695378125,"controlNumber":1,"controlValue":1,"instrument":1,"program":65,"isDrum":false},{"time":134.76749343749998,"controlNumber":1,"controlValue":7,"instrument":1,"program":65,"isDrum":false},{"time":134.8315959375,"controlNumber":1,"controlValue":15,"instrument":1,"program":65,"isDrum":false},{"time":134.90371125,"controlNumber":1,"controlValue":22,"instrument":1,"program":65,"isDrum":false},{"time":134.9758265625,"controlNumber":1,"controlValue":28,"instrument":1,"program":65,"isDrum":false},{"time":135.047941875,"controlNumber":1,"controlValue":36,"instrument":1,"program":65,"isDrum":false},{"time":135.112044375,"controlNumber":1,"controlValue":46,"instrument":1,"program":65,"isDrum":false},{"time":135.176146875,"controlNumber":1,"controlValue":60,"instrument":1,"program":65,"isDrum":false},{"time":135.240249375,"controlNumber":1,"controlValue":65,"instrument":1,"program":65,"isDrum":false},{"time":135.304351875,"controlNumber":1,"controlValue":68,"instrument":1,"program":65,"isDrum":false},{"time":135.368454375,"controlNumber":1,"controlValue":78,"instrument":1,"program":65,"isDrum":false},{"time":135.432556875,"controlNumber":1,"controlValue":94,"instrument":1,"program":65,"isDrum":false},{"time":135.496659375,"controlNumber":1,"controlValue":109,"instrument":1,"program":65,"isDrum":false},{"time":135.560761875,"controlNumber":1,"controlValue":114,"instrument":1,"program":65,"isDrum":false},{"time":135.65691562499998,"controlNumber":1,"controlValue":108,"instrument":1,"program":65,"isDrum":false},{"time":135.721018125,"controlNumber":1,"controlValue":94,"instrument":1,"program":65,"isDrum":false},{"time":135.785120625,"controlNumber":1,"controlValue":83,"instrument":1,"program":65,"isDrum":false},{"time":135.8572359375,"controlNumber":1,"controlValue":51,"instrument":1,"program":65,"isDrum":false},{"time":135.9213384375,"controlNumber":1,"controlValue":0,"instrument":1,"program":65,"isDrum":false},{"time":138.78191249999998,"controlNumber":1,"controlValue":33,"instrument":1,"program":65,"isDrum":false},{"time":138.846015,"controlNumber":1,"controlValue":59,"instrument":1,"program":65,"isDrum":false},{"time":138.9101175,"controlNumber":1,"controlValue":74,"instrument":1,"program":65,"isDrum":false},{"time":138.97421999999997,"controlNumber":1,"controlValue":85,"instrument":1,"program":65,"isDrum":false},{"time":139.0383225,"controlNumber":1,"controlValue":99,"instrument":1,"program":65,"isDrum":false},{"time":139.102425,"controlNumber":1,"controlValue":112,"instrument":1,"program":65,"isDrum":false},{"time":139.1665275,"controlNumber":1,"controlValue":120,"instrument":1,"program":65,"isDrum":false},{"time":139.28671968749998,"controlNumber":1,"controlValue":126,"instrument":1,"program":65,"isDrum":false},{"time":139.358835,"controlNumber":1,"controlValue":125,"instrument":1,"program":65,"isDrum":false},{"time":139.4229375,"controlNumber":1,"controlValue":96,"instrument":1,"program":65,"isDrum":false},{"time":139.48704,"controlNumber":1,"controlValue":50,"instrument":1,"program":65,"isDrum":false},{"time":139.5511425,"controlNumber":1,"controlValue":0,"instrument":1,"program":65,"isDrum":false},{"time":143.62966406249998,"controlNumber":1,"controlValue":2,"instrument":1,"program":65,"isDrum":false},{"time":143.6937665625,"controlNumber":1,"controlValue":17,"instrument":1,"program":65,"isDrum":false},{"time":143.7578690625,"controlNumber":1,"controlValue":24,"instrument":1,"program":65,"isDrum":false},{"time":143.82197156249998,"controlNumber":1,"controlValue":31,"instrument":1,"program":65,"isDrum":false},{"time":143.894086875,"controlNumber":1,"controlValue":45,"instrument":1,"program":65,"isDrum":false},{"time":143.958189375,"controlNumber":1,"controlValue":62,"instrument":1,"program":65,"isDrum":false},{"time":144.02229187499998,"controlNumber":1,"controlValue":86,"instrument":1,"program":65,"isDrum":false},{"time":144.086394375,"controlNumber":1,"controlValue":98,"instrument":1,"program":65,"isDrum":false},{"time":144.1585096875,"controlNumber":1,"controlValue":106,"instrument":1,"program":65,"isDrum":false},{"time":144.2226121875,"controlNumber":1,"controlValue":120,"instrument":1,"program":65,"isDrum":false},{"time":144.2867146875,"controlNumber":1,"controlValue":127,"instrument":1,"program":65,"isDrum":false},{"time":145.721008125,"controlNumber":1,"controlValue":119,"instrument":1,"program":65,"isDrum":false},{"time":146.4742125,"controlNumber":1,"controlValue":123,"instrument":1,"program":65,"isDrum":false},{"time":146.971006875,"controlNumber":1,"controlValue":125,"instrument":1,"program":65,"isDrum":false},{"time":147.1072246875,"controlNumber":1,"controlValue":127,"instrument":1,"program":65,"isDrum":false},{"time":147.387673125,"controlNumber":1,"controlValue":124,"instrument":1,"program":65,"isDrum":false},{"time":147.45978843749998,"controlNumber":1,"controlValue":120,"instrument":1,"program":65,"isDrum":false},{"time":147.53190375,"controlNumber":1,"controlValue":107,"instrument":1,"program":65,"isDrum":false},{"time":147.59600625,"controlNumber":1,"controlValue":66,"instrument":1,"program":65,"isDrum":false},{"time":147.66010875,"controlNumber":1,"controlValue":0,"instrument":1,"program":65,"isDrum":false},{"time":238.6539196875,"controlNumber":1,"controlValue":11,"instrument":1,"program":65,"isDrum":false},{"time":238.690445625,"controlNumber":1,"controlValue":35,"instrument":1,"program":65,"isDrum":false},{"time":238.722913125,"controlNumber":1,"controlValue":53,"instrument":1,"program":65,"isDrum":false},{"time":238.75538062500002,"controlNumber":1,"controlValue":75,"instrument":1,"program":65,"isDrum":false},{"time":238.787848125,"controlNumber":1,"controlValue":96,"instrument":1,"program":65,"isDrum":false},{"time":238.820315625,"controlNumber":1,"controlValue":110,"instrument":1,"program":65,"isDrum":false},{"time":238.8568415625,"controlNumber":1,"controlValue":124,"instrument":1,"program":65,"isDrum":false},{"time":238.901484375,"controlNumber":1,"controlValue":127,"instrument":1,"program":65,"isDrum":false},{"time":239.2464515625,"controlNumber":1,"controlValue":121,"instrument":1,"program":65,"isDrum":false},{"time":239.28297750000002,"controlNumber":1,"controlValue":108,"instrument":1,"program":65,"isDrum":false},{"time":239.315445,"controlNumber":1,"controlValue":89,"instrument":1,"program":65,"isDrum":false},{"time":239.3479125,"controlNumber":1,"controlValue":51,"instrument":1,"program":65,"isDrum":false},{"time":239.38038,"controlNumber":1,"controlValue":0,"instrument":1,"program":65,"isDrum":false},{"time":240.3259959375,"controlNumber":1,"controlValue":2,"instrument":1,"program":65,"isDrum":false},{"time":240.4071646875,"controlNumber":1,"controlValue":0,"instrument":1,"program":65,"isDrum":false},{"time":0.9535246874999999,"controlNumber":7,"controlValue":123,"instrument":1,"program":65,"isDrum":false},{"time":0.9535246874999999,"controlNumber":10,"controlValue":64,"instrument":1,"program":65,"isDrum":false},{"time":0.9535246874999999,"controlNumber":11,"controlValue":110,"instrument":1,"program":65,"isDrum":false},{"time":0.9615374999999999,"controlNumber":91,"controlValue":127,"instrument":1,"program":65,"isDrum":false},{"time":0.9615374999999999,"controlNumber":93,"controlValue":20,"instrument":1,"program":65,"isDrum":false},{"time":329.03064,"controlNumber":120,"controlValue":0,"instrument":1,"program":65,"isDrum":false},{"time":329.0386528125,"controlNumber":123,"controlValue":0,"instrument":1,"program":65,"isDrum":false},{"time":0.76923,"controlNumber":0,"controlValue":0,"instrument":2,"program":0,"isDrum":false},{"time":0.7932684375,"controlNumber":7,"controlValue":123,"instrument":2,"program":0,"isDrum":false},{"time":0.7932684375,"controlNumber":10,"controlValue":64,"instrument":2,"program":0,"isDrum":false},{"time":0.7932684375,"controlNumber":11,"controlValue":110,"instrument":2,"program":0,"isDrum":false},{"time":0.7772428125,"controlNumber":32,"controlValue":0,"instrument":2,"program":0,"isDrum":false},{"time":0.8012812500000001,"controlNumber":91,"controlValue":127,"instrument":2,"program":0,"isDrum":false},{"time":229.185585,"controlNumber":91,"controlValue":60,"instrument":2,"program":0,"isDrum":false},{"time":262.6595775,"controlNumber":91,"controlValue":127,"instrument":2,"program":0,"isDrum":false},{"time":0.8012812500000001,"controlNumber":93,"controlValue":0,"instrument":2,"program":0,"isDrum":false},{"time":329.03064,"controlNumber":120,"controlValue":0,"instrument":2,"program":0,"isDrum":false},{"time":0.641025,"controlNumber":121,"controlValue":0,"instrument":2,"program":0,"isDrum":false},{"time":329.0386528125,"controlNumber":123,"controlValue":0,"instrument":2,"program":0,"isDrum":false},{"time":0.8092940624999999,"controlNumber":0,"controlValue":0,"instrument":2,"program":0,"isDrum":false},{"time":0.817306875,"controlNumber":32,"controlValue":0,"instrument":2,"program":0,"isDrum":false},{"time":0.6490378124999999,"controlNumber":121,"controlValue":0,"instrument":2,"program":0,"isDrum":false},{"time":0.8333324999999999,"controlNumber":7,"controlValue":123,"instrument":3,"program":33,"isDrum":false},{"time":0.8333324999999999,"controlNumber":10,"controlValue":64,"instrument":3,"program":33,"isDrum":false},{"time":0.8333324999999999,"controlNumber":11,"controlValue":110,"instrument":3,"program":33,"isDrum":false},{"time":0.8413453125,"controlNumber":91,"controlValue":0,"instrument":3,"program":33,"isDrum":false},{"time":0.8413453125,"controlNumber":93,"controlValue":60,"instrument":3,"program":33,"isDrum":false},{"time":329.03064,"controlNumber":120,"controlValue":0,"instrument":3,"program":33,"isDrum":false},{"time":329.0386528125,"controlNumber":123,"controlValue":0,"instrument":3,"program":33,"isDrum":false},{"time":0.8493581250000001,"controlNumber":0,"controlValue":0,"instrument":3,"program":0,"isDrum":false},{"time":0.8573709374999999,"controlNumber":32,"controlValue":0,"instrument":3,"program":0,"isDrum":false},{"time":0.657050625,"controlNumber":121,"controlValue":0,"instrument":3,"program":0,"isDrum":false},{"time":0.8733965625,"controlNumber":7,"controlValue":123,"instrument":4,"program":48,"isDrum":false},{"time":0.8733965625,"controlNumber":10,"controlValue":100,"instrument":4,"program":48,"isDrum":false},{"time":0.8733965625,"controlNumber":11,"controlValue":80,"instrument":4,"program":48,"isDrum":false},{"time":0.8814093749999999,"controlNumber":91,"controlValue":127,"instrument":4,"program":48,"isDrum":false},{"time":0.8814093749999999,"controlNumber":93,"controlValue":20,"instrument":4,"program":48,"isDrum":false},{"time":329.03064,"controlNumber":120,"controlValue":0,"instrument":4,"program":48,"isDrum":false},{"time":329.0386528125,"controlNumber":123,"controlValue":0,"instrument":4,"program":48,"isDrum":false},{"time":0.8894221875,"controlNumber":0,"controlValue":0,"instrument":4,"program":0,"isDrum":false},{"time":0.897435,"controlNumber":32,"controlValue":0,"instrument":4,"program":0,"isDrum":false},{"time":0.6650634375,"controlNumber":121,"controlValue":0,"instrument":4,"program":0,"isDrum":false},{"time":0.9134606249999999,"controlNumber":7,"controlValue":123,"instrument":5,"program":52,"isDrum":false},{"time":0.9134606249999999,"controlNumber":10,"controlValue":20,"instrument":5,"program":52,"isDrum":false},{"time":0.9134606249999999,"controlNumber":11,"controlValue":95,"instrument":5,"program":52,"isDrum":false},{"time":0.9214734375,"controlNumber":91,"controlValue":127,"instrument":5,"program":52,"isDrum":false},{"time":0.9214734375,"controlNumber":93,"controlValue":0,"instrument":5,"program":52,"isDrum":false},{"time":329.03064,"controlNumber":120,"controlValue":0,"instrument":5,"program":52,"isDrum":false},{"time":329.0386528125,"controlNumber":123,"controlValue":0,"instrument":5,"program":52,"isDrum":false},{"time":1.009614375,"controlNumber":0,"controlValue":0,"instrument":5,"program":0,"isDrum":false},{"time":1.0176271875,"controlNumber":32,"controlValue":0,"instrument":5,"program":0,"isDrum":false},{"time":0.689101875,"controlNumber":121,"controlValue":0,"instrument":5,"program":0,"isDrum":false},{"time":1.0336528125,"controlNumber":7,"controlValue":123,"instrument":6,"program":62,"isDrum":false},{"time":1.0336528125,"controlNumber":10,"controlValue":110,"instrument":6,"program":62,"isDrum":false},{"time":1.0336528125,"controlNumber":11,"controlValue":110,"instrument":6,"program":62,"isDrum":false},{"time":1.041665625,"controlNumber":91,"controlValue":127,"instrument":6,"program":62,"isDrum":false},{"time":1.041665625,"controlNumber":93,"controlValue":60,"instrument":6,"program":62,"isDrum":false},{"time":329.03064,"controlNumber":120,"controlValue":0,"instrument":6,"program":62,"isDrum":false},{"time":329.0386528125,"controlNumber":123,"controlValue":0,"instrument":6,"program":62,"isDrum":false},{"time":1.0496784375,"controlNumber":0,"controlValue":0,"instrument":6,"program":0,"isDrum":false},{"time":1.05769125,"controlNumber":32,"controlValue":0,"instrument":6,"program":0,"isDrum":false},{"time":0.6971146874999999,"controlNumber":121,"controlValue":0,"instrument":6,"program":0,"isDrum":false},{"time":1.073716875,"controlNumber":7,"controlValue":123,"instrument":7,"program":69,"isDrum":false},{"time":1.073716875,"controlNumber":10,"controlValue":10,"instrument":7,"program":69,"isDrum":false},{"time":1.073716875,"controlNumber":11,"controlValue":90,"instrument":7,"program":69,"isDrum":false},{"time":1.0817296875,"controlNumber":91,"controlValue":127,"instrument":7,"program":69,"isDrum":false},{"time":1.0817296875,"controlNumber":93,"controlValue":40,"instrument":7,"program":69,"isDrum":false},{"time":329.03064,"controlNumber":120,"controlValue":0,"instrument":7,"program":69,"isDrum":false},{"time":1.0897425,"controlNumber":0,"controlValue":0,"instrument":7,"program":0,"isDrum":false},{"time":1.0977553125,"controlNumber":32,"controlValue":0,"instrument":7,"program":0,"isDrum":false},{"time":0.7051274999999999,"controlNumber":121,"controlValue":0,"instrument":7,"program":0,"isDrum":false},{"time":145.0559446875,"controlNumber":1,"controlValue":14,"instrument":8,"program":30,"isDrum":false},{"time":145.1200471875,"controlNumber":1,"controlValue":52,"instrument":8,"program":30,"isDrum":false},{"time":145.1841496875,"controlNumber":1,"controlValue":84,"instrument":8,"program":30,"isDrum":false},{"time":145.2482521875,"controlNumber":1,"controlValue":95,"instrument":8,"program":30,"isDrum":false},{"time":145.3123546875,"controlNumber":1,"controlValue":101,"instrument":8,"program":30,"isDrum":false},{"time":145.38447,"controlNumber":1,"controlValue":114,"instrument":8,"program":30,"isDrum":false},{"time":145.4485725,"controlNumber":1,"controlValue":127,"instrument":8,"program":30,"isDrum":false},{"time":145.5687646875,"controlNumber":1,"controlValue":111,"instrument":8,"program":30,"isDrum":false},{"time":145.63286718749998,"controlNumber":1,"controlValue":75,"instrument":8,"program":30,"isDrum":false},{"time":145.6969696875,"controlNumber":1,"controlValue":0,"instrument":8,"program":30,"isDrum":false},{"time":146.6104303125,"controlNumber":1,"controlValue":5,"instrument":8,"program":30,"isDrum":false},{"time":146.6745328125,"controlNumber":1,"controlValue":14,"instrument":8,"program":30,"isDrum":false},{"time":146.73863531249998,"controlNumber":1,"controlValue":23,"instrument":8,"program":30,"isDrum":false},{"time":146.8027378125,"controlNumber":1,"controlValue":31,"instrument":8,"program":30,"isDrum":false},{"time":146.8668403125,"controlNumber":1,"controlValue":41,"instrument":8,"program":30,"isDrum":false},{"time":146.93094281249998,"controlNumber":1,"controlValue":51,"instrument":8,"program":30,"isDrum":false},{"time":146.9950453125,"controlNumber":1,"controlValue":60,"instrument":8,"program":30,"isDrum":false},{"time":147.05914781250002,"controlNumber":1,"controlValue":72,"instrument":8,"program":30,"isDrum":false},{"time":147.12325031249998,"controlNumber":1,"controlValue":86,"instrument":8,"program":30,"isDrum":false},{"time":147.1873528125,"controlNumber":1,"controlValue":100,"instrument":8,"program":30,"isDrum":false},{"time":147.25946812499998,"controlNumber":1,"controlValue":98,"instrument":8,"program":30,"isDrum":false},{"time":147.323570625,"controlNumber":1,"controlValue":66,"instrument":8,"program":30,"isDrum":false},{"time":147.387673125,"controlNumber":1,"controlValue":0,"instrument":8,"program":30,"isDrum":false},{"time":149.58318375,"controlNumber":1,"controlValue":1,"instrument":8,"program":30,"isDrum":false},{"time":149.64728624999998,"controlNumber":1,"controlValue":13,"instrument":8,"program":30,"isDrum":false},{"time":149.71138875,"controlNumber":1,"controlValue":31,"instrument":8,"program":30,"isDrum":false},{"time":149.77549125,"controlNumber":1,"controlValue":43,"instrument":8,"program":30,"isDrum":false},{"time":149.8476065625,"controlNumber":1,"controlValue":47,"instrument":8,"program":30,"isDrum":false},{"time":149.9117090625,"controlNumber":1,"controlValue":52,"instrument":8,"program":30,"isDrum":false},{"time":149.98382437499998,"controlNumber":1,"controlValue":59,"instrument":8,"program":30,"isDrum":false},{"time":150.047926875,"controlNumber":1,"controlValue":69,"instrument":8,"program":30,"isDrum":false},{"time":150.112029375,"controlNumber":1,"controlValue":80,"instrument":8,"program":30,"isDrum":false},{"time":150.17613187499998,"controlNumber":1,"controlValue":86,"instrument":8,"program":30,"isDrum":false},{"time":150.2642728125,"controlNumber":1,"controlValue":83,"instrument":8,"program":30,"isDrum":false},{"time":150.32837531250001,"controlNumber":1,"controlValue":50,"instrument":8,"program":30,"isDrum":false},{"time":150.39247781249998,"controlNumber":1,"controlValue":0,"instrument":8,"program":30,"isDrum":false},{"time":154.87164,"controlNumber":1,"controlValue":4,"instrument":8,"program":30,"isDrum":false},{"time":154.93574249999998,"controlNumber":1,"controlValue":38,"instrument":8,"program":30,"isDrum":false},{"time":154.999845,"controlNumber":1,"controlValue":59,"instrument":8,"program":30,"isDrum":false},{"time":155.0639475,"controlNumber":1,"controlValue":84,"instrument":8,"program":30,"isDrum":false},{"time":155.12804999999997,"controlNumber":1,"controlValue":107,"instrument":8,"program":30,"isDrum":false},{"time":155.1921525,"controlNumber":1,"controlValue":120,"instrument":8,"program":30,"isDrum":false},{"time":155.256255,"controlNumber":1,"controlValue":117,"instrument":8,"program":30,"isDrum":false},{"time":155.3203575,"controlNumber":1,"controlValue":85,"instrument":8,"program":30,"isDrum":false},{"time":155.3924728125,"controlNumber":1,"controlValue":0,"instrument":8,"program":30,"isDrum":false},{"time":156.8187534375,"controlNumber":1,"controlValue":6,"instrument":8,"program":30,"isDrum":false},{"time":156.88285593749998,"controlNumber":1,"controlValue":18,"instrument":8,"program":30,"isDrum":false},{"time":156.9469584375,"controlNumber":1,"controlValue":38,"instrument":8,"program":30,"isDrum":false},{"time":157.0110609375,"controlNumber":1,"controlValue":65,"instrument":8,"program":30,"isDrum":false},{"time":157.07516343749998,"controlNumber":1,"controlValue":84,"instrument":8,"program":30,"isDrum":false},{"time":157.1392659375,"controlNumber":1,"controlValue":68,"instrument":8,"program":30,"isDrum":false},{"time":157.2033684375,"controlNumber":1,"controlValue":0,"instrument":8,"program":30,"isDrum":false},{"time":159.28669968749998,"controlNumber":1,"controlValue":6,"instrument":8,"program":30,"isDrum":false},{"time":159.3508021875,"controlNumber":1,"controlValue":28,"instrument":8,"program":30,"isDrum":false},{"time":159.4149046875,"controlNumber":1,"controlValue":79,"instrument":8,"program":30,"isDrum":false},{"time":159.47900718749997,"controlNumber":1,"controlValue":100,"instrument":8,"program":30,"isDrum":false},{"time":159.5431096875,"controlNumber":1,"controlValue":112,"instrument":8,"program":30,"isDrum":false},{"time":159.631250625,"controlNumber":1,"controlValue":82,"instrument":8,"program":30,"isDrum":false},{"time":159.695353125,"controlNumber":1,"controlValue":0,"instrument":8,"program":30,"isDrum":false},{"time":1.1137809375,"controlNumber":7,"controlValue":123,"instrument":8,"program":30,"isDrum":false},{"time":1.1137809375,"controlNumber":10,"controlValue":127,"instrument":8,"program":30,"isDrum":false},{"time":1.1137809375,"controlNumber":11,"controlValue":90,"instrument":8,"program":30,"isDrum":false},{"time":1.12179375,"controlNumber":91,"controlValue":127,"instrument":8,"program":30,"isDrum":false},{"time":1.12179375,"controlNumber":93,"controlValue":50,"instrument":8,"program":30,"isDrum":false},{"time":329.03064,"controlNumber":120,"controlValue":0,"instrument":8,"program":30,"isDrum":false},{"time":1.2099346875,"controlNumber":0,"controlValue":0,"instrument":8,"program":0,"isDrum":false},{"time":1.2179475,"controlNumber":32,"controlValue":0,"instrument":8,"program":0,"isDrum":false},{"time":0.7291659374999999,"controlNumber":121,"controlValue":0,"instrument":8,"program":0,"isDrum":false},{"time":145.44055968749998,"controlNumber":1,"controlValue":14,"instrument":9,"program":30,"isDrum":false},{"time":145.5046621875,"controlNumber":1,"controlValue":52,"instrument":9,"program":30,"isDrum":false},{"time":145.5687646875,"controlNumber":1,"controlValue":84,"instrument":9,"program":30,"isDrum":false},{"time":145.63286718749998,"controlNumber":1,"controlValue":95,"instrument":9,"program":30,"isDrum":false},{"time":145.6969696875,"controlNumber":1,"controlValue":101,"instrument":9,"program":30,"isDrum":false},{"time":145.769085,"controlNumber":1,"controlValue":114,"instrument":9,"program":30,"isDrum":false},{"time":145.8331875,"controlNumber":1,"controlValue":127,"instrument":9,"program":30,"isDrum":false},{"time":145.9533796875,"controlNumber":1,"controlValue":111,"instrument":9,"program":30,"isDrum":false},{"time":146.01748218749998,"controlNumber":1,"controlValue":75,"instrument":9,"program":30,"isDrum":false},{"time":146.0815846875,"controlNumber":1,"controlValue":0,"instrument":9,"program":30,"isDrum":false},{"time":146.9950453125,"controlNumber":1,"controlValue":5,"instrument":9,"program":30,"isDrum":false},{"time":147.05914781250002,"controlNumber":1,"controlValue":14,"instrument":9,"program":30,"isDrum":false},{"time":147.12325031249998,"controlNumber":1,"controlValue":23,"instrument":9,"program":30,"isDrum":false},{"time":147.1873528125,"controlNumber":1,"controlValue":31,"instrument":9,"program":30,"isDrum":false},{"time":147.2514553125,"controlNumber":1,"controlValue":41,"instrument":9,"program":30,"isDrum":false},{"time":147.31555781249997,"controlNumber":1,"controlValue":51,"instrument":9,"program":30,"isDrum":false},{"time":147.3796603125,"controlNumber":1,"controlValue":60,"instrument":9,"program":30,"isDrum":false},{"time":147.4437628125,"controlNumber":1,"controlValue":72,"instrument":9,"program":30,"isDrum":false},{"time":147.50786531249997,"controlNumber":1,"controlValue":86,"instrument":9,"program":30,"isDrum":false},{"time":147.5719678125,"controlNumber":1,"controlValue":100,"instrument":9,"program":30,"isDrum":false},{"time":147.64408312499998,"controlNumber":1,"controlValue":98,"instrument":9,"program":30,"isDrum":false},{"time":147.708185625,"controlNumber":1,"controlValue":66,"instrument":9,"program":30,"isDrum":false},{"time":147.772288125,"controlNumber":1,"controlValue":0,"instrument":9,"program":30,"isDrum":false},{"time":149.96779875000001,"controlNumber":1,"controlValue":1,"instrument":9,"program":30,"isDrum":false},{"time":150.03190124999998,"controlNumber":1,"controlValue":13,"instrument":9,"program":30,"isDrum":false},{"time":150.09600375,"controlNumber":1,"controlValue":31,"instrument":9,"program":30,"isDrum":false},{"time":150.16010625,"controlNumber":1,"controlValue":43,"instrument":9,"program":30,"isDrum":false},{"time":150.2322215625,"controlNumber":1,"controlValue":47,"instrument":9,"program":30,"isDrum":false},{"time":150.2963240625,"controlNumber":1,"controlValue":52,"instrument":9,"program":30,"isDrum":false},{"time":150.36843937499998,"controlNumber":1,"controlValue":59,"instrument":9,"program":30,"isDrum":false},{"time":150.432541875,"controlNumber":1,"controlValue":69,"instrument":9,"program":30,"isDrum":false},{"time":150.496644375,"controlNumber":1,"controlValue":80,"instrument":9,"program":30,"isDrum":false},{"time":150.56074687499998,"controlNumber":1,"controlValue":86,"instrument":9,"program":30,"isDrum":false},{"time":150.6488878125,"controlNumber":1,"controlValue":83,"instrument":9,"program":30,"isDrum":false},{"time":150.7129903125,"controlNumber":1,"controlValue":50,"instrument":9,"program":30,"isDrum":false},{"time":150.77709281249997,"controlNumber":1,"controlValue":0,"instrument":9,"program":30,"isDrum":false},{"time":155.256255,"controlNumber":1,"controlValue":4,"instrument":9,"program":30,"isDrum":false},{"time":155.3203575,"controlNumber":1,"controlValue":38,"instrument":9,"program":30,"isDrum":false},{"time":155.38446,"controlNumber":1,"controlValue":59,"instrument":9,"program":30,"isDrum":false},{"time":155.4485625,"controlNumber":1,"controlValue":84,"instrument":9,"program":30,"isDrum":false},{"time":155.512665,"controlNumber":1,"controlValue":107,"instrument":9,"program":30,"isDrum":false},{"time":155.5767675,"controlNumber":1,"controlValue":120,"instrument":9,"program":30,"isDrum":false},{"time":155.6488828125,"controlNumber":1,"controlValue":114,"instrument":9,"program":30,"isDrum":false},{"time":155.7129853125,"controlNumber":1,"controlValue":80,"instrument":9,"program":30,"isDrum":false},{"time":155.77708781249999,"controlNumber":1,"controlValue":0,"instrument":9,"program":30,"isDrum":false},{"time":157.2033684375,"controlNumber":1,"controlValue":6,"instrument":9,"program":30,"isDrum":false},{"time":157.26747093749998,"controlNumber":1,"controlValue":18,"instrument":9,"program":30,"isDrum":false},{"time":157.3315734375,"controlNumber":1,"controlValue":38,"instrument":9,"program":30,"isDrum":false},{"time":157.3956759375,"controlNumber":1,"controlValue":65,"instrument":9,"program":30,"isDrum":false},{"time":157.45977843749998,"controlNumber":1,"controlValue":84,"instrument":9,"program":30,"isDrum":false},{"time":157.5238809375,"controlNumber":1,"controlValue":68,"instrument":9,"program":30,"isDrum":false},{"time":157.58798343750001,"controlNumber":1,"controlValue":0,"instrument":9,"program":30,"isDrum":false},{"time":159.67131468749997,"controlNumber":1,"controlValue":6,"instrument":9,"program":30,"isDrum":false},{"time":159.7354171875,"controlNumber":1,"controlValue":28,"instrument":9,"program":30,"isDrum":false},{"time":159.7995196875,"controlNumber":1,"controlValue":79,"instrument":9,"program":30,"isDrum":false},{"time":159.8636221875,"controlNumber":1,"controlValue":100,"instrument":9,"program":30,"isDrum":false},{"time":159.9277246875,"controlNumber":1,"controlValue":112,"instrument":9,"program":30,"isDrum":false},{"time":160.015865625,"controlNumber":1,"controlValue":82,"instrument":9,"program":30,"isDrum":false},{"time":160.079968125,"controlNumber":1,"controlValue":0,"instrument":9,"program":30,"isDrum":false},{"time":1.2339731250000001,"controlNumber":7,"controlValue":123,"instrument":9,"program":30,"isDrum":false},{"time":1.2339731250000001,"controlNumber":10,"controlValue":0,"instrument":9,"program":30,"isDrum":false},{"time":1.2339731250000001,"controlNumber":11,"controlValue":90,"instrument":9,"program":30,"isDrum":false},{"time":1.2419859375,"controlNumber":91,"controlValue":127,"instrument":9,"program":30,"isDrum":false},{"time":1.2419859375,"controlNumber":93,"controlValue":0,"instrument":9,"program":30,"isDrum":false},{"time":329.03064,"controlNumber":120,"controlValue":0,"instrument":9,"program":30,"isDrum":false},{"time":329.0386528125,"controlNumber":123,"controlValue":0,"instrument":9,"program":30,"isDrum":false},{"time":1.24999875,"controlNumber":0,"controlValue":0,"instrument":9,"program":0,"isDrum":false},{"time":1.2580115625,"controlNumber":32,"controlValue":0,"instrument":9,"program":0,"isDrum":false},{"time":0.73717875,"controlNumber":121,"controlValue":0,"instrument":9,"program":0,"isDrum":false},{"time":1.2740371875,"controlNumber":7,"controlValue":123,"instrument":10,"program":55,"isDrum":false},{"time":1.2740371875,"controlNumber":10,"controlValue":64,"instrument":10,"program":55,"isDrum":false},{"time":1.2740371875,"controlNumber":11,"controlValue":110,"instrument":10,"program":55,"isDrum":false},{"time":1.28205,"controlNumber":91,"controlValue":126,"instrument":10,"program":55,"isDrum":false},{"time":1.28205,"controlNumber":93,"controlValue":0,"instrument":10,"program":55,"isDrum":false},{"time":329.03064,"controlNumber":120,"controlValue":0,"instrument":10,"program":55,"isDrum":false},{"time":329.0386528125,"controlNumber":123,"controlValue":0,"instrument":10,"program":55,"isDrum":false},{"time":1.1298065625,"controlNumber":0,"controlValue":0,"instrument":11,"program":0,"isDrum":true},{"time":1.153845,"controlNumber":7,"controlValue":123,"instrument":11,"program":0,"isDrum":true},{"time":1.153845,"controlNumber":10,"controlValue":64,"instrument":11,"program":0,"isDrum":true},{"time":1.153845,"controlNumber":11,"controlValue":110,"instrument":11,"program":0,"isDrum":true},{"time":1.137819375,"controlNumber":32,"controlValue":0,"instrument":11,"program":0,"isDrum":true},{"time":1.1618578125,"controlNumber":91,"controlValue":127,"instrument":11,"program":0,"isDrum":true},{"time":1.1618578125,"controlNumber":93,"controlValue":0,"instrument":11,"program":0,"isDrum":true},{"time":329.03064,"controlNumber":120,"controlValue":0,"instrument":11,"program":0,"isDrum":true},{"time":0.7131403125,"controlNumber":121,"controlValue":0,"instrument":11,"program":0,"isDrum":true},{"time":1.169870625,"controlNumber":0,"controlValue":0,"instrument":11,"program":0,"isDrum":false},{"time":1.1778834375,"controlNumber":32,"controlValue":0,"instrument":11,"program":0,"isDrum":false},{"time":0.721153125,"controlNumber":121,"controlValue":0,"instrument":11,"program":0,"isDrum":false},{"time":1.1939090625,"controlNumber":7,"controlValue":123,"instrument":12,"program":47,"isDrum":false},{"time":1.1939090625,"controlNumber":10,"controlValue":64,"instrument":12,"program":47,"isDrum":false},{"time":1.1939090625,"controlNumber":11,"controlValue":110,"instrument":12,"program":47,"isDrum":false},{"time":1.201921875,"controlNumber":91,"controlValue":127,"instrument":12,"program":47,"isDrum":false},{"time":1.201921875,"controlNumber":93,"controlValue":20,"instrument":12,"program":47,"isDrum":false},{"time":329.03064,"controlNumber":120,"controlValue":0,"instrument":12,"program":47,"isDrum":false},{"time":329.0386528125,"controlNumber":123,"controlValue":0,"instrument":12,"program":47,"isDrum":false}],"sourceInfo":{"encodingType":"MIDI","parser":"TONEJS_MIDI_CONVERT"}}